G04 #@! TF.GenerationSoftware,KiCad,Pcbnew,(5.1.9)-1*
G04 #@! TF.CreationDate,2021-07-06T15:31:00+07:00*
G04 #@! TF.ProjectId,main2,6d61696e-322e-46b6-9963-61645f706362,rev?*
G04 #@! TF.SameCoordinates,Original*
G04 #@! TF.FileFunction,Legend,Top*
G04 #@! TF.FilePolarity,Positive*
%FSLAX46Y46*%
G04 Gerber Fmt 4.6, Leading zero omitted, Abs format (unit mm)*
G04 Created by KiCad (PCBNEW (5.1.9)-1) date 2021-07-06 15:31:00*
%MOMM*%
%LPD*%
G01*
G04 APERTURE LIST*
%ADD10C,0.250000*%
%ADD11C,0.300000*%
%ADD12C,0.200000*%
%ADD13C,0.150000*%
%ADD14C,0.120000*%
%ADD15C,0.127000*%
%ADD16C,0.152400*%
%ADD17C,0.010000*%
%ADD18C,0.050000*%
G04 APERTURE END LIST*
D10*
X90178642Y-62900642D02*
X90392928Y-62972071D01*
X90750071Y-62972071D01*
X90892928Y-62900642D01*
X90964357Y-62829214D01*
X91035785Y-62686357D01*
X91035785Y-62543500D01*
X90964357Y-62400642D01*
X90892928Y-62329214D01*
X90750071Y-62257785D01*
X90464357Y-62186357D01*
X90321500Y-62114928D01*
X90250071Y-62043500D01*
X90178642Y-61900642D01*
X90178642Y-61757785D01*
X90250071Y-61614928D01*
X90321500Y-61543500D01*
X90464357Y-61472071D01*
X90821500Y-61472071D01*
X91035785Y-61543500D01*
X91678642Y-62972071D02*
X91678642Y-61472071D01*
X92250071Y-61472071D01*
X92392928Y-61543500D01*
X92464357Y-61614928D01*
X92535785Y-61757785D01*
X92535785Y-61972071D01*
X92464357Y-62114928D01*
X92392928Y-62186357D01*
X92250071Y-62257785D01*
X91678642Y-62257785D01*
X93178642Y-62972071D02*
X93178642Y-61472071D01*
X93535785Y-61472071D01*
X93750071Y-61543500D01*
X93892928Y-61686357D01*
X93964357Y-61829214D01*
X94035785Y-62114928D01*
X94035785Y-62329214D01*
X93964357Y-62614928D01*
X93892928Y-62757785D01*
X93750071Y-62900642D01*
X93535785Y-62972071D01*
X93178642Y-62972071D01*
X94678642Y-62972071D02*
X94678642Y-61472071D01*
X95892928Y-62186357D02*
X95392928Y-62186357D01*
X95392928Y-62972071D02*
X95392928Y-61472071D01*
X96107214Y-61472071D01*
X98107214Y-61472071D02*
X98392928Y-61472071D01*
X98535785Y-61543500D01*
X98678642Y-61686357D01*
X98750071Y-61972071D01*
X98750071Y-62472071D01*
X98678642Y-62757785D01*
X98535785Y-62900642D01*
X98392928Y-62972071D01*
X98107214Y-62972071D01*
X97964357Y-62900642D01*
X97821500Y-62757785D01*
X97750071Y-62472071D01*
X97750071Y-61972071D01*
X97821500Y-61686357D01*
X97964357Y-61543500D01*
X98107214Y-61472071D01*
X99392928Y-61472071D02*
X99392928Y-62686357D01*
X99464357Y-62829214D01*
X99535785Y-62900642D01*
X99678642Y-62972071D01*
X99964357Y-62972071D01*
X100107214Y-62900642D01*
X100178642Y-62829214D01*
X100250071Y-62686357D01*
X100250071Y-61472071D01*
X100750071Y-61472071D02*
X101607214Y-61472071D01*
X101178642Y-62972071D02*
X101178642Y-61472071D01*
X103815142Y-62837142D02*
X104029428Y-62908571D01*
X104386571Y-62908571D01*
X104529428Y-62837142D01*
X104600857Y-62765714D01*
X104672285Y-62622857D01*
X104672285Y-62480000D01*
X104600857Y-62337142D01*
X104529428Y-62265714D01*
X104386571Y-62194285D01*
X104100857Y-62122857D01*
X103958000Y-62051428D01*
X103886571Y-61980000D01*
X103815142Y-61837142D01*
X103815142Y-61694285D01*
X103886571Y-61551428D01*
X103958000Y-61480000D01*
X104100857Y-61408571D01*
X104458000Y-61408571D01*
X104672285Y-61480000D01*
X105315142Y-62908571D02*
X105315142Y-61408571D01*
X105886571Y-61408571D01*
X106029428Y-61480000D01*
X106100857Y-61551428D01*
X106172285Y-61694285D01*
X106172285Y-61908571D01*
X106100857Y-62051428D01*
X106029428Y-62122857D01*
X105886571Y-62194285D01*
X105315142Y-62194285D01*
X106815142Y-62908571D02*
X106815142Y-61408571D01*
X107172285Y-61408571D01*
X107386571Y-61480000D01*
X107529428Y-61622857D01*
X107600857Y-61765714D01*
X107672285Y-62051428D01*
X107672285Y-62265714D01*
X107600857Y-62551428D01*
X107529428Y-62694285D01*
X107386571Y-62837142D01*
X107172285Y-62908571D01*
X106815142Y-62908571D01*
X108315142Y-62908571D02*
X108315142Y-61408571D01*
X109529428Y-62122857D02*
X109029428Y-62122857D01*
X109029428Y-62908571D02*
X109029428Y-61408571D01*
X109743714Y-61408571D01*
X111458000Y-62908571D02*
X111458000Y-61408571D01*
X112172285Y-62908571D02*
X112172285Y-61408571D01*
X113029428Y-62908571D01*
X113029428Y-61408571D01*
D11*
X81613261Y-131825452D02*
X81613261Y-131444500D01*
X81518023Y-131254023D01*
X81422785Y-131158785D01*
X81137071Y-130968309D01*
X80756119Y-130873071D01*
X79994214Y-130873071D01*
X79803738Y-130968309D01*
X79708500Y-131063547D01*
X79613261Y-131254023D01*
X79613261Y-131634976D01*
X79708500Y-131825452D01*
X79803738Y-131920690D01*
X79994214Y-132015928D01*
X80470404Y-132015928D01*
X80660880Y-131920690D01*
X80756119Y-131825452D01*
X80851357Y-131634976D01*
X80851357Y-131254023D01*
X80756119Y-131063547D01*
X80660880Y-130968309D01*
X80470404Y-130873071D01*
X80851357Y-130015928D02*
X80851357Y-128492119D01*
X79613261Y-127730214D02*
X79613261Y-126492119D01*
X80375166Y-127158785D01*
X80375166Y-126873071D01*
X80470404Y-126682595D01*
X80565642Y-126587357D01*
X80756119Y-126492119D01*
X81232309Y-126492119D01*
X81422785Y-126587357D01*
X81518023Y-126682595D01*
X81613261Y-126873071D01*
X81613261Y-127444500D01*
X81518023Y-127634976D01*
X81422785Y-127730214D01*
X79613261Y-124777833D02*
X79613261Y-125158785D01*
X79708500Y-125349261D01*
X79803738Y-125444500D01*
X80089452Y-125634976D01*
X80470404Y-125730214D01*
X81232309Y-125730214D01*
X81422785Y-125634976D01*
X81518023Y-125539738D01*
X81613261Y-125349261D01*
X81613261Y-124968309D01*
X81518023Y-124777833D01*
X81422785Y-124682595D01*
X81232309Y-124587357D01*
X80756119Y-124587357D01*
X80565642Y-124682595D01*
X80470404Y-124777833D01*
X80375166Y-124968309D01*
X80375166Y-125349261D01*
X80470404Y-125539738D01*
X80565642Y-125634976D01*
X80756119Y-125730214D01*
X79613261Y-124015928D02*
X81613261Y-123349261D01*
X79613261Y-122682595D01*
X84963095Y-120792857D02*
X86486904Y-120792857D01*
X90043095Y-120792857D02*
X91566904Y-120792857D01*
X90805000Y-121554761D02*
X90805000Y-120030952D01*
D12*
X85594071Y-55276285D02*
X86594071Y-55276285D01*
X85022642Y-55633428D02*
X86094071Y-55990571D01*
X86094071Y-55062000D01*
X86022642Y-54490571D02*
X86022642Y-53347714D01*
X85236928Y-52704857D02*
X85165500Y-52633428D01*
X85094071Y-52490571D01*
X85094071Y-52133428D01*
X85165500Y-51990571D01*
X85236928Y-51919142D01*
X85379785Y-51847714D01*
X85522642Y-51847714D01*
X85736928Y-51919142D01*
X86594071Y-52776285D01*
X86594071Y-51847714D01*
X85094071Y-50919142D02*
X85094071Y-50776285D01*
X85165500Y-50633428D01*
X85236928Y-50562000D01*
X85379785Y-50490571D01*
X85665500Y-50419142D01*
X86022642Y-50419142D01*
X86308357Y-50490571D01*
X86451214Y-50562000D01*
X86522642Y-50633428D01*
X86594071Y-50776285D01*
X86594071Y-50919142D01*
X86522642Y-51062000D01*
X86451214Y-51133428D01*
X86308357Y-51204857D01*
X86022642Y-51276285D01*
X85665500Y-51276285D01*
X85379785Y-51204857D01*
X85236928Y-51133428D01*
X85165500Y-51062000D01*
X85094071Y-50919142D01*
X86594071Y-49776285D02*
X85594071Y-49776285D01*
X85736928Y-49776285D02*
X85665500Y-49704857D01*
X85594071Y-49562000D01*
X85594071Y-49347714D01*
X85665500Y-49204857D01*
X85808357Y-49133428D01*
X86594071Y-49133428D01*
X85808357Y-49133428D02*
X85665500Y-49062000D01*
X85594071Y-48919142D01*
X85594071Y-48704857D01*
X85665500Y-48562000D01*
X85808357Y-48490571D01*
X86594071Y-48490571D01*
X86165500Y-47847714D02*
X86165500Y-47133428D01*
X86594071Y-47990571D02*
X85094071Y-47490571D01*
X86594071Y-46990571D01*
D13*
X119038642Y-87050309D02*
X119086261Y-87097928D01*
X119133880Y-87240785D01*
X119133880Y-87336023D01*
X119086261Y-87478880D01*
X118991023Y-87574119D01*
X118895785Y-87621738D01*
X118705309Y-87669357D01*
X118562452Y-87669357D01*
X118371976Y-87621738D01*
X118276738Y-87574119D01*
X118181500Y-87478880D01*
X118133880Y-87336023D01*
X118133880Y-87240785D01*
X118181500Y-87097928D01*
X118229119Y-87050309D01*
X119133880Y-86145547D02*
X119133880Y-86621738D01*
X118133880Y-86621738D01*
X119133880Y-85812214D02*
X118133880Y-85812214D01*
X119133880Y-85240785D02*
X118562452Y-85669357D01*
X118133880Y-85240785D02*
X118705309Y-85812214D01*
X118133880Y-84621738D02*
X118133880Y-84431261D01*
X118181500Y-84336023D01*
X118276738Y-84240785D01*
X118467214Y-84193166D01*
X118800547Y-84193166D01*
X118991023Y-84240785D01*
X119086261Y-84336023D01*
X119133880Y-84431261D01*
X119133880Y-84621738D01*
X119086261Y-84716976D01*
X118991023Y-84812214D01*
X118800547Y-84859833D01*
X118467214Y-84859833D01*
X118276738Y-84812214D01*
X118181500Y-84716976D01*
X118133880Y-84621738D01*
X118133880Y-83764595D02*
X118943404Y-83764595D01*
X119038642Y-83716976D01*
X119086261Y-83669357D01*
X119133880Y-83574119D01*
X119133880Y-83383642D01*
X119086261Y-83288404D01*
X119038642Y-83240785D01*
X118943404Y-83193166D01*
X118133880Y-83193166D01*
X118133880Y-82859833D02*
X118133880Y-82288404D01*
X119133880Y-82574119D02*
X118133880Y-82574119D01*
X82056990Y-59499500D02*
G75*
G03*
X82056990Y-59499500I-141990J0D01*
G01*
X69483990Y-107188000D02*
G75*
G03*
X69483990Y-107188000I-141990J0D01*
G01*
X112282990Y-116141500D02*
G75*
G03*
X112282990Y-116141500I-141990J0D01*
G01*
X113743490Y-116459000D02*
G75*
G03*
X113743490Y-116459000I-141990J0D01*
G01*
X121363490Y-118364000D02*
G75*
G03*
X121363490Y-118364000I-141990J0D01*
G01*
X107520490Y-96329500D02*
G75*
G03*
X107520490Y-96329500I-141990J0D01*
G01*
X91327990Y-107124500D02*
G75*
G03*
X91327990Y-107124500I-141990J0D01*
G01*
X97233490Y-91630500D02*
G75*
G03*
X97233490Y-91630500I-141990J0D01*
G01*
X100471990Y-70485000D02*
G75*
G03*
X100471990Y-70485000I-141990J0D01*
G01*
D12*
X123424071Y-73993214D02*
X123424071Y-74850357D01*
X123424071Y-74421785D02*
X121924071Y-74421785D01*
X122138357Y-74564642D01*
X122281214Y-74707500D01*
X122352642Y-74850357D01*
X123281214Y-73350357D02*
X123352642Y-73278928D01*
X123424071Y-73350357D01*
X123352642Y-73421785D01*
X123281214Y-73350357D01*
X123424071Y-73350357D01*
X121924071Y-71921785D02*
X121924071Y-72636071D01*
X122638357Y-72707500D01*
X122566928Y-72636071D01*
X122495500Y-72493214D01*
X122495500Y-72136071D01*
X122566928Y-71993214D01*
X122638357Y-71921785D01*
X122781214Y-71850357D01*
X123138357Y-71850357D01*
X123281214Y-71921785D01*
X123352642Y-71993214D01*
X123424071Y-72136071D01*
X123424071Y-72493214D01*
X123352642Y-72636071D01*
X123281214Y-72707500D01*
X122995500Y-71278928D02*
X122995500Y-70564642D01*
X123424071Y-71421785D02*
X121924071Y-70921785D01*
X123424071Y-70421785D01*
D13*
X82550000Y-56134000D02*
X81978500Y-56578500D01*
X79819500Y-55689500D02*
X80518000Y-56388000D01*
X106489500Y-68008500D02*
X102425500Y-68008500D01*
X116903500Y-123317000D02*
X115887500Y-122682000D01*
X126174500Y-123317000D02*
X116903500Y-123317000D01*
X126174500Y-120777000D02*
X126174500Y-123317000D01*
X78930500Y-101092000D02*
X79565500Y-98488500D01*
X59944000Y-100901500D02*
X59944000Y-105346500D01*
X59626500Y-97980500D02*
X59626500Y-94742000D01*
X70485000Y-97853500D02*
X59626500Y-97980500D01*
D11*
X96075690Y-118094261D02*
X97313785Y-118094261D01*
X96647119Y-118856166D01*
X96932833Y-118856166D01*
X97123309Y-118951404D01*
X97218547Y-119046642D01*
X97313785Y-119237119D01*
X97313785Y-119713309D01*
X97218547Y-119903785D01*
X97123309Y-119999023D01*
X96932833Y-120094261D01*
X96361404Y-120094261D01*
X96170928Y-119999023D01*
X96075690Y-119903785D01*
X98075690Y-119522833D02*
X99028071Y-119522833D01*
X97885214Y-120094261D02*
X98551880Y-118094261D01*
X99218547Y-120094261D01*
D14*
X121542500Y-117852500D02*
X126742500Y-117852500D01*
X121542500Y-76009500D02*
X121542500Y-117852500D01*
X126742500Y-75882500D02*
X126742500Y-117852500D01*
X121542500Y-78422500D02*
X124142500Y-78422500D01*
X124142500Y-78422500D02*
X124142500Y-75882500D01*
X124142500Y-75882500D02*
X126682500Y-75882500D01*
X121542500Y-77216000D02*
X121542500Y-75886000D01*
X121542500Y-75886000D02*
X124142500Y-75886000D01*
X100775000Y-71090000D02*
X100300000Y-71090000D01*
X110520000Y-81310000D02*
X110520000Y-80835000D01*
X110045000Y-81310000D02*
X110520000Y-81310000D01*
X100300000Y-81310000D02*
X100300000Y-80835000D01*
X100775000Y-81310000D02*
X100300000Y-81310000D01*
X110520000Y-71090000D02*
X110520000Y-71565000D01*
X110045000Y-71090000D02*
X110520000Y-71090000D01*
D15*
X101009980Y-106970660D02*
X101009980Y-108770660D01*
X104409980Y-106970660D02*
X104409980Y-108770660D01*
X101012520Y-94189720D02*
X101012520Y-92389720D01*
X104412520Y-94189720D02*
X104412520Y-92389720D01*
X101009980Y-108770660D02*
X104409980Y-108770660D01*
X104412520Y-92389720D02*
X101012520Y-92389720D01*
D14*
X100184966Y-94747080D02*
G75*
G03*
X100184966Y-94747080I-215646J0D01*
G01*
X64704500Y-64402580D02*
X64704500Y-64121420D01*
X65724500Y-64402580D02*
X65724500Y-64121420D01*
X72070500Y-64466080D02*
X72070500Y-64184920D01*
X73090500Y-64466080D02*
X73090500Y-64184920D01*
X111555920Y-115572000D02*
X111837080Y-115572000D01*
X111555920Y-114552000D02*
X111837080Y-114552000D01*
X107698000Y-119760120D02*
X107698000Y-120041280D01*
X106678000Y-119760120D02*
X106678000Y-120041280D01*
X110249580Y-122633200D02*
X109968420Y-122633200D01*
X110249580Y-121613200D02*
X109968420Y-121613200D01*
X110249580Y-121172700D02*
X109968420Y-121172700D01*
X110249580Y-120152700D02*
X109968420Y-120152700D01*
X68149080Y-97220500D02*
X67867920Y-97220500D01*
X68149080Y-96200500D02*
X67867920Y-96200500D01*
X71435500Y-97331920D02*
X71435500Y-97613080D01*
X72455500Y-97331920D02*
X72455500Y-97613080D01*
X78932500Y-102883580D02*
X78932500Y-102602420D01*
X77912500Y-102883580D02*
X77912500Y-102602420D01*
X62180080Y-105158000D02*
X61898920Y-105158000D01*
X62180080Y-104138000D02*
X61898920Y-104138000D01*
X71868420Y-110555500D02*
X72149580Y-110555500D01*
X71868420Y-109535500D02*
X72149580Y-109535500D01*
X71868420Y-101598000D02*
X72149580Y-101598000D01*
X71868420Y-102618000D02*
X72149580Y-102618000D01*
X85155500Y-71451080D02*
X85155500Y-71169920D01*
X84135500Y-71451080D02*
X84135500Y-71169920D01*
X71868420Y-101157500D02*
X72149580Y-101157500D01*
X71868420Y-100137500D02*
X72149580Y-100137500D01*
X70737000Y-107110920D02*
X70737000Y-107392080D01*
X71757000Y-107110920D02*
X71757000Y-107392080D01*
X73217500Y-107110920D02*
X73217500Y-107392080D01*
X72197500Y-107110920D02*
X72197500Y-107392080D01*
X73979500Y-71487420D02*
X73979500Y-71768580D01*
X72959500Y-71487420D02*
X72959500Y-71768580D01*
X73658000Y-107110920D02*
X73658000Y-107392080D01*
X74678000Y-107110920D02*
X74678000Y-107392080D01*
X109106580Y-108333000D02*
X108825420Y-108333000D01*
X109106580Y-107313000D02*
X108825420Y-107313000D01*
X105789000Y-94374580D02*
X105789000Y-94093420D01*
X106809000Y-94374580D02*
X106809000Y-94093420D01*
X115302420Y-108333000D02*
X115583580Y-108333000D01*
X115302420Y-107313000D02*
X115583580Y-107313000D01*
X108725580Y-92962000D02*
X108444420Y-92962000D01*
X108725580Y-93982000D02*
X108444420Y-93982000D01*
X111492420Y-92962000D02*
X111773580Y-92962000D01*
X111492420Y-93982000D02*
X111773580Y-93982000D01*
X114821580Y-92962000D02*
X114540420Y-92962000D01*
X114821580Y-93982000D02*
X114540420Y-93982000D01*
X114857920Y-114552000D02*
X115139080Y-114552000D01*
X114857920Y-115572000D02*
X115139080Y-115572000D01*
X119890000Y-96696920D02*
X119890000Y-96978080D01*
X118870000Y-96696920D02*
X118870000Y-96978080D01*
X118870000Y-100633920D02*
X118870000Y-100915080D01*
X119890000Y-100633920D02*
X119890000Y-100915080D01*
X64035000Y-58826500D02*
X64035000Y-61111500D01*
X64035000Y-61111500D02*
X65505000Y-61111500D01*
X65505000Y-61111500D02*
X65505000Y-58826500D01*
X72807500Y-61111500D02*
X72807500Y-58826500D01*
X71337500Y-61111500D02*
X72807500Y-61111500D01*
X71337500Y-58826500D02*
X71337500Y-61111500D01*
X124560000Y-133291000D02*
X116740000Y-133291000D01*
X118540000Y-123971000D02*
X118540000Y-123541000D01*
X124560000Y-133291000D02*
X124560000Y-131341000D01*
X124560000Y-129121000D02*
X124560000Y-125891000D01*
X122760000Y-123971000D02*
X123840000Y-123971000D01*
X117460000Y-123971000D02*
X118540000Y-123971000D01*
X116740000Y-129121000D02*
X116740000Y-125891000D01*
X116740000Y-133291000D02*
X116740000Y-131341000D01*
X77107622Y-106120000D02*
X76308378Y-106120000D01*
X77107622Y-107240000D02*
X76308378Y-107240000D01*
X63832000Y-59389242D02*
X63832000Y-59863758D01*
X62787000Y-59389242D02*
X62787000Y-59863758D01*
X70216500Y-59389242D02*
X70216500Y-59863758D01*
X71261500Y-59389242D02*
X71261500Y-59863758D01*
X112441758Y-107300500D02*
X111967242Y-107300500D01*
X112441758Y-108345500D02*
X111967242Y-108345500D01*
X117460500Y-107234758D02*
X117460500Y-106760242D01*
X118505500Y-107234758D02*
X118505500Y-106760242D01*
X120791500Y-117077258D02*
X120791500Y-116602742D01*
X119746500Y-117077258D02*
X119746500Y-116602742D01*
X75992758Y-100471500D02*
X75518242Y-100471500D01*
X75992758Y-99426500D02*
X75518242Y-99426500D01*
X75264242Y-104506500D02*
X75738758Y-104506500D01*
X75264242Y-105551500D02*
X75738758Y-105551500D01*
X71771742Y-104506500D02*
X72246258Y-104506500D01*
X71771742Y-105551500D02*
X72246258Y-105551500D01*
X68848500Y-99741758D02*
X68848500Y-99267242D01*
X67803500Y-99741758D02*
X67803500Y-99267242D01*
X69264000Y-99741758D02*
X69264000Y-99267242D01*
X70309000Y-99741758D02*
X70309000Y-99267242D01*
X64467000Y-99741758D02*
X64467000Y-99267242D01*
X63422000Y-99741758D02*
X63422000Y-99267242D01*
X71771742Y-104091000D02*
X72246258Y-104091000D01*
X71771742Y-103046000D02*
X72246258Y-103046000D01*
X64882500Y-99267242D02*
X64882500Y-99741758D01*
X65927500Y-99267242D02*
X65927500Y-99741758D01*
X61802242Y-101204500D02*
X62276758Y-101204500D01*
X61802242Y-102249500D02*
X62276758Y-102249500D01*
X61802242Y-102665000D02*
X62276758Y-102665000D01*
X61802242Y-103710000D02*
X62276758Y-103710000D01*
X70245500Y-109457258D02*
X70245500Y-108982742D01*
X69200500Y-109457258D02*
X69200500Y-108982742D01*
X76151000Y-109520758D02*
X76151000Y-109046242D01*
X75106000Y-109520758D02*
X75106000Y-109046242D01*
X76566500Y-109520758D02*
X76566500Y-109046242D01*
X77611500Y-109520758D02*
X77611500Y-109046242D01*
X117968500Y-117077258D02*
X117968500Y-116602742D01*
X119013500Y-117077258D02*
X119013500Y-116602742D01*
X113425500Y-118664758D02*
X113425500Y-118190242D01*
X112380500Y-118664758D02*
X112380500Y-118190242D01*
X115586742Y-119746500D02*
X116061258Y-119746500D01*
X115586742Y-120791500D02*
X116061258Y-120791500D01*
X121397500Y-120031742D02*
X121397500Y-120506258D01*
X122442500Y-120031742D02*
X122442500Y-120506258D01*
X116061258Y-122315500D02*
X115586742Y-122315500D01*
X116061258Y-121270500D02*
X115586742Y-121270500D01*
X120080000Y-103378000D02*
G75*
G03*
X120080000Y-103378000I-700000J0D01*
G01*
X66217500Y-60388500D02*
X66217500Y-62698500D01*
X66217500Y-62698500D02*
X66432500Y-62698500D01*
X66217500Y-60388500D02*
X66217500Y-58078500D01*
X66217500Y-58078500D02*
X66432500Y-58078500D01*
X69037500Y-60388500D02*
X69037500Y-62698500D01*
X69037500Y-62698500D02*
X68822500Y-62698500D01*
X69037500Y-60388500D02*
X69037500Y-58078500D01*
X69037500Y-58078500D02*
X68822500Y-58078500D01*
X68822500Y-58078500D02*
X68822500Y-56388500D01*
X76188500Y-58078500D02*
X76188500Y-56388500D01*
X76403500Y-58078500D02*
X76188500Y-58078500D01*
X76403500Y-60388500D02*
X76403500Y-58078500D01*
X76403500Y-62698500D02*
X76188500Y-62698500D01*
X76403500Y-60388500D02*
X76403500Y-62698500D01*
X73583500Y-58078500D02*
X73798500Y-58078500D01*
X73583500Y-60388500D02*
X73583500Y-58078500D01*
X73583500Y-62698500D02*
X73798500Y-62698500D01*
X73583500Y-60388500D02*
X73583500Y-62698500D01*
X108499000Y-117032200D02*
X108499000Y-118832200D01*
X111719000Y-118832200D02*
X111719000Y-116382200D01*
X84779300Y-94070300D02*
X85399300Y-94070300D01*
X85399300Y-94070300D02*
X85399300Y-93070300D01*
X84779300Y-75830300D02*
X85399300Y-75830300D01*
X85399300Y-75830300D02*
X85399300Y-76830300D01*
X65959300Y-94070300D02*
X65959300Y-75830300D01*
X65959300Y-75830300D02*
X66379300Y-75830300D01*
X65959300Y-94070300D02*
X66379300Y-94070300D01*
X66379300Y-94070300D02*
X66379300Y-94450300D01*
X65294000Y-106440500D02*
X64819000Y-106440500D01*
X64819000Y-106440500D02*
X64819000Y-105965500D01*
X68564000Y-102220500D02*
X69039000Y-102220500D01*
X69039000Y-102220500D02*
X69039000Y-102695500D01*
X65294000Y-102220500D02*
X64819000Y-102220500D01*
X64819000Y-102220500D02*
X64819000Y-102695500D01*
X68564000Y-106440500D02*
X69039000Y-106440500D01*
X83737500Y-66924000D02*
X82477500Y-66924000D01*
X76917500Y-66924000D02*
X78177500Y-66924000D01*
X83737500Y-70684000D02*
X83737500Y-66924000D01*
X76917500Y-72934000D02*
X76917500Y-66924000D01*
D13*
X108567501Y-96820501D02*
X108567501Y-97045501D01*
X115817501Y-96820501D02*
X115817501Y-97145501D01*
X115817501Y-104070501D02*
X115817501Y-103745501D01*
X108567501Y-104070501D02*
X108567501Y-103745501D01*
X108567501Y-96820501D02*
X108892501Y-96820501D01*
X108567501Y-104070501D02*
X108892501Y-104070501D01*
X115817501Y-104070501D02*
X115492501Y-104070501D01*
X115817501Y-96820501D02*
X115492501Y-96820501D01*
X108567501Y-97045501D02*
X107142501Y-97045501D01*
D14*
X116724000Y-115992000D02*
X114274000Y-115992000D01*
X114924000Y-119212000D02*
X116724000Y-119212000D01*
X117770000Y-119496000D02*
X117770000Y-121296000D01*
X120990000Y-121296000D02*
X120990000Y-118846000D01*
X77465000Y-104127500D02*
X77465000Y-100977500D01*
X77465000Y-100977500D02*
X73665000Y-100977500D01*
X118930000Y-108702000D02*
X106330000Y-108702000D01*
X106330000Y-108702000D02*
X106330000Y-113802000D01*
X106330000Y-113802000D02*
X118930000Y-113802000D01*
X106516500Y-116134248D02*
X106516500Y-116656752D01*
X107986500Y-116134248D02*
X107986500Y-116656752D01*
X64000748Y-57821500D02*
X64523252Y-57821500D01*
X64000748Y-56351500D02*
X64523252Y-56351500D01*
X71303248Y-56288000D02*
X71825752Y-56288000D01*
X71303248Y-57758000D02*
X71825752Y-57758000D01*
X93676080Y-59815000D02*
X93394920Y-59815000D01*
X93676080Y-60835000D02*
X93394920Y-60835000D01*
X107455580Y-60835000D02*
X107174420Y-60835000D01*
X107455580Y-59815000D02*
X107174420Y-59815000D01*
X81726500Y-57925580D02*
X81726500Y-57644420D01*
X80706500Y-57925580D02*
X80706500Y-57644420D01*
X101550080Y-84961000D02*
X101268920Y-84961000D01*
X101550080Y-85981000D02*
X101268920Y-85981000D01*
X107237920Y-84961000D02*
X107519080Y-84961000D01*
X107237920Y-85981000D02*
X107519080Y-85981000D01*
X94855420Y-80647000D02*
X95136580Y-80647000D01*
X94855420Y-79627000D02*
X95136580Y-79627000D01*
X91946000Y-81039580D02*
X91946000Y-80758420D01*
X92966000Y-81039580D02*
X92966000Y-80758420D01*
X86790920Y-62232000D02*
X87072080Y-62232000D01*
X86790920Y-61212000D02*
X87072080Y-61212000D01*
X98169000Y-68466580D02*
X98169000Y-68185420D01*
X99189000Y-68466580D02*
X99189000Y-68185420D01*
X89203920Y-84516500D02*
X89485080Y-84516500D01*
X89203920Y-85536500D02*
X89485080Y-85536500D01*
X89723500Y-75678420D02*
X89723500Y-75959580D01*
X90743500Y-75678420D02*
X90743500Y-75959580D01*
X96839500Y-75678420D02*
X96839500Y-75959580D01*
X95819500Y-75678420D02*
X95819500Y-75959580D01*
X95379000Y-77773920D02*
X95379000Y-78055080D01*
X94359000Y-77773920D02*
X94359000Y-78055080D01*
X87310500Y-91453580D02*
X87310500Y-91172420D01*
X88330500Y-91453580D02*
X88330500Y-91172420D01*
X100534080Y-83437000D02*
X100252920Y-83437000D01*
X100534080Y-84457000D02*
X100252920Y-84457000D01*
X109091000Y-84568420D02*
X109091000Y-84849580D01*
X110111000Y-84568420D02*
X110111000Y-84849580D01*
X97343500Y-81075920D02*
X97343500Y-81357080D01*
X98363500Y-81075920D02*
X98363500Y-81357080D01*
X113803820Y-71092600D02*
X114084980Y-71092600D01*
X113803820Y-72112600D02*
X114084980Y-72112600D01*
X113778420Y-79944500D02*
X114059580Y-79944500D01*
X113778420Y-80964500D02*
X114059580Y-80964500D01*
X102173500Y-68466580D02*
X102173500Y-68185420D01*
X101153500Y-68466580D02*
X101153500Y-68185420D01*
X97168580Y-71626000D02*
X96887420Y-71626000D01*
X97168580Y-72646000D02*
X96887420Y-72646000D01*
X122795420Y-56453500D02*
X123076580Y-56453500D01*
X122795420Y-55433500D02*
X123076580Y-55433500D01*
X99693000Y-68466580D02*
X99693000Y-68185420D01*
X100713000Y-68466580D02*
X100713000Y-68185420D01*
X98300000Y-75678420D02*
X98300000Y-75959580D01*
X97280000Y-75678420D02*
X97280000Y-75959580D01*
X109777920Y-68324000D02*
X110059080Y-68324000D01*
X109777920Y-69344000D02*
X110059080Y-69344000D01*
X97232080Y-78103000D02*
X96950920Y-78103000D01*
X97232080Y-79123000D02*
X96950920Y-79123000D01*
X118921920Y-69661500D02*
X119203080Y-69661500D01*
X118921920Y-68641500D02*
X119203080Y-68641500D01*
X97364122Y-60885000D02*
X96564878Y-60885000D01*
X97364122Y-59765000D02*
X96564878Y-59765000D01*
X111080122Y-59765000D02*
X110280878Y-59765000D01*
X111080122Y-60885000D02*
X110280878Y-60885000D01*
X93918500Y-78077279D02*
X93918500Y-77751721D01*
X92898500Y-78077279D02*
X92898500Y-77751721D01*
X94079279Y-75567000D02*
X93753721Y-75567000D01*
X94079279Y-74547000D02*
X93753721Y-74547000D01*
X94164000Y-64638000D02*
X95264000Y-64638000D01*
X94164000Y-64368000D02*
X94164000Y-64638000D01*
X92664000Y-64368000D02*
X94164000Y-64368000D01*
X94164000Y-70998000D02*
X96994000Y-70998000D01*
X94164000Y-71268000D02*
X94164000Y-70998000D01*
X92664000Y-71268000D02*
X94164000Y-71268000D01*
X84723500Y-57547742D02*
X84723500Y-58022258D01*
X83678500Y-57547742D02*
X83678500Y-58022258D01*
X103966242Y-60847500D02*
X104440758Y-60847500D01*
X103966242Y-59802500D02*
X104440758Y-59802500D01*
X85456500Y-57865242D02*
X85456500Y-58339758D01*
X86501500Y-57865242D02*
X86501500Y-58339758D01*
X88921000Y-59337564D02*
X88921000Y-57883436D01*
X87101000Y-59337564D02*
X87101000Y-57883436D01*
X83199500Y-58022258D02*
X83199500Y-57547742D01*
X82154500Y-58022258D02*
X82154500Y-57547742D01*
X79233500Y-57547742D02*
X79233500Y-58022258D01*
X80278500Y-57547742D02*
X80278500Y-58022258D01*
X104156742Y-85993500D02*
X104631258Y-85993500D01*
X104156742Y-84948500D02*
X104631258Y-84948500D01*
X78818000Y-61387758D02*
X78818000Y-60913242D01*
X77773000Y-61387758D02*
X77773000Y-60913242D01*
X94758742Y-81075000D02*
X95233258Y-81075000D01*
X94758742Y-82120000D02*
X95233258Y-82120000D01*
X83739758Y-62244500D02*
X83265242Y-62244500D01*
X83739758Y-61199500D02*
X83265242Y-61199500D01*
X96979000Y-83963742D02*
X96979000Y-84438258D01*
X95934000Y-83963742D02*
X95934000Y-84438258D01*
X99267242Y-65581000D02*
X99741758Y-65581000D01*
X99267242Y-66626000D02*
X99741758Y-66626000D01*
X94250742Y-91616000D02*
X94725258Y-91616000D01*
X94250742Y-92661000D02*
X94725258Y-92661000D01*
X91266742Y-92661000D02*
X91741258Y-92661000D01*
X91266742Y-91616000D02*
X91741258Y-91616000D01*
X96790742Y-74119000D02*
X97265258Y-74119000D01*
X96790742Y-73074000D02*
X97265258Y-73074000D01*
X93806242Y-73074000D02*
X94280758Y-73074000D01*
X93806242Y-74119000D02*
X94280758Y-74119000D01*
X114574700Y-79556400D02*
X115574700Y-79556400D01*
X114574700Y-76196400D02*
X115574700Y-76196400D01*
X71466500Y-65921000D02*
X71466500Y-66921000D01*
X68106500Y-65921000D02*
X68106500Y-66921000D01*
X65439500Y-109720000D02*
X65439500Y-108720000D01*
X68799500Y-109720000D02*
X68799500Y-108720000D01*
X114574700Y-75860700D02*
X115574700Y-75860700D01*
X114574700Y-72500700D02*
X115574700Y-72500700D01*
D15*
X113117500Y-44850000D02*
X103417500Y-44850000D01*
X113117500Y-44850000D02*
X113117500Y-58350000D01*
X103417500Y-44850000D02*
X103417500Y-58350000D01*
X113117500Y-58350000D02*
X103417500Y-58350000D01*
X100735000Y-58350000D02*
X91035000Y-58350000D01*
X91035000Y-44850000D02*
X91035000Y-58350000D01*
X100735000Y-44850000D02*
X100735000Y-58350000D01*
X100735000Y-44850000D02*
X91035000Y-44850000D01*
D14*
X79358000Y-60387000D02*
X79358000Y-61787000D01*
X81678000Y-61787000D02*
X81678000Y-59887000D01*
D16*
X94348300Y-86995000D02*
G75*
G03*
X94348300Y-86995000I-127000J0D01*
G01*
X93599000Y-83727740D02*
X93599000Y-84293260D01*
X92202000Y-84674260D02*
X92202000Y-83727740D01*
D14*
X123226000Y-65576500D02*
X117216000Y-65576500D01*
X120976000Y-58756500D02*
X117216000Y-58756500D01*
X117216000Y-65576500D02*
X117216000Y-64316500D01*
X117216000Y-58756500D02*
X117216000Y-60016500D01*
X98519500Y-91513500D02*
X111119500Y-91513500D01*
X98519500Y-86413500D02*
X98519500Y-91513500D01*
X111119500Y-86413500D02*
X98519500Y-86413500D01*
X83643080Y-59688000D02*
X83361920Y-59688000D01*
X83643080Y-60708000D02*
X83361920Y-60708000D01*
X91184000Y-75678420D02*
X91184000Y-75959580D01*
X92204000Y-75678420D02*
X92204000Y-75959580D01*
X87236248Y-73935000D02*
X88658752Y-73935000D01*
X87236248Y-72115000D02*
X88658752Y-72115000D01*
X76411500Y-70154748D02*
X76411500Y-71577252D01*
X74591500Y-70154748D02*
X74591500Y-71577252D01*
X94368252Y-110272500D02*
X93845748Y-110272500D01*
X94368252Y-108802500D02*
X93845748Y-108802500D01*
X95946900Y-96489152D02*
X95946900Y-95966648D01*
X94476900Y-96489152D02*
X94476900Y-95966648D01*
X92004248Y-96229500D02*
X92526752Y-96229500D01*
X92004248Y-97699500D02*
X92526752Y-97699500D01*
X103987000Y-126163000D02*
X103987000Y-132663000D01*
X103987000Y-126163000D02*
X95587000Y-126163000D01*
X103987000Y-132663000D02*
X95587000Y-132663000D01*
X100021500Y-119310500D02*
X104321500Y-119310500D01*
X104321500Y-119310500D02*
X104321500Y-113610500D01*
X100021500Y-119310500D02*
X100021500Y-113610500D01*
X92485000Y-127635000D02*
G75*
G03*
X92485000Y-127635000I-1680000J0D01*
G01*
X83125000Y-131735000D02*
X93405000Y-131735000D01*
X83125000Y-130235000D02*
X93405000Y-130235000D01*
X83125000Y-125334000D02*
X93405000Y-125334000D01*
X83125000Y-122374000D02*
X93405000Y-122374000D01*
X83125000Y-132295000D02*
X93405000Y-132295000D01*
X83125000Y-122374000D02*
X83125000Y-132295000D01*
X93405000Y-122374000D02*
X93405000Y-132295000D01*
X92080000Y-126566000D02*
X92033000Y-126612000D01*
X89771000Y-128874000D02*
X89736000Y-128909000D01*
X91875000Y-126360000D02*
X91840000Y-126396000D01*
X89578000Y-128658000D02*
X89531000Y-128704000D01*
X82885000Y-131795000D02*
X82885000Y-132535000D01*
X82885000Y-132535000D02*
X83385000Y-132535000D01*
X86408318Y-129169756D02*
G75*
G02*
X85725000Y-129315000I-683318J1534756D01*
G01*
X87260426Y-126951958D02*
G75*
G02*
X87260000Y-128319000I-1535426J-683042D01*
G01*
X85041958Y-126099574D02*
G75*
G02*
X86409000Y-126100000I683042J-1535426D01*
G01*
X84189574Y-128318042D02*
G75*
G02*
X84190000Y-126951000I1535426J683042D01*
G01*
X85753805Y-129315253D02*
G75*
G02*
X85041000Y-129170000I-28805J1680253D01*
G01*
X96911900Y-105418658D02*
X96911900Y-104944142D01*
X97956900Y-105418658D02*
X97956900Y-104944142D01*
X96911900Y-101946942D02*
X96911900Y-102421458D01*
X97956900Y-101946942D02*
X97956900Y-102421458D01*
X97969600Y-98975142D02*
X97969600Y-99449658D01*
X96924600Y-98975142D02*
X96924600Y-99449658D01*
X87235420Y-118874000D02*
X87516580Y-118874000D01*
X87235420Y-117854000D02*
X87516580Y-117854000D01*
X82926500Y-109567000D02*
X79726500Y-109567000D01*
X79726500Y-109567000D02*
X79726500Y-98967000D01*
X79726500Y-98967000D02*
X82926500Y-98967000D01*
X87126500Y-98967000D02*
X90326500Y-98967000D01*
X90326500Y-98967000D02*
X90326500Y-109567000D01*
X90326500Y-109567000D02*
X87126500Y-109567000D01*
X113011000Y-130219500D02*
X113011000Y-127869500D01*
X113011000Y-123399500D02*
X113011000Y-125749500D01*
X107255437Y-123399500D02*
X113011000Y-123399500D01*
X107255437Y-130219500D02*
X113011000Y-130219500D01*
X106191000Y-129155063D02*
X106191000Y-127869500D01*
X106191000Y-124463937D02*
X106191000Y-125749500D01*
X106191000Y-124463937D02*
X107255437Y-123399500D01*
X106191000Y-129155063D02*
X107255437Y-130219500D01*
X105163500Y-124962000D02*
X105951000Y-124962000D01*
X105557250Y-124568250D02*
X105557250Y-125355750D01*
X69928000Y-71390742D02*
X69928000Y-71865258D01*
X68883000Y-71390742D02*
X68883000Y-71865258D01*
X67422500Y-71390742D02*
X67422500Y-71865258D01*
X68467500Y-71390742D02*
X68467500Y-71865258D01*
X113523500Y-84471742D02*
X113523500Y-84946258D01*
X114568500Y-84471742D02*
X114568500Y-84946258D01*
D12*
X105664606Y-123263000D02*
G75*
G03*
X105664606Y-123263000I-223606J0D01*
G01*
X94578000Y-120548000D02*
X104304000Y-120548000D01*
X104304000Y-125578000D02*
X94578000Y-125578000D01*
D14*
X84221000Y-54269000D02*
X84221000Y-44849000D01*
X84221000Y-44849000D02*
X75601000Y-44849000D01*
X75601000Y-44849000D02*
X75601000Y-54269000D01*
X84221000Y-54269000D02*
X82711000Y-54269000D01*
X75601000Y-54269000D02*
X77111000Y-54269000D01*
X80611000Y-54269000D02*
X79211000Y-54269000D01*
X84221000Y-48159000D02*
X75601000Y-48159000D01*
X81361000Y-55559000D02*
X81661000Y-54959000D01*
X81661000Y-54959000D02*
X81961000Y-55559000D01*
X81961000Y-55559000D02*
X81361000Y-55559000D01*
X77236000Y-54269000D02*
X77236000Y-44849000D01*
X77236000Y-44849000D02*
X61616000Y-44849000D01*
X61616000Y-44849000D02*
X61616000Y-54269000D01*
X77236000Y-54269000D02*
X75726000Y-54269000D01*
X61616000Y-54269000D02*
X63126000Y-54269000D01*
X73626000Y-54269000D02*
X72226000Y-54269000D01*
X70126000Y-54269000D02*
X68726000Y-54269000D01*
X66626000Y-54269000D02*
X65226000Y-54269000D01*
X77236000Y-48159000D02*
X61616000Y-48159000D01*
X74376000Y-55559000D02*
X74676000Y-54959000D01*
X74676000Y-54959000D02*
X74976000Y-55559000D01*
X74976000Y-55559000D02*
X74376000Y-55559000D01*
X87252500Y-55305000D02*
X89912500Y-55305000D01*
X87252500Y-52705000D02*
X87252500Y-55305000D01*
X89912500Y-52705000D02*
X89912500Y-55305000D01*
X87252500Y-52705000D02*
X89912500Y-52705000D01*
X87252500Y-51435000D02*
X87252500Y-50105000D01*
X87252500Y-50105000D02*
X88582500Y-50105000D01*
X66355500Y-99645080D02*
X66355500Y-99363920D01*
X67375500Y-99645080D02*
X67375500Y-99363920D01*
X64962500Y-109079420D02*
X64962500Y-109360580D01*
X63942500Y-109079420D02*
X63942500Y-109360580D01*
D11*
X61063500Y-116001000D02*
G75*
G03*
X61063500Y-116001000I-150000J0D01*
G01*
D15*
X61913500Y-117701000D02*
X61913500Y-111821000D01*
X61913500Y-133221000D02*
X61913500Y-120801000D01*
X77913500Y-117701000D02*
X77913500Y-111821000D01*
X77913500Y-133221000D02*
X77913500Y-120801000D01*
X61913500Y-133221000D02*
X77913500Y-133221000D01*
X61913500Y-111821000D02*
X77913500Y-111821000D01*
D13*
X91086700Y-104576700D02*
X91086700Y-105976700D01*
X96186700Y-104576700D02*
X96186700Y-100426700D01*
X91036700Y-104576700D02*
X91036700Y-100426700D01*
X96186700Y-104576700D02*
X96041700Y-104576700D01*
X96186700Y-100426700D02*
X96041700Y-100426700D01*
X91036700Y-100426700D02*
X91181700Y-100426700D01*
X91036700Y-104576700D02*
X91086700Y-104576700D01*
D14*
X94310252Y-111289000D02*
X92887748Y-111289000D01*
X94310252Y-114009000D02*
X92887748Y-114009000D01*
X94310252Y-117184000D02*
X92887748Y-117184000D01*
X94310252Y-114464000D02*
X92887748Y-114464000D01*
X86855248Y-111276300D02*
X88277752Y-111276300D01*
X86855248Y-113996300D02*
X88277752Y-113996300D01*
X83578752Y-114464000D02*
X82156248Y-114464000D01*
X83578752Y-117184000D02*
X82156248Y-117184000D01*
X83578752Y-111289000D02*
X82156248Y-111289000D01*
X83578752Y-114009000D02*
X82156248Y-114009000D01*
X86855248Y-114464000D02*
X88277752Y-114464000D01*
X86855248Y-117184000D02*
X88277752Y-117184000D01*
X125687500Y-72105436D02*
X125687500Y-73309564D01*
X123867500Y-72105436D02*
X123867500Y-73309564D01*
X114875000Y-86039000D02*
X117535000Y-86039000D01*
X114875000Y-85979000D02*
X114875000Y-86039000D01*
X117535000Y-85979000D02*
X117535000Y-86039000D01*
X114875000Y-85979000D02*
X117535000Y-85979000D01*
X114875000Y-84709000D02*
X114875000Y-83379000D01*
X114875000Y-83379000D02*
X116205000Y-83379000D01*
X88060000Y-82977758D02*
X88060000Y-82503242D01*
X89105000Y-82977758D02*
X89105000Y-82503242D01*
X89581758Y-80977000D02*
X89107242Y-80977000D01*
X89581758Y-79932000D02*
X89107242Y-79932000D01*
X76661242Y-97931500D02*
X77135758Y-97931500D01*
X76661242Y-96886500D02*
X77135758Y-96886500D01*
X76661242Y-95489500D02*
X77135758Y-95489500D01*
X76661242Y-96534500D02*
X77135758Y-96534500D01*
X90629000Y-82977758D02*
X90629000Y-82503242D01*
X89584000Y-82977758D02*
X89584000Y-82503242D01*
X110729500Y-84471742D02*
X110729500Y-84946258D01*
X111774500Y-84471742D02*
X111774500Y-84946258D01*
X113171500Y-84471742D02*
X113171500Y-84946258D01*
X112126500Y-84471742D02*
X112126500Y-84946258D01*
D13*
X96158500Y-91337500D02*
X96158500Y-91132500D01*
X90658500Y-91337500D02*
X90658500Y-91037500D01*
X90658500Y-85827500D02*
X90658500Y-86127500D01*
X96158500Y-85827500D02*
X96158500Y-86127500D01*
X96158500Y-91337500D02*
X90658500Y-91337500D01*
X96158500Y-85827500D02*
X90658500Y-85827500D01*
X96158500Y-91132500D02*
X97908500Y-91132500D01*
D17*
G36*
X122149153Y-84386278D02*
G01*
X122183930Y-84332961D01*
X122236863Y-84331900D01*
X122269588Y-84352877D01*
X122324949Y-84372572D01*
X122371831Y-84356220D01*
X122433011Y-84330464D01*
X122463388Y-84324264D01*
X122494223Y-84341082D01*
X122487051Y-84378815D01*
X122448273Y-84418380D01*
X122428174Y-84429237D01*
X122368030Y-84472147D01*
X122349664Y-84519221D01*
X122374255Y-84554391D01*
X122418338Y-84563323D01*
X122475536Y-84573286D01*
X122495235Y-84593206D01*
X122468016Y-84609123D01*
X122396912Y-84619914D01*
X122315941Y-84623088D01*
X122243426Y-84623088D01*
X122243426Y-84533441D01*
X122276109Y-84513092D01*
X122277632Y-84469711D01*
X122250282Y-84429799D01*
X122233764Y-84421368D01*
X122203587Y-84435113D01*
X122196412Y-84471186D01*
X122215394Y-84522556D01*
X122243426Y-84533441D01*
X122243426Y-84623088D01*
X122136647Y-84623088D01*
X122136647Y-84487680D01*
X122149153Y-84386278D01*
G37*
X122149153Y-84386278D02*
X122183930Y-84332961D01*
X122236863Y-84331900D01*
X122269588Y-84352877D01*
X122324949Y-84372572D01*
X122371831Y-84356220D01*
X122433011Y-84330464D01*
X122463388Y-84324264D01*
X122494223Y-84341082D01*
X122487051Y-84378815D01*
X122448273Y-84418380D01*
X122428174Y-84429237D01*
X122368030Y-84472147D01*
X122349664Y-84519221D01*
X122374255Y-84554391D01*
X122418338Y-84563323D01*
X122475536Y-84573286D01*
X122495235Y-84593206D01*
X122468016Y-84609123D01*
X122396912Y-84619914D01*
X122315941Y-84623088D01*
X122243426Y-84623088D01*
X122243426Y-84533441D01*
X122276109Y-84513092D01*
X122277632Y-84469711D01*
X122250282Y-84429799D01*
X122233764Y-84421368D01*
X122203587Y-84435113D01*
X122196412Y-84471186D01*
X122215394Y-84522556D01*
X122243426Y-84533441D01*
X122243426Y-84623088D01*
X122136647Y-84623088D01*
X122136647Y-84487680D01*
X122149153Y-84386278D01*
G36*
X121971659Y-84336985D02*
G01*
X122032234Y-84238315D01*
X122116142Y-84173365D01*
X122246364Y-84125484D01*
X122379670Y-84129747D01*
X122501532Y-84181486D01*
X122597421Y-84276035D01*
X122631504Y-84338900D01*
X122666740Y-84447482D01*
X122666023Y-84539745D01*
X122630226Y-84644911D01*
X122566931Y-84735085D01*
X122472245Y-84810754D01*
X122368869Y-84855904D01*
X122322452Y-84862035D01*
X122288199Y-84855457D01*
X122288199Y-84763547D01*
X122396741Y-84748287D01*
X122488038Y-84694401D01*
X122553461Y-84612056D01*
X122584376Y-84511419D01*
X122572152Y-84402658D01*
X122523823Y-84314464D01*
X122433235Y-84240427D01*
X122326460Y-84212986D01*
X122217501Y-84227328D01*
X122120362Y-84278641D01*
X122049045Y-84362110D01*
X122017556Y-84472924D01*
X122017117Y-84488617D01*
X122040733Y-84606234D01*
X122114512Y-84694772D01*
X122171045Y-84730012D01*
X122288199Y-84763547D01*
X122288199Y-84855457D01*
X122182552Y-84835165D01*
X122068249Y-84760519D01*
X121988690Y-84647776D01*
X121953025Y-84506618D01*
X121952007Y-84470063D01*
X121971659Y-84336985D01*
G37*
X121971659Y-84336985D02*
X122032234Y-84238315D01*
X122116142Y-84173365D01*
X122246364Y-84125484D01*
X122379670Y-84129747D01*
X122501532Y-84181486D01*
X122597421Y-84276035D01*
X122631504Y-84338900D01*
X122666740Y-84447482D01*
X122666023Y-84539745D01*
X122630226Y-84644911D01*
X122566931Y-84735085D01*
X122472245Y-84810754D01*
X122368869Y-84855904D01*
X122322452Y-84862035D01*
X122288199Y-84855457D01*
X122288199Y-84763547D01*
X122396741Y-84748287D01*
X122488038Y-84694401D01*
X122553461Y-84612056D01*
X122584376Y-84511419D01*
X122572152Y-84402658D01*
X122523823Y-84314464D01*
X122433235Y-84240427D01*
X122326460Y-84212986D01*
X122217501Y-84227328D01*
X122120362Y-84278641D01*
X122049045Y-84362110D01*
X122017556Y-84472924D01*
X122017117Y-84488617D01*
X122040733Y-84606234D01*
X122114512Y-84694772D01*
X122171045Y-84730012D01*
X122288199Y-84763547D01*
X122288199Y-84855457D01*
X122182552Y-84835165D01*
X122068249Y-84760519D01*
X121988690Y-84647776D01*
X121953025Y-84506618D01*
X121952007Y-84470063D01*
X121971659Y-84336985D01*
G36*
X121711670Y-88103244D02*
G01*
X121766677Y-87846099D01*
X121856849Y-87636919D01*
X121982873Y-87474855D01*
X122145437Y-87359054D01*
X122345226Y-87288667D01*
X122373845Y-87282831D01*
X122496694Y-87267712D01*
X122611855Y-87275622D01*
X122717492Y-87298487D01*
X122860091Y-87344551D01*
X122985553Y-87408870D01*
X123100965Y-87498444D01*
X123213415Y-87620268D01*
X123329989Y-87781340D01*
X123457777Y-87988657D01*
X123511564Y-88082459D01*
X123578263Y-88197872D01*
X123636085Y-88292973D01*
X123677786Y-88356133D01*
X123694173Y-88375576D01*
X123703392Y-88353298D01*
X123711150Y-88280685D01*
X123716876Y-88167157D01*
X123720002Y-88022136D01*
X123720412Y-87941793D01*
X123720412Y-87491794D01*
X124557117Y-87491794D01*
X124557117Y-89502788D01*
X124308212Y-89485223D01*
X124110949Y-89462125D01*
X123937632Y-89419191D01*
X123781749Y-89351205D01*
X123636786Y-89252948D01*
X123496230Y-89119202D01*
X123353567Y-88944752D01*
X123202283Y-88724378D01*
X123050672Y-88477911D01*
X122972430Y-88352214D01*
X122894585Y-88237850D01*
X122827758Y-88149902D01*
X122792918Y-88111853D01*
X122681643Y-88043571D01*
X122564500Y-88026473D01*
X122454005Y-88055077D01*
X122362671Y-88123903D01*
X122303011Y-88227470D01*
X122286499Y-88333672D01*
X122295547Y-88433864D01*
X122317453Y-88521041D01*
X122324419Y-88537044D01*
X122390091Y-88614582D01*
X122493469Y-88683182D01*
X122612564Y-88730966D01*
X122711882Y-88746361D01*
X122823941Y-88746853D01*
X122823941Y-89472543D01*
X122647902Y-89454143D01*
X122390749Y-89401727D01*
X122170805Y-89303890D01*
X121990050Y-89163489D01*
X121850464Y-88983379D01*
X121754025Y-88766417D01*
X121702713Y-88515459D01*
X121698508Y-88233362D01*
X121711670Y-88103244D01*
G37*
X121711670Y-88103244D02*
X121766677Y-87846099D01*
X121856849Y-87636919D01*
X121982873Y-87474855D01*
X122145437Y-87359054D01*
X122345226Y-87288667D01*
X122373845Y-87282831D01*
X122496694Y-87267712D01*
X122611855Y-87275622D01*
X122717492Y-87298487D01*
X122860091Y-87344551D01*
X122985553Y-87408870D01*
X123100965Y-87498444D01*
X123213415Y-87620268D01*
X123329989Y-87781340D01*
X123457777Y-87988657D01*
X123511564Y-88082459D01*
X123578263Y-88197872D01*
X123636085Y-88292973D01*
X123677786Y-88356133D01*
X123694173Y-88375576D01*
X123703392Y-88353298D01*
X123711150Y-88280685D01*
X123716876Y-88167157D01*
X123720002Y-88022136D01*
X123720412Y-87941793D01*
X123720412Y-87491794D01*
X124557117Y-87491794D01*
X124557117Y-89502788D01*
X124308212Y-89485223D01*
X124110949Y-89462125D01*
X123937632Y-89419191D01*
X123781749Y-89351205D01*
X123636786Y-89252948D01*
X123496230Y-89119202D01*
X123353567Y-88944752D01*
X123202283Y-88724378D01*
X123050672Y-88477911D01*
X122972430Y-88352214D01*
X122894585Y-88237850D01*
X122827758Y-88149902D01*
X122792918Y-88111853D01*
X122681643Y-88043571D01*
X122564500Y-88026473D01*
X122454005Y-88055077D01*
X122362671Y-88123903D01*
X122303011Y-88227470D01*
X122286499Y-88333672D01*
X122295547Y-88433864D01*
X122317453Y-88521041D01*
X122324419Y-88537044D01*
X122390091Y-88614582D01*
X122493469Y-88683182D01*
X122612564Y-88730966D01*
X122711882Y-88746361D01*
X122823941Y-88746853D01*
X122823941Y-89472543D01*
X122647902Y-89454143D01*
X122390749Y-89401727D01*
X122170805Y-89303890D01*
X121990050Y-89163489D01*
X121850464Y-88983379D01*
X121754025Y-88766417D01*
X121702713Y-88515459D01*
X121698508Y-88233362D01*
X121711670Y-88103244D01*
G36*
X121963963Y-86438114D02*
G01*
X121968201Y-86210298D01*
X121972525Y-86033069D01*
X121977859Y-85897259D01*
X121985125Y-85793697D01*
X121995249Y-85713212D01*
X122009152Y-85646634D01*
X122027760Y-85584793D01*
X122051994Y-85518518D01*
X122058204Y-85502352D01*
X122177136Y-85268721D01*
X122334689Y-85076811D01*
X122524997Y-84930008D01*
X122742198Y-84831699D01*
X122980428Y-84785273D01*
X123233824Y-84794115D01*
X123273163Y-84800486D01*
X123494060Y-84865363D01*
X123680223Y-84977046D01*
X123839104Y-85140183D01*
X123858258Y-85165569D01*
X123968082Y-85315180D01*
X124040566Y-85170840D01*
X124150703Y-85001396D01*
X124299392Y-84841851D01*
X124467081Y-84711510D01*
X124557117Y-84660802D01*
X124710784Y-84608057D01*
X124900267Y-84574769D01*
X125104477Y-84562127D01*
X125302327Y-84571318D01*
X125472727Y-84603531D01*
X125488265Y-84608329D01*
X125742614Y-84720762D01*
X125963555Y-84882586D01*
X126150658Y-85093350D01*
X126303493Y-85352605D01*
X126385164Y-85549441D01*
X126454647Y-85743676D01*
X126463554Y-87932279D01*
X126472461Y-90120881D01*
X124995488Y-90128632D01*
X123518515Y-90136382D01*
X124159259Y-90569676D01*
X124333244Y-90686998D01*
X124491431Y-90793031D01*
X124626938Y-90883213D01*
X124732880Y-90952983D01*
X124802376Y-90997776D01*
X124827972Y-91012931D01*
X124839886Y-90989247D01*
X124849030Y-90915081D01*
X124854597Y-90799680D01*
X124855941Y-90691696D01*
X124855941Y-90360500D01*
X125812176Y-90360500D01*
X125813764Y-91690264D01*
X126141676Y-91912550D01*
X126469588Y-92134837D01*
X126469588Y-93556789D01*
X126088588Y-93279088D01*
X125926805Y-93161052D01*
X125733337Y-93019712D01*
X125516867Y-92861424D01*
X125286074Y-92692547D01*
X125049640Y-92519439D01*
X124816244Y-92348457D01*
X124594567Y-92185959D01*
X124393290Y-92038304D01*
X124221094Y-91911848D01*
X124086659Y-91812949D01*
X124064059Y-91796292D01*
X123729410Y-91549811D01*
X123405100Y-91311466D01*
X123097827Y-91086162D01*
X122814292Y-90878799D01*
X122561195Y-90694282D01*
X122345234Y-90537511D01*
X122233764Y-90457002D01*
X121957353Y-90257878D01*
X121957353Y-89875895D01*
X121958323Y-89732681D01*
X121960977Y-89613937D01*
X121964925Y-89530852D01*
X121969781Y-89494615D01*
X121970586Y-89493911D01*
X122002480Y-89507498D01*
X122064903Y-89541169D01*
X122082645Y-89551361D01*
X122288985Y-89640283D01*
X122533217Y-89688272D01*
X122798242Y-89696782D01*
X123077941Y-89688147D01*
X123086435Y-89365691D01*
X123094929Y-89043236D01*
X123238992Y-89212059D01*
X123419219Y-89401239D01*
X123595787Y-89539495D01*
X123778280Y-89634185D01*
X123799936Y-89642560D01*
X123938237Y-89683388D01*
X124108516Y-89717685D01*
X124290539Y-89742884D01*
X124464074Y-89756419D01*
X124608888Y-89755725D01*
X124654235Y-89750889D01*
X124796176Y-89729308D01*
X124796176Y-88866382D01*
X125393823Y-88866382D01*
X125392522Y-87633735D01*
X125391621Y-87362523D01*
X125389596Y-87105442D01*
X125386588Y-86869655D01*
X125382740Y-86662322D01*
X125378193Y-86490605D01*
X125373089Y-86361665D01*
X125367571Y-86282664D01*
X125365441Y-86267465D01*
X125311384Y-86129118D01*
X125215864Y-86025215D01*
X125089966Y-85961732D01*
X124944777Y-85944647D01*
X124815237Y-85970802D01*
X124735291Y-86003276D01*
X124674897Y-86042179D01*
X124631139Y-86095956D01*
X124601099Y-86173056D01*
X124581858Y-86281925D01*
X124570500Y-86431010D01*
X124564106Y-86628757D01*
X124562662Y-86701995D01*
X124553265Y-87222853D01*
X123690529Y-87222853D01*
X123690417Y-86782088D01*
X123689464Y-86605296D01*
X123685901Y-86477150D01*
X123678522Y-86386549D01*
X123666118Y-86322390D01*
X123647482Y-86273572D01*
X123632082Y-86245833D01*
X123544752Y-86153479D01*
X123432216Y-86104664D01*
X123310414Y-86100229D01*
X123195283Y-86141014D01*
X123109641Y-86218278D01*
X123084405Y-86258512D01*
X123066509Y-86307952D01*
X123054335Y-86377853D01*
X123046270Y-86479467D01*
X123040696Y-86624046D01*
X123038371Y-86714551D01*
X123028683Y-87128461D01*
X122859077Y-87068818D01*
X122668785Y-87026670D01*
X122457306Y-87020106D01*
X122249660Y-87048171D01*
X122096233Y-87097929D01*
X121951232Y-87162435D01*
X121963963Y-86438114D01*
G37*
X121963963Y-86438114D02*
X121968201Y-86210298D01*
X121972525Y-86033069D01*
X121977859Y-85897259D01*
X121985125Y-85793697D01*
X121995249Y-85713212D01*
X122009152Y-85646634D01*
X122027760Y-85584793D01*
X122051994Y-85518518D01*
X122058204Y-85502352D01*
X122177136Y-85268721D01*
X122334689Y-85076811D01*
X122524997Y-84930008D01*
X122742198Y-84831699D01*
X122980428Y-84785273D01*
X123233824Y-84794115D01*
X123273163Y-84800486D01*
X123494060Y-84865363D01*
X123680223Y-84977046D01*
X123839104Y-85140183D01*
X123858258Y-85165569D01*
X123968082Y-85315180D01*
X124040566Y-85170840D01*
X124150703Y-85001396D01*
X124299392Y-84841851D01*
X124467081Y-84711510D01*
X124557117Y-84660802D01*
X124710784Y-84608057D01*
X124900267Y-84574769D01*
X125104477Y-84562127D01*
X125302327Y-84571318D01*
X125472727Y-84603531D01*
X125488265Y-84608329D01*
X125742614Y-84720762D01*
X125963555Y-84882586D01*
X126150658Y-85093350D01*
X126303493Y-85352605D01*
X126385164Y-85549441D01*
X126454647Y-85743676D01*
X126463554Y-87932279D01*
X126472461Y-90120881D01*
X124995488Y-90128632D01*
X123518515Y-90136382D01*
X124159259Y-90569676D01*
X124333244Y-90686998D01*
X124491431Y-90793031D01*
X124626938Y-90883213D01*
X124732880Y-90952983D01*
X124802376Y-90997776D01*
X124827972Y-91012931D01*
X124839886Y-90989247D01*
X124849030Y-90915081D01*
X124854597Y-90799680D01*
X124855941Y-90691696D01*
X124855941Y-90360500D01*
X125812176Y-90360500D01*
X125813764Y-91690264D01*
X126141676Y-91912550D01*
X126469588Y-92134837D01*
X126469588Y-93556789D01*
X126088588Y-93279088D01*
X125926805Y-93161052D01*
X125733337Y-93019712D01*
X125516867Y-92861424D01*
X125286074Y-92692547D01*
X125049640Y-92519439D01*
X124816244Y-92348457D01*
X124594567Y-92185959D01*
X124393290Y-92038304D01*
X124221094Y-91911848D01*
X124086659Y-91812949D01*
X124064059Y-91796292D01*
X123729410Y-91549811D01*
X123405100Y-91311466D01*
X123097827Y-91086162D01*
X122814292Y-90878799D01*
X122561195Y-90694282D01*
X122345234Y-90537511D01*
X122233764Y-90457002D01*
X121957353Y-90257878D01*
X121957353Y-89875895D01*
X121958323Y-89732681D01*
X121960977Y-89613937D01*
X121964925Y-89530852D01*
X121969781Y-89494615D01*
X121970586Y-89493911D01*
X122002480Y-89507498D01*
X122064903Y-89541169D01*
X122082645Y-89551361D01*
X122288985Y-89640283D01*
X122533217Y-89688272D01*
X122798242Y-89696782D01*
X123077941Y-89688147D01*
X123086435Y-89365691D01*
X123094929Y-89043236D01*
X123238992Y-89212059D01*
X123419219Y-89401239D01*
X123595787Y-89539495D01*
X123778280Y-89634185D01*
X123799936Y-89642560D01*
X123938237Y-89683388D01*
X124108516Y-89717685D01*
X124290539Y-89742884D01*
X124464074Y-89756419D01*
X124608888Y-89755725D01*
X124654235Y-89750889D01*
X124796176Y-89729308D01*
X124796176Y-88866382D01*
X125393823Y-88866382D01*
X125392522Y-87633735D01*
X125391621Y-87362523D01*
X125389596Y-87105442D01*
X125386588Y-86869655D01*
X125382740Y-86662322D01*
X125378193Y-86490605D01*
X125373089Y-86361665D01*
X125367571Y-86282664D01*
X125365441Y-86267465D01*
X125311384Y-86129118D01*
X125215864Y-86025215D01*
X125089966Y-85961732D01*
X124944777Y-85944647D01*
X124815237Y-85970802D01*
X124735291Y-86003276D01*
X124674897Y-86042179D01*
X124631139Y-86095956D01*
X124601099Y-86173056D01*
X124581858Y-86281925D01*
X124570500Y-86431010D01*
X124564106Y-86628757D01*
X124562662Y-86701995D01*
X124553265Y-87222853D01*
X123690529Y-87222853D01*
X123690417Y-86782088D01*
X123689464Y-86605296D01*
X123685901Y-86477150D01*
X123678522Y-86386549D01*
X123666118Y-86322390D01*
X123647482Y-86273572D01*
X123632082Y-86245833D01*
X123544752Y-86153479D01*
X123432216Y-86104664D01*
X123310414Y-86100229D01*
X123195283Y-86141014D01*
X123109641Y-86218278D01*
X123084405Y-86258512D01*
X123066509Y-86307952D01*
X123054335Y-86377853D01*
X123046270Y-86479467D01*
X123040696Y-86624046D01*
X123038371Y-86714551D01*
X123028683Y-87128461D01*
X122859077Y-87068818D01*
X122668785Y-87026670D01*
X122457306Y-87020106D01*
X122249660Y-87048171D01*
X122096233Y-87097929D01*
X121951232Y-87162435D01*
X121963963Y-86438114D01*
D14*
X119710252Y-55033500D02*
X118287748Y-55033500D01*
X119710252Y-56853500D02*
X118287748Y-56853500D01*
X117970248Y-66273000D02*
X119392752Y-66273000D01*
X117970248Y-68093000D02*
X119392752Y-68093000D01*
D13*
X103346404Y-68921380D02*
X103346404Y-69730904D01*
X103394023Y-69826142D01*
X103441642Y-69873761D01*
X103536880Y-69921380D01*
X103727357Y-69921380D01*
X103822595Y-69873761D01*
X103870214Y-69826142D01*
X103917833Y-69730904D01*
X103917833Y-68921380D01*
X104917833Y-69921380D02*
X104346404Y-69921380D01*
X104632119Y-69921380D02*
X104632119Y-68921380D01*
X104536880Y-69064238D01*
X104441642Y-69159476D01*
X104346404Y-69207095D01*
X105774976Y-69254714D02*
X105774976Y-69921380D01*
X105536880Y-68873761D02*
X105298785Y-69588047D01*
X105917833Y-69588047D01*
X64141642Y-64904857D02*
X64189261Y-64952476D01*
X64236880Y-65095333D01*
X64236880Y-65190571D01*
X64189261Y-65333428D01*
X64094023Y-65428666D01*
X63998785Y-65476285D01*
X63808309Y-65523904D01*
X63665452Y-65523904D01*
X63474976Y-65476285D01*
X63379738Y-65428666D01*
X63284500Y-65333428D01*
X63236880Y-65190571D01*
X63236880Y-65095333D01*
X63284500Y-64952476D01*
X63332119Y-64904857D01*
X63236880Y-64571523D02*
X63236880Y-63952476D01*
X63617833Y-64285809D01*
X63617833Y-64142952D01*
X63665452Y-64047714D01*
X63713071Y-64000095D01*
X63808309Y-63952476D01*
X64046404Y-63952476D01*
X64141642Y-64000095D01*
X64189261Y-64047714D01*
X64236880Y-64142952D01*
X64236880Y-64428666D01*
X64189261Y-64523904D01*
X64141642Y-64571523D01*
X63665452Y-63381047D02*
X63617833Y-63476285D01*
X63570214Y-63523904D01*
X63474976Y-63571523D01*
X63427357Y-63571523D01*
X63332119Y-63523904D01*
X63284500Y-63476285D01*
X63236880Y-63381047D01*
X63236880Y-63190571D01*
X63284500Y-63095333D01*
X63332119Y-63047714D01*
X63427357Y-63000095D01*
X63474976Y-63000095D01*
X63570214Y-63047714D01*
X63617833Y-63095333D01*
X63665452Y-63190571D01*
X63665452Y-63381047D01*
X63713071Y-63476285D01*
X63760690Y-63523904D01*
X63855928Y-63571523D01*
X64046404Y-63571523D01*
X64141642Y-63523904D01*
X64189261Y-63476285D01*
X64236880Y-63381047D01*
X64236880Y-63190571D01*
X64189261Y-63095333D01*
X64141642Y-63047714D01*
X64046404Y-63000095D01*
X63855928Y-63000095D01*
X63760690Y-63047714D01*
X63713071Y-63095333D01*
X63665452Y-63190571D01*
X73001142Y-67952857D02*
X73048761Y-68000476D01*
X73096380Y-68143333D01*
X73096380Y-68238571D01*
X73048761Y-68381428D01*
X72953523Y-68476666D01*
X72858285Y-68524285D01*
X72667809Y-68571904D01*
X72524952Y-68571904D01*
X72334476Y-68524285D01*
X72239238Y-68476666D01*
X72144000Y-68381428D01*
X72096380Y-68238571D01*
X72096380Y-68143333D01*
X72144000Y-68000476D01*
X72191619Y-67952857D01*
X72096380Y-67619523D02*
X72096380Y-67000476D01*
X72477333Y-67333809D01*
X72477333Y-67190952D01*
X72524952Y-67095714D01*
X72572571Y-67048095D01*
X72667809Y-67000476D01*
X72905904Y-67000476D01*
X73001142Y-67048095D01*
X73048761Y-67095714D01*
X73096380Y-67190952D01*
X73096380Y-67476666D01*
X73048761Y-67571904D01*
X73001142Y-67619523D01*
X73096380Y-66524285D02*
X73096380Y-66333809D01*
X73048761Y-66238571D01*
X73001142Y-66190952D01*
X72858285Y-66095714D01*
X72667809Y-66048095D01*
X72286857Y-66048095D01*
X72191619Y-66095714D01*
X72144000Y-66143333D01*
X72096380Y-66238571D01*
X72096380Y-66429047D01*
X72144000Y-66524285D01*
X72191619Y-66571904D01*
X72286857Y-66619523D01*
X72524952Y-66619523D01*
X72620190Y-66571904D01*
X72667809Y-66524285D01*
X72715428Y-66429047D01*
X72715428Y-66238571D01*
X72667809Y-66143333D01*
X72620190Y-66095714D01*
X72524952Y-66048095D01*
X106084642Y-120594357D02*
X106132261Y-120641976D01*
X106179880Y-120784833D01*
X106179880Y-120880071D01*
X106132261Y-121022928D01*
X106037023Y-121118166D01*
X105941785Y-121165785D01*
X105751309Y-121213404D01*
X105608452Y-121213404D01*
X105417976Y-121165785D01*
X105322738Y-121118166D01*
X105227500Y-121022928D01*
X105179880Y-120880071D01*
X105179880Y-120784833D01*
X105227500Y-120641976D01*
X105275119Y-120594357D01*
X105275119Y-120213404D02*
X105227500Y-120165785D01*
X105179880Y-120070547D01*
X105179880Y-119832452D01*
X105227500Y-119737214D01*
X105275119Y-119689595D01*
X105370357Y-119641976D01*
X105465595Y-119641976D01*
X105608452Y-119689595D01*
X106179880Y-120261023D01*
X106179880Y-119641976D01*
X105275119Y-119261023D02*
X105227500Y-119213404D01*
X105179880Y-119118166D01*
X105179880Y-118880071D01*
X105227500Y-118784833D01*
X105275119Y-118737214D01*
X105370357Y-118689595D01*
X105465595Y-118689595D01*
X105608452Y-118737214D01*
X106179880Y-119308642D01*
X106179880Y-118689595D01*
X112323642Y-122531142D02*
X112276023Y-122578761D01*
X112133166Y-122626380D01*
X112037928Y-122626380D01*
X111895071Y-122578761D01*
X111799833Y-122483523D01*
X111752214Y-122388285D01*
X111704595Y-122197809D01*
X111704595Y-122054952D01*
X111752214Y-121864476D01*
X111799833Y-121769238D01*
X111895071Y-121674000D01*
X112037928Y-121626380D01*
X112133166Y-121626380D01*
X112276023Y-121674000D01*
X112323642Y-121721619D01*
X112704595Y-121721619D02*
X112752214Y-121674000D01*
X112847452Y-121626380D01*
X113085547Y-121626380D01*
X113180785Y-121674000D01*
X113228404Y-121721619D01*
X113276023Y-121816857D01*
X113276023Y-121912095D01*
X113228404Y-122054952D01*
X112656976Y-122626380D01*
X113276023Y-122626380D01*
X114180785Y-121626380D02*
X113704595Y-121626380D01*
X113656976Y-122102571D01*
X113704595Y-122054952D01*
X113799833Y-122007333D01*
X114037928Y-122007333D01*
X114133166Y-122054952D01*
X114180785Y-122102571D01*
X114228404Y-122197809D01*
X114228404Y-122435904D01*
X114180785Y-122531142D01*
X114133166Y-122578761D01*
X114037928Y-122626380D01*
X113799833Y-122626380D01*
X113704595Y-122578761D01*
X113656976Y-122531142D01*
X112323642Y-121134142D02*
X112276023Y-121181761D01*
X112133166Y-121229380D01*
X112037928Y-121229380D01*
X111895071Y-121181761D01*
X111799833Y-121086523D01*
X111752214Y-120991285D01*
X111704595Y-120800809D01*
X111704595Y-120657952D01*
X111752214Y-120467476D01*
X111799833Y-120372238D01*
X111895071Y-120277000D01*
X112037928Y-120229380D01*
X112133166Y-120229380D01*
X112276023Y-120277000D01*
X112323642Y-120324619D01*
X112704595Y-120324619D02*
X112752214Y-120277000D01*
X112847452Y-120229380D01*
X113085547Y-120229380D01*
X113180785Y-120277000D01*
X113228404Y-120324619D01*
X113276023Y-120419857D01*
X113276023Y-120515095D01*
X113228404Y-120657952D01*
X112656976Y-121229380D01*
X113276023Y-121229380D01*
X114133166Y-120229380D02*
X113942690Y-120229380D01*
X113847452Y-120277000D01*
X113799833Y-120324619D01*
X113704595Y-120467476D01*
X113656976Y-120657952D01*
X113656976Y-121038904D01*
X113704595Y-121134142D01*
X113752214Y-121181761D01*
X113847452Y-121229380D01*
X114037928Y-121229380D01*
X114133166Y-121181761D01*
X114180785Y-121134142D01*
X114228404Y-121038904D01*
X114228404Y-120800809D01*
X114180785Y-120705571D01*
X114133166Y-120657952D01*
X114037928Y-120610333D01*
X113847452Y-120610333D01*
X113752214Y-120657952D01*
X113704595Y-120705571D01*
X113656976Y-120800809D01*
X67302142Y-95797642D02*
X67254523Y-95845261D01*
X67111666Y-95892880D01*
X67016428Y-95892880D01*
X66873571Y-95845261D01*
X66778333Y-95750023D01*
X66730714Y-95654785D01*
X66683095Y-95464309D01*
X66683095Y-95321452D01*
X66730714Y-95130976D01*
X66778333Y-95035738D01*
X66873571Y-94940500D01*
X67016428Y-94892880D01*
X67111666Y-94892880D01*
X67254523Y-94940500D01*
X67302142Y-94988119D01*
X67635476Y-94892880D02*
X68254523Y-94892880D01*
X67921190Y-95273833D01*
X68064047Y-95273833D01*
X68159285Y-95321452D01*
X68206904Y-95369071D01*
X68254523Y-95464309D01*
X68254523Y-95702404D01*
X68206904Y-95797642D01*
X68159285Y-95845261D01*
X68064047Y-95892880D01*
X67778333Y-95892880D01*
X67683095Y-95845261D01*
X67635476Y-95797642D01*
X68587857Y-94892880D02*
X69206904Y-94892880D01*
X68873571Y-95273833D01*
X69016428Y-95273833D01*
X69111666Y-95321452D01*
X69159285Y-95369071D01*
X69206904Y-95464309D01*
X69206904Y-95702404D01*
X69159285Y-95797642D01*
X69111666Y-95845261D01*
X69016428Y-95892880D01*
X68730714Y-95892880D01*
X68635476Y-95845261D01*
X68587857Y-95797642D01*
X73763142Y-98115357D02*
X73810761Y-98162976D01*
X73858380Y-98305833D01*
X73858380Y-98401071D01*
X73810761Y-98543928D01*
X73715523Y-98639166D01*
X73620285Y-98686785D01*
X73429809Y-98734404D01*
X73286952Y-98734404D01*
X73096476Y-98686785D01*
X73001238Y-98639166D01*
X72906000Y-98543928D01*
X72858380Y-98401071D01*
X72858380Y-98305833D01*
X72906000Y-98162976D01*
X72953619Y-98115357D01*
X72858380Y-97782023D02*
X72858380Y-97162976D01*
X73239333Y-97496309D01*
X73239333Y-97353452D01*
X73286952Y-97258214D01*
X73334571Y-97210595D01*
X73429809Y-97162976D01*
X73667904Y-97162976D01*
X73763142Y-97210595D01*
X73810761Y-97258214D01*
X73858380Y-97353452D01*
X73858380Y-97639166D01*
X73810761Y-97734404D01*
X73763142Y-97782023D01*
X73191714Y-96305833D02*
X73858380Y-96305833D01*
X72810761Y-96543928D02*
X73525047Y-96782023D01*
X73525047Y-96162976D01*
X80065642Y-98210642D02*
X80018023Y-98258261D01*
X79875166Y-98305880D01*
X79779928Y-98305880D01*
X79637071Y-98258261D01*
X79541833Y-98163023D01*
X79494214Y-98067785D01*
X79446595Y-97877309D01*
X79446595Y-97734452D01*
X79494214Y-97543976D01*
X79541833Y-97448738D01*
X79637071Y-97353500D01*
X79779928Y-97305880D01*
X79875166Y-97305880D01*
X80018023Y-97353500D01*
X80065642Y-97401119D01*
X80398976Y-97305880D02*
X81018023Y-97305880D01*
X80684690Y-97686833D01*
X80827547Y-97686833D01*
X80922785Y-97734452D01*
X80970404Y-97782071D01*
X81018023Y-97877309D01*
X81018023Y-98115404D01*
X80970404Y-98210642D01*
X80922785Y-98258261D01*
X80827547Y-98305880D01*
X80541833Y-98305880D01*
X80446595Y-98258261D01*
X80398976Y-98210642D01*
X81351357Y-97305880D02*
X82018023Y-97305880D01*
X81589452Y-98305880D01*
X60380642Y-109259642D02*
X60333023Y-109307261D01*
X60190166Y-109354880D01*
X60094928Y-109354880D01*
X59952071Y-109307261D01*
X59856833Y-109212023D01*
X59809214Y-109116785D01*
X59761595Y-108926309D01*
X59761595Y-108783452D01*
X59809214Y-108592976D01*
X59856833Y-108497738D01*
X59952071Y-108402500D01*
X60094928Y-108354880D01*
X60190166Y-108354880D01*
X60333023Y-108402500D01*
X60380642Y-108450119D01*
X61237785Y-108688214D02*
X61237785Y-109354880D01*
X60999690Y-108307261D02*
X60761595Y-109021547D01*
X61380642Y-109021547D01*
X61952071Y-108354880D02*
X62047309Y-108354880D01*
X62142547Y-108402500D01*
X62190166Y-108450119D01*
X62237785Y-108545357D01*
X62285404Y-108735833D01*
X62285404Y-108973928D01*
X62237785Y-109164404D01*
X62190166Y-109259642D01*
X62142547Y-109307261D01*
X62047309Y-109354880D01*
X61952071Y-109354880D01*
X61856833Y-109307261D01*
X61809214Y-109259642D01*
X61761595Y-109164404D01*
X61713976Y-108973928D01*
X61713976Y-108735833D01*
X61761595Y-108545357D01*
X61809214Y-108450119D01*
X61856833Y-108402500D01*
X61952071Y-108354880D01*
X72064642Y-111799642D02*
X72017023Y-111847261D01*
X71874166Y-111894880D01*
X71778928Y-111894880D01*
X71636071Y-111847261D01*
X71540833Y-111752023D01*
X71493214Y-111656785D01*
X71445595Y-111466309D01*
X71445595Y-111323452D01*
X71493214Y-111132976D01*
X71540833Y-111037738D01*
X71636071Y-110942500D01*
X71778928Y-110894880D01*
X71874166Y-110894880D01*
X72017023Y-110942500D01*
X72064642Y-110990119D01*
X72921785Y-111228214D02*
X72921785Y-111894880D01*
X72683690Y-110847261D02*
X72445595Y-111561547D01*
X73064642Y-111561547D01*
X73350357Y-110894880D02*
X73969404Y-110894880D01*
X73636071Y-111275833D01*
X73778928Y-111275833D01*
X73874166Y-111323452D01*
X73921785Y-111371071D01*
X73969404Y-111466309D01*
X73969404Y-111704404D01*
X73921785Y-111799642D01*
X73874166Y-111847261D01*
X73778928Y-111894880D01*
X73493214Y-111894880D01*
X73397976Y-111847261D01*
X73350357Y-111799642D01*
X85066142Y-69032357D02*
X85113761Y-69079976D01*
X85161380Y-69222833D01*
X85161380Y-69318071D01*
X85113761Y-69460928D01*
X85018523Y-69556166D01*
X84923285Y-69603785D01*
X84732809Y-69651404D01*
X84589952Y-69651404D01*
X84399476Y-69603785D01*
X84304238Y-69556166D01*
X84209000Y-69460928D01*
X84161380Y-69318071D01*
X84161380Y-69222833D01*
X84209000Y-69079976D01*
X84256619Y-69032357D01*
X84494714Y-68175214D02*
X85161380Y-68175214D01*
X84113761Y-68413309D02*
X84828047Y-68651404D01*
X84828047Y-68032357D01*
X84161380Y-67175214D02*
X84161380Y-67651404D01*
X84637571Y-67699023D01*
X84589952Y-67651404D01*
X84542333Y-67556166D01*
X84542333Y-67318071D01*
X84589952Y-67222833D01*
X84637571Y-67175214D01*
X84732809Y-67127595D01*
X84970904Y-67127595D01*
X85066142Y-67175214D01*
X85113761Y-67222833D01*
X85161380Y-67318071D01*
X85161380Y-67556166D01*
X85113761Y-67651404D01*
X85066142Y-67699023D01*
X72318642Y-74271142D02*
X72271023Y-74318761D01*
X72128166Y-74366380D01*
X72032928Y-74366380D01*
X71890071Y-74318761D01*
X71794833Y-74223523D01*
X71747214Y-74128285D01*
X71699595Y-73937809D01*
X71699595Y-73794952D01*
X71747214Y-73604476D01*
X71794833Y-73509238D01*
X71890071Y-73414000D01*
X72032928Y-73366380D01*
X72128166Y-73366380D01*
X72271023Y-73414000D01*
X72318642Y-73461619D01*
X73223404Y-73366380D02*
X72747214Y-73366380D01*
X72699595Y-73842571D01*
X72747214Y-73794952D01*
X72842452Y-73747333D01*
X73080547Y-73747333D01*
X73175785Y-73794952D01*
X73223404Y-73842571D01*
X73271023Y-73937809D01*
X73271023Y-74175904D01*
X73223404Y-74271142D01*
X73175785Y-74318761D01*
X73080547Y-74366380D01*
X72842452Y-74366380D01*
X72747214Y-74318761D01*
X72699595Y-74271142D01*
X74223404Y-74366380D02*
X73651976Y-74366380D01*
X73937690Y-74366380D02*
X73937690Y-73366380D01*
X73842452Y-73509238D01*
X73747214Y-73604476D01*
X73651976Y-73652095D01*
X106322833Y-108180142D02*
X106275214Y-108227761D01*
X106132357Y-108275380D01*
X106037119Y-108275380D01*
X105894261Y-108227761D01*
X105799023Y-108132523D01*
X105751404Y-108037285D01*
X105703785Y-107846809D01*
X105703785Y-107703952D01*
X105751404Y-107513476D01*
X105799023Y-107418238D01*
X105894261Y-107323000D01*
X106037119Y-107275380D01*
X106132357Y-107275380D01*
X106275214Y-107323000D01*
X106322833Y-107370619D01*
X107275214Y-108275380D02*
X106703785Y-108275380D01*
X106989500Y-108275380D02*
X106989500Y-107275380D01*
X106894261Y-107418238D01*
X106799023Y-107513476D01*
X106703785Y-107561095D01*
X106132333Y-92559142D02*
X106084714Y-92606761D01*
X105941857Y-92654380D01*
X105846619Y-92654380D01*
X105703761Y-92606761D01*
X105608523Y-92511523D01*
X105560904Y-92416285D01*
X105513285Y-92225809D01*
X105513285Y-92082952D01*
X105560904Y-91892476D01*
X105608523Y-91797238D01*
X105703761Y-91702000D01*
X105846619Y-91654380D01*
X105941857Y-91654380D01*
X106084714Y-91702000D01*
X106132333Y-91749619D01*
X106513285Y-91749619D02*
X106560904Y-91702000D01*
X106656142Y-91654380D01*
X106894238Y-91654380D01*
X106989476Y-91702000D01*
X107037095Y-91749619D01*
X107084714Y-91844857D01*
X107084714Y-91940095D01*
X107037095Y-92082952D01*
X106465666Y-92654380D01*
X107084714Y-92654380D01*
X115276333Y-106910142D02*
X115228714Y-106957761D01*
X115085857Y-107005380D01*
X114990619Y-107005380D01*
X114847761Y-106957761D01*
X114752523Y-106862523D01*
X114704904Y-106767285D01*
X114657285Y-106576809D01*
X114657285Y-106433952D01*
X114704904Y-106243476D01*
X114752523Y-106148238D01*
X114847761Y-106053000D01*
X114990619Y-106005380D01*
X115085857Y-106005380D01*
X115228714Y-106053000D01*
X115276333Y-106100619D01*
X115609666Y-106005380D02*
X116228714Y-106005380D01*
X115895380Y-106386333D01*
X116038238Y-106386333D01*
X116133476Y-106433952D01*
X116181095Y-106481571D01*
X116228714Y-106576809D01*
X116228714Y-106814904D01*
X116181095Y-106910142D01*
X116133476Y-106957761D01*
X116038238Y-107005380D01*
X115752523Y-107005380D01*
X115657285Y-106957761D01*
X115609666Y-106910142D01*
X108545333Y-92559142D02*
X108497714Y-92606761D01*
X108354857Y-92654380D01*
X108259619Y-92654380D01*
X108116761Y-92606761D01*
X108021523Y-92511523D01*
X107973904Y-92416285D01*
X107926285Y-92225809D01*
X107926285Y-92082952D01*
X107973904Y-91892476D01*
X108021523Y-91797238D01*
X108116761Y-91702000D01*
X108259619Y-91654380D01*
X108354857Y-91654380D01*
X108497714Y-91702000D01*
X108545333Y-91749619D01*
X109402476Y-91987714D02*
X109402476Y-92654380D01*
X109164380Y-91606761D02*
X108926285Y-92321047D01*
X109545333Y-92321047D01*
X111466333Y-92399142D02*
X111418714Y-92446761D01*
X111275857Y-92494380D01*
X111180619Y-92494380D01*
X111037761Y-92446761D01*
X110942523Y-92351523D01*
X110894904Y-92256285D01*
X110847285Y-92065809D01*
X110847285Y-91922952D01*
X110894904Y-91732476D01*
X110942523Y-91637238D01*
X111037761Y-91542000D01*
X111180619Y-91494380D01*
X111275857Y-91494380D01*
X111418714Y-91542000D01*
X111466333Y-91589619D01*
X112371095Y-91494380D02*
X111894904Y-91494380D01*
X111847285Y-91970571D01*
X111894904Y-91922952D01*
X111990142Y-91875333D01*
X112228238Y-91875333D01*
X112323476Y-91922952D01*
X112371095Y-91970571D01*
X112418714Y-92065809D01*
X112418714Y-92303904D01*
X112371095Y-92399142D01*
X112323476Y-92446761D01*
X112228238Y-92494380D01*
X111990142Y-92494380D01*
X111894904Y-92446761D01*
X111847285Y-92399142D01*
X114450833Y-92432142D02*
X114403214Y-92479761D01*
X114260357Y-92527380D01*
X114165119Y-92527380D01*
X114022261Y-92479761D01*
X113927023Y-92384523D01*
X113879404Y-92289285D01*
X113831785Y-92098809D01*
X113831785Y-91955952D01*
X113879404Y-91765476D01*
X113927023Y-91670238D01*
X114022261Y-91575000D01*
X114165119Y-91527380D01*
X114260357Y-91527380D01*
X114403214Y-91575000D01*
X114450833Y-91622619D01*
X115307976Y-91527380D02*
X115117500Y-91527380D01*
X115022261Y-91575000D01*
X114974642Y-91622619D01*
X114879404Y-91765476D01*
X114831785Y-91955952D01*
X114831785Y-92336904D01*
X114879404Y-92432142D01*
X114927023Y-92479761D01*
X115022261Y-92527380D01*
X115212738Y-92527380D01*
X115307976Y-92479761D01*
X115355595Y-92432142D01*
X115403214Y-92336904D01*
X115403214Y-92098809D01*
X115355595Y-92003571D01*
X115307976Y-91955952D01*
X115212738Y-91908333D01*
X115022261Y-91908333D01*
X114927023Y-91955952D01*
X114879404Y-92003571D01*
X114831785Y-92098809D01*
X121197642Y-97004166D02*
X121245261Y-97051785D01*
X121292880Y-97194642D01*
X121292880Y-97289880D01*
X121245261Y-97432738D01*
X121150023Y-97527976D01*
X121054785Y-97575595D01*
X120864309Y-97623214D01*
X120721452Y-97623214D01*
X120530976Y-97575595D01*
X120435738Y-97527976D01*
X120340500Y-97432738D01*
X120292880Y-97289880D01*
X120292880Y-97194642D01*
X120340500Y-97051785D01*
X120388119Y-97004166D01*
X120721452Y-96432738D02*
X120673833Y-96527976D01*
X120626214Y-96575595D01*
X120530976Y-96623214D01*
X120483357Y-96623214D01*
X120388119Y-96575595D01*
X120340500Y-96527976D01*
X120292880Y-96432738D01*
X120292880Y-96242261D01*
X120340500Y-96147023D01*
X120388119Y-96099404D01*
X120483357Y-96051785D01*
X120530976Y-96051785D01*
X120626214Y-96099404D01*
X120673833Y-96147023D01*
X120721452Y-96242261D01*
X120721452Y-96432738D01*
X120769071Y-96527976D01*
X120816690Y-96575595D01*
X120911928Y-96623214D01*
X121102404Y-96623214D01*
X121197642Y-96575595D01*
X121245261Y-96527976D01*
X121292880Y-96432738D01*
X121292880Y-96242261D01*
X121245261Y-96147023D01*
X121197642Y-96099404D01*
X121102404Y-96051785D01*
X120911928Y-96051785D01*
X120816690Y-96099404D01*
X120769071Y-96147023D01*
X120721452Y-96242261D01*
X121167142Y-100941166D02*
X121214761Y-100988785D01*
X121262380Y-101131642D01*
X121262380Y-101226880D01*
X121214761Y-101369738D01*
X121119523Y-101464976D01*
X121024285Y-101512595D01*
X120833809Y-101560214D01*
X120690952Y-101560214D01*
X120500476Y-101512595D01*
X120405238Y-101464976D01*
X120310000Y-101369738D01*
X120262380Y-101226880D01*
X120262380Y-101131642D01*
X120310000Y-100988785D01*
X120357619Y-100941166D01*
X121262380Y-100464976D02*
X121262380Y-100274500D01*
X121214761Y-100179261D01*
X121167142Y-100131642D01*
X121024285Y-100036404D01*
X120833809Y-99988785D01*
X120452857Y-99988785D01*
X120357619Y-100036404D01*
X120310000Y-100084023D01*
X120262380Y-100179261D01*
X120262380Y-100369738D01*
X120310000Y-100464976D01*
X120357619Y-100512595D01*
X120452857Y-100560214D01*
X120690952Y-100560214D01*
X120786190Y-100512595D01*
X120833809Y-100464976D01*
X120881428Y-100369738D01*
X120881428Y-100179261D01*
X120833809Y-100084023D01*
X120786190Y-100036404D01*
X120690952Y-99988785D01*
X64031904Y-62428380D02*
X64031904Y-61428380D01*
X64270000Y-61428380D01*
X64412857Y-61476000D01*
X64508095Y-61571238D01*
X64555714Y-61666476D01*
X64603333Y-61856952D01*
X64603333Y-61999809D01*
X64555714Y-62190285D01*
X64508095Y-62285523D01*
X64412857Y-62380761D01*
X64270000Y-62428380D01*
X64031904Y-62428380D01*
X65460476Y-61761714D02*
X65460476Y-62428380D01*
X65222380Y-61380761D02*
X64984285Y-62095047D01*
X65603333Y-62095047D01*
X71588404Y-62491880D02*
X71588404Y-61491880D01*
X71826500Y-61491880D01*
X71969357Y-61539500D01*
X72064595Y-61634738D01*
X72112214Y-61729976D01*
X72159833Y-61920452D01*
X72159833Y-62063309D01*
X72112214Y-62253785D01*
X72064595Y-62349023D01*
X71969357Y-62444261D01*
X71826500Y-62491880D01*
X71588404Y-62491880D01*
X73064595Y-61491880D02*
X72588404Y-61491880D01*
X72540785Y-61968071D01*
X72588404Y-61920452D01*
X72683642Y-61872833D01*
X72921738Y-61872833D01*
X73016976Y-61920452D01*
X73064595Y-61968071D01*
X73112214Y-62063309D01*
X73112214Y-62301404D01*
X73064595Y-62396642D01*
X73016976Y-62444261D01*
X72921738Y-62491880D01*
X72683642Y-62491880D01*
X72588404Y-62444261D01*
X72540785Y-62396642D01*
X120253166Y-129055880D02*
X120253166Y-129770166D01*
X120205547Y-129913023D01*
X120110309Y-130008261D01*
X119967452Y-130055880D01*
X119872214Y-130055880D01*
X120634119Y-129055880D02*
X121253166Y-129055880D01*
X120919833Y-129436833D01*
X121062690Y-129436833D01*
X121157928Y-129484452D01*
X121205547Y-129532071D01*
X121253166Y-129627309D01*
X121253166Y-129865404D01*
X121205547Y-129960642D01*
X121157928Y-130008261D01*
X121062690Y-130055880D01*
X120776976Y-130055880D01*
X120681738Y-130008261D01*
X120634119Y-129960642D01*
X79573380Y-106783166D02*
X79573380Y-107259357D01*
X78573380Y-107259357D01*
X78668619Y-106497452D02*
X78621000Y-106449833D01*
X78573380Y-106354595D01*
X78573380Y-106116500D01*
X78621000Y-106021261D01*
X78668619Y-105973642D01*
X78763857Y-105926023D01*
X78859095Y-105926023D01*
X79001952Y-105973642D01*
X79573380Y-106545071D01*
X79573380Y-105926023D01*
X62301380Y-60332857D02*
X61825190Y-60666190D01*
X62301380Y-60904285D02*
X61301380Y-60904285D01*
X61301380Y-60523333D01*
X61349000Y-60428095D01*
X61396619Y-60380476D01*
X61491857Y-60332857D01*
X61634714Y-60332857D01*
X61729952Y-60380476D01*
X61777571Y-60428095D01*
X61825190Y-60523333D01*
X61825190Y-60904285D01*
X61301380Y-59999523D02*
X61301380Y-59380476D01*
X61682333Y-59713809D01*
X61682333Y-59570952D01*
X61729952Y-59475714D01*
X61777571Y-59428095D01*
X61872809Y-59380476D01*
X62110904Y-59380476D01*
X62206142Y-59428095D01*
X62253761Y-59475714D01*
X62301380Y-59570952D01*
X62301380Y-59856666D01*
X62253761Y-59951904D01*
X62206142Y-59999523D01*
X61634714Y-58523333D02*
X62301380Y-58523333D01*
X61253761Y-58761428D02*
X61968047Y-58999523D01*
X61968047Y-58380476D01*
X71127880Y-63190357D02*
X70651690Y-63523690D01*
X71127880Y-63761785D02*
X70127880Y-63761785D01*
X70127880Y-63380833D01*
X70175500Y-63285595D01*
X70223119Y-63237976D01*
X70318357Y-63190357D01*
X70461214Y-63190357D01*
X70556452Y-63237976D01*
X70604071Y-63285595D01*
X70651690Y-63380833D01*
X70651690Y-63761785D01*
X70127880Y-62857023D02*
X70127880Y-62237976D01*
X70508833Y-62571309D01*
X70508833Y-62428452D01*
X70556452Y-62333214D01*
X70604071Y-62285595D01*
X70699309Y-62237976D01*
X70937404Y-62237976D01*
X71032642Y-62285595D01*
X71080261Y-62333214D01*
X71127880Y-62428452D01*
X71127880Y-62714166D01*
X71080261Y-62809404D01*
X71032642Y-62857023D01*
X70127880Y-61333214D02*
X70127880Y-61809404D01*
X70604071Y-61857023D01*
X70556452Y-61809404D01*
X70508833Y-61714166D01*
X70508833Y-61476071D01*
X70556452Y-61380833D01*
X70604071Y-61333214D01*
X70699309Y-61285595D01*
X70937404Y-61285595D01*
X71032642Y-61333214D01*
X71080261Y-61380833D01*
X71127880Y-61476071D01*
X71127880Y-61714166D01*
X71080261Y-61809404D01*
X71032642Y-61857023D01*
X112101333Y-107005380D02*
X111768000Y-106529190D01*
X111529904Y-107005380D02*
X111529904Y-106005380D01*
X111910857Y-106005380D01*
X112006095Y-106053000D01*
X112053714Y-106100619D01*
X112101333Y-106195857D01*
X112101333Y-106338714D01*
X112053714Y-106433952D01*
X112006095Y-106481571D01*
X111910857Y-106529190D01*
X111529904Y-106529190D01*
X113053714Y-107005380D02*
X112482285Y-107005380D01*
X112768000Y-107005380D02*
X112768000Y-106005380D01*
X112672761Y-106148238D01*
X112577523Y-106243476D01*
X112482285Y-106291095D01*
X119895880Y-107100666D02*
X119419690Y-107434000D01*
X119895880Y-107672095D02*
X118895880Y-107672095D01*
X118895880Y-107291142D01*
X118943500Y-107195904D01*
X118991119Y-107148285D01*
X119086357Y-107100666D01*
X119229214Y-107100666D01*
X119324452Y-107148285D01*
X119372071Y-107195904D01*
X119419690Y-107291142D01*
X119419690Y-107672095D01*
X118991119Y-106719714D02*
X118943500Y-106672095D01*
X118895880Y-106576857D01*
X118895880Y-106338761D01*
X118943500Y-106243523D01*
X118991119Y-106195904D01*
X119086357Y-106148285D01*
X119181595Y-106148285D01*
X119324452Y-106195904D01*
X119895880Y-106767333D01*
X119895880Y-106148285D01*
X121229380Y-113831666D02*
X120753190Y-114165000D01*
X121229380Y-114403095D02*
X120229380Y-114403095D01*
X120229380Y-114022142D01*
X120277000Y-113926904D01*
X120324619Y-113879285D01*
X120419857Y-113831666D01*
X120562714Y-113831666D01*
X120657952Y-113879285D01*
X120705571Y-113926904D01*
X120753190Y-114022142D01*
X120753190Y-114403095D01*
X120229380Y-113498333D02*
X120229380Y-112879285D01*
X120610333Y-113212619D01*
X120610333Y-113069761D01*
X120657952Y-112974523D01*
X120705571Y-112926904D01*
X120800809Y-112879285D01*
X121038904Y-112879285D01*
X121134142Y-112926904D01*
X121181761Y-112974523D01*
X121229380Y-113069761D01*
X121229380Y-113355476D01*
X121181761Y-113450714D01*
X121134142Y-113498333D01*
X75112642Y-99131380D02*
X74779309Y-98655190D01*
X74541214Y-99131380D02*
X74541214Y-98131380D01*
X74922166Y-98131380D01*
X75017404Y-98179000D01*
X75065023Y-98226619D01*
X75112642Y-98321857D01*
X75112642Y-98464714D01*
X75065023Y-98559952D01*
X75017404Y-98607571D01*
X74922166Y-98655190D01*
X74541214Y-98655190D01*
X75493595Y-98226619D02*
X75541214Y-98179000D01*
X75636452Y-98131380D01*
X75874547Y-98131380D01*
X75969785Y-98179000D01*
X76017404Y-98226619D01*
X76065023Y-98321857D01*
X76065023Y-98417095D01*
X76017404Y-98559952D01*
X75445976Y-99131380D01*
X76065023Y-99131380D01*
X76922166Y-98464714D02*
X76922166Y-99131380D01*
X76684071Y-98083761D02*
X76445976Y-98798047D01*
X77065023Y-98798047D01*
X64904880Y-96908857D02*
X64428690Y-97242190D01*
X64904880Y-97480285D02*
X63904880Y-97480285D01*
X63904880Y-97099333D01*
X63952500Y-97004095D01*
X64000119Y-96956476D01*
X64095357Y-96908857D01*
X64238214Y-96908857D01*
X64333452Y-96956476D01*
X64381071Y-97004095D01*
X64428690Y-97099333D01*
X64428690Y-97480285D01*
X64000119Y-96527904D02*
X63952500Y-96480285D01*
X63904880Y-96385047D01*
X63904880Y-96146952D01*
X63952500Y-96051714D01*
X64000119Y-96004095D01*
X64095357Y-95956476D01*
X64190595Y-95956476D01*
X64333452Y-96004095D01*
X64904880Y-96575523D01*
X64904880Y-95956476D01*
X63904880Y-95623142D02*
X63904880Y-94956476D01*
X64904880Y-95385047D01*
X66238380Y-96908857D02*
X65762190Y-97242190D01*
X66238380Y-97480285D02*
X65238380Y-97480285D01*
X65238380Y-97099333D01*
X65286000Y-97004095D01*
X65333619Y-96956476D01*
X65428857Y-96908857D01*
X65571714Y-96908857D01*
X65666952Y-96956476D01*
X65714571Y-97004095D01*
X65762190Y-97099333D01*
X65762190Y-97480285D01*
X65333619Y-96527904D02*
X65286000Y-96480285D01*
X65238380Y-96385047D01*
X65238380Y-96146952D01*
X65286000Y-96051714D01*
X65333619Y-96004095D01*
X65428857Y-95956476D01*
X65524095Y-95956476D01*
X65666952Y-96004095D01*
X66238380Y-96575523D01*
X66238380Y-95956476D01*
X65666952Y-95385047D02*
X65619333Y-95480285D01*
X65571714Y-95527904D01*
X65476476Y-95575523D01*
X65428857Y-95575523D01*
X65333619Y-95527904D01*
X65286000Y-95480285D01*
X65238380Y-95385047D01*
X65238380Y-95194571D01*
X65286000Y-95099333D01*
X65333619Y-95051714D01*
X65428857Y-95004095D01*
X65476476Y-95004095D01*
X65571714Y-95051714D01*
X65619333Y-95099333D01*
X65666952Y-95194571D01*
X65666952Y-95385047D01*
X65714571Y-95480285D01*
X65762190Y-95527904D01*
X65857428Y-95575523D01*
X66047904Y-95575523D01*
X66143142Y-95527904D01*
X66190761Y-95480285D01*
X66238380Y-95385047D01*
X66238380Y-95194571D01*
X66190761Y-95099333D01*
X66143142Y-95051714D01*
X66047904Y-95004095D01*
X65857428Y-95004095D01*
X65762190Y-95051714D01*
X65714571Y-95099333D01*
X65666952Y-95194571D01*
X60967880Y-96908857D02*
X60491690Y-97242190D01*
X60967880Y-97480285D02*
X59967880Y-97480285D01*
X59967880Y-97099333D01*
X60015500Y-97004095D01*
X60063119Y-96956476D01*
X60158357Y-96908857D01*
X60301214Y-96908857D01*
X60396452Y-96956476D01*
X60444071Y-97004095D01*
X60491690Y-97099333D01*
X60491690Y-97480285D01*
X60063119Y-96527904D02*
X60015500Y-96480285D01*
X59967880Y-96385047D01*
X59967880Y-96146952D01*
X60015500Y-96051714D01*
X60063119Y-96004095D01*
X60158357Y-95956476D01*
X60253595Y-95956476D01*
X60396452Y-96004095D01*
X60967880Y-96575523D01*
X60967880Y-95956476D01*
X60967880Y-95480285D02*
X60967880Y-95289809D01*
X60920261Y-95194571D01*
X60872642Y-95146952D01*
X60729785Y-95051714D01*
X60539309Y-95004095D01*
X60158357Y-95004095D01*
X60063119Y-95051714D01*
X60015500Y-95099333D01*
X59967880Y-95194571D01*
X59967880Y-95385047D01*
X60015500Y-95480285D01*
X60063119Y-95527904D01*
X60158357Y-95575523D01*
X60396452Y-95575523D01*
X60491690Y-95527904D01*
X60539309Y-95480285D01*
X60586928Y-95385047D01*
X60586928Y-95194571D01*
X60539309Y-95099333D01*
X60491690Y-95051714D01*
X60396452Y-95004095D01*
X62301380Y-96908857D02*
X61825190Y-97242190D01*
X62301380Y-97480285D02*
X61301380Y-97480285D01*
X61301380Y-97099333D01*
X61349000Y-97004095D01*
X61396619Y-96956476D01*
X61491857Y-96908857D01*
X61634714Y-96908857D01*
X61729952Y-96956476D01*
X61777571Y-97004095D01*
X61825190Y-97099333D01*
X61825190Y-97480285D01*
X61301380Y-96575523D02*
X61301380Y-95956476D01*
X61682333Y-96289809D01*
X61682333Y-96146952D01*
X61729952Y-96051714D01*
X61777571Y-96004095D01*
X61872809Y-95956476D01*
X62110904Y-95956476D01*
X62206142Y-96004095D01*
X62253761Y-96051714D01*
X62301380Y-96146952D01*
X62301380Y-96432666D01*
X62253761Y-96527904D01*
X62206142Y-96575523D01*
X62301380Y-95004095D02*
X62301380Y-95575523D01*
X62301380Y-95289809D02*
X61301380Y-95289809D01*
X61444238Y-95385047D01*
X61539476Y-95480285D01*
X61587095Y-95575523D01*
X60380642Y-106624380D02*
X60047309Y-106148190D01*
X59809214Y-106624380D02*
X59809214Y-105624380D01*
X60190166Y-105624380D01*
X60285404Y-105672000D01*
X60333023Y-105719619D01*
X60380642Y-105814857D01*
X60380642Y-105957714D01*
X60333023Y-106052952D01*
X60285404Y-106100571D01*
X60190166Y-106148190D01*
X59809214Y-106148190D01*
X60713976Y-105624380D02*
X61333023Y-105624380D01*
X60999690Y-106005333D01*
X61142547Y-106005333D01*
X61237785Y-106052952D01*
X61285404Y-106100571D01*
X61333023Y-106195809D01*
X61333023Y-106433904D01*
X61285404Y-106529142D01*
X61237785Y-106576761D01*
X61142547Y-106624380D01*
X60856833Y-106624380D01*
X60761595Y-106576761D01*
X60713976Y-106529142D01*
X61713976Y-105719619D02*
X61761595Y-105672000D01*
X61856833Y-105624380D01*
X62094928Y-105624380D01*
X62190166Y-105672000D01*
X62237785Y-105719619D01*
X62285404Y-105814857D01*
X62285404Y-105910095D01*
X62237785Y-106052952D01*
X61666357Y-106624380D01*
X62285404Y-106624380D01*
X60380642Y-108021380D02*
X60047309Y-107545190D01*
X59809214Y-108021380D02*
X59809214Y-107021380D01*
X60190166Y-107021380D01*
X60285404Y-107069000D01*
X60333023Y-107116619D01*
X60380642Y-107211857D01*
X60380642Y-107354714D01*
X60333023Y-107449952D01*
X60285404Y-107497571D01*
X60190166Y-107545190D01*
X59809214Y-107545190D01*
X60713976Y-107021380D02*
X61333023Y-107021380D01*
X60999690Y-107402333D01*
X61142547Y-107402333D01*
X61237785Y-107449952D01*
X61285404Y-107497571D01*
X61333023Y-107592809D01*
X61333023Y-107830904D01*
X61285404Y-107926142D01*
X61237785Y-107973761D01*
X61142547Y-108021380D01*
X60856833Y-108021380D01*
X60761595Y-107973761D01*
X60713976Y-107926142D01*
X61666357Y-107021380D02*
X62285404Y-107021380D01*
X61952071Y-107402333D01*
X62094928Y-107402333D01*
X62190166Y-107449952D01*
X62237785Y-107497571D01*
X62285404Y-107592809D01*
X62285404Y-107830904D01*
X62237785Y-107926142D01*
X62190166Y-107973761D01*
X62094928Y-108021380D01*
X61809214Y-108021380D01*
X61713976Y-107973761D01*
X61666357Y-107926142D01*
X69207142Y-111894880D02*
X68873809Y-111418690D01*
X68635714Y-111894880D02*
X68635714Y-110894880D01*
X69016666Y-110894880D01*
X69111904Y-110942500D01*
X69159523Y-110990119D01*
X69207142Y-111085357D01*
X69207142Y-111228214D01*
X69159523Y-111323452D01*
X69111904Y-111371071D01*
X69016666Y-111418690D01*
X68635714Y-111418690D01*
X69540476Y-110894880D02*
X70159523Y-110894880D01*
X69826190Y-111275833D01*
X69969047Y-111275833D01*
X70064285Y-111323452D01*
X70111904Y-111371071D01*
X70159523Y-111466309D01*
X70159523Y-111704404D01*
X70111904Y-111799642D01*
X70064285Y-111847261D01*
X69969047Y-111894880D01*
X69683333Y-111894880D01*
X69588095Y-111847261D01*
X69540476Y-111799642D01*
X71016666Y-110894880D02*
X70826190Y-110894880D01*
X70730952Y-110942500D01*
X70683333Y-110990119D01*
X70588095Y-111132976D01*
X70540476Y-111323452D01*
X70540476Y-111704404D01*
X70588095Y-111799642D01*
X70635714Y-111847261D01*
X70730952Y-111894880D01*
X70921428Y-111894880D01*
X71016666Y-111847261D01*
X71064285Y-111799642D01*
X71111904Y-111704404D01*
X71111904Y-111466309D01*
X71064285Y-111371071D01*
X71016666Y-111323452D01*
X70921428Y-111275833D01*
X70730952Y-111275833D01*
X70635714Y-111323452D01*
X70588095Y-111371071D01*
X70540476Y-111466309D01*
X75176142Y-111894880D02*
X74842809Y-111418690D01*
X74604714Y-111894880D02*
X74604714Y-110894880D01*
X74985666Y-110894880D01*
X75080904Y-110942500D01*
X75128523Y-110990119D01*
X75176142Y-111085357D01*
X75176142Y-111228214D01*
X75128523Y-111323452D01*
X75080904Y-111371071D01*
X74985666Y-111418690D01*
X74604714Y-111418690D01*
X75509476Y-110894880D02*
X76128523Y-110894880D01*
X75795190Y-111275833D01*
X75938047Y-111275833D01*
X76033285Y-111323452D01*
X76080904Y-111371071D01*
X76128523Y-111466309D01*
X76128523Y-111704404D01*
X76080904Y-111799642D01*
X76033285Y-111847261D01*
X75938047Y-111894880D01*
X75652333Y-111894880D01*
X75557095Y-111847261D01*
X75509476Y-111799642D01*
X76461857Y-110894880D02*
X77128523Y-110894880D01*
X76699952Y-111894880D01*
X79128880Y-109862857D02*
X78652690Y-110196190D01*
X79128880Y-110434285D02*
X78128880Y-110434285D01*
X78128880Y-110053333D01*
X78176500Y-109958095D01*
X78224119Y-109910476D01*
X78319357Y-109862857D01*
X78462214Y-109862857D01*
X78557452Y-109910476D01*
X78605071Y-109958095D01*
X78652690Y-110053333D01*
X78652690Y-110434285D01*
X78128880Y-109529523D02*
X78128880Y-108910476D01*
X78509833Y-109243809D01*
X78509833Y-109100952D01*
X78557452Y-109005714D01*
X78605071Y-108958095D01*
X78700309Y-108910476D01*
X78938404Y-108910476D01*
X79033642Y-108958095D01*
X79081261Y-109005714D01*
X79128880Y-109100952D01*
X79128880Y-109386666D01*
X79081261Y-109481904D01*
X79033642Y-109529523D01*
X78557452Y-108339047D02*
X78509833Y-108434285D01*
X78462214Y-108481904D01*
X78366976Y-108529523D01*
X78319357Y-108529523D01*
X78224119Y-108481904D01*
X78176500Y-108434285D01*
X78128880Y-108339047D01*
X78128880Y-108148571D01*
X78176500Y-108053333D01*
X78224119Y-108005714D01*
X78319357Y-107958095D01*
X78366976Y-107958095D01*
X78462214Y-108005714D01*
X78509833Y-108053333D01*
X78557452Y-108148571D01*
X78557452Y-108339047D01*
X78605071Y-108434285D01*
X78652690Y-108481904D01*
X78747928Y-108529523D01*
X78938404Y-108529523D01*
X79033642Y-108481904D01*
X79081261Y-108434285D01*
X79128880Y-108339047D01*
X79128880Y-108148571D01*
X79081261Y-108053333D01*
X79033642Y-108005714D01*
X78938404Y-107958095D01*
X78747928Y-107958095D01*
X78652690Y-108005714D01*
X78605071Y-108053333D01*
X78557452Y-108148571D01*
X120022880Y-113831666D02*
X119546690Y-114165000D01*
X120022880Y-114403095D02*
X119022880Y-114403095D01*
X119022880Y-114022142D01*
X119070500Y-113926904D01*
X119118119Y-113879285D01*
X119213357Y-113831666D01*
X119356214Y-113831666D01*
X119451452Y-113879285D01*
X119499071Y-113926904D01*
X119546690Y-114022142D01*
X119546690Y-114403095D01*
X119356214Y-112974523D02*
X120022880Y-112974523D01*
X118975261Y-113212619D02*
X119689547Y-113450714D01*
X119689547Y-112831666D01*
X124864833Y-121800880D02*
X124531500Y-121324690D01*
X124293404Y-121800880D02*
X124293404Y-120800880D01*
X124674357Y-120800880D01*
X124769595Y-120848500D01*
X124817214Y-120896119D01*
X124864833Y-120991357D01*
X124864833Y-121134214D01*
X124817214Y-121229452D01*
X124769595Y-121277071D01*
X124674357Y-121324690D01*
X124293404Y-121324690D01*
X125721976Y-120800880D02*
X125531500Y-120800880D01*
X125436261Y-120848500D01*
X125388642Y-120896119D01*
X125293404Y-121038976D01*
X125245785Y-121229452D01*
X125245785Y-121610404D01*
X125293404Y-121705642D01*
X125341023Y-121753261D01*
X125436261Y-121800880D01*
X125626738Y-121800880D01*
X125721976Y-121753261D01*
X125769595Y-121705642D01*
X125817214Y-121610404D01*
X125817214Y-121372309D01*
X125769595Y-121277071D01*
X125721976Y-121229452D01*
X125626738Y-121181833D01*
X125436261Y-121181833D01*
X125341023Y-121229452D01*
X125293404Y-121277071D01*
X125245785Y-121372309D01*
X123802380Y-120435666D02*
X123326190Y-120769000D01*
X123802380Y-121007095D02*
X122802380Y-121007095D01*
X122802380Y-120626142D01*
X122850000Y-120530904D01*
X122897619Y-120483285D01*
X122992857Y-120435666D01*
X123135714Y-120435666D01*
X123230952Y-120483285D01*
X123278571Y-120530904D01*
X123326190Y-120626142D01*
X123326190Y-121007095D01*
X122802380Y-120102333D02*
X122802380Y-119435666D01*
X123802380Y-119864238D01*
X124864833Y-123070880D02*
X124531500Y-122594690D01*
X124293404Y-123070880D02*
X124293404Y-122070880D01*
X124674357Y-122070880D01*
X124769595Y-122118500D01*
X124817214Y-122166119D01*
X124864833Y-122261357D01*
X124864833Y-122404214D01*
X124817214Y-122499452D01*
X124769595Y-122547071D01*
X124674357Y-122594690D01*
X124293404Y-122594690D01*
X125436261Y-122499452D02*
X125341023Y-122451833D01*
X125293404Y-122404214D01*
X125245785Y-122308976D01*
X125245785Y-122261357D01*
X125293404Y-122166119D01*
X125341023Y-122118500D01*
X125436261Y-122070880D01*
X125626738Y-122070880D01*
X125721976Y-122118500D01*
X125769595Y-122166119D01*
X125817214Y-122261357D01*
X125817214Y-122308976D01*
X125769595Y-122404214D01*
X125721976Y-122451833D01*
X125626738Y-122499452D01*
X125436261Y-122499452D01*
X125341023Y-122547071D01*
X125293404Y-122594690D01*
X125245785Y-122689928D01*
X125245785Y-122880404D01*
X125293404Y-122975642D01*
X125341023Y-123023261D01*
X125436261Y-123070880D01*
X125626738Y-123070880D01*
X125721976Y-123023261D01*
X125769595Y-122975642D01*
X125817214Y-122880404D01*
X125817214Y-122689928D01*
X125769595Y-122594690D01*
X125721976Y-122547071D01*
X125626738Y-122499452D01*
X118372095Y-104481380D02*
X118943523Y-104481380D01*
X118657809Y-105481380D02*
X118657809Y-104481380D01*
X119276857Y-105481380D02*
X119276857Y-104481380D01*
X119657809Y-104481380D01*
X119753047Y-104529000D01*
X119800666Y-104576619D01*
X119848285Y-104671857D01*
X119848285Y-104814714D01*
X119800666Y-104909952D01*
X119753047Y-104957571D01*
X119657809Y-105005190D01*
X119276857Y-105005190D01*
X120229238Y-104576619D02*
X120276857Y-104529000D01*
X120372095Y-104481380D01*
X120610190Y-104481380D01*
X120705428Y-104529000D01*
X120753047Y-104576619D01*
X120800666Y-104671857D01*
X120800666Y-104767095D01*
X120753047Y-104909952D01*
X120181619Y-105481380D01*
X120800666Y-105481380D01*
X67206880Y-61817095D02*
X68016404Y-61817095D01*
X68111642Y-61769476D01*
X68159261Y-61721857D01*
X68206880Y-61626619D01*
X68206880Y-61436142D01*
X68159261Y-61340904D01*
X68111642Y-61293285D01*
X68016404Y-61245666D01*
X67206880Y-61245666D01*
X68206880Y-60245666D02*
X68206880Y-60817095D01*
X68206880Y-60531380D02*
X67206880Y-60531380D01*
X67349738Y-60626619D01*
X67444976Y-60721857D01*
X67492595Y-60817095D01*
X67206880Y-59626619D02*
X67206880Y-59531380D01*
X67254500Y-59436142D01*
X67302119Y-59388523D01*
X67397357Y-59340904D01*
X67587833Y-59293285D01*
X67825928Y-59293285D01*
X68016404Y-59340904D01*
X68111642Y-59388523D01*
X68159261Y-59436142D01*
X68206880Y-59531380D01*
X68206880Y-59626619D01*
X68159261Y-59721857D01*
X68111642Y-59769476D01*
X68016404Y-59817095D01*
X67825928Y-59864714D01*
X67587833Y-59864714D01*
X67397357Y-59817095D01*
X67302119Y-59769476D01*
X67254500Y-59721857D01*
X67206880Y-59626619D01*
X74572880Y-61563095D02*
X75382404Y-61563095D01*
X75477642Y-61515476D01*
X75525261Y-61467857D01*
X75572880Y-61372619D01*
X75572880Y-61182142D01*
X75525261Y-61086904D01*
X75477642Y-61039285D01*
X75382404Y-60991666D01*
X74572880Y-60991666D01*
X75572880Y-59991666D02*
X75572880Y-60563095D01*
X75572880Y-60277380D02*
X74572880Y-60277380D01*
X74715738Y-60372619D01*
X74810976Y-60467857D01*
X74858595Y-60563095D01*
X75572880Y-59039285D02*
X75572880Y-59610714D01*
X75572880Y-59325000D02*
X74572880Y-59325000D01*
X74715738Y-59420238D01*
X74810976Y-59515476D01*
X74858595Y-59610714D01*
X108521595Y-114704880D02*
X108521595Y-115514404D01*
X108569214Y-115609642D01*
X108616833Y-115657261D01*
X108712071Y-115704880D01*
X108902547Y-115704880D01*
X108997785Y-115657261D01*
X109045404Y-115609642D01*
X109093023Y-115514404D01*
X109093023Y-114704880D01*
X110093023Y-115704880D02*
X109521595Y-115704880D01*
X109807309Y-115704880D02*
X109807309Y-114704880D01*
X109712071Y-114847738D01*
X109616833Y-114942976D01*
X109521595Y-114990595D01*
X63754095Y-73747380D02*
X63754095Y-74556904D01*
X63801714Y-74652142D01*
X63849333Y-74699761D01*
X63944571Y-74747380D01*
X64135047Y-74747380D01*
X64230285Y-74699761D01*
X64277904Y-74652142D01*
X64325523Y-74556904D01*
X64325523Y-73747380D01*
X64849333Y-74747380D02*
X65039809Y-74747380D01*
X65135047Y-74699761D01*
X65182666Y-74652142D01*
X65277904Y-74509285D01*
X65325523Y-74318809D01*
X65325523Y-73937857D01*
X65277904Y-73842619D01*
X65230285Y-73795000D01*
X65135047Y-73747380D01*
X64944571Y-73747380D01*
X64849333Y-73795000D01*
X64801714Y-73842619D01*
X64754095Y-73937857D01*
X64754095Y-74175952D01*
X64801714Y-74271190D01*
X64849333Y-74318809D01*
X64944571Y-74366428D01*
X65135047Y-74366428D01*
X65230285Y-74318809D01*
X65277904Y-74271190D01*
X65325523Y-74175952D01*
X60420404Y-99718880D02*
X60420404Y-100528404D01*
X60468023Y-100623642D01*
X60515642Y-100671261D01*
X60610880Y-100718880D01*
X60801357Y-100718880D01*
X60896595Y-100671261D01*
X60944214Y-100623642D01*
X60991833Y-100528404D01*
X60991833Y-99718880D01*
X61991833Y-100718880D02*
X61420404Y-100718880D01*
X61706119Y-100718880D02*
X61706119Y-99718880D01*
X61610880Y-99861738D01*
X61515642Y-99956976D01*
X61420404Y-100004595D01*
X62372785Y-99814119D02*
X62420404Y-99766500D01*
X62515642Y-99718880D01*
X62753738Y-99718880D01*
X62848976Y-99766500D01*
X62896595Y-99814119D01*
X62944214Y-99909357D01*
X62944214Y-100004595D01*
X62896595Y-100147452D01*
X62325166Y-100718880D01*
X62944214Y-100718880D01*
X75406404Y-65492380D02*
X75406404Y-66301904D01*
X75454023Y-66397142D01*
X75501642Y-66444761D01*
X75596880Y-66492380D01*
X75787357Y-66492380D01*
X75882595Y-66444761D01*
X75930214Y-66397142D01*
X75977833Y-66301904D01*
X75977833Y-65492380D01*
X76977833Y-66492380D02*
X76406404Y-66492380D01*
X76692119Y-66492380D02*
X76692119Y-65492380D01*
X76596880Y-65635238D01*
X76501642Y-65730476D01*
X76406404Y-65778095D01*
X77311166Y-65492380D02*
X77930214Y-65492380D01*
X77596880Y-65873333D01*
X77739738Y-65873333D01*
X77834976Y-65920952D01*
X77882595Y-65968571D01*
X77930214Y-66063809D01*
X77930214Y-66301904D01*
X77882595Y-66397142D01*
X77834976Y-66444761D01*
X77739738Y-66492380D01*
X77454023Y-66492380D01*
X77358785Y-66444761D01*
X77311166Y-66397142D01*
X116459095Y-93940380D02*
X116459095Y-94749904D01*
X116506714Y-94845142D01*
X116554333Y-94892761D01*
X116649571Y-94940380D01*
X116840047Y-94940380D01*
X116935285Y-94892761D01*
X116982904Y-94845142D01*
X117030523Y-94749904D01*
X117030523Y-93940380D01*
X117459095Y-94035619D02*
X117506714Y-93988000D01*
X117601952Y-93940380D01*
X117840047Y-93940380D01*
X117935285Y-93988000D01*
X117982904Y-94035619D01*
X118030523Y-94130857D01*
X118030523Y-94226095D01*
X117982904Y-94368952D01*
X117411476Y-94940380D01*
X118030523Y-94940380D01*
X116673380Y-115569904D02*
X117482904Y-115569904D01*
X117578142Y-115522285D01*
X117625761Y-115474666D01*
X117673380Y-115379428D01*
X117673380Y-115188952D01*
X117625761Y-115093714D01*
X117578142Y-115046095D01*
X117482904Y-114998476D01*
X116673380Y-114998476D01*
X116673380Y-114617523D02*
X116673380Y-113998476D01*
X117054333Y-114331809D01*
X117054333Y-114188952D01*
X117101952Y-114093714D01*
X117149571Y-114046095D01*
X117244809Y-113998476D01*
X117482904Y-113998476D01*
X117578142Y-114046095D01*
X117625761Y-114093714D01*
X117673380Y-114188952D01*
X117673380Y-114474666D01*
X117625761Y-114569904D01*
X117578142Y-114617523D01*
X121412095Y-121880380D02*
X121412095Y-122689904D01*
X121459714Y-122785142D01*
X121507333Y-122832761D01*
X121602571Y-122880380D01*
X121793047Y-122880380D01*
X121888285Y-122832761D01*
X121935904Y-122785142D01*
X121983523Y-122689904D01*
X121983523Y-121880380D01*
X122888285Y-122213714D02*
X122888285Y-122880380D01*
X122650190Y-121832761D02*
X122412095Y-122547047D01*
X123031142Y-122547047D01*
X77676476Y-104354380D02*
X78343142Y-105354380D01*
X78343142Y-104354380D02*
X77676476Y-105354380D01*
X79247904Y-105354380D02*
X78676476Y-105354380D01*
X78962190Y-105354380D02*
X78962190Y-104354380D01*
X78866952Y-104497238D01*
X78771714Y-104592476D01*
X78676476Y-104640095D01*
X104806809Y-109704190D02*
X104806809Y-110180380D01*
X104473476Y-109180380D02*
X104806809Y-109704190D01*
X105140142Y-109180380D01*
X105425857Y-109275619D02*
X105473476Y-109228000D01*
X105568714Y-109180380D01*
X105806809Y-109180380D01*
X105902047Y-109228000D01*
X105949666Y-109275619D01*
X105997285Y-109370857D01*
X105997285Y-109466095D01*
X105949666Y-109608952D01*
X105378238Y-110180380D01*
X105997285Y-110180380D01*
X105957642Y-117101857D02*
X106005261Y-117149476D01*
X106052880Y-117292333D01*
X106052880Y-117387571D01*
X106005261Y-117530428D01*
X105910023Y-117625666D01*
X105814785Y-117673285D01*
X105624309Y-117720904D01*
X105481452Y-117720904D01*
X105290976Y-117673285D01*
X105195738Y-117625666D01*
X105100500Y-117530428D01*
X105052880Y-117387571D01*
X105052880Y-117292333D01*
X105100500Y-117149476D01*
X105148119Y-117101857D01*
X106052880Y-116149476D02*
X106052880Y-116720904D01*
X106052880Y-116435190D02*
X105052880Y-116435190D01*
X105195738Y-116530428D01*
X105290976Y-116625666D01*
X105338595Y-116720904D01*
X106052880Y-115673285D02*
X106052880Y-115482809D01*
X106005261Y-115387571D01*
X105957642Y-115339952D01*
X105814785Y-115244714D01*
X105624309Y-115197095D01*
X105243357Y-115197095D01*
X105148119Y-115244714D01*
X105100500Y-115292333D01*
X105052880Y-115387571D01*
X105052880Y-115578047D01*
X105100500Y-115673285D01*
X105148119Y-115720904D01*
X105243357Y-115768523D01*
X105481452Y-115768523D01*
X105576690Y-115720904D01*
X105624309Y-115673285D01*
X105671928Y-115578047D01*
X105671928Y-115387571D01*
X105624309Y-115292333D01*
X105576690Y-115244714D01*
X105481452Y-115197095D01*
X63619142Y-55729142D02*
X63571523Y-55776761D01*
X63428666Y-55824380D01*
X63333428Y-55824380D01*
X63190571Y-55776761D01*
X63095333Y-55681523D01*
X63047714Y-55586285D01*
X63000095Y-55395809D01*
X63000095Y-55252952D01*
X63047714Y-55062476D01*
X63095333Y-54967238D01*
X63190571Y-54872000D01*
X63333428Y-54824380D01*
X63428666Y-54824380D01*
X63571523Y-54872000D01*
X63619142Y-54919619D01*
X64476285Y-55157714D02*
X64476285Y-55824380D01*
X64238190Y-54776761D02*
X64000095Y-55491047D01*
X64619142Y-55491047D01*
X65523904Y-55824380D02*
X64952476Y-55824380D01*
X65238190Y-55824380D02*
X65238190Y-54824380D01*
X65142952Y-54967238D01*
X65047714Y-55062476D01*
X64952476Y-55110095D01*
X70985142Y-55792642D02*
X70937523Y-55840261D01*
X70794666Y-55887880D01*
X70699428Y-55887880D01*
X70556571Y-55840261D01*
X70461333Y-55745023D01*
X70413714Y-55649785D01*
X70366095Y-55459309D01*
X70366095Y-55316452D01*
X70413714Y-55125976D01*
X70461333Y-55030738D01*
X70556571Y-54935500D01*
X70699428Y-54887880D01*
X70794666Y-54887880D01*
X70937523Y-54935500D01*
X70985142Y-54983119D01*
X71842285Y-55221214D02*
X71842285Y-55887880D01*
X71604190Y-54840261D02*
X71366095Y-55554547D01*
X71985142Y-55554547D01*
X72318476Y-54983119D02*
X72366095Y-54935500D01*
X72461333Y-54887880D01*
X72699428Y-54887880D01*
X72794666Y-54935500D01*
X72842285Y-54983119D01*
X72889904Y-55078357D01*
X72889904Y-55173595D01*
X72842285Y-55316452D01*
X72270857Y-55887880D01*
X72889904Y-55887880D01*
X92892642Y-59348642D02*
X92845023Y-59396261D01*
X92702166Y-59443880D01*
X92606928Y-59443880D01*
X92464071Y-59396261D01*
X92368833Y-59301023D01*
X92321214Y-59205785D01*
X92273595Y-59015309D01*
X92273595Y-58872452D01*
X92321214Y-58681976D01*
X92368833Y-58586738D01*
X92464071Y-58491500D01*
X92606928Y-58443880D01*
X92702166Y-58443880D01*
X92845023Y-58491500D01*
X92892642Y-58539119D01*
X93845023Y-59443880D02*
X93273595Y-59443880D01*
X93559309Y-59443880D02*
X93559309Y-58443880D01*
X93464071Y-58586738D01*
X93368833Y-58681976D01*
X93273595Y-58729595D01*
X94464071Y-58443880D02*
X94559309Y-58443880D01*
X94654547Y-58491500D01*
X94702166Y-58539119D01*
X94749785Y-58634357D01*
X94797404Y-58824833D01*
X94797404Y-59062928D01*
X94749785Y-59253404D01*
X94702166Y-59348642D01*
X94654547Y-59396261D01*
X94559309Y-59443880D01*
X94464071Y-59443880D01*
X94368833Y-59396261D01*
X94321214Y-59348642D01*
X94273595Y-59253404D01*
X94225976Y-59062928D01*
X94225976Y-58824833D01*
X94273595Y-58634357D01*
X94321214Y-58539119D01*
X94368833Y-58491500D01*
X94464071Y-58443880D01*
X106545142Y-59412142D02*
X106497523Y-59459761D01*
X106354666Y-59507380D01*
X106259428Y-59507380D01*
X106116571Y-59459761D01*
X106021333Y-59364523D01*
X105973714Y-59269285D01*
X105926095Y-59078809D01*
X105926095Y-58935952D01*
X105973714Y-58745476D01*
X106021333Y-58650238D01*
X106116571Y-58555000D01*
X106259428Y-58507380D01*
X106354666Y-58507380D01*
X106497523Y-58555000D01*
X106545142Y-58602619D01*
X107497523Y-59507380D02*
X106926095Y-59507380D01*
X107211809Y-59507380D02*
X107211809Y-58507380D01*
X107116571Y-58650238D01*
X107021333Y-58745476D01*
X106926095Y-58793095D01*
X108449904Y-59507380D02*
X107878476Y-59507380D01*
X108164190Y-59507380D02*
X108164190Y-58507380D01*
X108068952Y-58650238D01*
X107973714Y-58745476D01*
X107878476Y-58793095D01*
X77525642Y-55856142D02*
X77478023Y-55903761D01*
X77335166Y-55951380D01*
X77239928Y-55951380D01*
X77097071Y-55903761D01*
X77001833Y-55808523D01*
X76954214Y-55713285D01*
X76906595Y-55522809D01*
X76906595Y-55379952D01*
X76954214Y-55189476D01*
X77001833Y-55094238D01*
X77097071Y-54999000D01*
X77239928Y-54951380D01*
X77335166Y-54951380D01*
X77478023Y-54999000D01*
X77525642Y-55046619D01*
X78478023Y-55951380D02*
X77906595Y-55951380D01*
X78192309Y-55951380D02*
X78192309Y-54951380D01*
X78097071Y-55094238D01*
X78001833Y-55189476D01*
X77906595Y-55237095D01*
X78858976Y-55046619D02*
X78906595Y-54999000D01*
X79001833Y-54951380D01*
X79239928Y-54951380D01*
X79335166Y-54999000D01*
X79382785Y-55046619D01*
X79430404Y-55141857D01*
X79430404Y-55237095D01*
X79382785Y-55379952D01*
X78811357Y-55951380D01*
X79430404Y-55951380D01*
X86669642Y-63539642D02*
X86622023Y-63587261D01*
X86479166Y-63634880D01*
X86383928Y-63634880D01*
X86241071Y-63587261D01*
X86145833Y-63492023D01*
X86098214Y-63396785D01*
X86050595Y-63206309D01*
X86050595Y-63063452D01*
X86098214Y-62872976D01*
X86145833Y-62777738D01*
X86241071Y-62682500D01*
X86383928Y-62634880D01*
X86479166Y-62634880D01*
X86622023Y-62682500D01*
X86669642Y-62730119D01*
X87622023Y-63634880D02*
X87050595Y-63634880D01*
X87336309Y-63634880D02*
X87336309Y-62634880D01*
X87241071Y-62777738D01*
X87145833Y-62872976D01*
X87050595Y-62920595D01*
X88193452Y-63063452D02*
X88098214Y-63015833D01*
X88050595Y-62968214D01*
X88002976Y-62872976D01*
X88002976Y-62825357D01*
X88050595Y-62730119D01*
X88098214Y-62682500D01*
X88193452Y-62634880D01*
X88383928Y-62634880D01*
X88479166Y-62682500D01*
X88526785Y-62730119D01*
X88574404Y-62825357D01*
X88574404Y-62872976D01*
X88526785Y-62968214D01*
X88479166Y-63015833D01*
X88383928Y-63063452D01*
X88193452Y-63063452D01*
X88098214Y-63111071D01*
X88050595Y-63158690D01*
X88002976Y-63253928D01*
X88002976Y-63444404D01*
X88050595Y-63539642D01*
X88098214Y-63587261D01*
X88193452Y-63634880D01*
X88383928Y-63634880D01*
X88479166Y-63587261D01*
X88526785Y-63539642D01*
X88574404Y-63444404D01*
X88574404Y-63253928D01*
X88526785Y-63158690D01*
X88479166Y-63111071D01*
X88383928Y-63063452D01*
X103671642Y-67000357D02*
X103719261Y-67047976D01*
X103766880Y-67190833D01*
X103766880Y-67286071D01*
X103719261Y-67428928D01*
X103624023Y-67524166D01*
X103528785Y-67571785D01*
X103338309Y-67619404D01*
X103195452Y-67619404D01*
X103004976Y-67571785D01*
X102909738Y-67524166D01*
X102814500Y-67428928D01*
X102766880Y-67286071D01*
X102766880Y-67190833D01*
X102814500Y-67047976D01*
X102862119Y-67000357D01*
X102766880Y-66667023D02*
X102766880Y-66047976D01*
X103147833Y-66381309D01*
X103147833Y-66238452D01*
X103195452Y-66143214D01*
X103243071Y-66095595D01*
X103338309Y-66047976D01*
X103576404Y-66047976D01*
X103671642Y-66095595D01*
X103719261Y-66143214D01*
X103766880Y-66238452D01*
X103766880Y-66524166D01*
X103719261Y-66619404D01*
X103671642Y-66667023D01*
X103766880Y-65095595D02*
X103766880Y-65667023D01*
X103766880Y-65381309D02*
X102766880Y-65381309D01*
X102909738Y-65476547D01*
X103004976Y-65571785D01*
X103052595Y-65667023D01*
X86526642Y-76144357D02*
X86574261Y-76191976D01*
X86621880Y-76334833D01*
X86621880Y-76430071D01*
X86574261Y-76572928D01*
X86479023Y-76668166D01*
X86383785Y-76715785D01*
X86193309Y-76763404D01*
X86050452Y-76763404D01*
X85859976Y-76715785D01*
X85764738Y-76668166D01*
X85669500Y-76572928D01*
X85621880Y-76430071D01*
X85621880Y-76334833D01*
X85669500Y-76191976D01*
X85717119Y-76144357D01*
X85717119Y-75763404D02*
X85669500Y-75715785D01*
X85621880Y-75620547D01*
X85621880Y-75382452D01*
X85669500Y-75287214D01*
X85717119Y-75239595D01*
X85812357Y-75191976D01*
X85907595Y-75191976D01*
X86050452Y-75239595D01*
X86621880Y-75811023D01*
X86621880Y-75191976D01*
X85621880Y-74858642D02*
X85621880Y-74239595D01*
X86002833Y-74572928D01*
X86002833Y-74430071D01*
X86050452Y-74334833D01*
X86098071Y-74287214D01*
X86193309Y-74239595D01*
X86431404Y-74239595D01*
X86526642Y-74287214D01*
X86574261Y-74334833D01*
X86621880Y-74430071D01*
X86621880Y-74715785D01*
X86574261Y-74811023D01*
X86526642Y-74858642D01*
X89511142Y-78938357D02*
X89558761Y-78985976D01*
X89606380Y-79128833D01*
X89606380Y-79224071D01*
X89558761Y-79366928D01*
X89463523Y-79462166D01*
X89368285Y-79509785D01*
X89177809Y-79557404D01*
X89034952Y-79557404D01*
X88844476Y-79509785D01*
X88749238Y-79462166D01*
X88654000Y-79366928D01*
X88606380Y-79224071D01*
X88606380Y-79128833D01*
X88654000Y-78985976D01*
X88701619Y-78938357D01*
X88701619Y-78557404D02*
X88654000Y-78509785D01*
X88606380Y-78414547D01*
X88606380Y-78176452D01*
X88654000Y-78081214D01*
X88701619Y-78033595D01*
X88796857Y-77985976D01*
X88892095Y-77985976D01*
X89034952Y-78033595D01*
X89606380Y-78605023D01*
X89606380Y-77985976D01*
X89606380Y-77509785D02*
X89606380Y-77319309D01*
X89558761Y-77224071D01*
X89511142Y-77176452D01*
X89368285Y-77081214D01*
X89177809Y-77033595D01*
X88796857Y-77033595D01*
X88701619Y-77081214D01*
X88654000Y-77128833D01*
X88606380Y-77224071D01*
X88606380Y-77414547D01*
X88654000Y-77509785D01*
X88701619Y-77557404D01*
X88796857Y-77605023D01*
X89034952Y-77605023D01*
X89130190Y-77557404D01*
X89177809Y-77509785D01*
X89225428Y-77414547D01*
X89225428Y-77224071D01*
X89177809Y-77128833D01*
X89130190Y-77081214D01*
X89034952Y-77033595D01*
X88177642Y-94813357D02*
X88225261Y-94860976D01*
X88272880Y-95003833D01*
X88272880Y-95099071D01*
X88225261Y-95241928D01*
X88130023Y-95337166D01*
X88034785Y-95384785D01*
X87844309Y-95432404D01*
X87701452Y-95432404D01*
X87510976Y-95384785D01*
X87415738Y-95337166D01*
X87320500Y-95241928D01*
X87272880Y-95099071D01*
X87272880Y-95003833D01*
X87320500Y-94860976D01*
X87368119Y-94813357D01*
X87368119Y-94432404D02*
X87320500Y-94384785D01*
X87272880Y-94289547D01*
X87272880Y-94051452D01*
X87320500Y-93956214D01*
X87368119Y-93908595D01*
X87463357Y-93860976D01*
X87558595Y-93860976D01*
X87701452Y-93908595D01*
X88272880Y-94480023D01*
X88272880Y-93860976D01*
X87701452Y-93289547D02*
X87653833Y-93384785D01*
X87606214Y-93432404D01*
X87510976Y-93480023D01*
X87463357Y-93480023D01*
X87368119Y-93432404D01*
X87320500Y-93384785D01*
X87272880Y-93289547D01*
X87272880Y-93099071D01*
X87320500Y-93003833D01*
X87368119Y-92956214D01*
X87463357Y-92908595D01*
X87510976Y-92908595D01*
X87606214Y-92956214D01*
X87653833Y-93003833D01*
X87701452Y-93099071D01*
X87701452Y-93289547D01*
X87749071Y-93384785D01*
X87796690Y-93432404D01*
X87891928Y-93480023D01*
X88082404Y-93480023D01*
X88177642Y-93432404D01*
X88225261Y-93384785D01*
X88272880Y-93289547D01*
X88272880Y-93099071D01*
X88225261Y-93003833D01*
X88177642Y-92956214D01*
X88082404Y-92908595D01*
X87891928Y-92908595D01*
X87796690Y-92956214D01*
X87749071Y-93003833D01*
X87701452Y-93099071D01*
X99623642Y-82970642D02*
X99576023Y-83018261D01*
X99433166Y-83065880D01*
X99337928Y-83065880D01*
X99195071Y-83018261D01*
X99099833Y-82923023D01*
X99052214Y-82827785D01*
X99004595Y-82637309D01*
X99004595Y-82494452D01*
X99052214Y-82303976D01*
X99099833Y-82208738D01*
X99195071Y-82113500D01*
X99337928Y-82065880D01*
X99433166Y-82065880D01*
X99576023Y-82113500D01*
X99623642Y-82161119D01*
X99956976Y-82065880D02*
X100576023Y-82065880D01*
X100242690Y-82446833D01*
X100385547Y-82446833D01*
X100480785Y-82494452D01*
X100528404Y-82542071D01*
X100576023Y-82637309D01*
X100576023Y-82875404D01*
X100528404Y-82970642D01*
X100480785Y-83018261D01*
X100385547Y-83065880D01*
X100099833Y-83065880D01*
X100004595Y-83018261D01*
X99956976Y-82970642D01*
X100956976Y-82161119D02*
X101004595Y-82113500D01*
X101099833Y-82065880D01*
X101337928Y-82065880D01*
X101433166Y-82113500D01*
X101480785Y-82161119D01*
X101528404Y-82256357D01*
X101528404Y-82351595D01*
X101480785Y-82494452D01*
X100909357Y-83065880D01*
X101528404Y-83065880D01*
X108513642Y-82970642D02*
X108466023Y-83018261D01*
X108323166Y-83065880D01*
X108227928Y-83065880D01*
X108085071Y-83018261D01*
X107989833Y-82923023D01*
X107942214Y-82827785D01*
X107894595Y-82637309D01*
X107894595Y-82494452D01*
X107942214Y-82303976D01*
X107989833Y-82208738D01*
X108085071Y-82113500D01*
X108227928Y-82065880D01*
X108323166Y-82065880D01*
X108466023Y-82113500D01*
X108513642Y-82161119D01*
X108846976Y-82065880D02*
X109466023Y-82065880D01*
X109132690Y-82446833D01*
X109275547Y-82446833D01*
X109370785Y-82494452D01*
X109418404Y-82542071D01*
X109466023Y-82637309D01*
X109466023Y-82875404D01*
X109418404Y-82970642D01*
X109370785Y-83018261D01*
X109275547Y-83065880D01*
X108989833Y-83065880D01*
X108894595Y-83018261D01*
X108846976Y-82970642D01*
X110323166Y-82065880D02*
X110132690Y-82065880D01*
X110037452Y-82113500D01*
X109989833Y-82161119D01*
X109894595Y-82303976D01*
X109846976Y-82494452D01*
X109846976Y-82875404D01*
X109894595Y-82970642D01*
X109942214Y-83018261D01*
X110037452Y-83065880D01*
X110227928Y-83065880D01*
X110323166Y-83018261D01*
X110370785Y-82970642D01*
X110418404Y-82875404D01*
X110418404Y-82637309D01*
X110370785Y-82542071D01*
X110323166Y-82494452D01*
X110227928Y-82446833D01*
X110037452Y-82446833D01*
X109942214Y-82494452D01*
X109894595Y-82542071D01*
X109846976Y-82637309D01*
X99607642Y-81033857D02*
X99655261Y-81081476D01*
X99702880Y-81224333D01*
X99702880Y-81319571D01*
X99655261Y-81462428D01*
X99560023Y-81557666D01*
X99464785Y-81605285D01*
X99274309Y-81652904D01*
X99131452Y-81652904D01*
X98940976Y-81605285D01*
X98845738Y-81557666D01*
X98750500Y-81462428D01*
X98702880Y-81319571D01*
X98702880Y-81224333D01*
X98750500Y-81081476D01*
X98798119Y-81033857D01*
X98702880Y-80700523D02*
X98702880Y-80081476D01*
X99083833Y-80414809D01*
X99083833Y-80271952D01*
X99131452Y-80176714D01*
X99179071Y-80129095D01*
X99274309Y-80081476D01*
X99512404Y-80081476D01*
X99607642Y-80129095D01*
X99655261Y-80176714D01*
X99702880Y-80271952D01*
X99702880Y-80557666D01*
X99655261Y-80652904D01*
X99607642Y-80700523D01*
X98702880Y-79176714D02*
X98702880Y-79652904D01*
X99179071Y-79700523D01*
X99131452Y-79652904D01*
X99083833Y-79557666D01*
X99083833Y-79319571D01*
X99131452Y-79224333D01*
X99179071Y-79176714D01*
X99274309Y-79129095D01*
X99512404Y-79129095D01*
X99607642Y-79176714D01*
X99655261Y-79224333D01*
X99702880Y-79319571D01*
X99702880Y-79557666D01*
X99655261Y-79652904D01*
X99607642Y-79700523D01*
X113403142Y-70334142D02*
X113355523Y-70381761D01*
X113212666Y-70429380D01*
X113117428Y-70429380D01*
X112974571Y-70381761D01*
X112879333Y-70286523D01*
X112831714Y-70191285D01*
X112784095Y-70000809D01*
X112784095Y-69857952D01*
X112831714Y-69667476D01*
X112879333Y-69572238D01*
X112974571Y-69477000D01*
X113117428Y-69429380D01*
X113212666Y-69429380D01*
X113355523Y-69477000D01*
X113403142Y-69524619D01*
X114307904Y-69429380D02*
X113831714Y-69429380D01*
X113784095Y-69905571D01*
X113831714Y-69857952D01*
X113926952Y-69810333D01*
X114165047Y-69810333D01*
X114260285Y-69857952D01*
X114307904Y-69905571D01*
X114355523Y-70000809D01*
X114355523Y-70238904D01*
X114307904Y-70334142D01*
X114260285Y-70381761D01*
X114165047Y-70429380D01*
X113926952Y-70429380D01*
X113831714Y-70381761D01*
X113784095Y-70334142D01*
X115212666Y-69762714D02*
X115212666Y-70429380D01*
X114974571Y-69381761D02*
X114736476Y-70096047D01*
X115355523Y-70096047D01*
X116260642Y-80938642D02*
X116213023Y-80986261D01*
X116070166Y-81033880D01*
X115974928Y-81033880D01*
X115832071Y-80986261D01*
X115736833Y-80891023D01*
X115689214Y-80795785D01*
X115641595Y-80605309D01*
X115641595Y-80462452D01*
X115689214Y-80271976D01*
X115736833Y-80176738D01*
X115832071Y-80081500D01*
X115974928Y-80033880D01*
X116070166Y-80033880D01*
X116213023Y-80081500D01*
X116260642Y-80129119D01*
X117165404Y-80033880D02*
X116689214Y-80033880D01*
X116641595Y-80510071D01*
X116689214Y-80462452D01*
X116784452Y-80414833D01*
X117022547Y-80414833D01*
X117117785Y-80462452D01*
X117165404Y-80510071D01*
X117213023Y-80605309D01*
X117213023Y-80843404D01*
X117165404Y-80938642D01*
X117117785Y-80986261D01*
X117022547Y-81033880D01*
X116784452Y-81033880D01*
X116689214Y-80986261D01*
X116641595Y-80938642D01*
X117546357Y-80033880D02*
X118165404Y-80033880D01*
X117832071Y-80414833D01*
X117974928Y-80414833D01*
X118070166Y-80462452D01*
X118117785Y-80510071D01*
X118165404Y-80605309D01*
X118165404Y-80843404D01*
X118117785Y-80938642D01*
X118070166Y-80986261D01*
X117974928Y-81033880D01*
X117689214Y-81033880D01*
X117593976Y-80986261D01*
X117546357Y-80938642D01*
X106275142Y-67000357D02*
X106322761Y-67047976D01*
X106370380Y-67190833D01*
X106370380Y-67286071D01*
X106322761Y-67428928D01*
X106227523Y-67524166D01*
X106132285Y-67571785D01*
X105941809Y-67619404D01*
X105798952Y-67619404D01*
X105608476Y-67571785D01*
X105513238Y-67524166D01*
X105418000Y-67428928D01*
X105370380Y-67286071D01*
X105370380Y-67190833D01*
X105418000Y-67047976D01*
X105465619Y-67000357D01*
X105370380Y-66095595D02*
X105370380Y-66571785D01*
X105846571Y-66619404D01*
X105798952Y-66571785D01*
X105751333Y-66476547D01*
X105751333Y-66238452D01*
X105798952Y-66143214D01*
X105846571Y-66095595D01*
X105941809Y-66047976D01*
X106179904Y-66047976D01*
X106275142Y-66095595D01*
X106322761Y-66143214D01*
X106370380Y-66238452D01*
X106370380Y-66476547D01*
X106322761Y-66571785D01*
X106275142Y-66619404D01*
X105370380Y-65190833D02*
X105370380Y-65381309D01*
X105418000Y-65476547D01*
X105465619Y-65524166D01*
X105608476Y-65619404D01*
X105798952Y-65667023D01*
X106179904Y-65667023D01*
X106275142Y-65619404D01*
X106322761Y-65571785D01*
X106370380Y-65476547D01*
X106370380Y-65286071D01*
X106322761Y-65190833D01*
X106275142Y-65143214D01*
X106179904Y-65095595D01*
X105941809Y-65095595D01*
X105846571Y-65143214D01*
X105798952Y-65190833D01*
X105751333Y-65286071D01*
X105751333Y-65476547D01*
X105798952Y-65571785D01*
X105846571Y-65619404D01*
X105941809Y-65667023D01*
X97909142Y-71159642D02*
X97861523Y-71207261D01*
X97718666Y-71254880D01*
X97623428Y-71254880D01*
X97480571Y-71207261D01*
X97385333Y-71112023D01*
X97337714Y-71016785D01*
X97290095Y-70826309D01*
X97290095Y-70683452D01*
X97337714Y-70492976D01*
X97385333Y-70397738D01*
X97480571Y-70302500D01*
X97623428Y-70254880D01*
X97718666Y-70254880D01*
X97861523Y-70302500D01*
X97909142Y-70350119D01*
X98813904Y-70254880D02*
X98337714Y-70254880D01*
X98290095Y-70731071D01*
X98337714Y-70683452D01*
X98432952Y-70635833D01*
X98671047Y-70635833D01*
X98766285Y-70683452D01*
X98813904Y-70731071D01*
X98861523Y-70826309D01*
X98861523Y-71064404D01*
X98813904Y-71159642D01*
X98766285Y-71207261D01*
X98671047Y-71254880D01*
X98432952Y-71254880D01*
X98337714Y-71207261D01*
X98290095Y-71159642D01*
X99766285Y-70254880D02*
X99290095Y-70254880D01*
X99242476Y-70731071D01*
X99290095Y-70683452D01*
X99385333Y-70635833D01*
X99623428Y-70635833D01*
X99718666Y-70683452D01*
X99766285Y-70731071D01*
X99813904Y-70826309D01*
X99813904Y-71064404D01*
X99766285Y-71159642D01*
X99718666Y-71207261D01*
X99623428Y-71254880D01*
X99385333Y-71254880D01*
X99290095Y-71207261D01*
X99242476Y-71159642D01*
X122356642Y-57951642D02*
X122309023Y-57999261D01*
X122166166Y-58046880D01*
X122070928Y-58046880D01*
X121928071Y-57999261D01*
X121832833Y-57904023D01*
X121785214Y-57808785D01*
X121737595Y-57618309D01*
X121737595Y-57475452D01*
X121785214Y-57284976D01*
X121832833Y-57189738D01*
X121928071Y-57094500D01*
X122070928Y-57046880D01*
X122166166Y-57046880D01*
X122309023Y-57094500D01*
X122356642Y-57142119D01*
X122689976Y-57046880D02*
X123356642Y-57046880D01*
X122928071Y-58046880D01*
X123785214Y-58046880D02*
X123975690Y-58046880D01*
X124070928Y-57999261D01*
X124118547Y-57951642D01*
X124213785Y-57808785D01*
X124261404Y-57618309D01*
X124261404Y-57237357D01*
X124213785Y-57142119D01*
X124166166Y-57094500D01*
X124070928Y-57046880D01*
X123880452Y-57046880D01*
X123785214Y-57094500D01*
X123737595Y-57142119D01*
X123689976Y-57237357D01*
X123689976Y-57475452D01*
X123737595Y-57570690D01*
X123785214Y-57618309D01*
X123880452Y-57665928D01*
X124070928Y-57665928D01*
X124166166Y-57618309D01*
X124213785Y-57570690D01*
X124261404Y-57475452D01*
X105005142Y-67000357D02*
X105052761Y-67047976D01*
X105100380Y-67190833D01*
X105100380Y-67286071D01*
X105052761Y-67428928D01*
X104957523Y-67524166D01*
X104862285Y-67571785D01*
X104671809Y-67619404D01*
X104528952Y-67619404D01*
X104338476Y-67571785D01*
X104243238Y-67524166D01*
X104148000Y-67428928D01*
X104100380Y-67286071D01*
X104100380Y-67190833D01*
X104148000Y-67047976D01*
X104195619Y-67000357D01*
X104100380Y-66095595D02*
X104100380Y-66571785D01*
X104576571Y-66619404D01*
X104528952Y-66571785D01*
X104481333Y-66476547D01*
X104481333Y-66238452D01*
X104528952Y-66143214D01*
X104576571Y-66095595D01*
X104671809Y-66047976D01*
X104909904Y-66047976D01*
X105005142Y-66095595D01*
X105052761Y-66143214D01*
X105100380Y-66238452D01*
X105100380Y-66476547D01*
X105052761Y-66571785D01*
X105005142Y-66619404D01*
X104528952Y-65476547D02*
X104481333Y-65571785D01*
X104433714Y-65619404D01*
X104338476Y-65667023D01*
X104290857Y-65667023D01*
X104195619Y-65619404D01*
X104148000Y-65571785D01*
X104100380Y-65476547D01*
X104100380Y-65286071D01*
X104148000Y-65190833D01*
X104195619Y-65143214D01*
X104290857Y-65095595D01*
X104338476Y-65095595D01*
X104433714Y-65143214D01*
X104481333Y-65190833D01*
X104528952Y-65286071D01*
X104528952Y-65476547D01*
X104576571Y-65571785D01*
X104624190Y-65619404D01*
X104719428Y-65667023D01*
X104909904Y-65667023D01*
X105005142Y-65619404D01*
X105052761Y-65571785D01*
X105100380Y-65476547D01*
X105100380Y-65286071D01*
X105052761Y-65190833D01*
X105005142Y-65143214D01*
X104909904Y-65095595D01*
X104719428Y-65095595D01*
X104624190Y-65143214D01*
X104576571Y-65190833D01*
X104528952Y-65286071D01*
X99480642Y-76525357D02*
X99528261Y-76572976D01*
X99575880Y-76715833D01*
X99575880Y-76811071D01*
X99528261Y-76953928D01*
X99433023Y-77049166D01*
X99337785Y-77096785D01*
X99147309Y-77144404D01*
X99004452Y-77144404D01*
X98813976Y-77096785D01*
X98718738Y-77049166D01*
X98623500Y-76953928D01*
X98575880Y-76811071D01*
X98575880Y-76715833D01*
X98623500Y-76572976D01*
X98671119Y-76525357D01*
X98671119Y-76144404D02*
X98623500Y-76096785D01*
X98575880Y-76001547D01*
X98575880Y-75763452D01*
X98623500Y-75668214D01*
X98671119Y-75620595D01*
X98766357Y-75572976D01*
X98861595Y-75572976D01*
X99004452Y-75620595D01*
X99575880Y-76192023D01*
X99575880Y-75572976D01*
X98575880Y-75239642D02*
X98575880Y-74572976D01*
X99575880Y-75001547D01*
X109275642Y-67540142D02*
X109228023Y-67587761D01*
X109085166Y-67635380D01*
X108989928Y-67635380D01*
X108847071Y-67587761D01*
X108751833Y-67492523D01*
X108704214Y-67397285D01*
X108656595Y-67206809D01*
X108656595Y-67063952D01*
X108704214Y-66873476D01*
X108751833Y-66778238D01*
X108847071Y-66683000D01*
X108989928Y-66635380D01*
X109085166Y-66635380D01*
X109228023Y-66683000D01*
X109275642Y-66730619D01*
X110180404Y-66635380D02*
X109704214Y-66635380D01*
X109656595Y-67111571D01*
X109704214Y-67063952D01*
X109799452Y-67016333D01*
X110037547Y-67016333D01*
X110132785Y-67063952D01*
X110180404Y-67111571D01*
X110228023Y-67206809D01*
X110228023Y-67444904D01*
X110180404Y-67540142D01*
X110132785Y-67587761D01*
X110037547Y-67635380D01*
X109799452Y-67635380D01*
X109704214Y-67587761D01*
X109656595Y-67540142D01*
X110561357Y-66635380D02*
X111228023Y-66635380D01*
X110799452Y-67635380D01*
X90416142Y-79414642D02*
X90368523Y-79462261D01*
X90225666Y-79509880D01*
X90130428Y-79509880D01*
X89987571Y-79462261D01*
X89892333Y-79367023D01*
X89844714Y-79271785D01*
X89797095Y-79081309D01*
X89797095Y-78938452D01*
X89844714Y-78747976D01*
X89892333Y-78652738D01*
X89987571Y-78557500D01*
X90130428Y-78509880D01*
X90225666Y-78509880D01*
X90368523Y-78557500D01*
X90416142Y-78605119D01*
X90749476Y-78509880D02*
X91368523Y-78509880D01*
X91035190Y-78890833D01*
X91178047Y-78890833D01*
X91273285Y-78938452D01*
X91320904Y-78986071D01*
X91368523Y-79081309D01*
X91368523Y-79319404D01*
X91320904Y-79414642D01*
X91273285Y-79462261D01*
X91178047Y-79509880D01*
X90892333Y-79509880D01*
X90797095Y-79462261D01*
X90749476Y-79414642D01*
X91987571Y-78509880D02*
X92082809Y-78509880D01*
X92178047Y-78557500D01*
X92225666Y-78605119D01*
X92273285Y-78700357D01*
X92320904Y-78890833D01*
X92320904Y-79128928D01*
X92273285Y-79319404D01*
X92225666Y-79414642D01*
X92178047Y-79462261D01*
X92082809Y-79509880D01*
X91987571Y-79509880D01*
X91892333Y-79462261D01*
X91844714Y-79414642D01*
X91797095Y-79319404D01*
X91749476Y-79128928D01*
X91749476Y-78890833D01*
X91797095Y-78700357D01*
X91844714Y-78605119D01*
X91892333Y-78557500D01*
X91987571Y-78509880D01*
X118483142Y-71096142D02*
X118435523Y-71143761D01*
X118292666Y-71191380D01*
X118197428Y-71191380D01*
X118054571Y-71143761D01*
X117959333Y-71048523D01*
X117911714Y-70953285D01*
X117864095Y-70762809D01*
X117864095Y-70619952D01*
X117911714Y-70429476D01*
X117959333Y-70334238D01*
X118054571Y-70239000D01*
X118197428Y-70191380D01*
X118292666Y-70191380D01*
X118435523Y-70239000D01*
X118483142Y-70286619D01*
X118959333Y-71191380D02*
X119149809Y-71191380D01*
X119245047Y-71143761D01*
X119292666Y-71096142D01*
X119387904Y-70953285D01*
X119435523Y-70762809D01*
X119435523Y-70381857D01*
X119387904Y-70286619D01*
X119340285Y-70239000D01*
X119245047Y-70191380D01*
X119054571Y-70191380D01*
X118959333Y-70239000D01*
X118911714Y-70286619D01*
X118864095Y-70381857D01*
X118864095Y-70619952D01*
X118911714Y-70715190D01*
X118959333Y-70762809D01*
X119054571Y-70810428D01*
X119245047Y-70810428D01*
X119340285Y-70762809D01*
X119387904Y-70715190D01*
X119435523Y-70619952D01*
X120387904Y-71191380D02*
X119816476Y-71191380D01*
X120102190Y-71191380D02*
X120102190Y-70191380D01*
X120006952Y-70334238D01*
X119911714Y-70429476D01*
X119816476Y-70477095D01*
X96131166Y-58856571D02*
X95797833Y-58856571D01*
X95797833Y-59380380D02*
X95797833Y-58380380D01*
X96274023Y-58380380D01*
X96988309Y-58856571D02*
X97131166Y-58904190D01*
X97178785Y-58951809D01*
X97226404Y-59047047D01*
X97226404Y-59189904D01*
X97178785Y-59285142D01*
X97131166Y-59332761D01*
X97035928Y-59380380D01*
X96654976Y-59380380D01*
X96654976Y-58380380D01*
X96988309Y-58380380D01*
X97083547Y-58428000D01*
X97131166Y-58475619D01*
X97178785Y-58570857D01*
X97178785Y-58666095D01*
X97131166Y-58761333D01*
X97083547Y-58808952D01*
X96988309Y-58856571D01*
X96654976Y-58856571D01*
X98178785Y-59380380D02*
X97607357Y-59380380D01*
X97893071Y-59380380D02*
X97893071Y-58380380D01*
X97797833Y-58523238D01*
X97702595Y-58618476D01*
X97607357Y-58666095D01*
X109847166Y-58856571D02*
X109513833Y-58856571D01*
X109513833Y-59380380D02*
X109513833Y-58380380D01*
X109990023Y-58380380D01*
X110704309Y-58856571D02*
X110847166Y-58904190D01*
X110894785Y-58951809D01*
X110942404Y-59047047D01*
X110942404Y-59189904D01*
X110894785Y-59285142D01*
X110847166Y-59332761D01*
X110751928Y-59380380D01*
X110370976Y-59380380D01*
X110370976Y-58380380D01*
X110704309Y-58380380D01*
X110799547Y-58428000D01*
X110847166Y-58475619D01*
X110894785Y-58570857D01*
X110894785Y-58666095D01*
X110847166Y-58761333D01*
X110799547Y-58808952D01*
X110704309Y-58856571D01*
X110370976Y-58856571D01*
X111323357Y-58475619D02*
X111370976Y-58428000D01*
X111466214Y-58380380D01*
X111704309Y-58380380D01*
X111799547Y-58428000D01*
X111847166Y-58475619D01*
X111894785Y-58570857D01*
X111894785Y-58666095D01*
X111847166Y-58808952D01*
X111275738Y-59380380D01*
X111894785Y-59380380D01*
X87812571Y-79192333D02*
X87812571Y-79525666D01*
X88336380Y-79525666D02*
X87336380Y-79525666D01*
X87336380Y-79049476D01*
X87812571Y-78335190D02*
X87860190Y-78192333D01*
X87907809Y-78144714D01*
X88003047Y-78097095D01*
X88145904Y-78097095D01*
X88241142Y-78144714D01*
X88288761Y-78192333D01*
X88336380Y-78287571D01*
X88336380Y-78668523D01*
X87336380Y-78668523D01*
X87336380Y-78335190D01*
X87384000Y-78239952D01*
X87431619Y-78192333D01*
X87526857Y-78144714D01*
X87622095Y-78144714D01*
X87717333Y-78192333D01*
X87764952Y-78239952D01*
X87812571Y-78335190D01*
X87812571Y-78668523D01*
X87336380Y-77763761D02*
X87336380Y-77144714D01*
X87717333Y-77478047D01*
X87717333Y-77335190D01*
X87764952Y-77239952D01*
X87812571Y-77192333D01*
X87907809Y-77144714D01*
X88145904Y-77144714D01*
X88241142Y-77192333D01*
X88288761Y-77239952D01*
X88336380Y-77335190D01*
X88336380Y-77620904D01*
X88288761Y-77716142D01*
X88241142Y-77763761D01*
X88765071Y-76334833D02*
X88765071Y-76668166D01*
X89288880Y-76668166D02*
X88288880Y-76668166D01*
X88288880Y-76191976D01*
X88765071Y-75477690D02*
X88812690Y-75334833D01*
X88860309Y-75287214D01*
X88955547Y-75239595D01*
X89098404Y-75239595D01*
X89193642Y-75287214D01*
X89241261Y-75334833D01*
X89288880Y-75430071D01*
X89288880Y-75811023D01*
X88288880Y-75811023D01*
X88288880Y-75477690D01*
X88336500Y-75382452D01*
X88384119Y-75334833D01*
X88479357Y-75287214D01*
X88574595Y-75287214D01*
X88669833Y-75334833D01*
X88717452Y-75382452D01*
X88765071Y-75477690D01*
X88765071Y-75811023D01*
X88622214Y-74382452D02*
X89288880Y-74382452D01*
X88241261Y-74620547D02*
X88955547Y-74858642D01*
X88955547Y-74239595D01*
X96369119Y-67722738D02*
X96321500Y-67817976D01*
X96226261Y-67913214D01*
X96083404Y-68056071D01*
X96035785Y-68151309D01*
X96035785Y-68246547D01*
X96273880Y-68198928D02*
X96226261Y-68294166D01*
X96131023Y-68389404D01*
X95940547Y-68437023D01*
X95607214Y-68437023D01*
X95416738Y-68389404D01*
X95321500Y-68294166D01*
X95273880Y-68198928D01*
X95273880Y-68008452D01*
X95321500Y-67913214D01*
X95416738Y-67817976D01*
X95607214Y-67770357D01*
X95940547Y-67770357D01*
X96131023Y-67817976D01*
X96226261Y-67913214D01*
X96273880Y-68008452D01*
X96273880Y-68198928D01*
X96273880Y-66817976D02*
X96273880Y-67389404D01*
X96273880Y-67103690D02*
X95273880Y-67103690D01*
X95416738Y-67198928D01*
X95511976Y-67294166D01*
X95559595Y-67389404D01*
X103497142Y-59507380D02*
X103163809Y-59031190D01*
X102925714Y-59507380D02*
X102925714Y-58507380D01*
X103306666Y-58507380D01*
X103401904Y-58555000D01*
X103449523Y-58602619D01*
X103497142Y-58697857D01*
X103497142Y-58840714D01*
X103449523Y-58935952D01*
X103401904Y-58983571D01*
X103306666Y-59031190D01*
X102925714Y-59031190D01*
X104449523Y-59507380D02*
X103878095Y-59507380D01*
X104163809Y-59507380D02*
X104163809Y-58507380D01*
X104068571Y-58650238D01*
X103973333Y-58745476D01*
X103878095Y-58793095D01*
X104830476Y-58602619D02*
X104878095Y-58555000D01*
X104973333Y-58507380D01*
X105211428Y-58507380D01*
X105306666Y-58555000D01*
X105354285Y-58602619D01*
X105401904Y-58697857D01*
X105401904Y-58793095D01*
X105354285Y-58935952D01*
X104782857Y-59507380D01*
X105401904Y-59507380D01*
X90304880Y-59126357D02*
X89828690Y-59459690D01*
X90304880Y-59697785D02*
X89304880Y-59697785D01*
X89304880Y-59316833D01*
X89352500Y-59221595D01*
X89400119Y-59173976D01*
X89495357Y-59126357D01*
X89638214Y-59126357D01*
X89733452Y-59173976D01*
X89781071Y-59221595D01*
X89828690Y-59316833D01*
X89828690Y-59697785D01*
X90304880Y-58173976D02*
X90304880Y-58745404D01*
X90304880Y-58459690D02*
X89304880Y-58459690D01*
X89447738Y-58554928D01*
X89542976Y-58650166D01*
X89590595Y-58745404D01*
X89638214Y-57316833D02*
X90304880Y-57316833D01*
X89257261Y-57554928D02*
X89971547Y-57793023D01*
X89971547Y-57173976D01*
X82415142Y-55951380D02*
X82081809Y-55475190D01*
X81843714Y-55951380D02*
X81843714Y-54951380D01*
X82224666Y-54951380D01*
X82319904Y-54999000D01*
X82367523Y-55046619D01*
X82415142Y-55141857D01*
X82415142Y-55284714D01*
X82367523Y-55379952D01*
X82319904Y-55427571D01*
X82224666Y-55475190D01*
X81843714Y-55475190D01*
X83367523Y-55951380D02*
X82796095Y-55951380D01*
X83081809Y-55951380D02*
X83081809Y-54951380D01*
X82986571Y-55094238D01*
X82891333Y-55189476D01*
X82796095Y-55237095D01*
X84224666Y-54951380D02*
X84034190Y-54951380D01*
X83938952Y-54999000D01*
X83891333Y-55046619D01*
X83796095Y-55189476D01*
X83748476Y-55379952D01*
X83748476Y-55760904D01*
X83796095Y-55856142D01*
X83843714Y-55903761D01*
X83938952Y-55951380D01*
X84129428Y-55951380D01*
X84224666Y-55903761D01*
X84272285Y-55856142D01*
X84319904Y-55760904D01*
X84319904Y-55522809D01*
X84272285Y-55427571D01*
X84224666Y-55379952D01*
X84129428Y-55332333D01*
X83938952Y-55332333D01*
X83843714Y-55379952D01*
X83796095Y-55427571D01*
X83748476Y-55522809D01*
X78938380Y-58427857D02*
X78462190Y-58761190D01*
X78938380Y-58999285D02*
X77938380Y-58999285D01*
X77938380Y-58618333D01*
X77986000Y-58523095D01*
X78033619Y-58475476D01*
X78128857Y-58427857D01*
X78271714Y-58427857D01*
X78366952Y-58475476D01*
X78414571Y-58523095D01*
X78462190Y-58618333D01*
X78462190Y-58999285D01*
X78938380Y-57475476D02*
X78938380Y-58046904D01*
X78938380Y-57761190D02*
X77938380Y-57761190D01*
X78081238Y-57856428D01*
X78176476Y-57951666D01*
X78224095Y-58046904D01*
X77938380Y-57142142D02*
X77938380Y-56475476D01*
X78938380Y-56904047D01*
X77604880Y-61792857D02*
X77128690Y-62126190D01*
X77604880Y-62364285D02*
X76604880Y-62364285D01*
X76604880Y-61983333D01*
X76652500Y-61888095D01*
X76700119Y-61840476D01*
X76795357Y-61792857D01*
X76938214Y-61792857D01*
X77033452Y-61840476D01*
X77081071Y-61888095D01*
X77128690Y-61983333D01*
X77128690Y-62364285D01*
X77604880Y-60840476D02*
X77604880Y-61411904D01*
X77604880Y-61126190D02*
X76604880Y-61126190D01*
X76747738Y-61221428D01*
X76842976Y-61316666D01*
X76890595Y-61411904D01*
X77604880Y-60364285D02*
X77604880Y-60173809D01*
X77557261Y-60078571D01*
X77509642Y-60030952D01*
X77366785Y-59935714D01*
X77176309Y-59888095D01*
X76795357Y-59888095D01*
X76700119Y-59935714D01*
X76652500Y-59983333D01*
X76604880Y-60078571D01*
X76604880Y-60269047D01*
X76652500Y-60364285D01*
X76700119Y-60411904D01*
X76795357Y-60459523D01*
X77033452Y-60459523D01*
X77128690Y-60411904D01*
X77176309Y-60364285D01*
X77223928Y-60269047D01*
X77223928Y-60078571D01*
X77176309Y-59983333D01*
X77128690Y-59935714D01*
X77033452Y-59888095D01*
X83304142Y-64841380D02*
X82970809Y-64365190D01*
X82732714Y-64841380D02*
X82732714Y-63841380D01*
X83113666Y-63841380D01*
X83208904Y-63889000D01*
X83256523Y-63936619D01*
X83304142Y-64031857D01*
X83304142Y-64174714D01*
X83256523Y-64269952D01*
X83208904Y-64317571D01*
X83113666Y-64365190D01*
X82732714Y-64365190D01*
X83685095Y-63936619D02*
X83732714Y-63889000D01*
X83827952Y-63841380D01*
X84066047Y-63841380D01*
X84161285Y-63889000D01*
X84208904Y-63936619D01*
X84256523Y-64031857D01*
X84256523Y-64127095D01*
X84208904Y-64269952D01*
X83637476Y-64841380D01*
X84256523Y-64841380D01*
X85208904Y-64841380D02*
X84637476Y-64841380D01*
X84923190Y-64841380D02*
X84923190Y-63841380D01*
X84827952Y-63984238D01*
X84732714Y-64079476D01*
X84637476Y-64127095D01*
X98432880Y-84907357D02*
X97956690Y-85240690D01*
X98432880Y-85478785D02*
X97432880Y-85478785D01*
X97432880Y-85097833D01*
X97480500Y-85002595D01*
X97528119Y-84954976D01*
X97623357Y-84907357D01*
X97766214Y-84907357D01*
X97861452Y-84954976D01*
X97909071Y-85002595D01*
X97956690Y-85097833D01*
X97956690Y-85478785D01*
X97528119Y-84526404D02*
X97480500Y-84478785D01*
X97432880Y-84383547D01*
X97432880Y-84145452D01*
X97480500Y-84050214D01*
X97528119Y-84002595D01*
X97623357Y-83954976D01*
X97718595Y-83954976D01*
X97861452Y-84002595D01*
X98432880Y-84574023D01*
X98432880Y-83954976D01*
X97528119Y-83574023D02*
X97480500Y-83526404D01*
X97432880Y-83431166D01*
X97432880Y-83193071D01*
X97480500Y-83097833D01*
X97528119Y-83050214D01*
X97623357Y-83002595D01*
X97718595Y-83002595D01*
X97861452Y-83050214D01*
X98432880Y-83621642D01*
X98432880Y-83002595D01*
X98861642Y-65158880D02*
X98528309Y-64682690D01*
X98290214Y-65158880D02*
X98290214Y-64158880D01*
X98671166Y-64158880D01*
X98766404Y-64206500D01*
X98814023Y-64254119D01*
X98861642Y-64349357D01*
X98861642Y-64492214D01*
X98814023Y-64587452D01*
X98766404Y-64635071D01*
X98671166Y-64682690D01*
X98290214Y-64682690D01*
X99718785Y-64492214D02*
X99718785Y-65158880D01*
X99480690Y-64111261D02*
X99242595Y-64825547D01*
X99861642Y-64825547D01*
X100290214Y-65158880D02*
X100480690Y-65158880D01*
X100575928Y-65111261D01*
X100623547Y-65063642D01*
X100718785Y-64920785D01*
X100766404Y-64730309D01*
X100766404Y-64349357D01*
X100718785Y-64254119D01*
X100671166Y-64206500D01*
X100575928Y-64158880D01*
X100385452Y-64158880D01*
X100290214Y-64206500D01*
X100242595Y-64254119D01*
X100194976Y-64349357D01*
X100194976Y-64587452D01*
X100242595Y-64682690D01*
X100290214Y-64730309D01*
X100385452Y-64777928D01*
X100575928Y-64777928D01*
X100671166Y-64730309D01*
X100718785Y-64682690D01*
X100766404Y-64587452D01*
X93972142Y-93987880D02*
X93638809Y-93511690D01*
X93400714Y-93987880D02*
X93400714Y-92987880D01*
X93781666Y-92987880D01*
X93876904Y-93035500D01*
X93924523Y-93083119D01*
X93972142Y-93178357D01*
X93972142Y-93321214D01*
X93924523Y-93416452D01*
X93876904Y-93464071D01*
X93781666Y-93511690D01*
X93400714Y-93511690D01*
X94829285Y-93321214D02*
X94829285Y-93987880D01*
X94591190Y-92940261D02*
X94353095Y-93654547D01*
X94972142Y-93654547D01*
X95257857Y-92987880D02*
X95876904Y-92987880D01*
X95543571Y-93368833D01*
X95686428Y-93368833D01*
X95781666Y-93416452D01*
X95829285Y-93464071D01*
X95876904Y-93559309D01*
X95876904Y-93797404D01*
X95829285Y-93892642D01*
X95781666Y-93940261D01*
X95686428Y-93987880D01*
X95400714Y-93987880D01*
X95305476Y-93940261D01*
X95257857Y-93892642D01*
X90733642Y-94051380D02*
X90400309Y-93575190D01*
X90162214Y-94051380D02*
X90162214Y-93051380D01*
X90543166Y-93051380D01*
X90638404Y-93099000D01*
X90686023Y-93146619D01*
X90733642Y-93241857D01*
X90733642Y-93384714D01*
X90686023Y-93479952D01*
X90638404Y-93527571D01*
X90543166Y-93575190D01*
X90162214Y-93575190D01*
X91590785Y-93384714D02*
X91590785Y-94051380D01*
X91352690Y-93003761D02*
X91114595Y-93718047D01*
X91733642Y-93718047D01*
X92543166Y-93384714D02*
X92543166Y-94051380D01*
X92305071Y-93003761D02*
X92066976Y-93718047D01*
X92686023Y-93718047D01*
X99575880Y-73667857D02*
X99099690Y-74001190D01*
X99575880Y-74239285D02*
X98575880Y-74239285D01*
X98575880Y-73858333D01*
X98623500Y-73763095D01*
X98671119Y-73715476D01*
X98766357Y-73667857D01*
X98909214Y-73667857D01*
X99004452Y-73715476D01*
X99052071Y-73763095D01*
X99099690Y-73858333D01*
X99099690Y-74239285D01*
X98909214Y-72810714D02*
X99575880Y-72810714D01*
X98528261Y-73048809D02*
X99242547Y-73286904D01*
X99242547Y-72667857D01*
X98575880Y-72382142D02*
X98575880Y-71715476D01*
X99575880Y-72144047D01*
X93400642Y-72588380D02*
X93067309Y-72112190D01*
X92829214Y-72588380D02*
X92829214Y-71588380D01*
X93210166Y-71588380D01*
X93305404Y-71636000D01*
X93353023Y-71683619D01*
X93400642Y-71778857D01*
X93400642Y-71921714D01*
X93353023Y-72016952D01*
X93305404Y-72064571D01*
X93210166Y-72112190D01*
X92829214Y-72112190D01*
X94257785Y-71921714D02*
X94257785Y-72588380D01*
X94019690Y-71540761D02*
X93781595Y-72255047D01*
X94400642Y-72255047D01*
X94924452Y-72016952D02*
X94829214Y-71969333D01*
X94781595Y-71921714D01*
X94733976Y-71826476D01*
X94733976Y-71778857D01*
X94781595Y-71683619D01*
X94829214Y-71636000D01*
X94924452Y-71588380D01*
X95114928Y-71588380D01*
X95210166Y-71636000D01*
X95257785Y-71683619D01*
X95305404Y-71778857D01*
X95305404Y-71826476D01*
X95257785Y-71921714D01*
X95210166Y-71969333D01*
X95114928Y-72016952D01*
X94924452Y-72016952D01*
X94829214Y-72064571D01*
X94781595Y-72112190D01*
X94733976Y-72207428D01*
X94733976Y-72397904D01*
X94781595Y-72493142D01*
X94829214Y-72540761D01*
X94924452Y-72588380D01*
X95114928Y-72588380D01*
X95210166Y-72540761D01*
X95257785Y-72493142D01*
X95305404Y-72397904D01*
X95305404Y-72207428D01*
X95257785Y-72112190D01*
X95210166Y-72064571D01*
X95114928Y-72016952D01*
X117927380Y-78604976D02*
X117451190Y-78938309D01*
X117927380Y-79176404D02*
X116927380Y-79176404D01*
X116927380Y-78795452D01*
X116975000Y-78700214D01*
X117022619Y-78652595D01*
X117117857Y-78604976D01*
X117260714Y-78604976D01*
X117355952Y-78652595D01*
X117403571Y-78700214D01*
X117451190Y-78795452D01*
X117451190Y-79176404D01*
X117927380Y-78176404D02*
X116927380Y-78176404D01*
X117927380Y-77604976D01*
X116927380Y-77604976D01*
X117022619Y-77176404D02*
X116975000Y-77128785D01*
X116927380Y-77033547D01*
X116927380Y-76795452D01*
X116975000Y-76700214D01*
X117022619Y-76652595D01*
X117117857Y-76604976D01*
X117213095Y-76604976D01*
X117355952Y-76652595D01*
X117927380Y-77224023D01*
X117927380Y-76604976D01*
X67635380Y-67111476D02*
X67159190Y-67444809D01*
X67635380Y-67682904D02*
X66635380Y-67682904D01*
X66635380Y-67301952D01*
X66683000Y-67206714D01*
X66730619Y-67159095D01*
X66825857Y-67111476D01*
X66968714Y-67111476D01*
X67063952Y-67159095D01*
X67111571Y-67206714D01*
X67159190Y-67301952D01*
X67159190Y-67682904D01*
X67635380Y-66682904D02*
X66635380Y-66682904D01*
X67635380Y-66111476D01*
X66635380Y-66111476D01*
X67635380Y-65111476D02*
X67635380Y-65682904D01*
X67635380Y-65397190D02*
X66635380Y-65397190D01*
X66778238Y-65492428D01*
X66873476Y-65587666D01*
X66921095Y-65682904D01*
X65984523Y-111894880D02*
X65651190Y-111418690D01*
X65413095Y-111894880D02*
X65413095Y-110894880D01*
X65794047Y-110894880D01*
X65889285Y-110942500D01*
X65936904Y-110990119D01*
X65984523Y-111085357D01*
X65984523Y-111228214D01*
X65936904Y-111323452D01*
X65889285Y-111371071D01*
X65794047Y-111418690D01*
X65413095Y-111418690D01*
X66413095Y-111894880D02*
X66413095Y-110894880D01*
X66984523Y-111894880D01*
X66984523Y-110894880D01*
X67365476Y-110894880D02*
X67984523Y-110894880D01*
X67651190Y-111275833D01*
X67794047Y-111275833D01*
X67889285Y-111323452D01*
X67936904Y-111371071D01*
X67984523Y-111466309D01*
X67984523Y-111704404D01*
X67936904Y-111799642D01*
X67889285Y-111847261D01*
X67794047Y-111894880D01*
X67508333Y-111894880D01*
X67413095Y-111847261D01*
X67365476Y-111799642D01*
X117927380Y-74731476D02*
X117451190Y-75064809D01*
X117927380Y-75302904D02*
X116927380Y-75302904D01*
X116927380Y-74921952D01*
X116975000Y-74826714D01*
X117022619Y-74779095D01*
X117117857Y-74731476D01*
X117260714Y-74731476D01*
X117355952Y-74779095D01*
X117403571Y-74826714D01*
X117451190Y-74921952D01*
X117451190Y-75302904D01*
X117927380Y-74302904D02*
X116927380Y-74302904D01*
X117927380Y-73731476D01*
X116927380Y-73731476D01*
X116927380Y-72779095D02*
X116927380Y-73255285D01*
X117403571Y-73302904D01*
X117355952Y-73255285D01*
X117308333Y-73160047D01*
X117308333Y-72921952D01*
X117355952Y-72826714D01*
X117403571Y-72779095D01*
X117498809Y-72731476D01*
X117736904Y-72731476D01*
X117832142Y-72779095D01*
X117879761Y-72826714D01*
X117927380Y-72921952D01*
X117927380Y-73160047D01*
X117879761Y-73255285D01*
X117832142Y-73302904D01*
D18*
X107567906Y-47584526D02*
X107567906Y-48395313D01*
X107615600Y-48490700D01*
X107663293Y-48538393D01*
X107758680Y-48586086D01*
X107949453Y-48586086D01*
X108044840Y-48538393D01*
X108092533Y-48490700D01*
X108140226Y-48395313D01*
X108140226Y-47584526D01*
X109094093Y-47584526D02*
X108617160Y-47584526D01*
X108569466Y-48061460D01*
X108617160Y-48013766D01*
X108712546Y-47966073D01*
X108951013Y-47966073D01*
X109046400Y-48013766D01*
X109094093Y-48061460D01*
X109141786Y-48156846D01*
X109141786Y-48395313D01*
X109094093Y-48490700D01*
X109046400Y-48538393D01*
X108951013Y-48586086D01*
X108712546Y-48586086D01*
X108617160Y-48538393D01*
X108569466Y-48490700D01*
X95121906Y-47584526D02*
X95121906Y-48395313D01*
X95169600Y-48490700D01*
X95217293Y-48538393D01*
X95312680Y-48586086D01*
X95503453Y-48586086D01*
X95598840Y-48538393D01*
X95646533Y-48490700D01*
X95694226Y-48395313D01*
X95694226Y-47584526D01*
X96600400Y-47584526D02*
X96409626Y-47584526D01*
X96314240Y-47632220D01*
X96266546Y-47679913D01*
X96171160Y-47822993D01*
X96123466Y-48013766D01*
X96123466Y-48395313D01*
X96171160Y-48490700D01*
X96218853Y-48538393D01*
X96314240Y-48586086D01*
X96505013Y-48586086D01*
X96600400Y-48538393D01*
X96648093Y-48490700D01*
X96695786Y-48395313D01*
X96695786Y-48156846D01*
X96648093Y-48061460D01*
X96600400Y-48013766D01*
X96505013Y-47966073D01*
X96314240Y-47966073D01*
X96218853Y-48013766D01*
X96171160Y-48061460D01*
X96123466Y-48156846D01*
D13*
X79819595Y-62888880D02*
X79819595Y-63698404D01*
X79867214Y-63793642D01*
X79914833Y-63841261D01*
X80010071Y-63888880D01*
X80200547Y-63888880D01*
X80295785Y-63841261D01*
X80343404Y-63793642D01*
X80391023Y-63698404D01*
X80391023Y-62888880D01*
X80771976Y-62888880D02*
X81438642Y-62888880D01*
X81010071Y-63888880D01*
X91376595Y-83716880D02*
X91376595Y-84526404D01*
X91424214Y-84621642D01*
X91471833Y-84669261D01*
X91567071Y-84716880D01*
X91757547Y-84716880D01*
X91852785Y-84669261D01*
X91900404Y-84621642D01*
X91948023Y-84526404D01*
X91948023Y-83716880D01*
X92567071Y-84145452D02*
X92471833Y-84097833D01*
X92424214Y-84050214D01*
X92376595Y-83954976D01*
X92376595Y-83907357D01*
X92424214Y-83812119D01*
X92471833Y-83764500D01*
X92567071Y-83716880D01*
X92757547Y-83716880D01*
X92852785Y-83764500D01*
X92900404Y-83812119D01*
X92948023Y-83907357D01*
X92948023Y-83954976D01*
X92900404Y-84050214D01*
X92852785Y-84097833D01*
X92757547Y-84145452D01*
X92567071Y-84145452D01*
X92471833Y-84193071D01*
X92424214Y-84240690D01*
X92376595Y-84335928D01*
X92376595Y-84526404D01*
X92424214Y-84621642D01*
X92471833Y-84669261D01*
X92567071Y-84716880D01*
X92757547Y-84716880D01*
X92852785Y-84669261D01*
X92900404Y-84621642D01*
X92948023Y-84526404D01*
X92948023Y-84335928D01*
X92900404Y-84240690D01*
X92852785Y-84193071D01*
X92757547Y-84145452D01*
X123975880Y-63404595D02*
X124785404Y-63404595D01*
X124880642Y-63356976D01*
X124928261Y-63309357D01*
X124975880Y-63214119D01*
X124975880Y-63023642D01*
X124928261Y-62928404D01*
X124880642Y-62880785D01*
X124785404Y-62833166D01*
X123975880Y-62833166D01*
X124071119Y-62404595D02*
X124023500Y-62356976D01*
X123975880Y-62261738D01*
X123975880Y-62023642D01*
X124023500Y-61928404D01*
X124071119Y-61880785D01*
X124166357Y-61833166D01*
X124261595Y-61833166D01*
X124404452Y-61880785D01*
X124975880Y-62452214D01*
X124975880Y-61833166D01*
X124975880Y-60880785D02*
X124975880Y-61452214D01*
X124975880Y-61166500D02*
X123975880Y-61166500D01*
X124118738Y-61261738D01*
X124213976Y-61356976D01*
X124261595Y-61452214D01*
X98837809Y-92368690D02*
X98837809Y-92844880D01*
X98504476Y-91844880D02*
X98837809Y-92368690D01*
X99171142Y-91844880D01*
X100028285Y-92844880D02*
X99456857Y-92844880D01*
X99742571Y-92844880D02*
X99742571Y-91844880D01*
X99647333Y-91987738D01*
X99552095Y-92082976D01*
X99456857Y-92130595D01*
X83304142Y-63412642D02*
X83256523Y-63460261D01*
X83113666Y-63507880D01*
X83018428Y-63507880D01*
X82875571Y-63460261D01*
X82780333Y-63365023D01*
X82732714Y-63269785D01*
X82685095Y-63079309D01*
X82685095Y-62936452D01*
X82732714Y-62745976D01*
X82780333Y-62650738D01*
X82875571Y-62555500D01*
X83018428Y-62507880D01*
X83113666Y-62507880D01*
X83256523Y-62555500D01*
X83304142Y-62603119D01*
X84256523Y-63507880D02*
X83685095Y-63507880D01*
X83970809Y-63507880D02*
X83970809Y-62507880D01*
X83875571Y-62650738D01*
X83780333Y-62745976D01*
X83685095Y-62793595D01*
X85113666Y-62507880D02*
X84923190Y-62507880D01*
X84827952Y-62555500D01*
X84780333Y-62603119D01*
X84685095Y-62745976D01*
X84637476Y-62936452D01*
X84637476Y-63317404D01*
X84685095Y-63412642D01*
X84732714Y-63460261D01*
X84827952Y-63507880D01*
X85018428Y-63507880D01*
X85113666Y-63460261D01*
X85161285Y-63412642D01*
X85208904Y-63317404D01*
X85208904Y-63079309D01*
X85161285Y-62984071D01*
X85113666Y-62936452D01*
X85018428Y-62888833D01*
X84827952Y-62888833D01*
X84732714Y-62936452D01*
X84685095Y-62984071D01*
X84637476Y-63079309D01*
X87860142Y-76144357D02*
X87907761Y-76191976D01*
X87955380Y-76334833D01*
X87955380Y-76430071D01*
X87907761Y-76572928D01*
X87812523Y-76668166D01*
X87717285Y-76715785D01*
X87526809Y-76763404D01*
X87383952Y-76763404D01*
X87193476Y-76715785D01*
X87098238Y-76668166D01*
X87003000Y-76572928D01*
X86955380Y-76430071D01*
X86955380Y-76334833D01*
X87003000Y-76191976D01*
X87050619Y-76144357D01*
X86955380Y-75239595D02*
X86955380Y-75715785D01*
X87431571Y-75763404D01*
X87383952Y-75715785D01*
X87336333Y-75620547D01*
X87336333Y-75382452D01*
X87383952Y-75287214D01*
X87431571Y-75239595D01*
X87526809Y-75191976D01*
X87764904Y-75191976D01*
X87860142Y-75239595D01*
X87907761Y-75287214D01*
X87955380Y-75382452D01*
X87955380Y-75620547D01*
X87907761Y-75715785D01*
X87860142Y-75763404D01*
X87955380Y-74715785D02*
X87955380Y-74525309D01*
X87907761Y-74430071D01*
X87860142Y-74382452D01*
X87717285Y-74287214D01*
X87526809Y-74239595D01*
X87145857Y-74239595D01*
X87050619Y-74287214D01*
X87003000Y-74334833D01*
X86955380Y-74430071D01*
X86955380Y-74620547D01*
X87003000Y-74715785D01*
X87050619Y-74763404D01*
X87145857Y-74811023D01*
X87383952Y-74811023D01*
X87479190Y-74763404D01*
X87526809Y-74715785D01*
X87574428Y-74620547D01*
X87574428Y-74430071D01*
X87526809Y-74334833D01*
X87479190Y-74287214D01*
X87383952Y-74239595D01*
X83304142Y-74271142D02*
X83256523Y-74318761D01*
X83113666Y-74366380D01*
X83018428Y-74366380D01*
X82875571Y-74318761D01*
X82780333Y-74223523D01*
X82732714Y-74128285D01*
X82685095Y-73937809D01*
X82685095Y-73794952D01*
X82732714Y-73604476D01*
X82780333Y-73509238D01*
X82875571Y-73414000D01*
X83018428Y-73366380D01*
X83113666Y-73366380D01*
X83256523Y-73414000D01*
X83304142Y-73461619D01*
X84161285Y-73699714D02*
X84161285Y-74366380D01*
X83923190Y-73318761D02*
X83685095Y-74033047D01*
X84304142Y-74033047D01*
X85113666Y-73366380D02*
X84923190Y-73366380D01*
X84827952Y-73414000D01*
X84780333Y-73461619D01*
X84685095Y-73604476D01*
X84637476Y-73794952D01*
X84637476Y-74175904D01*
X84685095Y-74271142D01*
X84732714Y-74318761D01*
X84827952Y-74366380D01*
X85018428Y-74366380D01*
X85113666Y-74318761D01*
X85161285Y-74271142D01*
X85208904Y-74175904D01*
X85208904Y-73937809D01*
X85161285Y-73842571D01*
X85113666Y-73794952D01*
X85018428Y-73747333D01*
X84827952Y-73747333D01*
X84732714Y-73794952D01*
X84685095Y-73842571D01*
X84637476Y-73937809D01*
X75239642Y-74271142D02*
X75192023Y-74318761D01*
X75049166Y-74366380D01*
X74953928Y-74366380D01*
X74811071Y-74318761D01*
X74715833Y-74223523D01*
X74668214Y-74128285D01*
X74620595Y-73937809D01*
X74620595Y-73794952D01*
X74668214Y-73604476D01*
X74715833Y-73509238D01*
X74811071Y-73414000D01*
X74953928Y-73366380D01*
X75049166Y-73366380D01*
X75192023Y-73414000D01*
X75239642Y-73461619D01*
X76144404Y-73366380D02*
X75668214Y-73366380D01*
X75620595Y-73842571D01*
X75668214Y-73794952D01*
X75763452Y-73747333D01*
X76001547Y-73747333D01*
X76096785Y-73794952D01*
X76144404Y-73842571D01*
X76192023Y-73937809D01*
X76192023Y-74175904D01*
X76144404Y-74271142D01*
X76096785Y-74318761D01*
X76001547Y-74366380D01*
X75763452Y-74366380D01*
X75668214Y-74318761D01*
X75620595Y-74271142D01*
X76811071Y-73366380D02*
X76906309Y-73366380D01*
X77001547Y-73414000D01*
X77049166Y-73461619D01*
X77096785Y-73556857D01*
X77144404Y-73747333D01*
X77144404Y-73985428D01*
X77096785Y-74175904D01*
X77049166Y-74271142D01*
X77001547Y-74318761D01*
X76906309Y-74366380D01*
X76811071Y-74366380D01*
X76715833Y-74318761D01*
X76668214Y-74271142D01*
X76620595Y-74175904D01*
X76572976Y-73985428D01*
X76572976Y-73747333D01*
X76620595Y-73556857D01*
X76668214Y-73461619D01*
X76715833Y-73414000D01*
X76811071Y-73366380D01*
X93400642Y-108180142D02*
X93353023Y-108227761D01*
X93210166Y-108275380D01*
X93114928Y-108275380D01*
X92972071Y-108227761D01*
X92876833Y-108132523D01*
X92829214Y-108037285D01*
X92781595Y-107846809D01*
X92781595Y-107703952D01*
X92829214Y-107513476D01*
X92876833Y-107418238D01*
X92972071Y-107323000D01*
X93114928Y-107275380D01*
X93210166Y-107275380D01*
X93353023Y-107323000D01*
X93400642Y-107370619D01*
X94257785Y-107275380D02*
X94067309Y-107275380D01*
X93972071Y-107323000D01*
X93924452Y-107370619D01*
X93829214Y-107513476D01*
X93781595Y-107703952D01*
X93781595Y-108084904D01*
X93829214Y-108180142D01*
X93876833Y-108227761D01*
X93972071Y-108275380D01*
X94162547Y-108275380D01*
X94257785Y-108227761D01*
X94305404Y-108180142D01*
X94353023Y-108084904D01*
X94353023Y-107846809D01*
X94305404Y-107751571D01*
X94257785Y-107703952D01*
X94162547Y-107656333D01*
X93972071Y-107656333D01*
X93876833Y-107703952D01*
X93829214Y-107751571D01*
X93781595Y-107846809D01*
X95257785Y-107275380D02*
X94781595Y-107275380D01*
X94733976Y-107751571D01*
X94781595Y-107703952D01*
X94876833Y-107656333D01*
X95114928Y-107656333D01*
X95210166Y-107703952D01*
X95257785Y-107751571D01*
X95305404Y-107846809D01*
X95305404Y-108084904D01*
X95257785Y-108180142D01*
X95210166Y-108227761D01*
X95114928Y-108275380D01*
X94876833Y-108275380D01*
X94781595Y-108227761D01*
X94733976Y-108180142D01*
X97194642Y-96591357D02*
X97242261Y-96638976D01*
X97289880Y-96781833D01*
X97289880Y-96877071D01*
X97242261Y-97019928D01*
X97147023Y-97115166D01*
X97051785Y-97162785D01*
X96861309Y-97210404D01*
X96718452Y-97210404D01*
X96527976Y-97162785D01*
X96432738Y-97115166D01*
X96337500Y-97019928D01*
X96289880Y-96877071D01*
X96289880Y-96781833D01*
X96337500Y-96638976D01*
X96385119Y-96591357D01*
X96289880Y-95734214D02*
X96289880Y-95924690D01*
X96337500Y-96019928D01*
X96385119Y-96067547D01*
X96527976Y-96162785D01*
X96718452Y-96210404D01*
X97099404Y-96210404D01*
X97194642Y-96162785D01*
X97242261Y-96115166D01*
X97289880Y-96019928D01*
X97289880Y-95829452D01*
X97242261Y-95734214D01*
X97194642Y-95686595D01*
X97099404Y-95638976D01*
X96861309Y-95638976D01*
X96766071Y-95686595D01*
X96718452Y-95734214D01*
X96670833Y-95829452D01*
X96670833Y-96019928D01*
X96718452Y-96115166D01*
X96766071Y-96162785D01*
X96861309Y-96210404D01*
X96289880Y-94781833D02*
X96289880Y-94972309D01*
X96337500Y-95067547D01*
X96385119Y-95115166D01*
X96527976Y-95210404D01*
X96718452Y-95258023D01*
X97099404Y-95258023D01*
X97194642Y-95210404D01*
X97242261Y-95162785D01*
X97289880Y-95067547D01*
X97289880Y-94877071D01*
X97242261Y-94781833D01*
X97194642Y-94734214D01*
X97099404Y-94686595D01*
X96861309Y-94686595D01*
X96766071Y-94734214D01*
X96718452Y-94781833D01*
X96670833Y-94877071D01*
X96670833Y-95067547D01*
X96718452Y-95162785D01*
X96766071Y-95210404D01*
X96861309Y-95258023D01*
X91622642Y-95641642D02*
X91575023Y-95689261D01*
X91432166Y-95736880D01*
X91336928Y-95736880D01*
X91194071Y-95689261D01*
X91098833Y-95594023D01*
X91051214Y-95498785D01*
X91003595Y-95308309D01*
X91003595Y-95165452D01*
X91051214Y-94974976D01*
X91098833Y-94879738D01*
X91194071Y-94784500D01*
X91336928Y-94736880D01*
X91432166Y-94736880D01*
X91575023Y-94784500D01*
X91622642Y-94832119D01*
X92479785Y-94736880D02*
X92289309Y-94736880D01*
X92194071Y-94784500D01*
X92146452Y-94832119D01*
X92051214Y-94974976D01*
X92003595Y-95165452D01*
X92003595Y-95546404D01*
X92051214Y-95641642D01*
X92098833Y-95689261D01*
X92194071Y-95736880D01*
X92384547Y-95736880D01*
X92479785Y-95689261D01*
X92527404Y-95641642D01*
X92575023Y-95546404D01*
X92575023Y-95308309D01*
X92527404Y-95213071D01*
X92479785Y-95165452D01*
X92384547Y-95117833D01*
X92194071Y-95117833D01*
X92098833Y-95165452D01*
X92051214Y-95213071D01*
X92003595Y-95308309D01*
X93051214Y-95736880D02*
X93241690Y-95736880D01*
X93336928Y-95689261D01*
X93384547Y-95641642D01*
X93479785Y-95498785D01*
X93527404Y-95308309D01*
X93527404Y-94927357D01*
X93479785Y-94832119D01*
X93432166Y-94784500D01*
X93336928Y-94736880D01*
X93146452Y-94736880D01*
X93051214Y-94784500D01*
X93003595Y-94832119D01*
X92955976Y-94927357D01*
X92955976Y-95165452D01*
X93003595Y-95260690D01*
X93051214Y-95308309D01*
X93146452Y-95355928D01*
X93336928Y-95355928D01*
X93432166Y-95308309D01*
X93479785Y-95260690D01*
X93527404Y-95165452D01*
X104290904Y-130373380D02*
X104290904Y-129373380D01*
X104529000Y-129373380D01*
X104671857Y-129421000D01*
X104767095Y-129516238D01*
X104814714Y-129611476D01*
X104862333Y-129801952D01*
X104862333Y-129944809D01*
X104814714Y-130135285D01*
X104767095Y-130230523D01*
X104671857Y-130325761D01*
X104529000Y-130373380D01*
X104290904Y-130373380D01*
X105243285Y-129468619D02*
X105290904Y-129421000D01*
X105386142Y-129373380D01*
X105624238Y-129373380D01*
X105719476Y-129421000D01*
X105767095Y-129468619D01*
X105814714Y-129563857D01*
X105814714Y-129659095D01*
X105767095Y-129801952D01*
X105195666Y-130373380D01*
X105814714Y-130373380D01*
X99623880Y-116498595D02*
X98623880Y-116498595D01*
X98623880Y-116260500D01*
X98671500Y-116117642D01*
X98766738Y-116022404D01*
X98861976Y-115974785D01*
X99052452Y-115927166D01*
X99195309Y-115927166D01*
X99385785Y-115974785D01*
X99481023Y-116022404D01*
X99576261Y-116117642D01*
X99623880Y-116260500D01*
X99623880Y-116498595D01*
X98623880Y-115593833D02*
X98623880Y-114974785D01*
X99004833Y-115308119D01*
X99004833Y-115165261D01*
X99052452Y-115070023D01*
X99100071Y-115022404D01*
X99195309Y-114974785D01*
X99433404Y-114974785D01*
X99528642Y-115022404D01*
X99576261Y-115070023D01*
X99623880Y-115165261D01*
X99623880Y-115450976D01*
X99576261Y-115546214D01*
X99528642Y-115593833D01*
X99258380Y-106497357D02*
X98782190Y-106830690D01*
X99258380Y-107068785D02*
X98258380Y-107068785D01*
X98258380Y-106687833D01*
X98306000Y-106592595D01*
X98353619Y-106544976D01*
X98448857Y-106497357D01*
X98591714Y-106497357D01*
X98686952Y-106544976D01*
X98734571Y-106592595D01*
X98782190Y-106687833D01*
X98782190Y-107068785D01*
X98258380Y-105592595D02*
X98258380Y-106068785D01*
X98734571Y-106116404D01*
X98686952Y-106068785D01*
X98639333Y-105973547D01*
X98639333Y-105735452D01*
X98686952Y-105640214D01*
X98734571Y-105592595D01*
X98829809Y-105544976D01*
X99067904Y-105544976D01*
X99163142Y-105592595D01*
X99210761Y-105640214D01*
X99258380Y-105735452D01*
X99258380Y-105973547D01*
X99210761Y-106068785D01*
X99163142Y-106116404D01*
X98258380Y-104925928D02*
X98258380Y-104830690D01*
X98306000Y-104735452D01*
X98353619Y-104687833D01*
X98448857Y-104640214D01*
X98639333Y-104592595D01*
X98877428Y-104592595D01*
X99067904Y-104640214D01*
X99163142Y-104687833D01*
X99210761Y-104735452D01*
X99258380Y-104830690D01*
X99258380Y-104925928D01*
X99210761Y-105021166D01*
X99163142Y-105068785D01*
X99067904Y-105116404D01*
X98877428Y-105164023D01*
X98639333Y-105164023D01*
X98448857Y-105116404D01*
X98353619Y-105068785D01*
X98306000Y-105021166D01*
X98258380Y-104925928D01*
X99316780Y-103322357D02*
X98840590Y-103655690D01*
X99316780Y-103893785D02*
X98316780Y-103893785D01*
X98316780Y-103512833D01*
X98364400Y-103417595D01*
X98412019Y-103369976D01*
X98507257Y-103322357D01*
X98650114Y-103322357D01*
X98745352Y-103369976D01*
X98792971Y-103417595D01*
X98840590Y-103512833D01*
X98840590Y-103893785D01*
X98316780Y-102417595D02*
X98316780Y-102893785D01*
X98792971Y-102941404D01*
X98745352Y-102893785D01*
X98697733Y-102798547D01*
X98697733Y-102560452D01*
X98745352Y-102465214D01*
X98792971Y-102417595D01*
X98888209Y-102369976D01*
X99126304Y-102369976D01*
X99221542Y-102417595D01*
X99269161Y-102465214D01*
X99316780Y-102560452D01*
X99316780Y-102798547D01*
X99269161Y-102893785D01*
X99221542Y-102941404D01*
X99316780Y-101417595D02*
X99316780Y-101989023D01*
X99316780Y-101703309D02*
X98316780Y-101703309D01*
X98459638Y-101798547D01*
X98554876Y-101893785D01*
X98602495Y-101989023D01*
X98686880Y-96908857D02*
X98210690Y-97242190D01*
X98686880Y-97480285D02*
X97686880Y-97480285D01*
X97686880Y-97099333D01*
X97734500Y-97004095D01*
X97782119Y-96956476D01*
X97877357Y-96908857D01*
X98020214Y-96908857D01*
X98115452Y-96956476D01*
X98163071Y-97004095D01*
X98210690Y-97099333D01*
X98210690Y-97480285D01*
X97686880Y-96004095D02*
X97686880Y-96480285D01*
X98163071Y-96527904D01*
X98115452Y-96480285D01*
X98067833Y-96385047D01*
X98067833Y-96146952D01*
X98115452Y-96051714D01*
X98163071Y-96004095D01*
X98258309Y-95956476D01*
X98496404Y-95956476D01*
X98591642Y-96004095D01*
X98639261Y-96051714D01*
X98686880Y-96146952D01*
X98686880Y-96385047D01*
X98639261Y-96480285D01*
X98591642Y-96527904D01*
X97782119Y-95575523D02*
X97734500Y-95527904D01*
X97686880Y-95432666D01*
X97686880Y-95194571D01*
X97734500Y-95099333D01*
X97782119Y-95051714D01*
X97877357Y-95004095D01*
X97972595Y-95004095D01*
X98115452Y-95051714D01*
X98686880Y-95623142D01*
X98686880Y-95004095D01*
X83621642Y-118784642D02*
X83574023Y-118832261D01*
X83431166Y-118879880D01*
X83335928Y-118879880D01*
X83193071Y-118832261D01*
X83097833Y-118737023D01*
X83050214Y-118641785D01*
X83002595Y-118451309D01*
X83002595Y-118308452D01*
X83050214Y-118117976D01*
X83097833Y-118022738D01*
X83193071Y-117927500D01*
X83335928Y-117879880D01*
X83431166Y-117879880D01*
X83574023Y-117927500D01*
X83621642Y-117975119D01*
X83954976Y-117879880D02*
X84621642Y-117879880D01*
X84193071Y-118879880D01*
X85431166Y-118213214D02*
X85431166Y-118879880D01*
X85193071Y-117832261D02*
X84954976Y-118546547D01*
X85574023Y-118546547D01*
X88352333Y-98305880D02*
X87876142Y-98305880D01*
X87876142Y-97305880D01*
X89209476Y-98305880D02*
X88638047Y-98305880D01*
X88923761Y-98305880D02*
X88923761Y-97305880D01*
X88828523Y-97448738D01*
X88733285Y-97543976D01*
X88638047Y-97591595D01*
X112260142Y-131357642D02*
X112212523Y-131405261D01*
X112069666Y-131452880D01*
X111974428Y-131452880D01*
X111831571Y-131405261D01*
X111736333Y-131310023D01*
X111688714Y-131214785D01*
X111641095Y-131024309D01*
X111641095Y-130881452D01*
X111688714Y-130690976D01*
X111736333Y-130595738D01*
X111831571Y-130500500D01*
X111974428Y-130452880D01*
X112069666Y-130452880D01*
X112212523Y-130500500D01*
X112260142Y-130548119D01*
X113117285Y-130452880D02*
X112926809Y-130452880D01*
X112831571Y-130500500D01*
X112783952Y-130548119D01*
X112688714Y-130690976D01*
X112641095Y-130881452D01*
X112641095Y-131262404D01*
X112688714Y-131357642D01*
X112736333Y-131405261D01*
X112831571Y-131452880D01*
X113022047Y-131452880D01*
X113117285Y-131405261D01*
X113164904Y-131357642D01*
X113212523Y-131262404D01*
X113212523Y-131024309D01*
X113164904Y-130929071D01*
X113117285Y-130881452D01*
X113022047Y-130833833D01*
X112831571Y-130833833D01*
X112736333Y-130881452D01*
X112688714Y-130929071D01*
X112641095Y-131024309D01*
X113831571Y-130452880D02*
X113926809Y-130452880D01*
X114022047Y-130500500D01*
X114069666Y-130548119D01*
X114117285Y-130643357D01*
X114164904Y-130833833D01*
X114164904Y-131071928D01*
X114117285Y-131262404D01*
X114069666Y-131357642D01*
X114022047Y-131405261D01*
X113926809Y-131452880D01*
X113831571Y-131452880D01*
X113736333Y-131405261D01*
X113688714Y-131357642D01*
X113641095Y-131262404D01*
X113593476Y-131071928D01*
X113593476Y-130833833D01*
X113641095Y-130643357D01*
X113688714Y-130548119D01*
X113736333Y-130500500D01*
X113831571Y-130452880D01*
X69921380Y-69318166D02*
X69445190Y-69651500D01*
X69921380Y-69889595D02*
X68921380Y-69889595D01*
X68921380Y-69508642D01*
X68969000Y-69413404D01*
X69016619Y-69365785D01*
X69111857Y-69318166D01*
X69254714Y-69318166D01*
X69349952Y-69365785D01*
X69397571Y-69413404D01*
X69445190Y-69508642D01*
X69445190Y-69889595D01*
X69921380Y-68841976D02*
X69921380Y-68651500D01*
X69873761Y-68556261D01*
X69826142Y-68508642D01*
X69683285Y-68413404D01*
X69492809Y-68365785D01*
X69111857Y-68365785D01*
X69016619Y-68413404D01*
X68969000Y-68461023D01*
X68921380Y-68556261D01*
X68921380Y-68746738D01*
X68969000Y-68841976D01*
X69016619Y-68889595D01*
X69111857Y-68937214D01*
X69349952Y-68937214D01*
X69445190Y-68889595D01*
X69492809Y-68841976D01*
X69540428Y-68746738D01*
X69540428Y-68556261D01*
X69492809Y-68461023D01*
X69445190Y-68413404D01*
X69349952Y-68365785D01*
X67000380Y-72270857D02*
X66524190Y-72604190D01*
X67000380Y-72842285D02*
X66000380Y-72842285D01*
X66000380Y-72461333D01*
X66048000Y-72366095D01*
X66095619Y-72318476D01*
X66190857Y-72270857D01*
X66333714Y-72270857D01*
X66428952Y-72318476D01*
X66476571Y-72366095D01*
X66524190Y-72461333D01*
X66524190Y-72842285D01*
X67000380Y-71318476D02*
X67000380Y-71889904D01*
X67000380Y-71604190D02*
X66000380Y-71604190D01*
X66143238Y-71699428D01*
X66238476Y-71794666D01*
X66286095Y-71889904D01*
X66000380Y-70699428D02*
X66000380Y-70604190D01*
X66048000Y-70508952D01*
X66095619Y-70461333D01*
X66190857Y-70413714D01*
X66381333Y-70366095D01*
X66619428Y-70366095D01*
X66809904Y-70413714D01*
X66905142Y-70461333D01*
X66952761Y-70508952D01*
X67000380Y-70604190D01*
X67000380Y-70699428D01*
X66952761Y-70794666D01*
X66905142Y-70842285D01*
X66809904Y-70889904D01*
X66619428Y-70937523D01*
X66381333Y-70937523D01*
X66190857Y-70889904D01*
X66095619Y-70842285D01*
X66048000Y-70794666D01*
X66000380Y-70699428D01*
X114498380Y-88272857D02*
X114022190Y-88606190D01*
X114498380Y-88844285D02*
X113498380Y-88844285D01*
X113498380Y-88463333D01*
X113546000Y-88368095D01*
X113593619Y-88320476D01*
X113688857Y-88272857D01*
X113831714Y-88272857D01*
X113926952Y-88320476D01*
X113974571Y-88368095D01*
X114022190Y-88463333D01*
X114022190Y-88844285D01*
X114498380Y-87320476D02*
X114498380Y-87891904D01*
X114498380Y-87606190D02*
X113498380Y-87606190D01*
X113641238Y-87701428D01*
X113736476Y-87796666D01*
X113784095Y-87891904D01*
X113498380Y-86415714D02*
X113498380Y-86891904D01*
X113974571Y-86939523D01*
X113926952Y-86891904D01*
X113879333Y-86796666D01*
X113879333Y-86558571D01*
X113926952Y-86463333D01*
X113974571Y-86415714D01*
X114069809Y-86368095D01*
X114307904Y-86368095D01*
X114403142Y-86415714D01*
X114450761Y-86463333D01*
X114498380Y-86558571D01*
X114498380Y-86796666D01*
X114450761Y-86891904D01*
X114403142Y-86939523D01*
X79478666Y-49236380D02*
X79478666Y-49950666D01*
X79431047Y-50093523D01*
X79335809Y-50188761D01*
X79192952Y-50236380D01*
X79097714Y-50236380D01*
X80383428Y-49569714D02*
X80383428Y-50236380D01*
X80145333Y-49188761D02*
X79907238Y-49903047D01*
X80526285Y-49903047D01*
X69072166Y-49236380D02*
X69072166Y-49950666D01*
X69024547Y-50093523D01*
X68929309Y-50188761D01*
X68786452Y-50236380D01*
X68691214Y-50236380D01*
X69976928Y-49236380D02*
X69786452Y-49236380D01*
X69691214Y-49284000D01*
X69643595Y-49331619D01*
X69548357Y-49474476D01*
X69500738Y-49664952D01*
X69500738Y-50045904D01*
X69548357Y-50141142D01*
X69595976Y-50188761D01*
X69691214Y-50236380D01*
X69881690Y-50236380D01*
X69976928Y-50188761D01*
X70024547Y-50141142D01*
X70072166Y-50045904D01*
X70072166Y-49807809D01*
X70024547Y-49712571D01*
X69976928Y-49664952D01*
X69881690Y-49617333D01*
X69691214Y-49617333D01*
X69595976Y-49664952D01*
X69548357Y-49712571D01*
X69500738Y-49807809D01*
X63539642Y-96908857D02*
X63587261Y-96956476D01*
X63634880Y-97099333D01*
X63634880Y-97194571D01*
X63587261Y-97337428D01*
X63492023Y-97432666D01*
X63396785Y-97480285D01*
X63206309Y-97527904D01*
X63063452Y-97527904D01*
X62872976Y-97480285D01*
X62777738Y-97432666D01*
X62682500Y-97337428D01*
X62634880Y-97194571D01*
X62634880Y-97099333D01*
X62682500Y-96956476D01*
X62730119Y-96908857D01*
X62634880Y-96575523D02*
X62634880Y-95908857D01*
X63634880Y-96337428D01*
X62634880Y-95051714D02*
X62634880Y-95527904D01*
X63111071Y-95575523D01*
X63063452Y-95527904D01*
X63015833Y-95432666D01*
X63015833Y-95194571D01*
X63063452Y-95099333D01*
X63111071Y-95051714D01*
X63206309Y-95004095D01*
X63444404Y-95004095D01*
X63539642Y-95051714D01*
X63587261Y-95099333D01*
X63634880Y-95194571D01*
X63634880Y-95432666D01*
X63587261Y-95527904D01*
X63539642Y-95575523D01*
X63476142Y-110815357D02*
X63523761Y-110862976D01*
X63571380Y-111005833D01*
X63571380Y-111101071D01*
X63523761Y-111243928D01*
X63428523Y-111339166D01*
X63333285Y-111386785D01*
X63142809Y-111434404D01*
X62999952Y-111434404D01*
X62809476Y-111386785D01*
X62714238Y-111339166D01*
X62619000Y-111243928D01*
X62571380Y-111101071D01*
X62571380Y-111005833D01*
X62619000Y-110862976D01*
X62666619Y-110815357D01*
X62571380Y-110482023D02*
X62571380Y-109815357D01*
X63571380Y-110243928D01*
X62571380Y-109005833D02*
X62571380Y-109196309D01*
X62619000Y-109291547D01*
X62666619Y-109339166D01*
X62809476Y-109434404D01*
X62999952Y-109482023D01*
X63380904Y-109482023D01*
X63476142Y-109434404D01*
X63523761Y-109386785D01*
X63571380Y-109291547D01*
X63571380Y-109101071D01*
X63523761Y-109005833D01*
X63476142Y-108958214D01*
X63380904Y-108910595D01*
X63142809Y-108910595D01*
X63047571Y-108958214D01*
X62999952Y-109005833D01*
X62952333Y-109101071D01*
X62952333Y-109291547D01*
X62999952Y-109386785D01*
X63047571Y-109434404D01*
X63142809Y-109482023D01*
X88733380Y-103739795D02*
X89542904Y-103739795D01*
X89638142Y-103692176D01*
X89685761Y-103644557D01*
X89733380Y-103549319D01*
X89733380Y-103358842D01*
X89685761Y-103263604D01*
X89638142Y-103215985D01*
X89542904Y-103168366D01*
X88733380Y-103168366D01*
X89733380Y-102168366D02*
X89733380Y-102739795D01*
X89733380Y-102454080D02*
X88733380Y-102454080D01*
X88876238Y-102549319D01*
X88971476Y-102644557D01*
X89019095Y-102739795D01*
X89161952Y-101596938D02*
X89114333Y-101692176D01*
X89066714Y-101739795D01*
X88971476Y-101787414D01*
X88923857Y-101787414D01*
X88828619Y-101739795D01*
X88781000Y-101692176D01*
X88733380Y-101596938D01*
X88733380Y-101406461D01*
X88781000Y-101311223D01*
X88828619Y-101263604D01*
X88923857Y-101215985D01*
X88971476Y-101215985D01*
X89066714Y-101263604D01*
X89114333Y-101311223D01*
X89161952Y-101406461D01*
X89161952Y-101596938D01*
X89209571Y-101692176D01*
X89257190Y-101739795D01*
X89352428Y-101787414D01*
X89542904Y-101787414D01*
X89638142Y-101739795D01*
X89685761Y-101692176D01*
X89733380Y-101596938D01*
X89733380Y-101406461D01*
X89685761Y-101311223D01*
X89638142Y-101263604D01*
X89542904Y-101215985D01*
X89352428Y-101215985D01*
X89257190Y-101263604D01*
X89209571Y-101311223D01*
X89161952Y-101406461D01*
X97067642Y-113037857D02*
X97115261Y-113085476D01*
X97162880Y-113228333D01*
X97162880Y-113323571D01*
X97115261Y-113466428D01*
X97020023Y-113561666D01*
X96924785Y-113609285D01*
X96734309Y-113656904D01*
X96591452Y-113656904D01*
X96400976Y-113609285D01*
X96305738Y-113561666D01*
X96210500Y-113466428D01*
X96162880Y-113323571D01*
X96162880Y-113228333D01*
X96210500Y-113085476D01*
X96258119Y-113037857D01*
X96162880Y-112180714D02*
X96162880Y-112371190D01*
X96210500Y-112466428D01*
X96258119Y-112514047D01*
X96400976Y-112609285D01*
X96591452Y-112656904D01*
X96972404Y-112656904D01*
X97067642Y-112609285D01*
X97115261Y-112561666D01*
X97162880Y-112466428D01*
X97162880Y-112275952D01*
X97115261Y-112180714D01*
X97067642Y-112133095D01*
X96972404Y-112085476D01*
X96734309Y-112085476D01*
X96639071Y-112133095D01*
X96591452Y-112180714D01*
X96543833Y-112275952D01*
X96543833Y-112466428D01*
X96591452Y-112561666D01*
X96639071Y-112609285D01*
X96734309Y-112656904D01*
X97162880Y-111133095D02*
X97162880Y-111704523D01*
X97162880Y-111418809D02*
X96162880Y-111418809D01*
X96305738Y-111514047D01*
X96400976Y-111609285D01*
X96448595Y-111704523D01*
X97131142Y-116466857D02*
X97178761Y-116514476D01*
X97226380Y-116657333D01*
X97226380Y-116752571D01*
X97178761Y-116895428D01*
X97083523Y-116990666D01*
X96988285Y-117038285D01*
X96797809Y-117085904D01*
X96654952Y-117085904D01*
X96464476Y-117038285D01*
X96369238Y-116990666D01*
X96274000Y-116895428D01*
X96226380Y-116752571D01*
X96226380Y-116657333D01*
X96274000Y-116514476D01*
X96321619Y-116466857D01*
X96226380Y-115609714D02*
X96226380Y-115800190D01*
X96274000Y-115895428D01*
X96321619Y-115943047D01*
X96464476Y-116038285D01*
X96654952Y-116085904D01*
X97035904Y-116085904D01*
X97131142Y-116038285D01*
X97178761Y-115990666D01*
X97226380Y-115895428D01*
X97226380Y-115704952D01*
X97178761Y-115609714D01*
X97131142Y-115562095D01*
X97035904Y-115514476D01*
X96797809Y-115514476D01*
X96702571Y-115562095D01*
X96654952Y-115609714D01*
X96607333Y-115704952D01*
X96607333Y-115895428D01*
X96654952Y-115990666D01*
X96702571Y-116038285D01*
X96797809Y-116085904D01*
X96226380Y-115181142D02*
X96226380Y-114562095D01*
X96607333Y-114895428D01*
X96607333Y-114752571D01*
X96654952Y-114657333D01*
X96702571Y-114609714D01*
X96797809Y-114562095D01*
X97035904Y-114562095D01*
X97131142Y-114609714D01*
X97178761Y-114657333D01*
X97226380Y-114752571D01*
X97226380Y-115038285D01*
X97178761Y-115133523D01*
X97131142Y-115181142D01*
X90971642Y-113228357D02*
X91019261Y-113275976D01*
X91066880Y-113418833D01*
X91066880Y-113514071D01*
X91019261Y-113656928D01*
X90924023Y-113752166D01*
X90828785Y-113799785D01*
X90638309Y-113847404D01*
X90495452Y-113847404D01*
X90304976Y-113799785D01*
X90209738Y-113752166D01*
X90114500Y-113656928D01*
X90066880Y-113514071D01*
X90066880Y-113418833D01*
X90114500Y-113275976D01*
X90162119Y-113228357D01*
X90066880Y-112895023D02*
X90066880Y-112228357D01*
X91066880Y-112656928D01*
X90066880Y-111656928D02*
X90066880Y-111561690D01*
X90114500Y-111466452D01*
X90162119Y-111418833D01*
X90257357Y-111371214D01*
X90447833Y-111323595D01*
X90685928Y-111323595D01*
X90876404Y-111371214D01*
X90971642Y-111418833D01*
X91019261Y-111466452D01*
X91066880Y-111561690D01*
X91066880Y-111656928D01*
X91019261Y-111752166D01*
X90971642Y-111799785D01*
X90876404Y-111847404D01*
X90685928Y-111895023D01*
X90447833Y-111895023D01*
X90257357Y-111847404D01*
X90162119Y-111799785D01*
X90114500Y-111752166D01*
X90066880Y-111656928D01*
X80176642Y-116466857D02*
X80224261Y-116514476D01*
X80271880Y-116657333D01*
X80271880Y-116752571D01*
X80224261Y-116895428D01*
X80129023Y-116990666D01*
X80033785Y-117038285D01*
X79843309Y-117085904D01*
X79700452Y-117085904D01*
X79509976Y-117038285D01*
X79414738Y-116990666D01*
X79319500Y-116895428D01*
X79271880Y-116752571D01*
X79271880Y-116657333D01*
X79319500Y-116514476D01*
X79367119Y-116466857D01*
X79271880Y-116133523D02*
X79271880Y-115466857D01*
X80271880Y-115895428D01*
X80271880Y-114562095D02*
X80271880Y-115133523D01*
X80271880Y-114847809D02*
X79271880Y-114847809D01*
X79414738Y-114943047D01*
X79509976Y-115038285D01*
X79557595Y-115133523D01*
X80176642Y-113228357D02*
X80224261Y-113275976D01*
X80271880Y-113418833D01*
X80271880Y-113514071D01*
X80224261Y-113656928D01*
X80129023Y-113752166D01*
X80033785Y-113799785D01*
X79843309Y-113847404D01*
X79700452Y-113847404D01*
X79509976Y-113799785D01*
X79414738Y-113752166D01*
X79319500Y-113656928D01*
X79271880Y-113514071D01*
X79271880Y-113418833D01*
X79319500Y-113275976D01*
X79367119Y-113228357D01*
X79271880Y-112895023D02*
X79271880Y-112228357D01*
X80271880Y-112656928D01*
X79367119Y-111895023D02*
X79319500Y-111847404D01*
X79271880Y-111752166D01*
X79271880Y-111514071D01*
X79319500Y-111418833D01*
X79367119Y-111371214D01*
X79462357Y-111323595D01*
X79557595Y-111323595D01*
X79700452Y-111371214D01*
X80271880Y-111942642D01*
X80271880Y-111323595D01*
X91035142Y-116466857D02*
X91082761Y-116514476D01*
X91130380Y-116657333D01*
X91130380Y-116752571D01*
X91082761Y-116895428D01*
X90987523Y-116990666D01*
X90892285Y-117038285D01*
X90701809Y-117085904D01*
X90558952Y-117085904D01*
X90368476Y-117038285D01*
X90273238Y-116990666D01*
X90178000Y-116895428D01*
X90130380Y-116752571D01*
X90130380Y-116657333D01*
X90178000Y-116514476D01*
X90225619Y-116466857D01*
X90130380Y-116133523D02*
X90130380Y-115466857D01*
X91130380Y-115895428D01*
X90130380Y-115181142D02*
X90130380Y-114562095D01*
X90511333Y-114895428D01*
X90511333Y-114752571D01*
X90558952Y-114657333D01*
X90606571Y-114609714D01*
X90701809Y-114562095D01*
X90939904Y-114562095D01*
X91035142Y-114609714D01*
X91082761Y-114657333D01*
X91130380Y-114752571D01*
X91130380Y-115038285D01*
X91082761Y-115133523D01*
X91035142Y-115181142D01*
X79303642Y-97099380D02*
X78970309Y-96623190D01*
X78732214Y-97099380D02*
X78732214Y-96099380D01*
X79113166Y-96099380D01*
X79208404Y-96147000D01*
X79256023Y-96194619D01*
X79303642Y-96289857D01*
X79303642Y-96432714D01*
X79256023Y-96527952D01*
X79208404Y-96575571D01*
X79113166Y-96623190D01*
X78732214Y-96623190D01*
X80160785Y-96432714D02*
X80160785Y-97099380D01*
X79922690Y-96051761D02*
X79684595Y-96766047D01*
X80303642Y-96766047D01*
X80875071Y-96099380D02*
X80970309Y-96099380D01*
X81065547Y-96147000D01*
X81113166Y-96194619D01*
X81160785Y-96289857D01*
X81208404Y-96480333D01*
X81208404Y-96718428D01*
X81160785Y-96908904D01*
X81113166Y-97004142D01*
X81065547Y-97051761D01*
X80970309Y-97099380D01*
X80875071Y-97099380D01*
X80779833Y-97051761D01*
X80732214Y-97004142D01*
X80684595Y-96908904D01*
X80636976Y-96718428D01*
X80636976Y-96480333D01*
X80684595Y-96289857D01*
X80732214Y-96194619D01*
X80779833Y-96147000D01*
X80875071Y-96099380D01*
X79303642Y-95892880D02*
X78970309Y-95416690D01*
X78732214Y-95892880D02*
X78732214Y-94892880D01*
X79113166Y-94892880D01*
X79208404Y-94940500D01*
X79256023Y-94988119D01*
X79303642Y-95083357D01*
X79303642Y-95226214D01*
X79256023Y-95321452D01*
X79208404Y-95369071D01*
X79113166Y-95416690D01*
X78732214Y-95416690D01*
X80160785Y-95226214D02*
X80160785Y-95892880D01*
X79922690Y-94845261D02*
X79684595Y-95559547D01*
X80303642Y-95559547D01*
X81208404Y-95892880D02*
X80636976Y-95892880D01*
X80922690Y-95892880D02*
X80922690Y-94892880D01*
X80827452Y-95035738D01*
X80732214Y-95130976D01*
X80636976Y-95178595D01*
X112148880Y-82494357D02*
X111672690Y-82827690D01*
X112148880Y-83065785D02*
X111148880Y-83065785D01*
X111148880Y-82684833D01*
X111196500Y-82589595D01*
X111244119Y-82541976D01*
X111339357Y-82494357D01*
X111482214Y-82494357D01*
X111577452Y-82541976D01*
X111625071Y-82589595D01*
X111672690Y-82684833D01*
X111672690Y-83065785D01*
X111482214Y-81637214D02*
X112148880Y-81637214D01*
X111101261Y-81875309D02*
X111815547Y-82113404D01*
X111815547Y-81494357D01*
X111148880Y-80637214D02*
X111148880Y-81113404D01*
X111625071Y-81161023D01*
X111577452Y-81113404D01*
X111529833Y-81018166D01*
X111529833Y-80780071D01*
X111577452Y-80684833D01*
X111625071Y-80637214D01*
X111720309Y-80589595D01*
X111958404Y-80589595D01*
X112053642Y-80637214D01*
X112101261Y-80684833D01*
X112148880Y-80780071D01*
X112148880Y-81018166D01*
X112101261Y-81113404D01*
X112053642Y-81161023D01*
X113164880Y-88272857D02*
X112688690Y-88606190D01*
X113164880Y-88844285D02*
X112164880Y-88844285D01*
X112164880Y-88463333D01*
X112212500Y-88368095D01*
X112260119Y-88320476D01*
X112355357Y-88272857D01*
X112498214Y-88272857D01*
X112593452Y-88320476D01*
X112641071Y-88368095D01*
X112688690Y-88463333D01*
X112688690Y-88844285D01*
X112498214Y-87415714D02*
X113164880Y-87415714D01*
X112117261Y-87653809D02*
X112831547Y-87891904D01*
X112831547Y-87272857D01*
X112164880Y-86463333D02*
X112164880Y-86653809D01*
X112212500Y-86749047D01*
X112260119Y-86796666D01*
X112402976Y-86891904D01*
X112593452Y-86939523D01*
X112974404Y-86939523D01*
X113069642Y-86891904D01*
X113117261Y-86844285D01*
X113164880Y-86749047D01*
X113164880Y-86558571D01*
X113117261Y-86463333D01*
X113069642Y-86415714D01*
X112974404Y-86368095D01*
X112736309Y-86368095D01*
X112641071Y-86415714D01*
X112593452Y-86463333D01*
X112545833Y-86558571D01*
X112545833Y-86749047D01*
X112593452Y-86844285D01*
X112641071Y-86891904D01*
X112736309Y-86939523D01*
X87336380Y-88423595D02*
X88145904Y-88423595D01*
X88241142Y-88375976D01*
X88288761Y-88328357D01*
X88336380Y-88233119D01*
X88336380Y-88042642D01*
X88288761Y-87947404D01*
X88241142Y-87899785D01*
X88145904Y-87852166D01*
X87336380Y-87852166D01*
X88336380Y-86852166D02*
X88336380Y-87423595D01*
X88336380Y-87137880D02*
X87336380Y-87137880D01*
X87479238Y-87233119D01*
X87574476Y-87328357D01*
X87622095Y-87423595D01*
X87336380Y-85947404D02*
X87336380Y-86423595D01*
X87812571Y-86471214D01*
X87764952Y-86423595D01*
X87717333Y-86328357D01*
X87717333Y-86090261D01*
X87764952Y-85995023D01*
X87812571Y-85947404D01*
X87907809Y-85899785D01*
X88145904Y-85899785D01*
X88241142Y-85947404D01*
X88288761Y-85995023D01*
X88336380Y-86090261D01*
X88336380Y-86328357D01*
X88288761Y-86423595D01*
X88241142Y-86471214D01*
X118356142Y-58150642D02*
X118308523Y-58198261D01*
X118165666Y-58245880D01*
X118070428Y-58245880D01*
X117927571Y-58198261D01*
X117832333Y-58103023D01*
X117784714Y-58007785D01*
X117737095Y-57817309D01*
X117737095Y-57674452D01*
X117784714Y-57483976D01*
X117832333Y-57388738D01*
X117927571Y-57293500D01*
X118070428Y-57245880D01*
X118165666Y-57245880D01*
X118308523Y-57293500D01*
X118356142Y-57341119D01*
X119213285Y-57245880D02*
X119022809Y-57245880D01*
X118927571Y-57293500D01*
X118879952Y-57341119D01*
X118784714Y-57483976D01*
X118737095Y-57674452D01*
X118737095Y-58055404D01*
X118784714Y-58150642D01*
X118832333Y-58198261D01*
X118927571Y-58245880D01*
X119118047Y-58245880D01*
X119213285Y-58198261D01*
X119260904Y-58150642D01*
X119308523Y-58055404D01*
X119308523Y-57817309D01*
X119260904Y-57722071D01*
X119213285Y-57674452D01*
X119118047Y-57626833D01*
X118927571Y-57626833D01*
X118832333Y-57674452D01*
X118784714Y-57722071D01*
X118737095Y-57817309D01*
X119689476Y-57341119D02*
X119737095Y-57293500D01*
X119832333Y-57245880D01*
X120070428Y-57245880D01*
X120165666Y-57293500D01*
X120213285Y-57341119D01*
X120260904Y-57436357D01*
X120260904Y-57531595D01*
X120213285Y-57674452D01*
X119641857Y-58245880D01*
X120260904Y-58245880D01*
X114355642Y-67603642D02*
X114308023Y-67651261D01*
X114165166Y-67698880D01*
X114069928Y-67698880D01*
X113927071Y-67651261D01*
X113831833Y-67556023D01*
X113784214Y-67460785D01*
X113736595Y-67270309D01*
X113736595Y-67127452D01*
X113784214Y-66936976D01*
X113831833Y-66841738D01*
X113927071Y-66746500D01*
X114069928Y-66698880D01*
X114165166Y-66698880D01*
X114308023Y-66746500D01*
X114355642Y-66794119D01*
X115212785Y-66698880D02*
X115022309Y-66698880D01*
X114927071Y-66746500D01*
X114879452Y-66794119D01*
X114784214Y-66936976D01*
X114736595Y-67127452D01*
X114736595Y-67508404D01*
X114784214Y-67603642D01*
X114831833Y-67651261D01*
X114927071Y-67698880D01*
X115117547Y-67698880D01*
X115212785Y-67651261D01*
X115260404Y-67603642D01*
X115308023Y-67508404D01*
X115308023Y-67270309D01*
X115260404Y-67175071D01*
X115212785Y-67127452D01*
X115117547Y-67079833D01*
X114927071Y-67079833D01*
X114831833Y-67127452D01*
X114784214Y-67175071D01*
X114736595Y-67270309D01*
X116165166Y-67032214D02*
X116165166Y-67698880D01*
X115927071Y-66651261D02*
X115688976Y-67365547D01*
X116308023Y-67365547D01*
M02*
