G04 #@! TF.GenerationSoftware,KiCad,Pcbnew,(5.1.9)-1*
G04 #@! TF.CreationDate,2021-07-06T15:31:01+07:00*
G04 #@! TF.ProjectId,main2,6d61696e-322e-46b6-9963-61645f706362,rev?*
G04 #@! TF.SameCoordinates,Original*
G04 #@! TF.FileFunction,Legend,Bot*
G04 #@! TF.FilePolarity,Positive*
%FSLAX46Y46*%
G04 Gerber Fmt 4.6, Leading zero omitted, Abs format (unit mm)*
G04 Created by KiCad (PCBNEW (5.1.9)-1) date 2021-07-06 15:31:01*
%MOMM*%
%LPD*%
G01*
G04 APERTURE LIST*
%ADD10C,0.500000*%
%ADD11C,0.300000*%
%ADD12C,0.200000*%
%ADD13C,0.120000*%
%ADD14C,0.010000*%
%ADD15C,0.150000*%
G04 APERTURE END LIST*
D10*
X114582857Y-79779642D02*
X114582857Y-76779642D01*
X113868571Y-76779642D01*
X113440000Y-76922500D01*
X113154285Y-77208214D01*
X113011428Y-77493928D01*
X112868571Y-78065357D01*
X112868571Y-78493928D01*
X113011428Y-79065357D01*
X113154285Y-79351071D01*
X113440000Y-79636785D01*
X113868571Y-79779642D01*
X114582857Y-79779642D01*
X111725714Y-79636785D02*
X111297142Y-79779642D01*
X110582857Y-79779642D01*
X110297142Y-79636785D01*
X110154285Y-79493928D01*
X110011428Y-79208214D01*
X110011428Y-78922500D01*
X110154285Y-78636785D01*
X110297142Y-78493928D01*
X110582857Y-78351071D01*
X111154285Y-78208214D01*
X111440000Y-78065357D01*
X111582857Y-77922500D01*
X111725714Y-77636785D01*
X111725714Y-77351071D01*
X111582857Y-77065357D01*
X111440000Y-76922500D01*
X111154285Y-76779642D01*
X110440000Y-76779642D01*
X110011428Y-76922500D01*
X108725714Y-79779642D02*
X108725714Y-76779642D01*
X107582857Y-76779642D01*
X107297142Y-76922500D01*
X107154285Y-77065357D01*
X107011428Y-77351071D01*
X107011428Y-77779642D01*
X107154285Y-78065357D01*
X107297142Y-78208214D01*
X107582857Y-78351071D01*
X108725714Y-78351071D01*
X103582857Y-78922500D02*
X102154285Y-78922500D01*
X103868571Y-79779642D02*
X102868571Y-76779642D01*
X101868571Y-79779642D01*
X99582857Y-77779642D02*
X99582857Y-79779642D01*
X100868571Y-77779642D02*
X100868571Y-79351071D01*
X100725714Y-79636785D01*
X100440000Y-79779642D01*
X100011428Y-79779642D01*
X99725714Y-79636785D01*
X99582857Y-79493928D01*
X96868571Y-79779642D02*
X96868571Y-76779642D01*
X96868571Y-79636785D02*
X97154285Y-79779642D01*
X97725714Y-79779642D01*
X98011428Y-79636785D01*
X98154285Y-79493928D01*
X98297142Y-79208214D01*
X98297142Y-78351071D01*
X98154285Y-78065357D01*
X98011428Y-77922500D01*
X97725714Y-77779642D01*
X97154285Y-77779642D01*
X96868571Y-77922500D01*
X95440000Y-79779642D02*
X95440000Y-77779642D01*
X95440000Y-76779642D02*
X95582857Y-76922500D01*
X95440000Y-77065357D01*
X95297142Y-76922500D01*
X95440000Y-76779642D01*
X95440000Y-77065357D01*
X93582857Y-79779642D02*
X93868571Y-79636785D01*
X94011428Y-79493928D01*
X94154285Y-79208214D01*
X94154285Y-78351071D01*
X94011428Y-78065357D01*
X93868571Y-77922500D01*
X93582857Y-77779642D01*
X93154285Y-77779642D01*
X92868571Y-77922500D01*
X92725714Y-78065357D01*
X92582857Y-78351071D01*
X92582857Y-79208214D01*
X92725714Y-79493928D01*
X92868571Y-79636785D01*
X93154285Y-79779642D01*
X93582857Y-79779642D01*
X89011428Y-79779642D02*
X89011428Y-76779642D01*
X87868571Y-76779642D01*
X87582857Y-76922500D01*
X87440000Y-77065357D01*
X87297142Y-77351071D01*
X87297142Y-77779642D01*
X87440000Y-78065357D01*
X87582857Y-78208214D01*
X87868571Y-78351071D01*
X89011428Y-78351071D01*
X86011428Y-79779642D02*
X86011428Y-77779642D01*
X86011428Y-78351071D02*
X85868571Y-78065357D01*
X85725714Y-77922500D01*
X85440000Y-77779642D01*
X85154285Y-77779642D01*
X83725714Y-79779642D02*
X84011428Y-79636785D01*
X84154285Y-79493928D01*
X84297142Y-79208214D01*
X84297142Y-78351071D01*
X84154285Y-78065357D01*
X84011428Y-77922500D01*
X83725714Y-77779642D01*
X83297142Y-77779642D01*
X83011428Y-77922500D01*
X82868571Y-78065357D01*
X82725714Y-78351071D01*
X82725714Y-79208214D01*
X82868571Y-79493928D01*
X83011428Y-79636785D01*
X83297142Y-79779642D01*
X83725714Y-79779642D01*
X80154285Y-79636785D02*
X80440000Y-79779642D01*
X81011428Y-79779642D01*
X81297142Y-79636785D01*
X81440000Y-79493928D01*
X81582857Y-79208214D01*
X81582857Y-78351071D01*
X81440000Y-78065357D01*
X81297142Y-77922500D01*
X81011428Y-77779642D01*
X80440000Y-77779642D01*
X80154285Y-77922500D01*
X77725714Y-79636785D02*
X78011428Y-79779642D01*
X78582857Y-79779642D01*
X78868571Y-79636785D01*
X79011428Y-79351071D01*
X79011428Y-78208214D01*
X78868571Y-77922500D01*
X78582857Y-77779642D01*
X78011428Y-77779642D01*
X77725714Y-77922500D01*
X77582857Y-78208214D01*
X77582857Y-78493928D01*
X79011428Y-78779642D01*
X76440000Y-79636785D02*
X76154285Y-79779642D01*
X75582857Y-79779642D01*
X75297142Y-79636785D01*
X75154285Y-79351071D01*
X75154285Y-79208214D01*
X75297142Y-78922500D01*
X75582857Y-78779642D01*
X76011428Y-78779642D01*
X76297142Y-78636785D01*
X76440000Y-78351071D01*
X76440000Y-78208214D01*
X76297142Y-77922500D01*
X76011428Y-77779642D01*
X75582857Y-77779642D01*
X75297142Y-77922500D01*
X74011428Y-79636785D02*
X73725714Y-79779642D01*
X73154285Y-79779642D01*
X72868571Y-79636785D01*
X72725714Y-79351071D01*
X72725714Y-79208214D01*
X72868571Y-78922500D01*
X73154285Y-78779642D01*
X73582857Y-78779642D01*
X73868571Y-78636785D01*
X74011428Y-78351071D01*
X74011428Y-78208214D01*
X73868571Y-77922500D01*
X73582857Y-77779642D01*
X73154285Y-77779642D01*
X72868571Y-77922500D01*
X71011428Y-79779642D02*
X71297142Y-79636785D01*
X71440000Y-79493928D01*
X71582857Y-79208214D01*
X71582857Y-78351071D01*
X71440000Y-78065357D01*
X71297142Y-77922500D01*
X71011428Y-77779642D01*
X70582857Y-77779642D01*
X70297142Y-77922500D01*
X70154285Y-78065357D01*
X70011428Y-78351071D01*
X70011428Y-79208214D01*
X70154285Y-79493928D01*
X70297142Y-79636785D01*
X70582857Y-79779642D01*
X71011428Y-79779642D01*
X68725714Y-79779642D02*
X68725714Y-77779642D01*
X68725714Y-78351071D02*
X68582857Y-78065357D01*
X68440000Y-77922500D01*
X68154285Y-77779642D01*
X67868571Y-77779642D01*
D11*
X113710666Y-82819761D02*
X113710666Y-80819761D01*
X113710666Y-82724523D02*
X113901142Y-82819761D01*
X114282095Y-82819761D01*
X114472571Y-82724523D01*
X114567809Y-82629285D01*
X114663047Y-82438809D01*
X114663047Y-81867380D01*
X114567809Y-81676904D01*
X114472571Y-81581666D01*
X114282095Y-81486428D01*
X113901142Y-81486428D01*
X113710666Y-81581666D01*
X111996380Y-82724523D02*
X112186857Y-82819761D01*
X112567809Y-82819761D01*
X112758285Y-82724523D01*
X112853523Y-82534047D01*
X112853523Y-81772142D01*
X112758285Y-81581666D01*
X112567809Y-81486428D01*
X112186857Y-81486428D01*
X111996380Y-81581666D01*
X111901142Y-81772142D01*
X111901142Y-81962619D01*
X112853523Y-82153095D01*
X111139238Y-82724523D02*
X110948761Y-82819761D01*
X110567809Y-82819761D01*
X110377333Y-82724523D01*
X110282095Y-82534047D01*
X110282095Y-82438809D01*
X110377333Y-82248333D01*
X110567809Y-82153095D01*
X110853523Y-82153095D01*
X111044000Y-82057857D01*
X111139238Y-81867380D01*
X111139238Y-81772142D01*
X111044000Y-81581666D01*
X110853523Y-81486428D01*
X110567809Y-81486428D01*
X110377333Y-81581666D01*
X109424952Y-82819761D02*
X109424952Y-81486428D01*
X109424952Y-80819761D02*
X109520190Y-80915000D01*
X109424952Y-81010238D01*
X109329714Y-80915000D01*
X109424952Y-80819761D01*
X109424952Y-81010238D01*
X107615428Y-81486428D02*
X107615428Y-83105476D01*
X107710666Y-83295952D01*
X107805904Y-83391190D01*
X107996380Y-83486428D01*
X108282095Y-83486428D01*
X108472571Y-83391190D01*
X107615428Y-82724523D02*
X107805904Y-82819761D01*
X108186857Y-82819761D01*
X108377333Y-82724523D01*
X108472571Y-82629285D01*
X108567809Y-82438809D01*
X108567809Y-81867380D01*
X108472571Y-81676904D01*
X108377333Y-81581666D01*
X108186857Y-81486428D01*
X107805904Y-81486428D01*
X107615428Y-81581666D01*
X106663047Y-81486428D02*
X106663047Y-82819761D01*
X106663047Y-81676904D02*
X106567809Y-81581666D01*
X106377333Y-81486428D01*
X106091619Y-81486428D01*
X105901142Y-81581666D01*
X105805904Y-81772142D01*
X105805904Y-82819761D01*
X104091619Y-82724523D02*
X104282095Y-82819761D01*
X104663047Y-82819761D01*
X104853523Y-82724523D01*
X104948761Y-82534047D01*
X104948761Y-81772142D01*
X104853523Y-81581666D01*
X104663047Y-81486428D01*
X104282095Y-81486428D01*
X104091619Y-81581666D01*
X103996380Y-81772142D01*
X103996380Y-81962619D01*
X104948761Y-82153095D01*
X102282095Y-82819761D02*
X102282095Y-80819761D01*
X102282095Y-82724523D02*
X102472571Y-82819761D01*
X102853523Y-82819761D01*
X103044000Y-82724523D01*
X103139238Y-82629285D01*
X103234476Y-82438809D01*
X103234476Y-81867380D01*
X103139238Y-81676904D01*
X103044000Y-81581666D01*
X102853523Y-81486428D01*
X102472571Y-81486428D01*
X102282095Y-81581666D01*
X99805904Y-82819761D02*
X99805904Y-80819761D01*
X99805904Y-81581666D02*
X99615428Y-81486428D01*
X99234476Y-81486428D01*
X99044000Y-81581666D01*
X98948761Y-81676904D01*
X98853523Y-81867380D01*
X98853523Y-82438809D01*
X98948761Y-82629285D01*
X99044000Y-82724523D01*
X99234476Y-82819761D01*
X99615428Y-82819761D01*
X99805904Y-82724523D01*
X98186857Y-81486428D02*
X97710666Y-82819761D01*
X97234476Y-81486428D02*
X97710666Y-82819761D01*
X97901142Y-83295952D01*
X97996380Y-83391190D01*
X98186857Y-83486428D01*
X94948761Y-82819761D02*
X94948761Y-81486428D01*
X94948761Y-80819761D02*
X95044000Y-80915000D01*
X94948761Y-81010238D01*
X94853523Y-80915000D01*
X94948761Y-80819761D01*
X94948761Y-81010238D01*
X93996380Y-81486428D02*
X93996380Y-82819761D01*
X93996380Y-81676904D02*
X93901142Y-81581666D01*
X93710666Y-81486428D01*
X93424952Y-81486428D01*
X93234476Y-81581666D01*
X93139238Y-81772142D01*
X93139238Y-82819761D01*
X92282095Y-82724523D02*
X92091619Y-82819761D01*
X91710666Y-82819761D01*
X91520190Y-82724523D01*
X91424952Y-82534047D01*
X91424952Y-82438809D01*
X91520190Y-82248333D01*
X91710666Y-82153095D01*
X91996380Y-82153095D01*
X92186857Y-82057857D01*
X92282095Y-81867380D01*
X92282095Y-81772142D01*
X92186857Y-81581666D01*
X91996380Y-81486428D01*
X91710666Y-81486428D01*
X91520190Y-81581666D01*
X90853523Y-81486428D02*
X90091619Y-81486428D01*
X90567809Y-80819761D02*
X90567809Y-82534047D01*
X90472571Y-82724523D01*
X90282095Y-82819761D01*
X90091619Y-82819761D01*
X88567809Y-82819761D02*
X88567809Y-81772142D01*
X88663047Y-81581666D01*
X88853523Y-81486428D01*
X89234476Y-81486428D01*
X89424952Y-81581666D01*
X88567809Y-82724523D02*
X88758285Y-82819761D01*
X89234476Y-82819761D01*
X89424952Y-82724523D01*
X89520190Y-82534047D01*
X89520190Y-82343571D01*
X89424952Y-82153095D01*
X89234476Y-82057857D01*
X88758285Y-82057857D01*
X88567809Y-81962619D01*
X87329714Y-82819761D02*
X87520190Y-82724523D01*
X87615428Y-82534047D01*
X87615428Y-80819761D01*
X85710666Y-82819761D02*
X85710666Y-81772142D01*
X85805904Y-81581666D01*
X85996380Y-81486428D01*
X86377333Y-81486428D01*
X86567809Y-81581666D01*
X85710666Y-82724523D02*
X85901142Y-82819761D01*
X86377333Y-82819761D01*
X86567809Y-82724523D01*
X86663047Y-82534047D01*
X86663047Y-82343571D01*
X86567809Y-82153095D01*
X86377333Y-82057857D01*
X85901142Y-82057857D01*
X85710666Y-81962619D01*
X85044000Y-81486428D02*
X84282095Y-81486428D01*
X84758285Y-80819761D02*
X84758285Y-82534047D01*
X84663047Y-82724523D01*
X84472571Y-82819761D01*
X84282095Y-82819761D01*
X83329714Y-82819761D02*
X83520190Y-82724523D01*
X83615428Y-82629285D01*
X83710666Y-82438809D01*
X83710666Y-81867380D01*
X83615428Y-81676904D01*
X83520190Y-81581666D01*
X83329714Y-81486428D01*
X83044000Y-81486428D01*
X82853523Y-81581666D01*
X82758285Y-81676904D01*
X82663047Y-81867380D01*
X82663047Y-82438809D01*
X82758285Y-82629285D01*
X82853523Y-82724523D01*
X83044000Y-82819761D01*
X83329714Y-82819761D01*
X81805904Y-82819761D02*
X81805904Y-81486428D01*
X81805904Y-81867380D02*
X81710666Y-81676904D01*
X81615428Y-81581666D01*
X81424952Y-81486428D01*
X81234476Y-81486428D01*
D12*
X114528428Y-85514571D02*
X114528428Y-84014571D01*
X113885571Y-85514571D02*
X113885571Y-84728857D01*
X113957000Y-84586000D01*
X114099857Y-84514571D01*
X114314142Y-84514571D01*
X114457000Y-84586000D01*
X114528428Y-84657428D01*
X113385571Y-84514571D02*
X112814142Y-84514571D01*
X113171285Y-84014571D02*
X113171285Y-85300285D01*
X113099857Y-85443142D01*
X112957000Y-85514571D01*
X112814142Y-85514571D01*
X112528428Y-84514571D02*
X111957000Y-84514571D01*
X112314142Y-84014571D02*
X112314142Y-85300285D01*
X112242714Y-85443142D01*
X112099857Y-85514571D01*
X111957000Y-85514571D01*
X111457000Y-84514571D02*
X111457000Y-86014571D01*
X111457000Y-84586000D02*
X111314142Y-84514571D01*
X111028428Y-84514571D01*
X110885571Y-84586000D01*
X110814142Y-84657428D01*
X110742714Y-84800285D01*
X110742714Y-85228857D01*
X110814142Y-85371714D01*
X110885571Y-85443142D01*
X111028428Y-85514571D01*
X111314142Y-85514571D01*
X111457000Y-85443142D01*
X110171285Y-85443142D02*
X110028428Y-85514571D01*
X109742714Y-85514571D01*
X109599857Y-85443142D01*
X109528428Y-85300285D01*
X109528428Y-85228857D01*
X109599857Y-85086000D01*
X109742714Y-85014571D01*
X109957000Y-85014571D01*
X110099857Y-84943142D01*
X110171285Y-84800285D01*
X110171285Y-84728857D01*
X110099857Y-84586000D01*
X109957000Y-84514571D01*
X109742714Y-84514571D01*
X109599857Y-84586000D01*
X108885571Y-85371714D02*
X108814142Y-85443142D01*
X108885571Y-85514571D01*
X108957000Y-85443142D01*
X108885571Y-85371714D01*
X108885571Y-85514571D01*
X108885571Y-84586000D02*
X108814142Y-84657428D01*
X108885571Y-84728857D01*
X108957000Y-84657428D01*
X108885571Y-84586000D01*
X108885571Y-84728857D01*
X107099857Y-83943142D02*
X108385571Y-85871714D01*
X105528428Y-83943142D02*
X106814142Y-85871714D01*
X105028428Y-85514571D02*
X105028428Y-84014571D01*
X105028428Y-84586000D02*
X104885571Y-84514571D01*
X104599857Y-84514571D01*
X104457000Y-84586000D01*
X104385571Y-84657428D01*
X104314142Y-84800285D01*
X104314142Y-85228857D01*
X104385571Y-85371714D01*
X104457000Y-85443142D01*
X104599857Y-85514571D01*
X104885571Y-85514571D01*
X105028428Y-85443142D01*
X103457000Y-85514571D02*
X103599857Y-85443142D01*
X103671285Y-85300285D01*
X103671285Y-84014571D01*
X102671285Y-85514571D02*
X102814142Y-85443142D01*
X102885571Y-85371714D01*
X102957000Y-85228857D01*
X102957000Y-84800285D01*
X102885571Y-84657428D01*
X102814142Y-84586000D01*
X102671285Y-84514571D01*
X102457000Y-84514571D01*
X102314142Y-84586000D01*
X102242714Y-84657428D01*
X102171285Y-84800285D01*
X102171285Y-85228857D01*
X102242714Y-85371714D01*
X102314142Y-85443142D01*
X102457000Y-85514571D01*
X102671285Y-85514571D01*
X100885571Y-84514571D02*
X100885571Y-85728857D01*
X100957000Y-85871714D01*
X101028428Y-85943142D01*
X101171285Y-86014571D01*
X101385571Y-86014571D01*
X101528428Y-85943142D01*
X100885571Y-85443142D02*
X101028428Y-85514571D01*
X101314142Y-85514571D01*
X101457000Y-85443142D01*
X101528428Y-85371714D01*
X101599857Y-85228857D01*
X101599857Y-84800285D01*
X101528428Y-84657428D01*
X101457000Y-84586000D01*
X101314142Y-84514571D01*
X101028428Y-84514571D01*
X100885571Y-84586000D01*
X100171285Y-85371714D02*
X100099857Y-85443142D01*
X100171285Y-85514571D01*
X100242714Y-85443142D01*
X100171285Y-85371714D01*
X100171285Y-85514571D01*
X99457000Y-85514571D02*
X99457000Y-84514571D01*
X99457000Y-84014571D02*
X99528428Y-84086000D01*
X99457000Y-84157428D01*
X99385571Y-84086000D01*
X99457000Y-84014571D01*
X99457000Y-84157428D01*
X98742714Y-84514571D02*
X98742714Y-85514571D01*
X98742714Y-84657428D02*
X98671285Y-84586000D01*
X98528428Y-84514571D01*
X98314142Y-84514571D01*
X98171285Y-84586000D01*
X98099857Y-84728857D01*
X98099857Y-85514571D01*
X97457000Y-85443142D02*
X97314142Y-85514571D01*
X97028428Y-85514571D01*
X96885571Y-85443142D01*
X96814142Y-85300285D01*
X96814142Y-85228857D01*
X96885571Y-85086000D01*
X97028428Y-85014571D01*
X97242714Y-85014571D01*
X97385571Y-84943142D01*
X97457000Y-84800285D01*
X97457000Y-84728857D01*
X97385571Y-84586000D01*
X97242714Y-84514571D01*
X97028428Y-84514571D01*
X96885571Y-84586000D01*
X96385571Y-84514571D02*
X95814142Y-84514571D01*
X96171285Y-84014571D02*
X96171285Y-85300285D01*
X96099857Y-85443142D01*
X95957000Y-85514571D01*
X95814142Y-85514571D01*
X94671285Y-85514571D02*
X94671285Y-84728857D01*
X94742714Y-84586000D01*
X94885571Y-84514571D01*
X95171285Y-84514571D01*
X95314142Y-84586000D01*
X94671285Y-85443142D02*
X94814142Y-85514571D01*
X95171285Y-85514571D01*
X95314142Y-85443142D01*
X95385571Y-85300285D01*
X95385571Y-85157428D01*
X95314142Y-85014571D01*
X95171285Y-84943142D01*
X94814142Y-84943142D01*
X94671285Y-84871714D01*
X93742714Y-85514571D02*
X93885571Y-85443142D01*
X93957000Y-85300285D01*
X93957000Y-84014571D01*
X92528428Y-85514571D02*
X92528428Y-84728857D01*
X92599857Y-84586000D01*
X92742714Y-84514571D01*
X93028428Y-84514571D01*
X93171285Y-84586000D01*
X92528428Y-85443142D02*
X92671285Y-85514571D01*
X93028428Y-85514571D01*
X93171285Y-85443142D01*
X93242714Y-85300285D01*
X93242714Y-85157428D01*
X93171285Y-85014571D01*
X93028428Y-84943142D01*
X92671285Y-84943142D01*
X92528428Y-84871714D01*
X92028428Y-84514571D02*
X91457000Y-84514571D01*
X91814142Y-84014571D02*
X91814142Y-85300285D01*
X91742714Y-85443142D01*
X91599857Y-85514571D01*
X91457000Y-85514571D01*
X90742714Y-85514571D02*
X90885571Y-85443142D01*
X90957000Y-85371714D01*
X91028428Y-85228857D01*
X91028428Y-84800285D01*
X90957000Y-84657428D01*
X90885571Y-84586000D01*
X90742714Y-84514571D01*
X90528428Y-84514571D01*
X90385571Y-84586000D01*
X90314142Y-84657428D01*
X90242714Y-84800285D01*
X90242714Y-85228857D01*
X90314142Y-85371714D01*
X90385571Y-85443142D01*
X90528428Y-85514571D01*
X90742714Y-85514571D01*
X89599857Y-85514571D02*
X89599857Y-84514571D01*
X89599857Y-84800285D02*
X89528428Y-84657428D01*
X89457000Y-84586000D01*
X89314142Y-84514571D01*
X89171285Y-84514571D01*
X88671285Y-85371714D02*
X88599857Y-85443142D01*
X88671285Y-85514571D01*
X88742714Y-85443142D01*
X88671285Y-85371714D01*
X88671285Y-85514571D01*
X87957000Y-85514571D02*
X87957000Y-84514571D01*
X87957000Y-84800285D02*
X87885571Y-84657428D01*
X87814142Y-84586000D01*
X87671285Y-84514571D01*
X87528428Y-84514571D01*
X86385571Y-84514571D02*
X86385571Y-85514571D01*
X87028428Y-84514571D02*
X87028428Y-85300285D01*
X86957000Y-85443142D01*
X86814142Y-85514571D01*
X86599857Y-85514571D01*
X86457000Y-85443142D01*
X86385571Y-85371714D01*
D13*
X62236000Y-59300000D02*
X62236000Y-55000000D01*
X62236000Y-55000000D02*
X67936000Y-55000000D01*
X62236000Y-59300000D02*
X67936000Y-59300000D01*
X69665500Y-59300000D02*
X75365500Y-59300000D01*
X69665500Y-55000000D02*
X75365500Y-55000000D01*
X69665500Y-59300000D02*
X69665500Y-55000000D01*
X77857000Y-59300000D02*
X83557000Y-59300000D01*
X77857000Y-55000000D02*
X83557000Y-55000000D01*
X77857000Y-59300000D02*
X77857000Y-55000000D01*
D14*
G36*
X113564865Y-87446516D02*
G01*
X113447425Y-87447116D01*
X113347866Y-87447691D01*
X113264532Y-87448308D01*
X113195766Y-87449038D01*
X113139911Y-87449949D01*
X113095310Y-87451110D01*
X113060307Y-87452589D01*
X113033245Y-87454457D01*
X113012466Y-87456780D01*
X112996316Y-87459630D01*
X112983135Y-87463074D01*
X112971268Y-87467181D01*
X112959913Y-87471675D01*
X112894052Y-87508032D01*
X112841916Y-87558265D01*
X112803577Y-87622273D01*
X112779110Y-87699951D01*
X112773757Y-87730920D01*
X112769554Y-87809077D01*
X112778224Y-87884262D01*
X112798638Y-87953015D01*
X112829669Y-88011876D01*
X112870188Y-88057387D01*
X112883513Y-88067567D01*
X112906016Y-88084015D01*
X112919961Y-88095912D01*
X112922141Y-88098923D01*
X112914608Y-88106098D01*
X112895292Y-88118279D01*
X112886180Y-88123346D01*
X112845042Y-88155712D01*
X112812590Y-88201756D01*
X112795695Y-88244312D01*
X112792509Y-88265442D01*
X112789749Y-88302184D01*
X112787595Y-88350615D01*
X112786230Y-88406808D01*
X112785823Y-88457942D01*
X112785769Y-88636231D01*
X113049538Y-88636231D01*
X113049735Y-88521442D01*
X113051406Y-88435653D01*
X113056242Y-88367761D01*
X113064463Y-88316348D01*
X113076288Y-88279995D01*
X113090573Y-88258601D01*
X113104033Y-88247747D01*
X113121880Y-88238853D01*
X113146006Y-88231738D01*
X113178300Y-88226219D01*
X113220655Y-88222112D01*
X113274961Y-88219235D01*
X113343108Y-88217404D01*
X113426987Y-88216439D01*
X113528489Y-88216154D01*
X113840846Y-88216154D01*
X113840846Y-88636231D01*
X114114384Y-88636231D01*
X114114384Y-87962154D01*
X113840846Y-87962154D01*
X113493724Y-87962154D01*
X113397260Y-87962007D01*
X113318464Y-87961522D01*
X113255468Y-87960631D01*
X113206402Y-87959265D01*
X113169398Y-87957357D01*
X113142588Y-87954838D01*
X113124103Y-87951641D01*
X113113484Y-87948316D01*
X113077603Y-87923834D01*
X113053927Y-87888419D01*
X113042717Y-87846601D01*
X113044234Y-87802908D01*
X113058738Y-87761870D01*
X113086489Y-87728016D01*
X113100239Y-87718174D01*
X113109512Y-87713011D01*
X113120031Y-87708836D01*
X113133846Y-87705545D01*
X113153009Y-87703031D01*
X113179571Y-87701191D01*
X113215583Y-87699919D01*
X113263096Y-87699111D01*
X113324162Y-87698662D01*
X113400832Y-87698467D01*
X113486711Y-87698421D01*
X113840846Y-87698385D01*
X113840846Y-87962154D01*
X114114384Y-87962154D01*
X114114384Y-87443763D01*
X113564865Y-87446516D01*
G37*
X113564865Y-87446516D02*
X113447425Y-87447116D01*
X113347866Y-87447691D01*
X113264532Y-87448308D01*
X113195766Y-87449038D01*
X113139911Y-87449949D01*
X113095310Y-87451110D01*
X113060307Y-87452589D01*
X113033245Y-87454457D01*
X113012466Y-87456780D01*
X112996316Y-87459630D01*
X112983135Y-87463074D01*
X112971268Y-87467181D01*
X112959913Y-87471675D01*
X112894052Y-87508032D01*
X112841916Y-87558265D01*
X112803577Y-87622273D01*
X112779110Y-87699951D01*
X112773757Y-87730920D01*
X112769554Y-87809077D01*
X112778224Y-87884262D01*
X112798638Y-87953015D01*
X112829669Y-88011876D01*
X112870188Y-88057387D01*
X112883513Y-88067567D01*
X112906016Y-88084015D01*
X112919961Y-88095912D01*
X112922141Y-88098923D01*
X112914608Y-88106098D01*
X112895292Y-88118279D01*
X112886180Y-88123346D01*
X112845042Y-88155712D01*
X112812590Y-88201756D01*
X112795695Y-88244312D01*
X112792509Y-88265442D01*
X112789749Y-88302184D01*
X112787595Y-88350615D01*
X112786230Y-88406808D01*
X112785823Y-88457942D01*
X112785769Y-88636231D01*
X113049538Y-88636231D01*
X113049735Y-88521442D01*
X113051406Y-88435653D01*
X113056242Y-88367761D01*
X113064463Y-88316348D01*
X113076288Y-88279995D01*
X113090573Y-88258601D01*
X113104033Y-88247747D01*
X113121880Y-88238853D01*
X113146006Y-88231738D01*
X113178300Y-88226219D01*
X113220655Y-88222112D01*
X113274961Y-88219235D01*
X113343108Y-88217404D01*
X113426987Y-88216439D01*
X113528489Y-88216154D01*
X113840846Y-88216154D01*
X113840846Y-88636231D01*
X114114384Y-88636231D01*
X114114384Y-87962154D01*
X113840846Y-87962154D01*
X113493724Y-87962154D01*
X113397260Y-87962007D01*
X113318464Y-87961522D01*
X113255468Y-87960631D01*
X113206402Y-87959265D01*
X113169398Y-87957357D01*
X113142588Y-87954838D01*
X113124103Y-87951641D01*
X113113484Y-87948316D01*
X113077603Y-87923834D01*
X113053927Y-87888419D01*
X113042717Y-87846601D01*
X113044234Y-87802908D01*
X113058738Y-87761870D01*
X113086489Y-87728016D01*
X113100239Y-87718174D01*
X113109512Y-87713011D01*
X113120031Y-87708836D01*
X113133846Y-87705545D01*
X113153009Y-87703031D01*
X113179571Y-87701191D01*
X113215583Y-87699919D01*
X113263096Y-87699111D01*
X113324162Y-87698662D01*
X113400832Y-87698467D01*
X113486711Y-87698421D01*
X113840846Y-87698385D01*
X113840846Y-87962154D01*
X114114384Y-87962154D01*
X114114384Y-87443763D01*
X113564865Y-87446516D01*
G36*
X113840846Y-89308771D02*
G01*
X113840828Y-89408800D01*
X113840710Y-89491215D01*
X113840397Y-89557943D01*
X113839794Y-89610909D01*
X113838804Y-89652039D01*
X113837333Y-89683257D01*
X113835285Y-89706490D01*
X113832564Y-89723663D01*
X113829075Y-89736701D01*
X113824722Y-89747530D01*
X113819411Y-89758075D01*
X113818477Y-89759842D01*
X113786390Y-89801919D01*
X113757420Y-89822436D01*
X113746101Y-89827904D01*
X113733719Y-89832323D01*
X113718114Y-89835828D01*
X113697123Y-89838553D01*
X113668585Y-89840632D01*
X113630338Y-89842201D01*
X113580220Y-89843394D01*
X113516070Y-89844344D01*
X113435727Y-89845186D01*
X113384134Y-89845650D01*
X113049538Y-89848569D01*
X113049538Y-88900000D01*
X112785769Y-88900000D01*
X112785769Y-90101616D01*
X113262019Y-90100734D01*
X113387982Y-90100310D01*
X113495505Y-90099523D01*
X113585684Y-90098346D01*
X113659615Y-90096751D01*
X113718394Y-90094713D01*
X113763116Y-90092204D01*
X113794878Y-90089198D01*
X113806828Y-90087394D01*
X113891181Y-90064867D01*
X113960576Y-90030161D01*
X114016036Y-89982342D01*
X114058581Y-89920472D01*
X114089235Y-89843617D01*
X114094679Y-89823843D01*
X114099472Y-89803970D01*
X114103422Y-89783968D01*
X114106610Y-89761785D01*
X114109116Y-89735369D01*
X114111023Y-89702668D01*
X114112409Y-89661630D01*
X114113357Y-89610203D01*
X114113946Y-89546336D01*
X114114259Y-89467977D01*
X114114375Y-89373072D01*
X114114384Y-89323399D01*
X114114384Y-88900000D01*
X113840846Y-88900000D01*
X113840846Y-89308771D01*
G37*
X113840846Y-89308771D02*
X113840828Y-89408800D01*
X113840710Y-89491215D01*
X113840397Y-89557943D01*
X113839794Y-89610909D01*
X113838804Y-89652039D01*
X113837333Y-89683257D01*
X113835285Y-89706490D01*
X113832564Y-89723663D01*
X113829075Y-89736701D01*
X113824722Y-89747530D01*
X113819411Y-89758075D01*
X113818477Y-89759842D01*
X113786390Y-89801919D01*
X113757420Y-89822436D01*
X113746101Y-89827904D01*
X113733719Y-89832323D01*
X113718114Y-89835828D01*
X113697123Y-89838553D01*
X113668585Y-89840632D01*
X113630338Y-89842201D01*
X113580220Y-89843394D01*
X113516070Y-89844344D01*
X113435727Y-89845186D01*
X113384134Y-89845650D01*
X113049538Y-89848569D01*
X113049538Y-88900000D01*
X112785769Y-88900000D01*
X112785769Y-90101616D01*
X113262019Y-90100734D01*
X113387982Y-90100310D01*
X113495505Y-90099523D01*
X113585684Y-90098346D01*
X113659615Y-90096751D01*
X113718394Y-90094713D01*
X113763116Y-90092204D01*
X113794878Y-90089198D01*
X113806828Y-90087394D01*
X113891181Y-90064867D01*
X113960576Y-90030161D01*
X114016036Y-89982342D01*
X114058581Y-89920472D01*
X114089235Y-89843617D01*
X114094679Y-89823843D01*
X114099472Y-89803970D01*
X114103422Y-89783968D01*
X114106610Y-89761785D01*
X114109116Y-89735369D01*
X114111023Y-89702668D01*
X114112409Y-89661630D01*
X114113357Y-89610203D01*
X114113946Y-89546336D01*
X114114259Y-89467977D01*
X114114375Y-89373072D01*
X114114384Y-89323399D01*
X114114384Y-88900000D01*
X113840846Y-88900000D01*
X113840846Y-89308771D01*
G36*
X102759908Y-87449418D02*
G01*
X102676978Y-87450117D01*
X102609293Y-87451745D01*
X102554706Y-87454682D01*
X102511073Y-87459307D01*
X102476246Y-87465999D01*
X102448079Y-87475137D01*
X102424427Y-87487101D01*
X102403142Y-87502270D01*
X102382079Y-87521023D01*
X102366247Y-87536555D01*
X102344871Y-87558600D01*
X102327301Y-87579348D01*
X102313162Y-87600927D01*
X102302085Y-87625465D01*
X102293696Y-87655089D01*
X102287622Y-87691927D01*
X102283492Y-87738107D01*
X102280934Y-87795756D01*
X102279575Y-87867003D01*
X102279042Y-87953974D01*
X102278961Y-88035423D01*
X102279012Y-88125207D01*
X102279249Y-88197736D01*
X102279798Y-88255293D01*
X102280782Y-88300160D01*
X102282328Y-88334622D01*
X102284561Y-88360960D01*
X102287606Y-88381459D01*
X102291587Y-88398401D01*
X102296631Y-88414070D01*
X102300268Y-88423935D01*
X102333729Y-88491371D01*
X102378454Y-88544442D01*
X102436082Y-88584475D01*
X102508252Y-88612796D01*
X102544876Y-88621856D01*
X102578941Y-88626649D01*
X102628768Y-88630446D01*
X102690714Y-88633249D01*
X102761137Y-88635057D01*
X102836395Y-88635873D01*
X102912845Y-88635697D01*
X102986846Y-88634530D01*
X103054755Y-88632373D01*
X103112930Y-88629227D01*
X103157729Y-88625093D01*
X103178817Y-88621690D01*
X103258234Y-88596959D01*
X103322606Y-88560109D01*
X103372826Y-88510224D01*
X103409785Y-88446388D01*
X103434377Y-88367686D01*
X103436511Y-88357347D01*
X103440357Y-88326638D01*
X103443072Y-88279041D01*
X103444670Y-88213945D01*
X103445162Y-88130891D01*
X103177830Y-88130891D01*
X103176956Y-88203856D01*
X103173349Y-88261107D01*
X103165253Y-88304548D01*
X103150907Y-88336084D01*
X103128554Y-88357620D01*
X103096434Y-88371059D01*
X103052791Y-88378306D01*
X102995865Y-88381265D01*
X102923897Y-88381841D01*
X102862359Y-88381848D01*
X102784901Y-88381668D01*
X102724625Y-88380736D01*
X102679187Y-88378928D01*
X102646241Y-88376117D01*
X102623441Y-88372177D01*
X102611450Y-88368347D01*
X102592025Y-88359171D01*
X102576642Y-88348204D01*
X102564834Y-88333207D01*
X102556131Y-88311940D01*
X102550066Y-88282165D01*
X102546169Y-88241643D01*
X102543973Y-88188135D01*
X102543008Y-88119401D01*
X102542805Y-88040308D01*
X102542723Y-87949592D01*
X102543655Y-87876500D01*
X102547364Y-87819134D01*
X102555612Y-87775592D01*
X102570165Y-87743976D01*
X102592784Y-87722387D01*
X102625234Y-87708923D01*
X102669279Y-87701686D01*
X102726681Y-87698777D01*
X102799204Y-87698295D01*
X102860230Y-87698385D01*
X102944466Y-87698298D01*
X103012337Y-87699304D01*
X103065605Y-87703303D01*
X103106037Y-87712195D01*
X103135394Y-87727878D01*
X103155442Y-87752253D01*
X103167943Y-87787219D01*
X103174663Y-87834676D01*
X103177365Y-87896524D01*
X103177813Y-87974662D01*
X103177730Y-88040308D01*
X103177830Y-88130891D01*
X103445162Y-88130891D01*
X103445163Y-88130739D01*
X103444565Y-88028809D01*
X103444198Y-87996346D01*
X103442828Y-87900336D01*
X103441025Y-87821590D01*
X103438341Y-87757834D01*
X103434331Y-87706795D01*
X103428548Y-87666197D01*
X103420544Y-87633768D01*
X103409874Y-87607232D01*
X103396089Y-87584316D01*
X103378744Y-87562746D01*
X103357392Y-87540248D01*
X103353912Y-87536749D01*
X103331602Y-87515169D01*
X103310417Y-87497458D01*
X103288207Y-87483235D01*
X103262820Y-87472119D01*
X103232106Y-87463729D01*
X103193913Y-87457683D01*
X103146092Y-87453600D01*
X103086491Y-87451100D01*
X103012959Y-87449801D01*
X102923346Y-87449322D01*
X102860230Y-87449269D01*
X102759908Y-87449418D01*
G37*
X102759908Y-87449418D02*
X102676978Y-87450117D01*
X102609293Y-87451745D01*
X102554706Y-87454682D01*
X102511073Y-87459307D01*
X102476246Y-87465999D01*
X102448079Y-87475137D01*
X102424427Y-87487101D01*
X102403142Y-87502270D01*
X102382079Y-87521023D01*
X102366247Y-87536555D01*
X102344871Y-87558600D01*
X102327301Y-87579348D01*
X102313162Y-87600927D01*
X102302085Y-87625465D01*
X102293696Y-87655089D01*
X102287622Y-87691927D01*
X102283492Y-87738107D01*
X102280934Y-87795756D01*
X102279575Y-87867003D01*
X102279042Y-87953974D01*
X102278961Y-88035423D01*
X102279012Y-88125207D01*
X102279249Y-88197736D01*
X102279798Y-88255293D01*
X102280782Y-88300160D01*
X102282328Y-88334622D01*
X102284561Y-88360960D01*
X102287606Y-88381459D01*
X102291587Y-88398401D01*
X102296631Y-88414070D01*
X102300268Y-88423935D01*
X102333729Y-88491371D01*
X102378454Y-88544442D01*
X102436082Y-88584475D01*
X102508252Y-88612796D01*
X102544876Y-88621856D01*
X102578941Y-88626649D01*
X102628768Y-88630446D01*
X102690714Y-88633249D01*
X102761137Y-88635057D01*
X102836395Y-88635873D01*
X102912845Y-88635697D01*
X102986846Y-88634530D01*
X103054755Y-88632373D01*
X103112930Y-88629227D01*
X103157729Y-88625093D01*
X103178817Y-88621690D01*
X103258234Y-88596959D01*
X103322606Y-88560109D01*
X103372826Y-88510224D01*
X103409785Y-88446388D01*
X103434377Y-88367686D01*
X103436511Y-88357347D01*
X103440357Y-88326638D01*
X103443072Y-88279041D01*
X103444670Y-88213945D01*
X103445162Y-88130891D01*
X103177830Y-88130891D01*
X103176956Y-88203856D01*
X103173349Y-88261107D01*
X103165253Y-88304548D01*
X103150907Y-88336084D01*
X103128554Y-88357620D01*
X103096434Y-88371059D01*
X103052791Y-88378306D01*
X102995865Y-88381265D01*
X102923897Y-88381841D01*
X102862359Y-88381848D01*
X102784901Y-88381668D01*
X102724625Y-88380736D01*
X102679187Y-88378928D01*
X102646241Y-88376117D01*
X102623441Y-88372177D01*
X102611450Y-88368347D01*
X102592025Y-88359171D01*
X102576642Y-88348204D01*
X102564834Y-88333207D01*
X102556131Y-88311940D01*
X102550066Y-88282165D01*
X102546169Y-88241643D01*
X102543973Y-88188135D01*
X102543008Y-88119401D01*
X102542805Y-88040308D01*
X102542723Y-87949592D01*
X102543655Y-87876500D01*
X102547364Y-87819134D01*
X102555612Y-87775592D01*
X102570165Y-87743976D01*
X102592784Y-87722387D01*
X102625234Y-87708923D01*
X102669279Y-87701686D01*
X102726681Y-87698777D01*
X102799204Y-87698295D01*
X102860230Y-87698385D01*
X102944466Y-87698298D01*
X103012337Y-87699304D01*
X103065605Y-87703303D01*
X103106037Y-87712195D01*
X103135394Y-87727878D01*
X103155442Y-87752253D01*
X103167943Y-87787219D01*
X103174663Y-87834676D01*
X103177365Y-87896524D01*
X103177813Y-87974662D01*
X103177730Y-88040308D01*
X103177830Y-88130891D01*
X103445162Y-88130891D01*
X103445163Y-88130739D01*
X103444565Y-88028809D01*
X103444198Y-87996346D01*
X103442828Y-87900336D01*
X103441025Y-87821590D01*
X103438341Y-87757834D01*
X103434331Y-87706795D01*
X103428548Y-87666197D01*
X103420544Y-87633768D01*
X103409874Y-87607232D01*
X103396089Y-87584316D01*
X103378744Y-87562746D01*
X103357392Y-87540248D01*
X103353912Y-87536749D01*
X103331602Y-87515169D01*
X103310417Y-87497458D01*
X103288207Y-87483235D01*
X103262820Y-87472119D01*
X103232106Y-87463729D01*
X103193913Y-87457683D01*
X103146092Y-87453600D01*
X103086491Y-87451100D01*
X103012959Y-87449801D01*
X102923346Y-87449322D01*
X102860230Y-87449269D01*
X102759908Y-87449418D01*
G36*
X104530769Y-87903539D02*
G01*
X103944615Y-87903539D01*
X103944615Y-87444385D01*
X103671077Y-87444385D01*
X103671077Y-88636231D01*
X103944615Y-88636231D01*
X103944615Y-88157539D01*
X104530769Y-88157539D01*
X104530769Y-88636231D01*
X104804307Y-88636231D01*
X104804307Y-87444385D01*
X104530769Y-87444385D01*
X104530769Y-87903539D01*
G37*
X104530769Y-87903539D02*
X103944615Y-87903539D01*
X103944615Y-87444385D01*
X103671077Y-87444385D01*
X103671077Y-88636231D01*
X103944615Y-88636231D01*
X103944615Y-88157539D01*
X104530769Y-88157539D01*
X104530769Y-88636231D01*
X104804307Y-88636231D01*
X104804307Y-87444385D01*
X104530769Y-87444385D01*
X104530769Y-87903539D01*
G36*
X105048538Y-88636231D02*
G01*
X105321672Y-88636231D01*
X105324317Y-88438404D01*
X105326961Y-88240577D01*
X105913115Y-88240577D01*
X105915760Y-88438404D01*
X105918404Y-88636231D01*
X106182645Y-88636231D01*
X106179488Y-88164866D01*
X106178685Y-88048409D01*
X106177798Y-87949739D01*
X106177785Y-87948859D01*
X105917242Y-87948859D01*
X105915790Y-87971533D01*
X105914754Y-87976060D01*
X105911344Y-87980559D01*
X105903594Y-87984069D01*
X105889441Y-87986680D01*
X105866820Y-87988483D01*
X105833668Y-87989571D01*
X105787920Y-87990032D01*
X105727514Y-87989960D01*
X105650385Y-87989444D01*
X105617846Y-87989165D01*
X105326961Y-87986577D01*
X105324258Y-87842481D01*
X105321554Y-87698385D01*
X105568488Y-87698400D01*
X105658226Y-87698661D01*
X105730417Y-87700105D01*
X105787053Y-87703737D01*
X105830126Y-87710563D01*
X105861626Y-87721589D01*
X105883546Y-87737823D01*
X105897876Y-87760270D01*
X105906608Y-87789937D01*
X105911733Y-87827830D01*
X105915153Y-87873582D01*
X105917037Y-87914381D01*
X105917242Y-87948859D01*
X106177785Y-87948859D01*
X106176575Y-87867107D01*
X106174767Y-87798762D01*
X106172123Y-87742954D01*
X106168392Y-87697932D01*
X106163325Y-87661947D01*
X106156670Y-87633248D01*
X106148178Y-87610084D01*
X106137598Y-87590706D01*
X106124679Y-87573363D01*
X106109172Y-87556305D01*
X106090825Y-87537781D01*
X106089598Y-87536555D01*
X106070393Y-87517561D01*
X106052746Y-87501575D01*
X106034839Y-87488324D01*
X106014857Y-87477537D01*
X105990984Y-87468939D01*
X105961403Y-87462260D01*
X105924299Y-87457226D01*
X105877856Y-87453565D01*
X105820256Y-87451004D01*
X105749684Y-87449271D01*
X105664324Y-87448093D01*
X105562360Y-87447198D01*
X105490596Y-87446669D01*
X105048538Y-87443459D01*
X105048538Y-88636231D01*
G37*
X105048538Y-88636231D02*
X105321672Y-88636231D01*
X105324317Y-88438404D01*
X105326961Y-88240577D01*
X105913115Y-88240577D01*
X105915760Y-88438404D01*
X105918404Y-88636231D01*
X106182645Y-88636231D01*
X106179488Y-88164866D01*
X106178685Y-88048409D01*
X106177798Y-87949739D01*
X106177785Y-87948859D01*
X105917242Y-87948859D01*
X105915790Y-87971533D01*
X105914754Y-87976060D01*
X105911344Y-87980559D01*
X105903594Y-87984069D01*
X105889441Y-87986680D01*
X105866820Y-87988483D01*
X105833668Y-87989571D01*
X105787920Y-87990032D01*
X105727514Y-87989960D01*
X105650385Y-87989444D01*
X105617846Y-87989165D01*
X105326961Y-87986577D01*
X105324258Y-87842481D01*
X105321554Y-87698385D01*
X105568488Y-87698400D01*
X105658226Y-87698661D01*
X105730417Y-87700105D01*
X105787053Y-87703737D01*
X105830126Y-87710563D01*
X105861626Y-87721589D01*
X105883546Y-87737823D01*
X105897876Y-87760270D01*
X105906608Y-87789937D01*
X105911733Y-87827830D01*
X105915153Y-87873582D01*
X105917037Y-87914381D01*
X105917242Y-87948859D01*
X106177785Y-87948859D01*
X106176575Y-87867107D01*
X106174767Y-87798762D01*
X106172123Y-87742954D01*
X106168392Y-87697932D01*
X106163325Y-87661947D01*
X106156670Y-87633248D01*
X106148178Y-87610084D01*
X106137598Y-87590706D01*
X106124679Y-87573363D01*
X106109172Y-87556305D01*
X106090825Y-87537781D01*
X106089598Y-87536555D01*
X106070393Y-87517561D01*
X106052746Y-87501575D01*
X106034839Y-87488324D01*
X106014857Y-87477537D01*
X105990984Y-87468939D01*
X105961403Y-87462260D01*
X105924299Y-87457226D01*
X105877856Y-87453565D01*
X105820256Y-87451004D01*
X105749684Y-87449271D01*
X105664324Y-87448093D01*
X105562360Y-87447198D01*
X105490596Y-87446669D01*
X105048538Y-87443459D01*
X105048538Y-88636231D01*
G36*
X107803461Y-87698385D02*
G01*
X108198479Y-87698385D01*
X108298254Y-87698627D01*
X108387381Y-87699331D01*
X108464334Y-87700461D01*
X108527589Y-87701982D01*
X108575619Y-87703859D01*
X108606899Y-87706057D01*
X108619029Y-87708092D01*
X108644508Y-87727937D01*
X108662331Y-87764011D01*
X108671681Y-87814243D01*
X108672923Y-87844609D01*
X108672923Y-87903539D01*
X107998846Y-87903539D01*
X107998846Y-88157539D01*
X108672923Y-88157539D01*
X108672923Y-88226237D01*
X108668498Y-88288338D01*
X108655402Y-88334466D01*
X108633906Y-88363889D01*
X108619029Y-88372524D01*
X108602778Y-88374950D01*
X108568492Y-88377087D01*
X108517672Y-88378900D01*
X108451820Y-88380354D01*
X108372437Y-88381416D01*
X108281025Y-88382052D01*
X108193594Y-88382231D01*
X107793692Y-88382231D01*
X107793692Y-88636231D01*
X108221096Y-88635161D01*
X108312335Y-88634742D01*
X108398913Y-88633981D01*
X108478574Y-88632925D01*
X108549064Y-88631618D01*
X108608128Y-88630107D01*
X108653511Y-88628439D01*
X108682958Y-88626658D01*
X108692019Y-88625559D01*
X108746956Y-88609289D01*
X108800489Y-88583835D01*
X108845844Y-88552844D01*
X108868457Y-88530591D01*
X108886898Y-88502293D01*
X108905760Y-88463730D01*
X108919945Y-88426192D01*
X108925962Y-88406228D01*
X108930749Y-88386918D01*
X108934446Y-88365798D01*
X108937193Y-88340400D01*
X108939129Y-88308258D01*
X108940396Y-88266906D01*
X108941132Y-88213876D01*
X108941479Y-88146703D01*
X108941575Y-88062920D01*
X108941577Y-88045192D01*
X108941359Y-87947602D01*
X108940541Y-87867246D01*
X108938875Y-87801825D01*
X108936111Y-87749040D01*
X108932001Y-87706589D01*
X108926297Y-87672173D01*
X108918751Y-87643491D01*
X108909113Y-87618243D01*
X108897135Y-87594130D01*
X108891827Y-87584626D01*
X108858443Y-87538649D01*
X108815012Y-87502822D01*
X108756986Y-87473439D01*
X108753671Y-87472094D01*
X108740025Y-87466766D01*
X108726706Y-87462333D01*
X108711832Y-87458697D01*
X108693519Y-87455763D01*
X108669888Y-87453434D01*
X108639054Y-87451615D01*
X108599137Y-87450209D01*
X108548254Y-87449119D01*
X108484523Y-87448251D01*
X108406062Y-87447506D01*
X108310989Y-87446790D01*
X108250403Y-87446370D01*
X107803461Y-87443302D01*
X107803461Y-87698385D01*
G37*
X107803461Y-87698385D02*
X108198479Y-87698385D01*
X108298254Y-87698627D01*
X108387381Y-87699331D01*
X108464334Y-87700461D01*
X108527589Y-87701982D01*
X108575619Y-87703859D01*
X108606899Y-87706057D01*
X108619029Y-87708092D01*
X108644508Y-87727937D01*
X108662331Y-87764011D01*
X108671681Y-87814243D01*
X108672923Y-87844609D01*
X108672923Y-87903539D01*
X107998846Y-87903539D01*
X107998846Y-88157539D01*
X108672923Y-88157539D01*
X108672923Y-88226237D01*
X108668498Y-88288338D01*
X108655402Y-88334466D01*
X108633906Y-88363889D01*
X108619029Y-88372524D01*
X108602778Y-88374950D01*
X108568492Y-88377087D01*
X108517672Y-88378900D01*
X108451820Y-88380354D01*
X108372437Y-88381416D01*
X108281025Y-88382052D01*
X108193594Y-88382231D01*
X107793692Y-88382231D01*
X107793692Y-88636231D01*
X108221096Y-88635161D01*
X108312335Y-88634742D01*
X108398913Y-88633981D01*
X108478574Y-88632925D01*
X108549064Y-88631618D01*
X108608128Y-88630107D01*
X108653511Y-88628439D01*
X108682958Y-88626658D01*
X108692019Y-88625559D01*
X108746956Y-88609289D01*
X108800489Y-88583835D01*
X108845844Y-88552844D01*
X108868457Y-88530591D01*
X108886898Y-88502293D01*
X108905760Y-88463730D01*
X108919945Y-88426192D01*
X108925962Y-88406228D01*
X108930749Y-88386918D01*
X108934446Y-88365798D01*
X108937193Y-88340400D01*
X108939129Y-88308258D01*
X108940396Y-88266906D01*
X108941132Y-88213876D01*
X108941479Y-88146703D01*
X108941575Y-88062920D01*
X108941577Y-88045192D01*
X108941359Y-87947602D01*
X108940541Y-87867246D01*
X108938875Y-87801825D01*
X108936111Y-87749040D01*
X108932001Y-87706589D01*
X108926297Y-87672173D01*
X108918751Y-87643491D01*
X108909113Y-87618243D01*
X108897135Y-87594130D01*
X108891827Y-87584626D01*
X108858443Y-87538649D01*
X108815012Y-87502822D01*
X108756986Y-87473439D01*
X108753671Y-87472094D01*
X108740025Y-87466766D01*
X108726706Y-87462333D01*
X108711832Y-87458697D01*
X108693519Y-87455763D01*
X108669888Y-87453434D01*
X108639054Y-87451615D01*
X108599137Y-87450209D01*
X108548254Y-87449119D01*
X108484523Y-87448251D01*
X108406062Y-87447506D01*
X108310989Y-87446790D01*
X108250403Y-87446370D01*
X107803461Y-87443302D01*
X107803461Y-87698385D01*
G36*
X110607575Y-87500035D02*
G01*
X110608780Y-87549614D01*
X110611608Y-87607284D01*
X110615682Y-87668470D01*
X110620624Y-87728600D01*
X110626057Y-87783099D01*
X110631604Y-87827392D01*
X110636888Y-87856906D01*
X110637078Y-87857673D01*
X110648627Y-87903539D01*
X110880769Y-87903539D01*
X110880769Y-87698385D01*
X111150389Y-87698385D01*
X111238527Y-87698586D01*
X111309257Y-87699440D01*
X111364708Y-87701327D01*
X111407010Y-87704625D01*
X111438290Y-87709712D01*
X111460678Y-87716966D01*
X111476302Y-87726766D01*
X111487291Y-87739491D01*
X111495774Y-87755518D01*
X111497771Y-87760128D01*
X111502141Y-87780625D01*
X111505699Y-87817233D01*
X111508443Y-87866555D01*
X111510368Y-87925194D01*
X111511471Y-87989755D01*
X111511747Y-88056839D01*
X111511194Y-88123050D01*
X111509808Y-88184991D01*
X111507584Y-88239265D01*
X111504519Y-88282476D01*
X111500610Y-88311227D01*
X111498387Y-88319002D01*
X111492506Y-88332619D01*
X111486236Y-88343934D01*
X111477822Y-88353184D01*
X111465505Y-88360603D01*
X111447530Y-88366428D01*
X111422140Y-88370894D01*
X111387577Y-88374238D01*
X111342084Y-88376695D01*
X111283906Y-88378500D01*
X111211284Y-88379890D01*
X111122462Y-88381101D01*
X111027307Y-88382231D01*
X110612115Y-88387116D01*
X110609381Y-88511673D01*
X110606647Y-88636231D01*
X111048996Y-88635668D01*
X111155802Y-88635461D01*
X111245000Y-88635091D01*
X111318520Y-88634491D01*
X111378293Y-88633592D01*
X111426249Y-88632328D01*
X111464317Y-88630630D01*
X111494429Y-88628432D01*
X111518515Y-88625665D01*
X111538505Y-88622262D01*
X111556329Y-88618156D01*
X111557452Y-88617865D01*
X111622093Y-88595884D01*
X111671744Y-88566227D01*
X111710396Y-88525845D01*
X111738029Y-88479923D01*
X111752615Y-88447706D01*
X111764346Y-88413825D01*
X111773455Y-88375918D01*
X111780174Y-88331623D01*
X111784737Y-88278579D01*
X111787378Y-88214424D01*
X111788328Y-88136796D01*
X111787821Y-88043332D01*
X111786997Y-87983755D01*
X111785585Y-87902346D01*
X111784106Y-87837737D01*
X111782350Y-87787191D01*
X111780105Y-87747971D01*
X111777159Y-87717339D01*
X111773300Y-87692559D01*
X111768316Y-87670893D01*
X111761997Y-87649602D01*
X111760882Y-87646156D01*
X111729998Y-87579149D01*
X111685172Y-87525729D01*
X111625816Y-87485271D01*
X111597897Y-87472587D01*
X111584300Y-87467243D01*
X111571217Y-87462778D01*
X111556815Y-87459101D01*
X111539256Y-87456120D01*
X111516707Y-87453743D01*
X111487330Y-87451878D01*
X111449292Y-87450434D01*
X111400756Y-87449319D01*
X111339886Y-87448441D01*
X111264848Y-87447708D01*
X111173806Y-87447028D01*
X111073711Y-87446366D01*
X110607230Y-87443340D01*
X110607575Y-87500035D01*
G37*
X110607575Y-87500035D02*
X110608780Y-87549614D01*
X110611608Y-87607284D01*
X110615682Y-87668470D01*
X110620624Y-87728600D01*
X110626057Y-87783099D01*
X110631604Y-87827392D01*
X110636888Y-87856906D01*
X110637078Y-87857673D01*
X110648627Y-87903539D01*
X110880769Y-87903539D01*
X110880769Y-87698385D01*
X111150389Y-87698385D01*
X111238527Y-87698586D01*
X111309257Y-87699440D01*
X111364708Y-87701327D01*
X111407010Y-87704625D01*
X111438290Y-87709712D01*
X111460678Y-87716966D01*
X111476302Y-87726766D01*
X111487291Y-87739491D01*
X111495774Y-87755518D01*
X111497771Y-87760128D01*
X111502141Y-87780625D01*
X111505699Y-87817233D01*
X111508443Y-87866555D01*
X111510368Y-87925194D01*
X111511471Y-87989755D01*
X111511747Y-88056839D01*
X111511194Y-88123050D01*
X111509808Y-88184991D01*
X111507584Y-88239265D01*
X111504519Y-88282476D01*
X111500610Y-88311227D01*
X111498387Y-88319002D01*
X111492506Y-88332619D01*
X111486236Y-88343934D01*
X111477822Y-88353184D01*
X111465505Y-88360603D01*
X111447530Y-88366428D01*
X111422140Y-88370894D01*
X111387577Y-88374238D01*
X111342084Y-88376695D01*
X111283906Y-88378500D01*
X111211284Y-88379890D01*
X111122462Y-88381101D01*
X111027307Y-88382231D01*
X110612115Y-88387116D01*
X110609381Y-88511673D01*
X110606647Y-88636231D01*
X111048996Y-88635668D01*
X111155802Y-88635461D01*
X111245000Y-88635091D01*
X111318520Y-88634491D01*
X111378293Y-88633592D01*
X111426249Y-88632328D01*
X111464317Y-88630630D01*
X111494429Y-88628432D01*
X111518515Y-88625665D01*
X111538505Y-88622262D01*
X111556329Y-88618156D01*
X111557452Y-88617865D01*
X111622093Y-88595884D01*
X111671744Y-88566227D01*
X111710396Y-88525845D01*
X111738029Y-88479923D01*
X111752615Y-88447706D01*
X111764346Y-88413825D01*
X111773455Y-88375918D01*
X111780174Y-88331623D01*
X111784737Y-88278579D01*
X111787378Y-88214424D01*
X111788328Y-88136796D01*
X111787821Y-88043332D01*
X111786997Y-87983755D01*
X111785585Y-87902346D01*
X111784106Y-87837737D01*
X111782350Y-87787191D01*
X111780105Y-87747971D01*
X111777159Y-87717339D01*
X111773300Y-87692559D01*
X111768316Y-87670893D01*
X111761997Y-87649602D01*
X111760882Y-87646156D01*
X111729998Y-87579149D01*
X111685172Y-87525729D01*
X111625816Y-87485271D01*
X111597897Y-87472587D01*
X111584300Y-87467243D01*
X111571217Y-87462778D01*
X111556815Y-87459101D01*
X111539256Y-87456120D01*
X111516707Y-87453743D01*
X111487330Y-87451878D01*
X111449292Y-87450434D01*
X111400756Y-87449319D01*
X111339886Y-87448441D01*
X111264848Y-87447708D01*
X111173806Y-87447028D01*
X111073711Y-87446366D01*
X110607230Y-87443340D01*
X110607575Y-87500035D01*
G36*
X106435769Y-88636231D02*
G01*
X106709307Y-88636231D01*
X106709307Y-87698385D01*
X106938884Y-87698385D01*
X107013420Y-87698562D01*
X107070526Y-87699175D01*
X107112308Y-87700350D01*
X107140872Y-87702210D01*
X107158324Y-87704880D01*
X107166770Y-87708484D01*
X107168461Y-87711932D01*
X107169514Y-87728226D01*
X107172441Y-87760720D01*
X107176897Y-87806199D01*
X107182536Y-87861450D01*
X107189013Y-87923262D01*
X107195982Y-87988420D01*
X107203097Y-88053712D01*
X107210012Y-88115924D01*
X107216383Y-88171844D01*
X107221863Y-88218258D01*
X107226107Y-88251954D01*
X107227958Y-88265000D01*
X107248689Y-88366521D01*
X107276816Y-88450528D01*
X107312983Y-88517841D01*
X107357833Y-88569281D01*
X107412010Y-88605667D01*
X107476157Y-88627819D01*
X107517678Y-88634417D01*
X107554926Y-88637458D01*
X107587051Y-88638712D01*
X107605634Y-88638031D01*
X107614650Y-88635980D01*
X107620788Y-88630733D01*
X107624600Y-88619059D01*
X107626640Y-88597728D01*
X107627460Y-88563510D01*
X107627615Y-88513173D01*
X107627615Y-88384405D01*
X107594985Y-88378284D01*
X107556880Y-88362198D01*
X107526567Y-88329228D01*
X107505215Y-88284260D01*
X107500631Y-88264850D01*
X107494282Y-88228263D01*
X107486477Y-88176751D01*
X107477529Y-88112566D01*
X107467748Y-88037959D01*
X107457445Y-87955182D01*
X107446931Y-87866487D01*
X107444173Y-87842481D01*
X107398730Y-87444385D01*
X106435769Y-87444385D01*
X106435769Y-88636231D01*
G37*
X106435769Y-88636231D02*
X106709307Y-88636231D01*
X106709307Y-87698385D01*
X106938884Y-87698385D01*
X107013420Y-87698562D01*
X107070526Y-87699175D01*
X107112308Y-87700350D01*
X107140872Y-87702210D01*
X107158324Y-87704880D01*
X107166770Y-87708484D01*
X107168461Y-87711932D01*
X107169514Y-87728226D01*
X107172441Y-87760720D01*
X107176897Y-87806199D01*
X107182536Y-87861450D01*
X107189013Y-87923262D01*
X107195982Y-87988420D01*
X107203097Y-88053712D01*
X107210012Y-88115924D01*
X107216383Y-88171844D01*
X107221863Y-88218258D01*
X107226107Y-88251954D01*
X107227958Y-88265000D01*
X107248689Y-88366521D01*
X107276816Y-88450528D01*
X107312983Y-88517841D01*
X107357833Y-88569281D01*
X107412010Y-88605667D01*
X107476157Y-88627819D01*
X107517678Y-88634417D01*
X107554926Y-88637458D01*
X107587051Y-88638712D01*
X107605634Y-88638031D01*
X107614650Y-88635980D01*
X107620788Y-88630733D01*
X107624600Y-88619059D01*
X107626640Y-88597728D01*
X107627460Y-88563510D01*
X107627615Y-88513173D01*
X107627615Y-88384405D01*
X107594985Y-88378284D01*
X107556880Y-88362198D01*
X107526567Y-88329228D01*
X107505215Y-88284260D01*
X107500631Y-88264850D01*
X107494282Y-88228263D01*
X107486477Y-88176751D01*
X107477529Y-88112566D01*
X107467748Y-88037959D01*
X107457445Y-87955182D01*
X107446931Y-87866487D01*
X107444173Y-87842481D01*
X107398730Y-87444385D01*
X106435769Y-87444385D01*
X106435769Y-88636231D01*
G36*
X109239538Y-88382231D02*
G01*
X109132077Y-88382231D01*
X109132077Y-88753462D01*
X109258890Y-88753462D01*
X109312525Y-88753548D01*
X109349749Y-88752356D01*
X109373668Y-88747705D01*
X109387389Y-88737418D01*
X109394019Y-88719316D01*
X109396665Y-88691221D01*
X109398198Y-88655769D01*
X109400730Y-88602039D01*
X109793942Y-88599485D01*
X110187153Y-88596932D01*
X110187153Y-88644668D01*
X110188451Y-88680485D01*
X110191708Y-88713603D01*
X110193259Y-88722933D01*
X110199365Y-88753462D01*
X110450923Y-88753462D01*
X110450923Y-88567846D01*
X110450831Y-88503355D01*
X110450380Y-88455822D01*
X110449303Y-88422669D01*
X110447336Y-88401315D01*
X110444214Y-88389181D01*
X110439672Y-88383689D01*
X110433444Y-88382257D01*
X110431844Y-88382231D01*
X110395217Y-88374516D01*
X110367736Y-88353227D01*
X110082050Y-88353227D01*
X109800006Y-88350633D01*
X109517961Y-88348039D01*
X109512813Y-87698037D01*
X109986467Y-87703269D01*
X110008687Y-87937731D01*
X110018422Y-88033528D01*
X110028120Y-88113272D01*
X110038365Y-88180440D01*
X110049743Y-88238507D01*
X110062839Y-88290949D01*
X110074916Y-88331094D01*
X110082050Y-88353227D01*
X110367736Y-88353227D01*
X110364552Y-88350761D01*
X110339164Y-88310047D01*
X110318367Y-88251454D01*
X110310426Y-88219466D01*
X110306991Y-88198979D01*
X110301922Y-88161876D01*
X110295527Y-88110983D01*
X110288118Y-88049126D01*
X110280002Y-87979130D01*
X110271491Y-87903820D01*
X110262894Y-87826023D01*
X110254521Y-87748564D01*
X110246681Y-87674269D01*
X110239685Y-87605963D01*
X110233842Y-87546472D01*
X110229462Y-87498621D01*
X110226855Y-87465237D01*
X110226250Y-87451712D01*
X110216783Y-87450284D01*
X110189619Y-87448949D01*
X110146598Y-87447732D01*
X110089560Y-87446662D01*
X110020346Y-87445766D01*
X109940797Y-87445071D01*
X109852752Y-87444605D01*
X109758054Y-87444394D01*
X109732884Y-87444385D01*
X109239538Y-87444385D01*
X109239538Y-88382231D01*
G37*
X109239538Y-88382231D02*
X109132077Y-88382231D01*
X109132077Y-88753462D01*
X109258890Y-88753462D01*
X109312525Y-88753548D01*
X109349749Y-88752356D01*
X109373668Y-88747705D01*
X109387389Y-88737418D01*
X109394019Y-88719316D01*
X109396665Y-88691221D01*
X109398198Y-88655769D01*
X109400730Y-88602039D01*
X109793942Y-88599485D01*
X110187153Y-88596932D01*
X110187153Y-88644668D01*
X110188451Y-88680485D01*
X110191708Y-88713603D01*
X110193259Y-88722933D01*
X110199365Y-88753462D01*
X110450923Y-88753462D01*
X110450923Y-88567846D01*
X110450831Y-88503355D01*
X110450380Y-88455822D01*
X110449303Y-88422669D01*
X110447336Y-88401315D01*
X110444214Y-88389181D01*
X110439672Y-88383689D01*
X110433444Y-88382257D01*
X110431844Y-88382231D01*
X110395217Y-88374516D01*
X110367736Y-88353227D01*
X110082050Y-88353227D01*
X109800006Y-88350633D01*
X109517961Y-88348039D01*
X109512813Y-87698037D01*
X109986467Y-87703269D01*
X110008687Y-87937731D01*
X110018422Y-88033528D01*
X110028120Y-88113272D01*
X110038365Y-88180440D01*
X110049743Y-88238507D01*
X110062839Y-88290949D01*
X110074916Y-88331094D01*
X110082050Y-88353227D01*
X110367736Y-88353227D01*
X110364552Y-88350761D01*
X110339164Y-88310047D01*
X110318367Y-88251454D01*
X110310426Y-88219466D01*
X110306991Y-88198979D01*
X110301922Y-88161876D01*
X110295527Y-88110983D01*
X110288118Y-88049126D01*
X110280002Y-87979130D01*
X110271491Y-87903820D01*
X110262894Y-87826023D01*
X110254521Y-87748564D01*
X110246681Y-87674269D01*
X110239685Y-87605963D01*
X110233842Y-87546472D01*
X110229462Y-87498621D01*
X110226855Y-87465237D01*
X110226250Y-87451712D01*
X110216783Y-87450284D01*
X110189619Y-87448949D01*
X110146598Y-87447732D01*
X110089560Y-87446662D01*
X110020346Y-87445766D01*
X109940797Y-87445071D01*
X109852752Y-87444605D01*
X109758054Y-87444394D01*
X109732884Y-87444385D01*
X109239538Y-87444385D01*
X109239538Y-88382231D01*
G36*
X103150972Y-89304973D02*
G01*
X103148423Y-89709947D01*
X102948844Y-89400223D01*
X102902229Y-89328151D01*
X102857416Y-89259372D01*
X102815860Y-89196082D01*
X102779013Y-89140473D01*
X102748329Y-89094739D01*
X102725263Y-89061075D01*
X102711267Y-89041673D01*
X102711252Y-89041654D01*
X102662213Y-88988380D01*
X102607359Y-88948749D01*
X102543870Y-88921596D01*
X102468922Y-88905754D01*
X102379696Y-88900058D01*
X102368526Y-88900000D01*
X102293615Y-88900000D01*
X102293615Y-90101616D01*
X102566944Y-90101616D01*
X102569491Y-89686785D01*
X102572038Y-89271955D01*
X103110072Y-90096731D01*
X103426846Y-90102099D01*
X103426846Y-88900000D01*
X103153522Y-88900000D01*
X103150972Y-89304973D01*
G37*
X103150972Y-89304973D02*
X103148423Y-89709947D01*
X102948844Y-89400223D01*
X102902229Y-89328151D01*
X102857416Y-89259372D01*
X102815860Y-89196082D01*
X102779013Y-89140473D01*
X102748329Y-89094739D01*
X102725263Y-89061075D01*
X102711267Y-89041673D01*
X102711252Y-89041654D01*
X102662213Y-88988380D01*
X102607359Y-88948749D01*
X102543870Y-88921596D01*
X102468922Y-88905754D01*
X102379696Y-88900058D01*
X102368526Y-88900000D01*
X102293615Y-88900000D01*
X102293615Y-90101616D01*
X102566944Y-90101616D01*
X102569491Y-89686785D01*
X102572038Y-89271955D01*
X103110072Y-90096731D01*
X103426846Y-90102099D01*
X103426846Y-88900000D01*
X103153522Y-88900000D01*
X103150972Y-89304973D01*
G36*
X104525884Y-89704636D02*
G01*
X104316746Y-89380095D01*
X104269234Y-89306749D01*
X104223632Y-89237073D01*
X104181329Y-89173137D01*
X104143712Y-89117009D01*
X104112170Y-89070759D01*
X104088093Y-89036456D01*
X104072868Y-89016169D01*
X104071102Y-89014083D01*
X104019970Y-88967736D01*
X103958376Y-88933899D01*
X103884573Y-88911956D01*
X103796817Y-88901294D01*
X103747436Y-88900000D01*
X103671077Y-88900000D01*
X103671077Y-90101616D01*
X103944615Y-90101616D01*
X103944615Y-89258535D01*
X104219457Y-89680075D01*
X104494298Y-90101616D01*
X104804307Y-90101616D01*
X104804307Y-88900000D01*
X104530986Y-88900000D01*
X104525884Y-89704636D01*
G37*
X104525884Y-89704636D02*
X104316746Y-89380095D01*
X104269234Y-89306749D01*
X104223632Y-89237073D01*
X104181329Y-89173137D01*
X104143712Y-89117009D01*
X104112170Y-89070759D01*
X104088093Y-89036456D01*
X104072868Y-89016169D01*
X104071102Y-89014083D01*
X104019970Y-88967736D01*
X103958376Y-88933899D01*
X103884573Y-88911956D01*
X103796817Y-88901294D01*
X103747436Y-88900000D01*
X103671077Y-88900000D01*
X103671077Y-90101616D01*
X103944615Y-90101616D01*
X103944615Y-89258535D01*
X104219457Y-89680075D01*
X104494298Y-90101616D01*
X104804307Y-90101616D01*
X104804307Y-88900000D01*
X104530986Y-88900000D01*
X104525884Y-89704636D01*
G36*
X105032153Y-89068519D02*
G01*
X105034921Y-89129029D01*
X105038706Y-89187411D01*
X105043118Y-89238878D01*
X105047765Y-89278642D01*
X105050665Y-89295654D01*
X105063192Y-89354269D01*
X105302538Y-89359755D01*
X105302538Y-89152640D01*
X105578974Y-89155763D01*
X105660774Y-89156790D01*
X105725356Y-89157919D01*
X105775040Y-89159309D01*
X105812144Y-89161122D01*
X105838989Y-89163517D01*
X105857894Y-89166655D01*
X105871180Y-89170696D01*
X105881166Y-89175800D01*
X105882636Y-89176741D01*
X105898517Y-89188420D01*
X105911084Y-89201809D01*
X105920685Y-89219172D01*
X105927669Y-89242773D01*
X105932385Y-89274874D01*
X105935181Y-89317739D01*
X105936405Y-89373631D01*
X105936406Y-89444815D01*
X105935679Y-89521224D01*
X105932653Y-89778821D01*
X105907327Y-89804131D01*
X105880261Y-89823495D01*
X105847632Y-89837322D01*
X105843827Y-89838295D01*
X105825756Y-89840259D01*
X105790503Y-89842083D01*
X105740422Y-89843717D01*
X105677867Y-89845112D01*
X105605195Y-89846217D01*
X105524761Y-89846982D01*
X105438919Y-89847356D01*
X105417327Y-89847382D01*
X105029000Y-89847616D01*
X105029000Y-90101616D01*
X105451519Y-90100424D01*
X105542958Y-90099975D01*
X105630341Y-90099180D01*
X105711293Y-90098089D01*
X105783441Y-90096749D01*
X105844412Y-90095207D01*
X105891831Y-90093512D01*
X105923326Y-90091710D01*
X105932653Y-90090743D01*
X105994655Y-90076066D01*
X106053014Y-90051814D01*
X106102627Y-90020664D01*
X106138391Y-89985293D01*
X106141188Y-89981366D01*
X106157644Y-89956408D01*
X106171067Y-89932972D01*
X106181763Y-89908783D01*
X106190042Y-89881563D01*
X106196211Y-89849035D01*
X106200578Y-89808925D01*
X106203451Y-89758955D01*
X106205138Y-89696848D01*
X106205947Y-89620329D01*
X106206185Y-89527121D01*
X106206192Y-89500808D01*
X106206109Y-89410041D01*
X106205787Y-89336543D01*
X106205118Y-89278047D01*
X106203992Y-89232282D01*
X106202301Y-89196980D01*
X106199936Y-89169874D01*
X106196787Y-89148694D01*
X106192746Y-89131171D01*
X106187704Y-89115037D01*
X106187665Y-89114923D01*
X106161180Y-89052453D01*
X106128843Y-89005363D01*
X106087385Y-88969664D01*
X106052254Y-88949832D01*
X106027077Y-88938593D01*
X106000725Y-88929151D01*
X105971314Y-88921353D01*
X105936960Y-88915048D01*
X105895781Y-88910085D01*
X105845893Y-88906313D01*
X105785412Y-88903579D01*
X105712455Y-88901734D01*
X105625139Y-88900625D01*
X105521581Y-88900100D01*
X105432300Y-88900000D01*
X105026167Y-88900000D01*
X105032153Y-89068519D01*
G37*
X105032153Y-89068519D02*
X105034921Y-89129029D01*
X105038706Y-89187411D01*
X105043118Y-89238878D01*
X105047765Y-89278642D01*
X105050665Y-89295654D01*
X105063192Y-89354269D01*
X105302538Y-89359755D01*
X105302538Y-89152640D01*
X105578974Y-89155763D01*
X105660774Y-89156790D01*
X105725356Y-89157919D01*
X105775040Y-89159309D01*
X105812144Y-89161122D01*
X105838989Y-89163517D01*
X105857894Y-89166655D01*
X105871180Y-89170696D01*
X105881166Y-89175800D01*
X105882636Y-89176741D01*
X105898517Y-89188420D01*
X105911084Y-89201809D01*
X105920685Y-89219172D01*
X105927669Y-89242773D01*
X105932385Y-89274874D01*
X105935181Y-89317739D01*
X105936405Y-89373631D01*
X105936406Y-89444815D01*
X105935679Y-89521224D01*
X105932653Y-89778821D01*
X105907327Y-89804131D01*
X105880261Y-89823495D01*
X105847632Y-89837322D01*
X105843827Y-89838295D01*
X105825756Y-89840259D01*
X105790503Y-89842083D01*
X105740422Y-89843717D01*
X105677867Y-89845112D01*
X105605195Y-89846217D01*
X105524761Y-89846982D01*
X105438919Y-89847356D01*
X105417327Y-89847382D01*
X105029000Y-89847616D01*
X105029000Y-90101616D01*
X105451519Y-90100424D01*
X105542958Y-90099975D01*
X105630341Y-90099180D01*
X105711293Y-90098089D01*
X105783441Y-90096749D01*
X105844412Y-90095207D01*
X105891831Y-90093512D01*
X105923326Y-90091710D01*
X105932653Y-90090743D01*
X105994655Y-90076066D01*
X106053014Y-90051814D01*
X106102627Y-90020664D01*
X106138391Y-89985293D01*
X106141188Y-89981366D01*
X106157644Y-89956408D01*
X106171067Y-89932972D01*
X106181763Y-89908783D01*
X106190042Y-89881563D01*
X106196211Y-89849035D01*
X106200578Y-89808925D01*
X106203451Y-89758955D01*
X106205138Y-89696848D01*
X106205947Y-89620329D01*
X106206185Y-89527121D01*
X106206192Y-89500808D01*
X106206109Y-89410041D01*
X106205787Y-89336543D01*
X106205118Y-89278047D01*
X106203992Y-89232282D01*
X106202301Y-89196980D01*
X106199936Y-89169874D01*
X106196787Y-89148694D01*
X106192746Y-89131171D01*
X106187704Y-89115037D01*
X106187665Y-89114923D01*
X106161180Y-89052453D01*
X106128843Y-89005363D01*
X106087385Y-88969664D01*
X106052254Y-88949832D01*
X106027077Y-88938593D01*
X106000725Y-88929151D01*
X105971314Y-88921353D01*
X105936960Y-88915048D01*
X105895781Y-88910085D01*
X105845893Y-88906313D01*
X105785412Y-88903579D01*
X105712455Y-88901734D01*
X105625139Y-88900625D01*
X105521581Y-88900100D01*
X105432300Y-88900000D01*
X105026167Y-88900000D01*
X105032153Y-89068519D01*
G36*
X106399923Y-89067746D02*
G01*
X106402758Y-89128367D01*
X106406577Y-89186844D01*
X106410989Y-89238411D01*
X106415606Y-89278299D01*
X106418522Y-89295654D01*
X106430884Y-89354269D01*
X106670230Y-89359755D01*
X106670230Y-89154000D01*
X106921788Y-89154786D01*
X107011453Y-89155390D01*
X107083756Y-89156789D01*
X107140868Y-89159294D01*
X107184958Y-89163215D01*
X107218198Y-89168862D01*
X107242757Y-89176545D01*
X107260806Y-89186575D01*
X107274516Y-89199262D01*
X107279892Y-89205981D01*
X107286217Y-89215502D01*
X107291136Y-89226611D01*
X107294866Y-89241820D01*
X107297621Y-89263642D01*
X107299617Y-89294587D01*
X107301070Y-89337168D01*
X107302195Y-89393897D01*
X107303208Y-89467286D01*
X107303359Y-89479519D01*
X107304119Y-89565795D01*
X107303833Y-89634841D01*
X107302164Y-89688953D01*
X107298778Y-89730428D01*
X107293338Y-89761561D01*
X107285509Y-89784647D01*
X107274955Y-89801984D01*
X107261340Y-89815867D01*
X107253240Y-89822259D01*
X107245959Y-89827245D01*
X107237563Y-89831366D01*
X107226202Y-89834720D01*
X107210027Y-89837405D01*
X107187187Y-89839519D01*
X107155831Y-89841160D01*
X107114111Y-89842426D01*
X107060176Y-89843414D01*
X106992176Y-89844224D01*
X106908261Y-89844952D01*
X106811182Y-89845664D01*
X106396692Y-89848597D01*
X106396692Y-90101616D01*
X106819211Y-90100734D01*
X106940423Y-90100240D01*
X107043115Y-90099284D01*
X107128298Y-90097841D01*
X107196987Y-90095881D01*
X107250193Y-90093378D01*
X107288930Y-90090304D01*
X107310412Y-90087373D01*
X107387513Y-90066878D01*
X107449601Y-90035404D01*
X107497884Y-89991629D01*
X107533571Y-89934230D01*
X107557872Y-89861886D01*
X107568249Y-89805389D01*
X107571330Y-89772957D01*
X107574056Y-89725044D01*
X107576284Y-89665707D01*
X107577876Y-89599004D01*
X107578692Y-89528990D01*
X107578769Y-89500808D01*
X107578008Y-89396481D01*
X107575591Y-89309532D01*
X107571320Y-89237855D01*
X107564993Y-89179343D01*
X107556411Y-89131890D01*
X107545375Y-89093389D01*
X107538441Y-89075846D01*
X107509548Y-89026496D01*
X107470740Y-88982873D01*
X107428069Y-88951757D01*
X107427346Y-88951376D01*
X107407474Y-88941383D01*
X107388036Y-88932988D01*
X107367159Y-88926031D01*
X107342973Y-88920355D01*
X107313603Y-88915804D01*
X107277179Y-88912219D01*
X107231828Y-88909444D01*
X107175677Y-88907319D01*
X107106855Y-88905689D01*
X107023489Y-88904396D01*
X106923707Y-88903281D01*
X106847016Y-88902559D01*
X106393686Y-88898453D01*
X106399923Y-89067746D01*
G37*
X106399923Y-89067746D02*
X106402758Y-89128367D01*
X106406577Y-89186844D01*
X106410989Y-89238411D01*
X106415606Y-89278299D01*
X106418522Y-89295654D01*
X106430884Y-89354269D01*
X106670230Y-89359755D01*
X106670230Y-89154000D01*
X106921788Y-89154786D01*
X107011453Y-89155390D01*
X107083756Y-89156789D01*
X107140868Y-89159294D01*
X107184958Y-89163215D01*
X107218198Y-89168862D01*
X107242757Y-89176545D01*
X107260806Y-89186575D01*
X107274516Y-89199262D01*
X107279892Y-89205981D01*
X107286217Y-89215502D01*
X107291136Y-89226611D01*
X107294866Y-89241820D01*
X107297621Y-89263642D01*
X107299617Y-89294587D01*
X107301070Y-89337168D01*
X107302195Y-89393897D01*
X107303208Y-89467286D01*
X107303359Y-89479519D01*
X107304119Y-89565795D01*
X107303833Y-89634841D01*
X107302164Y-89688953D01*
X107298778Y-89730428D01*
X107293338Y-89761561D01*
X107285509Y-89784647D01*
X107274955Y-89801984D01*
X107261340Y-89815867D01*
X107253240Y-89822259D01*
X107245959Y-89827245D01*
X107237563Y-89831366D01*
X107226202Y-89834720D01*
X107210027Y-89837405D01*
X107187187Y-89839519D01*
X107155831Y-89841160D01*
X107114111Y-89842426D01*
X107060176Y-89843414D01*
X106992176Y-89844224D01*
X106908261Y-89844952D01*
X106811182Y-89845664D01*
X106396692Y-89848597D01*
X106396692Y-90101616D01*
X106819211Y-90100734D01*
X106940423Y-90100240D01*
X107043115Y-90099284D01*
X107128298Y-90097841D01*
X107196987Y-90095881D01*
X107250193Y-90093378D01*
X107288930Y-90090304D01*
X107310412Y-90087373D01*
X107387513Y-90066878D01*
X107449601Y-90035404D01*
X107497884Y-89991629D01*
X107533571Y-89934230D01*
X107557872Y-89861886D01*
X107568249Y-89805389D01*
X107571330Y-89772957D01*
X107574056Y-89725044D01*
X107576284Y-89665707D01*
X107577876Y-89599004D01*
X107578692Y-89528990D01*
X107578769Y-89500808D01*
X107578008Y-89396481D01*
X107575591Y-89309532D01*
X107571320Y-89237855D01*
X107564993Y-89179343D01*
X107556411Y-89131890D01*
X107545375Y-89093389D01*
X107538441Y-89075846D01*
X107509548Y-89026496D01*
X107470740Y-88982873D01*
X107428069Y-88951757D01*
X107427346Y-88951376D01*
X107407474Y-88941383D01*
X107388036Y-88932988D01*
X107367159Y-88926031D01*
X107342973Y-88920355D01*
X107313603Y-88915804D01*
X107277179Y-88912219D01*
X107231828Y-88909444D01*
X107175677Y-88907319D01*
X107106855Y-88905689D01*
X107023489Y-88904396D01*
X106923707Y-88903281D01*
X106847016Y-88902559D01*
X106393686Y-88898453D01*
X106399923Y-89067746D01*
G36*
X108281469Y-88900769D02*
G01*
X108208592Y-88902061D01*
X108143961Y-88904187D01*
X108091543Y-88907148D01*
X108060610Y-88910179D01*
X107985005Y-88926059D01*
X107919489Y-88951504D01*
X107867067Y-88985048D01*
X107833658Y-89020824D01*
X107817276Y-89045856D01*
X107803918Y-89070157D01*
X107793278Y-89096004D01*
X107785052Y-89125674D01*
X107778934Y-89161444D01*
X107774618Y-89205589D01*
X107771799Y-89260386D01*
X107770172Y-89328112D01*
X107769431Y-89411044D01*
X107769269Y-89500808D01*
X107769472Y-89599412D01*
X107770287Y-89680757D01*
X107772017Y-89747119D01*
X107774969Y-89800775D01*
X107779447Y-89844001D01*
X107785758Y-89879074D01*
X107794207Y-89908270D01*
X107805099Y-89933866D01*
X107818739Y-89958138D01*
X107833658Y-89980792D01*
X107870048Y-90018690D01*
X107921563Y-90051196D01*
X107984070Y-90076219D01*
X108052577Y-90091547D01*
X108088987Y-90095023D01*
X108140580Y-90097642D01*
X108203805Y-90099426D01*
X108275113Y-90100398D01*
X108350952Y-90100582D01*
X108427773Y-90100001D01*
X108502026Y-90098676D01*
X108570161Y-90096632D01*
X108628627Y-90093892D01*
X108673874Y-90090477D01*
X108697643Y-90087373D01*
X108775755Y-90066275D01*
X108838849Y-90033484D01*
X108887987Y-89987893D01*
X108924232Y-89928393D01*
X108948646Y-89853877D01*
X108955559Y-89818249D01*
X108958881Y-89786557D01*
X108961535Y-89738910D01*
X108963523Y-89678882D01*
X108964844Y-89610044D01*
X108964963Y-89596453D01*
X108691435Y-89596453D01*
X108690972Y-89652537D01*
X108690014Y-89697652D01*
X108688598Y-89728426D01*
X108687657Y-89737895D01*
X108672629Y-89784245D01*
X108644361Y-89818426D01*
X108605015Y-89837842D01*
X108604384Y-89838000D01*
X108584924Y-89840345D01*
X108549230Y-89842275D01*
X108500601Y-89843706D01*
X108442338Y-89844554D01*
X108377742Y-89844737D01*
X108345197Y-89844561D01*
X108271899Y-89843821D01*
X108215513Y-89842808D01*
X108173413Y-89841316D01*
X108142973Y-89839142D01*
X108121568Y-89836080D01*
X108106571Y-89831925D01*
X108095356Y-89826472D01*
X108092824Y-89824875D01*
X108076933Y-89813047D01*
X108064419Y-89799230D01*
X108054883Y-89781079D01*
X108047929Y-89756248D01*
X108043158Y-89722392D01*
X108040174Y-89677165D01*
X108038580Y-89618221D01*
X108037977Y-89543215D01*
X108037923Y-89500808D01*
X108037847Y-89410263D01*
X108038727Y-89337320D01*
X108042221Y-89280058D01*
X108049989Y-89236553D01*
X108063692Y-89204883D01*
X108084988Y-89183124D01*
X108115537Y-89169355D01*
X108156999Y-89161651D01*
X108211033Y-89158090D01*
X108279299Y-89156750D01*
X108335428Y-89156116D01*
X108421740Y-89155509D01*
X108490824Y-89156378D01*
X108544960Y-89159065D01*
X108586426Y-89163913D01*
X108617499Y-89171264D01*
X108640460Y-89181460D01*
X108657586Y-89194845D01*
X108667088Y-89205979D01*
X108673604Y-89215811D01*
X108678633Y-89227301D01*
X108682411Y-89243060D01*
X108685178Y-89265695D01*
X108687171Y-89297814D01*
X108688629Y-89342027D01*
X108689790Y-89400941D01*
X108690726Y-89464864D01*
X108691366Y-89532771D01*
X108691435Y-89596453D01*
X108964963Y-89596453D01*
X108965496Y-89535969D01*
X108965481Y-89460230D01*
X108964796Y-89386400D01*
X108963442Y-89318051D01*
X108961419Y-89258756D01*
X108958725Y-89212086D01*
X108955644Y-89183308D01*
X108936114Y-89102814D01*
X108905222Y-89037563D01*
X108861842Y-88986482D01*
X108804852Y-88948497D01*
X108733127Y-88922537D01*
X108669774Y-88910420D01*
X108630719Y-88906747D01*
X108576110Y-88903897D01*
X108509914Y-88901873D01*
X108436097Y-88900676D01*
X108358627Y-88900307D01*
X108281469Y-88900769D01*
G37*
X108281469Y-88900769D02*
X108208592Y-88902061D01*
X108143961Y-88904187D01*
X108091543Y-88907148D01*
X108060610Y-88910179D01*
X107985005Y-88926059D01*
X107919489Y-88951504D01*
X107867067Y-88985048D01*
X107833658Y-89020824D01*
X107817276Y-89045856D01*
X107803918Y-89070157D01*
X107793278Y-89096004D01*
X107785052Y-89125674D01*
X107778934Y-89161444D01*
X107774618Y-89205589D01*
X107771799Y-89260386D01*
X107770172Y-89328112D01*
X107769431Y-89411044D01*
X107769269Y-89500808D01*
X107769472Y-89599412D01*
X107770287Y-89680757D01*
X107772017Y-89747119D01*
X107774969Y-89800775D01*
X107779447Y-89844001D01*
X107785758Y-89879074D01*
X107794207Y-89908270D01*
X107805099Y-89933866D01*
X107818739Y-89958138D01*
X107833658Y-89980792D01*
X107870048Y-90018690D01*
X107921563Y-90051196D01*
X107984070Y-90076219D01*
X108052577Y-90091547D01*
X108088987Y-90095023D01*
X108140580Y-90097642D01*
X108203805Y-90099426D01*
X108275113Y-90100398D01*
X108350952Y-90100582D01*
X108427773Y-90100001D01*
X108502026Y-90098676D01*
X108570161Y-90096632D01*
X108628627Y-90093892D01*
X108673874Y-90090477D01*
X108697643Y-90087373D01*
X108775755Y-90066275D01*
X108838849Y-90033484D01*
X108887987Y-89987893D01*
X108924232Y-89928393D01*
X108948646Y-89853877D01*
X108955559Y-89818249D01*
X108958881Y-89786557D01*
X108961535Y-89738910D01*
X108963523Y-89678882D01*
X108964844Y-89610044D01*
X108964963Y-89596453D01*
X108691435Y-89596453D01*
X108690972Y-89652537D01*
X108690014Y-89697652D01*
X108688598Y-89728426D01*
X108687657Y-89737895D01*
X108672629Y-89784245D01*
X108644361Y-89818426D01*
X108605015Y-89837842D01*
X108604384Y-89838000D01*
X108584924Y-89840345D01*
X108549230Y-89842275D01*
X108500601Y-89843706D01*
X108442338Y-89844554D01*
X108377742Y-89844737D01*
X108345197Y-89844561D01*
X108271899Y-89843821D01*
X108215513Y-89842808D01*
X108173413Y-89841316D01*
X108142973Y-89839142D01*
X108121568Y-89836080D01*
X108106571Y-89831925D01*
X108095356Y-89826472D01*
X108092824Y-89824875D01*
X108076933Y-89813047D01*
X108064419Y-89799230D01*
X108054883Y-89781079D01*
X108047929Y-89756248D01*
X108043158Y-89722392D01*
X108040174Y-89677165D01*
X108038580Y-89618221D01*
X108037977Y-89543215D01*
X108037923Y-89500808D01*
X108037847Y-89410263D01*
X108038727Y-89337320D01*
X108042221Y-89280058D01*
X108049989Y-89236553D01*
X108063692Y-89204883D01*
X108084988Y-89183124D01*
X108115537Y-89169355D01*
X108156999Y-89161651D01*
X108211033Y-89158090D01*
X108279299Y-89156750D01*
X108335428Y-89156116D01*
X108421740Y-89155509D01*
X108490824Y-89156378D01*
X108544960Y-89159065D01*
X108586426Y-89163913D01*
X108617499Y-89171264D01*
X108640460Y-89181460D01*
X108657586Y-89194845D01*
X108667088Y-89205979D01*
X108673604Y-89215811D01*
X108678633Y-89227301D01*
X108682411Y-89243060D01*
X108685178Y-89265695D01*
X108687171Y-89297814D01*
X108688629Y-89342027D01*
X108689790Y-89400941D01*
X108690726Y-89464864D01*
X108691366Y-89532771D01*
X108691435Y-89596453D01*
X108964963Y-89596453D01*
X108965496Y-89535969D01*
X108965481Y-89460230D01*
X108964796Y-89386400D01*
X108963442Y-89318051D01*
X108961419Y-89258756D01*
X108958725Y-89212086D01*
X108955644Y-89183308D01*
X108936114Y-89102814D01*
X108905222Y-89037563D01*
X108861842Y-88986482D01*
X108804852Y-88948497D01*
X108733127Y-88922537D01*
X108669774Y-88910420D01*
X108630719Y-88906747D01*
X108576110Y-88903897D01*
X108509914Y-88901873D01*
X108436097Y-88900676D01*
X108358627Y-88900307D01*
X108281469Y-88900769D01*
G36*
X109877286Y-88902307D02*
G01*
X109764816Y-88903216D01*
X109670020Y-88904197D01*
X109591033Y-88905457D01*
X109525993Y-88907203D01*
X109473035Y-88909644D01*
X109430295Y-88912987D01*
X109395909Y-88917439D01*
X109368013Y-88923207D01*
X109344743Y-88930499D01*
X109324235Y-88939523D01*
X109304626Y-88950486D01*
X109284051Y-88963595D01*
X109275429Y-88969289D01*
X109221020Y-89016902D01*
X109178094Y-89079497D01*
X109156162Y-89129577D01*
X109147504Y-89165114D01*
X109140666Y-89215044D01*
X109135842Y-89274291D01*
X109133228Y-89337778D01*
X109133018Y-89400427D01*
X109135407Y-89457162D01*
X109140589Y-89502906D01*
X109141625Y-89508533D01*
X109165559Y-89589356D01*
X109203217Y-89656435D01*
X109255307Y-89710581D01*
X109322535Y-89752607D01*
X109371145Y-89772593D01*
X109388690Y-89775567D01*
X109422829Y-89778629D01*
X109470622Y-89781617D01*
X109529125Y-89784370D01*
X109595397Y-89786728D01*
X109659615Y-89788386D01*
X109918500Y-89793885D01*
X109921190Y-89947750D01*
X109923880Y-90101616D01*
X110186966Y-90101616D01*
X110189502Y-89630352D01*
X110190015Y-89535000D01*
X109923806Y-89535000D01*
X109706230Y-89534964D01*
X109634819Y-89534831D01*
X109580181Y-89534317D01*
X109539553Y-89533205D01*
X109510169Y-89531279D01*
X109489265Y-89528321D01*
X109474077Y-89524115D01*
X109461840Y-89518446D01*
X109456660Y-89515421D01*
X109433740Y-89497814D01*
X109418044Y-89475350D01*
X109408338Y-89444288D01*
X109403392Y-89400884D01*
X109401996Y-89349385D01*
X109403483Y-89291807D01*
X109409541Y-89249368D01*
X109421522Y-89217933D01*
X109440776Y-89193369D01*
X109457599Y-89179302D01*
X109467619Y-89172639D01*
X109479100Y-89167605D01*
X109494759Y-89163973D01*
X109517314Y-89161516D01*
X109549481Y-89160006D01*
X109593977Y-89159217D01*
X109653519Y-89158920D01*
X109701829Y-89158885D01*
X109918500Y-89158885D01*
X109921153Y-89346942D01*
X109923806Y-89535000D01*
X110190015Y-89535000D01*
X110192038Y-89159089D01*
X110260423Y-89149218D01*
X110328807Y-89139346D01*
X110331555Y-89019061D01*
X110334303Y-88898777D01*
X109877286Y-88902307D01*
G37*
X109877286Y-88902307D02*
X109764816Y-88903216D01*
X109670020Y-88904197D01*
X109591033Y-88905457D01*
X109525993Y-88907203D01*
X109473035Y-88909644D01*
X109430295Y-88912987D01*
X109395909Y-88917439D01*
X109368013Y-88923207D01*
X109344743Y-88930499D01*
X109324235Y-88939523D01*
X109304626Y-88950486D01*
X109284051Y-88963595D01*
X109275429Y-88969289D01*
X109221020Y-89016902D01*
X109178094Y-89079497D01*
X109156162Y-89129577D01*
X109147504Y-89165114D01*
X109140666Y-89215044D01*
X109135842Y-89274291D01*
X109133228Y-89337778D01*
X109133018Y-89400427D01*
X109135407Y-89457162D01*
X109140589Y-89502906D01*
X109141625Y-89508533D01*
X109165559Y-89589356D01*
X109203217Y-89656435D01*
X109255307Y-89710581D01*
X109322535Y-89752607D01*
X109371145Y-89772593D01*
X109388690Y-89775567D01*
X109422829Y-89778629D01*
X109470622Y-89781617D01*
X109529125Y-89784370D01*
X109595397Y-89786728D01*
X109659615Y-89788386D01*
X109918500Y-89793885D01*
X109921190Y-89947750D01*
X109923880Y-90101616D01*
X110186966Y-90101616D01*
X110189502Y-89630352D01*
X110190015Y-89535000D01*
X109923806Y-89535000D01*
X109706230Y-89534964D01*
X109634819Y-89534831D01*
X109580181Y-89534317D01*
X109539553Y-89533205D01*
X109510169Y-89531279D01*
X109489265Y-89528321D01*
X109474077Y-89524115D01*
X109461840Y-89518446D01*
X109456660Y-89515421D01*
X109433740Y-89497814D01*
X109418044Y-89475350D01*
X109408338Y-89444288D01*
X109403392Y-89400884D01*
X109401996Y-89349385D01*
X109403483Y-89291807D01*
X109409541Y-89249368D01*
X109421522Y-89217933D01*
X109440776Y-89193369D01*
X109457599Y-89179302D01*
X109467619Y-89172639D01*
X109479100Y-89167605D01*
X109494759Y-89163973D01*
X109517314Y-89161516D01*
X109549481Y-89160006D01*
X109593977Y-89159217D01*
X109653519Y-89158920D01*
X109701829Y-89158885D01*
X109918500Y-89158885D01*
X109921153Y-89346942D01*
X109923806Y-89535000D01*
X110190015Y-89535000D01*
X110192038Y-89159089D01*
X110260423Y-89149218D01*
X110328807Y-89139346D01*
X110331555Y-89019061D01*
X110334303Y-88898777D01*
X109877286Y-88902307D01*
G36*
X111371673Y-88900170D02*
G01*
X111261433Y-88900421D01*
X111168758Y-88901200D01*
X111091677Y-88902704D01*
X111028220Y-88905133D01*
X110976415Y-88908683D01*
X110934293Y-88913553D01*
X110899881Y-88919941D01*
X110871209Y-88928045D01*
X110846307Y-88938063D01*
X110823204Y-88950194D01*
X110812974Y-88956331D01*
X110756691Y-89002149D01*
X110714780Y-89060339D01*
X110688006Y-89129255D01*
X110677134Y-89207248D01*
X110677806Y-89247720D01*
X110687222Y-89309084D01*
X110706104Y-89366692D01*
X110732243Y-89415267D01*
X110761700Y-89448169D01*
X110777807Y-89463541D01*
X110778047Y-89472115D01*
X110774024Y-89474215D01*
X110753076Y-89487052D01*
X110725616Y-89510852D01*
X110696478Y-89540673D01*
X110670500Y-89571574D01*
X110652811Y-89598061D01*
X110643327Y-89618412D01*
X110637132Y-89640236D01*
X110633564Y-89668277D01*
X110631963Y-89707276D01*
X110631653Y-89749923D01*
X110632245Y-89802483D01*
X110634462Y-89840539D01*
X110638968Y-89869103D01*
X110646429Y-89893186D01*
X110652534Y-89907427D01*
X110693115Y-89972732D01*
X110748114Y-90025389D01*
X110816382Y-90064563D01*
X110896774Y-90089421D01*
X110904544Y-90090923D01*
X110930653Y-90093796D01*
X110974844Y-90096274D01*
X111035664Y-90098323D01*
X111111661Y-90099908D01*
X111201381Y-90100994D01*
X111303371Y-90101549D01*
X111356371Y-90101616D01*
X111750230Y-90101616D01*
X111750230Y-89847616D01*
X111476692Y-89847616D01*
X111230019Y-89847600D01*
X111152386Y-89847451D01*
X111091745Y-89846912D01*
X111045552Y-89845828D01*
X111011263Y-89844044D01*
X110986332Y-89841404D01*
X110968216Y-89837755D01*
X110954370Y-89832941D01*
X110949153Y-89830504D01*
X110917649Y-89804553D01*
X110899133Y-89766865D01*
X110895029Y-89721451D01*
X110900060Y-89692227D01*
X110906238Y-89671492D01*
X110913808Y-89655029D01*
X110924946Y-89642311D01*
X110941824Y-89632813D01*
X110966617Y-89626007D01*
X111001499Y-89621366D01*
X111048643Y-89618364D01*
X111110224Y-89616474D01*
X111188415Y-89615170D01*
X111219799Y-89614758D01*
X111476692Y-89611477D01*
X111476692Y-89847616D01*
X111750230Y-89847616D01*
X111750230Y-89163769D01*
X111476692Y-89163769D01*
X111476692Y-89369894D01*
X111236484Y-89366966D01*
X110996277Y-89364039D01*
X110972715Y-89336628D01*
X110952337Y-89299214D01*
X110948084Y-89257308D01*
X110959748Y-89216918D01*
X110977710Y-89192326D01*
X111006266Y-89163769D01*
X111476692Y-89163769D01*
X111750230Y-89163769D01*
X111750230Y-88900000D01*
X111371673Y-88900170D01*
G37*
X111371673Y-88900170D02*
X111261433Y-88900421D01*
X111168758Y-88901200D01*
X111091677Y-88902704D01*
X111028220Y-88905133D01*
X110976415Y-88908683D01*
X110934293Y-88913553D01*
X110899881Y-88919941D01*
X110871209Y-88928045D01*
X110846307Y-88938063D01*
X110823204Y-88950194D01*
X110812974Y-88956331D01*
X110756691Y-89002149D01*
X110714780Y-89060339D01*
X110688006Y-89129255D01*
X110677134Y-89207248D01*
X110677806Y-89247720D01*
X110687222Y-89309084D01*
X110706104Y-89366692D01*
X110732243Y-89415267D01*
X110761700Y-89448169D01*
X110777807Y-89463541D01*
X110778047Y-89472115D01*
X110774024Y-89474215D01*
X110753076Y-89487052D01*
X110725616Y-89510852D01*
X110696478Y-89540673D01*
X110670500Y-89571574D01*
X110652811Y-89598061D01*
X110643327Y-89618412D01*
X110637132Y-89640236D01*
X110633564Y-89668277D01*
X110631963Y-89707276D01*
X110631653Y-89749923D01*
X110632245Y-89802483D01*
X110634462Y-89840539D01*
X110638968Y-89869103D01*
X110646429Y-89893186D01*
X110652534Y-89907427D01*
X110693115Y-89972732D01*
X110748114Y-90025389D01*
X110816382Y-90064563D01*
X110896774Y-90089421D01*
X110904544Y-90090923D01*
X110930653Y-90093796D01*
X110974844Y-90096274D01*
X111035664Y-90098323D01*
X111111661Y-90099908D01*
X111201381Y-90100994D01*
X111303371Y-90101549D01*
X111356371Y-90101616D01*
X111750230Y-90101616D01*
X111750230Y-89847616D01*
X111476692Y-89847616D01*
X111230019Y-89847600D01*
X111152386Y-89847451D01*
X111091745Y-89846912D01*
X111045552Y-89845828D01*
X111011263Y-89844044D01*
X110986332Y-89841404D01*
X110968216Y-89837755D01*
X110954370Y-89832941D01*
X110949153Y-89830504D01*
X110917649Y-89804553D01*
X110899133Y-89766865D01*
X110895029Y-89721451D01*
X110900060Y-89692227D01*
X110906238Y-89671492D01*
X110913808Y-89655029D01*
X110924946Y-89642311D01*
X110941824Y-89632813D01*
X110966617Y-89626007D01*
X111001499Y-89621366D01*
X111048643Y-89618364D01*
X111110224Y-89616474D01*
X111188415Y-89615170D01*
X111219799Y-89614758D01*
X111476692Y-89611477D01*
X111476692Y-89847616D01*
X111750230Y-89847616D01*
X111750230Y-89163769D01*
X111476692Y-89163769D01*
X111476692Y-89369894D01*
X111236484Y-89366966D01*
X110996277Y-89364039D01*
X110972715Y-89336628D01*
X110952337Y-89299214D01*
X110948084Y-89257308D01*
X110959748Y-89216918D01*
X110977710Y-89192326D01*
X111006266Y-89163769D01*
X111476692Y-89163769D01*
X111750230Y-89163769D01*
X111750230Y-88900000D01*
X111371673Y-88900170D01*
G36*
X112268000Y-90619385D02*
G01*
X114632153Y-90619385D01*
X114632153Y-87180616D01*
X114368384Y-87180616D01*
X114368384Y-90355616D01*
X112531769Y-90355616D01*
X112531769Y-87180616D01*
X114368384Y-87180616D01*
X114632153Y-87180616D01*
X114632153Y-86926616D01*
X112268000Y-86926616D01*
X112268000Y-90619385D01*
G37*
X112268000Y-90619385D02*
X114632153Y-90619385D01*
X114632153Y-87180616D01*
X114368384Y-87180616D01*
X114368384Y-90355616D01*
X112531769Y-90355616D01*
X112531769Y-87180616D01*
X114368384Y-87180616D01*
X114632153Y-87180616D01*
X114632153Y-86926616D01*
X112268000Y-86926616D01*
X112268000Y-90619385D01*
D15*
X66460595Y-60650380D02*
X66460595Y-59650380D01*
X66222500Y-59650380D01*
X66079642Y-59698000D01*
X65984404Y-59793238D01*
X65936785Y-59888476D01*
X65889166Y-60078952D01*
X65889166Y-60221809D01*
X65936785Y-60412285D01*
X65984404Y-60507523D01*
X66079642Y-60602761D01*
X66222500Y-60650380D01*
X66460595Y-60650380D01*
X65032023Y-59650380D02*
X65222500Y-59650380D01*
X65317738Y-59698000D01*
X65365357Y-59745619D01*
X65460595Y-59888476D01*
X65508214Y-60078952D01*
X65508214Y-60459904D01*
X65460595Y-60555142D01*
X65412976Y-60602761D01*
X65317738Y-60650380D01*
X65127261Y-60650380D01*
X65032023Y-60602761D01*
X64984404Y-60555142D01*
X64936785Y-60459904D01*
X64936785Y-60221809D01*
X64984404Y-60126571D01*
X65032023Y-60078952D01*
X65127261Y-60031333D01*
X65317738Y-60031333D01*
X65412976Y-60078952D01*
X65460595Y-60126571D01*
X65508214Y-60221809D01*
X73953595Y-60602380D02*
X73953595Y-59602380D01*
X73715500Y-59602380D01*
X73572642Y-59650000D01*
X73477404Y-59745238D01*
X73429785Y-59840476D01*
X73382166Y-60030952D01*
X73382166Y-60173809D01*
X73429785Y-60364285D01*
X73477404Y-60459523D01*
X73572642Y-60554761D01*
X73715500Y-60602380D01*
X73953595Y-60602380D01*
X73048833Y-59602380D02*
X72382166Y-59602380D01*
X72810738Y-60602380D01*
X82145095Y-60602380D02*
X82145095Y-59602380D01*
X81907000Y-59602380D01*
X81764142Y-59650000D01*
X81668904Y-59745238D01*
X81621285Y-59840476D01*
X81573666Y-60030952D01*
X81573666Y-60173809D01*
X81621285Y-60364285D01*
X81668904Y-60459523D01*
X81764142Y-60554761D01*
X81907000Y-60602380D01*
X82145095Y-60602380D01*
X80621285Y-60602380D02*
X81192714Y-60602380D01*
X80907000Y-60602380D02*
X80907000Y-59602380D01*
X81002238Y-59745238D01*
X81097476Y-59840476D01*
X81192714Y-59888095D01*
M02*
