M48
; DRILL file {KiCad (5.1.9)-1} date 07/06/21 15:30:50
; FORMAT={-:-/ absolute / inch / decimal}
; #@! TF.CreationDate,2021-07-06T15:30:50+07:00
; #@! TF.GenerationSoftware,Kicad,Pcbnew,(5.1.9)-1
; #@! TF.FileFunction,Plated,1,4,PTH
FMAT,2
INCH
T1C0.0118
T2C0.0157
T3C0.0315
T4C0.0350
T5C0.0394
T6C0.0402
T7C0.0433
T8C0.0472
T9C0.0512
T10C0.0642
T11C0.1693
%
G90
G05
T1
X2.3843Y-4.1862
X2.3843Y-4.3437
X2.3843Y-4.4381
X2.3843Y-4.5326
X2.3843Y-4.6271
X2.3843Y-4.7531
X2.3843Y-4.8476
X2.3843Y-4.9421
X2.3843Y-5.0366
X2.3843Y-5.1311
X2.3975Y-4.2675
X2.4158Y-5.1941
X2.4473Y-4.3122
X2.4473Y-4.4067
X2.4473Y-4.5011
X2.4473Y-4.5956
X2.4473Y-4.8791
X2.4473Y-5.0681
X2.4625Y-4.19
X2.4675Y-3.95
X2.4788Y-4.9421
X2.4788Y-5.1311
X2.5025Y-4.185
X2.51Y-4.0375
X2.5103Y-4.4381
X2.5103Y-4.5326
X2.5103Y-4.6271
X2.5103Y-5.1941
X2.5125Y-4.07
X2.515Y-4.1225
X2.515Y-4.155
X2.5418Y-4.6901
X2.5733Y-5.1311
X2.595Y-4.295
X2.6025Y-3.92
X2.6048Y-4.6271
X2.6048Y-4.7216
X2.6048Y-5.1941
X2.6055Y-4.078
X2.6055Y-4.1075
X2.6055Y-4.1375
X2.6125Y-2.56
X2.62Y-3.08
X2.62Y-3.115
X2.62Y-3.15
X2.62Y-3.185
X2.62Y-3.22
X2.62Y-3.255
X2.62Y-3.29
X2.62Y-3.325
X2.62Y-3.36
X2.62Y-3.395
X2.62Y-3.43
X2.62Y-3.465
X2.62Y-3.5
X2.62Y-3.535
X2.62Y-3.57
X2.62Y-3.605
X2.627Y-4.296
X2.6275Y-2.685
X2.635Y-4.078
X2.635Y-4.1075
X2.635Y-4.1375
X2.6363Y-4.7846
X2.6363Y-4.9421
X2.64Y-3.845
X2.655Y-3.585
X2.6585Y-4.2955
X2.665Y-4.078
X2.6655Y-4.1075
X2.6655Y-4.1375
X2.6675Y-2.725
X2.6678Y-4.6586
X2.6678Y-5.1311
X2.67Y-2.5775
X2.675Y-2.89
X2.69Y-3.85
X2.69Y-4.2955
X2.6993Y-4.7216
X2.6993Y-4.8791
X2.6993Y-4.9736
X2.6993Y-5.1941
X2.7Y-2.685
X2.705Y-3.1375
X2.7125Y-3.1025
X2.7308Y-4.6271
X2.7325Y-2.6975
X2.7325Y-2.91
X2.745Y-2.545
X2.745Y-3.1675
X2.755Y-4.105
X2.755Y-4.14
X2.7623Y-4.8161
X2.7623Y-4.9106
X2.7623Y-5.1311
X2.7625Y-2.685
X2.7625Y-4.2
X2.7725Y-3.7575
X2.785Y-3.885
X2.7938Y-5.1941
X2.825Y-2.65
X2.8252Y-2.7059
X2.8252Y-4.6271
X2.8252Y-5.0366
X2.83Y-3.6025
X2.835Y-2.9225
X2.8425Y-3.11
X2.855Y-2.9475
X2.8567Y-3.2413
X2.8567Y-3.5248
X2.8567Y-4.3752
X2.8567Y-5.1311
X2.8675Y-3.13
X2.88Y-3.315
X2.88Y-3.35
X2.88Y-3.385
X2.88Y-3.42
X2.88Y-3.455
X2.8825Y-3.89
X2.8882Y-5.1941
X2.8925Y-2.89
X2.8925Y-4.295
X2.9025Y-4.135
X2.905Y-3.6175
X2.905Y-4.3325
X2.91Y-3.935
X2.915Y-3.315
X2.915Y-3.35
X2.915Y-3.385
X2.915Y-3.42
X2.915Y-3.455
X2.9197Y-3.1783
X2.9197Y-3.5563
X2.9197Y-4.7216
X2.9197Y-4.9106
X2.9375Y-2.8925
X2.9475Y-4.3
X2.95Y-3.315
X2.95Y-3.35
X2.95Y-3.385
X2.95Y-3.42
X2.95Y-3.455
X2.9512Y-3.2413
X2.9512Y-3.7452
X2.9512Y-5.1311
X2.955Y-3.6175
X2.9725Y-2.8925
X2.9775Y-4.37
X2.9827Y-3.5248
X2.9827Y-4.4381
X2.9827Y-4.6586
X2.9827Y-4.9421
X2.9827Y-5.1941
X2.985Y-3.315
X2.985Y-3.35
X2.985Y-3.385
X2.985Y-3.42
X2.985Y-3.455
X3.005Y-4.2375
X3.0075Y-2.805
X3.0075Y-2.8925
X3.0142Y-2.4854
X3.0142Y-3.1783
X3.0142Y-5.0681
X3.02Y-3.0825
X3.02Y-3.315
X3.02Y-3.35
X3.02Y-3.385
X3.02Y-3.42
X3.02Y-3.455
X3.035Y-4.37
X3.04Y-4.135
X3.0457Y-3.2413
X3.0457Y-4.5956
X3.0457Y-4.9106
X3.0457Y-5.1311
X3.0772Y-1.8555
X3.0772Y-1.95
X3.0772Y-3.1468
X3.0772Y-3.3043
X3.0772Y-3.3988
X3.0772Y-3.4933
X3.0772Y-4.4381
X3.0772Y-4.5326
X3.0772Y-4.7846
X3.0772Y-4.9736
X3.0772Y-5.1941
X3.105Y-3.0975
X3.105Y-3.7475
X3.1087Y-2.4854
X3.1087Y-3.2098
X3.1087Y-3.9342
X3.1087Y-4.2807
X3.1087Y-4.8476
X3.1087Y-5.0366
X3.1402Y-1.887
X3.1402Y-1.9815
X3.1402Y-3.2728
X3.1402Y-3.3673
X3.1402Y-3.5878
X3.1402Y-4.6901
X3.1402Y-4.9106
X3.1402Y-5.0996
X3.155Y-3.7475
X3.155Y-3.83
X3.17Y-2.405
X3.1717Y-4.7531
X3.1717Y-4.9736
X3.1717Y-5.1626
X3.175Y-2.945
X3.2032Y-1.8555
X3.2032Y-1.95
X3.2032Y-2.2019
X3.2032Y-4.8791
X3.2032Y-5.0366
X3.205Y-3.7475
X3.215Y-3.57
X3.225Y-3.07
X3.2347Y-4.1862
X3.2347Y-4.2807
X3.2347Y-5.1311
X3.25Y-3.4175
X3.2662Y-1.887
X3.2662Y-1.9815
X3.2662Y-5.1941
X3.275Y-3.17
X3.283Y-3.5695
X3.285Y-3.615
X3.2977Y-2.0444
X3.2977Y-2.4854
X3.3292Y-1.8555
X3.3292Y-1.95
X3.3292Y-5.1626
X3.355Y-2.43
X3.36Y-2.375
X3.3607Y-2.1389
X3.3607Y-2.5169
X3.3607Y-2.6114
X3.3607Y-2.7059
X3.3922Y-1.887
X3.3922Y-1.9815
X3.3922Y-2.2019
X3.3922Y-5.1941
X3.4237Y-2.1074
X3.4425Y-3.72
X3.4475Y-3.29
X3.455Y-2.47
X3.4552Y-1.8555
X3.4552Y-1.95
X3.4552Y-3.3988
X3.4552Y-4.1862
X3.4552Y-4.2807
X3.4552Y-4.3752
X3.4552Y-4.4696
X3.4575Y-3.69
X3.465Y-2.32
X3.4867Y-3.1153
X3.5182Y-1.887
X3.5182Y-2.2964
X3.5182Y-4.8476
X3.5182Y-5.1941
X3.5275Y-3.69
X3.5497Y-1.95
X3.5497Y-2.0444
X3.5497Y-2.1389
X3.5497Y-2.2334
X3.5525Y-3.7175
X3.555Y-3.755
X3.5812Y-1.8555
X3.5812Y-2.3279
X3.5812Y-4.8791
X3.5975Y-2.46
X3.6087Y-4.0099
X3.6087Y-4.0611
X3.6126Y-1.9185
X3.6126Y-2.013
X3.6126Y-2.1074
X3.6126Y-2.2019
X3.6126Y-5.1941
X3.6175Y-3.41
X3.6175Y-3.4625
X3.63Y-3.75
X3.6441Y-2.2649
X3.6441Y-3.5248
X3.6441Y-4.6586
X3.6441Y-4.8476
X3.6525Y-3.3075
X3.6599Y-4.0099
X3.6599Y-4.0611
X3.6625Y-3.75
X3.6745Y-3.1545
X3.6756Y-1.8555
X3.6756Y-1.95
X3.6756Y-4.4067
X3.6756Y-4.5011
X3.6756Y-4.5956
X3.69Y-3.4525
X3.7071Y-2.013
X3.7071Y-2.2964
X3.7071Y-5.1941
X3.7111Y-4.0099
X3.7111Y-4.0611
X3.7386Y-1.887
X3.7386Y-2.0759
X3.7525Y-3.3175
X3.76Y-2.955
X3.7623Y-4.0099
X3.7623Y-4.0611
X3.7675Y-3.5125
X3.77Y-3.5625
X3.7701Y-1.95
X3.7701Y-2.1389
X3.8016Y-1.8555
X3.8016Y-2.013
X3.8016Y-5.1941
X3.8331Y-1.9185
X3.8331Y-2.2649
X3.8331Y-3.6507
X3.835Y-3.2825
X3.8646Y-1.9815
X3.8646Y-4.2177
X3.89Y-2.8975
X3.89Y-2.9775
X3.8961Y-1.8555
X3.8961Y-2.2964
X3.8961Y-2.4854
X3.8961Y-3.5878
X3.8961Y-4.2807
X3.8961Y-4.3752
X3.8961Y-4.4696
X3.9125Y-2.9225
X3.9175Y-3.08
X3.9175Y-3.655
X3.9276Y-1.9185
X3.9276Y-2.013
X3.9276Y-2.1704
X3.9276Y-2.3594
X3.9276Y-4.1862
X3.93Y-3.9875
X3.935Y-3.76
X3.9375Y-3.8925
X3.9375Y-3.93
X3.9591Y-2.0759
X3.9591Y-2.2334
X3.9591Y-4.2492
X3.9591Y-4.3437
X3.9906Y-1.8555
X3.9906Y-1.95
X3.9906Y-2.1389
X3.9906Y-2.2964
X3.9906Y-3.5878
X4.0061Y-3.0886
X4.0075Y-3.1475
X4.015Y-2.9325
X4.0175Y-2.7575
X4.0221Y-2.013
X4.0221Y-2.2019
X4.0221Y-2.3594
X4.0221Y-4.3122
X4.04Y-3.7725
X4.045Y-3.89
X4.0475Y-2.67
X4.0475Y-2.745
X4.05Y-3.96
X4.05Y-4.03
X4.05Y-4.07
X4.05Y-4.1075
X4.0536Y-1.887
X4.0536Y-2.0759
X4.0536Y-2.2649
X4.06Y-3.155
X4.0625Y-3.6175
X4.07Y-2.92
X4.07Y-3.0
X4.07Y-3.08
X4.07Y-2.475
X4.08Y-2.7425
X4.08Y-3.235
X4.0851Y-1.95
X4.0851Y-2.1389
X4.0851Y-2.3279
X4.0851Y-4.3437
X4.0925Y-2.67
X4.1Y-3.1475
X4.105Y-3.3225
X4.11Y-2.96
X4.11Y-3.04
X4.1125Y-2.695
X4.1166Y-1.8555
X4.1166Y-2.013
X4.1166Y-3.4933
X4.1166Y-4.2492
X4.1175Y-3.7575
X4.1175Y-5.1225
X4.13Y-3.24
X4.135Y-3.4275
X4.135Y-3.545
X4.1481Y-1.9185
X4.1481Y-2.4854
X4.1481Y-4.7216
X4.15Y-2.92
X4.15Y-3.0
X4.15Y-3.08
X4.15Y-3.265
X4.1796Y-1.9815
X4.1796Y-2.2649
X4.18Y-2.7675
X4.1825Y-3.265
X4.19Y-2.96
X4.19Y-3.04
X4.21Y-3.2475
X4.21Y-3.31
X4.2111Y-1.8555
X4.2111Y-2.0444
X4.2111Y-2.3279
X4.2111Y-5.1225
X4.2225Y-3.2775
X4.225Y-2.7675
X4.23Y-2.92
X4.23Y-3.0
X4.23Y-3.08
X4.2426Y-1.9185
X4.2426Y-2.1074
X4.2426Y-2.4854
X4.2426Y-2.7059
X4.2475Y-3.64
X4.2575Y-3.405
X4.265Y-3.72
X4.2741Y-1.9815
X4.2741Y-2.2649
X4.2775Y-3.2325
X4.3056Y-1.8555
X4.3056Y-2.0444
X4.3056Y-2.1389
X4.3075Y-5.1225
X4.315Y-3.405
X4.32Y-4.045
X4.3225Y-3.575
X4.3225Y-3.6175
X4.3371Y-1.9185
X4.3371Y-2.4854
X4.3371Y-4.3122
X4.355Y-4.045
X4.3686Y-1.9815
X4.38Y-3.405
X4.39Y-2.91
X4.398Y-3.939
X4.4001Y-1.8555
X4.4001Y-2.2649
X4.4001Y-3.5878
X4.4001Y-4.4381
X4.4001Y-5.1626
X4.4125Y-3.405
X4.415Y-3.135
X4.4315Y-2.1074
X4.4315Y-2.2019
X4.4315Y-3.5248
X4.4525Y-3.97
X4.4525Y-4.0425
X4.463Y-5.1941
X4.465Y-3.405
X4.4775Y-4.885
X4.48Y-4.4375
X4.485Y-3.6225
X4.4945Y-2.1704
X4.4945Y-4.3122
X4.515Y-3.2075
X4.525Y-4.015
X4.526Y-2.2334
X4.526Y-3.4303
X4.53Y-3.8725
X4.53Y-3.9075
X4.5575Y-3.2728
X4.5575Y-4.4696
X4.5575Y-5.1941
X4.56Y-4.3
X4.5675Y-3.5125
X4.58Y-2.1675
X4.58Y-2.2025
X4.58Y-2.24
X4.585Y-4.12
X4.589Y-3.3988
X4.589Y-4.9736
X4.589Y-5.0681
X4.595Y-2.9925
X4.5975Y-3.7925
X4.6075Y-2.145
X4.6075Y-2.26
X4.6225Y-3.0175
X4.6225Y-3.05
X4.6225Y-3.0825
X4.6225Y-4.695
X4.6325Y-2.9775
X4.6425Y-3.78
X4.6475Y-2.145
X4.6475Y-2.26
X4.652Y-4.4696
X4.652Y-4.9106
X4.652Y-5.0996
X4.652Y-5.1941
X4.6833Y-4.5295
X4.6835Y-2.2019
X4.7Y-4.7375
X4.7025Y-2.51
X4.7025Y-2.565
X4.71Y-4.8175
X4.715Y-1.8555
X4.715Y-4.9736
X4.715Y-5.0681
X4.715Y-5.1626
X4.7167Y-4.5295
X4.7275Y-2.5375
X4.7465Y-1.9185
X4.7465Y-2.0444
X4.7465Y-2.8004
X4.7465Y-4.4381
X4.7525Y-2.51
X4.7525Y-2.565
X4.76Y-2.7225
X4.775Y-2.61
X4.775Y-2.645
X4.775Y-2.6775
X4.7775Y-4.3375
X4.778Y-1.9815
X4.778Y-4.5326
X4.778Y-5.0051
X4.778Y-5.0996
X4.778Y-5.1941
X4.8Y-4.67
X4.8095Y-1.8555
X4.8095Y-4.8161
X4.841Y-1.9185
X4.841Y-2.013
X4.841Y-3.2098
X4.841Y-3.3043
X4.841Y-3.3988
X4.841Y-3.4933
X4.841Y-3.5878
X4.841Y-3.6822
X4.841Y-5.0681
X4.841Y-5.1626
X4.8625Y-3.8125
X4.8725Y-2.0759
X4.8725Y-3.7452
X4.8725Y-4.6586
X4.8725Y-4.7531
X4.8725Y-4.8476
X4.904Y-1.8555
X4.904Y-1.95
X4.904Y-3.2413
X4.904Y-3.3358
X4.904Y-3.4303
X4.904Y-3.5248
X4.904Y-3.6193
X4.904Y-4.9736
X4.904Y-5.1941
X4.9355Y-2.013
X4.9355Y-3.6822
X4.9355Y-3.7767
X4.9355Y-4.6901
X4.9355Y-4.7846
X4.9355Y-5.0366
X4.967Y-1.887
X4.967Y-2.0759
X4.967Y-2.8633
X4.967Y-3.2098
X4.967Y-3.3043
X4.967Y-3.3988
X4.967Y-3.4933
X4.967Y-3.5878
X4.967Y-4.8476
T2
X2.3725Y-4.12
X2.41Y-3.9625
X2.445Y-3.895
X2.498Y-4.2695
X2.5375Y-4.3725
X2.7375Y-2.5
X2.785Y-2.7725
X2.785Y-2.805
X2.795Y-2.5425
X2.805Y-2.5
X2.8175Y-2.7725
X2.8175Y-2.805
X2.8225Y-4.295
X2.8325Y-3.9075
X2.85Y-2.7725
X2.85Y-2.805
X2.88Y-3.805
X3.0475Y-2.5625
X3.0475Y-2.6025
X3.0475Y-2.645
X3.0475Y-2.6875
X3.05Y-2.895
X3.0925Y-2.6875
X3.095Y-2.895
X3.105Y-4.2
X3.1275Y-4.015
X3.1375Y-2.6875
X3.15Y-4.3975
X3.15Y-4.4375
X3.15Y-4.4775
X3.15Y-4.5175
X3.15Y-4.5575
X3.15Y-4.5975
X3.1525Y-4.3525
X3.16Y-3.91
X3.16Y-3.96
X3.16Y-4.01
X3.16Y-4.06
X3.16Y-4.11
X3.16Y-4.16
X3.16Y-4.21
X3.16Y-4.26
X3.16Y-4.31
X3.16Y-4.635
X3.1825Y-2.6875
X3.195Y-3.8775
X3.1975Y-4.655
X3.21Y-4.11
X3.225Y-2.3425
X3.225Y-2.6875
X3.23Y-3.85
X3.23Y-4.6825
X3.23Y-4.7225
X3.23Y-4.765
X3.2375Y-4.805
X3.255Y-2.185
X3.26Y-4.11
X3.26Y-4.8375
X3.2675Y-3.82
X3.27Y-2.5625
X3.27Y-2.6025
X3.27Y-2.645
X3.27Y-2.6875
X3.285Y-4.97
X3.285Y-5.02
X3.285Y-5.07
X3.295Y-4.93
X3.295Y-5.11
X3.3Y-4.8425
X3.335Y-4.93
X3.335Y-5.11
X3.34Y-4.8425
X3.3425Y-4.71
X3.3425Y-4.7425
X3.375Y-4.71
X3.375Y-4.7425
X3.375Y-4.93
X3.375Y-5.11
X3.38Y-4.8425
X3.4Y-2.9325
X3.4Y-2.965
X3.4075Y-4.71
X3.4075Y-4.7425
X3.415Y-4.93
X3.415Y-5.11
X3.42Y-2.59
X3.42Y-2.63
X3.42Y-2.67
X3.42Y-2.71
X3.42Y-2.75
X3.42Y-4.8425
X3.4325Y-2.9325
X3.4325Y-2.965
X3.4475Y-3.3475
X3.46Y-2.59
X3.46Y-2.63
X3.46Y-2.67
X3.46Y-2.71
X3.46Y-2.75
X3.46Y-4.11
X3.46Y-4.8425
X3.46Y-4.93
X3.46Y-4.97
X3.46Y-5.01
X3.46Y-5.05
X3.46Y-5.09
X3.46Y-5.13
X3.46Y-5.17
X3.465Y-2.9325
X3.465Y-2.965
X3.4725Y-3.51
X3.475Y-2.85
X3.475Y-2.89
X3.5Y-2.59
X3.5Y-2.63
X3.5Y-2.67
X3.5Y-2.71
X3.5Y-2.75
X3.51Y-4.11
X3.5175Y-4.3575
X3.52Y-4.2
X3.52Y-4.25
X3.52Y-4.3
X3.52Y-4.635
X3.54Y-2.59
X3.54Y-2.63
X3.54Y-2.67
X3.54Y-2.71
X3.54Y-2.75
X3.56Y-4.11
X3.565Y-4.2
X3.565Y-4.25
X3.565Y-4.3
X3.565Y-4.38
X3.565Y-4.5
X3.565Y-4.54
X3.565Y-4.58
X3.565Y-4.62
X3.5925Y-2.685
X3.5925Y-2.7175
X3.5925Y-2.75
X3.5925Y-2.8775
X3.5925Y-2.91
X3.595Y-3.315
X3.61Y-4.2
X3.6225Y-4.295
X3.6225Y-4.3325
X3.625Y-2.685
X3.625Y-2.7175
X3.625Y-2.75
X3.625Y-2.8775
X3.625Y-2.91
X3.6975Y-3.75
X3.71Y-3.8775
X3.7425Y-2.6275
X3.7425Y-2.66
X3.75Y-2.8225
X3.75Y-2.855
X3.755Y-2.995
X3.765Y-3.095
X3.7775Y-2.6275
X3.7775Y-2.66
X3.8Y-3.85
X3.8145Y-3.167
X3.8375Y-3.3475
X3.85Y-2.8
X3.86Y-2.42
X3.8775Y-4.11
X3.8825Y-3.3025
X3.92Y-3.365
X3.9374Y-4.1276
X3.9475Y-3.1975
X3.95Y-4.4
X3.95Y-4.44
X3.95Y-4.48
X3.95Y-4.52
X3.9562Y-3.2763
X4.0Y-4.4
X4.05Y-4.4
X4.1Y-4.4
X4.1Y-4.44
X4.17Y-3.8875
X4.18Y-2.71
X4.18Y-4.65
X4.22Y-4.7925
X4.2225Y-4.505
X4.225Y-3.74
X4.265Y-4.65
X4.265Y-4.75
X4.265Y-4.8075
X4.2725Y-3.305
X4.2975Y-2.67
X4.335Y-4.64
X4.34Y-4.175
X4.35Y-4.8425
X4.35Y-4.8725
X4.37Y-4.9325
X4.37Y-5.0525
X4.38Y-4.8425
X4.38Y-4.8725
X4.385Y-3.1975
X4.39Y-2.77
X4.3975Y-2.71
X4.4Y-2.42
X4.41Y-4.9325
X4.41Y-5.0525
X4.45Y-4.9325
X4.45Y-5.0525
X4.455Y-2.78
X4.455Y-3.2075
X4.49Y-4.9325
X4.49Y-5.0525
X4.4925Y-4.7
X4.4975Y-2.36
X4.4975Y-2.54
X4.5025Y-2.3225
X4.5025Y-2.405
X4.5025Y-2.45
X4.5025Y-2.4975
X4.5275Y-4.835
X4.53Y-4.9725
X4.53Y-5.0125
X4.535Y-2.3475
X4.535Y-2.5475
X4.555Y-2.82
X4.5625Y-2.3225
X4.59Y-2.3475
X4.59Y-2.5475
X4.6025Y-4.5575
X4.6175Y-2.3225
X4.6275Y-4.8275
X4.6375Y-2.3575
X4.6375Y-2.405
X4.6375Y-2.45
X4.6375Y-2.4975
X4.6375Y-2.545
X4.645Y-4.14
X4.6575Y-3.89
X4.66Y-2.8625
X4.66Y-2.895
X4.66Y-2.9275
X4.6925Y-2.8625
X4.6925Y-2.895
X4.6925Y-2.9275
X4.735Y-2.1025
X4.735Y-2.135
X4.7675Y-2.1025
X4.7675Y-2.135
X4.8Y-2.1025
X4.8Y-2.135
X4.8875Y-4.14
X4.895Y-2.725
X4.895Y-2.7575
X4.9275Y-2.725
X4.9275Y-2.7575
X4.9325Y-2.135
X4.9875Y-2.2025
T3
X3.675Y-2.2035
X3.775Y-2.2035
X3.875Y-2.2035
X4.1625Y-2.2035
X4.2625Y-2.2035
X4.3625Y-2.2035
T4
X2.5773Y-4.565
X2.6273Y-4.465
X2.6773Y-4.565
X2.7273Y-4.465
X2.7773Y-4.565
X2.8273Y-4.465
X2.8773Y-4.565
X2.9273Y-4.465
T5
X3.4875Y-2.025
X3.4875Y-2.125
X4.575Y-3.335
X4.8375Y-3.0375
X4.8375Y-3.1375
X4.8375Y-3.8875
X4.8375Y-3.9875
X4.8375Y-4.0875
X4.8375Y-4.1875
X4.8375Y-4.2875
X4.8375Y-4.3875
X4.8375Y-4.4875
X4.8375Y-4.5875
X4.9375Y-3.0375
X4.9375Y-3.1375
X4.9375Y-3.8875
X4.9375Y-3.9875
X4.9375Y-4.0875
X4.9375Y-4.1875
X4.9375Y-4.2875
X4.9375Y-4.3875
X4.9375Y-4.4875
X4.9375Y-4.5875
T6
X2.4917Y-5.0079
X2.5917Y-5.0079
X2.9133Y-5.0079
X3.0133Y-5.0079
T7
X3.675Y-2.1
X3.875Y-2.1
X4.1625Y-2.1
X4.3625Y-2.1
T8
X2.5266Y-2.085
X2.6644Y-2.085
X2.8022Y-2.085
X2.94Y-2.085
X3.0772Y-2.085
X3.215Y-2.085
T9
X3.375Y-5.025
X3.575Y-5.025
T10
X2.4476Y-4.6949
X3.0574Y-4.6949
T11
X4.5775Y-1.985
T0
M30
