G04 #@! TF.GenerationSoftware,KiCad,Pcbnew,(5.1.9)-1*
G04 #@! TF.CreationDate,2021-07-06T15:31:01+07:00*
G04 #@! TF.ProjectId,main2,6d61696e-322e-46b6-9963-61645f706362,rev?*
G04 #@! TF.SameCoordinates,Original*
G04 #@! TF.FileFunction,Soldermask,Top*
G04 #@! TF.FilePolarity,Negative*
%FSLAX46Y46*%
G04 Gerber Fmt 4.6, Leading zero omitted, Abs format (unit mm)*
G04 Created by KiCad (PCBNEW (5.1.9)-1) date 2021-07-06 15:31:01*
%MOMM*%
%LPD*%
G01*
G04 APERTURE LIST*
%ADD10O,1.700000X1.700000*%
%ADD11R,5.300000X5.300000*%
%ADD12R,2.400000X2.200000*%
%ADD13R,1.500000X0.400000*%
%ADD14R,0.500000X2.000000*%
%ADD15R,2.000000X1.700000*%
%ADD16C,1.000000*%
%ADD17R,0.650000X1.060000*%
%ADD18R,5.000000X5.000000*%
%ADD19R,0.900000X2.000000*%
%ADD20R,2.000000X0.900000*%
%ADD21R,2.600000X2.600000*%
%ADD22R,3.800000X2.000000*%
%ADD23R,1.500000X2.000000*%
%ADD24R,1.600000X0.550000*%
%ADD25R,0.550000X1.600000*%
%ADD26R,1.060000X0.650000*%
%ADD27R,1.300000X1.100000*%
%ADD28R,4.500000X2.000000*%
%ADD29R,2.200000X1.200000*%
%ADD30R,6.400000X5.800000*%
%ADD31R,0.800000X0.500000*%
%ADD32R,0.800000X0.400000*%
%ADD33R,0.500000X0.800000*%
%ADD34R,0.400000X0.800000*%
%ADD35C,1.650000*%
%ADD36C,1.308000*%
%ADD37R,0.400000X0.650000*%
%ADD38R,1.587500X0.508000*%
%ADD39R,1.320800X0.889000*%
%ADD40R,2.000000X3.800000*%
%ADD41R,2.000000X1.500000*%
%ADD42R,2.500000X3.300000*%
%ADD43R,2.300000X2.500000*%
%ADD44C,2.600000*%
%ADD45R,3.600000X2.700000*%
%ADD46R,4.240000X3.810000*%
%ADD47O,1.800000X3.600000*%
%ADD48R,1.700000X1.700000*%
%ADD49C,3.250000*%
%ADD50C,2.445000*%
%ADD51C,1.530000*%
%ADD52C,1.398000*%
%ADD53R,1.398000X1.398000*%
%ADD54R,0.600000X1.550000*%
%ADD55R,3.100000X2.600000*%
%ADD56R,1.700000X0.650000*%
%ADD57C,4.700000*%
%ADD58C,7.600000*%
G04 APERTURE END LIST*
D10*
X122872500Y-77152500D03*
X125412500Y-77152500D03*
X122872500Y-79692500D03*
X125412500Y-79692500D03*
X122872500Y-98742500D03*
X125412500Y-98742500D03*
X122872500Y-101282500D03*
X125412500Y-101282500D03*
X122872500Y-103822500D03*
X125412500Y-103822500D03*
X122872500Y-106362500D03*
X125412500Y-106362500D03*
X122872500Y-108902500D03*
X125412500Y-108902500D03*
X122872500Y-111442500D03*
X125412500Y-111442500D03*
X122872500Y-113982500D03*
X125412500Y-113982500D03*
X122872500Y-116522500D03*
X125412500Y-116522500D03*
G36*
G01*
X100035000Y-72012500D02*
X100035000Y-71887500D01*
G75*
G02*
X100097500Y-71825000I62500J0D01*
G01*
X100847500Y-71825000D01*
G75*
G02*
X100910000Y-71887500I0J-62500D01*
G01*
X100910000Y-72012500D01*
G75*
G02*
X100847500Y-72075000I-62500J0D01*
G01*
X100097500Y-72075000D01*
G75*
G02*
X100035000Y-72012500I0J62500D01*
G01*
G37*
G36*
G01*
X100035000Y-72512500D02*
X100035000Y-72387500D01*
G75*
G02*
X100097500Y-72325000I62500J0D01*
G01*
X100847500Y-72325000D01*
G75*
G02*
X100910000Y-72387500I0J-62500D01*
G01*
X100910000Y-72512500D01*
G75*
G02*
X100847500Y-72575000I-62500J0D01*
G01*
X100097500Y-72575000D01*
G75*
G02*
X100035000Y-72512500I0J62500D01*
G01*
G37*
G36*
G01*
X100035000Y-73012500D02*
X100035000Y-72887500D01*
G75*
G02*
X100097500Y-72825000I62500J0D01*
G01*
X100847500Y-72825000D01*
G75*
G02*
X100910000Y-72887500I0J-62500D01*
G01*
X100910000Y-73012500D01*
G75*
G02*
X100847500Y-73075000I-62500J0D01*
G01*
X100097500Y-73075000D01*
G75*
G02*
X100035000Y-73012500I0J62500D01*
G01*
G37*
G36*
G01*
X100035000Y-73512500D02*
X100035000Y-73387500D01*
G75*
G02*
X100097500Y-73325000I62500J0D01*
G01*
X100847500Y-73325000D01*
G75*
G02*
X100910000Y-73387500I0J-62500D01*
G01*
X100910000Y-73512500D01*
G75*
G02*
X100847500Y-73575000I-62500J0D01*
G01*
X100097500Y-73575000D01*
G75*
G02*
X100035000Y-73512500I0J62500D01*
G01*
G37*
G36*
G01*
X100035000Y-74012500D02*
X100035000Y-73887500D01*
G75*
G02*
X100097500Y-73825000I62500J0D01*
G01*
X100847500Y-73825000D01*
G75*
G02*
X100910000Y-73887500I0J-62500D01*
G01*
X100910000Y-74012500D01*
G75*
G02*
X100847500Y-74075000I-62500J0D01*
G01*
X100097500Y-74075000D01*
G75*
G02*
X100035000Y-74012500I0J62500D01*
G01*
G37*
G36*
G01*
X100035000Y-74512500D02*
X100035000Y-74387500D01*
G75*
G02*
X100097500Y-74325000I62500J0D01*
G01*
X100847500Y-74325000D01*
G75*
G02*
X100910000Y-74387500I0J-62500D01*
G01*
X100910000Y-74512500D01*
G75*
G02*
X100847500Y-74575000I-62500J0D01*
G01*
X100097500Y-74575000D01*
G75*
G02*
X100035000Y-74512500I0J62500D01*
G01*
G37*
G36*
G01*
X100035000Y-75012500D02*
X100035000Y-74887500D01*
G75*
G02*
X100097500Y-74825000I62500J0D01*
G01*
X100847500Y-74825000D01*
G75*
G02*
X100910000Y-74887500I0J-62500D01*
G01*
X100910000Y-75012500D01*
G75*
G02*
X100847500Y-75075000I-62500J0D01*
G01*
X100097500Y-75075000D01*
G75*
G02*
X100035000Y-75012500I0J62500D01*
G01*
G37*
G36*
G01*
X100035000Y-75512500D02*
X100035000Y-75387500D01*
G75*
G02*
X100097500Y-75325000I62500J0D01*
G01*
X100847500Y-75325000D01*
G75*
G02*
X100910000Y-75387500I0J-62500D01*
G01*
X100910000Y-75512500D01*
G75*
G02*
X100847500Y-75575000I-62500J0D01*
G01*
X100097500Y-75575000D01*
G75*
G02*
X100035000Y-75512500I0J62500D01*
G01*
G37*
G36*
G01*
X100035000Y-76012500D02*
X100035000Y-75887500D01*
G75*
G02*
X100097500Y-75825000I62500J0D01*
G01*
X100847500Y-75825000D01*
G75*
G02*
X100910000Y-75887500I0J-62500D01*
G01*
X100910000Y-76012500D01*
G75*
G02*
X100847500Y-76075000I-62500J0D01*
G01*
X100097500Y-76075000D01*
G75*
G02*
X100035000Y-76012500I0J62500D01*
G01*
G37*
G36*
G01*
X100035000Y-76512500D02*
X100035000Y-76387500D01*
G75*
G02*
X100097500Y-76325000I62500J0D01*
G01*
X100847500Y-76325000D01*
G75*
G02*
X100910000Y-76387500I0J-62500D01*
G01*
X100910000Y-76512500D01*
G75*
G02*
X100847500Y-76575000I-62500J0D01*
G01*
X100097500Y-76575000D01*
G75*
G02*
X100035000Y-76512500I0J62500D01*
G01*
G37*
G36*
G01*
X100035000Y-77012500D02*
X100035000Y-76887500D01*
G75*
G02*
X100097500Y-76825000I62500J0D01*
G01*
X100847500Y-76825000D01*
G75*
G02*
X100910000Y-76887500I0J-62500D01*
G01*
X100910000Y-77012500D01*
G75*
G02*
X100847500Y-77075000I-62500J0D01*
G01*
X100097500Y-77075000D01*
G75*
G02*
X100035000Y-77012500I0J62500D01*
G01*
G37*
G36*
G01*
X100035000Y-77512500D02*
X100035000Y-77387500D01*
G75*
G02*
X100097500Y-77325000I62500J0D01*
G01*
X100847500Y-77325000D01*
G75*
G02*
X100910000Y-77387500I0J-62500D01*
G01*
X100910000Y-77512500D01*
G75*
G02*
X100847500Y-77575000I-62500J0D01*
G01*
X100097500Y-77575000D01*
G75*
G02*
X100035000Y-77512500I0J62500D01*
G01*
G37*
G36*
G01*
X100035000Y-78012500D02*
X100035000Y-77887500D01*
G75*
G02*
X100097500Y-77825000I62500J0D01*
G01*
X100847500Y-77825000D01*
G75*
G02*
X100910000Y-77887500I0J-62500D01*
G01*
X100910000Y-78012500D01*
G75*
G02*
X100847500Y-78075000I-62500J0D01*
G01*
X100097500Y-78075000D01*
G75*
G02*
X100035000Y-78012500I0J62500D01*
G01*
G37*
G36*
G01*
X100035000Y-78512500D02*
X100035000Y-78387500D01*
G75*
G02*
X100097500Y-78325000I62500J0D01*
G01*
X100847500Y-78325000D01*
G75*
G02*
X100910000Y-78387500I0J-62500D01*
G01*
X100910000Y-78512500D01*
G75*
G02*
X100847500Y-78575000I-62500J0D01*
G01*
X100097500Y-78575000D01*
G75*
G02*
X100035000Y-78512500I0J62500D01*
G01*
G37*
G36*
G01*
X100035000Y-79012500D02*
X100035000Y-78887500D01*
G75*
G02*
X100097500Y-78825000I62500J0D01*
G01*
X100847500Y-78825000D01*
G75*
G02*
X100910000Y-78887500I0J-62500D01*
G01*
X100910000Y-79012500D01*
G75*
G02*
X100847500Y-79075000I-62500J0D01*
G01*
X100097500Y-79075000D01*
G75*
G02*
X100035000Y-79012500I0J62500D01*
G01*
G37*
G36*
G01*
X100035000Y-79512500D02*
X100035000Y-79387500D01*
G75*
G02*
X100097500Y-79325000I62500J0D01*
G01*
X100847500Y-79325000D01*
G75*
G02*
X100910000Y-79387500I0J-62500D01*
G01*
X100910000Y-79512500D01*
G75*
G02*
X100847500Y-79575000I-62500J0D01*
G01*
X100097500Y-79575000D01*
G75*
G02*
X100035000Y-79512500I0J62500D01*
G01*
G37*
G36*
G01*
X100035000Y-80012500D02*
X100035000Y-79887500D01*
G75*
G02*
X100097500Y-79825000I62500J0D01*
G01*
X100847500Y-79825000D01*
G75*
G02*
X100910000Y-79887500I0J-62500D01*
G01*
X100910000Y-80012500D01*
G75*
G02*
X100847500Y-80075000I-62500J0D01*
G01*
X100097500Y-80075000D01*
G75*
G02*
X100035000Y-80012500I0J62500D01*
G01*
G37*
G36*
G01*
X100035000Y-80512500D02*
X100035000Y-80387500D01*
G75*
G02*
X100097500Y-80325000I62500J0D01*
G01*
X100847500Y-80325000D01*
G75*
G02*
X100910000Y-80387500I0J-62500D01*
G01*
X100910000Y-80512500D01*
G75*
G02*
X100847500Y-80575000I-62500J0D01*
G01*
X100097500Y-80575000D01*
G75*
G02*
X100035000Y-80512500I0J62500D01*
G01*
G37*
G36*
G01*
X101035000Y-81512500D02*
X101035000Y-80762500D01*
G75*
G02*
X101097500Y-80700000I62500J0D01*
G01*
X101222500Y-80700000D01*
G75*
G02*
X101285000Y-80762500I0J-62500D01*
G01*
X101285000Y-81512500D01*
G75*
G02*
X101222500Y-81575000I-62500J0D01*
G01*
X101097500Y-81575000D01*
G75*
G02*
X101035000Y-81512500I0J62500D01*
G01*
G37*
G36*
G01*
X101535000Y-81512500D02*
X101535000Y-80762500D01*
G75*
G02*
X101597500Y-80700000I62500J0D01*
G01*
X101722500Y-80700000D01*
G75*
G02*
X101785000Y-80762500I0J-62500D01*
G01*
X101785000Y-81512500D01*
G75*
G02*
X101722500Y-81575000I-62500J0D01*
G01*
X101597500Y-81575000D01*
G75*
G02*
X101535000Y-81512500I0J62500D01*
G01*
G37*
G36*
G01*
X102035000Y-81512500D02*
X102035000Y-80762500D01*
G75*
G02*
X102097500Y-80700000I62500J0D01*
G01*
X102222500Y-80700000D01*
G75*
G02*
X102285000Y-80762500I0J-62500D01*
G01*
X102285000Y-81512500D01*
G75*
G02*
X102222500Y-81575000I-62500J0D01*
G01*
X102097500Y-81575000D01*
G75*
G02*
X102035000Y-81512500I0J62500D01*
G01*
G37*
G36*
G01*
X102535000Y-81512500D02*
X102535000Y-80762500D01*
G75*
G02*
X102597500Y-80700000I62500J0D01*
G01*
X102722500Y-80700000D01*
G75*
G02*
X102785000Y-80762500I0J-62500D01*
G01*
X102785000Y-81512500D01*
G75*
G02*
X102722500Y-81575000I-62500J0D01*
G01*
X102597500Y-81575000D01*
G75*
G02*
X102535000Y-81512500I0J62500D01*
G01*
G37*
G36*
G01*
X103035000Y-81512500D02*
X103035000Y-80762500D01*
G75*
G02*
X103097500Y-80700000I62500J0D01*
G01*
X103222500Y-80700000D01*
G75*
G02*
X103285000Y-80762500I0J-62500D01*
G01*
X103285000Y-81512500D01*
G75*
G02*
X103222500Y-81575000I-62500J0D01*
G01*
X103097500Y-81575000D01*
G75*
G02*
X103035000Y-81512500I0J62500D01*
G01*
G37*
G36*
G01*
X103535000Y-81512500D02*
X103535000Y-80762500D01*
G75*
G02*
X103597500Y-80700000I62500J0D01*
G01*
X103722500Y-80700000D01*
G75*
G02*
X103785000Y-80762500I0J-62500D01*
G01*
X103785000Y-81512500D01*
G75*
G02*
X103722500Y-81575000I-62500J0D01*
G01*
X103597500Y-81575000D01*
G75*
G02*
X103535000Y-81512500I0J62500D01*
G01*
G37*
G36*
G01*
X104035000Y-81512500D02*
X104035000Y-80762500D01*
G75*
G02*
X104097500Y-80700000I62500J0D01*
G01*
X104222500Y-80700000D01*
G75*
G02*
X104285000Y-80762500I0J-62500D01*
G01*
X104285000Y-81512500D01*
G75*
G02*
X104222500Y-81575000I-62500J0D01*
G01*
X104097500Y-81575000D01*
G75*
G02*
X104035000Y-81512500I0J62500D01*
G01*
G37*
G36*
G01*
X104535000Y-81512500D02*
X104535000Y-80762500D01*
G75*
G02*
X104597500Y-80700000I62500J0D01*
G01*
X104722500Y-80700000D01*
G75*
G02*
X104785000Y-80762500I0J-62500D01*
G01*
X104785000Y-81512500D01*
G75*
G02*
X104722500Y-81575000I-62500J0D01*
G01*
X104597500Y-81575000D01*
G75*
G02*
X104535000Y-81512500I0J62500D01*
G01*
G37*
G36*
G01*
X105035000Y-81512500D02*
X105035000Y-80762500D01*
G75*
G02*
X105097500Y-80700000I62500J0D01*
G01*
X105222500Y-80700000D01*
G75*
G02*
X105285000Y-80762500I0J-62500D01*
G01*
X105285000Y-81512500D01*
G75*
G02*
X105222500Y-81575000I-62500J0D01*
G01*
X105097500Y-81575000D01*
G75*
G02*
X105035000Y-81512500I0J62500D01*
G01*
G37*
G36*
G01*
X105535000Y-81512500D02*
X105535000Y-80762500D01*
G75*
G02*
X105597500Y-80700000I62500J0D01*
G01*
X105722500Y-80700000D01*
G75*
G02*
X105785000Y-80762500I0J-62500D01*
G01*
X105785000Y-81512500D01*
G75*
G02*
X105722500Y-81575000I-62500J0D01*
G01*
X105597500Y-81575000D01*
G75*
G02*
X105535000Y-81512500I0J62500D01*
G01*
G37*
G36*
G01*
X106035000Y-81512500D02*
X106035000Y-80762500D01*
G75*
G02*
X106097500Y-80700000I62500J0D01*
G01*
X106222500Y-80700000D01*
G75*
G02*
X106285000Y-80762500I0J-62500D01*
G01*
X106285000Y-81512500D01*
G75*
G02*
X106222500Y-81575000I-62500J0D01*
G01*
X106097500Y-81575000D01*
G75*
G02*
X106035000Y-81512500I0J62500D01*
G01*
G37*
G36*
G01*
X106535000Y-81512500D02*
X106535000Y-80762500D01*
G75*
G02*
X106597500Y-80700000I62500J0D01*
G01*
X106722500Y-80700000D01*
G75*
G02*
X106785000Y-80762500I0J-62500D01*
G01*
X106785000Y-81512500D01*
G75*
G02*
X106722500Y-81575000I-62500J0D01*
G01*
X106597500Y-81575000D01*
G75*
G02*
X106535000Y-81512500I0J62500D01*
G01*
G37*
G36*
G01*
X107035000Y-81512500D02*
X107035000Y-80762500D01*
G75*
G02*
X107097500Y-80700000I62500J0D01*
G01*
X107222500Y-80700000D01*
G75*
G02*
X107285000Y-80762500I0J-62500D01*
G01*
X107285000Y-81512500D01*
G75*
G02*
X107222500Y-81575000I-62500J0D01*
G01*
X107097500Y-81575000D01*
G75*
G02*
X107035000Y-81512500I0J62500D01*
G01*
G37*
G36*
G01*
X107535000Y-81512500D02*
X107535000Y-80762500D01*
G75*
G02*
X107597500Y-80700000I62500J0D01*
G01*
X107722500Y-80700000D01*
G75*
G02*
X107785000Y-80762500I0J-62500D01*
G01*
X107785000Y-81512500D01*
G75*
G02*
X107722500Y-81575000I-62500J0D01*
G01*
X107597500Y-81575000D01*
G75*
G02*
X107535000Y-81512500I0J62500D01*
G01*
G37*
G36*
G01*
X108035000Y-81512500D02*
X108035000Y-80762500D01*
G75*
G02*
X108097500Y-80700000I62500J0D01*
G01*
X108222500Y-80700000D01*
G75*
G02*
X108285000Y-80762500I0J-62500D01*
G01*
X108285000Y-81512500D01*
G75*
G02*
X108222500Y-81575000I-62500J0D01*
G01*
X108097500Y-81575000D01*
G75*
G02*
X108035000Y-81512500I0J62500D01*
G01*
G37*
G36*
G01*
X108535000Y-81512500D02*
X108535000Y-80762500D01*
G75*
G02*
X108597500Y-80700000I62500J0D01*
G01*
X108722500Y-80700000D01*
G75*
G02*
X108785000Y-80762500I0J-62500D01*
G01*
X108785000Y-81512500D01*
G75*
G02*
X108722500Y-81575000I-62500J0D01*
G01*
X108597500Y-81575000D01*
G75*
G02*
X108535000Y-81512500I0J62500D01*
G01*
G37*
G36*
G01*
X109035000Y-81512500D02*
X109035000Y-80762500D01*
G75*
G02*
X109097500Y-80700000I62500J0D01*
G01*
X109222500Y-80700000D01*
G75*
G02*
X109285000Y-80762500I0J-62500D01*
G01*
X109285000Y-81512500D01*
G75*
G02*
X109222500Y-81575000I-62500J0D01*
G01*
X109097500Y-81575000D01*
G75*
G02*
X109035000Y-81512500I0J62500D01*
G01*
G37*
G36*
G01*
X109535000Y-81512500D02*
X109535000Y-80762500D01*
G75*
G02*
X109597500Y-80700000I62500J0D01*
G01*
X109722500Y-80700000D01*
G75*
G02*
X109785000Y-80762500I0J-62500D01*
G01*
X109785000Y-81512500D01*
G75*
G02*
X109722500Y-81575000I-62500J0D01*
G01*
X109597500Y-81575000D01*
G75*
G02*
X109535000Y-81512500I0J62500D01*
G01*
G37*
G36*
G01*
X109910000Y-80512500D02*
X109910000Y-80387500D01*
G75*
G02*
X109972500Y-80325000I62500J0D01*
G01*
X110722500Y-80325000D01*
G75*
G02*
X110785000Y-80387500I0J-62500D01*
G01*
X110785000Y-80512500D01*
G75*
G02*
X110722500Y-80575000I-62500J0D01*
G01*
X109972500Y-80575000D01*
G75*
G02*
X109910000Y-80512500I0J62500D01*
G01*
G37*
G36*
G01*
X109910000Y-80012500D02*
X109910000Y-79887500D01*
G75*
G02*
X109972500Y-79825000I62500J0D01*
G01*
X110722500Y-79825000D01*
G75*
G02*
X110785000Y-79887500I0J-62500D01*
G01*
X110785000Y-80012500D01*
G75*
G02*
X110722500Y-80075000I-62500J0D01*
G01*
X109972500Y-80075000D01*
G75*
G02*
X109910000Y-80012500I0J62500D01*
G01*
G37*
G36*
G01*
X109910000Y-79512500D02*
X109910000Y-79387500D01*
G75*
G02*
X109972500Y-79325000I62500J0D01*
G01*
X110722500Y-79325000D01*
G75*
G02*
X110785000Y-79387500I0J-62500D01*
G01*
X110785000Y-79512500D01*
G75*
G02*
X110722500Y-79575000I-62500J0D01*
G01*
X109972500Y-79575000D01*
G75*
G02*
X109910000Y-79512500I0J62500D01*
G01*
G37*
G36*
G01*
X109910000Y-79012500D02*
X109910000Y-78887500D01*
G75*
G02*
X109972500Y-78825000I62500J0D01*
G01*
X110722500Y-78825000D01*
G75*
G02*
X110785000Y-78887500I0J-62500D01*
G01*
X110785000Y-79012500D01*
G75*
G02*
X110722500Y-79075000I-62500J0D01*
G01*
X109972500Y-79075000D01*
G75*
G02*
X109910000Y-79012500I0J62500D01*
G01*
G37*
G36*
G01*
X109910000Y-78512500D02*
X109910000Y-78387500D01*
G75*
G02*
X109972500Y-78325000I62500J0D01*
G01*
X110722500Y-78325000D01*
G75*
G02*
X110785000Y-78387500I0J-62500D01*
G01*
X110785000Y-78512500D01*
G75*
G02*
X110722500Y-78575000I-62500J0D01*
G01*
X109972500Y-78575000D01*
G75*
G02*
X109910000Y-78512500I0J62500D01*
G01*
G37*
G36*
G01*
X109910000Y-78012500D02*
X109910000Y-77887500D01*
G75*
G02*
X109972500Y-77825000I62500J0D01*
G01*
X110722500Y-77825000D01*
G75*
G02*
X110785000Y-77887500I0J-62500D01*
G01*
X110785000Y-78012500D01*
G75*
G02*
X110722500Y-78075000I-62500J0D01*
G01*
X109972500Y-78075000D01*
G75*
G02*
X109910000Y-78012500I0J62500D01*
G01*
G37*
G36*
G01*
X109910000Y-77512500D02*
X109910000Y-77387500D01*
G75*
G02*
X109972500Y-77325000I62500J0D01*
G01*
X110722500Y-77325000D01*
G75*
G02*
X110785000Y-77387500I0J-62500D01*
G01*
X110785000Y-77512500D01*
G75*
G02*
X110722500Y-77575000I-62500J0D01*
G01*
X109972500Y-77575000D01*
G75*
G02*
X109910000Y-77512500I0J62500D01*
G01*
G37*
G36*
G01*
X109910000Y-77012500D02*
X109910000Y-76887500D01*
G75*
G02*
X109972500Y-76825000I62500J0D01*
G01*
X110722500Y-76825000D01*
G75*
G02*
X110785000Y-76887500I0J-62500D01*
G01*
X110785000Y-77012500D01*
G75*
G02*
X110722500Y-77075000I-62500J0D01*
G01*
X109972500Y-77075000D01*
G75*
G02*
X109910000Y-77012500I0J62500D01*
G01*
G37*
G36*
G01*
X109910000Y-76512500D02*
X109910000Y-76387500D01*
G75*
G02*
X109972500Y-76325000I62500J0D01*
G01*
X110722500Y-76325000D01*
G75*
G02*
X110785000Y-76387500I0J-62500D01*
G01*
X110785000Y-76512500D01*
G75*
G02*
X110722500Y-76575000I-62500J0D01*
G01*
X109972500Y-76575000D01*
G75*
G02*
X109910000Y-76512500I0J62500D01*
G01*
G37*
G36*
G01*
X109910000Y-76012500D02*
X109910000Y-75887500D01*
G75*
G02*
X109972500Y-75825000I62500J0D01*
G01*
X110722500Y-75825000D01*
G75*
G02*
X110785000Y-75887500I0J-62500D01*
G01*
X110785000Y-76012500D01*
G75*
G02*
X110722500Y-76075000I-62500J0D01*
G01*
X109972500Y-76075000D01*
G75*
G02*
X109910000Y-76012500I0J62500D01*
G01*
G37*
G36*
G01*
X109910000Y-75512500D02*
X109910000Y-75387500D01*
G75*
G02*
X109972500Y-75325000I62500J0D01*
G01*
X110722500Y-75325000D01*
G75*
G02*
X110785000Y-75387500I0J-62500D01*
G01*
X110785000Y-75512500D01*
G75*
G02*
X110722500Y-75575000I-62500J0D01*
G01*
X109972500Y-75575000D01*
G75*
G02*
X109910000Y-75512500I0J62500D01*
G01*
G37*
G36*
G01*
X109910000Y-75012500D02*
X109910000Y-74887500D01*
G75*
G02*
X109972500Y-74825000I62500J0D01*
G01*
X110722500Y-74825000D01*
G75*
G02*
X110785000Y-74887500I0J-62500D01*
G01*
X110785000Y-75012500D01*
G75*
G02*
X110722500Y-75075000I-62500J0D01*
G01*
X109972500Y-75075000D01*
G75*
G02*
X109910000Y-75012500I0J62500D01*
G01*
G37*
G36*
G01*
X109910000Y-74512500D02*
X109910000Y-74387500D01*
G75*
G02*
X109972500Y-74325000I62500J0D01*
G01*
X110722500Y-74325000D01*
G75*
G02*
X110785000Y-74387500I0J-62500D01*
G01*
X110785000Y-74512500D01*
G75*
G02*
X110722500Y-74575000I-62500J0D01*
G01*
X109972500Y-74575000D01*
G75*
G02*
X109910000Y-74512500I0J62500D01*
G01*
G37*
G36*
G01*
X109910000Y-74012500D02*
X109910000Y-73887500D01*
G75*
G02*
X109972500Y-73825000I62500J0D01*
G01*
X110722500Y-73825000D01*
G75*
G02*
X110785000Y-73887500I0J-62500D01*
G01*
X110785000Y-74012500D01*
G75*
G02*
X110722500Y-74075000I-62500J0D01*
G01*
X109972500Y-74075000D01*
G75*
G02*
X109910000Y-74012500I0J62500D01*
G01*
G37*
G36*
G01*
X109910000Y-73512500D02*
X109910000Y-73387500D01*
G75*
G02*
X109972500Y-73325000I62500J0D01*
G01*
X110722500Y-73325000D01*
G75*
G02*
X110785000Y-73387500I0J-62500D01*
G01*
X110785000Y-73512500D01*
G75*
G02*
X110722500Y-73575000I-62500J0D01*
G01*
X109972500Y-73575000D01*
G75*
G02*
X109910000Y-73512500I0J62500D01*
G01*
G37*
G36*
G01*
X109910000Y-73012500D02*
X109910000Y-72887500D01*
G75*
G02*
X109972500Y-72825000I62500J0D01*
G01*
X110722500Y-72825000D01*
G75*
G02*
X110785000Y-72887500I0J-62500D01*
G01*
X110785000Y-73012500D01*
G75*
G02*
X110722500Y-73075000I-62500J0D01*
G01*
X109972500Y-73075000D01*
G75*
G02*
X109910000Y-73012500I0J62500D01*
G01*
G37*
G36*
G01*
X109910000Y-72512500D02*
X109910000Y-72387500D01*
G75*
G02*
X109972500Y-72325000I62500J0D01*
G01*
X110722500Y-72325000D01*
G75*
G02*
X110785000Y-72387500I0J-62500D01*
G01*
X110785000Y-72512500D01*
G75*
G02*
X110722500Y-72575000I-62500J0D01*
G01*
X109972500Y-72575000D01*
G75*
G02*
X109910000Y-72512500I0J62500D01*
G01*
G37*
G36*
G01*
X109910000Y-72012500D02*
X109910000Y-71887500D01*
G75*
G02*
X109972500Y-71825000I62500J0D01*
G01*
X110722500Y-71825000D01*
G75*
G02*
X110785000Y-71887500I0J-62500D01*
G01*
X110785000Y-72012500D01*
G75*
G02*
X110722500Y-72075000I-62500J0D01*
G01*
X109972500Y-72075000D01*
G75*
G02*
X109910000Y-72012500I0J62500D01*
G01*
G37*
G36*
G01*
X109535000Y-71637500D02*
X109535000Y-70887500D01*
G75*
G02*
X109597500Y-70825000I62500J0D01*
G01*
X109722500Y-70825000D01*
G75*
G02*
X109785000Y-70887500I0J-62500D01*
G01*
X109785000Y-71637500D01*
G75*
G02*
X109722500Y-71700000I-62500J0D01*
G01*
X109597500Y-71700000D01*
G75*
G02*
X109535000Y-71637500I0J62500D01*
G01*
G37*
G36*
G01*
X109035000Y-71637500D02*
X109035000Y-70887500D01*
G75*
G02*
X109097500Y-70825000I62500J0D01*
G01*
X109222500Y-70825000D01*
G75*
G02*
X109285000Y-70887500I0J-62500D01*
G01*
X109285000Y-71637500D01*
G75*
G02*
X109222500Y-71700000I-62500J0D01*
G01*
X109097500Y-71700000D01*
G75*
G02*
X109035000Y-71637500I0J62500D01*
G01*
G37*
G36*
G01*
X108535000Y-71637500D02*
X108535000Y-70887500D01*
G75*
G02*
X108597500Y-70825000I62500J0D01*
G01*
X108722500Y-70825000D01*
G75*
G02*
X108785000Y-70887500I0J-62500D01*
G01*
X108785000Y-71637500D01*
G75*
G02*
X108722500Y-71700000I-62500J0D01*
G01*
X108597500Y-71700000D01*
G75*
G02*
X108535000Y-71637500I0J62500D01*
G01*
G37*
G36*
G01*
X108035000Y-71637500D02*
X108035000Y-70887500D01*
G75*
G02*
X108097500Y-70825000I62500J0D01*
G01*
X108222500Y-70825000D01*
G75*
G02*
X108285000Y-70887500I0J-62500D01*
G01*
X108285000Y-71637500D01*
G75*
G02*
X108222500Y-71700000I-62500J0D01*
G01*
X108097500Y-71700000D01*
G75*
G02*
X108035000Y-71637500I0J62500D01*
G01*
G37*
G36*
G01*
X107535000Y-71637500D02*
X107535000Y-70887500D01*
G75*
G02*
X107597500Y-70825000I62500J0D01*
G01*
X107722500Y-70825000D01*
G75*
G02*
X107785000Y-70887500I0J-62500D01*
G01*
X107785000Y-71637500D01*
G75*
G02*
X107722500Y-71700000I-62500J0D01*
G01*
X107597500Y-71700000D01*
G75*
G02*
X107535000Y-71637500I0J62500D01*
G01*
G37*
G36*
G01*
X107035000Y-71637500D02*
X107035000Y-70887500D01*
G75*
G02*
X107097500Y-70825000I62500J0D01*
G01*
X107222500Y-70825000D01*
G75*
G02*
X107285000Y-70887500I0J-62500D01*
G01*
X107285000Y-71637500D01*
G75*
G02*
X107222500Y-71700000I-62500J0D01*
G01*
X107097500Y-71700000D01*
G75*
G02*
X107035000Y-71637500I0J62500D01*
G01*
G37*
G36*
G01*
X106535000Y-71637500D02*
X106535000Y-70887500D01*
G75*
G02*
X106597500Y-70825000I62500J0D01*
G01*
X106722500Y-70825000D01*
G75*
G02*
X106785000Y-70887500I0J-62500D01*
G01*
X106785000Y-71637500D01*
G75*
G02*
X106722500Y-71700000I-62500J0D01*
G01*
X106597500Y-71700000D01*
G75*
G02*
X106535000Y-71637500I0J62500D01*
G01*
G37*
G36*
G01*
X106035000Y-71637500D02*
X106035000Y-70887500D01*
G75*
G02*
X106097500Y-70825000I62500J0D01*
G01*
X106222500Y-70825000D01*
G75*
G02*
X106285000Y-70887500I0J-62500D01*
G01*
X106285000Y-71637500D01*
G75*
G02*
X106222500Y-71700000I-62500J0D01*
G01*
X106097500Y-71700000D01*
G75*
G02*
X106035000Y-71637500I0J62500D01*
G01*
G37*
G36*
G01*
X105535000Y-71637500D02*
X105535000Y-70887500D01*
G75*
G02*
X105597500Y-70825000I62500J0D01*
G01*
X105722500Y-70825000D01*
G75*
G02*
X105785000Y-70887500I0J-62500D01*
G01*
X105785000Y-71637500D01*
G75*
G02*
X105722500Y-71700000I-62500J0D01*
G01*
X105597500Y-71700000D01*
G75*
G02*
X105535000Y-71637500I0J62500D01*
G01*
G37*
G36*
G01*
X105035000Y-71637500D02*
X105035000Y-70887500D01*
G75*
G02*
X105097500Y-70825000I62500J0D01*
G01*
X105222500Y-70825000D01*
G75*
G02*
X105285000Y-70887500I0J-62500D01*
G01*
X105285000Y-71637500D01*
G75*
G02*
X105222500Y-71700000I-62500J0D01*
G01*
X105097500Y-71700000D01*
G75*
G02*
X105035000Y-71637500I0J62500D01*
G01*
G37*
G36*
G01*
X104535000Y-71637500D02*
X104535000Y-70887500D01*
G75*
G02*
X104597500Y-70825000I62500J0D01*
G01*
X104722500Y-70825000D01*
G75*
G02*
X104785000Y-70887500I0J-62500D01*
G01*
X104785000Y-71637500D01*
G75*
G02*
X104722500Y-71700000I-62500J0D01*
G01*
X104597500Y-71700000D01*
G75*
G02*
X104535000Y-71637500I0J62500D01*
G01*
G37*
G36*
G01*
X104035000Y-71637500D02*
X104035000Y-70887500D01*
G75*
G02*
X104097500Y-70825000I62500J0D01*
G01*
X104222500Y-70825000D01*
G75*
G02*
X104285000Y-70887500I0J-62500D01*
G01*
X104285000Y-71637500D01*
G75*
G02*
X104222500Y-71700000I-62500J0D01*
G01*
X104097500Y-71700000D01*
G75*
G02*
X104035000Y-71637500I0J62500D01*
G01*
G37*
G36*
G01*
X103535000Y-71637500D02*
X103535000Y-70887500D01*
G75*
G02*
X103597500Y-70825000I62500J0D01*
G01*
X103722500Y-70825000D01*
G75*
G02*
X103785000Y-70887500I0J-62500D01*
G01*
X103785000Y-71637500D01*
G75*
G02*
X103722500Y-71700000I-62500J0D01*
G01*
X103597500Y-71700000D01*
G75*
G02*
X103535000Y-71637500I0J62500D01*
G01*
G37*
G36*
G01*
X103035000Y-71637500D02*
X103035000Y-70887500D01*
G75*
G02*
X103097500Y-70825000I62500J0D01*
G01*
X103222500Y-70825000D01*
G75*
G02*
X103285000Y-70887500I0J-62500D01*
G01*
X103285000Y-71637500D01*
G75*
G02*
X103222500Y-71700000I-62500J0D01*
G01*
X103097500Y-71700000D01*
G75*
G02*
X103035000Y-71637500I0J62500D01*
G01*
G37*
G36*
G01*
X102535000Y-71637500D02*
X102535000Y-70887500D01*
G75*
G02*
X102597500Y-70825000I62500J0D01*
G01*
X102722500Y-70825000D01*
G75*
G02*
X102785000Y-70887500I0J-62500D01*
G01*
X102785000Y-71637500D01*
G75*
G02*
X102722500Y-71700000I-62500J0D01*
G01*
X102597500Y-71700000D01*
G75*
G02*
X102535000Y-71637500I0J62500D01*
G01*
G37*
G36*
G01*
X102035000Y-71637500D02*
X102035000Y-70887500D01*
G75*
G02*
X102097500Y-70825000I62500J0D01*
G01*
X102222500Y-70825000D01*
G75*
G02*
X102285000Y-70887500I0J-62500D01*
G01*
X102285000Y-71637500D01*
G75*
G02*
X102222500Y-71700000I-62500J0D01*
G01*
X102097500Y-71700000D01*
G75*
G02*
X102035000Y-71637500I0J62500D01*
G01*
G37*
G36*
G01*
X101535000Y-71637500D02*
X101535000Y-70887500D01*
G75*
G02*
X101597500Y-70825000I62500J0D01*
G01*
X101722500Y-70825000D01*
G75*
G02*
X101785000Y-70887500I0J-62500D01*
G01*
X101785000Y-71637500D01*
G75*
G02*
X101722500Y-71700000I-62500J0D01*
G01*
X101597500Y-71700000D01*
G75*
G02*
X101535000Y-71637500I0J62500D01*
G01*
G37*
G36*
G01*
X101035000Y-71637500D02*
X101035000Y-70887500D01*
G75*
G02*
X101097500Y-70825000I62500J0D01*
G01*
X101222500Y-70825000D01*
G75*
G02*
X101285000Y-70887500I0J-62500D01*
G01*
X101285000Y-71637500D01*
G75*
G02*
X101222500Y-71700000I-62500J0D01*
G01*
X101097500Y-71700000D01*
G75*
G02*
X101035000Y-71637500I0J62500D01*
G01*
G37*
D11*
X105410000Y-76200000D03*
D12*
X102712520Y-107254040D03*
X102717600Y-93939360D03*
D13*
X104112520Y-97339720D03*
X101312520Y-97839720D03*
X104112520Y-98339720D03*
X101312520Y-96839720D03*
X104112520Y-99339720D03*
X101312520Y-95839720D03*
X101312520Y-99839720D03*
X101312520Y-98839720D03*
X104112520Y-96339720D03*
X104112520Y-100339720D03*
X104112520Y-105340980D03*
X104112520Y-101340980D03*
X101312520Y-103840980D03*
X101312520Y-104840980D03*
X101312520Y-100840980D03*
X104112520Y-104340980D03*
X101312520Y-101840980D03*
X104112520Y-103340980D03*
X101312520Y-102840980D03*
X104112520Y-102340980D03*
G36*
G01*
X65464500Y-65487000D02*
X64964500Y-65487000D01*
G75*
G02*
X64739500Y-65262000I0J225000D01*
G01*
X64739500Y-64812000D01*
G75*
G02*
X64964500Y-64587000I225000J0D01*
G01*
X65464500Y-64587000D01*
G75*
G02*
X65689500Y-64812000I0J-225000D01*
G01*
X65689500Y-65262000D01*
G75*
G02*
X65464500Y-65487000I-225000J0D01*
G01*
G37*
G36*
G01*
X65464500Y-63937000D02*
X64964500Y-63937000D01*
G75*
G02*
X64739500Y-63712000I0J225000D01*
G01*
X64739500Y-63262000D01*
G75*
G02*
X64964500Y-63037000I225000J0D01*
G01*
X65464500Y-63037000D01*
G75*
G02*
X65689500Y-63262000I0J-225000D01*
G01*
X65689500Y-63712000D01*
G75*
G02*
X65464500Y-63937000I-225000J0D01*
G01*
G37*
G36*
G01*
X72830500Y-65550500D02*
X72330500Y-65550500D01*
G75*
G02*
X72105500Y-65325500I0J225000D01*
G01*
X72105500Y-64875500D01*
G75*
G02*
X72330500Y-64650500I225000J0D01*
G01*
X72830500Y-64650500D01*
G75*
G02*
X73055500Y-64875500I0J-225000D01*
G01*
X73055500Y-65325500D01*
G75*
G02*
X72830500Y-65550500I-225000J0D01*
G01*
G37*
G36*
G01*
X72830500Y-64000500D02*
X72330500Y-64000500D01*
G75*
G02*
X72105500Y-63775500I0J225000D01*
G01*
X72105500Y-63325500D01*
G75*
G02*
X72330500Y-63100500I225000J0D01*
G01*
X72830500Y-63100500D01*
G75*
G02*
X73055500Y-63325500I0J-225000D01*
G01*
X73055500Y-63775500D01*
G75*
G02*
X72830500Y-64000500I-225000J0D01*
G01*
G37*
G36*
G01*
X112021500Y-115312000D02*
X112021500Y-114812000D01*
G75*
G02*
X112246500Y-114587000I225000J0D01*
G01*
X112696500Y-114587000D01*
G75*
G02*
X112921500Y-114812000I0J-225000D01*
G01*
X112921500Y-115312000D01*
G75*
G02*
X112696500Y-115537000I-225000J0D01*
G01*
X112246500Y-115537000D01*
G75*
G02*
X112021500Y-115312000I0J225000D01*
G01*
G37*
G36*
G01*
X110471500Y-115312000D02*
X110471500Y-114812000D01*
G75*
G02*
X110696500Y-114587000I225000J0D01*
G01*
X111146500Y-114587000D01*
G75*
G02*
X111371500Y-114812000I0J-225000D01*
G01*
X111371500Y-115312000D01*
G75*
G02*
X111146500Y-115537000I-225000J0D01*
G01*
X110696500Y-115537000D01*
G75*
G02*
X110471500Y-115312000I0J225000D01*
G01*
G37*
G36*
G01*
X106938000Y-118675700D02*
X107438000Y-118675700D01*
G75*
G02*
X107663000Y-118900700I0J-225000D01*
G01*
X107663000Y-119350700D01*
G75*
G02*
X107438000Y-119575700I-225000J0D01*
G01*
X106938000Y-119575700D01*
G75*
G02*
X106713000Y-119350700I0J225000D01*
G01*
X106713000Y-118900700D01*
G75*
G02*
X106938000Y-118675700I225000J0D01*
G01*
G37*
G36*
G01*
X106938000Y-120225700D02*
X107438000Y-120225700D01*
G75*
G02*
X107663000Y-120450700I0J-225000D01*
G01*
X107663000Y-120900700D01*
G75*
G02*
X107438000Y-121125700I-225000J0D01*
G01*
X106938000Y-121125700D01*
G75*
G02*
X106713000Y-120900700I0J225000D01*
G01*
X106713000Y-120450700D01*
G75*
G02*
X106938000Y-120225700I225000J0D01*
G01*
G37*
G36*
G01*
X111334000Y-121873200D02*
X111334000Y-122373200D01*
G75*
G02*
X111109000Y-122598200I-225000J0D01*
G01*
X110659000Y-122598200D01*
G75*
G02*
X110434000Y-122373200I0J225000D01*
G01*
X110434000Y-121873200D01*
G75*
G02*
X110659000Y-121648200I225000J0D01*
G01*
X111109000Y-121648200D01*
G75*
G02*
X111334000Y-121873200I0J-225000D01*
G01*
G37*
G36*
G01*
X109784000Y-121873200D02*
X109784000Y-122373200D01*
G75*
G02*
X109559000Y-122598200I-225000J0D01*
G01*
X109109000Y-122598200D01*
G75*
G02*
X108884000Y-122373200I0J225000D01*
G01*
X108884000Y-121873200D01*
G75*
G02*
X109109000Y-121648200I225000J0D01*
G01*
X109559000Y-121648200D01*
G75*
G02*
X109784000Y-121873200I0J-225000D01*
G01*
G37*
G36*
G01*
X111334000Y-120412700D02*
X111334000Y-120912700D01*
G75*
G02*
X111109000Y-121137700I-225000J0D01*
G01*
X110659000Y-121137700D01*
G75*
G02*
X110434000Y-120912700I0J225000D01*
G01*
X110434000Y-120412700D01*
G75*
G02*
X110659000Y-120187700I225000J0D01*
G01*
X111109000Y-120187700D01*
G75*
G02*
X111334000Y-120412700I0J-225000D01*
G01*
G37*
G36*
G01*
X109784000Y-120412700D02*
X109784000Y-120912700D01*
G75*
G02*
X109559000Y-121137700I-225000J0D01*
G01*
X109109000Y-121137700D01*
G75*
G02*
X108884000Y-120912700I0J225000D01*
G01*
X108884000Y-120412700D01*
G75*
G02*
X109109000Y-120187700I225000J0D01*
G01*
X109559000Y-120187700D01*
G75*
G02*
X109784000Y-120412700I0J-225000D01*
G01*
G37*
G36*
G01*
X69233500Y-96460500D02*
X69233500Y-96960500D01*
G75*
G02*
X69008500Y-97185500I-225000J0D01*
G01*
X68558500Y-97185500D01*
G75*
G02*
X68333500Y-96960500I0J225000D01*
G01*
X68333500Y-96460500D01*
G75*
G02*
X68558500Y-96235500I225000J0D01*
G01*
X69008500Y-96235500D01*
G75*
G02*
X69233500Y-96460500I0J-225000D01*
G01*
G37*
G36*
G01*
X67683500Y-96460500D02*
X67683500Y-96960500D01*
G75*
G02*
X67458500Y-97185500I-225000J0D01*
G01*
X67008500Y-97185500D01*
G75*
G02*
X66783500Y-96960500I0J225000D01*
G01*
X66783500Y-96460500D01*
G75*
G02*
X67008500Y-96235500I225000J0D01*
G01*
X67458500Y-96235500D01*
G75*
G02*
X67683500Y-96460500I0J-225000D01*
G01*
G37*
G36*
G01*
X71695500Y-97797500D02*
X72195500Y-97797500D01*
G75*
G02*
X72420500Y-98022500I0J-225000D01*
G01*
X72420500Y-98472500D01*
G75*
G02*
X72195500Y-98697500I-225000J0D01*
G01*
X71695500Y-98697500D01*
G75*
G02*
X71470500Y-98472500I0J225000D01*
G01*
X71470500Y-98022500D01*
G75*
G02*
X71695500Y-97797500I225000J0D01*
G01*
G37*
G36*
G01*
X71695500Y-96247500D02*
X72195500Y-96247500D01*
G75*
G02*
X72420500Y-96472500I0J-225000D01*
G01*
X72420500Y-96922500D01*
G75*
G02*
X72195500Y-97147500I-225000J0D01*
G01*
X71695500Y-97147500D01*
G75*
G02*
X71470500Y-96922500I0J225000D01*
G01*
X71470500Y-96472500D01*
G75*
G02*
X71695500Y-96247500I225000J0D01*
G01*
G37*
G36*
G01*
X78672500Y-102418000D02*
X78172500Y-102418000D01*
G75*
G02*
X77947500Y-102193000I0J225000D01*
G01*
X77947500Y-101743000D01*
G75*
G02*
X78172500Y-101518000I225000J0D01*
G01*
X78672500Y-101518000D01*
G75*
G02*
X78897500Y-101743000I0J-225000D01*
G01*
X78897500Y-102193000D01*
G75*
G02*
X78672500Y-102418000I-225000J0D01*
G01*
G37*
G36*
G01*
X78672500Y-103968000D02*
X78172500Y-103968000D01*
G75*
G02*
X77947500Y-103743000I0J225000D01*
G01*
X77947500Y-103293000D01*
G75*
G02*
X78172500Y-103068000I225000J0D01*
G01*
X78672500Y-103068000D01*
G75*
G02*
X78897500Y-103293000I0J-225000D01*
G01*
X78897500Y-103743000D01*
G75*
G02*
X78672500Y-103968000I-225000J0D01*
G01*
G37*
G36*
G01*
X63264500Y-104398000D02*
X63264500Y-104898000D01*
G75*
G02*
X63039500Y-105123000I-225000J0D01*
G01*
X62589500Y-105123000D01*
G75*
G02*
X62364500Y-104898000I0J225000D01*
G01*
X62364500Y-104398000D01*
G75*
G02*
X62589500Y-104173000I225000J0D01*
G01*
X63039500Y-104173000D01*
G75*
G02*
X63264500Y-104398000I0J-225000D01*
G01*
G37*
G36*
G01*
X61714500Y-104398000D02*
X61714500Y-104898000D01*
G75*
G02*
X61489500Y-105123000I-225000J0D01*
G01*
X61039500Y-105123000D01*
G75*
G02*
X60814500Y-104898000I0J225000D01*
G01*
X60814500Y-104398000D01*
G75*
G02*
X61039500Y-104173000I225000J0D01*
G01*
X61489500Y-104173000D01*
G75*
G02*
X61714500Y-104398000I0J-225000D01*
G01*
G37*
G36*
G01*
X72334000Y-110295500D02*
X72334000Y-109795500D01*
G75*
G02*
X72559000Y-109570500I225000J0D01*
G01*
X73009000Y-109570500D01*
G75*
G02*
X73234000Y-109795500I0J-225000D01*
G01*
X73234000Y-110295500D01*
G75*
G02*
X73009000Y-110520500I-225000J0D01*
G01*
X72559000Y-110520500D01*
G75*
G02*
X72334000Y-110295500I0J225000D01*
G01*
G37*
G36*
G01*
X70784000Y-110295500D02*
X70784000Y-109795500D01*
G75*
G02*
X71009000Y-109570500I225000J0D01*
G01*
X71459000Y-109570500D01*
G75*
G02*
X71684000Y-109795500I0J-225000D01*
G01*
X71684000Y-110295500D01*
G75*
G02*
X71459000Y-110520500I-225000J0D01*
G01*
X71009000Y-110520500D01*
G75*
G02*
X70784000Y-110295500I0J225000D01*
G01*
G37*
G36*
G01*
X70784000Y-102358000D02*
X70784000Y-101858000D01*
G75*
G02*
X71009000Y-101633000I225000J0D01*
G01*
X71459000Y-101633000D01*
G75*
G02*
X71684000Y-101858000I0J-225000D01*
G01*
X71684000Y-102358000D01*
G75*
G02*
X71459000Y-102583000I-225000J0D01*
G01*
X71009000Y-102583000D01*
G75*
G02*
X70784000Y-102358000I0J225000D01*
G01*
G37*
G36*
G01*
X72334000Y-102358000D02*
X72334000Y-101858000D01*
G75*
G02*
X72559000Y-101633000I225000J0D01*
G01*
X73009000Y-101633000D01*
G75*
G02*
X73234000Y-101858000I0J-225000D01*
G01*
X73234000Y-102358000D01*
G75*
G02*
X73009000Y-102583000I-225000J0D01*
G01*
X72559000Y-102583000D01*
G75*
G02*
X72334000Y-102358000I0J225000D01*
G01*
G37*
G36*
G01*
X84895500Y-70985500D02*
X84395500Y-70985500D01*
G75*
G02*
X84170500Y-70760500I0J225000D01*
G01*
X84170500Y-70310500D01*
G75*
G02*
X84395500Y-70085500I225000J0D01*
G01*
X84895500Y-70085500D01*
G75*
G02*
X85120500Y-70310500I0J-225000D01*
G01*
X85120500Y-70760500D01*
G75*
G02*
X84895500Y-70985500I-225000J0D01*
G01*
G37*
G36*
G01*
X84895500Y-72535500D02*
X84395500Y-72535500D01*
G75*
G02*
X84170500Y-72310500I0J225000D01*
G01*
X84170500Y-71860500D01*
G75*
G02*
X84395500Y-71635500I225000J0D01*
G01*
X84895500Y-71635500D01*
G75*
G02*
X85120500Y-71860500I0J-225000D01*
G01*
X85120500Y-72310500D01*
G75*
G02*
X84895500Y-72535500I-225000J0D01*
G01*
G37*
G36*
G01*
X72334000Y-100897500D02*
X72334000Y-100397500D01*
G75*
G02*
X72559000Y-100172500I225000J0D01*
G01*
X73009000Y-100172500D01*
G75*
G02*
X73234000Y-100397500I0J-225000D01*
G01*
X73234000Y-100897500D01*
G75*
G02*
X73009000Y-101122500I-225000J0D01*
G01*
X72559000Y-101122500D01*
G75*
G02*
X72334000Y-100897500I0J225000D01*
G01*
G37*
G36*
G01*
X70784000Y-100897500D02*
X70784000Y-100397500D01*
G75*
G02*
X71009000Y-100172500I225000J0D01*
G01*
X71459000Y-100172500D01*
G75*
G02*
X71684000Y-100397500I0J-225000D01*
G01*
X71684000Y-100897500D01*
G75*
G02*
X71459000Y-101122500I-225000J0D01*
G01*
X71009000Y-101122500D01*
G75*
G02*
X70784000Y-100897500I0J225000D01*
G01*
G37*
G36*
G01*
X70997000Y-107576500D02*
X71497000Y-107576500D01*
G75*
G02*
X71722000Y-107801500I0J-225000D01*
G01*
X71722000Y-108251500D01*
G75*
G02*
X71497000Y-108476500I-225000J0D01*
G01*
X70997000Y-108476500D01*
G75*
G02*
X70772000Y-108251500I0J225000D01*
G01*
X70772000Y-107801500D01*
G75*
G02*
X70997000Y-107576500I225000J0D01*
G01*
G37*
G36*
G01*
X70997000Y-106026500D02*
X71497000Y-106026500D01*
G75*
G02*
X71722000Y-106251500I0J-225000D01*
G01*
X71722000Y-106701500D01*
G75*
G02*
X71497000Y-106926500I-225000J0D01*
G01*
X70997000Y-106926500D01*
G75*
G02*
X70772000Y-106701500I0J225000D01*
G01*
X70772000Y-106251500D01*
G75*
G02*
X70997000Y-106026500I225000J0D01*
G01*
G37*
G36*
G01*
X72457500Y-106026500D02*
X72957500Y-106026500D01*
G75*
G02*
X73182500Y-106251500I0J-225000D01*
G01*
X73182500Y-106701500D01*
G75*
G02*
X72957500Y-106926500I-225000J0D01*
G01*
X72457500Y-106926500D01*
G75*
G02*
X72232500Y-106701500I0J225000D01*
G01*
X72232500Y-106251500D01*
G75*
G02*
X72457500Y-106026500I225000J0D01*
G01*
G37*
G36*
G01*
X72457500Y-107576500D02*
X72957500Y-107576500D01*
G75*
G02*
X73182500Y-107801500I0J-225000D01*
G01*
X73182500Y-108251500D01*
G75*
G02*
X72957500Y-108476500I-225000J0D01*
G01*
X72457500Y-108476500D01*
G75*
G02*
X72232500Y-108251500I0J225000D01*
G01*
X72232500Y-107801500D01*
G75*
G02*
X72457500Y-107576500I225000J0D01*
G01*
G37*
G36*
G01*
X73219500Y-70403000D02*
X73719500Y-70403000D01*
G75*
G02*
X73944500Y-70628000I0J-225000D01*
G01*
X73944500Y-71078000D01*
G75*
G02*
X73719500Y-71303000I-225000J0D01*
G01*
X73219500Y-71303000D01*
G75*
G02*
X72994500Y-71078000I0J225000D01*
G01*
X72994500Y-70628000D01*
G75*
G02*
X73219500Y-70403000I225000J0D01*
G01*
G37*
G36*
G01*
X73219500Y-71953000D02*
X73719500Y-71953000D01*
G75*
G02*
X73944500Y-72178000I0J-225000D01*
G01*
X73944500Y-72628000D01*
G75*
G02*
X73719500Y-72853000I-225000J0D01*
G01*
X73219500Y-72853000D01*
G75*
G02*
X72994500Y-72628000I0J225000D01*
G01*
X72994500Y-72178000D01*
G75*
G02*
X73219500Y-71953000I225000J0D01*
G01*
G37*
G36*
G01*
X73918000Y-107576500D02*
X74418000Y-107576500D01*
G75*
G02*
X74643000Y-107801500I0J-225000D01*
G01*
X74643000Y-108251500D01*
G75*
G02*
X74418000Y-108476500I-225000J0D01*
G01*
X73918000Y-108476500D01*
G75*
G02*
X73693000Y-108251500I0J225000D01*
G01*
X73693000Y-107801500D01*
G75*
G02*
X73918000Y-107576500I225000J0D01*
G01*
G37*
G36*
G01*
X73918000Y-106026500D02*
X74418000Y-106026500D01*
G75*
G02*
X74643000Y-106251500I0J-225000D01*
G01*
X74643000Y-106701500D01*
G75*
G02*
X74418000Y-106926500I-225000J0D01*
G01*
X73918000Y-106926500D01*
G75*
G02*
X73693000Y-106701500I0J225000D01*
G01*
X73693000Y-106251500D01*
G75*
G02*
X73918000Y-106026500I225000J0D01*
G01*
G37*
G36*
G01*
X110191000Y-107573000D02*
X110191000Y-108073000D01*
G75*
G02*
X109966000Y-108298000I-225000J0D01*
G01*
X109516000Y-108298000D01*
G75*
G02*
X109291000Y-108073000I0J225000D01*
G01*
X109291000Y-107573000D01*
G75*
G02*
X109516000Y-107348000I225000J0D01*
G01*
X109966000Y-107348000D01*
G75*
G02*
X110191000Y-107573000I0J-225000D01*
G01*
G37*
G36*
G01*
X108641000Y-107573000D02*
X108641000Y-108073000D01*
G75*
G02*
X108416000Y-108298000I-225000J0D01*
G01*
X107966000Y-108298000D01*
G75*
G02*
X107741000Y-108073000I0J225000D01*
G01*
X107741000Y-107573000D01*
G75*
G02*
X107966000Y-107348000I225000J0D01*
G01*
X108416000Y-107348000D01*
G75*
G02*
X108641000Y-107573000I0J-225000D01*
G01*
G37*
G36*
G01*
X106549000Y-95459000D02*
X106049000Y-95459000D01*
G75*
G02*
X105824000Y-95234000I0J225000D01*
G01*
X105824000Y-94784000D01*
G75*
G02*
X106049000Y-94559000I225000J0D01*
G01*
X106549000Y-94559000D01*
G75*
G02*
X106774000Y-94784000I0J-225000D01*
G01*
X106774000Y-95234000D01*
G75*
G02*
X106549000Y-95459000I-225000J0D01*
G01*
G37*
G36*
G01*
X106549000Y-93909000D02*
X106049000Y-93909000D01*
G75*
G02*
X105824000Y-93684000I0J225000D01*
G01*
X105824000Y-93234000D01*
G75*
G02*
X106049000Y-93009000I225000J0D01*
G01*
X106549000Y-93009000D01*
G75*
G02*
X106774000Y-93234000I0J-225000D01*
G01*
X106774000Y-93684000D01*
G75*
G02*
X106549000Y-93909000I-225000J0D01*
G01*
G37*
G36*
G01*
X115768000Y-108073000D02*
X115768000Y-107573000D01*
G75*
G02*
X115993000Y-107348000I225000J0D01*
G01*
X116443000Y-107348000D01*
G75*
G02*
X116668000Y-107573000I0J-225000D01*
G01*
X116668000Y-108073000D01*
G75*
G02*
X116443000Y-108298000I-225000J0D01*
G01*
X115993000Y-108298000D01*
G75*
G02*
X115768000Y-108073000I0J225000D01*
G01*
G37*
G36*
G01*
X114218000Y-108073000D02*
X114218000Y-107573000D01*
G75*
G02*
X114443000Y-107348000I225000J0D01*
G01*
X114893000Y-107348000D01*
G75*
G02*
X115118000Y-107573000I0J-225000D01*
G01*
X115118000Y-108073000D01*
G75*
G02*
X114893000Y-108298000I-225000J0D01*
G01*
X114443000Y-108298000D01*
G75*
G02*
X114218000Y-108073000I0J225000D01*
G01*
G37*
G36*
G01*
X108260000Y-93222000D02*
X108260000Y-93722000D01*
G75*
G02*
X108035000Y-93947000I-225000J0D01*
G01*
X107585000Y-93947000D01*
G75*
G02*
X107360000Y-93722000I0J225000D01*
G01*
X107360000Y-93222000D01*
G75*
G02*
X107585000Y-92997000I225000J0D01*
G01*
X108035000Y-92997000D01*
G75*
G02*
X108260000Y-93222000I0J-225000D01*
G01*
G37*
G36*
G01*
X109810000Y-93222000D02*
X109810000Y-93722000D01*
G75*
G02*
X109585000Y-93947000I-225000J0D01*
G01*
X109135000Y-93947000D01*
G75*
G02*
X108910000Y-93722000I0J225000D01*
G01*
X108910000Y-93222000D01*
G75*
G02*
X109135000Y-92997000I225000J0D01*
G01*
X109585000Y-92997000D01*
G75*
G02*
X109810000Y-93222000I0J-225000D01*
G01*
G37*
G36*
G01*
X110408000Y-93722000D02*
X110408000Y-93222000D01*
G75*
G02*
X110633000Y-92997000I225000J0D01*
G01*
X111083000Y-92997000D01*
G75*
G02*
X111308000Y-93222000I0J-225000D01*
G01*
X111308000Y-93722000D01*
G75*
G02*
X111083000Y-93947000I-225000J0D01*
G01*
X110633000Y-93947000D01*
G75*
G02*
X110408000Y-93722000I0J225000D01*
G01*
G37*
G36*
G01*
X111958000Y-93722000D02*
X111958000Y-93222000D01*
G75*
G02*
X112183000Y-92997000I225000J0D01*
G01*
X112633000Y-92997000D01*
G75*
G02*
X112858000Y-93222000I0J-225000D01*
G01*
X112858000Y-93722000D01*
G75*
G02*
X112633000Y-93947000I-225000J0D01*
G01*
X112183000Y-93947000D01*
G75*
G02*
X111958000Y-93722000I0J225000D01*
G01*
G37*
G36*
G01*
X114356000Y-93222000D02*
X114356000Y-93722000D01*
G75*
G02*
X114131000Y-93947000I-225000J0D01*
G01*
X113681000Y-93947000D01*
G75*
G02*
X113456000Y-93722000I0J225000D01*
G01*
X113456000Y-93222000D01*
G75*
G02*
X113681000Y-92997000I225000J0D01*
G01*
X114131000Y-92997000D01*
G75*
G02*
X114356000Y-93222000I0J-225000D01*
G01*
G37*
G36*
G01*
X115906000Y-93222000D02*
X115906000Y-93722000D01*
G75*
G02*
X115681000Y-93947000I-225000J0D01*
G01*
X115231000Y-93947000D01*
G75*
G02*
X115006000Y-93722000I0J225000D01*
G01*
X115006000Y-93222000D01*
G75*
G02*
X115231000Y-92997000I225000J0D01*
G01*
X115681000Y-92997000D01*
G75*
G02*
X115906000Y-93222000I0J-225000D01*
G01*
G37*
G36*
G01*
X113773500Y-115312000D02*
X113773500Y-114812000D01*
G75*
G02*
X113998500Y-114587000I225000J0D01*
G01*
X114448500Y-114587000D01*
G75*
G02*
X114673500Y-114812000I0J-225000D01*
G01*
X114673500Y-115312000D01*
G75*
G02*
X114448500Y-115537000I-225000J0D01*
G01*
X113998500Y-115537000D01*
G75*
G02*
X113773500Y-115312000I0J225000D01*
G01*
G37*
G36*
G01*
X115323500Y-115312000D02*
X115323500Y-114812000D01*
G75*
G02*
X115548500Y-114587000I225000J0D01*
G01*
X115998500Y-114587000D01*
G75*
G02*
X116223500Y-114812000I0J-225000D01*
G01*
X116223500Y-115312000D01*
G75*
G02*
X115998500Y-115537000I-225000J0D01*
G01*
X115548500Y-115537000D01*
G75*
G02*
X115323500Y-115312000I0J225000D01*
G01*
G37*
G36*
G01*
X119130000Y-95612500D02*
X119630000Y-95612500D01*
G75*
G02*
X119855000Y-95837500I0J-225000D01*
G01*
X119855000Y-96287500D01*
G75*
G02*
X119630000Y-96512500I-225000J0D01*
G01*
X119130000Y-96512500D01*
G75*
G02*
X118905000Y-96287500I0J225000D01*
G01*
X118905000Y-95837500D01*
G75*
G02*
X119130000Y-95612500I225000J0D01*
G01*
G37*
G36*
G01*
X119130000Y-97162500D02*
X119630000Y-97162500D01*
G75*
G02*
X119855000Y-97387500I0J-225000D01*
G01*
X119855000Y-97837500D01*
G75*
G02*
X119630000Y-98062500I-225000J0D01*
G01*
X119130000Y-98062500D01*
G75*
G02*
X118905000Y-97837500I0J225000D01*
G01*
X118905000Y-97387500D01*
G75*
G02*
X119130000Y-97162500I225000J0D01*
G01*
G37*
G36*
G01*
X119130000Y-101099500D02*
X119630000Y-101099500D01*
G75*
G02*
X119855000Y-101324500I0J-225000D01*
G01*
X119855000Y-101774500D01*
G75*
G02*
X119630000Y-101999500I-225000J0D01*
G01*
X119130000Y-101999500D01*
G75*
G02*
X118905000Y-101774500I0J225000D01*
G01*
X118905000Y-101324500D01*
G75*
G02*
X119130000Y-101099500I225000J0D01*
G01*
G37*
G36*
G01*
X119130000Y-99549500D02*
X119630000Y-99549500D01*
G75*
G02*
X119855000Y-99774500I0J-225000D01*
G01*
X119855000Y-100224500D01*
G75*
G02*
X119630000Y-100449500I-225000J0D01*
G01*
X119130000Y-100449500D01*
G75*
G02*
X118905000Y-100224500I0J225000D01*
G01*
X118905000Y-99774500D01*
G75*
G02*
X119130000Y-99549500I225000J0D01*
G01*
G37*
G36*
G01*
X65026250Y-60851500D02*
X64513750Y-60851500D01*
G75*
G02*
X64295000Y-60632750I0J218750D01*
G01*
X64295000Y-60195250D01*
G75*
G02*
X64513750Y-59976500I218750J0D01*
G01*
X65026250Y-59976500D01*
G75*
G02*
X65245000Y-60195250I0J-218750D01*
G01*
X65245000Y-60632750D01*
G75*
G02*
X65026250Y-60851500I-218750J0D01*
G01*
G37*
G36*
G01*
X65026250Y-59276500D02*
X64513750Y-59276500D01*
G75*
G02*
X64295000Y-59057750I0J218750D01*
G01*
X64295000Y-58620250D01*
G75*
G02*
X64513750Y-58401500I218750J0D01*
G01*
X65026250Y-58401500D01*
G75*
G02*
X65245000Y-58620250I0J-218750D01*
G01*
X65245000Y-59057750D01*
G75*
G02*
X65026250Y-59276500I-218750J0D01*
G01*
G37*
G36*
G01*
X72328750Y-59276500D02*
X71816250Y-59276500D01*
G75*
G02*
X71597500Y-59057750I0J218750D01*
G01*
X71597500Y-58620250D01*
G75*
G02*
X71816250Y-58401500I218750J0D01*
G01*
X72328750Y-58401500D01*
G75*
G02*
X72547500Y-58620250I0J-218750D01*
G01*
X72547500Y-59057750D01*
G75*
G02*
X72328750Y-59276500I-218750J0D01*
G01*
G37*
G36*
G01*
X72328750Y-60851500D02*
X71816250Y-60851500D01*
G75*
G02*
X71597500Y-60632750I0J218750D01*
G01*
X71597500Y-60195250D01*
G75*
G02*
X71816250Y-59976500I218750J0D01*
G01*
X72328750Y-59976500D01*
G75*
G02*
X72547500Y-60195250I0J-218750D01*
G01*
X72547500Y-60632750D01*
G75*
G02*
X72328750Y-60851500I-218750J0D01*
G01*
G37*
D14*
X119050000Y-124681000D03*
X119850000Y-124681000D03*
X120650000Y-124681000D03*
X121450000Y-124681000D03*
X122250000Y-124681000D03*
D15*
X116200000Y-124781000D03*
X116200000Y-130231000D03*
X125100000Y-124781000D03*
X125100000Y-130231000D03*
D16*
X118450000Y-127381000D03*
X122850000Y-127381000D03*
G36*
G01*
X76083000Y-106298750D02*
X76083000Y-107061250D01*
G75*
G02*
X75864250Y-107280000I-218750J0D01*
G01*
X75426750Y-107280000D01*
G75*
G02*
X75208000Y-107061250I0J218750D01*
G01*
X75208000Y-106298750D01*
G75*
G02*
X75426750Y-106080000I218750J0D01*
G01*
X75864250Y-106080000D01*
G75*
G02*
X76083000Y-106298750I0J-218750D01*
G01*
G37*
G36*
G01*
X78208000Y-106298750D02*
X78208000Y-107061250D01*
G75*
G02*
X77989250Y-107280000I-218750J0D01*
G01*
X77551750Y-107280000D01*
G75*
G02*
X77333000Y-107061250I0J218750D01*
G01*
X77333000Y-106298750D01*
G75*
G02*
X77551750Y-106080000I218750J0D01*
G01*
X77989250Y-106080000D01*
G75*
G02*
X78208000Y-106298750I0J-218750D01*
G01*
G37*
G36*
G01*
X63034500Y-58401500D02*
X63584500Y-58401500D01*
G75*
G02*
X63784500Y-58601500I0J-200000D01*
G01*
X63784500Y-59001500D01*
G75*
G02*
X63584500Y-59201500I-200000J0D01*
G01*
X63034500Y-59201500D01*
G75*
G02*
X62834500Y-59001500I0J200000D01*
G01*
X62834500Y-58601500D01*
G75*
G02*
X63034500Y-58401500I200000J0D01*
G01*
G37*
G36*
G01*
X63034500Y-60051500D02*
X63584500Y-60051500D01*
G75*
G02*
X63784500Y-60251500I0J-200000D01*
G01*
X63784500Y-60651500D01*
G75*
G02*
X63584500Y-60851500I-200000J0D01*
G01*
X63034500Y-60851500D01*
G75*
G02*
X62834500Y-60651500I0J200000D01*
G01*
X62834500Y-60251500D01*
G75*
G02*
X63034500Y-60051500I200000J0D01*
G01*
G37*
G36*
G01*
X70464000Y-60051500D02*
X71014000Y-60051500D01*
G75*
G02*
X71214000Y-60251500I0J-200000D01*
G01*
X71214000Y-60651500D01*
G75*
G02*
X71014000Y-60851500I-200000J0D01*
G01*
X70464000Y-60851500D01*
G75*
G02*
X70264000Y-60651500I0J200000D01*
G01*
X70264000Y-60251500D01*
G75*
G02*
X70464000Y-60051500I200000J0D01*
G01*
G37*
G36*
G01*
X70464000Y-58401500D02*
X71014000Y-58401500D01*
G75*
G02*
X71214000Y-58601500I0J-200000D01*
G01*
X71214000Y-59001500D01*
G75*
G02*
X71014000Y-59201500I-200000J0D01*
G01*
X70464000Y-59201500D01*
G75*
G02*
X70264000Y-59001500I0J200000D01*
G01*
X70264000Y-58601500D01*
G75*
G02*
X70464000Y-58401500I200000J0D01*
G01*
G37*
G36*
G01*
X111779500Y-107548000D02*
X111779500Y-108098000D01*
G75*
G02*
X111579500Y-108298000I-200000J0D01*
G01*
X111179500Y-108298000D01*
G75*
G02*
X110979500Y-108098000I0J200000D01*
G01*
X110979500Y-107548000D01*
G75*
G02*
X111179500Y-107348000I200000J0D01*
G01*
X111579500Y-107348000D01*
G75*
G02*
X111779500Y-107548000I0J-200000D01*
G01*
G37*
G36*
G01*
X113429500Y-107548000D02*
X113429500Y-108098000D01*
G75*
G02*
X113229500Y-108298000I-200000J0D01*
G01*
X112829500Y-108298000D01*
G75*
G02*
X112629500Y-108098000I0J200000D01*
G01*
X112629500Y-107548000D01*
G75*
G02*
X112829500Y-107348000I200000J0D01*
G01*
X113229500Y-107348000D01*
G75*
G02*
X113429500Y-107548000I0J-200000D01*
G01*
G37*
G36*
G01*
X118258000Y-108222500D02*
X117708000Y-108222500D01*
G75*
G02*
X117508000Y-108022500I0J200000D01*
G01*
X117508000Y-107622500D01*
G75*
G02*
X117708000Y-107422500I200000J0D01*
G01*
X118258000Y-107422500D01*
G75*
G02*
X118458000Y-107622500I0J-200000D01*
G01*
X118458000Y-108022500D01*
G75*
G02*
X118258000Y-108222500I-200000J0D01*
G01*
G37*
G36*
G01*
X118258000Y-106572500D02*
X117708000Y-106572500D01*
G75*
G02*
X117508000Y-106372500I0J200000D01*
G01*
X117508000Y-105972500D01*
G75*
G02*
X117708000Y-105772500I200000J0D01*
G01*
X118258000Y-105772500D01*
G75*
G02*
X118458000Y-105972500I0J-200000D01*
G01*
X118458000Y-106372500D01*
G75*
G02*
X118258000Y-106572500I-200000J0D01*
G01*
G37*
G36*
G01*
X120544000Y-116415000D02*
X119994000Y-116415000D01*
G75*
G02*
X119794000Y-116215000I0J200000D01*
G01*
X119794000Y-115815000D01*
G75*
G02*
X119994000Y-115615000I200000J0D01*
G01*
X120544000Y-115615000D01*
G75*
G02*
X120744000Y-115815000I0J-200000D01*
G01*
X120744000Y-116215000D01*
G75*
G02*
X120544000Y-116415000I-200000J0D01*
G01*
G37*
G36*
G01*
X120544000Y-118065000D02*
X119994000Y-118065000D01*
G75*
G02*
X119794000Y-117865000I0J200000D01*
G01*
X119794000Y-117465000D01*
G75*
G02*
X119994000Y-117265000I200000J0D01*
G01*
X120544000Y-117265000D01*
G75*
G02*
X120744000Y-117465000I0J-200000D01*
G01*
X120744000Y-117865000D01*
G75*
G02*
X120544000Y-118065000I-200000J0D01*
G01*
G37*
G36*
G01*
X76980500Y-99674000D02*
X76980500Y-100224000D01*
G75*
G02*
X76780500Y-100424000I-200000J0D01*
G01*
X76380500Y-100424000D01*
G75*
G02*
X76180500Y-100224000I0J200000D01*
G01*
X76180500Y-99674000D01*
G75*
G02*
X76380500Y-99474000I200000J0D01*
G01*
X76780500Y-99474000D01*
G75*
G02*
X76980500Y-99674000I0J-200000D01*
G01*
G37*
G36*
G01*
X75330500Y-99674000D02*
X75330500Y-100224000D01*
G75*
G02*
X75130500Y-100424000I-200000J0D01*
G01*
X74730500Y-100424000D01*
G75*
G02*
X74530500Y-100224000I0J200000D01*
G01*
X74530500Y-99674000D01*
G75*
G02*
X74730500Y-99474000I200000J0D01*
G01*
X75130500Y-99474000D01*
G75*
G02*
X75330500Y-99674000I0J-200000D01*
G01*
G37*
G36*
G01*
X74276500Y-105304000D02*
X74276500Y-104754000D01*
G75*
G02*
X74476500Y-104554000I200000J0D01*
G01*
X74876500Y-104554000D01*
G75*
G02*
X75076500Y-104754000I0J-200000D01*
G01*
X75076500Y-105304000D01*
G75*
G02*
X74876500Y-105504000I-200000J0D01*
G01*
X74476500Y-105504000D01*
G75*
G02*
X74276500Y-105304000I0J200000D01*
G01*
G37*
G36*
G01*
X75926500Y-105304000D02*
X75926500Y-104754000D01*
G75*
G02*
X76126500Y-104554000I200000J0D01*
G01*
X76526500Y-104554000D01*
G75*
G02*
X76726500Y-104754000I0J-200000D01*
G01*
X76726500Y-105304000D01*
G75*
G02*
X76526500Y-105504000I-200000J0D01*
G01*
X76126500Y-105504000D01*
G75*
G02*
X75926500Y-105304000I0J200000D01*
G01*
G37*
G36*
G01*
X70784000Y-105304000D02*
X70784000Y-104754000D01*
G75*
G02*
X70984000Y-104554000I200000J0D01*
G01*
X71384000Y-104554000D01*
G75*
G02*
X71584000Y-104754000I0J-200000D01*
G01*
X71584000Y-105304000D01*
G75*
G02*
X71384000Y-105504000I-200000J0D01*
G01*
X70984000Y-105504000D01*
G75*
G02*
X70784000Y-105304000I0J200000D01*
G01*
G37*
G36*
G01*
X72434000Y-105304000D02*
X72434000Y-104754000D01*
G75*
G02*
X72634000Y-104554000I200000J0D01*
G01*
X73034000Y-104554000D01*
G75*
G02*
X73234000Y-104754000I0J-200000D01*
G01*
X73234000Y-105304000D01*
G75*
G02*
X73034000Y-105504000I-200000J0D01*
G01*
X72634000Y-105504000D01*
G75*
G02*
X72434000Y-105304000I0J200000D01*
G01*
G37*
G36*
G01*
X68601000Y-99079500D02*
X68051000Y-99079500D01*
G75*
G02*
X67851000Y-98879500I0J200000D01*
G01*
X67851000Y-98479500D01*
G75*
G02*
X68051000Y-98279500I200000J0D01*
G01*
X68601000Y-98279500D01*
G75*
G02*
X68801000Y-98479500I0J-200000D01*
G01*
X68801000Y-98879500D01*
G75*
G02*
X68601000Y-99079500I-200000J0D01*
G01*
G37*
G36*
G01*
X68601000Y-100729500D02*
X68051000Y-100729500D01*
G75*
G02*
X67851000Y-100529500I0J200000D01*
G01*
X67851000Y-100129500D01*
G75*
G02*
X68051000Y-99929500I200000J0D01*
G01*
X68601000Y-99929500D01*
G75*
G02*
X68801000Y-100129500I0J-200000D01*
G01*
X68801000Y-100529500D01*
G75*
G02*
X68601000Y-100729500I-200000J0D01*
G01*
G37*
G36*
G01*
X70061500Y-100729500D02*
X69511500Y-100729500D01*
G75*
G02*
X69311500Y-100529500I0J200000D01*
G01*
X69311500Y-100129500D01*
G75*
G02*
X69511500Y-99929500I200000J0D01*
G01*
X70061500Y-99929500D01*
G75*
G02*
X70261500Y-100129500I0J-200000D01*
G01*
X70261500Y-100529500D01*
G75*
G02*
X70061500Y-100729500I-200000J0D01*
G01*
G37*
G36*
G01*
X70061500Y-99079500D02*
X69511500Y-99079500D01*
G75*
G02*
X69311500Y-98879500I0J200000D01*
G01*
X69311500Y-98479500D01*
G75*
G02*
X69511500Y-98279500I200000J0D01*
G01*
X70061500Y-98279500D01*
G75*
G02*
X70261500Y-98479500I0J-200000D01*
G01*
X70261500Y-98879500D01*
G75*
G02*
X70061500Y-99079500I-200000J0D01*
G01*
G37*
G36*
G01*
X64219500Y-99079500D02*
X63669500Y-99079500D01*
G75*
G02*
X63469500Y-98879500I0J200000D01*
G01*
X63469500Y-98479500D01*
G75*
G02*
X63669500Y-98279500I200000J0D01*
G01*
X64219500Y-98279500D01*
G75*
G02*
X64419500Y-98479500I0J-200000D01*
G01*
X64419500Y-98879500D01*
G75*
G02*
X64219500Y-99079500I-200000J0D01*
G01*
G37*
G36*
G01*
X64219500Y-100729500D02*
X63669500Y-100729500D01*
G75*
G02*
X63469500Y-100529500I0J200000D01*
G01*
X63469500Y-100129500D01*
G75*
G02*
X63669500Y-99929500I200000J0D01*
G01*
X64219500Y-99929500D01*
G75*
G02*
X64419500Y-100129500I0J-200000D01*
G01*
X64419500Y-100529500D01*
G75*
G02*
X64219500Y-100729500I-200000J0D01*
G01*
G37*
G36*
G01*
X72434000Y-103843500D02*
X72434000Y-103293500D01*
G75*
G02*
X72634000Y-103093500I200000J0D01*
G01*
X73034000Y-103093500D01*
G75*
G02*
X73234000Y-103293500I0J-200000D01*
G01*
X73234000Y-103843500D01*
G75*
G02*
X73034000Y-104043500I-200000J0D01*
G01*
X72634000Y-104043500D01*
G75*
G02*
X72434000Y-103843500I0J200000D01*
G01*
G37*
G36*
G01*
X70784000Y-103843500D02*
X70784000Y-103293500D01*
G75*
G02*
X70984000Y-103093500I200000J0D01*
G01*
X71384000Y-103093500D01*
G75*
G02*
X71584000Y-103293500I0J-200000D01*
G01*
X71584000Y-103843500D01*
G75*
G02*
X71384000Y-104043500I-200000J0D01*
G01*
X70984000Y-104043500D01*
G75*
G02*
X70784000Y-103843500I0J200000D01*
G01*
G37*
G36*
G01*
X65130000Y-99929500D02*
X65680000Y-99929500D01*
G75*
G02*
X65880000Y-100129500I0J-200000D01*
G01*
X65880000Y-100529500D01*
G75*
G02*
X65680000Y-100729500I-200000J0D01*
G01*
X65130000Y-100729500D01*
G75*
G02*
X64930000Y-100529500I0J200000D01*
G01*
X64930000Y-100129500D01*
G75*
G02*
X65130000Y-99929500I200000J0D01*
G01*
G37*
G36*
G01*
X65130000Y-98279500D02*
X65680000Y-98279500D01*
G75*
G02*
X65880000Y-98479500I0J-200000D01*
G01*
X65880000Y-98879500D01*
G75*
G02*
X65680000Y-99079500I-200000J0D01*
G01*
X65130000Y-99079500D01*
G75*
G02*
X64930000Y-98879500I0J200000D01*
G01*
X64930000Y-98479500D01*
G75*
G02*
X65130000Y-98279500I200000J0D01*
G01*
G37*
G36*
G01*
X60814500Y-102002000D02*
X60814500Y-101452000D01*
G75*
G02*
X61014500Y-101252000I200000J0D01*
G01*
X61414500Y-101252000D01*
G75*
G02*
X61614500Y-101452000I0J-200000D01*
G01*
X61614500Y-102002000D01*
G75*
G02*
X61414500Y-102202000I-200000J0D01*
G01*
X61014500Y-102202000D01*
G75*
G02*
X60814500Y-102002000I0J200000D01*
G01*
G37*
G36*
G01*
X62464500Y-102002000D02*
X62464500Y-101452000D01*
G75*
G02*
X62664500Y-101252000I200000J0D01*
G01*
X63064500Y-101252000D01*
G75*
G02*
X63264500Y-101452000I0J-200000D01*
G01*
X63264500Y-102002000D01*
G75*
G02*
X63064500Y-102202000I-200000J0D01*
G01*
X62664500Y-102202000D01*
G75*
G02*
X62464500Y-102002000I0J200000D01*
G01*
G37*
G36*
G01*
X60814500Y-103462500D02*
X60814500Y-102912500D01*
G75*
G02*
X61014500Y-102712500I200000J0D01*
G01*
X61414500Y-102712500D01*
G75*
G02*
X61614500Y-102912500I0J-200000D01*
G01*
X61614500Y-103462500D01*
G75*
G02*
X61414500Y-103662500I-200000J0D01*
G01*
X61014500Y-103662500D01*
G75*
G02*
X60814500Y-103462500I0J200000D01*
G01*
G37*
G36*
G01*
X62464500Y-103462500D02*
X62464500Y-102912500D01*
G75*
G02*
X62664500Y-102712500I200000J0D01*
G01*
X63064500Y-102712500D01*
G75*
G02*
X63264500Y-102912500I0J-200000D01*
G01*
X63264500Y-103462500D01*
G75*
G02*
X63064500Y-103662500I-200000J0D01*
G01*
X62664500Y-103662500D01*
G75*
G02*
X62464500Y-103462500I0J200000D01*
G01*
G37*
G36*
G01*
X69998000Y-108795000D02*
X69448000Y-108795000D01*
G75*
G02*
X69248000Y-108595000I0J200000D01*
G01*
X69248000Y-108195000D01*
G75*
G02*
X69448000Y-107995000I200000J0D01*
G01*
X69998000Y-107995000D01*
G75*
G02*
X70198000Y-108195000I0J-200000D01*
G01*
X70198000Y-108595000D01*
G75*
G02*
X69998000Y-108795000I-200000J0D01*
G01*
G37*
G36*
G01*
X69998000Y-110445000D02*
X69448000Y-110445000D01*
G75*
G02*
X69248000Y-110245000I0J200000D01*
G01*
X69248000Y-109845000D01*
G75*
G02*
X69448000Y-109645000I200000J0D01*
G01*
X69998000Y-109645000D01*
G75*
G02*
X70198000Y-109845000I0J-200000D01*
G01*
X70198000Y-110245000D01*
G75*
G02*
X69998000Y-110445000I-200000J0D01*
G01*
G37*
G36*
G01*
X75903500Y-108858500D02*
X75353500Y-108858500D01*
G75*
G02*
X75153500Y-108658500I0J200000D01*
G01*
X75153500Y-108258500D01*
G75*
G02*
X75353500Y-108058500I200000J0D01*
G01*
X75903500Y-108058500D01*
G75*
G02*
X76103500Y-108258500I0J-200000D01*
G01*
X76103500Y-108658500D01*
G75*
G02*
X75903500Y-108858500I-200000J0D01*
G01*
G37*
G36*
G01*
X75903500Y-110508500D02*
X75353500Y-110508500D01*
G75*
G02*
X75153500Y-110308500I0J200000D01*
G01*
X75153500Y-109908500D01*
G75*
G02*
X75353500Y-109708500I200000J0D01*
G01*
X75903500Y-109708500D01*
G75*
G02*
X76103500Y-109908500I0J-200000D01*
G01*
X76103500Y-110308500D01*
G75*
G02*
X75903500Y-110508500I-200000J0D01*
G01*
G37*
G36*
G01*
X77364000Y-110508500D02*
X76814000Y-110508500D01*
G75*
G02*
X76614000Y-110308500I0J200000D01*
G01*
X76614000Y-109908500D01*
G75*
G02*
X76814000Y-109708500I200000J0D01*
G01*
X77364000Y-109708500D01*
G75*
G02*
X77564000Y-109908500I0J-200000D01*
G01*
X77564000Y-110308500D01*
G75*
G02*
X77364000Y-110508500I-200000J0D01*
G01*
G37*
G36*
G01*
X77364000Y-108858500D02*
X76814000Y-108858500D01*
G75*
G02*
X76614000Y-108658500I0J200000D01*
G01*
X76614000Y-108258500D01*
G75*
G02*
X76814000Y-108058500I200000J0D01*
G01*
X77364000Y-108058500D01*
G75*
G02*
X77564000Y-108258500I0J-200000D01*
G01*
X77564000Y-108658500D01*
G75*
G02*
X77364000Y-108858500I-200000J0D01*
G01*
G37*
G36*
G01*
X118766000Y-118065000D02*
X118216000Y-118065000D01*
G75*
G02*
X118016000Y-117865000I0J200000D01*
G01*
X118016000Y-117465000D01*
G75*
G02*
X118216000Y-117265000I200000J0D01*
G01*
X118766000Y-117265000D01*
G75*
G02*
X118966000Y-117465000I0J-200000D01*
G01*
X118966000Y-117865000D01*
G75*
G02*
X118766000Y-118065000I-200000J0D01*
G01*
G37*
G36*
G01*
X118766000Y-116415000D02*
X118216000Y-116415000D01*
G75*
G02*
X118016000Y-116215000I0J200000D01*
G01*
X118016000Y-115815000D01*
G75*
G02*
X118216000Y-115615000I200000J0D01*
G01*
X118766000Y-115615000D01*
G75*
G02*
X118966000Y-115815000I0J-200000D01*
G01*
X118966000Y-116215000D01*
G75*
G02*
X118766000Y-116415000I-200000J0D01*
G01*
G37*
G36*
G01*
X113178000Y-118002500D02*
X112628000Y-118002500D01*
G75*
G02*
X112428000Y-117802500I0J200000D01*
G01*
X112428000Y-117402500D01*
G75*
G02*
X112628000Y-117202500I200000J0D01*
G01*
X113178000Y-117202500D01*
G75*
G02*
X113378000Y-117402500I0J-200000D01*
G01*
X113378000Y-117802500D01*
G75*
G02*
X113178000Y-118002500I-200000J0D01*
G01*
G37*
G36*
G01*
X113178000Y-119652500D02*
X112628000Y-119652500D01*
G75*
G02*
X112428000Y-119452500I0J200000D01*
G01*
X112428000Y-119052500D01*
G75*
G02*
X112628000Y-118852500I200000J0D01*
G01*
X113178000Y-118852500D01*
G75*
G02*
X113378000Y-119052500I0J-200000D01*
G01*
X113378000Y-119452500D01*
G75*
G02*
X113178000Y-119652500I-200000J0D01*
G01*
G37*
G36*
G01*
X114599000Y-120544000D02*
X114599000Y-119994000D01*
G75*
G02*
X114799000Y-119794000I200000J0D01*
G01*
X115199000Y-119794000D01*
G75*
G02*
X115399000Y-119994000I0J-200000D01*
G01*
X115399000Y-120544000D01*
G75*
G02*
X115199000Y-120744000I-200000J0D01*
G01*
X114799000Y-120744000D01*
G75*
G02*
X114599000Y-120544000I0J200000D01*
G01*
G37*
G36*
G01*
X116249000Y-120544000D02*
X116249000Y-119994000D01*
G75*
G02*
X116449000Y-119794000I200000J0D01*
G01*
X116849000Y-119794000D01*
G75*
G02*
X117049000Y-119994000I0J-200000D01*
G01*
X117049000Y-120544000D01*
G75*
G02*
X116849000Y-120744000I-200000J0D01*
G01*
X116449000Y-120744000D01*
G75*
G02*
X116249000Y-120544000I0J200000D01*
G01*
G37*
G36*
G01*
X121645000Y-120694000D02*
X122195000Y-120694000D01*
G75*
G02*
X122395000Y-120894000I0J-200000D01*
G01*
X122395000Y-121294000D01*
G75*
G02*
X122195000Y-121494000I-200000J0D01*
G01*
X121645000Y-121494000D01*
G75*
G02*
X121445000Y-121294000I0J200000D01*
G01*
X121445000Y-120894000D01*
G75*
G02*
X121645000Y-120694000I200000J0D01*
G01*
G37*
G36*
G01*
X121645000Y-119044000D02*
X122195000Y-119044000D01*
G75*
G02*
X122395000Y-119244000I0J-200000D01*
G01*
X122395000Y-119644000D01*
G75*
G02*
X122195000Y-119844000I-200000J0D01*
G01*
X121645000Y-119844000D01*
G75*
G02*
X121445000Y-119644000I0J200000D01*
G01*
X121445000Y-119244000D01*
G75*
G02*
X121645000Y-119044000I200000J0D01*
G01*
G37*
G36*
G01*
X117049000Y-121518000D02*
X117049000Y-122068000D01*
G75*
G02*
X116849000Y-122268000I-200000J0D01*
G01*
X116449000Y-122268000D01*
G75*
G02*
X116249000Y-122068000I0J200000D01*
G01*
X116249000Y-121518000D01*
G75*
G02*
X116449000Y-121318000I200000J0D01*
G01*
X116849000Y-121318000D01*
G75*
G02*
X117049000Y-121518000I0J-200000D01*
G01*
G37*
G36*
G01*
X115399000Y-121518000D02*
X115399000Y-122068000D01*
G75*
G02*
X115199000Y-122268000I-200000J0D01*
G01*
X114799000Y-122268000D01*
G75*
G02*
X114599000Y-122068000I0J200000D01*
G01*
X114599000Y-121518000D01*
G75*
G02*
X114799000Y-121318000I200000J0D01*
G01*
X115199000Y-121318000D01*
G75*
G02*
X115399000Y-121518000I0J-200000D01*
G01*
G37*
X119380000Y-103378000D03*
G36*
G01*
X68112500Y-56388500D02*
X68412500Y-56388500D01*
G75*
G02*
X68562500Y-56538500I0J-150000D01*
G01*
X68562500Y-57863500D01*
G75*
G02*
X68412500Y-58013500I-150000J0D01*
G01*
X68112500Y-58013500D01*
G75*
G02*
X67962500Y-57863500I0J150000D01*
G01*
X67962500Y-56538500D01*
G75*
G02*
X68112500Y-56388500I150000J0D01*
G01*
G37*
G36*
G01*
X66842500Y-56388500D02*
X67142500Y-56388500D01*
G75*
G02*
X67292500Y-56538500I0J-150000D01*
G01*
X67292500Y-57863500D01*
G75*
G02*
X67142500Y-58013500I-150000J0D01*
G01*
X66842500Y-58013500D01*
G75*
G02*
X66692500Y-57863500I0J150000D01*
G01*
X66692500Y-56538500D01*
G75*
G02*
X66842500Y-56388500I150000J0D01*
G01*
G37*
G36*
G01*
X66842500Y-62763500D02*
X67142500Y-62763500D01*
G75*
G02*
X67292500Y-62913500I0J-150000D01*
G01*
X67292500Y-64238500D01*
G75*
G02*
X67142500Y-64388500I-150000J0D01*
G01*
X66842500Y-64388500D01*
G75*
G02*
X66692500Y-64238500I0J150000D01*
G01*
X66692500Y-62913500D01*
G75*
G02*
X66842500Y-62763500I150000J0D01*
G01*
G37*
G36*
G01*
X68112500Y-62763500D02*
X68412500Y-62763500D01*
G75*
G02*
X68562500Y-62913500I0J-150000D01*
G01*
X68562500Y-64238500D01*
G75*
G02*
X68412500Y-64388500I-150000J0D01*
G01*
X68112500Y-64388500D01*
G75*
G02*
X67962500Y-64238500I0J150000D01*
G01*
X67962500Y-62913500D01*
G75*
G02*
X68112500Y-62763500I150000J0D01*
G01*
G37*
G36*
G01*
X75478500Y-62763500D02*
X75778500Y-62763500D01*
G75*
G02*
X75928500Y-62913500I0J-150000D01*
G01*
X75928500Y-64238500D01*
G75*
G02*
X75778500Y-64388500I-150000J0D01*
G01*
X75478500Y-64388500D01*
G75*
G02*
X75328500Y-64238500I0J150000D01*
G01*
X75328500Y-62913500D01*
G75*
G02*
X75478500Y-62763500I150000J0D01*
G01*
G37*
G36*
G01*
X74208500Y-62763500D02*
X74508500Y-62763500D01*
G75*
G02*
X74658500Y-62913500I0J-150000D01*
G01*
X74658500Y-64238500D01*
G75*
G02*
X74508500Y-64388500I-150000J0D01*
G01*
X74208500Y-64388500D01*
G75*
G02*
X74058500Y-64238500I0J150000D01*
G01*
X74058500Y-62913500D01*
G75*
G02*
X74208500Y-62763500I150000J0D01*
G01*
G37*
G36*
G01*
X74208500Y-56388500D02*
X74508500Y-56388500D01*
G75*
G02*
X74658500Y-56538500I0J-150000D01*
G01*
X74658500Y-57863500D01*
G75*
G02*
X74508500Y-58013500I-150000J0D01*
G01*
X74208500Y-58013500D01*
G75*
G02*
X74058500Y-57863500I0J150000D01*
G01*
X74058500Y-56538500D01*
G75*
G02*
X74208500Y-56388500I150000J0D01*
G01*
G37*
G36*
G01*
X75478500Y-56388500D02*
X75778500Y-56388500D01*
G75*
G02*
X75928500Y-56538500I0J-150000D01*
G01*
X75928500Y-57863500D01*
G75*
G02*
X75778500Y-58013500I-150000J0D01*
G01*
X75478500Y-58013500D01*
G75*
G02*
X75328500Y-57863500I0J150000D01*
G01*
X75328500Y-56538500D01*
G75*
G02*
X75478500Y-56388500I150000J0D01*
G01*
G37*
D17*
X111059000Y-116832200D03*
X110109000Y-116832200D03*
X109159000Y-116832200D03*
X109159000Y-119032200D03*
X111059000Y-119032200D03*
D18*
X74924300Y-85950300D03*
D19*
X67424300Y-93450300D03*
X68694300Y-93450300D03*
X69964300Y-93450300D03*
X71234300Y-93450300D03*
X72504300Y-93450300D03*
X73774300Y-93450300D03*
X75044300Y-93450300D03*
X76314300Y-93450300D03*
X77584300Y-93450300D03*
X78854300Y-93450300D03*
X80124300Y-93450300D03*
X81394300Y-93450300D03*
X82664300Y-93450300D03*
X83934300Y-93450300D03*
D20*
X84934300Y-90665300D03*
X84934300Y-89395300D03*
X84934300Y-88125300D03*
X84934300Y-86855300D03*
X84934300Y-85585300D03*
X84934300Y-84315300D03*
X84934300Y-83045300D03*
X84934300Y-81775300D03*
X84934300Y-80505300D03*
X84934300Y-79235300D03*
D19*
X83934300Y-76450300D03*
X82664300Y-76450300D03*
X81394300Y-76450300D03*
X80124300Y-76450300D03*
X78854300Y-76450300D03*
X77584300Y-76450300D03*
X76314300Y-76450300D03*
X75044300Y-76450300D03*
X73774300Y-76450300D03*
X72504300Y-76450300D03*
X71234300Y-76450300D03*
X69964300Y-76450300D03*
X68694300Y-76450300D03*
X67424300Y-76450300D03*
G36*
G01*
X69279000Y-105518000D02*
X69279000Y-105643000D01*
G75*
G02*
X69216500Y-105705500I-62500J0D01*
G01*
X68516500Y-105705500D01*
G75*
G02*
X68454000Y-105643000I0J62500D01*
G01*
X68454000Y-105518000D01*
G75*
G02*
X68516500Y-105455500I62500J0D01*
G01*
X69216500Y-105455500D01*
G75*
G02*
X69279000Y-105518000I0J-62500D01*
G01*
G37*
G36*
G01*
X69279000Y-105018000D02*
X69279000Y-105143000D01*
G75*
G02*
X69216500Y-105205500I-62500J0D01*
G01*
X68516500Y-105205500D01*
G75*
G02*
X68454000Y-105143000I0J62500D01*
G01*
X68454000Y-105018000D01*
G75*
G02*
X68516500Y-104955500I62500J0D01*
G01*
X69216500Y-104955500D01*
G75*
G02*
X69279000Y-105018000I0J-62500D01*
G01*
G37*
G36*
G01*
X69279000Y-104518000D02*
X69279000Y-104643000D01*
G75*
G02*
X69216500Y-104705500I-62500J0D01*
G01*
X68516500Y-104705500D01*
G75*
G02*
X68454000Y-104643000I0J62500D01*
G01*
X68454000Y-104518000D01*
G75*
G02*
X68516500Y-104455500I62500J0D01*
G01*
X69216500Y-104455500D01*
G75*
G02*
X69279000Y-104518000I0J-62500D01*
G01*
G37*
G36*
G01*
X69279000Y-104018000D02*
X69279000Y-104143000D01*
G75*
G02*
X69216500Y-104205500I-62500J0D01*
G01*
X68516500Y-104205500D01*
G75*
G02*
X68454000Y-104143000I0J62500D01*
G01*
X68454000Y-104018000D01*
G75*
G02*
X68516500Y-103955500I62500J0D01*
G01*
X69216500Y-103955500D01*
G75*
G02*
X69279000Y-104018000I0J-62500D01*
G01*
G37*
G36*
G01*
X69279000Y-103518000D02*
X69279000Y-103643000D01*
G75*
G02*
X69216500Y-103705500I-62500J0D01*
G01*
X68516500Y-103705500D01*
G75*
G02*
X68454000Y-103643000I0J62500D01*
G01*
X68454000Y-103518000D01*
G75*
G02*
X68516500Y-103455500I62500J0D01*
G01*
X69216500Y-103455500D01*
G75*
G02*
X69279000Y-103518000I0J-62500D01*
G01*
G37*
G36*
G01*
X69279000Y-103018000D02*
X69279000Y-103143000D01*
G75*
G02*
X69216500Y-103205500I-62500J0D01*
G01*
X68516500Y-103205500D01*
G75*
G02*
X68454000Y-103143000I0J62500D01*
G01*
X68454000Y-103018000D01*
G75*
G02*
X68516500Y-102955500I62500J0D01*
G01*
X69216500Y-102955500D01*
G75*
G02*
X69279000Y-103018000I0J-62500D01*
G01*
G37*
G36*
G01*
X68304000Y-102043000D02*
X68304000Y-102743000D01*
G75*
G02*
X68241500Y-102805500I-62500J0D01*
G01*
X68116500Y-102805500D01*
G75*
G02*
X68054000Y-102743000I0J62500D01*
G01*
X68054000Y-102043000D01*
G75*
G02*
X68116500Y-101980500I62500J0D01*
G01*
X68241500Y-101980500D01*
G75*
G02*
X68304000Y-102043000I0J-62500D01*
G01*
G37*
G36*
G01*
X67804000Y-102043000D02*
X67804000Y-102743000D01*
G75*
G02*
X67741500Y-102805500I-62500J0D01*
G01*
X67616500Y-102805500D01*
G75*
G02*
X67554000Y-102743000I0J62500D01*
G01*
X67554000Y-102043000D01*
G75*
G02*
X67616500Y-101980500I62500J0D01*
G01*
X67741500Y-101980500D01*
G75*
G02*
X67804000Y-102043000I0J-62500D01*
G01*
G37*
G36*
G01*
X67304000Y-102043000D02*
X67304000Y-102743000D01*
G75*
G02*
X67241500Y-102805500I-62500J0D01*
G01*
X67116500Y-102805500D01*
G75*
G02*
X67054000Y-102743000I0J62500D01*
G01*
X67054000Y-102043000D01*
G75*
G02*
X67116500Y-101980500I62500J0D01*
G01*
X67241500Y-101980500D01*
G75*
G02*
X67304000Y-102043000I0J-62500D01*
G01*
G37*
G36*
G01*
X66804000Y-102043000D02*
X66804000Y-102743000D01*
G75*
G02*
X66741500Y-102805500I-62500J0D01*
G01*
X66616500Y-102805500D01*
G75*
G02*
X66554000Y-102743000I0J62500D01*
G01*
X66554000Y-102043000D01*
G75*
G02*
X66616500Y-101980500I62500J0D01*
G01*
X66741500Y-101980500D01*
G75*
G02*
X66804000Y-102043000I0J-62500D01*
G01*
G37*
G36*
G01*
X66304000Y-102043000D02*
X66304000Y-102743000D01*
G75*
G02*
X66241500Y-102805500I-62500J0D01*
G01*
X66116500Y-102805500D01*
G75*
G02*
X66054000Y-102743000I0J62500D01*
G01*
X66054000Y-102043000D01*
G75*
G02*
X66116500Y-101980500I62500J0D01*
G01*
X66241500Y-101980500D01*
G75*
G02*
X66304000Y-102043000I0J-62500D01*
G01*
G37*
G36*
G01*
X65804000Y-102043000D02*
X65804000Y-102743000D01*
G75*
G02*
X65741500Y-102805500I-62500J0D01*
G01*
X65616500Y-102805500D01*
G75*
G02*
X65554000Y-102743000I0J62500D01*
G01*
X65554000Y-102043000D01*
G75*
G02*
X65616500Y-101980500I62500J0D01*
G01*
X65741500Y-101980500D01*
G75*
G02*
X65804000Y-102043000I0J-62500D01*
G01*
G37*
G36*
G01*
X65404000Y-103018000D02*
X65404000Y-103143000D01*
G75*
G02*
X65341500Y-103205500I-62500J0D01*
G01*
X64641500Y-103205500D01*
G75*
G02*
X64579000Y-103143000I0J62500D01*
G01*
X64579000Y-103018000D01*
G75*
G02*
X64641500Y-102955500I62500J0D01*
G01*
X65341500Y-102955500D01*
G75*
G02*
X65404000Y-103018000I0J-62500D01*
G01*
G37*
G36*
G01*
X65404000Y-103518000D02*
X65404000Y-103643000D01*
G75*
G02*
X65341500Y-103705500I-62500J0D01*
G01*
X64641500Y-103705500D01*
G75*
G02*
X64579000Y-103643000I0J62500D01*
G01*
X64579000Y-103518000D01*
G75*
G02*
X64641500Y-103455500I62500J0D01*
G01*
X65341500Y-103455500D01*
G75*
G02*
X65404000Y-103518000I0J-62500D01*
G01*
G37*
G36*
G01*
X65404000Y-104018000D02*
X65404000Y-104143000D01*
G75*
G02*
X65341500Y-104205500I-62500J0D01*
G01*
X64641500Y-104205500D01*
G75*
G02*
X64579000Y-104143000I0J62500D01*
G01*
X64579000Y-104018000D01*
G75*
G02*
X64641500Y-103955500I62500J0D01*
G01*
X65341500Y-103955500D01*
G75*
G02*
X65404000Y-104018000I0J-62500D01*
G01*
G37*
G36*
G01*
X65404000Y-104518000D02*
X65404000Y-104643000D01*
G75*
G02*
X65341500Y-104705500I-62500J0D01*
G01*
X64641500Y-104705500D01*
G75*
G02*
X64579000Y-104643000I0J62500D01*
G01*
X64579000Y-104518000D01*
G75*
G02*
X64641500Y-104455500I62500J0D01*
G01*
X65341500Y-104455500D01*
G75*
G02*
X65404000Y-104518000I0J-62500D01*
G01*
G37*
G36*
G01*
X65404000Y-105018000D02*
X65404000Y-105143000D01*
G75*
G02*
X65341500Y-105205500I-62500J0D01*
G01*
X64641500Y-105205500D01*
G75*
G02*
X64579000Y-105143000I0J62500D01*
G01*
X64579000Y-105018000D01*
G75*
G02*
X64641500Y-104955500I62500J0D01*
G01*
X65341500Y-104955500D01*
G75*
G02*
X65404000Y-105018000I0J-62500D01*
G01*
G37*
G36*
G01*
X65404000Y-105518000D02*
X65404000Y-105643000D01*
G75*
G02*
X65341500Y-105705500I-62500J0D01*
G01*
X64641500Y-105705500D01*
G75*
G02*
X64579000Y-105643000I0J62500D01*
G01*
X64579000Y-105518000D01*
G75*
G02*
X64641500Y-105455500I62500J0D01*
G01*
X65341500Y-105455500D01*
G75*
G02*
X65404000Y-105518000I0J-62500D01*
G01*
G37*
G36*
G01*
X65804000Y-105918000D02*
X65804000Y-106618000D01*
G75*
G02*
X65741500Y-106680500I-62500J0D01*
G01*
X65616500Y-106680500D01*
G75*
G02*
X65554000Y-106618000I0J62500D01*
G01*
X65554000Y-105918000D01*
G75*
G02*
X65616500Y-105855500I62500J0D01*
G01*
X65741500Y-105855500D01*
G75*
G02*
X65804000Y-105918000I0J-62500D01*
G01*
G37*
G36*
G01*
X66304000Y-105918000D02*
X66304000Y-106618000D01*
G75*
G02*
X66241500Y-106680500I-62500J0D01*
G01*
X66116500Y-106680500D01*
G75*
G02*
X66054000Y-106618000I0J62500D01*
G01*
X66054000Y-105918000D01*
G75*
G02*
X66116500Y-105855500I62500J0D01*
G01*
X66241500Y-105855500D01*
G75*
G02*
X66304000Y-105918000I0J-62500D01*
G01*
G37*
G36*
G01*
X66804000Y-105918000D02*
X66804000Y-106618000D01*
G75*
G02*
X66741500Y-106680500I-62500J0D01*
G01*
X66616500Y-106680500D01*
G75*
G02*
X66554000Y-106618000I0J62500D01*
G01*
X66554000Y-105918000D01*
G75*
G02*
X66616500Y-105855500I62500J0D01*
G01*
X66741500Y-105855500D01*
G75*
G02*
X66804000Y-105918000I0J-62500D01*
G01*
G37*
G36*
G01*
X67304000Y-105918000D02*
X67304000Y-106618000D01*
G75*
G02*
X67241500Y-106680500I-62500J0D01*
G01*
X67116500Y-106680500D01*
G75*
G02*
X67054000Y-106618000I0J62500D01*
G01*
X67054000Y-105918000D01*
G75*
G02*
X67116500Y-105855500I62500J0D01*
G01*
X67241500Y-105855500D01*
G75*
G02*
X67304000Y-105918000I0J-62500D01*
G01*
G37*
G36*
G01*
X67804000Y-105918000D02*
X67804000Y-106618000D01*
G75*
G02*
X67741500Y-106680500I-62500J0D01*
G01*
X67616500Y-106680500D01*
G75*
G02*
X67554000Y-106618000I0J62500D01*
G01*
X67554000Y-105918000D01*
G75*
G02*
X67616500Y-105855500I62500J0D01*
G01*
X67741500Y-105855500D01*
G75*
G02*
X67804000Y-105918000I0J-62500D01*
G01*
G37*
G36*
G01*
X68304000Y-105918000D02*
X68304000Y-106618000D01*
G75*
G02*
X68241500Y-106680500I-62500J0D01*
G01*
X68116500Y-106680500D01*
G75*
G02*
X68054000Y-106618000I0J62500D01*
G01*
X68054000Y-105918000D01*
G75*
G02*
X68116500Y-105855500I62500J0D01*
G01*
X68241500Y-105855500D01*
G75*
G02*
X68304000Y-105918000I0J-62500D01*
G01*
G37*
D21*
X66929000Y-104330500D03*
D22*
X80327500Y-65684000D03*
D23*
X80327500Y-71984000D03*
X82627500Y-71984000D03*
X78027500Y-71984000D03*
D24*
X107942501Y-97645501D03*
X107942501Y-98445501D03*
X107942501Y-99245501D03*
X107942501Y-100045501D03*
X107942501Y-100845501D03*
X107942501Y-101645501D03*
X107942501Y-102445501D03*
X107942501Y-103245501D03*
D25*
X109392501Y-104695501D03*
X110192501Y-104695501D03*
X110992501Y-104695501D03*
X111792501Y-104695501D03*
X112592501Y-104695501D03*
X113392501Y-104695501D03*
X114192501Y-104695501D03*
X114992501Y-104695501D03*
D24*
X116442501Y-103245501D03*
X116442501Y-102445501D03*
X116442501Y-101645501D03*
X116442501Y-100845501D03*
X116442501Y-100045501D03*
X116442501Y-99245501D03*
X116442501Y-98445501D03*
X116442501Y-97645501D03*
D25*
X114992501Y-96195501D03*
X114192501Y-96195501D03*
X113392501Y-96195501D03*
X112592501Y-96195501D03*
X111792501Y-96195501D03*
X110992501Y-96195501D03*
X110192501Y-96195501D03*
X109392501Y-96195501D03*
D26*
X116924000Y-116652000D03*
X116924000Y-118552000D03*
X114724000Y-118552000D03*
X114724000Y-117602000D03*
X114724000Y-116652000D03*
D17*
X120330000Y-119296000D03*
X119380000Y-119296000D03*
X118430000Y-119296000D03*
X118430000Y-121496000D03*
X120330000Y-121496000D03*
X119380000Y-121496000D03*
D27*
X76615000Y-101727500D03*
X74515000Y-101727500D03*
X74515000Y-103377500D03*
X76615000Y-103377500D03*
D28*
X108780000Y-111252000D03*
X117280000Y-111252000D03*
G36*
G01*
X106776500Y-114945500D02*
X107726500Y-114945500D01*
G75*
G02*
X107976500Y-115195500I0J-250000D01*
G01*
X107976500Y-115695500D01*
G75*
G02*
X107726500Y-115945500I-250000J0D01*
G01*
X106776500Y-115945500D01*
G75*
G02*
X106526500Y-115695500I0J250000D01*
G01*
X106526500Y-115195500D01*
G75*
G02*
X106776500Y-114945500I250000J0D01*
G01*
G37*
G36*
G01*
X106776500Y-116845500D02*
X107726500Y-116845500D01*
G75*
G02*
X107976500Y-117095500I0J-250000D01*
G01*
X107976500Y-117595500D01*
G75*
G02*
X107726500Y-117845500I-250000J0D01*
G01*
X106776500Y-117845500D01*
G75*
G02*
X106526500Y-117595500I0J250000D01*
G01*
X106526500Y-117095500D01*
G75*
G02*
X106776500Y-116845500I250000J0D01*
G01*
G37*
G36*
G01*
X62812000Y-57561500D02*
X62812000Y-56611500D01*
G75*
G02*
X63062000Y-56361500I250000J0D01*
G01*
X63562000Y-56361500D01*
G75*
G02*
X63812000Y-56611500I0J-250000D01*
G01*
X63812000Y-57561500D01*
G75*
G02*
X63562000Y-57811500I-250000J0D01*
G01*
X63062000Y-57811500D01*
G75*
G02*
X62812000Y-57561500I0J250000D01*
G01*
G37*
G36*
G01*
X64712000Y-57561500D02*
X64712000Y-56611500D01*
G75*
G02*
X64962000Y-56361500I250000J0D01*
G01*
X65462000Y-56361500D01*
G75*
G02*
X65712000Y-56611500I0J-250000D01*
G01*
X65712000Y-57561500D01*
G75*
G02*
X65462000Y-57811500I-250000J0D01*
G01*
X64962000Y-57811500D01*
G75*
G02*
X64712000Y-57561500I0J250000D01*
G01*
G37*
G36*
G01*
X72014500Y-57498000D02*
X72014500Y-56548000D01*
G75*
G02*
X72264500Y-56298000I250000J0D01*
G01*
X72764500Y-56298000D01*
G75*
G02*
X73014500Y-56548000I0J-250000D01*
G01*
X73014500Y-57498000D01*
G75*
G02*
X72764500Y-57748000I-250000J0D01*
G01*
X72264500Y-57748000D01*
G75*
G02*
X72014500Y-57498000I0J250000D01*
G01*
G37*
G36*
G01*
X70114500Y-57498000D02*
X70114500Y-56548000D01*
G75*
G02*
X70364500Y-56298000I250000J0D01*
G01*
X70864500Y-56298000D01*
G75*
G02*
X71114500Y-56548000I0J-250000D01*
G01*
X71114500Y-57498000D01*
G75*
G02*
X70864500Y-57748000I-250000J0D01*
G01*
X70364500Y-57748000D01*
G75*
G02*
X70114500Y-57498000I0J250000D01*
G01*
G37*
G36*
G01*
X94760500Y-60075000D02*
X94760500Y-60575000D01*
G75*
G02*
X94535500Y-60800000I-225000J0D01*
G01*
X94085500Y-60800000D01*
G75*
G02*
X93860500Y-60575000I0J225000D01*
G01*
X93860500Y-60075000D01*
G75*
G02*
X94085500Y-59850000I225000J0D01*
G01*
X94535500Y-59850000D01*
G75*
G02*
X94760500Y-60075000I0J-225000D01*
G01*
G37*
G36*
G01*
X93210500Y-60075000D02*
X93210500Y-60575000D01*
G75*
G02*
X92985500Y-60800000I-225000J0D01*
G01*
X92535500Y-60800000D01*
G75*
G02*
X92310500Y-60575000I0J225000D01*
G01*
X92310500Y-60075000D01*
G75*
G02*
X92535500Y-59850000I225000J0D01*
G01*
X92985500Y-59850000D01*
G75*
G02*
X93210500Y-60075000I0J-225000D01*
G01*
G37*
G36*
G01*
X106990000Y-60075000D02*
X106990000Y-60575000D01*
G75*
G02*
X106765000Y-60800000I-225000J0D01*
G01*
X106315000Y-60800000D01*
G75*
G02*
X106090000Y-60575000I0J225000D01*
G01*
X106090000Y-60075000D01*
G75*
G02*
X106315000Y-59850000I225000J0D01*
G01*
X106765000Y-59850000D01*
G75*
G02*
X106990000Y-60075000I0J-225000D01*
G01*
G37*
G36*
G01*
X108540000Y-60075000D02*
X108540000Y-60575000D01*
G75*
G02*
X108315000Y-60800000I-225000J0D01*
G01*
X107865000Y-60800000D01*
G75*
G02*
X107640000Y-60575000I0J225000D01*
G01*
X107640000Y-60075000D01*
G75*
G02*
X107865000Y-59850000I225000J0D01*
G01*
X108315000Y-59850000D01*
G75*
G02*
X108540000Y-60075000I0J-225000D01*
G01*
G37*
G36*
G01*
X81466500Y-59010000D02*
X80966500Y-59010000D01*
G75*
G02*
X80741500Y-58785000I0J225000D01*
G01*
X80741500Y-58335000D01*
G75*
G02*
X80966500Y-58110000I225000J0D01*
G01*
X81466500Y-58110000D01*
G75*
G02*
X81691500Y-58335000I0J-225000D01*
G01*
X81691500Y-58785000D01*
G75*
G02*
X81466500Y-59010000I-225000J0D01*
G01*
G37*
G36*
G01*
X81466500Y-57460000D02*
X80966500Y-57460000D01*
G75*
G02*
X80741500Y-57235000I0J225000D01*
G01*
X80741500Y-56785000D01*
G75*
G02*
X80966500Y-56560000I225000J0D01*
G01*
X81466500Y-56560000D01*
G75*
G02*
X81691500Y-56785000I0J-225000D01*
G01*
X81691500Y-57235000D01*
G75*
G02*
X81466500Y-57460000I-225000J0D01*
G01*
G37*
G36*
G01*
X102634500Y-85221000D02*
X102634500Y-85721000D01*
G75*
G02*
X102409500Y-85946000I-225000J0D01*
G01*
X101959500Y-85946000D01*
G75*
G02*
X101734500Y-85721000I0J225000D01*
G01*
X101734500Y-85221000D01*
G75*
G02*
X101959500Y-84996000I225000J0D01*
G01*
X102409500Y-84996000D01*
G75*
G02*
X102634500Y-85221000I0J-225000D01*
G01*
G37*
G36*
G01*
X101084500Y-85221000D02*
X101084500Y-85721000D01*
G75*
G02*
X100859500Y-85946000I-225000J0D01*
G01*
X100409500Y-85946000D01*
G75*
G02*
X100184500Y-85721000I0J225000D01*
G01*
X100184500Y-85221000D01*
G75*
G02*
X100409500Y-84996000I225000J0D01*
G01*
X100859500Y-84996000D01*
G75*
G02*
X101084500Y-85221000I0J-225000D01*
G01*
G37*
G36*
G01*
X107703500Y-85721000D02*
X107703500Y-85221000D01*
G75*
G02*
X107928500Y-84996000I225000J0D01*
G01*
X108378500Y-84996000D01*
G75*
G02*
X108603500Y-85221000I0J-225000D01*
G01*
X108603500Y-85721000D01*
G75*
G02*
X108378500Y-85946000I-225000J0D01*
G01*
X107928500Y-85946000D01*
G75*
G02*
X107703500Y-85721000I0J225000D01*
G01*
G37*
G36*
G01*
X106153500Y-85721000D02*
X106153500Y-85221000D01*
G75*
G02*
X106378500Y-84996000I225000J0D01*
G01*
X106828500Y-84996000D01*
G75*
G02*
X107053500Y-85221000I0J-225000D01*
G01*
X107053500Y-85721000D01*
G75*
G02*
X106828500Y-85946000I-225000J0D01*
G01*
X106378500Y-85946000D01*
G75*
G02*
X106153500Y-85721000I0J225000D01*
G01*
G37*
G36*
G01*
X93771000Y-80387000D02*
X93771000Y-79887000D01*
G75*
G02*
X93996000Y-79662000I225000J0D01*
G01*
X94446000Y-79662000D01*
G75*
G02*
X94671000Y-79887000I0J-225000D01*
G01*
X94671000Y-80387000D01*
G75*
G02*
X94446000Y-80612000I-225000J0D01*
G01*
X93996000Y-80612000D01*
G75*
G02*
X93771000Y-80387000I0J225000D01*
G01*
G37*
G36*
G01*
X95321000Y-80387000D02*
X95321000Y-79887000D01*
G75*
G02*
X95546000Y-79662000I225000J0D01*
G01*
X95996000Y-79662000D01*
G75*
G02*
X96221000Y-79887000I0J-225000D01*
G01*
X96221000Y-80387000D01*
G75*
G02*
X95996000Y-80612000I-225000J0D01*
G01*
X95546000Y-80612000D01*
G75*
G02*
X95321000Y-80387000I0J225000D01*
G01*
G37*
G36*
G01*
X92706000Y-80574000D02*
X92206000Y-80574000D01*
G75*
G02*
X91981000Y-80349000I0J225000D01*
G01*
X91981000Y-79899000D01*
G75*
G02*
X92206000Y-79674000I225000J0D01*
G01*
X92706000Y-79674000D01*
G75*
G02*
X92931000Y-79899000I0J-225000D01*
G01*
X92931000Y-80349000D01*
G75*
G02*
X92706000Y-80574000I-225000J0D01*
G01*
G37*
G36*
G01*
X92706000Y-82124000D02*
X92206000Y-82124000D01*
G75*
G02*
X91981000Y-81899000I0J225000D01*
G01*
X91981000Y-81449000D01*
G75*
G02*
X92206000Y-81224000I225000J0D01*
G01*
X92706000Y-81224000D01*
G75*
G02*
X92931000Y-81449000I0J-225000D01*
G01*
X92931000Y-81899000D01*
G75*
G02*
X92706000Y-82124000I-225000J0D01*
G01*
G37*
G36*
G01*
X85706500Y-61972000D02*
X85706500Y-61472000D01*
G75*
G02*
X85931500Y-61247000I225000J0D01*
G01*
X86381500Y-61247000D01*
G75*
G02*
X86606500Y-61472000I0J-225000D01*
G01*
X86606500Y-61972000D01*
G75*
G02*
X86381500Y-62197000I-225000J0D01*
G01*
X85931500Y-62197000D01*
G75*
G02*
X85706500Y-61972000I0J225000D01*
G01*
G37*
G36*
G01*
X87256500Y-61972000D02*
X87256500Y-61472000D01*
G75*
G02*
X87481500Y-61247000I225000J0D01*
G01*
X87931500Y-61247000D01*
G75*
G02*
X88156500Y-61472000I0J-225000D01*
G01*
X88156500Y-61972000D01*
G75*
G02*
X87931500Y-62197000I-225000J0D01*
G01*
X87481500Y-62197000D01*
G75*
G02*
X87256500Y-61972000I0J225000D01*
G01*
G37*
G36*
G01*
X98929000Y-68001000D02*
X98429000Y-68001000D01*
G75*
G02*
X98204000Y-67776000I0J225000D01*
G01*
X98204000Y-67326000D01*
G75*
G02*
X98429000Y-67101000I225000J0D01*
G01*
X98929000Y-67101000D01*
G75*
G02*
X99154000Y-67326000I0J-225000D01*
G01*
X99154000Y-67776000D01*
G75*
G02*
X98929000Y-68001000I-225000J0D01*
G01*
G37*
G36*
G01*
X98929000Y-69551000D02*
X98429000Y-69551000D01*
G75*
G02*
X98204000Y-69326000I0J225000D01*
G01*
X98204000Y-68876000D01*
G75*
G02*
X98429000Y-68651000I225000J0D01*
G01*
X98929000Y-68651000D01*
G75*
G02*
X99154000Y-68876000I0J-225000D01*
G01*
X99154000Y-69326000D01*
G75*
G02*
X98929000Y-69551000I-225000J0D01*
G01*
G37*
G36*
G01*
X89669500Y-85276500D02*
X89669500Y-84776500D01*
G75*
G02*
X89894500Y-84551500I225000J0D01*
G01*
X90344500Y-84551500D01*
G75*
G02*
X90569500Y-84776500I0J-225000D01*
G01*
X90569500Y-85276500D01*
G75*
G02*
X90344500Y-85501500I-225000J0D01*
G01*
X89894500Y-85501500D01*
G75*
G02*
X89669500Y-85276500I0J225000D01*
G01*
G37*
G36*
G01*
X88119500Y-85276500D02*
X88119500Y-84776500D01*
G75*
G02*
X88344500Y-84551500I225000J0D01*
G01*
X88794500Y-84551500D01*
G75*
G02*
X89019500Y-84776500I0J-225000D01*
G01*
X89019500Y-85276500D01*
G75*
G02*
X88794500Y-85501500I-225000J0D01*
G01*
X88344500Y-85501500D01*
G75*
G02*
X88119500Y-85276500I0J225000D01*
G01*
G37*
G36*
G01*
X89983500Y-74594000D02*
X90483500Y-74594000D01*
G75*
G02*
X90708500Y-74819000I0J-225000D01*
G01*
X90708500Y-75269000D01*
G75*
G02*
X90483500Y-75494000I-225000J0D01*
G01*
X89983500Y-75494000D01*
G75*
G02*
X89758500Y-75269000I0J225000D01*
G01*
X89758500Y-74819000D01*
G75*
G02*
X89983500Y-74594000I225000J0D01*
G01*
G37*
G36*
G01*
X89983500Y-76144000D02*
X90483500Y-76144000D01*
G75*
G02*
X90708500Y-76369000I0J-225000D01*
G01*
X90708500Y-76819000D01*
G75*
G02*
X90483500Y-77044000I-225000J0D01*
G01*
X89983500Y-77044000D01*
G75*
G02*
X89758500Y-76819000I0J225000D01*
G01*
X89758500Y-76369000D01*
G75*
G02*
X89983500Y-76144000I225000J0D01*
G01*
G37*
G36*
G01*
X96079500Y-76144000D02*
X96579500Y-76144000D01*
G75*
G02*
X96804500Y-76369000I0J-225000D01*
G01*
X96804500Y-76819000D01*
G75*
G02*
X96579500Y-77044000I-225000J0D01*
G01*
X96079500Y-77044000D01*
G75*
G02*
X95854500Y-76819000I0J225000D01*
G01*
X95854500Y-76369000D01*
G75*
G02*
X96079500Y-76144000I225000J0D01*
G01*
G37*
G36*
G01*
X96079500Y-74594000D02*
X96579500Y-74594000D01*
G75*
G02*
X96804500Y-74819000I0J-225000D01*
G01*
X96804500Y-75269000D01*
G75*
G02*
X96579500Y-75494000I-225000J0D01*
G01*
X96079500Y-75494000D01*
G75*
G02*
X95854500Y-75269000I0J225000D01*
G01*
X95854500Y-74819000D01*
G75*
G02*
X96079500Y-74594000I225000J0D01*
G01*
G37*
G36*
G01*
X94619000Y-78239500D02*
X95119000Y-78239500D01*
G75*
G02*
X95344000Y-78464500I0J-225000D01*
G01*
X95344000Y-78914500D01*
G75*
G02*
X95119000Y-79139500I-225000J0D01*
G01*
X94619000Y-79139500D01*
G75*
G02*
X94394000Y-78914500I0J225000D01*
G01*
X94394000Y-78464500D01*
G75*
G02*
X94619000Y-78239500I225000J0D01*
G01*
G37*
G36*
G01*
X94619000Y-76689500D02*
X95119000Y-76689500D01*
G75*
G02*
X95344000Y-76914500I0J-225000D01*
G01*
X95344000Y-77364500D01*
G75*
G02*
X95119000Y-77589500I-225000J0D01*
G01*
X94619000Y-77589500D01*
G75*
G02*
X94394000Y-77364500I0J225000D01*
G01*
X94394000Y-76914500D01*
G75*
G02*
X94619000Y-76689500I225000J0D01*
G01*
G37*
G36*
G01*
X88070500Y-90988000D02*
X87570500Y-90988000D01*
G75*
G02*
X87345500Y-90763000I0J225000D01*
G01*
X87345500Y-90313000D01*
G75*
G02*
X87570500Y-90088000I225000J0D01*
G01*
X88070500Y-90088000D01*
G75*
G02*
X88295500Y-90313000I0J-225000D01*
G01*
X88295500Y-90763000D01*
G75*
G02*
X88070500Y-90988000I-225000J0D01*
G01*
G37*
G36*
G01*
X88070500Y-92538000D02*
X87570500Y-92538000D01*
G75*
G02*
X87345500Y-92313000I0J225000D01*
G01*
X87345500Y-91863000D01*
G75*
G02*
X87570500Y-91638000I225000J0D01*
G01*
X88070500Y-91638000D01*
G75*
G02*
X88295500Y-91863000I0J-225000D01*
G01*
X88295500Y-92313000D01*
G75*
G02*
X88070500Y-92538000I-225000J0D01*
G01*
G37*
G36*
G01*
X101618500Y-83697000D02*
X101618500Y-84197000D01*
G75*
G02*
X101393500Y-84422000I-225000J0D01*
G01*
X100943500Y-84422000D01*
G75*
G02*
X100718500Y-84197000I0J225000D01*
G01*
X100718500Y-83697000D01*
G75*
G02*
X100943500Y-83472000I225000J0D01*
G01*
X101393500Y-83472000D01*
G75*
G02*
X101618500Y-83697000I0J-225000D01*
G01*
G37*
G36*
G01*
X100068500Y-83697000D02*
X100068500Y-84197000D01*
G75*
G02*
X99843500Y-84422000I-225000J0D01*
G01*
X99393500Y-84422000D01*
G75*
G02*
X99168500Y-84197000I0J225000D01*
G01*
X99168500Y-83697000D01*
G75*
G02*
X99393500Y-83472000I225000J0D01*
G01*
X99843500Y-83472000D01*
G75*
G02*
X100068500Y-83697000I0J-225000D01*
G01*
G37*
G36*
G01*
X109351000Y-83484000D02*
X109851000Y-83484000D01*
G75*
G02*
X110076000Y-83709000I0J-225000D01*
G01*
X110076000Y-84159000D01*
G75*
G02*
X109851000Y-84384000I-225000J0D01*
G01*
X109351000Y-84384000D01*
G75*
G02*
X109126000Y-84159000I0J225000D01*
G01*
X109126000Y-83709000D01*
G75*
G02*
X109351000Y-83484000I225000J0D01*
G01*
G37*
G36*
G01*
X109351000Y-85034000D02*
X109851000Y-85034000D01*
G75*
G02*
X110076000Y-85259000I0J-225000D01*
G01*
X110076000Y-85709000D01*
G75*
G02*
X109851000Y-85934000I-225000J0D01*
G01*
X109351000Y-85934000D01*
G75*
G02*
X109126000Y-85709000I0J225000D01*
G01*
X109126000Y-85259000D01*
G75*
G02*
X109351000Y-85034000I225000J0D01*
G01*
G37*
G36*
G01*
X97603500Y-79991500D02*
X98103500Y-79991500D01*
G75*
G02*
X98328500Y-80216500I0J-225000D01*
G01*
X98328500Y-80666500D01*
G75*
G02*
X98103500Y-80891500I-225000J0D01*
G01*
X97603500Y-80891500D01*
G75*
G02*
X97378500Y-80666500I0J225000D01*
G01*
X97378500Y-80216500D01*
G75*
G02*
X97603500Y-79991500I225000J0D01*
G01*
G37*
G36*
G01*
X97603500Y-81541500D02*
X98103500Y-81541500D01*
G75*
G02*
X98328500Y-81766500I0J-225000D01*
G01*
X98328500Y-82216500D01*
G75*
G02*
X98103500Y-82441500I-225000J0D01*
G01*
X97603500Y-82441500D01*
G75*
G02*
X97378500Y-82216500I0J225000D01*
G01*
X97378500Y-81766500D01*
G75*
G02*
X97603500Y-81541500I225000J0D01*
G01*
G37*
G36*
G01*
X114269400Y-71852600D02*
X114269400Y-71352600D01*
G75*
G02*
X114494400Y-71127600I225000J0D01*
G01*
X114944400Y-71127600D01*
G75*
G02*
X115169400Y-71352600I0J-225000D01*
G01*
X115169400Y-71852600D01*
G75*
G02*
X114944400Y-72077600I-225000J0D01*
G01*
X114494400Y-72077600D01*
G75*
G02*
X114269400Y-71852600I0J225000D01*
G01*
G37*
G36*
G01*
X112719400Y-71852600D02*
X112719400Y-71352600D01*
G75*
G02*
X112944400Y-71127600I225000J0D01*
G01*
X113394400Y-71127600D01*
G75*
G02*
X113619400Y-71352600I0J-225000D01*
G01*
X113619400Y-71852600D01*
G75*
G02*
X113394400Y-72077600I-225000J0D01*
G01*
X112944400Y-72077600D01*
G75*
G02*
X112719400Y-71852600I0J225000D01*
G01*
G37*
G36*
G01*
X114244000Y-80704500D02*
X114244000Y-80204500D01*
G75*
G02*
X114469000Y-79979500I225000J0D01*
G01*
X114919000Y-79979500D01*
G75*
G02*
X115144000Y-80204500I0J-225000D01*
G01*
X115144000Y-80704500D01*
G75*
G02*
X114919000Y-80929500I-225000J0D01*
G01*
X114469000Y-80929500D01*
G75*
G02*
X114244000Y-80704500I0J225000D01*
G01*
G37*
G36*
G01*
X112694000Y-80704500D02*
X112694000Y-80204500D01*
G75*
G02*
X112919000Y-79979500I225000J0D01*
G01*
X113369000Y-79979500D01*
G75*
G02*
X113594000Y-80204500I0J-225000D01*
G01*
X113594000Y-80704500D01*
G75*
G02*
X113369000Y-80929500I-225000J0D01*
G01*
X112919000Y-80929500D01*
G75*
G02*
X112694000Y-80704500I0J225000D01*
G01*
G37*
G36*
G01*
X101913500Y-69551000D02*
X101413500Y-69551000D01*
G75*
G02*
X101188500Y-69326000I0J225000D01*
G01*
X101188500Y-68876000D01*
G75*
G02*
X101413500Y-68651000I225000J0D01*
G01*
X101913500Y-68651000D01*
G75*
G02*
X102138500Y-68876000I0J-225000D01*
G01*
X102138500Y-69326000D01*
G75*
G02*
X101913500Y-69551000I-225000J0D01*
G01*
G37*
G36*
G01*
X101913500Y-68001000D02*
X101413500Y-68001000D01*
G75*
G02*
X101188500Y-67776000I0J225000D01*
G01*
X101188500Y-67326000D01*
G75*
G02*
X101413500Y-67101000I225000J0D01*
G01*
X101913500Y-67101000D01*
G75*
G02*
X102138500Y-67326000I0J-225000D01*
G01*
X102138500Y-67776000D01*
G75*
G02*
X101913500Y-68001000I-225000J0D01*
G01*
G37*
G36*
G01*
X98253000Y-71886000D02*
X98253000Y-72386000D01*
G75*
G02*
X98028000Y-72611000I-225000J0D01*
G01*
X97578000Y-72611000D01*
G75*
G02*
X97353000Y-72386000I0J225000D01*
G01*
X97353000Y-71886000D01*
G75*
G02*
X97578000Y-71661000I225000J0D01*
G01*
X98028000Y-71661000D01*
G75*
G02*
X98253000Y-71886000I0J-225000D01*
G01*
G37*
G36*
G01*
X96703000Y-71886000D02*
X96703000Y-72386000D01*
G75*
G02*
X96478000Y-72611000I-225000J0D01*
G01*
X96028000Y-72611000D01*
G75*
G02*
X95803000Y-72386000I0J225000D01*
G01*
X95803000Y-71886000D01*
G75*
G02*
X96028000Y-71661000I225000J0D01*
G01*
X96478000Y-71661000D01*
G75*
G02*
X96703000Y-71886000I0J-225000D01*
G01*
G37*
G36*
G01*
X121711000Y-56193500D02*
X121711000Y-55693500D01*
G75*
G02*
X121936000Y-55468500I225000J0D01*
G01*
X122386000Y-55468500D01*
G75*
G02*
X122611000Y-55693500I0J-225000D01*
G01*
X122611000Y-56193500D01*
G75*
G02*
X122386000Y-56418500I-225000J0D01*
G01*
X121936000Y-56418500D01*
G75*
G02*
X121711000Y-56193500I0J225000D01*
G01*
G37*
G36*
G01*
X123261000Y-56193500D02*
X123261000Y-55693500D01*
G75*
G02*
X123486000Y-55468500I225000J0D01*
G01*
X123936000Y-55468500D01*
G75*
G02*
X124161000Y-55693500I0J-225000D01*
G01*
X124161000Y-56193500D01*
G75*
G02*
X123936000Y-56418500I-225000J0D01*
G01*
X123486000Y-56418500D01*
G75*
G02*
X123261000Y-56193500I0J225000D01*
G01*
G37*
G36*
G01*
X100453000Y-68001000D02*
X99953000Y-68001000D01*
G75*
G02*
X99728000Y-67776000I0J225000D01*
G01*
X99728000Y-67326000D01*
G75*
G02*
X99953000Y-67101000I225000J0D01*
G01*
X100453000Y-67101000D01*
G75*
G02*
X100678000Y-67326000I0J-225000D01*
G01*
X100678000Y-67776000D01*
G75*
G02*
X100453000Y-68001000I-225000J0D01*
G01*
G37*
G36*
G01*
X100453000Y-69551000D02*
X99953000Y-69551000D01*
G75*
G02*
X99728000Y-69326000I0J225000D01*
G01*
X99728000Y-68876000D01*
G75*
G02*
X99953000Y-68651000I225000J0D01*
G01*
X100453000Y-68651000D01*
G75*
G02*
X100678000Y-68876000I0J-225000D01*
G01*
X100678000Y-69326000D01*
G75*
G02*
X100453000Y-69551000I-225000J0D01*
G01*
G37*
G36*
G01*
X97540000Y-76144000D02*
X98040000Y-76144000D01*
G75*
G02*
X98265000Y-76369000I0J-225000D01*
G01*
X98265000Y-76819000D01*
G75*
G02*
X98040000Y-77044000I-225000J0D01*
G01*
X97540000Y-77044000D01*
G75*
G02*
X97315000Y-76819000I0J225000D01*
G01*
X97315000Y-76369000D01*
G75*
G02*
X97540000Y-76144000I225000J0D01*
G01*
G37*
G36*
G01*
X97540000Y-74594000D02*
X98040000Y-74594000D01*
G75*
G02*
X98265000Y-74819000I0J-225000D01*
G01*
X98265000Y-75269000D01*
G75*
G02*
X98040000Y-75494000I-225000J0D01*
G01*
X97540000Y-75494000D01*
G75*
G02*
X97315000Y-75269000I0J225000D01*
G01*
X97315000Y-74819000D01*
G75*
G02*
X97540000Y-74594000I225000J0D01*
G01*
G37*
G36*
G01*
X110243500Y-69084000D02*
X110243500Y-68584000D01*
G75*
G02*
X110468500Y-68359000I225000J0D01*
G01*
X110918500Y-68359000D01*
G75*
G02*
X111143500Y-68584000I0J-225000D01*
G01*
X111143500Y-69084000D01*
G75*
G02*
X110918500Y-69309000I-225000J0D01*
G01*
X110468500Y-69309000D01*
G75*
G02*
X110243500Y-69084000I0J225000D01*
G01*
G37*
G36*
G01*
X108693500Y-69084000D02*
X108693500Y-68584000D01*
G75*
G02*
X108918500Y-68359000I225000J0D01*
G01*
X109368500Y-68359000D01*
G75*
G02*
X109593500Y-68584000I0J-225000D01*
G01*
X109593500Y-69084000D01*
G75*
G02*
X109368500Y-69309000I-225000J0D01*
G01*
X108918500Y-69309000D01*
G75*
G02*
X108693500Y-69084000I0J225000D01*
G01*
G37*
G36*
G01*
X98316500Y-78363000D02*
X98316500Y-78863000D01*
G75*
G02*
X98091500Y-79088000I-225000J0D01*
G01*
X97641500Y-79088000D01*
G75*
G02*
X97416500Y-78863000I0J225000D01*
G01*
X97416500Y-78363000D01*
G75*
G02*
X97641500Y-78138000I225000J0D01*
G01*
X98091500Y-78138000D01*
G75*
G02*
X98316500Y-78363000I0J-225000D01*
G01*
G37*
G36*
G01*
X96766500Y-78363000D02*
X96766500Y-78863000D01*
G75*
G02*
X96541500Y-79088000I-225000J0D01*
G01*
X96091500Y-79088000D01*
G75*
G02*
X95866500Y-78863000I0J225000D01*
G01*
X95866500Y-78363000D01*
G75*
G02*
X96091500Y-78138000I225000J0D01*
G01*
X96541500Y-78138000D01*
G75*
G02*
X96766500Y-78363000I0J-225000D01*
G01*
G37*
G36*
G01*
X117837500Y-69401500D02*
X117837500Y-68901500D01*
G75*
G02*
X118062500Y-68676500I225000J0D01*
G01*
X118512500Y-68676500D01*
G75*
G02*
X118737500Y-68901500I0J-225000D01*
G01*
X118737500Y-69401500D01*
G75*
G02*
X118512500Y-69626500I-225000J0D01*
G01*
X118062500Y-69626500D01*
G75*
G02*
X117837500Y-69401500I0J225000D01*
G01*
G37*
G36*
G01*
X119387500Y-69401500D02*
X119387500Y-68901500D01*
G75*
G02*
X119612500Y-68676500I225000J0D01*
G01*
X120062500Y-68676500D01*
G75*
G02*
X120287500Y-68901500I0J-225000D01*
G01*
X120287500Y-69401500D01*
G75*
G02*
X120062500Y-69626500I-225000J0D01*
G01*
X119612500Y-69626500D01*
G75*
G02*
X119387500Y-69401500I0J225000D01*
G01*
G37*
G36*
G01*
X96339500Y-59943750D02*
X96339500Y-60706250D01*
G75*
G02*
X96120750Y-60925000I-218750J0D01*
G01*
X95683250Y-60925000D01*
G75*
G02*
X95464500Y-60706250I0J218750D01*
G01*
X95464500Y-59943750D01*
G75*
G02*
X95683250Y-59725000I218750J0D01*
G01*
X96120750Y-59725000D01*
G75*
G02*
X96339500Y-59943750I0J-218750D01*
G01*
G37*
G36*
G01*
X98464500Y-59943750D02*
X98464500Y-60706250D01*
G75*
G02*
X98245750Y-60925000I-218750J0D01*
G01*
X97808250Y-60925000D01*
G75*
G02*
X97589500Y-60706250I0J218750D01*
G01*
X97589500Y-59943750D01*
G75*
G02*
X97808250Y-59725000I218750J0D01*
G01*
X98245750Y-59725000D01*
G75*
G02*
X98464500Y-59943750I0J-218750D01*
G01*
G37*
G36*
G01*
X112180500Y-59943750D02*
X112180500Y-60706250D01*
G75*
G02*
X111961750Y-60925000I-218750J0D01*
G01*
X111524250Y-60925000D01*
G75*
G02*
X111305500Y-60706250I0J218750D01*
G01*
X111305500Y-59943750D01*
G75*
G02*
X111524250Y-59725000I218750J0D01*
G01*
X111961750Y-59725000D01*
G75*
G02*
X112180500Y-59943750I0J-218750D01*
G01*
G37*
G36*
G01*
X110055500Y-59943750D02*
X110055500Y-60706250D01*
G75*
G02*
X109836750Y-60925000I-218750J0D01*
G01*
X109399250Y-60925000D01*
G75*
G02*
X109180500Y-60706250I0J218750D01*
G01*
X109180500Y-59943750D01*
G75*
G02*
X109399250Y-59725000I218750J0D01*
G01*
X109836750Y-59725000D01*
G75*
G02*
X110055500Y-59943750I0J-218750D01*
G01*
G37*
G36*
G01*
X93664750Y-79139500D02*
X93152250Y-79139500D01*
G75*
G02*
X92933500Y-78920750I0J218750D01*
G01*
X92933500Y-78483250D01*
G75*
G02*
X93152250Y-78264500I218750J0D01*
G01*
X93664750Y-78264500D01*
G75*
G02*
X93883500Y-78483250I0J-218750D01*
G01*
X93883500Y-78920750D01*
G75*
G02*
X93664750Y-79139500I-218750J0D01*
G01*
G37*
G36*
G01*
X93664750Y-77564500D02*
X93152250Y-77564500D01*
G75*
G02*
X92933500Y-77345750I0J218750D01*
G01*
X92933500Y-76908250D01*
G75*
G02*
X93152250Y-76689500I218750J0D01*
G01*
X93664750Y-76689500D01*
G75*
G02*
X93883500Y-76908250I0J-218750D01*
G01*
X93883500Y-77345750D01*
G75*
G02*
X93664750Y-77564500I-218750J0D01*
G01*
G37*
G36*
G01*
X93566500Y-74800750D02*
X93566500Y-75313250D01*
G75*
G02*
X93347750Y-75532000I-218750J0D01*
G01*
X92910250Y-75532000D01*
G75*
G02*
X92691500Y-75313250I0J218750D01*
G01*
X92691500Y-74800750D01*
G75*
G02*
X92910250Y-74582000I218750J0D01*
G01*
X93347750Y-74582000D01*
G75*
G02*
X93566500Y-74800750I0J-218750D01*
G01*
G37*
G36*
G01*
X95141500Y-74800750D02*
X95141500Y-75313250D01*
G75*
G02*
X94922750Y-75532000I-218750J0D01*
G01*
X94485250Y-75532000D01*
G75*
G02*
X94266500Y-75313250I0J218750D01*
G01*
X94266500Y-74800750D01*
G75*
G02*
X94485250Y-74582000I218750J0D01*
G01*
X94922750Y-74582000D01*
G75*
G02*
X95141500Y-74800750I0J-218750D01*
G01*
G37*
D29*
X95894000Y-70098000D03*
X95894000Y-65538000D03*
D30*
X89594000Y-67818000D03*
G36*
G01*
X83926000Y-58210000D02*
X84476000Y-58210000D01*
G75*
G02*
X84676000Y-58410000I0J-200000D01*
G01*
X84676000Y-58810000D01*
G75*
G02*
X84476000Y-59010000I-200000J0D01*
G01*
X83926000Y-59010000D01*
G75*
G02*
X83726000Y-58810000I0J200000D01*
G01*
X83726000Y-58410000D01*
G75*
G02*
X83926000Y-58210000I200000J0D01*
G01*
G37*
G36*
G01*
X83926000Y-56560000D02*
X84476000Y-56560000D01*
G75*
G02*
X84676000Y-56760000I0J-200000D01*
G01*
X84676000Y-57160000D01*
G75*
G02*
X84476000Y-57360000I-200000J0D01*
G01*
X83926000Y-57360000D01*
G75*
G02*
X83726000Y-57160000I0J200000D01*
G01*
X83726000Y-56760000D01*
G75*
G02*
X83926000Y-56560000I200000J0D01*
G01*
G37*
G36*
G01*
X102978500Y-60600000D02*
X102978500Y-60050000D01*
G75*
G02*
X103178500Y-59850000I200000J0D01*
G01*
X103578500Y-59850000D01*
G75*
G02*
X103778500Y-60050000I0J-200000D01*
G01*
X103778500Y-60600000D01*
G75*
G02*
X103578500Y-60800000I-200000J0D01*
G01*
X103178500Y-60800000D01*
G75*
G02*
X102978500Y-60600000I0J200000D01*
G01*
G37*
G36*
G01*
X104628500Y-60600000D02*
X104628500Y-60050000D01*
G75*
G02*
X104828500Y-59850000I200000J0D01*
G01*
X105228500Y-59850000D01*
G75*
G02*
X105428500Y-60050000I0J-200000D01*
G01*
X105428500Y-60600000D01*
G75*
G02*
X105228500Y-60800000I-200000J0D01*
G01*
X104828500Y-60800000D01*
G75*
G02*
X104628500Y-60600000I0J200000D01*
G01*
G37*
G36*
G01*
X85704000Y-56877500D02*
X86254000Y-56877500D01*
G75*
G02*
X86454000Y-57077500I0J-200000D01*
G01*
X86454000Y-57477500D01*
G75*
G02*
X86254000Y-57677500I-200000J0D01*
G01*
X85704000Y-57677500D01*
G75*
G02*
X85504000Y-57477500I0J200000D01*
G01*
X85504000Y-57077500D01*
G75*
G02*
X85704000Y-56877500I200000J0D01*
G01*
G37*
G36*
G01*
X85704000Y-58527500D02*
X86254000Y-58527500D01*
G75*
G02*
X86454000Y-58727500I0J-200000D01*
G01*
X86454000Y-59127500D01*
G75*
G02*
X86254000Y-59327500I-200000J0D01*
G01*
X85704000Y-59327500D01*
G75*
G02*
X85504000Y-59127500I0J200000D01*
G01*
X85504000Y-58727500D01*
G75*
G02*
X85704000Y-58527500I200000J0D01*
G01*
G37*
G36*
G01*
X88636001Y-60635500D02*
X87385999Y-60635500D01*
G75*
G02*
X87136000Y-60385501I0J249999D01*
G01*
X87136000Y-59760499D01*
G75*
G02*
X87385999Y-59510500I249999J0D01*
G01*
X88636001Y-59510500D01*
G75*
G02*
X88886000Y-59760499I0J-249999D01*
G01*
X88886000Y-60385501D01*
G75*
G02*
X88636001Y-60635500I-249999J0D01*
G01*
G37*
G36*
G01*
X88636001Y-57710500D02*
X87385999Y-57710500D01*
G75*
G02*
X87136000Y-57460501I0J249999D01*
G01*
X87136000Y-56835499D01*
G75*
G02*
X87385999Y-56585500I249999J0D01*
G01*
X88636001Y-56585500D01*
G75*
G02*
X88886000Y-56835499I0J-249999D01*
G01*
X88886000Y-57460501D01*
G75*
G02*
X88636001Y-57710500I-249999J0D01*
G01*
G37*
G36*
G01*
X82952000Y-59010000D02*
X82402000Y-59010000D01*
G75*
G02*
X82202000Y-58810000I0J200000D01*
G01*
X82202000Y-58410000D01*
G75*
G02*
X82402000Y-58210000I200000J0D01*
G01*
X82952000Y-58210000D01*
G75*
G02*
X83152000Y-58410000I0J-200000D01*
G01*
X83152000Y-58810000D01*
G75*
G02*
X82952000Y-59010000I-200000J0D01*
G01*
G37*
G36*
G01*
X82952000Y-57360000D02*
X82402000Y-57360000D01*
G75*
G02*
X82202000Y-57160000I0J200000D01*
G01*
X82202000Y-56760000D01*
G75*
G02*
X82402000Y-56560000I200000J0D01*
G01*
X82952000Y-56560000D01*
G75*
G02*
X83152000Y-56760000I0J-200000D01*
G01*
X83152000Y-57160000D01*
G75*
G02*
X82952000Y-57360000I-200000J0D01*
G01*
G37*
G36*
G01*
X79481000Y-56560000D02*
X80031000Y-56560000D01*
G75*
G02*
X80231000Y-56760000I0J-200000D01*
G01*
X80231000Y-57160000D01*
G75*
G02*
X80031000Y-57360000I-200000J0D01*
G01*
X79481000Y-57360000D01*
G75*
G02*
X79281000Y-57160000I0J200000D01*
G01*
X79281000Y-56760000D01*
G75*
G02*
X79481000Y-56560000I200000J0D01*
G01*
G37*
G36*
G01*
X79481000Y-58210000D02*
X80031000Y-58210000D01*
G75*
G02*
X80231000Y-58410000I0J-200000D01*
G01*
X80231000Y-58810000D01*
G75*
G02*
X80031000Y-59010000I-200000J0D01*
G01*
X79481000Y-59010000D01*
G75*
G02*
X79281000Y-58810000I0J200000D01*
G01*
X79281000Y-58410000D01*
G75*
G02*
X79481000Y-58210000I200000J0D01*
G01*
G37*
G36*
G01*
X103169000Y-85746000D02*
X103169000Y-85196000D01*
G75*
G02*
X103369000Y-84996000I200000J0D01*
G01*
X103769000Y-84996000D01*
G75*
G02*
X103969000Y-85196000I0J-200000D01*
G01*
X103969000Y-85746000D01*
G75*
G02*
X103769000Y-85946000I-200000J0D01*
G01*
X103369000Y-85946000D01*
G75*
G02*
X103169000Y-85746000I0J200000D01*
G01*
G37*
G36*
G01*
X104819000Y-85746000D02*
X104819000Y-85196000D01*
G75*
G02*
X105019000Y-84996000I200000J0D01*
G01*
X105419000Y-84996000D01*
G75*
G02*
X105619000Y-85196000I0J-200000D01*
G01*
X105619000Y-85746000D01*
G75*
G02*
X105419000Y-85946000I-200000J0D01*
G01*
X105019000Y-85946000D01*
G75*
G02*
X104819000Y-85746000I0J200000D01*
G01*
G37*
G36*
G01*
X78570500Y-62375500D02*
X78020500Y-62375500D01*
G75*
G02*
X77820500Y-62175500I0J200000D01*
G01*
X77820500Y-61775500D01*
G75*
G02*
X78020500Y-61575500I200000J0D01*
G01*
X78570500Y-61575500D01*
G75*
G02*
X78770500Y-61775500I0J-200000D01*
G01*
X78770500Y-62175500D01*
G75*
G02*
X78570500Y-62375500I-200000J0D01*
G01*
G37*
G36*
G01*
X78570500Y-60725500D02*
X78020500Y-60725500D01*
G75*
G02*
X77820500Y-60525500I0J200000D01*
G01*
X77820500Y-60125500D01*
G75*
G02*
X78020500Y-59925500I200000J0D01*
G01*
X78570500Y-59925500D01*
G75*
G02*
X78770500Y-60125500I0J-200000D01*
G01*
X78770500Y-60525500D01*
G75*
G02*
X78570500Y-60725500I-200000J0D01*
G01*
G37*
G36*
G01*
X95421000Y-81872500D02*
X95421000Y-81322500D01*
G75*
G02*
X95621000Y-81122500I200000J0D01*
G01*
X96021000Y-81122500D01*
G75*
G02*
X96221000Y-81322500I0J-200000D01*
G01*
X96221000Y-81872500D01*
G75*
G02*
X96021000Y-82072500I-200000J0D01*
G01*
X95621000Y-82072500D01*
G75*
G02*
X95421000Y-81872500I0J200000D01*
G01*
G37*
G36*
G01*
X93771000Y-81872500D02*
X93771000Y-81322500D01*
G75*
G02*
X93971000Y-81122500I200000J0D01*
G01*
X94371000Y-81122500D01*
G75*
G02*
X94571000Y-81322500I0J-200000D01*
G01*
X94571000Y-81872500D01*
G75*
G02*
X94371000Y-82072500I-200000J0D01*
G01*
X93971000Y-82072500D01*
G75*
G02*
X93771000Y-81872500I0J200000D01*
G01*
G37*
G36*
G01*
X83077500Y-61447000D02*
X83077500Y-61997000D01*
G75*
G02*
X82877500Y-62197000I-200000J0D01*
G01*
X82477500Y-62197000D01*
G75*
G02*
X82277500Y-61997000I0J200000D01*
G01*
X82277500Y-61447000D01*
G75*
G02*
X82477500Y-61247000I200000J0D01*
G01*
X82877500Y-61247000D01*
G75*
G02*
X83077500Y-61447000I0J-200000D01*
G01*
G37*
G36*
G01*
X84727500Y-61447000D02*
X84727500Y-61997000D01*
G75*
G02*
X84527500Y-62197000I-200000J0D01*
G01*
X84127500Y-62197000D01*
G75*
G02*
X83927500Y-61997000I0J200000D01*
G01*
X83927500Y-61447000D01*
G75*
G02*
X84127500Y-61247000I200000J0D01*
G01*
X84527500Y-61247000D01*
G75*
G02*
X84727500Y-61447000I0J-200000D01*
G01*
G37*
G36*
G01*
X96181500Y-84626000D02*
X96731500Y-84626000D01*
G75*
G02*
X96931500Y-84826000I0J-200000D01*
G01*
X96931500Y-85226000D01*
G75*
G02*
X96731500Y-85426000I-200000J0D01*
G01*
X96181500Y-85426000D01*
G75*
G02*
X95981500Y-85226000I0J200000D01*
G01*
X95981500Y-84826000D01*
G75*
G02*
X96181500Y-84626000I200000J0D01*
G01*
G37*
G36*
G01*
X96181500Y-82976000D02*
X96731500Y-82976000D01*
G75*
G02*
X96931500Y-83176000I0J-200000D01*
G01*
X96931500Y-83576000D01*
G75*
G02*
X96731500Y-83776000I-200000J0D01*
G01*
X96181500Y-83776000D01*
G75*
G02*
X95981500Y-83576000I0J200000D01*
G01*
X95981500Y-83176000D01*
G75*
G02*
X96181500Y-82976000I200000J0D01*
G01*
G37*
G36*
G01*
X99929500Y-66378500D02*
X99929500Y-65828500D01*
G75*
G02*
X100129500Y-65628500I200000J0D01*
G01*
X100529500Y-65628500D01*
G75*
G02*
X100729500Y-65828500I0J-200000D01*
G01*
X100729500Y-66378500D01*
G75*
G02*
X100529500Y-66578500I-200000J0D01*
G01*
X100129500Y-66578500D01*
G75*
G02*
X99929500Y-66378500I0J200000D01*
G01*
G37*
G36*
G01*
X98279500Y-66378500D02*
X98279500Y-65828500D01*
G75*
G02*
X98479500Y-65628500I200000J0D01*
G01*
X98879500Y-65628500D01*
G75*
G02*
X99079500Y-65828500I0J-200000D01*
G01*
X99079500Y-66378500D01*
G75*
G02*
X98879500Y-66578500I-200000J0D01*
G01*
X98479500Y-66578500D01*
G75*
G02*
X98279500Y-66378500I0J200000D01*
G01*
G37*
G36*
G01*
X94913000Y-92413500D02*
X94913000Y-91863500D01*
G75*
G02*
X95113000Y-91663500I200000J0D01*
G01*
X95513000Y-91663500D01*
G75*
G02*
X95713000Y-91863500I0J-200000D01*
G01*
X95713000Y-92413500D01*
G75*
G02*
X95513000Y-92613500I-200000J0D01*
G01*
X95113000Y-92613500D01*
G75*
G02*
X94913000Y-92413500I0J200000D01*
G01*
G37*
G36*
G01*
X93263000Y-92413500D02*
X93263000Y-91863500D01*
G75*
G02*
X93463000Y-91663500I200000J0D01*
G01*
X93863000Y-91663500D01*
G75*
G02*
X94063000Y-91863500I0J-200000D01*
G01*
X94063000Y-92413500D01*
G75*
G02*
X93863000Y-92613500I-200000J0D01*
G01*
X93463000Y-92613500D01*
G75*
G02*
X93263000Y-92413500I0J200000D01*
G01*
G37*
G36*
G01*
X90279000Y-92413500D02*
X90279000Y-91863500D01*
G75*
G02*
X90479000Y-91663500I200000J0D01*
G01*
X90879000Y-91663500D01*
G75*
G02*
X91079000Y-91863500I0J-200000D01*
G01*
X91079000Y-92413500D01*
G75*
G02*
X90879000Y-92613500I-200000J0D01*
G01*
X90479000Y-92613500D01*
G75*
G02*
X90279000Y-92413500I0J200000D01*
G01*
G37*
G36*
G01*
X91929000Y-92413500D02*
X91929000Y-91863500D01*
G75*
G02*
X92129000Y-91663500I200000J0D01*
G01*
X92529000Y-91663500D01*
G75*
G02*
X92729000Y-91863500I0J-200000D01*
G01*
X92729000Y-92413500D01*
G75*
G02*
X92529000Y-92613500I-200000J0D01*
G01*
X92129000Y-92613500D01*
G75*
G02*
X91929000Y-92413500I0J200000D01*
G01*
G37*
G36*
G01*
X95803000Y-73871500D02*
X95803000Y-73321500D01*
G75*
G02*
X96003000Y-73121500I200000J0D01*
G01*
X96403000Y-73121500D01*
G75*
G02*
X96603000Y-73321500I0J-200000D01*
G01*
X96603000Y-73871500D01*
G75*
G02*
X96403000Y-74071500I-200000J0D01*
G01*
X96003000Y-74071500D01*
G75*
G02*
X95803000Y-73871500I0J200000D01*
G01*
G37*
G36*
G01*
X97453000Y-73871500D02*
X97453000Y-73321500D01*
G75*
G02*
X97653000Y-73121500I200000J0D01*
G01*
X98053000Y-73121500D01*
G75*
G02*
X98253000Y-73321500I0J-200000D01*
G01*
X98253000Y-73871500D01*
G75*
G02*
X98053000Y-74071500I-200000J0D01*
G01*
X97653000Y-74071500D01*
G75*
G02*
X97453000Y-73871500I0J200000D01*
G01*
G37*
G36*
G01*
X94468500Y-73871500D02*
X94468500Y-73321500D01*
G75*
G02*
X94668500Y-73121500I200000J0D01*
G01*
X95068500Y-73121500D01*
G75*
G02*
X95268500Y-73321500I0J-200000D01*
G01*
X95268500Y-73871500D01*
G75*
G02*
X95068500Y-74071500I-200000J0D01*
G01*
X94668500Y-74071500D01*
G75*
G02*
X94468500Y-73871500I0J200000D01*
G01*
G37*
G36*
G01*
X92818500Y-73871500D02*
X92818500Y-73321500D01*
G75*
G02*
X93018500Y-73121500I200000J0D01*
G01*
X93418500Y-73121500D01*
G75*
G02*
X93618500Y-73321500I0J-200000D01*
G01*
X93618500Y-73871500D01*
G75*
G02*
X93418500Y-74071500I-200000J0D01*
G01*
X93018500Y-74071500D01*
G75*
G02*
X92818500Y-73871500I0J200000D01*
G01*
G37*
D31*
X115974700Y-79076400D03*
D32*
X115974700Y-77476400D03*
X115974700Y-78276400D03*
D31*
X115974700Y-76676400D03*
D32*
X114174700Y-78276400D03*
D31*
X114174700Y-79076400D03*
D32*
X114174700Y-77476400D03*
D31*
X114174700Y-76676400D03*
D33*
X70986500Y-65521000D03*
D34*
X70186500Y-65521000D03*
D33*
X68586500Y-65521000D03*
D34*
X69386500Y-65521000D03*
D33*
X70986500Y-67321000D03*
D34*
X69386500Y-67321000D03*
X70186500Y-67321000D03*
D33*
X68586500Y-67321000D03*
X65919500Y-110120000D03*
D34*
X66719500Y-110120000D03*
D33*
X68319500Y-110120000D03*
D34*
X67519500Y-110120000D03*
D33*
X65919500Y-108320000D03*
D34*
X67519500Y-108320000D03*
X66719500Y-108320000D03*
D33*
X68319500Y-108320000D03*
D31*
X115974700Y-75380700D03*
D32*
X115974700Y-73780700D03*
X115974700Y-74580700D03*
D31*
X115974700Y-72980700D03*
D32*
X114174700Y-74580700D03*
D31*
X114174700Y-75380700D03*
D32*
X114174700Y-73780700D03*
D31*
X114174700Y-72980700D03*
D35*
X110807500Y-53340000D03*
X105727500Y-53340000D03*
D36*
X105727500Y-55970000D03*
X108267500Y-55970000D03*
X110807500Y-55970000D03*
X98425000Y-55970000D03*
X95885000Y-55970000D03*
X93345000Y-55970000D03*
D35*
X93345000Y-53340000D03*
X98425000Y-53340000D03*
D37*
X81168000Y-60137000D03*
X79868000Y-60137000D03*
X80518000Y-60137000D03*
X79868000Y-62037000D03*
X81168000Y-62037000D03*
D38*
X92017850Y-85261000D03*
X92017850Y-83141000D03*
X93916500Y-83141000D03*
D39*
X93916500Y-85070500D03*
D40*
X115976000Y-62166500D03*
D41*
X122276000Y-62166500D03*
X122276000Y-59866500D03*
X122276000Y-64466500D03*
D28*
X100969500Y-88963500D03*
X109469500Y-88963500D03*
G36*
G01*
X84727500Y-59948000D02*
X84727500Y-60448000D01*
G75*
G02*
X84502500Y-60673000I-225000J0D01*
G01*
X84052500Y-60673000D01*
G75*
G02*
X83827500Y-60448000I0J225000D01*
G01*
X83827500Y-59948000D01*
G75*
G02*
X84052500Y-59723000I225000J0D01*
G01*
X84502500Y-59723000D01*
G75*
G02*
X84727500Y-59948000I0J-225000D01*
G01*
G37*
G36*
G01*
X83177500Y-59948000D02*
X83177500Y-60448000D01*
G75*
G02*
X82952500Y-60673000I-225000J0D01*
G01*
X82502500Y-60673000D01*
G75*
G02*
X82277500Y-60448000I0J225000D01*
G01*
X82277500Y-59948000D01*
G75*
G02*
X82502500Y-59723000I225000J0D01*
G01*
X82952500Y-59723000D01*
G75*
G02*
X83177500Y-59948000I0J-225000D01*
G01*
G37*
G36*
G01*
X91444000Y-74594000D02*
X91944000Y-74594000D01*
G75*
G02*
X92169000Y-74819000I0J-225000D01*
G01*
X92169000Y-75269000D01*
G75*
G02*
X91944000Y-75494000I-225000J0D01*
G01*
X91444000Y-75494000D01*
G75*
G02*
X91219000Y-75269000I0J225000D01*
G01*
X91219000Y-74819000D01*
G75*
G02*
X91444000Y-74594000I225000J0D01*
G01*
G37*
G36*
G01*
X91444000Y-76144000D02*
X91944000Y-76144000D01*
G75*
G02*
X92169000Y-76369000I0J-225000D01*
G01*
X92169000Y-76819000D01*
G75*
G02*
X91944000Y-77044000I-225000J0D01*
G01*
X91444000Y-77044000D01*
G75*
G02*
X91219000Y-76819000I0J225000D01*
G01*
X91219000Y-76369000D01*
G75*
G02*
X91444000Y-76144000I225000J0D01*
G01*
G37*
G36*
G01*
X85897500Y-73675001D02*
X85897500Y-72374999D01*
G75*
G02*
X86147499Y-72125000I249999J0D01*
G01*
X86797501Y-72125000D01*
G75*
G02*
X87047500Y-72374999I0J-249999D01*
G01*
X87047500Y-73675001D01*
G75*
G02*
X86797501Y-73925000I-249999J0D01*
G01*
X86147499Y-73925000D01*
G75*
G02*
X85897500Y-73675001I0J249999D01*
G01*
G37*
G36*
G01*
X88847500Y-73675001D02*
X88847500Y-72374999D01*
G75*
G02*
X89097499Y-72125000I249999J0D01*
G01*
X89747501Y-72125000D01*
G75*
G02*
X89997500Y-72374999I0J-249999D01*
G01*
X89997500Y-73675001D01*
G75*
G02*
X89747501Y-73925000I-249999J0D01*
G01*
X89097499Y-73925000D01*
G75*
G02*
X88847500Y-73675001I0J249999D01*
G01*
G37*
G36*
G01*
X74851050Y-71766000D02*
X76151950Y-71766000D01*
G75*
G02*
X76401500Y-72015550I0J-249550D01*
G01*
X76401500Y-72666450D01*
G75*
G02*
X76151950Y-72916000I-249550J0D01*
G01*
X74851050Y-72916000D01*
G75*
G02*
X74601500Y-72666450I0J249550D01*
G01*
X74601500Y-72015550D01*
G75*
G02*
X74851050Y-71766000I249550J0D01*
G01*
G37*
G36*
G01*
X74851499Y-68816000D02*
X76151501Y-68816000D01*
G75*
G02*
X76401500Y-69065999I0J-249999D01*
G01*
X76401500Y-69716001D01*
G75*
G02*
X76151501Y-69966000I-249999J0D01*
G01*
X74851499Y-69966000D01*
G75*
G02*
X74601500Y-69716001I0J249999D01*
G01*
X74601500Y-69065999D01*
G75*
G02*
X74851499Y-68816000I249999J0D01*
G01*
G37*
G36*
G01*
X95557000Y-109062500D02*
X95557000Y-110012500D01*
G75*
G02*
X95307000Y-110262500I-250000J0D01*
G01*
X94807000Y-110262500D01*
G75*
G02*
X94557000Y-110012500I0J250000D01*
G01*
X94557000Y-109062500D01*
G75*
G02*
X94807000Y-108812500I250000J0D01*
G01*
X95307000Y-108812500D01*
G75*
G02*
X95557000Y-109062500I0J-250000D01*
G01*
G37*
G36*
G01*
X93657000Y-109062500D02*
X93657000Y-110012500D01*
G75*
G02*
X93407000Y-110262500I-250000J0D01*
G01*
X92907000Y-110262500D01*
G75*
G02*
X92657000Y-110012500I0J250000D01*
G01*
X92657000Y-109062500D01*
G75*
G02*
X92907000Y-108812500I250000J0D01*
G01*
X93407000Y-108812500D01*
G75*
G02*
X93657000Y-109062500I0J-250000D01*
G01*
G37*
G36*
G01*
X95686900Y-95777900D02*
X94736900Y-95777900D01*
G75*
G02*
X94486900Y-95527900I0J250000D01*
G01*
X94486900Y-95027900D01*
G75*
G02*
X94736900Y-94777900I250000J0D01*
G01*
X95686900Y-94777900D01*
G75*
G02*
X95936900Y-95027900I0J-250000D01*
G01*
X95936900Y-95527900D01*
G75*
G02*
X95686900Y-95777900I-250000J0D01*
G01*
G37*
G36*
G01*
X95686900Y-97677900D02*
X94736900Y-97677900D01*
G75*
G02*
X94486900Y-97427900I0J250000D01*
G01*
X94486900Y-96927900D01*
G75*
G02*
X94736900Y-96677900I250000J0D01*
G01*
X95686900Y-96677900D01*
G75*
G02*
X95936900Y-96927900I0J-250000D01*
G01*
X95936900Y-97427900D01*
G75*
G02*
X95686900Y-97677900I-250000J0D01*
G01*
G37*
G36*
G01*
X90815500Y-97439500D02*
X90815500Y-96489500D01*
G75*
G02*
X91065500Y-96239500I250000J0D01*
G01*
X91565500Y-96239500D01*
G75*
G02*
X91815500Y-96489500I0J-250000D01*
G01*
X91815500Y-97439500D01*
G75*
G02*
X91565500Y-97689500I-250000J0D01*
G01*
X91065500Y-97689500D01*
G75*
G02*
X90815500Y-97439500I0J250000D01*
G01*
G37*
G36*
G01*
X92715500Y-97439500D02*
X92715500Y-96489500D01*
G75*
G02*
X92965500Y-96239500I250000J0D01*
G01*
X93465500Y-96239500D01*
G75*
G02*
X93715500Y-96489500I0J-250000D01*
G01*
X93715500Y-97439500D01*
G75*
G02*
X93465500Y-97689500I-250000J0D01*
G01*
X92965500Y-97689500D01*
G75*
G02*
X92715500Y-97439500I0J250000D01*
G01*
G37*
D42*
X102587000Y-129413000D03*
X95787000Y-129413000D03*
D43*
X102171500Y-117910500D03*
X102171500Y-113610500D03*
D21*
X85725000Y-127635000D03*
D44*
X90805000Y-127635000D03*
G36*
G01*
X97709400Y-106406400D02*
X97159400Y-106406400D01*
G75*
G02*
X96959400Y-106206400I0J200000D01*
G01*
X96959400Y-105806400D01*
G75*
G02*
X97159400Y-105606400I200000J0D01*
G01*
X97709400Y-105606400D01*
G75*
G02*
X97909400Y-105806400I0J-200000D01*
G01*
X97909400Y-106206400D01*
G75*
G02*
X97709400Y-106406400I-200000J0D01*
G01*
G37*
G36*
G01*
X97709400Y-104756400D02*
X97159400Y-104756400D01*
G75*
G02*
X96959400Y-104556400I0J200000D01*
G01*
X96959400Y-104156400D01*
G75*
G02*
X97159400Y-103956400I200000J0D01*
G01*
X97709400Y-103956400D01*
G75*
G02*
X97909400Y-104156400I0J-200000D01*
G01*
X97909400Y-104556400D01*
G75*
G02*
X97709400Y-104756400I-200000J0D01*
G01*
G37*
G36*
G01*
X97159400Y-102609200D02*
X97709400Y-102609200D01*
G75*
G02*
X97909400Y-102809200I0J-200000D01*
G01*
X97909400Y-103209200D01*
G75*
G02*
X97709400Y-103409200I-200000J0D01*
G01*
X97159400Y-103409200D01*
G75*
G02*
X96959400Y-103209200I0J200000D01*
G01*
X96959400Y-102809200D01*
G75*
G02*
X97159400Y-102609200I200000J0D01*
G01*
G37*
G36*
G01*
X97159400Y-100959200D02*
X97709400Y-100959200D01*
G75*
G02*
X97909400Y-101159200I0J-200000D01*
G01*
X97909400Y-101559200D01*
G75*
G02*
X97709400Y-101759200I-200000J0D01*
G01*
X97159400Y-101759200D01*
G75*
G02*
X96959400Y-101559200I0J200000D01*
G01*
X96959400Y-101159200D01*
G75*
G02*
X97159400Y-100959200I200000J0D01*
G01*
G37*
G36*
G01*
X97172100Y-97987400D02*
X97722100Y-97987400D01*
G75*
G02*
X97922100Y-98187400I0J-200000D01*
G01*
X97922100Y-98587400D01*
G75*
G02*
X97722100Y-98787400I-200000J0D01*
G01*
X97172100Y-98787400D01*
G75*
G02*
X96972100Y-98587400I0J200000D01*
G01*
X96972100Y-98187400D01*
G75*
G02*
X97172100Y-97987400I200000J0D01*
G01*
G37*
G36*
G01*
X97172100Y-99637400D02*
X97722100Y-99637400D01*
G75*
G02*
X97922100Y-99837400I0J-200000D01*
G01*
X97922100Y-100237400D01*
G75*
G02*
X97722100Y-100437400I-200000J0D01*
G01*
X97172100Y-100437400D01*
G75*
G02*
X96972100Y-100237400I0J200000D01*
G01*
X96972100Y-99837400D01*
G75*
G02*
X97172100Y-99637400I200000J0D01*
G01*
G37*
G36*
G01*
X87701000Y-118614000D02*
X87701000Y-118114000D01*
G75*
G02*
X87926000Y-117889000I225000J0D01*
G01*
X88376000Y-117889000D01*
G75*
G02*
X88601000Y-118114000I0J-225000D01*
G01*
X88601000Y-118614000D01*
G75*
G02*
X88376000Y-118839000I-225000J0D01*
G01*
X87926000Y-118839000D01*
G75*
G02*
X87701000Y-118614000I0J225000D01*
G01*
G37*
G36*
G01*
X86151000Y-118614000D02*
X86151000Y-118114000D01*
G75*
G02*
X86376000Y-117889000I225000J0D01*
G01*
X86826000Y-117889000D01*
G75*
G02*
X87051000Y-118114000I0J-225000D01*
G01*
X87051000Y-118614000D01*
G75*
G02*
X86826000Y-118839000I-225000J0D01*
G01*
X86376000Y-118839000D01*
G75*
G02*
X86151000Y-118614000I0J225000D01*
G01*
G37*
D45*
X85026500Y-100117000D03*
X85026500Y-108417000D03*
G36*
G01*
X105051000Y-127359500D02*
X105051000Y-126259500D01*
G75*
G02*
X105301000Y-126009500I250000J0D01*
G01*
X108301000Y-126009500D01*
G75*
G02*
X108551000Y-126259500I0J-250000D01*
G01*
X108551000Y-127359500D01*
G75*
G02*
X108301000Y-127609500I-250000J0D01*
G01*
X105301000Y-127609500D01*
G75*
G02*
X105051000Y-127359500I0J250000D01*
G01*
G37*
G36*
G01*
X110651000Y-127359900D02*
X110651000Y-126259100D01*
G75*
G02*
X110900600Y-126009500I249600J0D01*
G01*
X113901400Y-126009500D01*
G75*
G02*
X114151000Y-126259100I0J-249600D01*
G01*
X114151000Y-127359900D01*
G75*
G02*
X113901400Y-127609500I-249600J0D01*
G01*
X110900600Y-127609500D01*
G75*
G02*
X110651000Y-127359900I0J249600D01*
G01*
G37*
G36*
G01*
X69130500Y-72053000D02*
X69680500Y-72053000D01*
G75*
G02*
X69880500Y-72253000I0J-200000D01*
G01*
X69880500Y-72653000D01*
G75*
G02*
X69680500Y-72853000I-200000J0D01*
G01*
X69130500Y-72853000D01*
G75*
G02*
X68930500Y-72653000I0J200000D01*
G01*
X68930500Y-72253000D01*
G75*
G02*
X69130500Y-72053000I200000J0D01*
G01*
G37*
G36*
G01*
X69130500Y-70403000D02*
X69680500Y-70403000D01*
G75*
G02*
X69880500Y-70603000I0J-200000D01*
G01*
X69880500Y-71003000D01*
G75*
G02*
X69680500Y-71203000I-200000J0D01*
G01*
X69130500Y-71203000D01*
G75*
G02*
X68930500Y-71003000I0J200000D01*
G01*
X68930500Y-70603000D01*
G75*
G02*
X69130500Y-70403000I200000J0D01*
G01*
G37*
G36*
G01*
X67670000Y-70403000D02*
X68220000Y-70403000D01*
G75*
G02*
X68420000Y-70603000I0J-200000D01*
G01*
X68420000Y-71003000D01*
G75*
G02*
X68220000Y-71203000I-200000J0D01*
G01*
X67670000Y-71203000D01*
G75*
G02*
X67470000Y-71003000I0J200000D01*
G01*
X67470000Y-70603000D01*
G75*
G02*
X67670000Y-70403000I200000J0D01*
G01*
G37*
G36*
G01*
X67670000Y-72053000D02*
X68220000Y-72053000D01*
G75*
G02*
X68420000Y-72253000I0J-200000D01*
G01*
X68420000Y-72653000D01*
G75*
G02*
X68220000Y-72853000I-200000J0D01*
G01*
X67670000Y-72853000D01*
G75*
G02*
X67470000Y-72653000I0J200000D01*
G01*
X67470000Y-72253000D01*
G75*
G02*
X67670000Y-72053000I200000J0D01*
G01*
G37*
G36*
G01*
X113771000Y-83484000D02*
X114321000Y-83484000D01*
G75*
G02*
X114521000Y-83684000I0J-200000D01*
G01*
X114521000Y-84084000D01*
G75*
G02*
X114321000Y-84284000I-200000J0D01*
G01*
X113771000Y-84284000D01*
G75*
G02*
X113571000Y-84084000I0J200000D01*
G01*
X113571000Y-83684000D01*
G75*
G02*
X113771000Y-83484000I200000J0D01*
G01*
G37*
G36*
G01*
X113771000Y-85134000D02*
X114321000Y-85134000D01*
G75*
G02*
X114521000Y-85334000I0J-200000D01*
G01*
X114521000Y-85734000D01*
G75*
G02*
X114321000Y-85934000I-200000J0D01*
G01*
X113771000Y-85934000D01*
G75*
G02*
X113571000Y-85734000I0J200000D01*
G01*
X113571000Y-85334000D01*
G75*
G02*
X113771000Y-85134000I200000J0D01*
G01*
G37*
D46*
X96251000Y-123063000D03*
X102631000Y-123063000D03*
G36*
G01*
X82561000Y-51409000D02*
X82561000Y-54509000D01*
G75*
G02*
X82311000Y-54759000I-250000J0D01*
G01*
X81011000Y-54759000D01*
G75*
G02*
X80761000Y-54509000I0J250000D01*
G01*
X80761000Y-51409000D01*
G75*
G02*
X81011000Y-51159000I250000J0D01*
G01*
X82311000Y-51159000D01*
G75*
G02*
X82561000Y-51409000I0J-250000D01*
G01*
G37*
D47*
X78161000Y-52959000D03*
G36*
G01*
X75576000Y-51409000D02*
X75576000Y-54509000D01*
G75*
G02*
X75326000Y-54759000I-250000J0D01*
G01*
X74026000Y-54759000D01*
G75*
G02*
X73776000Y-54509000I0J250000D01*
G01*
X73776000Y-51409000D01*
G75*
G02*
X74026000Y-51159000I250000J0D01*
G01*
X75326000Y-51159000D01*
G75*
G02*
X75576000Y-51409000I0J-250000D01*
G01*
G37*
X71176000Y-52959000D03*
X67676000Y-52959000D03*
X64176000Y-52959000D03*
D48*
X88582500Y-51435000D03*
D10*
X88582500Y-53975000D03*
G36*
G01*
X67115500Y-100729500D02*
X66615500Y-100729500D01*
G75*
G02*
X66390500Y-100504500I0J225000D01*
G01*
X66390500Y-100054500D01*
G75*
G02*
X66615500Y-99829500I225000J0D01*
G01*
X67115500Y-99829500D01*
G75*
G02*
X67340500Y-100054500I0J-225000D01*
G01*
X67340500Y-100504500D01*
G75*
G02*
X67115500Y-100729500I-225000J0D01*
G01*
G37*
G36*
G01*
X67115500Y-99179500D02*
X66615500Y-99179500D01*
G75*
G02*
X66390500Y-98954500I0J225000D01*
G01*
X66390500Y-98504500D01*
G75*
G02*
X66615500Y-98279500I225000J0D01*
G01*
X67115500Y-98279500D01*
G75*
G02*
X67340500Y-98504500I0J-225000D01*
G01*
X67340500Y-98954500D01*
G75*
G02*
X67115500Y-99179500I-225000J0D01*
G01*
G37*
G36*
G01*
X64202500Y-107995000D02*
X64702500Y-107995000D01*
G75*
G02*
X64927500Y-108220000I0J-225000D01*
G01*
X64927500Y-108670000D01*
G75*
G02*
X64702500Y-108895000I-225000J0D01*
G01*
X64202500Y-108895000D01*
G75*
G02*
X63977500Y-108670000I0J225000D01*
G01*
X63977500Y-108220000D01*
G75*
G02*
X64202500Y-107995000I225000J0D01*
G01*
G37*
G36*
G01*
X64202500Y-109545000D02*
X64702500Y-109545000D01*
G75*
G02*
X64927500Y-109770000I0J-225000D01*
G01*
X64927500Y-110220000D01*
G75*
G02*
X64702500Y-110445000I-225000J0D01*
G01*
X64202500Y-110445000D01*
G75*
G02*
X63977500Y-110220000I0J225000D01*
G01*
X63977500Y-109770000D01*
G75*
G02*
X64202500Y-109545000I225000J0D01*
G01*
G37*
D49*
X64198500Y-122301000D03*
X75628500Y-122301000D03*
D50*
X77658500Y-119251000D03*
X62168500Y-119251000D03*
D51*
X73998500Y-127201000D03*
X76538500Y-127201000D03*
X65828500Y-127201000D03*
X63288500Y-127201000D03*
D52*
X74353500Y-113411000D03*
X73083500Y-115951000D03*
X71813500Y-113411000D03*
X70543500Y-115951000D03*
X69273500Y-113411000D03*
X68003500Y-115951000D03*
X66733500Y-113411000D03*
D53*
X65463500Y-115951000D03*
D54*
X91706700Y-105201700D03*
X92976700Y-105201700D03*
X94246700Y-105201700D03*
X95516700Y-105201700D03*
X95516700Y-99801700D03*
X94246700Y-99801700D03*
X92976700Y-99801700D03*
X91706700Y-99801700D03*
D55*
X93611700Y-102501700D03*
G36*
G01*
X92699000Y-111548999D02*
X92699000Y-113749001D01*
G75*
G02*
X92449001Y-113999000I-249999J0D01*
G01*
X91798999Y-113999000D01*
G75*
G02*
X91549000Y-113749001I0J249999D01*
G01*
X91549000Y-111548999D01*
G75*
G02*
X91798999Y-111299000I249999J0D01*
G01*
X92449001Y-111299000D01*
G75*
G02*
X92699000Y-111548999I0J-249999D01*
G01*
G37*
G36*
G01*
X95649000Y-111548999D02*
X95649000Y-113749001D01*
G75*
G02*
X95399001Y-113999000I-249999J0D01*
G01*
X94748999Y-113999000D01*
G75*
G02*
X94499000Y-113749001I0J249999D01*
G01*
X94499000Y-111548999D01*
G75*
G02*
X94748999Y-111299000I249999J0D01*
G01*
X95399001Y-111299000D01*
G75*
G02*
X95649000Y-111548999I0J-249999D01*
G01*
G37*
G36*
G01*
X95649000Y-114723999D02*
X95649000Y-116924001D01*
G75*
G02*
X95399001Y-117174000I-249999J0D01*
G01*
X94748999Y-117174000D01*
G75*
G02*
X94499000Y-116924001I0J249999D01*
G01*
X94499000Y-114723999D01*
G75*
G02*
X94748999Y-114474000I249999J0D01*
G01*
X95399001Y-114474000D01*
G75*
G02*
X95649000Y-114723999I0J-249999D01*
G01*
G37*
G36*
G01*
X92699000Y-114723999D02*
X92699000Y-116924001D01*
G75*
G02*
X92449001Y-117174000I-249999J0D01*
G01*
X91798999Y-117174000D01*
G75*
G02*
X91549000Y-116924001I0J249999D01*
G01*
X91549000Y-114723999D01*
G75*
G02*
X91798999Y-114474000I249999J0D01*
G01*
X92449001Y-114474000D01*
G75*
G02*
X92699000Y-114723999I0J-249999D01*
G01*
G37*
G36*
G01*
X85516500Y-113736301D02*
X85516500Y-111536299D01*
G75*
G02*
X85766499Y-111286300I249999J0D01*
G01*
X86416501Y-111286300D01*
G75*
G02*
X86666500Y-111536299I0J-249999D01*
G01*
X86666500Y-113736301D01*
G75*
G02*
X86416501Y-113986300I-249999J0D01*
G01*
X85766499Y-113986300D01*
G75*
G02*
X85516500Y-113736301I0J249999D01*
G01*
G37*
G36*
G01*
X88466500Y-113736301D02*
X88466500Y-111536299D01*
G75*
G02*
X88716499Y-111286300I249999J0D01*
G01*
X89366501Y-111286300D01*
G75*
G02*
X89616500Y-111536299I0J-249999D01*
G01*
X89616500Y-113736301D01*
G75*
G02*
X89366501Y-113986300I-249999J0D01*
G01*
X88716499Y-113986300D01*
G75*
G02*
X88466500Y-113736301I0J249999D01*
G01*
G37*
G36*
G01*
X81967500Y-114723999D02*
X81967500Y-116924001D01*
G75*
G02*
X81717501Y-117174000I-249999J0D01*
G01*
X81067499Y-117174000D01*
G75*
G02*
X80817500Y-116924001I0J249999D01*
G01*
X80817500Y-114723999D01*
G75*
G02*
X81067499Y-114474000I249999J0D01*
G01*
X81717501Y-114474000D01*
G75*
G02*
X81967500Y-114723999I0J-249999D01*
G01*
G37*
G36*
G01*
X84917500Y-114723999D02*
X84917500Y-116924001D01*
G75*
G02*
X84667501Y-117174000I-249999J0D01*
G01*
X84017499Y-117174000D01*
G75*
G02*
X83767500Y-116924001I0J249999D01*
G01*
X83767500Y-114723999D01*
G75*
G02*
X84017499Y-114474000I249999J0D01*
G01*
X84667501Y-114474000D01*
G75*
G02*
X84917500Y-114723999I0J-249999D01*
G01*
G37*
G36*
G01*
X81967500Y-111548999D02*
X81967500Y-113749001D01*
G75*
G02*
X81717501Y-113999000I-249999J0D01*
G01*
X81067499Y-113999000D01*
G75*
G02*
X80817500Y-113749001I0J249999D01*
G01*
X80817500Y-111548999D01*
G75*
G02*
X81067499Y-111299000I249999J0D01*
G01*
X81717501Y-111299000D01*
G75*
G02*
X81967500Y-111548999I0J-249999D01*
G01*
G37*
G36*
G01*
X84917500Y-111548999D02*
X84917500Y-113749001D01*
G75*
G02*
X84667501Y-113999000I-249999J0D01*
G01*
X84017499Y-113999000D01*
G75*
G02*
X83767500Y-113749001I0J249999D01*
G01*
X83767500Y-111548999D01*
G75*
G02*
X84017499Y-111299000I249999J0D01*
G01*
X84667501Y-111299000D01*
G75*
G02*
X84917500Y-111548999I0J-249999D01*
G01*
G37*
G36*
G01*
X85516500Y-116924001D02*
X85516500Y-114723999D01*
G75*
G02*
X85766499Y-114474000I249999J0D01*
G01*
X86416501Y-114474000D01*
G75*
G02*
X86666500Y-114723999I0J-249999D01*
G01*
X86666500Y-116924001D01*
G75*
G02*
X86416501Y-117174000I-249999J0D01*
G01*
X85766499Y-117174000D01*
G75*
G02*
X85516500Y-116924001I0J249999D01*
G01*
G37*
G36*
G01*
X88466500Y-116924001D02*
X88466500Y-114723999D01*
G75*
G02*
X88716499Y-114474000I249999J0D01*
G01*
X89366501Y-114474000D01*
G75*
G02*
X89616500Y-114723999I0J-249999D01*
G01*
X89616500Y-116924001D01*
G75*
G02*
X89366501Y-117174000I-249999J0D01*
G01*
X88716499Y-117174000D01*
G75*
G02*
X88466500Y-116924001I0J249999D01*
G01*
G37*
G36*
G01*
X124152500Y-70682500D02*
X125402500Y-70682500D01*
G75*
G02*
X125652500Y-70932500I0J-250000D01*
G01*
X125652500Y-71682500D01*
G75*
G02*
X125402500Y-71932500I-250000J0D01*
G01*
X124152500Y-71932500D01*
G75*
G02*
X123902500Y-71682500I0J250000D01*
G01*
X123902500Y-70932500D01*
G75*
G02*
X124152500Y-70682500I250000J0D01*
G01*
G37*
G36*
G01*
X124152500Y-73482500D02*
X125402500Y-73482500D01*
G75*
G02*
X125652500Y-73732500I0J-250000D01*
G01*
X125652500Y-74482500D01*
G75*
G02*
X125402500Y-74732500I-250000J0D01*
G01*
X124152500Y-74732500D01*
G75*
G02*
X123902500Y-74482500I0J250000D01*
G01*
X123902500Y-73732500D01*
G75*
G02*
X124152500Y-73482500I250000J0D01*
G01*
G37*
D48*
X116205000Y-84709000D03*
G36*
G01*
X88857500Y-83965500D02*
X88307500Y-83965500D01*
G75*
G02*
X88107500Y-83765500I0J200000D01*
G01*
X88107500Y-83365500D01*
G75*
G02*
X88307500Y-83165500I200000J0D01*
G01*
X88857500Y-83165500D01*
G75*
G02*
X89057500Y-83365500I0J-200000D01*
G01*
X89057500Y-83765500D01*
G75*
G02*
X88857500Y-83965500I-200000J0D01*
G01*
G37*
G36*
G01*
X88857500Y-82315500D02*
X88307500Y-82315500D01*
G75*
G02*
X88107500Y-82115500I0J200000D01*
G01*
X88107500Y-81715500D01*
G75*
G02*
X88307500Y-81515500I200000J0D01*
G01*
X88857500Y-81515500D01*
G75*
G02*
X89057500Y-81715500I0J-200000D01*
G01*
X89057500Y-82115500D01*
G75*
G02*
X88857500Y-82315500I-200000J0D01*
G01*
G37*
G36*
G01*
X90569500Y-80179500D02*
X90569500Y-80729500D01*
G75*
G02*
X90369500Y-80929500I-200000J0D01*
G01*
X89969500Y-80929500D01*
G75*
G02*
X89769500Y-80729500I0J200000D01*
G01*
X89769500Y-80179500D01*
G75*
G02*
X89969500Y-79979500I200000J0D01*
G01*
X90369500Y-79979500D01*
G75*
G02*
X90569500Y-80179500I0J-200000D01*
G01*
G37*
G36*
G01*
X88919500Y-80179500D02*
X88919500Y-80729500D01*
G75*
G02*
X88719500Y-80929500I-200000J0D01*
G01*
X88319500Y-80929500D01*
G75*
G02*
X88119500Y-80729500I0J200000D01*
G01*
X88119500Y-80179500D01*
G75*
G02*
X88319500Y-79979500I200000J0D01*
G01*
X88719500Y-79979500D01*
G75*
G02*
X88919500Y-80179500I0J-200000D01*
G01*
G37*
G36*
G01*
X77323500Y-97684000D02*
X77323500Y-97134000D01*
G75*
G02*
X77523500Y-96934000I200000J0D01*
G01*
X77923500Y-96934000D01*
G75*
G02*
X78123500Y-97134000I0J-200000D01*
G01*
X78123500Y-97684000D01*
G75*
G02*
X77923500Y-97884000I-200000J0D01*
G01*
X77523500Y-97884000D01*
G75*
G02*
X77323500Y-97684000I0J200000D01*
G01*
G37*
G36*
G01*
X75673500Y-97684000D02*
X75673500Y-97134000D01*
G75*
G02*
X75873500Y-96934000I200000J0D01*
G01*
X76273500Y-96934000D01*
G75*
G02*
X76473500Y-97134000I0J-200000D01*
G01*
X76473500Y-97684000D01*
G75*
G02*
X76273500Y-97884000I-200000J0D01*
G01*
X75873500Y-97884000D01*
G75*
G02*
X75673500Y-97684000I0J200000D01*
G01*
G37*
G36*
G01*
X75673500Y-96287000D02*
X75673500Y-95737000D01*
G75*
G02*
X75873500Y-95537000I200000J0D01*
G01*
X76273500Y-95537000D01*
G75*
G02*
X76473500Y-95737000I0J-200000D01*
G01*
X76473500Y-96287000D01*
G75*
G02*
X76273500Y-96487000I-200000J0D01*
G01*
X75873500Y-96487000D01*
G75*
G02*
X75673500Y-96287000I0J200000D01*
G01*
G37*
G36*
G01*
X77323500Y-96287000D02*
X77323500Y-95737000D01*
G75*
G02*
X77523500Y-95537000I200000J0D01*
G01*
X77923500Y-95537000D01*
G75*
G02*
X78123500Y-95737000I0J-200000D01*
G01*
X78123500Y-96287000D01*
G75*
G02*
X77923500Y-96487000I-200000J0D01*
G01*
X77523500Y-96487000D01*
G75*
G02*
X77323500Y-96287000I0J200000D01*
G01*
G37*
G36*
G01*
X90381500Y-82315500D02*
X89831500Y-82315500D01*
G75*
G02*
X89631500Y-82115500I0J200000D01*
G01*
X89631500Y-81715500D01*
G75*
G02*
X89831500Y-81515500I200000J0D01*
G01*
X90381500Y-81515500D01*
G75*
G02*
X90581500Y-81715500I0J-200000D01*
G01*
X90581500Y-82115500D01*
G75*
G02*
X90381500Y-82315500I-200000J0D01*
G01*
G37*
G36*
G01*
X90381500Y-83965500D02*
X89831500Y-83965500D01*
G75*
G02*
X89631500Y-83765500I0J200000D01*
G01*
X89631500Y-83365500D01*
G75*
G02*
X89831500Y-83165500I200000J0D01*
G01*
X90381500Y-83165500D01*
G75*
G02*
X90581500Y-83365500I0J-200000D01*
G01*
X90581500Y-83765500D01*
G75*
G02*
X90381500Y-83965500I-200000J0D01*
G01*
G37*
G36*
G01*
X110977000Y-85134000D02*
X111527000Y-85134000D01*
G75*
G02*
X111727000Y-85334000I0J-200000D01*
G01*
X111727000Y-85734000D01*
G75*
G02*
X111527000Y-85934000I-200000J0D01*
G01*
X110977000Y-85934000D01*
G75*
G02*
X110777000Y-85734000I0J200000D01*
G01*
X110777000Y-85334000D01*
G75*
G02*
X110977000Y-85134000I200000J0D01*
G01*
G37*
G36*
G01*
X110977000Y-83484000D02*
X111527000Y-83484000D01*
G75*
G02*
X111727000Y-83684000I0J-200000D01*
G01*
X111727000Y-84084000D01*
G75*
G02*
X111527000Y-84284000I-200000J0D01*
G01*
X110977000Y-84284000D01*
G75*
G02*
X110777000Y-84084000I0J200000D01*
G01*
X110777000Y-83684000D01*
G75*
G02*
X110977000Y-83484000I200000J0D01*
G01*
G37*
G36*
G01*
X112374000Y-83484000D02*
X112924000Y-83484000D01*
G75*
G02*
X113124000Y-83684000I0J-200000D01*
G01*
X113124000Y-84084000D01*
G75*
G02*
X112924000Y-84284000I-200000J0D01*
G01*
X112374000Y-84284000D01*
G75*
G02*
X112174000Y-84084000I0J200000D01*
G01*
X112174000Y-83684000D01*
G75*
G02*
X112374000Y-83484000I200000J0D01*
G01*
G37*
G36*
G01*
X112374000Y-85134000D02*
X112924000Y-85134000D01*
G75*
G02*
X113124000Y-85334000I0J-200000D01*
G01*
X113124000Y-85734000D01*
G75*
G02*
X112924000Y-85934000I-200000J0D01*
G01*
X112374000Y-85934000D01*
G75*
G02*
X112174000Y-85734000I0J200000D01*
G01*
X112174000Y-85334000D01*
G75*
G02*
X112374000Y-85134000I200000J0D01*
G01*
G37*
D56*
X97058500Y-90487500D03*
X97058500Y-89217500D03*
X97058500Y-87947500D03*
X97058500Y-86677500D03*
X89758500Y-86677500D03*
X89758500Y-87947500D03*
X89758500Y-89217500D03*
X89758500Y-90487500D03*
D57*
X116268500Y-50419000D03*
D58*
X116268500Y-50419000D03*
G36*
G01*
X118099000Y-55293499D02*
X118099000Y-56593501D01*
G75*
G02*
X117849001Y-56843500I-249999J0D01*
G01*
X117198999Y-56843500D01*
G75*
G02*
X116949000Y-56593501I0J249999D01*
G01*
X116949000Y-55293499D01*
G75*
G02*
X117198999Y-55043500I249999J0D01*
G01*
X117849001Y-55043500D01*
G75*
G02*
X118099000Y-55293499I0J-249999D01*
G01*
G37*
G36*
G01*
X121049000Y-55293499D02*
X121049000Y-56593501D01*
G75*
G02*
X120799001Y-56843500I-249999J0D01*
G01*
X120148999Y-56843500D01*
G75*
G02*
X119899000Y-56593501I0J249999D01*
G01*
X119899000Y-55293499D01*
G75*
G02*
X120148999Y-55043500I249999J0D01*
G01*
X120799001Y-55043500D01*
G75*
G02*
X121049000Y-55293499I0J-249999D01*
G01*
G37*
G36*
G01*
X116631500Y-67833001D02*
X116631500Y-66532999D01*
G75*
G02*
X116881499Y-66283000I249999J0D01*
G01*
X117531501Y-66283000D01*
G75*
G02*
X117781500Y-66532999I0J-249999D01*
G01*
X117781500Y-67833001D01*
G75*
G02*
X117531501Y-68083000I-249999J0D01*
G01*
X116881499Y-68083000D01*
G75*
G02*
X116631500Y-67833001I0J249999D01*
G01*
G37*
G36*
G01*
X119581500Y-67833001D02*
X119581500Y-66532999D01*
G75*
G02*
X119831499Y-66283000I249999J0D01*
G01*
X120481501Y-66283000D01*
G75*
G02*
X120731500Y-66532999I0J-249999D01*
G01*
X120731500Y-67833001D01*
G75*
G02*
X120481501Y-68083000I-249999J0D01*
G01*
X119831499Y-68083000D01*
G75*
G02*
X119581500Y-67833001I0J249999D01*
G01*
G37*
M02*
