M48
; DRILL file {KiCad (5.1.9)-1} date 07/06/21 15:29:16
; FORMAT={-:-/ absolute / inch / decimal}
; #@! TF.CreationDate,2021-07-06T15:29:16+07:00
; #@! TF.GenerationSoftware,Kicad,Pcbnew,(5.1.9)-1
; #@! TF.FileFunction,Plated,1,2,PTH
FMAT,2
INCH
T1C0.0079
T2C0.0118
T3C0.0157
T4C0.0276
T5C0.0354
T6C0.0394
%
G90
G05
T1
X3.1643Y-3.7075
X3.1643Y-3.7537
X3.1643Y-3.8
X3.1643Y-3.8463
X3.1643Y-3.8925
X3.2036Y-3.7075
X3.2036Y-3.7537
X3.2036Y-3.8
X3.2036Y-3.8463
X3.2036Y-3.8925
X3.243Y-3.7075
X3.243Y-3.7537
X3.243Y-3.8
X3.243Y-3.8463
X3.243Y-3.8925
X3.2824Y-3.7075
X3.2824Y-3.7537
X3.2824Y-3.8
X3.2824Y-3.8463
X3.2824Y-3.8925
X3.3217Y-3.7075
X3.3217Y-3.7537
X3.3217Y-3.8
X3.3217Y-3.8463
X3.3217Y-3.8925
T2
X2.4525Y-3.198
X2.4525Y-3.45
X2.4525Y-3.7019
X2.4525Y-3.9539
X2.4525Y-4.2059
X2.4525Y-4.4579
X2.4525Y-4.7098
X2.5785Y-3.324
X2.5785Y-3.576
X2.5785Y-3.8279
X2.5785Y-4.0799
X2.5785Y-4.3319
X2.631Y-3.505
X2.6415Y-4.6153
X2.67Y-4.115
X2.6725Y-3.8575
X2.68Y-3.78
X2.7044Y-3.198
X2.7044Y-3.7019
X2.7674Y-4.7413
X2.8275Y-3.9275
X2.8304Y-4.0484
X2.845Y-4.14
X2.8619Y-3.2925
X2.8775Y-3.73
X2.8934Y-4.3634
X2.8934Y-4.6153
X2.9Y-4.05
X2.9Y-4.11
X2.9195Y-3.7705
X2.9564Y-3.6075
X3.0Y-4.46
X3.0175Y-3.9675
X3.0194Y-3.198
X3.0194Y-4.7413
X3.04Y-4.23
X3.04Y-4.33
X3.0509Y-3.4185
X3.0509Y-4.4579
X3.06Y-4.39
X3.07Y-3.48
X3.0824Y-3.9539
X3.0825Y-3.6375
X3.1075Y-3.9975
X3.1139Y-4.2059
X3.15Y-3.45
X3.1769Y-3.2925
X3.1769Y-4.6468
X3.195Y-4.25
X3.2225Y-3.6075
X3.245Y-4.2
X3.32Y-3.6
X3.3344Y-3.198
X3.3344Y-4.2374
X3.3344Y-4.7413
X3.3659Y-4.4579
X3.39Y-3.49
X3.39Y-3.595
X3.3974Y-3.9539
X3.4289Y-3.3555
X3.45Y-3.759
X3.45Y-3.84
X3.45Y-4.285
X3.4604Y-4.6153
X3.4685Y-4.0435
X3.4918Y-3.7964
X3.4918Y-4.1114
X3.5548Y-3.2295
X3.5548Y-3.4815
X3.56Y-3.95
X3.5863Y-4.4264
X3.5863Y-4.7413
X3.59Y-3.9925
X3.5975Y-4.17
X3.6025Y-3.73
X3.62Y-3.95
X3.64Y-4.24
X3.6493Y-4.0169
X3.666Y-3.841
X3.6808Y-3.3555
X3.7123Y-3.576
X3.7175Y-3.8
X3.7438Y-4.6468
X3.7675Y-3.755
X3.7753Y-3.198
X3.784Y-3.836
X3.787Y-3.727
X3.83Y-4.23
X3.8383Y-3.45
X3.8383Y-3.7964
X3.9013Y-4.4893
X3.9013Y-4.7413
X3.9328Y-3.2925
X3.9328Y-3.6075
X3.9328Y-3.9539
X3.9958Y-4.1429
X4.0588Y-3.4185
X4.0903Y-3.198
X4.0903Y-3.7019
X4.0903Y-4.6783
X4.1225Y-4.0
X4.1848Y-3.5445
X4.19Y-4.0
X4.2163Y-3.324
X4.2478Y-3.7964
X4.26Y-4.0
X4.2793Y-4.5523
X4.3107Y-4.2059
X4.3422Y-3.198
X4.3422Y-3.45
X4.3422Y-4.7413
X4.3737Y-3.6704
X4.4052Y-3.8909
X4.4052Y-4.3634
X4.42Y-4.2725
X4.4682Y-3.324
X4.4997Y-3.5445
X4.4997Y-4.5208
X4.5312Y-3.7649
X4.5312Y-4.2374
X4.5942Y-3.198
X4.5942Y-4.0169
X4.6257Y-3.4185
X4.6257Y-4.3949
X4.6572Y-3.639
X4.6887Y-4.5838
X4.7517Y-3.2925
X4.7517Y-3.7964
X4.7517Y-4.2059
X4.8147Y-4.4579
X4.8462Y-3.45
X4.8462Y-3.9539
X4.9092Y-3.198
X4.9092Y-4.3004
X4.9407Y-4.5838
X4.9722Y-3.576
X4.9722Y-3.8279
X4.9722Y-4.0799
X5.0037Y-3.3555
X5.0352Y-4.4264
X5.0352Y-4.7413
T3
X2.725Y-4.15
X2.755Y-3.655
X2.76Y-4.2775
X2.76Y-4.36
X2.795Y-4.15
X2.8325Y-4.22
X2.84Y-4.35
X2.87Y-4.445
X2.92Y-3.945
X2.94Y-3.4675
X2.955Y-3.77
X2.98Y-3.945
X3.0Y-4.01
X3.019Y-3.758
X3.041Y-3.787
X3.07Y-4.15
X3.08Y-3.6
X3.11Y-3.55
X3.115Y-4.275
X3.12Y-3.59
X3.21Y-3.4475
X3.24Y-4.35
X3.24Y-4.44
X3.25Y-3.4275
X3.265Y-4.05
X3.31Y-4.1475
X3.315Y-3.425
X3.37Y-4.15
X3.39Y-3.55
X3.43Y-3.63
X3.45Y-4.17
X3.45Y-4.23
X3.455Y-3.665
X3.535Y-4.37
X3.5375Y-4.0425
X3.5625Y-3.79
X3.655Y-4.4675
X3.6975Y-3.93
X3.7Y-3.647
X3.76Y-4.47
X3.89Y-4.3275
X3.895Y-4.1025
X3.9025Y-4.1375
X3.91Y-4.025
X4.0075Y-4.2075
X4.0075Y-4.4325
X4.0675Y-4.235
X4.07Y-4.3575
X4.07Y-4.565
X4.195Y-4.2925
X4.195Y-4.37
X4.38Y-3.94
X4.38Y-4.055
X4.525Y-4.055
X4.525Y-4.1125
X4.525Y-4.17
T4
X2.7Y-4.58
X2.7315Y-4.5111
X2.763Y-4.58
X2.7945Y-4.5111
X2.826Y-4.58
X3.18Y-4.58
X3.2115Y-4.5111
X3.243Y-4.58
X3.2745Y-4.5111
X3.306Y-4.58
T5
X4.725Y-3.35
X4.725Y-3.525
X4.725Y-3.7
X4.725Y-3.875
X4.725Y-4.05
X4.825Y-3.35
X4.825Y-3.525
X4.825Y-3.7
X4.825Y-3.875
X4.825Y-4.05
T6
X2.5925Y-3.3975
X2.6925Y-3.3975
X3.565Y-4.51
X3.565Y-4.61
X4.0Y-3.8475
X4.1Y-3.8475
X4.2Y-3.8475
X4.3Y-3.8475
T4
G00X2.6193Y-4.52
M15
G01X2.6193Y-4.5711
M16
G05
G00X2.9067Y-4.52
M15
G01X2.9067Y-4.5711
M16
G05
G00X3.0993Y-4.52
M15
G01X3.0993Y-4.5711
M16
G05
G00X3.3867Y-4.52
M15
G01X3.3867Y-4.5711
M16
G05
T0
M30
