%TF.GenerationSoftware,KiCad,Pcbnew,(5.1.9)-1*%
%TF.CreationDate,2021-07-06T15:29:22+07:00*%
%TF.ProjectId,UP_BOARD,55505f42-4f41-4524-942e-6b696361645f,rev?*%
%TF.SameCoordinates,Original*%
%TF.FileFunction,Legend,Bot*%
%TF.FilePolarity,Positive*%
%FSLAX46Y46*%
G04 Gerber Fmt 4.6, Leading zero omitted, Abs format (unit mm)*
G04 Created by KiCad (PCBNEW (5.1.9)-1) date 2021-07-06 15:29:22*
%MOMM*%
%LPD*%
G01*
G04 APERTURE LIST*
%ADD10C,0.150000*%
%ADD11C,0.120000*%
%ADD12C,0.127000*%
G04 APERTURE END LIST*
D10*
X95186500Y-106045000D02*
G75*
G03*
X95186500Y-106045000I-190500J0D01*
G01*
X77660500Y-108521500D02*
G75*
G03*
X77660500Y-108521500I-190500J0D01*
G01*
X84455000Y-113093500D02*
G75*
G03*
X84455000Y-113093500I-190500J0D01*
G01*
X71755000Y-113093500D02*
G75*
G03*
X71755000Y-113093500I-190500J0D01*
G01*
X66611500Y-93472000D02*
G75*
G03*
X66611500Y-93472000I-190500J0D01*
G01*
X93218000Y-94043500D02*
G75*
G03*
X93218000Y-94043500I-190500J0D01*
G01*
X91821000Y-112395000D02*
G75*
G03*
X91821000Y-112395000I-190500J0D01*
G01*
X77533500Y-99949000D02*
G75*
G03*
X77533500Y-99949000I-190500J0D01*
G01*
X77025500Y-115252500D02*
X74676000Y-115252500D01*
X77025500Y-109283500D02*
X77025500Y-115252500D01*
X63817500Y-108712000D02*
X63817500Y-106299000D01*
X73596500Y-108712000D02*
X63817500Y-108712000D01*
X74612500Y-96075500D02*
X72961500Y-95631000D01*
D11*
%TO.C,C1*%
X75297420Y-112016000D02*
X75578580Y-112016000D01*
X75297420Y-110996000D02*
X75578580Y-110996000D01*
%TO.C,C2*%
X75297420Y-110492000D02*
X75578580Y-110492000D01*
X75297420Y-109472000D02*
X75578580Y-109472000D01*
%TO.C,C3*%
X80012000Y-103491420D02*
X80012000Y-103772580D01*
X78992000Y-103491420D02*
X78992000Y-103772580D01*
%TO.C,C4*%
X80520000Y-89548580D02*
X80520000Y-89267420D01*
X79500000Y-89548580D02*
X79500000Y-89267420D01*
%TO.C,C5*%
X75070580Y-94232000D02*
X74789420Y-94232000D01*
X75070580Y-95252000D02*
X74789420Y-95252000D01*
%TO.C,C6*%
X85600000Y-89548580D02*
X85600000Y-89267420D01*
X84580000Y-89548580D02*
X84580000Y-89267420D01*
%TO.C,C8*%
X73408000Y-107047420D02*
X73408000Y-107328580D01*
X72388000Y-107047420D02*
X72388000Y-107328580D01*
%TO.C,C7*%
X77468000Y-103491420D02*
X77468000Y-103772580D01*
X78488000Y-103491420D02*
X78488000Y-103772580D01*
%TO.C,C10*%
X75578580Y-104904000D02*
X75297420Y-104904000D01*
X75578580Y-103884000D02*
X75297420Y-103884000D01*
%TO.C,C12*%
X75578580Y-103380000D02*
X75297420Y-103380000D01*
X75578580Y-102360000D02*
X75297420Y-102360000D01*
%TO.C,C11*%
X75070580Y-99697000D02*
X74789420Y-99697000D01*
X75070580Y-98677000D02*
X74789420Y-98677000D01*
%TO.C,C13*%
X85088000Y-103491420D02*
X85088000Y-103772580D01*
X86108000Y-103491420D02*
X86108000Y-103772580D01*
%TO.C,C14*%
X75070580Y-97411000D02*
X74789420Y-97411000D01*
X75070580Y-96391000D02*
X74789420Y-96391000D01*
%TO.C,C15*%
X89521420Y-94232000D02*
X89802580Y-94232000D01*
X89521420Y-95252000D02*
X89802580Y-95252000D01*
%TO.C,C16*%
X69709420Y-102618000D02*
X69990580Y-102618000D01*
X69709420Y-101598000D02*
X69990580Y-101598000D01*
%TO.C,C17*%
X69990580Y-95502000D02*
X69709420Y-95502000D01*
X69990580Y-96522000D02*
X69709420Y-96522000D01*
%TO.C,C18*%
X89521420Y-98804000D02*
X89802580Y-98804000D01*
X89521420Y-99824000D02*
X89802580Y-99824000D01*
%TO.C,L1*%
X72338000Y-111143622D02*
X72338000Y-110344378D01*
X73458000Y-111143622D02*
X73458000Y-110344378D01*
%TO.C,R2*%
X112856242Y-105395500D02*
X113330758Y-105395500D01*
X112856242Y-106440500D02*
X113330758Y-106440500D01*
%TO.C,R8*%
X70470500Y-106950742D02*
X70470500Y-107425258D01*
X71515500Y-106950742D02*
X71515500Y-107425258D01*
%TO.C,R9*%
X69737500Y-106950742D02*
X69737500Y-107425258D01*
X68692500Y-106950742D02*
X68692500Y-107425258D01*
%TO.C,R11*%
X89899258Y-98312500D02*
X89424742Y-98312500D01*
X89899258Y-97267500D02*
X89424742Y-97267500D01*
%TO.C,R12*%
X71867500Y-98281258D02*
X71867500Y-97806742D01*
X72912500Y-98281258D02*
X72912500Y-97806742D01*
%TO.C,R13*%
X84596500Y-103869258D02*
X84596500Y-103394742D01*
X83551500Y-103869258D02*
X83551500Y-103394742D01*
%TO.C,R14*%
X95995258Y-93169000D02*
X95520742Y-93169000D01*
X95995258Y-92124000D02*
X95520742Y-92124000D01*
%TO.C,U1*%
X77048000Y-106288000D02*
X77048000Y-108738000D01*
X73828000Y-108088000D02*
X73828000Y-106288000D01*
%TO.C,U2*%
X71714000Y-109844000D02*
X71714000Y-112294000D01*
X68494000Y-111644000D02*
X68494000Y-109844000D01*
%TO.C,U3*%
X70866000Y-93492000D02*
X67416000Y-93492000D01*
X70866000Y-93492000D02*
X72816000Y-93492000D01*
X70866000Y-88372000D02*
X68916000Y-88372000D01*
X70866000Y-88372000D02*
X72816000Y-88372000D01*
%TO.C,U4*%
X78737200Y-100630000D02*
X78262200Y-100630000D01*
X86482200Y-92410000D02*
X86482200Y-92885000D01*
X86007200Y-92410000D02*
X86482200Y-92410000D01*
X78262200Y-92410000D02*
X78262200Y-92885000D01*
X78737200Y-92410000D02*
X78262200Y-92410000D01*
X86482200Y-100630000D02*
X86482200Y-100155000D01*
X86007200Y-100630000D02*
X86482200Y-100630000D01*
%TO.C,Y1*%
X68200000Y-101060000D02*
X68200000Y-97060000D01*
X71500000Y-101060000D02*
X68200000Y-101060000D01*
%TO.C,C19*%
X88136000Y-106539420D02*
X88136000Y-106820580D01*
X89156000Y-106539420D02*
X89156000Y-106820580D01*
%TO.C,C20*%
X89660000Y-106539420D02*
X89660000Y-106820580D01*
X90680000Y-106539420D02*
X90680000Y-106820580D01*
%TO.C,C21*%
X87568500Y-103772580D02*
X87568500Y-103491420D01*
X86548500Y-103772580D02*
X86548500Y-103491420D01*
%TO.C,C22*%
X113234080Y-107888500D02*
X112952920Y-107888500D01*
X113234080Y-106868500D02*
X112952920Y-106868500D01*
%TO.C,C23*%
X89267420Y-108329000D02*
X89548580Y-108329000D01*
X89267420Y-109349000D02*
X89548580Y-109349000D01*
%TO.C,Q3*%
X96966000Y-105554000D02*
X95066000Y-105554000D01*
X95566000Y-103234000D02*
X96966000Y-103234000D01*
%TO.C,R1*%
X81011500Y-89170742D02*
X81011500Y-89645258D01*
X82056500Y-89170742D02*
X82056500Y-89645258D01*
%TO.C,R17*%
X93201258Y-104154500D02*
X92726742Y-104154500D01*
X93201258Y-103109500D02*
X92726742Y-103109500D01*
%TO.C,R18*%
X93201258Y-104633500D02*
X92726742Y-104633500D01*
X93201258Y-105678500D02*
X92726742Y-105678500D01*
%TO.C,R19*%
X112856242Y-103519500D02*
X113330758Y-103519500D01*
X112856242Y-102474500D02*
X113330758Y-102474500D01*
%TO.C,R20*%
X95772500Y-115078742D02*
X95772500Y-115553258D01*
X94727500Y-115078742D02*
X94727500Y-115553258D01*
%TO.C,R21*%
X93203500Y-115078742D02*
X93203500Y-115553258D01*
X94248500Y-115078742D02*
X94248500Y-115553258D01*
%TO.C,U5*%
X80686000Y-111644000D02*
X80686000Y-109844000D01*
X83906000Y-109844000D02*
X83906000Y-112294000D01*
%TO.C,U6*%
X96627000Y-112465000D02*
X97352000Y-112465000D01*
X97352000Y-112465000D02*
X97352000Y-111740000D01*
X92857000Y-107245000D02*
X92132000Y-107245000D01*
X92132000Y-107245000D02*
X92132000Y-107970000D01*
X96627000Y-107245000D02*
X97352000Y-107245000D01*
X97352000Y-107245000D02*
X97352000Y-107970000D01*
X92857000Y-112465000D02*
X92132000Y-112465000D01*
D12*
%TO.C,J2*%
X108159020Y-116622660D02*
X108159020Y-118422660D01*
X104759020Y-116622660D02*
X104759020Y-118422660D01*
X108156480Y-103841720D02*
X108156480Y-102041720D01*
X104756480Y-103841720D02*
X104756480Y-102041720D01*
X108159020Y-118422660D02*
X104759020Y-118422660D01*
X104756480Y-102041720D02*
X108156480Y-102041720D01*
D11*
X109415326Y-104399080D02*
G75*
G03*
X109415326Y-104399080I-215646J0D01*
G01*
%TO.C,C24*%
X91438000Y-98692580D02*
X91438000Y-98411420D01*
X92458000Y-98692580D02*
X92458000Y-98411420D01*
%TO.C,L2*%
X78561000Y-111143622D02*
X78561000Y-110344378D01*
X79681000Y-111143622D02*
X79681000Y-110344378D01*
%TO.C,R3*%
X113330758Y-104980000D02*
X112856242Y-104980000D01*
X113330758Y-103935000D02*
X112856242Y-103935000D01*
%TO.C,RN2*%
X74070000Y-85733000D02*
X74070000Y-86733000D01*
X70710000Y-85733000D02*
X70710000Y-86733000D01*
%TO.C,U7*%
X93578500Y-96985000D02*
X93578500Y-93985000D01*
X95778500Y-96985000D02*
X95778500Y-94785000D01*
%TO.C,R4*%
X112856242Y-99553500D02*
X113330758Y-99553500D01*
X112856242Y-100598500D02*
X113330758Y-100598500D01*
%TO.C,R5*%
X112856242Y-102059000D02*
X113330758Y-102059000D01*
X112856242Y-101014000D02*
X113330758Y-101014000D01*
%TD*%
M02*
