%TF.GenerationSoftware,KiCad,Pcbnew,(5.1.9)-1*%
%TF.CreationDate,2021-07-06T15:29:22+07:00*%
%TF.ProjectId,UP_BOARD,55505f42-4f41-4524-942e-6b696361645f,rev?*%
%TF.SameCoordinates,Original*%
%TF.FileFunction,Legend,Top*%
%TF.FilePolarity,Positive*%
%FSLAX46Y46*%
G04 Gerber Fmt 4.6, Leading zero omitted, Abs format (unit mm)*
G04 Created by KiCad (PCBNEW (5.1.9)-1) date 2021-07-06 15:29:22*
%MOMM*%
%LPD*%
G01*
G04 APERTURE LIST*
%ADD10C,0.150000*%
%ADD11C,0.250000*%
%ADD12C,0.200000*%
%ADD13C,0.300000*%
%ADD14C,0.500000*%
%ADD15C,0.120000*%
%ADD16C,0.010000*%
G04 APERTURE END LIST*
D10*
X91881000Y-113224000D02*
X91881000Y-118427500D01*
X89221000Y-115824000D02*
X95885000Y-115824000D01*
X89217500Y-118427500D02*
X89217500Y-113220500D01*
X95948500Y-118427500D02*
X89217500Y-118427500D01*
X95948500Y-113224000D02*
X95948500Y-118427500D01*
X89221000Y-113224000D02*
X95948500Y-113224000D01*
X107950000Y-99060000D02*
X107950000Y-90551000D01*
X105410000Y-99060000D02*
X105410000Y-90551000D01*
X102806500Y-99060000D02*
X102806500Y-90551000D01*
X110553500Y-96329500D02*
X100266500Y-96329500D01*
X100266500Y-90551000D02*
X100270000Y-99056500D01*
X110617000Y-90551000D02*
X100266500Y-90551000D01*
X110553500Y-99060000D02*
X110617000Y-90551000D01*
X100270000Y-99056500D02*
X110553500Y-99060000D01*
D11*
X63230642Y-89110357D02*
X63730642Y-89110357D01*
X63944928Y-89896071D02*
X63230642Y-89896071D01*
X63230642Y-88396071D01*
X63944928Y-88396071D01*
X64587785Y-89110357D02*
X65087785Y-89110357D01*
X65302071Y-89896071D02*
X64587785Y-89896071D01*
X64587785Y-88396071D01*
X65302071Y-88396071D01*
X65944928Y-89896071D02*
X65944928Y-88396071D01*
X66516357Y-88396071D01*
X66659214Y-88467500D01*
X66730642Y-88538928D01*
X66802071Y-88681785D01*
X66802071Y-88896071D01*
X66730642Y-89038928D01*
X66659214Y-89110357D01*
X66516357Y-89181785D01*
X65944928Y-89181785D01*
X68302071Y-89896071D02*
X67802071Y-89181785D01*
X67444928Y-89896071D02*
X67444928Y-88396071D01*
X68016357Y-88396071D01*
X68159214Y-88467500D01*
X68230642Y-88538928D01*
X68302071Y-88681785D01*
X68302071Y-88896071D01*
X68230642Y-89038928D01*
X68159214Y-89110357D01*
X68016357Y-89181785D01*
X67444928Y-89181785D01*
X69230642Y-88396071D02*
X69516357Y-88396071D01*
X69659214Y-88467500D01*
X69802071Y-88610357D01*
X69873500Y-88896071D01*
X69873500Y-89396071D01*
X69802071Y-89681785D01*
X69659214Y-89824642D01*
X69516357Y-89896071D01*
X69230642Y-89896071D01*
X69087785Y-89824642D01*
X68944928Y-89681785D01*
X68873500Y-89396071D01*
X68873500Y-88896071D01*
X68944928Y-88610357D01*
X69087785Y-88467500D01*
X69230642Y-88396071D01*
X70516357Y-89896071D02*
X70516357Y-88396071D01*
X71016357Y-89467500D01*
X71516357Y-88396071D01*
X71516357Y-89896071D01*
X79145214Y-110827357D02*
X79645214Y-110827357D01*
X79859500Y-111613071D02*
X79145214Y-111613071D01*
X79145214Y-110113071D01*
X79859500Y-110113071D01*
X80430928Y-111541642D02*
X80645214Y-111613071D01*
X81002357Y-111613071D01*
X81145214Y-111541642D01*
X81216642Y-111470214D01*
X81288071Y-111327357D01*
X81288071Y-111184500D01*
X81216642Y-111041642D01*
X81145214Y-110970214D01*
X81002357Y-110898785D01*
X80716642Y-110827357D01*
X80573785Y-110755928D01*
X80502357Y-110684500D01*
X80430928Y-110541642D01*
X80430928Y-110398785D01*
X80502357Y-110255928D01*
X80573785Y-110184500D01*
X80716642Y-110113071D01*
X81073785Y-110113071D01*
X81288071Y-110184500D01*
X81930928Y-111613071D02*
X81930928Y-110113071D01*
X82502357Y-110113071D01*
X82645214Y-110184500D01*
X82716642Y-110255928D01*
X82788071Y-110398785D01*
X82788071Y-110613071D01*
X82716642Y-110755928D01*
X82645214Y-110827357D01*
X82502357Y-110898785D01*
X81930928Y-110898785D01*
X83288071Y-110113071D02*
X84216642Y-110113071D01*
X83716642Y-110684500D01*
X83930928Y-110684500D01*
X84073785Y-110755928D01*
X84145214Y-110827357D01*
X84216642Y-110970214D01*
X84216642Y-111327357D01*
X84145214Y-111470214D01*
X84073785Y-111541642D01*
X83930928Y-111613071D01*
X83502357Y-111613071D01*
X83359500Y-111541642D01*
X83288071Y-111470214D01*
X84788071Y-110255928D02*
X84859500Y-110184500D01*
X85002357Y-110113071D01*
X85359500Y-110113071D01*
X85502357Y-110184500D01*
X85573785Y-110255928D01*
X85645214Y-110398785D01*
X85645214Y-110541642D01*
X85573785Y-110755928D01*
X84716642Y-111613071D01*
X85645214Y-111613071D01*
X104060857Y-107866571D02*
X104060857Y-106366571D01*
X104418000Y-106366571D01*
X104632285Y-106438000D01*
X104775142Y-106580857D01*
X104846571Y-106723714D01*
X104918000Y-107009428D01*
X104918000Y-107223714D01*
X104846571Y-107509428D01*
X104775142Y-107652285D01*
X104632285Y-107795142D01*
X104418000Y-107866571D01*
X104060857Y-107866571D01*
X105489428Y-107795142D02*
X105703714Y-107866571D01*
X106060857Y-107866571D01*
X106203714Y-107795142D01*
X106275142Y-107723714D01*
X106346571Y-107580857D01*
X106346571Y-107438000D01*
X106275142Y-107295142D01*
X106203714Y-107223714D01*
X106060857Y-107152285D01*
X105775142Y-107080857D01*
X105632285Y-107009428D01*
X105560857Y-106938000D01*
X105489428Y-106795142D01*
X105489428Y-106652285D01*
X105560857Y-106509428D01*
X105632285Y-106438000D01*
X105775142Y-106366571D01*
X106132285Y-106366571D01*
X106346571Y-106438000D01*
X106989428Y-107866571D02*
X106989428Y-106366571D01*
X107560857Y-106366571D01*
X107703714Y-106438000D01*
X107775142Y-106509428D01*
X107846571Y-106652285D01*
X107846571Y-106866571D01*
X107775142Y-107009428D01*
X107703714Y-107080857D01*
X107560857Y-107152285D01*
X106989428Y-107152285D01*
D12*
X78384571Y-89451571D02*
X78384571Y-87951571D01*
X79027428Y-89451571D02*
X79027428Y-88665857D01*
X78956000Y-88523000D01*
X78813142Y-88451571D01*
X78598857Y-88451571D01*
X78456000Y-88523000D01*
X78384571Y-88594428D01*
X79527428Y-88451571D02*
X80098857Y-88451571D01*
X79741714Y-87951571D02*
X79741714Y-89237285D01*
X79813142Y-89380142D01*
X79956000Y-89451571D01*
X80098857Y-89451571D01*
X80384571Y-88451571D02*
X80956000Y-88451571D01*
X80598857Y-87951571D02*
X80598857Y-89237285D01*
X80670285Y-89380142D01*
X80813142Y-89451571D01*
X80956000Y-89451571D01*
X81456000Y-88451571D02*
X81456000Y-89951571D01*
X81456000Y-88523000D02*
X81598857Y-88451571D01*
X81884571Y-88451571D01*
X82027428Y-88523000D01*
X82098857Y-88594428D01*
X82170285Y-88737285D01*
X82170285Y-89165857D01*
X82098857Y-89308714D01*
X82027428Y-89380142D01*
X81884571Y-89451571D01*
X81598857Y-89451571D01*
X81456000Y-89380142D01*
X82741714Y-89380142D02*
X82884571Y-89451571D01*
X83170285Y-89451571D01*
X83313142Y-89380142D01*
X83384571Y-89237285D01*
X83384571Y-89165857D01*
X83313142Y-89023000D01*
X83170285Y-88951571D01*
X82956000Y-88951571D01*
X82813142Y-88880142D01*
X82741714Y-88737285D01*
X82741714Y-88665857D01*
X82813142Y-88523000D01*
X82956000Y-88451571D01*
X83170285Y-88451571D01*
X83313142Y-88523000D01*
X84027428Y-89308714D02*
X84098857Y-89380142D01*
X84027428Y-89451571D01*
X83956000Y-89380142D01*
X84027428Y-89308714D01*
X84027428Y-89451571D01*
X84027428Y-88523000D02*
X84098857Y-88594428D01*
X84027428Y-88665857D01*
X83956000Y-88594428D01*
X84027428Y-88523000D01*
X84027428Y-88665857D01*
X85813142Y-87880142D02*
X84527428Y-89808714D01*
X87384571Y-87880142D02*
X86098857Y-89808714D01*
X87884571Y-89451571D02*
X87884571Y-87951571D01*
X87884571Y-88523000D02*
X88027428Y-88451571D01*
X88313142Y-88451571D01*
X88456000Y-88523000D01*
X88527428Y-88594428D01*
X88598857Y-88737285D01*
X88598857Y-89165857D01*
X88527428Y-89308714D01*
X88456000Y-89380142D01*
X88313142Y-89451571D01*
X88027428Y-89451571D01*
X87884571Y-89380142D01*
X89456000Y-89451571D02*
X89313142Y-89380142D01*
X89241714Y-89237285D01*
X89241714Y-87951571D01*
X90241714Y-89451571D02*
X90098857Y-89380142D01*
X90027428Y-89308714D01*
X89956000Y-89165857D01*
X89956000Y-88737285D01*
X90027428Y-88594428D01*
X90098857Y-88523000D01*
X90241714Y-88451571D01*
X90456000Y-88451571D01*
X90598857Y-88523000D01*
X90670285Y-88594428D01*
X90741714Y-88737285D01*
X90741714Y-89165857D01*
X90670285Y-89308714D01*
X90598857Y-89380142D01*
X90456000Y-89451571D01*
X90241714Y-89451571D01*
X92027428Y-88451571D02*
X92027428Y-89665857D01*
X91956000Y-89808714D01*
X91884571Y-89880142D01*
X91741714Y-89951571D01*
X91527428Y-89951571D01*
X91384571Y-89880142D01*
X92027428Y-89380142D02*
X91884571Y-89451571D01*
X91598857Y-89451571D01*
X91456000Y-89380142D01*
X91384571Y-89308714D01*
X91313142Y-89165857D01*
X91313142Y-88737285D01*
X91384571Y-88594428D01*
X91456000Y-88523000D01*
X91598857Y-88451571D01*
X91884571Y-88451571D01*
X92027428Y-88523000D01*
X92741714Y-89308714D02*
X92813142Y-89380142D01*
X92741714Y-89451571D01*
X92670285Y-89380142D01*
X92741714Y-89308714D01*
X92741714Y-89451571D01*
X93456000Y-89451571D02*
X93456000Y-88451571D01*
X93456000Y-87951571D02*
X93384571Y-88023000D01*
X93456000Y-88094428D01*
X93527428Y-88023000D01*
X93456000Y-87951571D01*
X93456000Y-88094428D01*
X94170285Y-88451571D02*
X94170285Y-89451571D01*
X94170285Y-88594428D02*
X94241714Y-88523000D01*
X94384571Y-88451571D01*
X94598857Y-88451571D01*
X94741714Y-88523000D01*
X94813142Y-88665857D01*
X94813142Y-89451571D01*
X95456000Y-89380142D02*
X95598857Y-89451571D01*
X95884571Y-89451571D01*
X96027428Y-89380142D01*
X96098857Y-89237285D01*
X96098857Y-89165857D01*
X96027428Y-89023000D01*
X95884571Y-88951571D01*
X95670285Y-88951571D01*
X95527428Y-88880142D01*
X95456000Y-88737285D01*
X95456000Y-88665857D01*
X95527428Y-88523000D01*
X95670285Y-88451571D01*
X95884571Y-88451571D01*
X96027428Y-88523000D01*
X96527428Y-88451571D02*
X97098857Y-88451571D01*
X96741714Y-87951571D02*
X96741714Y-89237285D01*
X96813142Y-89380142D01*
X96956000Y-89451571D01*
X97098857Y-89451571D01*
X98241714Y-89451571D02*
X98241714Y-88665857D01*
X98170285Y-88523000D01*
X98027428Y-88451571D01*
X97741714Y-88451571D01*
X97598857Y-88523000D01*
X98241714Y-89380142D02*
X98098857Y-89451571D01*
X97741714Y-89451571D01*
X97598857Y-89380142D01*
X97527428Y-89237285D01*
X97527428Y-89094428D01*
X97598857Y-88951571D01*
X97741714Y-88880142D01*
X98098857Y-88880142D01*
X98241714Y-88808714D01*
X99170285Y-89451571D02*
X99027428Y-89380142D01*
X98956000Y-89237285D01*
X98956000Y-87951571D01*
X100384571Y-89451571D02*
X100384571Y-88665857D01*
X100313142Y-88523000D01*
X100170285Y-88451571D01*
X99884571Y-88451571D01*
X99741714Y-88523000D01*
X100384571Y-89380142D02*
X100241714Y-89451571D01*
X99884571Y-89451571D01*
X99741714Y-89380142D01*
X99670285Y-89237285D01*
X99670285Y-89094428D01*
X99741714Y-88951571D01*
X99884571Y-88880142D01*
X100241714Y-88880142D01*
X100384571Y-88808714D01*
X100884571Y-88451571D02*
X101456000Y-88451571D01*
X101098857Y-87951571D02*
X101098857Y-89237285D01*
X101170285Y-89380142D01*
X101313142Y-89451571D01*
X101456000Y-89451571D01*
X102170285Y-89451571D02*
X102027428Y-89380142D01*
X101956000Y-89308714D01*
X101884571Y-89165857D01*
X101884571Y-88737285D01*
X101956000Y-88594428D01*
X102027428Y-88523000D01*
X102170285Y-88451571D01*
X102384571Y-88451571D01*
X102527428Y-88523000D01*
X102598857Y-88594428D01*
X102670285Y-88737285D01*
X102670285Y-89165857D01*
X102598857Y-89308714D01*
X102527428Y-89380142D01*
X102384571Y-89451571D01*
X102170285Y-89451571D01*
X103313142Y-89451571D02*
X103313142Y-88451571D01*
X103313142Y-88737285D02*
X103384571Y-88594428D01*
X103456000Y-88523000D01*
X103598857Y-88451571D01*
X103741714Y-88451571D01*
X104241714Y-89308714D02*
X104313142Y-89380142D01*
X104241714Y-89451571D01*
X104170285Y-89380142D01*
X104241714Y-89308714D01*
X104241714Y-89451571D01*
X104956000Y-89451571D02*
X104956000Y-88451571D01*
X104956000Y-88737285D02*
X105027428Y-88594428D01*
X105098857Y-88523000D01*
X105241714Y-88451571D01*
X105384571Y-88451571D01*
X106527428Y-88451571D02*
X106527428Y-89451571D01*
X105884571Y-88451571D02*
X105884571Y-89237285D01*
X105956000Y-89380142D01*
X106098857Y-89451571D01*
X106313142Y-89451571D01*
X106456000Y-89380142D01*
X106527428Y-89308714D01*
D13*
X79392833Y-86820261D02*
X79392833Y-84820261D01*
X79392833Y-86725023D02*
X79202357Y-86820261D01*
X78821404Y-86820261D01*
X78630928Y-86725023D01*
X78535690Y-86629785D01*
X78440452Y-86439309D01*
X78440452Y-85867880D01*
X78535690Y-85677404D01*
X78630928Y-85582166D01*
X78821404Y-85486928D01*
X79202357Y-85486928D01*
X79392833Y-85582166D01*
X81107119Y-86725023D02*
X80916642Y-86820261D01*
X80535690Y-86820261D01*
X80345214Y-86725023D01*
X80249976Y-86534547D01*
X80249976Y-85772642D01*
X80345214Y-85582166D01*
X80535690Y-85486928D01*
X80916642Y-85486928D01*
X81107119Y-85582166D01*
X81202357Y-85772642D01*
X81202357Y-85963119D01*
X80249976Y-86153595D01*
X81964261Y-86725023D02*
X82154738Y-86820261D01*
X82535690Y-86820261D01*
X82726166Y-86725023D01*
X82821404Y-86534547D01*
X82821404Y-86439309D01*
X82726166Y-86248833D01*
X82535690Y-86153595D01*
X82249976Y-86153595D01*
X82059500Y-86058357D01*
X81964261Y-85867880D01*
X81964261Y-85772642D01*
X82059500Y-85582166D01*
X82249976Y-85486928D01*
X82535690Y-85486928D01*
X82726166Y-85582166D01*
X83678547Y-86820261D02*
X83678547Y-85486928D01*
X83678547Y-84820261D02*
X83583309Y-84915500D01*
X83678547Y-85010738D01*
X83773785Y-84915500D01*
X83678547Y-84820261D01*
X83678547Y-85010738D01*
X85488071Y-85486928D02*
X85488071Y-87105976D01*
X85392833Y-87296452D01*
X85297595Y-87391690D01*
X85107119Y-87486928D01*
X84821404Y-87486928D01*
X84630928Y-87391690D01*
X85488071Y-86725023D02*
X85297595Y-86820261D01*
X84916642Y-86820261D01*
X84726166Y-86725023D01*
X84630928Y-86629785D01*
X84535690Y-86439309D01*
X84535690Y-85867880D01*
X84630928Y-85677404D01*
X84726166Y-85582166D01*
X84916642Y-85486928D01*
X85297595Y-85486928D01*
X85488071Y-85582166D01*
X86440452Y-85486928D02*
X86440452Y-86820261D01*
X86440452Y-85677404D02*
X86535690Y-85582166D01*
X86726166Y-85486928D01*
X87011880Y-85486928D01*
X87202357Y-85582166D01*
X87297595Y-85772642D01*
X87297595Y-86820261D01*
X89011880Y-86725023D02*
X88821404Y-86820261D01*
X88440452Y-86820261D01*
X88249976Y-86725023D01*
X88154738Y-86534547D01*
X88154738Y-85772642D01*
X88249976Y-85582166D01*
X88440452Y-85486928D01*
X88821404Y-85486928D01*
X89011880Y-85582166D01*
X89107119Y-85772642D01*
X89107119Y-85963119D01*
X88154738Y-86153595D01*
X90821404Y-86820261D02*
X90821404Y-84820261D01*
X90821404Y-86725023D02*
X90630928Y-86820261D01*
X90249976Y-86820261D01*
X90059500Y-86725023D01*
X89964261Y-86629785D01*
X89869023Y-86439309D01*
X89869023Y-85867880D01*
X89964261Y-85677404D01*
X90059500Y-85582166D01*
X90249976Y-85486928D01*
X90630928Y-85486928D01*
X90821404Y-85582166D01*
X93297595Y-86820261D02*
X93297595Y-84820261D01*
X93297595Y-85582166D02*
X93488071Y-85486928D01*
X93869023Y-85486928D01*
X94059500Y-85582166D01*
X94154738Y-85677404D01*
X94249976Y-85867880D01*
X94249976Y-86439309D01*
X94154738Y-86629785D01*
X94059500Y-86725023D01*
X93869023Y-86820261D01*
X93488071Y-86820261D01*
X93297595Y-86725023D01*
X94916642Y-85486928D02*
X95392833Y-86820261D01*
X95869023Y-85486928D02*
X95392833Y-86820261D01*
X95202357Y-87296452D01*
X95107119Y-87391690D01*
X94916642Y-87486928D01*
X98154738Y-86820261D02*
X98154738Y-85486928D01*
X98154738Y-84820261D02*
X98059500Y-84915500D01*
X98154738Y-85010738D01*
X98249976Y-84915500D01*
X98154738Y-84820261D01*
X98154738Y-85010738D01*
X99107119Y-85486928D02*
X99107119Y-86820261D01*
X99107119Y-85677404D02*
X99202357Y-85582166D01*
X99392833Y-85486928D01*
X99678547Y-85486928D01*
X99869023Y-85582166D01*
X99964261Y-85772642D01*
X99964261Y-86820261D01*
X100821404Y-86725023D02*
X101011880Y-86820261D01*
X101392833Y-86820261D01*
X101583309Y-86725023D01*
X101678547Y-86534547D01*
X101678547Y-86439309D01*
X101583309Y-86248833D01*
X101392833Y-86153595D01*
X101107119Y-86153595D01*
X100916642Y-86058357D01*
X100821404Y-85867880D01*
X100821404Y-85772642D01*
X100916642Y-85582166D01*
X101107119Y-85486928D01*
X101392833Y-85486928D01*
X101583309Y-85582166D01*
X102249976Y-85486928D02*
X103011880Y-85486928D01*
X102535690Y-84820261D02*
X102535690Y-86534547D01*
X102630928Y-86725023D01*
X102821404Y-86820261D01*
X103011880Y-86820261D01*
X104535690Y-86820261D02*
X104535690Y-85772642D01*
X104440452Y-85582166D01*
X104249976Y-85486928D01*
X103869023Y-85486928D01*
X103678547Y-85582166D01*
X104535690Y-86725023D02*
X104345214Y-86820261D01*
X103869023Y-86820261D01*
X103678547Y-86725023D01*
X103583309Y-86534547D01*
X103583309Y-86344071D01*
X103678547Y-86153595D01*
X103869023Y-86058357D01*
X104345214Y-86058357D01*
X104535690Y-85963119D01*
X105773785Y-86820261D02*
X105583309Y-86725023D01*
X105488071Y-86534547D01*
X105488071Y-84820261D01*
X107392833Y-86820261D02*
X107392833Y-85772642D01*
X107297595Y-85582166D01*
X107107119Y-85486928D01*
X106726166Y-85486928D01*
X106535690Y-85582166D01*
X107392833Y-86725023D02*
X107202357Y-86820261D01*
X106726166Y-86820261D01*
X106535690Y-86725023D01*
X106440452Y-86534547D01*
X106440452Y-86344071D01*
X106535690Y-86153595D01*
X106726166Y-86058357D01*
X107202357Y-86058357D01*
X107392833Y-85963119D01*
X108059500Y-85486928D02*
X108821404Y-85486928D01*
X108345214Y-84820261D02*
X108345214Y-86534547D01*
X108440452Y-86725023D01*
X108630928Y-86820261D01*
X108821404Y-86820261D01*
X109773785Y-86820261D02*
X109583309Y-86725023D01*
X109488071Y-86629785D01*
X109392833Y-86439309D01*
X109392833Y-85867880D01*
X109488071Y-85677404D01*
X109583309Y-85582166D01*
X109773785Y-85486928D01*
X110059500Y-85486928D01*
X110249976Y-85582166D01*
X110345214Y-85677404D01*
X110440452Y-85867880D01*
X110440452Y-86439309D01*
X110345214Y-86629785D01*
X110249976Y-86725023D01*
X110059500Y-86820261D01*
X109773785Y-86820261D01*
X111297595Y-86820261D02*
X111297595Y-85486928D01*
X111297595Y-85867880D02*
X111392833Y-85677404D01*
X111488071Y-85582166D01*
X111678547Y-85486928D01*
X111869023Y-85486928D01*
D14*
X78504285Y-83807952D02*
X78504285Y-81307952D01*
X79099523Y-81307952D01*
X79456666Y-81427000D01*
X79694761Y-81665095D01*
X79813809Y-81903190D01*
X79932857Y-82379380D01*
X79932857Y-82736523D01*
X79813809Y-83212714D01*
X79694761Y-83450809D01*
X79456666Y-83688904D01*
X79099523Y-83807952D01*
X78504285Y-83807952D01*
X80885238Y-83688904D02*
X81242380Y-83807952D01*
X81837619Y-83807952D01*
X82075714Y-83688904D01*
X82194761Y-83569857D01*
X82313809Y-83331761D01*
X82313809Y-83093666D01*
X82194761Y-82855571D01*
X82075714Y-82736523D01*
X81837619Y-82617476D01*
X81361428Y-82498428D01*
X81123333Y-82379380D01*
X81004285Y-82260333D01*
X80885238Y-82022238D01*
X80885238Y-81784142D01*
X81004285Y-81546047D01*
X81123333Y-81427000D01*
X81361428Y-81307952D01*
X81956666Y-81307952D01*
X82313809Y-81427000D01*
X83385238Y-83807952D02*
X83385238Y-81307952D01*
X84337619Y-81307952D01*
X84575714Y-81427000D01*
X84694761Y-81546047D01*
X84813809Y-81784142D01*
X84813809Y-82141285D01*
X84694761Y-82379380D01*
X84575714Y-82498428D01*
X84337619Y-82617476D01*
X83385238Y-82617476D01*
X87670952Y-83093666D02*
X88861428Y-83093666D01*
X87432857Y-83807952D02*
X88266190Y-81307952D01*
X89099523Y-83807952D01*
X91004285Y-82141285D02*
X91004285Y-83807952D01*
X89932857Y-82141285D02*
X89932857Y-83450809D01*
X90051904Y-83688904D01*
X90290000Y-83807952D01*
X90647142Y-83807952D01*
X90885238Y-83688904D01*
X91004285Y-83569857D01*
X93266190Y-83807952D02*
X93266190Y-81307952D01*
X93266190Y-83688904D02*
X93028095Y-83807952D01*
X92551904Y-83807952D01*
X92313809Y-83688904D01*
X92194761Y-83569857D01*
X92075714Y-83331761D01*
X92075714Y-82617476D01*
X92194761Y-82379380D01*
X92313809Y-82260333D01*
X92551904Y-82141285D01*
X93028095Y-82141285D01*
X93266190Y-82260333D01*
X94456666Y-83807952D02*
X94456666Y-82141285D01*
X94456666Y-81307952D02*
X94337619Y-81427000D01*
X94456666Y-81546047D01*
X94575714Y-81427000D01*
X94456666Y-81307952D01*
X94456666Y-81546047D01*
X96004285Y-83807952D02*
X95766190Y-83688904D01*
X95647142Y-83569857D01*
X95528095Y-83331761D01*
X95528095Y-82617476D01*
X95647142Y-82379380D01*
X95766190Y-82260333D01*
X96004285Y-82141285D01*
X96361428Y-82141285D01*
X96599523Y-82260333D01*
X96718571Y-82379380D01*
X96837619Y-82617476D01*
X96837619Y-83331761D01*
X96718571Y-83569857D01*
X96599523Y-83688904D01*
X96361428Y-83807952D01*
X96004285Y-83807952D01*
X99813809Y-83807952D02*
X99813809Y-81307952D01*
X100766190Y-81307952D01*
X101004285Y-81427000D01*
X101123333Y-81546047D01*
X101242380Y-81784142D01*
X101242380Y-82141285D01*
X101123333Y-82379380D01*
X101004285Y-82498428D01*
X100766190Y-82617476D01*
X99813809Y-82617476D01*
X102313809Y-83807952D02*
X102313809Y-82141285D01*
X102313809Y-82617476D02*
X102432857Y-82379380D01*
X102551904Y-82260333D01*
X102789999Y-82141285D01*
X103028095Y-82141285D01*
X104218571Y-83807952D02*
X103980476Y-83688904D01*
X103861428Y-83569857D01*
X103742380Y-83331761D01*
X103742380Y-82617476D01*
X103861428Y-82379380D01*
X103980476Y-82260333D01*
X104218571Y-82141285D01*
X104575714Y-82141285D01*
X104813809Y-82260333D01*
X104932857Y-82379380D01*
X105051904Y-82617476D01*
X105051904Y-83331761D01*
X104932857Y-83569857D01*
X104813809Y-83688904D01*
X104575714Y-83807952D01*
X104218571Y-83807952D01*
X107194761Y-83688904D02*
X106956666Y-83807952D01*
X106480476Y-83807952D01*
X106242380Y-83688904D01*
X106123333Y-83569857D01*
X106004285Y-83331761D01*
X106004285Y-82617476D01*
X106123333Y-82379380D01*
X106242380Y-82260333D01*
X106480476Y-82141285D01*
X106956666Y-82141285D01*
X107194761Y-82260333D01*
X109218571Y-83688904D02*
X108980476Y-83807952D01*
X108504285Y-83807952D01*
X108266190Y-83688904D01*
X108147142Y-83450809D01*
X108147142Y-82498428D01*
X108266190Y-82260333D01*
X108504285Y-82141285D01*
X108980476Y-82141285D01*
X109218571Y-82260333D01*
X109337619Y-82498428D01*
X109337619Y-82736523D01*
X108147142Y-82974619D01*
X110289999Y-83688904D02*
X110528095Y-83807952D01*
X111004285Y-83807952D01*
X111242380Y-83688904D01*
X111361428Y-83450809D01*
X111361428Y-83331761D01*
X111242380Y-83093666D01*
X111004285Y-82974619D01*
X110647142Y-82974619D01*
X110409047Y-82855571D01*
X110289999Y-82617476D01*
X110289999Y-82498428D01*
X110409047Y-82260333D01*
X110647142Y-82141285D01*
X111004285Y-82141285D01*
X111242380Y-82260333D01*
X112313809Y-83688904D02*
X112551904Y-83807952D01*
X113028095Y-83807952D01*
X113266190Y-83688904D01*
X113385238Y-83450809D01*
X113385238Y-83331761D01*
X113266190Y-83093666D01*
X113028095Y-82974619D01*
X112670952Y-82974619D01*
X112432857Y-82855571D01*
X112313809Y-82617476D01*
X112313809Y-82498428D01*
X112432857Y-82260333D01*
X112670952Y-82141285D01*
X113028095Y-82141285D01*
X113266190Y-82260333D01*
X114813809Y-83807952D02*
X114575714Y-83688904D01*
X114456666Y-83569857D01*
X114337619Y-83331761D01*
X114337619Y-82617476D01*
X114456666Y-82379380D01*
X114575714Y-82260333D01*
X114813809Y-82141285D01*
X115170952Y-82141285D01*
X115409047Y-82260333D01*
X115528095Y-82379380D01*
X115647142Y-82617476D01*
X115647142Y-83331761D01*
X115528095Y-83569857D01*
X115409047Y-83688904D01*
X115170952Y-83807952D01*
X114813809Y-83807952D01*
X116718571Y-83807952D02*
X116718571Y-82141285D01*
X116718571Y-82617476D02*
X116837619Y-82379380D01*
X116956666Y-82260333D01*
X117194761Y-82141285D01*
X117432857Y-82141285D01*
D12*
X108633500Y-94487904D02*
X108571595Y-94583142D01*
X108571595Y-94726000D01*
X108633500Y-94868857D01*
X108757309Y-94964095D01*
X108881119Y-95011714D01*
X109128738Y-95059333D01*
X109314452Y-95059333D01*
X109562071Y-95011714D01*
X109685880Y-94964095D01*
X109809690Y-94868857D01*
X109871595Y-94726000D01*
X109871595Y-94630761D01*
X109809690Y-94487904D01*
X109747785Y-94440285D01*
X109314452Y-94440285D01*
X109314452Y-94630761D01*
X109871595Y-94011714D02*
X108571595Y-94011714D01*
X109871595Y-93440285D01*
X108571595Y-93440285D01*
X109871595Y-92964095D02*
X108571595Y-92964095D01*
X108571595Y-92726000D01*
X108633500Y-92583142D01*
X108757309Y-92487904D01*
X108881119Y-92440285D01*
X109128738Y-92392666D01*
X109314452Y-92392666D01*
X109562071Y-92440285D01*
X109685880Y-92487904D01*
X109809690Y-92583142D01*
X109871595Y-92726000D01*
X109871595Y-92964095D01*
X107206190Y-94852976D02*
X107268095Y-94710119D01*
X107268095Y-94472023D01*
X107206190Y-94376785D01*
X107144285Y-94329166D01*
X107020476Y-94281547D01*
X106896666Y-94281547D01*
X106772857Y-94329166D01*
X106710952Y-94376785D01*
X106649047Y-94472023D01*
X106587142Y-94662500D01*
X106525238Y-94757738D01*
X106463333Y-94805357D01*
X106339523Y-94852976D01*
X106215714Y-94852976D01*
X106091904Y-94805357D01*
X106030000Y-94757738D01*
X105968095Y-94662500D01*
X105968095Y-94424404D01*
X106030000Y-94281547D01*
X107144285Y-93281547D02*
X107206190Y-93329166D01*
X107268095Y-93472023D01*
X107268095Y-93567261D01*
X107206190Y-93710119D01*
X107082380Y-93805357D01*
X106958571Y-93852976D01*
X106710952Y-93900595D01*
X106525238Y-93900595D01*
X106277619Y-93852976D01*
X106153809Y-93805357D01*
X106030000Y-93710119D01*
X105968095Y-93567261D01*
X105968095Y-93472023D01*
X106030000Y-93329166D01*
X106091904Y-93281547D01*
X107268095Y-92376785D02*
X107268095Y-92852976D01*
X105968095Y-92852976D01*
X104666190Y-94876785D02*
X104728095Y-94733928D01*
X104728095Y-94495833D01*
X104666190Y-94400595D01*
X104604285Y-94352976D01*
X104480476Y-94305357D01*
X104356666Y-94305357D01*
X104232857Y-94352976D01*
X104170952Y-94400595D01*
X104109047Y-94495833D01*
X104047142Y-94686309D01*
X103985238Y-94781547D01*
X103923333Y-94829166D01*
X103799523Y-94876785D01*
X103675714Y-94876785D01*
X103551904Y-94829166D01*
X103490000Y-94781547D01*
X103428095Y-94686309D01*
X103428095Y-94448214D01*
X103490000Y-94305357D01*
X104728095Y-93876785D02*
X103428095Y-93876785D01*
X103428095Y-93638690D01*
X103490000Y-93495833D01*
X103613809Y-93400595D01*
X103737619Y-93352976D01*
X103985238Y-93305357D01*
X104170952Y-93305357D01*
X104418571Y-93352976D01*
X104542380Y-93400595D01*
X104666190Y-93495833D01*
X104728095Y-93638690D01*
X104728095Y-93876785D01*
X104356666Y-92924404D02*
X104356666Y-92448214D01*
X104728095Y-93019642D02*
X103428095Y-92686309D01*
X104728095Y-92352976D01*
X101692857Y-95599000D02*
X101692857Y-94837095D01*
X102188095Y-95218047D02*
X101197619Y-95218047D01*
X100888095Y-94456142D02*
X100888095Y-93837095D01*
X101383333Y-94170428D01*
X101383333Y-94027571D01*
X101445238Y-93932333D01*
X101507142Y-93884714D01*
X101630952Y-93837095D01*
X101940476Y-93837095D01*
X102064285Y-93884714D01*
X102126190Y-93932333D01*
X102188095Y-94027571D01*
X102188095Y-94313285D01*
X102126190Y-94408523D01*
X102064285Y-94456142D01*
X102064285Y-93408523D02*
X102126190Y-93360904D01*
X102188095Y-93408523D01*
X102126190Y-93456142D01*
X102064285Y-93408523D01*
X102188095Y-93408523D01*
X100888095Y-93027571D02*
X100888095Y-92408523D01*
X101383333Y-92741857D01*
X101383333Y-92599000D01*
X101445238Y-92503761D01*
X101507142Y-92456142D01*
X101630952Y-92408523D01*
X101940476Y-92408523D01*
X102064285Y-92456142D01*
X102126190Y-92503761D01*
X102188095Y-92599000D01*
X102188095Y-92884714D01*
X102126190Y-92979952D01*
X102064285Y-93027571D01*
X100888095Y-92122809D02*
X102188095Y-91789476D01*
X100888095Y-91456142D01*
D11*
X67663500Y-110113071D02*
X67663500Y-111327357D01*
X67734928Y-111470214D01*
X67806357Y-111541642D01*
X67949214Y-111613071D01*
X68234928Y-111613071D01*
X68377785Y-111541642D01*
X68449214Y-111470214D01*
X68520642Y-111327357D01*
X68520642Y-110113071D01*
X69163500Y-111541642D02*
X69377785Y-111613071D01*
X69734928Y-111613071D01*
X69877785Y-111541642D01*
X69949214Y-111470214D01*
X70020642Y-111327357D01*
X70020642Y-111184500D01*
X69949214Y-111041642D01*
X69877785Y-110970214D01*
X69734928Y-110898785D01*
X69449214Y-110827357D01*
X69306357Y-110755928D01*
X69234928Y-110684500D01*
X69163500Y-110541642D01*
X69163500Y-110398785D01*
X69234928Y-110255928D01*
X69306357Y-110184500D01*
X69449214Y-110113071D01*
X69806357Y-110113071D01*
X70020642Y-110184500D01*
X71163500Y-110827357D02*
X71377785Y-110898785D01*
X71449214Y-110970214D01*
X71520642Y-111113071D01*
X71520642Y-111327357D01*
X71449214Y-111470214D01*
X71377785Y-111541642D01*
X71234928Y-111613071D01*
X70663500Y-111613071D01*
X70663500Y-110113071D01*
X71163500Y-110113071D01*
X71306357Y-110184500D01*
X71377785Y-110255928D01*
X71449214Y-110398785D01*
X71449214Y-110541642D01*
X71377785Y-110684500D01*
X71306357Y-110755928D01*
X71163500Y-110827357D01*
X70663500Y-110827357D01*
X72163500Y-111613071D02*
X72163500Y-110613071D01*
X72163500Y-110113071D02*
X72092071Y-110184500D01*
X72163500Y-110255928D01*
X72234928Y-110184500D01*
X72163500Y-110113071D01*
X72163500Y-110255928D01*
D13*
X102552500Y-105727500D02*
X115570000Y-105727500D01*
D10*
X87773023Y-99496571D02*
X88106357Y-99496571D01*
X88249214Y-100020380D02*
X87773023Y-100020380D01*
X87773023Y-99020380D01*
X88249214Y-99020380D01*
X88630166Y-99972761D02*
X88773023Y-100020380D01*
X89011119Y-100020380D01*
X89106357Y-99972761D01*
X89153976Y-99925142D01*
X89201595Y-99829904D01*
X89201595Y-99734666D01*
X89153976Y-99639428D01*
X89106357Y-99591809D01*
X89011119Y-99544190D01*
X88820642Y-99496571D01*
X88725404Y-99448952D01*
X88677785Y-99401333D01*
X88630166Y-99306095D01*
X88630166Y-99210857D01*
X88677785Y-99115619D01*
X88725404Y-99068000D01*
X88820642Y-99020380D01*
X89058738Y-99020380D01*
X89201595Y-99068000D01*
X89630166Y-100020380D02*
X89630166Y-99020380D01*
X90011119Y-99020380D01*
X90106357Y-99068000D01*
X90153976Y-99115619D01*
X90201595Y-99210857D01*
X90201595Y-99353714D01*
X90153976Y-99448952D01*
X90106357Y-99496571D01*
X90011119Y-99544190D01*
X89630166Y-99544190D01*
D11*
X64504428Y-84117571D02*
X64504428Y-82617571D01*
X65075857Y-82617571D01*
X65218714Y-82689000D01*
X65290142Y-82760428D01*
X65361571Y-82903285D01*
X65361571Y-83117571D01*
X65290142Y-83260428D01*
X65218714Y-83331857D01*
X65075857Y-83403285D01*
X64504428Y-83403285D01*
X66861571Y-84117571D02*
X66361571Y-83403285D01*
X66004428Y-84117571D02*
X66004428Y-82617571D01*
X66575857Y-82617571D01*
X66718714Y-82689000D01*
X66790142Y-82760428D01*
X66861571Y-82903285D01*
X66861571Y-83117571D01*
X66790142Y-83260428D01*
X66718714Y-83331857D01*
X66575857Y-83403285D01*
X66004428Y-83403285D01*
X67790142Y-82617571D02*
X68075857Y-82617571D01*
X68218714Y-82689000D01*
X68361571Y-82831857D01*
X68433000Y-83117571D01*
X68433000Y-83617571D01*
X68361571Y-83903285D01*
X68218714Y-84046142D01*
X68075857Y-84117571D01*
X67790142Y-84117571D01*
X67647285Y-84046142D01*
X67504428Y-83903285D01*
X67433000Y-83617571D01*
X67433000Y-83117571D01*
X67504428Y-82831857D01*
X67647285Y-82689000D01*
X67790142Y-82617571D01*
X69861571Y-82689000D02*
X69718714Y-82617571D01*
X69504428Y-82617571D01*
X69290142Y-82689000D01*
X69147285Y-82831857D01*
X69075857Y-82974714D01*
X69004428Y-83260428D01*
X69004428Y-83474714D01*
X69075857Y-83760428D01*
X69147285Y-83903285D01*
X69290142Y-84046142D01*
X69504428Y-84117571D01*
X69647285Y-84117571D01*
X69861571Y-84046142D01*
X69933000Y-83974714D01*
X69933000Y-83474714D01*
X69647285Y-83474714D01*
X93666500Y-117899571D02*
X93166500Y-117185285D01*
X92809357Y-117899571D02*
X92809357Y-116399571D01*
X93380785Y-116399571D01*
X93523642Y-116471000D01*
X93595071Y-116542428D01*
X93666500Y-116685285D01*
X93666500Y-116899571D01*
X93595071Y-117042428D01*
X93523642Y-117113857D01*
X93380785Y-117185285D01*
X92809357Y-117185285D01*
X94166500Y-116399571D02*
X95166500Y-117899571D01*
X95166500Y-116399571D02*
X94166500Y-117899571D01*
X92773642Y-113783371D02*
X93630785Y-113783371D01*
X93202214Y-115283371D02*
X93202214Y-113783371D01*
X93987928Y-113783371D02*
X94987928Y-115283371D01*
X94987928Y-113783371D02*
X93987928Y-115283371D01*
X99459190Y-106852600D02*
X99521095Y-106709742D01*
X99521095Y-106471647D01*
X99459190Y-106376409D01*
X99397285Y-106328790D01*
X99273476Y-106281171D01*
X99149666Y-106281171D01*
X99025857Y-106328790D01*
X98963952Y-106376409D01*
X98902047Y-106471647D01*
X98840142Y-106662123D01*
X98778238Y-106757361D01*
X98716333Y-106804980D01*
X98592523Y-106852600D01*
X98468714Y-106852600D01*
X98344904Y-106804980D01*
X98283000Y-106757361D01*
X98221095Y-106662123D01*
X98221095Y-106424028D01*
X98283000Y-106281171D01*
X98840142Y-105852600D02*
X98840142Y-105519266D01*
X99521095Y-105376409D02*
X99521095Y-105852600D01*
X98221095Y-105852600D01*
X98221095Y-105376409D01*
X99521095Y-104471647D02*
X99521095Y-104947838D01*
X98221095Y-104947838D01*
X98840142Y-103804980D02*
X98840142Y-104138314D01*
X99521095Y-104138314D02*
X98221095Y-104138314D01*
X98221095Y-103662123D01*
X98840142Y-102947838D02*
X98902047Y-102804980D01*
X98963952Y-102757361D01*
X99087761Y-102709742D01*
X99273476Y-102709742D01*
X99397285Y-102757361D01*
X99459190Y-102804980D01*
X99521095Y-102900219D01*
X99521095Y-103281171D01*
X98221095Y-103281171D01*
X98221095Y-102947838D01*
X98283000Y-102852600D01*
X98344904Y-102804980D01*
X98468714Y-102757361D01*
X98592523Y-102757361D01*
X98716333Y-102804980D01*
X98778238Y-102852600D01*
X98840142Y-102947838D01*
X98840142Y-103281171D01*
X98221095Y-102090695D02*
X98221095Y-101900219D01*
X98283000Y-101804980D01*
X98406809Y-101709742D01*
X98654428Y-101662123D01*
X99087761Y-101662123D01*
X99335380Y-101709742D01*
X99459190Y-101804980D01*
X99521095Y-101900219D01*
X99521095Y-102090695D01*
X99459190Y-102185933D01*
X99335380Y-102281171D01*
X99087761Y-102328790D01*
X98654428Y-102328790D01*
X98406809Y-102281171D01*
X98283000Y-102185933D01*
X98221095Y-102090695D01*
X98221095Y-101043076D02*
X98221095Y-100852600D01*
X98283000Y-100757361D01*
X98406809Y-100662123D01*
X98654428Y-100614504D01*
X99087761Y-100614504D01*
X99335380Y-100662123D01*
X99459190Y-100757361D01*
X99521095Y-100852600D01*
X99521095Y-101043076D01*
X99459190Y-101138314D01*
X99335380Y-101233552D01*
X99087761Y-101281171D01*
X98654428Y-101281171D01*
X98406809Y-101233552D01*
X98283000Y-101138314D01*
X98221095Y-101043076D01*
X98221095Y-100328790D02*
X98221095Y-99757361D01*
X99521095Y-100043076D02*
X98221095Y-100043076D01*
X110482285Y-107017357D02*
X110982285Y-107017357D01*
X111196571Y-107803071D02*
X110482285Y-107803071D01*
X110482285Y-106303071D01*
X111196571Y-106303071D01*
X111768000Y-107731642D02*
X111982285Y-107803071D01*
X112339428Y-107803071D01*
X112482285Y-107731642D01*
X112553714Y-107660214D01*
X112625142Y-107517357D01*
X112625142Y-107374500D01*
X112553714Y-107231642D01*
X112482285Y-107160214D01*
X112339428Y-107088785D01*
X112053714Y-107017357D01*
X111910857Y-106945928D01*
X111839428Y-106874500D01*
X111768000Y-106731642D01*
X111768000Y-106588785D01*
X111839428Y-106445928D01*
X111910857Y-106374500D01*
X112053714Y-106303071D01*
X112410857Y-106303071D01*
X112625142Y-106374500D01*
X113268000Y-107803071D02*
X113268000Y-106303071D01*
X113839428Y-106303071D01*
X113982285Y-106374500D01*
X114053714Y-106445928D01*
X114125142Y-106588785D01*
X114125142Y-106803071D01*
X114053714Y-106945928D01*
X113982285Y-107017357D01*
X113839428Y-107088785D01*
X113268000Y-107088785D01*
D10*
X87273023Y-100957071D02*
X86939690Y-100957071D01*
X86939690Y-101480880D02*
X86939690Y-100480880D01*
X87415880Y-100480880D01*
X88273023Y-101480880D02*
X87796833Y-101480880D01*
X87796833Y-100480880D01*
X88558738Y-101195166D02*
X89034928Y-101195166D01*
X88463500Y-101480880D02*
X88796833Y-100480880D01*
X89130166Y-101480880D01*
X89415880Y-101433261D02*
X89558738Y-101480880D01*
X89796833Y-101480880D01*
X89892071Y-101433261D01*
X89939690Y-101385642D01*
X89987309Y-101290404D01*
X89987309Y-101195166D01*
X89939690Y-101099928D01*
X89892071Y-101052309D01*
X89796833Y-101004690D01*
X89606357Y-100957071D01*
X89511119Y-100909452D01*
X89463500Y-100861833D01*
X89415880Y-100766595D01*
X89415880Y-100671357D01*
X89463500Y-100576119D01*
X89511119Y-100528500D01*
X89606357Y-100480880D01*
X89844452Y-100480880D01*
X89987309Y-100528500D01*
X90415880Y-101480880D02*
X90415880Y-100480880D01*
X90415880Y-100957071D02*
X90987309Y-100957071D01*
X90987309Y-101480880D02*
X90987309Y-100480880D01*
D11*
X106850928Y-104945571D02*
X106350928Y-104231285D01*
X105993785Y-104945571D02*
X105993785Y-103445571D01*
X106565214Y-103445571D01*
X106708071Y-103517000D01*
X106779500Y-103588428D01*
X106850928Y-103731285D01*
X106850928Y-103945571D01*
X106779500Y-104088428D01*
X106708071Y-104159857D01*
X106565214Y-104231285D01*
X105993785Y-104231285D01*
X107493785Y-104159857D02*
X107993785Y-104159857D01*
X108208071Y-104945571D02*
X107493785Y-104945571D01*
X107493785Y-103445571D01*
X108208071Y-103445571D01*
X108779500Y-104874142D02*
X108993785Y-104945571D01*
X109350928Y-104945571D01*
X109493785Y-104874142D01*
X109565214Y-104802714D01*
X109636642Y-104659857D01*
X109636642Y-104517000D01*
X109565214Y-104374142D01*
X109493785Y-104302714D01*
X109350928Y-104231285D01*
X109065214Y-104159857D01*
X108922357Y-104088428D01*
X108850928Y-104017000D01*
X108779500Y-103874142D01*
X108779500Y-103731285D01*
X108850928Y-103588428D01*
X108922357Y-103517000D01*
X109065214Y-103445571D01*
X109422357Y-103445571D01*
X109636642Y-103517000D01*
X110279500Y-104159857D02*
X110779500Y-104159857D01*
X110993785Y-104945571D02*
X110279500Y-104945571D01*
X110279500Y-103445571D01*
X110993785Y-103445571D01*
X111422357Y-103445571D02*
X112279500Y-103445571D01*
X111850928Y-104945571D02*
X111850928Y-103445571D01*
D10*
X112649333Y-99067880D02*
X112649333Y-98067880D01*
X113077904Y-98163119D02*
X113125523Y-98115500D01*
X113220761Y-98067880D01*
X113458857Y-98067880D01*
X113554095Y-98115500D01*
X113601714Y-98163119D01*
X113649333Y-98258357D01*
X113649333Y-98353595D01*
X113601714Y-98496452D01*
X113030285Y-99067880D01*
X113649333Y-99067880D01*
X114649333Y-98972642D02*
X114601714Y-99020261D01*
X114458857Y-99067880D01*
X114363619Y-99067880D01*
X114220761Y-99020261D01*
X114125523Y-98925023D01*
X114077904Y-98829785D01*
X114030285Y-98639309D01*
X114030285Y-98496452D01*
X114077904Y-98305976D01*
X114125523Y-98210738D01*
X114220761Y-98115500D01*
X114363619Y-98067880D01*
X114458857Y-98067880D01*
X114601714Y-98115500D01*
X114649333Y-98163119D01*
X115792190Y-98782166D02*
X116268380Y-98782166D01*
X115696952Y-99067880D02*
X116030285Y-98067880D01*
X116363619Y-99067880D01*
X117268380Y-98972642D02*
X117220761Y-99020261D01*
X117077904Y-99067880D01*
X116982666Y-99067880D01*
X116839809Y-99020261D01*
X116744571Y-98925023D01*
X116696952Y-98829785D01*
X116649333Y-98639309D01*
X116649333Y-98496452D01*
X116696952Y-98305976D01*
X116744571Y-98210738D01*
X116839809Y-98115500D01*
X116982666Y-98067880D01*
X117077904Y-98067880D01*
X117220761Y-98115500D01*
X117268380Y-98163119D01*
X117554095Y-98067880D02*
X118125523Y-98067880D01*
X117839809Y-99067880D02*
X117839809Y-98067880D01*
X112776309Y-89939761D02*
X112919166Y-89987380D01*
X113157261Y-89987380D01*
X113252500Y-89939761D01*
X113300119Y-89892142D01*
X113347738Y-89796904D01*
X113347738Y-89701666D01*
X113300119Y-89606428D01*
X113252500Y-89558809D01*
X113157261Y-89511190D01*
X112966785Y-89463571D01*
X112871547Y-89415952D01*
X112823928Y-89368333D01*
X112776309Y-89273095D01*
X112776309Y-89177857D01*
X112823928Y-89082619D01*
X112871547Y-89035000D01*
X112966785Y-88987380D01*
X113204880Y-88987380D01*
X113347738Y-89035000D01*
X113633452Y-88987380D02*
X114204880Y-88987380D01*
X113919166Y-89987380D02*
X113919166Y-88987380D01*
X114490595Y-89701666D02*
X114966785Y-89701666D01*
X114395357Y-89987380D02*
X114728690Y-88987380D01*
X115062023Y-89987380D01*
X115252500Y-88987380D02*
X115823928Y-88987380D01*
X115538214Y-89987380D02*
X115538214Y-88987380D01*
X116157261Y-88987380D02*
X116157261Y-89796904D01*
X116204880Y-89892142D01*
X116252500Y-89939761D01*
X116347738Y-89987380D01*
X116538214Y-89987380D01*
X116633452Y-89939761D01*
X116681071Y-89892142D01*
X116728690Y-89796904D01*
X116728690Y-88987380D01*
X117157261Y-89939761D02*
X117300119Y-89987380D01*
X117538214Y-89987380D01*
X117633452Y-89939761D01*
X117681071Y-89892142D01*
X117728690Y-89796904D01*
X117728690Y-89701666D01*
X117681071Y-89606428D01*
X117633452Y-89558809D01*
X117538214Y-89511190D01*
X117347738Y-89463571D01*
X117252500Y-89415952D01*
X117204880Y-89368333D01*
X117157261Y-89273095D01*
X117157261Y-89177857D01*
X117204880Y-89082619D01*
X117252500Y-89035000D01*
X117347738Y-88987380D01*
X117585833Y-88987380D01*
X117728690Y-89035000D01*
X113069976Y-85605880D02*
X113069976Y-84605880D01*
X113450928Y-84605880D01*
X113546166Y-84653500D01*
X113593785Y-84701119D01*
X113641404Y-84796357D01*
X113641404Y-84939214D01*
X113593785Y-85034452D01*
X113546166Y-85082071D01*
X113450928Y-85129690D01*
X113069976Y-85129690D01*
X114260452Y-84605880D02*
X114450928Y-84605880D01*
X114546166Y-84653500D01*
X114641404Y-84748738D01*
X114689023Y-84939214D01*
X114689023Y-85272547D01*
X114641404Y-85463023D01*
X114546166Y-85558261D01*
X114450928Y-85605880D01*
X114260452Y-85605880D01*
X114165214Y-85558261D01*
X114069976Y-85463023D01*
X114022357Y-85272547D01*
X114022357Y-84939214D01*
X114069976Y-84748738D01*
X114165214Y-84653500D01*
X114260452Y-84605880D01*
X115022357Y-84605880D02*
X115260452Y-85605880D01*
X115450928Y-84891595D01*
X115641404Y-85605880D01*
X115879500Y-84605880D01*
X116260452Y-85082071D02*
X116593785Y-85082071D01*
X116736642Y-85605880D02*
X116260452Y-85605880D01*
X116260452Y-84605880D01*
X116736642Y-84605880D01*
X117736642Y-85605880D02*
X117403309Y-85129690D01*
X117165214Y-85605880D02*
X117165214Y-84605880D01*
X117546166Y-84605880D01*
X117641404Y-84653500D01*
X117689023Y-84701119D01*
X117736642Y-84796357D01*
X117736642Y-84939214D01*
X117689023Y-85034452D01*
X117641404Y-85082071D01*
X117546166Y-85129690D01*
X117165214Y-85129690D01*
X111419119Y-101496880D02*
X111419119Y-102306404D01*
X111466738Y-102401642D01*
X111514357Y-102449261D01*
X111609595Y-102496880D01*
X111800071Y-102496880D01*
X111895309Y-102449261D01*
X111942928Y-102401642D01*
X111990547Y-102306404D01*
X111990547Y-101496880D01*
X112419119Y-102449261D02*
X112561976Y-102496880D01*
X112800071Y-102496880D01*
X112895309Y-102449261D01*
X112942928Y-102401642D01*
X112990547Y-102306404D01*
X112990547Y-102211166D01*
X112942928Y-102115928D01*
X112895309Y-102068309D01*
X112800071Y-102020690D01*
X112609595Y-101973071D01*
X112514357Y-101925452D01*
X112466738Y-101877833D01*
X112419119Y-101782595D01*
X112419119Y-101687357D01*
X112466738Y-101592119D01*
X112514357Y-101544500D01*
X112609595Y-101496880D01*
X112847690Y-101496880D01*
X112990547Y-101544500D01*
X113752452Y-101973071D02*
X113895309Y-102020690D01*
X113942928Y-102068309D01*
X113990547Y-102163547D01*
X113990547Y-102306404D01*
X113942928Y-102401642D01*
X113895309Y-102449261D01*
X113800071Y-102496880D01*
X113419119Y-102496880D01*
X113419119Y-101496880D01*
X113752452Y-101496880D01*
X113847690Y-101544500D01*
X113895309Y-101592119D01*
X113942928Y-101687357D01*
X113942928Y-101782595D01*
X113895309Y-101877833D01*
X113847690Y-101925452D01*
X113752452Y-101973071D01*
X113419119Y-101973071D01*
X114419119Y-102496880D02*
X114419119Y-101830214D01*
X114419119Y-101496880D02*
X114371500Y-101544500D01*
X114419119Y-101592119D01*
X114466738Y-101544500D01*
X114419119Y-101496880D01*
X114419119Y-101592119D01*
X115657214Y-102496880D02*
X115657214Y-101496880D01*
X116038166Y-101496880D01*
X116133404Y-101544500D01*
X116181023Y-101592119D01*
X116228642Y-101687357D01*
X116228642Y-101830214D01*
X116181023Y-101925452D01*
X116133404Y-101973071D01*
X116038166Y-102020690D01*
X115657214Y-102020690D01*
X116561976Y-101496880D02*
X116800071Y-102496880D01*
X116990547Y-101782595D01*
X117181023Y-102496880D01*
X117419119Y-101496880D01*
X118371500Y-102496880D02*
X118038166Y-102020690D01*
X117800071Y-102496880D02*
X117800071Y-101496880D01*
X118181023Y-101496880D01*
X118276261Y-101544500D01*
X118323880Y-101592119D01*
X118371500Y-101687357D01*
X118371500Y-101830214D01*
X118323880Y-101925452D01*
X118276261Y-101973071D01*
X118181023Y-102020690D01*
X117800071Y-102020690D01*
X111260380Y-93457780D02*
X111260380Y-94267304D01*
X111308000Y-94362542D01*
X111355619Y-94410161D01*
X111450857Y-94457780D01*
X111641333Y-94457780D01*
X111736571Y-94410161D01*
X111784190Y-94362542D01*
X111831809Y-94267304D01*
X111831809Y-93457780D01*
X112260380Y-94172066D02*
X112736571Y-94172066D01*
X112165142Y-94457780D02*
X112498476Y-93457780D01*
X112831809Y-94457780D01*
X113736571Y-94457780D02*
X113403238Y-93981590D01*
X113165142Y-94457780D02*
X113165142Y-93457780D01*
X113546095Y-93457780D01*
X113641333Y-93505400D01*
X113688952Y-93553019D01*
X113736571Y-93648257D01*
X113736571Y-93791114D01*
X113688952Y-93886352D01*
X113641333Y-93933971D01*
X113546095Y-93981590D01*
X113165142Y-93981590D01*
X114022285Y-93457780D02*
X114593714Y-93457780D01*
X114308000Y-94457780D02*
X114308000Y-93457780D01*
X115688952Y-94457780D02*
X115688952Y-93457780D01*
X116069904Y-93457780D01*
X116165142Y-93505400D01*
X116212761Y-93553019D01*
X116260380Y-93648257D01*
X116260380Y-93791114D01*
X116212761Y-93886352D01*
X116165142Y-93933971D01*
X116069904Y-93981590D01*
X115688952Y-93981590D01*
X116593714Y-93457780D02*
X116831809Y-94457780D01*
X117022285Y-93743495D01*
X117212761Y-94457780D01*
X117450857Y-93457780D01*
X118403238Y-94457780D02*
X118069904Y-93981590D01*
X117831809Y-94457780D02*
X117831809Y-93457780D01*
X118212761Y-93457780D01*
X118308000Y-93505400D01*
X118355619Y-93553019D01*
X118403238Y-93648257D01*
X118403238Y-93791114D01*
X118355619Y-93886352D01*
X118308000Y-93933971D01*
X118212761Y-93981590D01*
X117831809Y-93981590D01*
%TO.C,J3*%
X74080000Y-113432000D02*
X74080000Y-114032000D01*
X66280000Y-114032000D02*
X66280000Y-113432000D01*
X74080000Y-117532000D02*
X74080000Y-116932000D01*
X66280000Y-117532000D02*
X74080000Y-117532000D01*
X66280000Y-116932000D02*
X66280000Y-117532000D01*
X66280000Y-113432000D02*
X74080000Y-113432000D01*
X68080000Y-117832000D02*
X69080000Y-117832000D01*
%TO.C,J4*%
X80272000Y-117832000D02*
X81272000Y-117832000D01*
X78472000Y-113432000D02*
X86272000Y-113432000D01*
X78472000Y-116932000D02*
X78472000Y-117532000D01*
X78472000Y-117532000D02*
X86272000Y-117532000D01*
X86272000Y-117532000D02*
X86272000Y-116932000D01*
X78472000Y-114032000D02*
X78472000Y-113432000D01*
X86272000Y-113432000D02*
X86272000Y-114032000D01*
D15*
%TO.C,SW2*%
X102434000Y-110054000D02*
X102464000Y-110054000D01*
X108894000Y-110054000D02*
X108864000Y-110054000D01*
X108894000Y-116514000D02*
X108864000Y-116514000D01*
X102464000Y-116514000D02*
X102434000Y-116514000D01*
X104364000Y-110054000D02*
X106964000Y-110054000D01*
X102434000Y-116514000D02*
X102434000Y-110054000D01*
X104364000Y-116514000D02*
X106964000Y-116514000D01*
X108894000Y-116514000D02*
X108894000Y-110054000D01*
%TO.C,D1*%
X118825000Y-83780000D02*
X123745000Y-83780000D01*
X118825000Y-86400000D02*
X123745000Y-86400000D01*
X118825000Y-83780000D02*
X118825000Y-86400000D01*
X123745000Y-83780000D02*
X123745000Y-86400000D01*
X118945000Y-83780000D02*
X118945000Y-84010000D01*
X118945000Y-86170000D02*
X118945000Y-86400000D01*
X119065000Y-83780000D02*
X119065000Y-84010000D01*
X119065000Y-86170000D02*
X119065000Y-86400000D01*
%TO.C,D3*%
X118825000Y-97115000D02*
X123745000Y-97115000D01*
X118825000Y-99735000D02*
X123745000Y-99735000D01*
X118825000Y-97115000D02*
X118825000Y-99735000D01*
X123745000Y-97115000D02*
X123745000Y-99735000D01*
X118945000Y-97115000D02*
X118945000Y-97345000D01*
X118945000Y-99505000D02*
X118945000Y-99735000D01*
X119065000Y-97115000D02*
X119065000Y-97345000D01*
X119065000Y-99505000D02*
X119065000Y-99735000D01*
%TO.C,D5*%
X119065000Y-103950000D02*
X119065000Y-104180000D01*
X119065000Y-101560000D02*
X119065000Y-101790000D01*
X118945000Y-103950000D02*
X118945000Y-104180000D01*
X118945000Y-101560000D02*
X118945000Y-101790000D01*
X123745000Y-101560000D02*
X123745000Y-104180000D01*
X118825000Y-101560000D02*
X118825000Y-104180000D01*
X118825000Y-104180000D02*
X123745000Y-104180000D01*
X118825000Y-101560000D02*
X123745000Y-101560000D01*
%TO.C,D7*%
X119065000Y-95060000D02*
X119065000Y-95290000D01*
X119065000Y-92670000D02*
X119065000Y-92900000D01*
X118945000Y-95060000D02*
X118945000Y-95290000D01*
X118945000Y-92670000D02*
X118945000Y-92900000D01*
X123745000Y-92670000D02*
X123745000Y-95290000D01*
X118825000Y-92670000D02*
X118825000Y-95290000D01*
X118825000Y-95290000D02*
X123745000Y-95290000D01*
X118825000Y-92670000D02*
X123745000Y-92670000D01*
%TO.C,SW3*%
X92130000Y-109910000D02*
X92130000Y-103450000D01*
X87600000Y-109910000D02*
X90200000Y-109910000D01*
X85670000Y-109910000D02*
X85670000Y-103450000D01*
X87600000Y-103450000D02*
X90200000Y-103450000D01*
X85700000Y-109910000D02*
X85670000Y-109910000D01*
X92130000Y-109910000D02*
X92100000Y-109910000D01*
X92130000Y-103450000D02*
X92100000Y-103450000D01*
X85670000Y-103450000D02*
X85700000Y-103450000D01*
%TO.C,SW4*%
X108974500Y-110054000D02*
X109004500Y-110054000D01*
X115434500Y-110054000D02*
X115404500Y-110054000D01*
X115434500Y-116514000D02*
X115404500Y-116514000D01*
X109004500Y-116514000D02*
X108974500Y-116514000D01*
X110904500Y-110054000D02*
X113504500Y-110054000D01*
X108974500Y-116514000D02*
X108974500Y-110054000D01*
X110904500Y-116514000D02*
X113504500Y-116514000D01*
X115434500Y-116514000D02*
X115434500Y-110054000D01*
%TO.C,D2*%
X119065000Y-90615000D02*
X119065000Y-90845000D01*
X119065000Y-88225000D02*
X119065000Y-88455000D01*
X118945000Y-90615000D02*
X118945000Y-90845000D01*
X118945000Y-88225000D02*
X118945000Y-88455000D01*
X123745000Y-88225000D02*
X123745000Y-90845000D01*
X118825000Y-88225000D02*
X118825000Y-90845000D01*
X118825000Y-90845000D02*
X123745000Y-90845000D01*
X118825000Y-88225000D02*
X123745000Y-88225000D01*
%TO.C,J1*%
X69719500Y-84966500D02*
X69719500Y-86296500D01*
X68389500Y-84966500D02*
X69719500Y-84966500D01*
X67119500Y-84966500D02*
X67119500Y-87626500D01*
X67119500Y-87626500D02*
X64519500Y-87626500D01*
X67119500Y-84966500D02*
X64519500Y-84966500D01*
X64519500Y-84966500D02*
X64519500Y-87626500D01*
%TO.C,J5*%
X100270000Y-99056500D02*
X100270000Y-97726500D01*
X101600000Y-99056500D02*
X100270000Y-99056500D01*
X102870000Y-99056500D02*
X102870000Y-96396500D01*
X102870000Y-96396500D02*
X110550000Y-96396500D01*
X102870000Y-99056500D02*
X110550000Y-99056500D01*
X110550000Y-99056500D02*
X110550000Y-96396500D01*
%TO.C,SW1*%
X98867000Y-109679500D02*
X100606000Y-109679500D01*
X98867000Y-115999500D02*
X100606000Y-115999500D01*
X97006000Y-109679500D02*
X98745000Y-109679500D01*
X97006000Y-115999500D02*
X97006000Y-109679500D01*
X97006000Y-115999500D02*
X97955000Y-115999500D01*
X97955000Y-118039500D02*
X97955000Y-115999500D01*
X100606000Y-115999500D02*
X100606000Y-109679500D01*
%TO.C,J6*%
X91881000Y-118424000D02*
X90551000Y-118424000D01*
X91881000Y-117094000D02*
X91881000Y-118424000D01*
X91881000Y-115824000D02*
X89221000Y-115824000D01*
X89221000Y-115824000D02*
X89221000Y-113224000D01*
X91881000Y-115824000D02*
X91881000Y-113224000D01*
X91881000Y-113224000D02*
X89221000Y-113224000D01*
D16*
%TO.C,TP1*%
G36*
X67918543Y-94939335D02*
G01*
X67941565Y-94976745D01*
X67977034Y-95036014D01*
X68023496Y-95114618D01*
X68079496Y-95210038D01*
X68143581Y-95319750D01*
X68214296Y-95441234D01*
X68290187Y-95571968D01*
X68369799Y-95709430D01*
X68451678Y-95851098D01*
X68534370Y-95994451D01*
X68616421Y-96136967D01*
X68696376Y-96276124D01*
X68772781Y-96409401D01*
X68844182Y-96534276D01*
X68909124Y-96648227D01*
X68966153Y-96748733D01*
X69013815Y-96833272D01*
X69050655Y-96899322D01*
X69075220Y-96944362D01*
X69086054Y-96965870D01*
X69086451Y-96967214D01*
X69073001Y-96985465D01*
X69035614Y-97013382D01*
X68978735Y-97048225D01*
X68906812Y-97087254D01*
X68831515Y-97124343D01*
X68729060Y-97169317D01*
X68621317Y-97209726D01*
X68504573Y-97246469D01*
X68375118Y-97280442D01*
X68229240Y-97312544D01*
X68063226Y-97343673D01*
X67873366Y-97374727D01*
X67676969Y-97403645D01*
X67506334Y-97429300D01*
X67363045Y-97454698D01*
X67243508Y-97481102D01*
X67144130Y-97509773D01*
X67061318Y-97541973D01*
X66991478Y-97578965D01*
X66931018Y-97622012D01*
X66876345Y-97672375D01*
X66858714Y-97691083D01*
X66820500Y-97734639D01*
X66792232Y-97770182D01*
X66779118Y-97791083D01*
X66778768Y-97792797D01*
X66774180Y-97803306D01*
X66758258Y-97803424D01*
X66727766Y-97791754D01*
X66679468Y-97766896D01*
X66610127Y-97727452D01*
X66561939Y-97699087D01*
X66490083Y-97654747D01*
X66434242Y-97616779D01*
X66398167Y-97587916D01*
X66385613Y-97570888D01*
X66385621Y-97570764D01*
X66393406Y-97554537D01*
X66415392Y-97513900D01*
X66450303Y-97451067D01*
X66496863Y-97368252D01*
X66553795Y-97267672D01*
X66619823Y-97151540D01*
X66693672Y-97022071D01*
X66774064Y-96881480D01*
X66859724Y-96731982D01*
X66949376Y-96575792D01*
X67041743Y-96415124D01*
X67135549Y-96252193D01*
X67229518Y-96089213D01*
X67322374Y-95928400D01*
X67412840Y-95771968D01*
X67499641Y-95622133D01*
X67581500Y-95481108D01*
X67657141Y-95351109D01*
X67725287Y-95234349D01*
X67784663Y-95133045D01*
X67833993Y-95049411D01*
X67872000Y-94985662D01*
X67897407Y-94944011D01*
X67908940Y-94926675D01*
X67909423Y-94926305D01*
X67918543Y-94939335D01*
G37*
X67918543Y-94939335D02*
X67941565Y-94976745D01*
X67977034Y-95036014D01*
X68023496Y-95114618D01*
X68079496Y-95210038D01*
X68143581Y-95319750D01*
X68214296Y-95441234D01*
X68290187Y-95571968D01*
X68369799Y-95709430D01*
X68451678Y-95851098D01*
X68534370Y-95994451D01*
X68616421Y-96136967D01*
X68696376Y-96276124D01*
X68772781Y-96409401D01*
X68844182Y-96534276D01*
X68909124Y-96648227D01*
X68966153Y-96748733D01*
X69013815Y-96833272D01*
X69050655Y-96899322D01*
X69075220Y-96944362D01*
X69086054Y-96965870D01*
X69086451Y-96967214D01*
X69073001Y-96985465D01*
X69035614Y-97013382D01*
X68978735Y-97048225D01*
X68906812Y-97087254D01*
X68831515Y-97124343D01*
X68729060Y-97169317D01*
X68621317Y-97209726D01*
X68504573Y-97246469D01*
X68375118Y-97280442D01*
X68229240Y-97312544D01*
X68063226Y-97343673D01*
X67873366Y-97374727D01*
X67676969Y-97403645D01*
X67506334Y-97429300D01*
X67363045Y-97454698D01*
X67243508Y-97481102D01*
X67144130Y-97509773D01*
X67061318Y-97541973D01*
X66991478Y-97578965D01*
X66931018Y-97622012D01*
X66876345Y-97672375D01*
X66858714Y-97691083D01*
X66820500Y-97734639D01*
X66792232Y-97770182D01*
X66779118Y-97791083D01*
X66778768Y-97792797D01*
X66774180Y-97803306D01*
X66758258Y-97803424D01*
X66727766Y-97791754D01*
X66679468Y-97766896D01*
X66610127Y-97727452D01*
X66561939Y-97699087D01*
X66490083Y-97654747D01*
X66434242Y-97616779D01*
X66398167Y-97587916D01*
X66385613Y-97570888D01*
X66385621Y-97570764D01*
X66393406Y-97554537D01*
X66415392Y-97513900D01*
X66450303Y-97451067D01*
X66496863Y-97368252D01*
X66553795Y-97267672D01*
X66619823Y-97151540D01*
X66693672Y-97022071D01*
X66774064Y-96881480D01*
X66859724Y-96731982D01*
X66949376Y-96575792D01*
X67041743Y-96415124D01*
X67135549Y-96252193D01*
X67229518Y-96089213D01*
X67322374Y-95928400D01*
X67412840Y-95771968D01*
X67499641Y-95622133D01*
X67581500Y-95481108D01*
X67657141Y-95351109D01*
X67725287Y-95234349D01*
X67784663Y-95133045D01*
X67833993Y-95049411D01*
X67872000Y-94985662D01*
X67897407Y-94944011D01*
X67908940Y-94926675D01*
X67909423Y-94926305D01*
X67918543Y-94939335D01*
G36*
X69742028Y-98088119D02*
G01*
X69753408Y-98107193D01*
X69778988Y-98150921D01*
X69817502Y-98217119D01*
X69867686Y-98303602D01*
X69928275Y-98408185D01*
X69998003Y-98528683D01*
X70075607Y-98662912D01*
X70159820Y-98808687D01*
X70249379Y-98963823D01*
X70341498Y-99123500D01*
X70435576Y-99286617D01*
X70525902Y-99443209D01*
X70611165Y-99591006D01*
X70690057Y-99727740D01*
X70761269Y-99851142D01*
X70823491Y-99958944D01*
X70875413Y-100048877D01*
X70915728Y-100118673D01*
X70943124Y-100166064D01*
X70956007Y-100188286D01*
X70977007Y-100225830D01*
X70988425Y-100249331D01*
X70989051Y-100253420D01*
X70975136Y-100245742D01*
X70936441Y-100223703D01*
X70874987Y-100188471D01*
X70792798Y-100141211D01*
X70691896Y-100083089D01*
X70574305Y-100015271D01*
X70442046Y-99938924D01*
X70297142Y-99855214D01*
X70141617Y-99765306D01*
X69977492Y-99670367D01*
X69915049Y-99634232D01*
X69747987Y-99537583D01*
X69588574Y-99445438D01*
X69438855Y-99358975D01*
X69300876Y-99279371D01*
X69176685Y-99207805D01*
X69068327Y-99145455D01*
X68977848Y-99093498D01*
X68907296Y-99053113D01*
X68858715Y-99025478D01*
X68834154Y-99011772D01*
X68831585Y-99010474D01*
X68839069Y-98998720D01*
X68865114Y-98967295D01*
X68907059Y-98919094D01*
X68962246Y-98857010D01*
X69028017Y-98783939D01*
X69101712Y-98702776D01*
X69180673Y-98616416D01*
X69262240Y-98527753D01*
X69343754Y-98439682D01*
X69422557Y-98355099D01*
X69495990Y-98276897D01*
X69561393Y-98207972D01*
X69616108Y-98151219D01*
X69657477Y-98109532D01*
X69671664Y-98095863D01*
X69718680Y-98051701D01*
X69742028Y-98088119D01*
G37*
X69742028Y-98088119D02*
X69753408Y-98107193D01*
X69778988Y-98150921D01*
X69817502Y-98217119D01*
X69867686Y-98303602D01*
X69928275Y-98408185D01*
X69998003Y-98528683D01*
X70075607Y-98662912D01*
X70159820Y-98808687D01*
X70249379Y-98963823D01*
X70341498Y-99123500D01*
X70435576Y-99286617D01*
X70525902Y-99443209D01*
X70611165Y-99591006D01*
X70690057Y-99727740D01*
X70761269Y-99851142D01*
X70823491Y-99958944D01*
X70875413Y-100048877D01*
X70915728Y-100118673D01*
X70943124Y-100166064D01*
X70956007Y-100188286D01*
X70977007Y-100225830D01*
X70988425Y-100249331D01*
X70989051Y-100253420D01*
X70975136Y-100245742D01*
X70936441Y-100223703D01*
X70874987Y-100188471D01*
X70792798Y-100141211D01*
X70691896Y-100083089D01*
X70574305Y-100015271D01*
X70442046Y-99938924D01*
X70297142Y-99855214D01*
X70141617Y-99765306D01*
X69977492Y-99670367D01*
X69915049Y-99634232D01*
X69747987Y-99537583D01*
X69588574Y-99445438D01*
X69438855Y-99358975D01*
X69300876Y-99279371D01*
X69176685Y-99207805D01*
X69068327Y-99145455D01*
X68977848Y-99093498D01*
X68907296Y-99053113D01*
X68858715Y-99025478D01*
X68834154Y-99011772D01*
X68831585Y-99010474D01*
X68839069Y-98998720D01*
X68865114Y-98967295D01*
X68907059Y-98919094D01*
X68962246Y-98857010D01*
X69028017Y-98783939D01*
X69101712Y-98702776D01*
X69180673Y-98616416D01*
X69262240Y-98527753D01*
X69343754Y-98439682D01*
X69422557Y-98355099D01*
X69495990Y-98276897D01*
X69561393Y-98207972D01*
X69616108Y-98151219D01*
X69657477Y-98109532D01*
X69671664Y-98095863D01*
X69718680Y-98051701D01*
X69742028Y-98088119D01*
G36*
X66076594Y-98144658D02*
G01*
X66109119Y-98157236D01*
X66158693Y-98182212D01*
X66229874Y-98221376D01*
X66235416Y-98224488D01*
X66300974Y-98261976D01*
X66356298Y-98294819D01*
X66395955Y-98319705D01*
X66414512Y-98333320D01*
X66415031Y-98333987D01*
X66410548Y-98352890D01*
X66389986Y-98395105D01*
X66354683Y-98458332D01*
X66305980Y-98540272D01*
X66245218Y-98638622D01*
X66173736Y-98751085D01*
X66155945Y-98778665D01*
X66109593Y-98855199D01*
X66075842Y-98921056D01*
X66057653Y-98970282D01*
X66055786Y-98980007D01*
X66056615Y-99022812D01*
X66065894Y-99090709D01*
X66082468Y-99179343D01*
X66105180Y-99284359D01*
X66132873Y-99401402D01*
X66164390Y-99526116D01*
X66198575Y-99654145D01*
X66234271Y-99781134D01*
X66270321Y-99902728D01*
X66305568Y-100014572D01*
X66338856Y-100112310D01*
X66369028Y-100191587D01*
X66390061Y-100238622D01*
X66414837Y-100288725D01*
X66438230Y-100336668D01*
X66439497Y-100339293D01*
X66478199Y-100387720D01*
X66534684Y-100420328D01*
X66600439Y-100435954D01*
X66666951Y-100433437D01*
X66725705Y-100411614D01*
X66758758Y-100382882D01*
X66806359Y-100304083D01*
X66841239Y-100205878D01*
X66860377Y-100098279D01*
X66863088Y-100037280D01*
X66852170Y-99923435D01*
X66820124Y-99829160D01*
X66765226Y-99749879D01*
X66748107Y-99732233D01*
X66697161Y-99682735D01*
X66693663Y-99332862D01*
X66690164Y-98982989D01*
X66779318Y-98848031D01*
X66821154Y-98786945D01*
X66861445Y-98731993D01*
X66894443Y-98690836D01*
X66908626Y-98675692D01*
X66948781Y-98638310D01*
X67003165Y-98667598D01*
X67037539Y-98688584D01*
X67056346Y-98704878D01*
X67057549Y-98707807D01*
X67070403Y-98720228D01*
X67092396Y-98729477D01*
X67113650Y-98737813D01*
X67146194Y-98753649D01*
X67192822Y-98778533D01*
X67256329Y-98814009D01*
X67339508Y-98861623D01*
X67445153Y-98922922D01*
X67502562Y-98956432D01*
X67570094Y-98996571D01*
X67614385Y-99025159D01*
X67639355Y-99045539D01*
X67648923Y-99061053D01*
X67647008Y-99075046D01*
X67645411Y-99078296D01*
X67629876Y-99098766D01*
X67596636Y-99137165D01*
X67549562Y-99189196D01*
X67492528Y-99250566D01*
X67443200Y-99302590D01*
X67329530Y-99426067D01*
X67240605Y-99533091D01*
X67175634Y-99624740D01*
X67133821Y-99702088D01*
X67119717Y-99741366D01*
X67113892Y-99775749D01*
X67107875Y-99834399D01*
X67102196Y-99910617D01*
X67097384Y-99997702D01*
X67095119Y-100052768D01*
X67091959Y-100147964D01*
X67090569Y-100217562D01*
X67091358Y-100266909D01*
X67094735Y-100301354D01*
X67101108Y-100326243D01*
X67110887Y-100346925D01*
X67118567Y-100359553D01*
X67162921Y-100408226D01*
X67220074Y-100442145D01*
X67280208Y-100456938D01*
X67325273Y-100451586D01*
X67366076Y-100428430D01*
X67417224Y-100386962D01*
X67471542Y-100334412D01*
X67521857Y-100278016D01*
X67560994Y-100225005D01*
X67575405Y-100199389D01*
X67596991Y-100164314D01*
X67636253Y-100110889D01*
X67689602Y-100043289D01*
X67753452Y-99965690D01*
X67824215Y-99882268D01*
X67898304Y-99797198D01*
X67972132Y-99714655D01*
X68042111Y-99638816D01*
X68104655Y-99573856D01*
X68153760Y-99526169D01*
X68208279Y-99478532D01*
X68254142Y-99443408D01*
X68286311Y-99424449D01*
X68296989Y-99422364D01*
X68313353Y-99430774D01*
X68354171Y-99453346D01*
X68417086Y-99488724D01*
X68499744Y-99535554D01*
X68599789Y-99592481D01*
X68714866Y-99658149D01*
X68842619Y-99731203D01*
X68980694Y-99810288D01*
X69126734Y-99894048D01*
X69278384Y-99981129D01*
X69433290Y-100070176D01*
X69589095Y-100159832D01*
X69743444Y-100248743D01*
X69893982Y-100335554D01*
X70038354Y-100418909D01*
X70174204Y-100497454D01*
X70299177Y-100569833D01*
X70410917Y-100634690D01*
X70507070Y-100690671D01*
X70585279Y-100736420D01*
X70643189Y-100770583D01*
X70678446Y-100791804D01*
X70688665Y-100798463D01*
X70674902Y-100799780D01*
X70631604Y-100801059D01*
X70560214Y-100802296D01*
X70462173Y-100803483D01*
X70338922Y-100804615D01*
X70191903Y-100805686D01*
X70022557Y-100806689D01*
X69832326Y-100807619D01*
X69622651Y-100808468D01*
X69394973Y-100809232D01*
X69150735Y-100809903D01*
X68891377Y-100810476D01*
X68618341Y-100810944D01*
X68333068Y-100811302D01*
X68037000Y-100811542D01*
X67731579Y-100811659D01*
X67603424Y-100811671D01*
X64503470Y-100811671D01*
X64724553Y-100428347D01*
X64771356Y-100347180D01*
X64831602Y-100242666D01*
X64903278Y-100118301D01*
X64984369Y-99977582D01*
X65072862Y-99824003D01*
X65166740Y-99661062D01*
X65263991Y-99492254D01*
X65362600Y-99321075D01*
X65460553Y-99151021D01*
X65485325Y-99108012D01*
X65575652Y-98951357D01*
X65661789Y-98802303D01*
X65742442Y-98663068D01*
X65816316Y-98535871D01*
X65882117Y-98422932D01*
X65938550Y-98326468D01*
X65984321Y-98248700D01*
X66018135Y-98191846D01*
X66038698Y-98158125D01*
X66044453Y-98149540D01*
X66056558Y-98142689D01*
X66076594Y-98144658D01*
G37*
X66076594Y-98144658D02*
X66109119Y-98157236D01*
X66158693Y-98182212D01*
X66229874Y-98221376D01*
X66235416Y-98224488D01*
X66300974Y-98261976D01*
X66356298Y-98294819D01*
X66395955Y-98319705D01*
X66414512Y-98333320D01*
X66415031Y-98333987D01*
X66410548Y-98352890D01*
X66389986Y-98395105D01*
X66354683Y-98458332D01*
X66305980Y-98540272D01*
X66245218Y-98638622D01*
X66173736Y-98751085D01*
X66155945Y-98778665D01*
X66109593Y-98855199D01*
X66075842Y-98921056D01*
X66057653Y-98970282D01*
X66055786Y-98980007D01*
X66056615Y-99022812D01*
X66065894Y-99090709D01*
X66082468Y-99179343D01*
X66105180Y-99284359D01*
X66132873Y-99401402D01*
X66164390Y-99526116D01*
X66198575Y-99654145D01*
X66234271Y-99781134D01*
X66270321Y-99902728D01*
X66305568Y-100014572D01*
X66338856Y-100112310D01*
X66369028Y-100191587D01*
X66390061Y-100238622D01*
X66414837Y-100288725D01*
X66438230Y-100336668D01*
X66439497Y-100339293D01*
X66478199Y-100387720D01*
X66534684Y-100420328D01*
X66600439Y-100435954D01*
X66666951Y-100433437D01*
X66725705Y-100411614D01*
X66758758Y-100382882D01*
X66806359Y-100304083D01*
X66841239Y-100205878D01*
X66860377Y-100098279D01*
X66863088Y-100037280D01*
X66852170Y-99923435D01*
X66820124Y-99829160D01*
X66765226Y-99749879D01*
X66748107Y-99732233D01*
X66697161Y-99682735D01*
X66693663Y-99332862D01*
X66690164Y-98982989D01*
X66779318Y-98848031D01*
X66821154Y-98786945D01*
X66861445Y-98731993D01*
X66894443Y-98690836D01*
X66908626Y-98675692D01*
X66948781Y-98638310D01*
X67003165Y-98667598D01*
X67037539Y-98688584D01*
X67056346Y-98704878D01*
X67057549Y-98707807D01*
X67070403Y-98720228D01*
X67092396Y-98729477D01*
X67113650Y-98737813D01*
X67146194Y-98753649D01*
X67192822Y-98778533D01*
X67256329Y-98814009D01*
X67339508Y-98861623D01*
X67445153Y-98922922D01*
X67502562Y-98956432D01*
X67570094Y-98996571D01*
X67614385Y-99025159D01*
X67639355Y-99045539D01*
X67648923Y-99061053D01*
X67647008Y-99075046D01*
X67645411Y-99078296D01*
X67629876Y-99098766D01*
X67596636Y-99137165D01*
X67549562Y-99189196D01*
X67492528Y-99250566D01*
X67443200Y-99302590D01*
X67329530Y-99426067D01*
X67240605Y-99533091D01*
X67175634Y-99624740D01*
X67133821Y-99702088D01*
X67119717Y-99741366D01*
X67113892Y-99775749D01*
X67107875Y-99834399D01*
X67102196Y-99910617D01*
X67097384Y-99997702D01*
X67095119Y-100052768D01*
X67091959Y-100147964D01*
X67090569Y-100217562D01*
X67091358Y-100266909D01*
X67094735Y-100301354D01*
X67101108Y-100326243D01*
X67110887Y-100346925D01*
X67118567Y-100359553D01*
X67162921Y-100408226D01*
X67220074Y-100442145D01*
X67280208Y-100456938D01*
X67325273Y-100451586D01*
X67366076Y-100428430D01*
X67417224Y-100386962D01*
X67471542Y-100334412D01*
X67521857Y-100278016D01*
X67560994Y-100225005D01*
X67575405Y-100199389D01*
X67596991Y-100164314D01*
X67636253Y-100110889D01*
X67689602Y-100043289D01*
X67753452Y-99965690D01*
X67824215Y-99882268D01*
X67898304Y-99797198D01*
X67972132Y-99714655D01*
X68042111Y-99638816D01*
X68104655Y-99573856D01*
X68153760Y-99526169D01*
X68208279Y-99478532D01*
X68254142Y-99443408D01*
X68286311Y-99424449D01*
X68296989Y-99422364D01*
X68313353Y-99430774D01*
X68354171Y-99453346D01*
X68417086Y-99488724D01*
X68499744Y-99535554D01*
X68599789Y-99592481D01*
X68714866Y-99658149D01*
X68842619Y-99731203D01*
X68980694Y-99810288D01*
X69126734Y-99894048D01*
X69278384Y-99981129D01*
X69433290Y-100070176D01*
X69589095Y-100159832D01*
X69743444Y-100248743D01*
X69893982Y-100335554D01*
X70038354Y-100418909D01*
X70174204Y-100497454D01*
X70299177Y-100569833D01*
X70410917Y-100634690D01*
X70507070Y-100690671D01*
X70585279Y-100736420D01*
X70643189Y-100770583D01*
X70678446Y-100791804D01*
X70688665Y-100798463D01*
X70674902Y-100799780D01*
X70631604Y-100801059D01*
X70560214Y-100802296D01*
X70462173Y-100803483D01*
X70338922Y-100804615D01*
X70191903Y-100805686D01*
X70022557Y-100806689D01*
X69832326Y-100807619D01*
X69622651Y-100808468D01*
X69394973Y-100809232D01*
X69150735Y-100809903D01*
X68891377Y-100810476D01*
X68618341Y-100810944D01*
X68333068Y-100811302D01*
X68037000Y-100811542D01*
X67731579Y-100811659D01*
X67603424Y-100811671D01*
X64503470Y-100811671D01*
X64724553Y-100428347D01*
X64771356Y-100347180D01*
X64831602Y-100242666D01*
X64903278Y-100118301D01*
X64984369Y-99977582D01*
X65072862Y-99824003D01*
X65166740Y-99661062D01*
X65263991Y-99492254D01*
X65362600Y-99321075D01*
X65460553Y-99151021D01*
X65485325Y-99108012D01*
X65575652Y-98951357D01*
X65661789Y-98802303D01*
X65742442Y-98663068D01*
X65816316Y-98535871D01*
X65882117Y-98422932D01*
X65938550Y-98326468D01*
X65984321Y-98248700D01*
X66018135Y-98191846D01*
X66038698Y-98158125D01*
X66044453Y-98149540D01*
X66056558Y-98142689D01*
X66076594Y-98144658D01*
%TO.C,TP2*%
G36*
X79411635Y-91066016D02*
G01*
X79529075Y-91066616D01*
X79628634Y-91067191D01*
X79711968Y-91067808D01*
X79780734Y-91068538D01*
X79836589Y-91069449D01*
X79881190Y-91070610D01*
X79916193Y-91072089D01*
X79943255Y-91073957D01*
X79964034Y-91076280D01*
X79980184Y-91079130D01*
X79993365Y-91082574D01*
X80005232Y-91086681D01*
X80016587Y-91091175D01*
X80082448Y-91127532D01*
X80134584Y-91177765D01*
X80172923Y-91241773D01*
X80197390Y-91319451D01*
X80202743Y-91350420D01*
X80206946Y-91428577D01*
X80198276Y-91503762D01*
X80177862Y-91572515D01*
X80146831Y-91631376D01*
X80106312Y-91676887D01*
X80092987Y-91687067D01*
X80070484Y-91703515D01*
X80056539Y-91715412D01*
X80054359Y-91718423D01*
X80061892Y-91725598D01*
X80081208Y-91737779D01*
X80090320Y-91742846D01*
X80131458Y-91775212D01*
X80163910Y-91821256D01*
X80180805Y-91863812D01*
X80183991Y-91884942D01*
X80186751Y-91921684D01*
X80188905Y-91970115D01*
X80190270Y-92026308D01*
X80190677Y-92077442D01*
X80190731Y-92255731D01*
X79926962Y-92255731D01*
X79926765Y-92140942D01*
X79925094Y-92055153D01*
X79920258Y-91987261D01*
X79912037Y-91935848D01*
X79900212Y-91899495D01*
X79885927Y-91878101D01*
X79872467Y-91867247D01*
X79854620Y-91858353D01*
X79830494Y-91851238D01*
X79798200Y-91845719D01*
X79755845Y-91841612D01*
X79701539Y-91838735D01*
X79633392Y-91836904D01*
X79549513Y-91835939D01*
X79448011Y-91835654D01*
X79135654Y-91835654D01*
X79135654Y-92255731D01*
X78862116Y-92255731D01*
X78862116Y-91581654D01*
X79135654Y-91581654D01*
X79482776Y-91581654D01*
X79579240Y-91581507D01*
X79658036Y-91581022D01*
X79721032Y-91580131D01*
X79770098Y-91578765D01*
X79807102Y-91576857D01*
X79833912Y-91574338D01*
X79852397Y-91571141D01*
X79863016Y-91567816D01*
X79898897Y-91543334D01*
X79922573Y-91507919D01*
X79933783Y-91466101D01*
X79932266Y-91422408D01*
X79917762Y-91381370D01*
X79890011Y-91347516D01*
X79876261Y-91337674D01*
X79866988Y-91332511D01*
X79856469Y-91328336D01*
X79842654Y-91325045D01*
X79823491Y-91322531D01*
X79796929Y-91320691D01*
X79760917Y-91319419D01*
X79713404Y-91318611D01*
X79652338Y-91318162D01*
X79575668Y-91317967D01*
X79489789Y-91317921D01*
X79135654Y-91317885D01*
X79135654Y-91581654D01*
X78862116Y-91581654D01*
X78862116Y-91063263D01*
X79411635Y-91066016D01*
G37*
X79411635Y-91066016D02*
X79529075Y-91066616D01*
X79628634Y-91067191D01*
X79711968Y-91067808D01*
X79780734Y-91068538D01*
X79836589Y-91069449D01*
X79881190Y-91070610D01*
X79916193Y-91072089D01*
X79943255Y-91073957D01*
X79964034Y-91076280D01*
X79980184Y-91079130D01*
X79993365Y-91082574D01*
X80005232Y-91086681D01*
X80016587Y-91091175D01*
X80082448Y-91127532D01*
X80134584Y-91177765D01*
X80172923Y-91241773D01*
X80197390Y-91319451D01*
X80202743Y-91350420D01*
X80206946Y-91428577D01*
X80198276Y-91503762D01*
X80177862Y-91572515D01*
X80146831Y-91631376D01*
X80106312Y-91676887D01*
X80092987Y-91687067D01*
X80070484Y-91703515D01*
X80056539Y-91715412D01*
X80054359Y-91718423D01*
X80061892Y-91725598D01*
X80081208Y-91737779D01*
X80090320Y-91742846D01*
X80131458Y-91775212D01*
X80163910Y-91821256D01*
X80180805Y-91863812D01*
X80183991Y-91884942D01*
X80186751Y-91921684D01*
X80188905Y-91970115D01*
X80190270Y-92026308D01*
X80190677Y-92077442D01*
X80190731Y-92255731D01*
X79926962Y-92255731D01*
X79926765Y-92140942D01*
X79925094Y-92055153D01*
X79920258Y-91987261D01*
X79912037Y-91935848D01*
X79900212Y-91899495D01*
X79885927Y-91878101D01*
X79872467Y-91867247D01*
X79854620Y-91858353D01*
X79830494Y-91851238D01*
X79798200Y-91845719D01*
X79755845Y-91841612D01*
X79701539Y-91838735D01*
X79633392Y-91836904D01*
X79549513Y-91835939D01*
X79448011Y-91835654D01*
X79135654Y-91835654D01*
X79135654Y-92255731D01*
X78862116Y-92255731D01*
X78862116Y-91581654D01*
X79135654Y-91581654D01*
X79482776Y-91581654D01*
X79579240Y-91581507D01*
X79658036Y-91581022D01*
X79721032Y-91580131D01*
X79770098Y-91578765D01*
X79807102Y-91576857D01*
X79833912Y-91574338D01*
X79852397Y-91571141D01*
X79863016Y-91567816D01*
X79898897Y-91543334D01*
X79922573Y-91507919D01*
X79933783Y-91466101D01*
X79932266Y-91422408D01*
X79917762Y-91381370D01*
X79890011Y-91347516D01*
X79876261Y-91337674D01*
X79866988Y-91332511D01*
X79856469Y-91328336D01*
X79842654Y-91325045D01*
X79823491Y-91322531D01*
X79796929Y-91320691D01*
X79760917Y-91319419D01*
X79713404Y-91318611D01*
X79652338Y-91318162D01*
X79575668Y-91317967D01*
X79489789Y-91317921D01*
X79135654Y-91317885D01*
X79135654Y-91581654D01*
X78862116Y-91581654D01*
X78862116Y-91063263D01*
X79411635Y-91066016D01*
G36*
X79135654Y-92928271D02*
G01*
X79135672Y-93028300D01*
X79135790Y-93110715D01*
X79136103Y-93177443D01*
X79136706Y-93230409D01*
X79137696Y-93271539D01*
X79139167Y-93302757D01*
X79141215Y-93325990D01*
X79143936Y-93343163D01*
X79147425Y-93356201D01*
X79151778Y-93367030D01*
X79157089Y-93377575D01*
X79158023Y-93379342D01*
X79190110Y-93421419D01*
X79219080Y-93441936D01*
X79230399Y-93447404D01*
X79242781Y-93451823D01*
X79258386Y-93455328D01*
X79279377Y-93458053D01*
X79307915Y-93460132D01*
X79346162Y-93461701D01*
X79396280Y-93462894D01*
X79460430Y-93463844D01*
X79540773Y-93464686D01*
X79592366Y-93465150D01*
X79926962Y-93468069D01*
X79926962Y-92519500D01*
X80190731Y-92519500D01*
X80190731Y-93721116D01*
X79714481Y-93720234D01*
X79588518Y-93719810D01*
X79480995Y-93719023D01*
X79390816Y-93717846D01*
X79316885Y-93716251D01*
X79258106Y-93714213D01*
X79213384Y-93711704D01*
X79181622Y-93708698D01*
X79169672Y-93706894D01*
X79085319Y-93684367D01*
X79015924Y-93649661D01*
X78960464Y-93601842D01*
X78917919Y-93539972D01*
X78887265Y-93463117D01*
X78881821Y-93443343D01*
X78877028Y-93423470D01*
X78873078Y-93403468D01*
X78869890Y-93381285D01*
X78867384Y-93354869D01*
X78865477Y-93322168D01*
X78864091Y-93281130D01*
X78863143Y-93229703D01*
X78862554Y-93165836D01*
X78862241Y-93087477D01*
X78862125Y-92992572D01*
X78862116Y-92942899D01*
X78862116Y-92519500D01*
X79135654Y-92519500D01*
X79135654Y-92928271D01*
G37*
X79135654Y-92928271D02*
X79135672Y-93028300D01*
X79135790Y-93110715D01*
X79136103Y-93177443D01*
X79136706Y-93230409D01*
X79137696Y-93271539D01*
X79139167Y-93302757D01*
X79141215Y-93325990D01*
X79143936Y-93343163D01*
X79147425Y-93356201D01*
X79151778Y-93367030D01*
X79157089Y-93377575D01*
X79158023Y-93379342D01*
X79190110Y-93421419D01*
X79219080Y-93441936D01*
X79230399Y-93447404D01*
X79242781Y-93451823D01*
X79258386Y-93455328D01*
X79279377Y-93458053D01*
X79307915Y-93460132D01*
X79346162Y-93461701D01*
X79396280Y-93462894D01*
X79460430Y-93463844D01*
X79540773Y-93464686D01*
X79592366Y-93465150D01*
X79926962Y-93468069D01*
X79926962Y-92519500D01*
X80190731Y-92519500D01*
X80190731Y-93721116D01*
X79714481Y-93720234D01*
X79588518Y-93719810D01*
X79480995Y-93719023D01*
X79390816Y-93717846D01*
X79316885Y-93716251D01*
X79258106Y-93714213D01*
X79213384Y-93711704D01*
X79181622Y-93708698D01*
X79169672Y-93706894D01*
X79085319Y-93684367D01*
X79015924Y-93649661D01*
X78960464Y-93601842D01*
X78917919Y-93539972D01*
X78887265Y-93463117D01*
X78881821Y-93443343D01*
X78877028Y-93423470D01*
X78873078Y-93403468D01*
X78869890Y-93381285D01*
X78867384Y-93354869D01*
X78865477Y-93322168D01*
X78864091Y-93281130D01*
X78863143Y-93229703D01*
X78862554Y-93165836D01*
X78862241Y-93087477D01*
X78862125Y-92992572D01*
X78862116Y-92942899D01*
X78862116Y-92519500D01*
X79135654Y-92519500D01*
X79135654Y-92928271D01*
G36*
X90216592Y-91068918D02*
G01*
X90299522Y-91069617D01*
X90367207Y-91071245D01*
X90421794Y-91074182D01*
X90465427Y-91078807D01*
X90500254Y-91085499D01*
X90528421Y-91094637D01*
X90552073Y-91106601D01*
X90573358Y-91121770D01*
X90594421Y-91140523D01*
X90610253Y-91156055D01*
X90631629Y-91178100D01*
X90649199Y-91198848D01*
X90663338Y-91220427D01*
X90674415Y-91244965D01*
X90682804Y-91274589D01*
X90688878Y-91311427D01*
X90693008Y-91357607D01*
X90695566Y-91415256D01*
X90696925Y-91486503D01*
X90697458Y-91573474D01*
X90697539Y-91654923D01*
X90697488Y-91744707D01*
X90697251Y-91817236D01*
X90696702Y-91874793D01*
X90695718Y-91919660D01*
X90694172Y-91954122D01*
X90691939Y-91980460D01*
X90688894Y-92000959D01*
X90684913Y-92017901D01*
X90679869Y-92033570D01*
X90676232Y-92043435D01*
X90642771Y-92110871D01*
X90598046Y-92163942D01*
X90540418Y-92203975D01*
X90468248Y-92232296D01*
X90431624Y-92241356D01*
X90397559Y-92246149D01*
X90347732Y-92249946D01*
X90285786Y-92252749D01*
X90215363Y-92254557D01*
X90140105Y-92255373D01*
X90063655Y-92255197D01*
X89989654Y-92254030D01*
X89921745Y-92251873D01*
X89863570Y-92248727D01*
X89818771Y-92244593D01*
X89797683Y-92241190D01*
X89718266Y-92216459D01*
X89653894Y-92179609D01*
X89603674Y-92129724D01*
X89566715Y-92065888D01*
X89542123Y-91987186D01*
X89539989Y-91976847D01*
X89536143Y-91946138D01*
X89533428Y-91898541D01*
X89531830Y-91833445D01*
X89531338Y-91750391D01*
X89798670Y-91750391D01*
X89799544Y-91823356D01*
X89803151Y-91880607D01*
X89811247Y-91924048D01*
X89825593Y-91955584D01*
X89847946Y-91977120D01*
X89880066Y-91990559D01*
X89923709Y-91997806D01*
X89980635Y-92000765D01*
X90052603Y-92001341D01*
X90114141Y-92001348D01*
X90191599Y-92001168D01*
X90251875Y-92000236D01*
X90297313Y-91998428D01*
X90330259Y-91995617D01*
X90353059Y-91991677D01*
X90365050Y-91987847D01*
X90384475Y-91978671D01*
X90399858Y-91967704D01*
X90411666Y-91952707D01*
X90420369Y-91931440D01*
X90426434Y-91901665D01*
X90430331Y-91861143D01*
X90432527Y-91807635D01*
X90433492Y-91738901D01*
X90433695Y-91659808D01*
X90433777Y-91569092D01*
X90432845Y-91496000D01*
X90429136Y-91438634D01*
X90420888Y-91395092D01*
X90406335Y-91363476D01*
X90383716Y-91341887D01*
X90351266Y-91328423D01*
X90307221Y-91321186D01*
X90249819Y-91318277D01*
X90177296Y-91317795D01*
X90116270Y-91317885D01*
X90032034Y-91317798D01*
X89964163Y-91318804D01*
X89910895Y-91322803D01*
X89870463Y-91331695D01*
X89841106Y-91347378D01*
X89821058Y-91371753D01*
X89808557Y-91406719D01*
X89801837Y-91454176D01*
X89799135Y-91516024D01*
X89798687Y-91594162D01*
X89798770Y-91659808D01*
X89798670Y-91750391D01*
X89531338Y-91750391D01*
X89531337Y-91750239D01*
X89531935Y-91648309D01*
X89532302Y-91615846D01*
X89533672Y-91519836D01*
X89535475Y-91441090D01*
X89538159Y-91377334D01*
X89542169Y-91326295D01*
X89547952Y-91285697D01*
X89555956Y-91253268D01*
X89566626Y-91226732D01*
X89580411Y-91203816D01*
X89597756Y-91182246D01*
X89619108Y-91159748D01*
X89622588Y-91156249D01*
X89644898Y-91134669D01*
X89666083Y-91116958D01*
X89688293Y-91102735D01*
X89713680Y-91091619D01*
X89744394Y-91083229D01*
X89782587Y-91077183D01*
X89830408Y-91073100D01*
X89890009Y-91070600D01*
X89963541Y-91069301D01*
X90053154Y-91068822D01*
X90116270Y-91068769D01*
X90216592Y-91068918D01*
G37*
X90216592Y-91068918D02*
X90299522Y-91069617D01*
X90367207Y-91071245D01*
X90421794Y-91074182D01*
X90465427Y-91078807D01*
X90500254Y-91085499D01*
X90528421Y-91094637D01*
X90552073Y-91106601D01*
X90573358Y-91121770D01*
X90594421Y-91140523D01*
X90610253Y-91156055D01*
X90631629Y-91178100D01*
X90649199Y-91198848D01*
X90663338Y-91220427D01*
X90674415Y-91244965D01*
X90682804Y-91274589D01*
X90688878Y-91311427D01*
X90693008Y-91357607D01*
X90695566Y-91415256D01*
X90696925Y-91486503D01*
X90697458Y-91573474D01*
X90697539Y-91654923D01*
X90697488Y-91744707D01*
X90697251Y-91817236D01*
X90696702Y-91874793D01*
X90695718Y-91919660D01*
X90694172Y-91954122D01*
X90691939Y-91980460D01*
X90688894Y-92000959D01*
X90684913Y-92017901D01*
X90679869Y-92033570D01*
X90676232Y-92043435D01*
X90642771Y-92110871D01*
X90598046Y-92163942D01*
X90540418Y-92203975D01*
X90468248Y-92232296D01*
X90431624Y-92241356D01*
X90397559Y-92246149D01*
X90347732Y-92249946D01*
X90285786Y-92252749D01*
X90215363Y-92254557D01*
X90140105Y-92255373D01*
X90063655Y-92255197D01*
X89989654Y-92254030D01*
X89921745Y-92251873D01*
X89863570Y-92248727D01*
X89818771Y-92244593D01*
X89797683Y-92241190D01*
X89718266Y-92216459D01*
X89653894Y-92179609D01*
X89603674Y-92129724D01*
X89566715Y-92065888D01*
X89542123Y-91987186D01*
X89539989Y-91976847D01*
X89536143Y-91946138D01*
X89533428Y-91898541D01*
X89531830Y-91833445D01*
X89531338Y-91750391D01*
X89798670Y-91750391D01*
X89799544Y-91823356D01*
X89803151Y-91880607D01*
X89811247Y-91924048D01*
X89825593Y-91955584D01*
X89847946Y-91977120D01*
X89880066Y-91990559D01*
X89923709Y-91997806D01*
X89980635Y-92000765D01*
X90052603Y-92001341D01*
X90114141Y-92001348D01*
X90191599Y-92001168D01*
X90251875Y-92000236D01*
X90297313Y-91998428D01*
X90330259Y-91995617D01*
X90353059Y-91991677D01*
X90365050Y-91987847D01*
X90384475Y-91978671D01*
X90399858Y-91967704D01*
X90411666Y-91952707D01*
X90420369Y-91931440D01*
X90426434Y-91901665D01*
X90430331Y-91861143D01*
X90432527Y-91807635D01*
X90433492Y-91738901D01*
X90433695Y-91659808D01*
X90433777Y-91569092D01*
X90432845Y-91496000D01*
X90429136Y-91438634D01*
X90420888Y-91395092D01*
X90406335Y-91363476D01*
X90383716Y-91341887D01*
X90351266Y-91328423D01*
X90307221Y-91321186D01*
X90249819Y-91318277D01*
X90177296Y-91317795D01*
X90116270Y-91317885D01*
X90032034Y-91317798D01*
X89964163Y-91318804D01*
X89910895Y-91322803D01*
X89870463Y-91331695D01*
X89841106Y-91347378D01*
X89821058Y-91371753D01*
X89808557Y-91406719D01*
X89801837Y-91454176D01*
X89799135Y-91516024D01*
X89798687Y-91594162D01*
X89798770Y-91659808D01*
X89798670Y-91750391D01*
X89531338Y-91750391D01*
X89531337Y-91750239D01*
X89531935Y-91648309D01*
X89532302Y-91615846D01*
X89533672Y-91519836D01*
X89535475Y-91441090D01*
X89538159Y-91377334D01*
X89542169Y-91326295D01*
X89547952Y-91285697D01*
X89555956Y-91253268D01*
X89566626Y-91226732D01*
X89580411Y-91203816D01*
X89597756Y-91182246D01*
X89619108Y-91159748D01*
X89622588Y-91156249D01*
X89644898Y-91134669D01*
X89666083Y-91116958D01*
X89688293Y-91102735D01*
X89713680Y-91091619D01*
X89744394Y-91083229D01*
X89782587Y-91077183D01*
X89830408Y-91073100D01*
X89890009Y-91070600D01*
X89963541Y-91069301D01*
X90053154Y-91068822D01*
X90116270Y-91068769D01*
X90216592Y-91068918D01*
G36*
X88445731Y-91523039D02*
G01*
X89031885Y-91523039D01*
X89031885Y-91063885D01*
X89305423Y-91063885D01*
X89305423Y-92255731D01*
X89031885Y-92255731D01*
X89031885Y-91777039D01*
X88445731Y-91777039D01*
X88445731Y-92255731D01*
X88172193Y-92255731D01*
X88172193Y-91063885D01*
X88445731Y-91063885D01*
X88445731Y-91523039D01*
G37*
X88445731Y-91523039D02*
X89031885Y-91523039D01*
X89031885Y-91063885D01*
X89305423Y-91063885D01*
X89305423Y-92255731D01*
X89031885Y-92255731D01*
X89031885Y-91777039D01*
X88445731Y-91777039D01*
X88445731Y-92255731D01*
X88172193Y-92255731D01*
X88172193Y-91063885D01*
X88445731Y-91063885D01*
X88445731Y-91523039D01*
G36*
X87927962Y-92255731D02*
G01*
X87654828Y-92255731D01*
X87652183Y-92057904D01*
X87649539Y-91860077D01*
X87063385Y-91860077D01*
X87060740Y-92057904D01*
X87058096Y-92255731D01*
X86793855Y-92255731D01*
X86797012Y-91784366D01*
X86797815Y-91667909D01*
X86798702Y-91569239D01*
X86798715Y-91568359D01*
X87059258Y-91568359D01*
X87060710Y-91591033D01*
X87061746Y-91595560D01*
X87065156Y-91600059D01*
X87072906Y-91603569D01*
X87087059Y-91606180D01*
X87109680Y-91607983D01*
X87142832Y-91609071D01*
X87188580Y-91609532D01*
X87248986Y-91609460D01*
X87326115Y-91608944D01*
X87358654Y-91608665D01*
X87649539Y-91606077D01*
X87652242Y-91461981D01*
X87654946Y-91317885D01*
X87408012Y-91317900D01*
X87318274Y-91318161D01*
X87246083Y-91319605D01*
X87189447Y-91323237D01*
X87146374Y-91330063D01*
X87114874Y-91341089D01*
X87092954Y-91357323D01*
X87078624Y-91379770D01*
X87069892Y-91409437D01*
X87064767Y-91447330D01*
X87061347Y-91493082D01*
X87059463Y-91533881D01*
X87059258Y-91568359D01*
X86798715Y-91568359D01*
X86799925Y-91486607D01*
X86801733Y-91418262D01*
X86804377Y-91362454D01*
X86808108Y-91317432D01*
X86813175Y-91281447D01*
X86819830Y-91252748D01*
X86828322Y-91229584D01*
X86838902Y-91210206D01*
X86851821Y-91192863D01*
X86867328Y-91175805D01*
X86885675Y-91157281D01*
X86886902Y-91156055D01*
X86906107Y-91137061D01*
X86923754Y-91121075D01*
X86941661Y-91107824D01*
X86961643Y-91097037D01*
X86985516Y-91088439D01*
X87015097Y-91081760D01*
X87052201Y-91076726D01*
X87098644Y-91073065D01*
X87156244Y-91070504D01*
X87226816Y-91068771D01*
X87312176Y-91067593D01*
X87414140Y-91066698D01*
X87485904Y-91066169D01*
X87927962Y-91062959D01*
X87927962Y-92255731D01*
G37*
X87927962Y-92255731D02*
X87654828Y-92255731D01*
X87652183Y-92057904D01*
X87649539Y-91860077D01*
X87063385Y-91860077D01*
X87060740Y-92057904D01*
X87058096Y-92255731D01*
X86793855Y-92255731D01*
X86797012Y-91784366D01*
X86797815Y-91667909D01*
X86798702Y-91569239D01*
X86798715Y-91568359D01*
X87059258Y-91568359D01*
X87060710Y-91591033D01*
X87061746Y-91595560D01*
X87065156Y-91600059D01*
X87072906Y-91603569D01*
X87087059Y-91606180D01*
X87109680Y-91607983D01*
X87142832Y-91609071D01*
X87188580Y-91609532D01*
X87248986Y-91609460D01*
X87326115Y-91608944D01*
X87358654Y-91608665D01*
X87649539Y-91606077D01*
X87652242Y-91461981D01*
X87654946Y-91317885D01*
X87408012Y-91317900D01*
X87318274Y-91318161D01*
X87246083Y-91319605D01*
X87189447Y-91323237D01*
X87146374Y-91330063D01*
X87114874Y-91341089D01*
X87092954Y-91357323D01*
X87078624Y-91379770D01*
X87069892Y-91409437D01*
X87064767Y-91447330D01*
X87061347Y-91493082D01*
X87059463Y-91533881D01*
X87059258Y-91568359D01*
X86798715Y-91568359D01*
X86799925Y-91486607D01*
X86801733Y-91418262D01*
X86804377Y-91362454D01*
X86808108Y-91317432D01*
X86813175Y-91281447D01*
X86819830Y-91252748D01*
X86828322Y-91229584D01*
X86838902Y-91210206D01*
X86851821Y-91192863D01*
X86867328Y-91175805D01*
X86885675Y-91157281D01*
X86886902Y-91156055D01*
X86906107Y-91137061D01*
X86923754Y-91121075D01*
X86941661Y-91107824D01*
X86961643Y-91097037D01*
X86985516Y-91088439D01*
X87015097Y-91081760D01*
X87052201Y-91076726D01*
X87098644Y-91073065D01*
X87156244Y-91070504D01*
X87226816Y-91068771D01*
X87312176Y-91067593D01*
X87414140Y-91066698D01*
X87485904Y-91066169D01*
X87927962Y-91062959D01*
X87927962Y-92255731D01*
G36*
X85173039Y-91317885D02*
G01*
X84778021Y-91317885D01*
X84678246Y-91318127D01*
X84589119Y-91318831D01*
X84512166Y-91319961D01*
X84448911Y-91321482D01*
X84400881Y-91323359D01*
X84369601Y-91325557D01*
X84357471Y-91327592D01*
X84331992Y-91347437D01*
X84314169Y-91383511D01*
X84304819Y-91433743D01*
X84303577Y-91464109D01*
X84303577Y-91523039D01*
X84977654Y-91523039D01*
X84977654Y-91777039D01*
X84303577Y-91777039D01*
X84303577Y-91845737D01*
X84308002Y-91907838D01*
X84321098Y-91953966D01*
X84342594Y-91983389D01*
X84357471Y-91992024D01*
X84373722Y-91994450D01*
X84408008Y-91996587D01*
X84458828Y-91998400D01*
X84524680Y-91999854D01*
X84604063Y-92000916D01*
X84695475Y-92001552D01*
X84782906Y-92001731D01*
X85182808Y-92001731D01*
X85182808Y-92255731D01*
X84755404Y-92254661D01*
X84664165Y-92254242D01*
X84577587Y-92253481D01*
X84497926Y-92252425D01*
X84427436Y-92251118D01*
X84368372Y-92249607D01*
X84322989Y-92247939D01*
X84293542Y-92246158D01*
X84284481Y-92245059D01*
X84229544Y-92228789D01*
X84176011Y-92203335D01*
X84130656Y-92172344D01*
X84108043Y-92150091D01*
X84089602Y-92121793D01*
X84070740Y-92083230D01*
X84056555Y-92045692D01*
X84050538Y-92025728D01*
X84045751Y-92006418D01*
X84042054Y-91985298D01*
X84039307Y-91959900D01*
X84037371Y-91927758D01*
X84036104Y-91886406D01*
X84035368Y-91833376D01*
X84035021Y-91766203D01*
X84034925Y-91682420D01*
X84034923Y-91664692D01*
X84035141Y-91567102D01*
X84035959Y-91486746D01*
X84037625Y-91421325D01*
X84040389Y-91368540D01*
X84044499Y-91326089D01*
X84050203Y-91291673D01*
X84057749Y-91262991D01*
X84067387Y-91237743D01*
X84079365Y-91213630D01*
X84084673Y-91204126D01*
X84118057Y-91158149D01*
X84161488Y-91122322D01*
X84219514Y-91092939D01*
X84222829Y-91091594D01*
X84236475Y-91086266D01*
X84249794Y-91081833D01*
X84264668Y-91078197D01*
X84282981Y-91075263D01*
X84306612Y-91072934D01*
X84337446Y-91071115D01*
X84377363Y-91069709D01*
X84428246Y-91068619D01*
X84491977Y-91067751D01*
X84570438Y-91067006D01*
X84665511Y-91066290D01*
X84726097Y-91065870D01*
X85173039Y-91062802D01*
X85173039Y-91317885D01*
G37*
X85173039Y-91317885D02*
X84778021Y-91317885D01*
X84678246Y-91318127D01*
X84589119Y-91318831D01*
X84512166Y-91319961D01*
X84448911Y-91321482D01*
X84400881Y-91323359D01*
X84369601Y-91325557D01*
X84357471Y-91327592D01*
X84331992Y-91347437D01*
X84314169Y-91383511D01*
X84304819Y-91433743D01*
X84303577Y-91464109D01*
X84303577Y-91523039D01*
X84977654Y-91523039D01*
X84977654Y-91777039D01*
X84303577Y-91777039D01*
X84303577Y-91845737D01*
X84308002Y-91907838D01*
X84321098Y-91953966D01*
X84342594Y-91983389D01*
X84357471Y-91992024D01*
X84373722Y-91994450D01*
X84408008Y-91996587D01*
X84458828Y-91998400D01*
X84524680Y-91999854D01*
X84604063Y-92000916D01*
X84695475Y-92001552D01*
X84782906Y-92001731D01*
X85182808Y-92001731D01*
X85182808Y-92255731D01*
X84755404Y-92254661D01*
X84664165Y-92254242D01*
X84577587Y-92253481D01*
X84497926Y-92252425D01*
X84427436Y-92251118D01*
X84368372Y-92249607D01*
X84322989Y-92247939D01*
X84293542Y-92246158D01*
X84284481Y-92245059D01*
X84229544Y-92228789D01*
X84176011Y-92203335D01*
X84130656Y-92172344D01*
X84108043Y-92150091D01*
X84089602Y-92121793D01*
X84070740Y-92083230D01*
X84056555Y-92045692D01*
X84050538Y-92025728D01*
X84045751Y-92006418D01*
X84042054Y-91985298D01*
X84039307Y-91959900D01*
X84037371Y-91927758D01*
X84036104Y-91886406D01*
X84035368Y-91833376D01*
X84035021Y-91766203D01*
X84034925Y-91682420D01*
X84034923Y-91664692D01*
X84035141Y-91567102D01*
X84035959Y-91486746D01*
X84037625Y-91421325D01*
X84040389Y-91368540D01*
X84044499Y-91326089D01*
X84050203Y-91291673D01*
X84057749Y-91262991D01*
X84067387Y-91237743D01*
X84079365Y-91213630D01*
X84084673Y-91204126D01*
X84118057Y-91158149D01*
X84161488Y-91122322D01*
X84219514Y-91092939D01*
X84222829Y-91091594D01*
X84236475Y-91086266D01*
X84249794Y-91081833D01*
X84264668Y-91078197D01*
X84282981Y-91075263D01*
X84306612Y-91072934D01*
X84337446Y-91071115D01*
X84377363Y-91069709D01*
X84428246Y-91068619D01*
X84491977Y-91067751D01*
X84570438Y-91067006D01*
X84665511Y-91066290D01*
X84726097Y-91065870D01*
X85173039Y-91062802D01*
X85173039Y-91317885D01*
G36*
X82368925Y-91119535D02*
G01*
X82367720Y-91169114D01*
X82364892Y-91226784D01*
X82360818Y-91287970D01*
X82355876Y-91348100D01*
X82350443Y-91402599D01*
X82344896Y-91446892D01*
X82339612Y-91476406D01*
X82339422Y-91477173D01*
X82327873Y-91523039D01*
X82095731Y-91523039D01*
X82095731Y-91317885D01*
X81826111Y-91317885D01*
X81737973Y-91318086D01*
X81667243Y-91318940D01*
X81611792Y-91320827D01*
X81569490Y-91324125D01*
X81538210Y-91329212D01*
X81515822Y-91336466D01*
X81500198Y-91346266D01*
X81489209Y-91358991D01*
X81480726Y-91375018D01*
X81478729Y-91379628D01*
X81474359Y-91400125D01*
X81470801Y-91436733D01*
X81468057Y-91486055D01*
X81466132Y-91544694D01*
X81465029Y-91609255D01*
X81464753Y-91676339D01*
X81465306Y-91742550D01*
X81466692Y-91804491D01*
X81468916Y-91858765D01*
X81471981Y-91901976D01*
X81475890Y-91930727D01*
X81478113Y-91938502D01*
X81483994Y-91952119D01*
X81490264Y-91963434D01*
X81498678Y-91972684D01*
X81510995Y-91980103D01*
X81528970Y-91985928D01*
X81554360Y-91990394D01*
X81588923Y-91993738D01*
X81634416Y-91996195D01*
X81692594Y-91998000D01*
X81765216Y-91999390D01*
X81854038Y-92000601D01*
X81949193Y-92001731D01*
X82364385Y-92006616D01*
X82367119Y-92131173D01*
X82369853Y-92255731D01*
X81927504Y-92255168D01*
X81820698Y-92254961D01*
X81731500Y-92254591D01*
X81657980Y-92253991D01*
X81598207Y-92253092D01*
X81550251Y-92251828D01*
X81512183Y-92250130D01*
X81482071Y-92247932D01*
X81457985Y-92245165D01*
X81437995Y-92241762D01*
X81420171Y-92237656D01*
X81419048Y-92237365D01*
X81354407Y-92215384D01*
X81304756Y-92185727D01*
X81266104Y-92145345D01*
X81238471Y-92099423D01*
X81223885Y-92067206D01*
X81212154Y-92033325D01*
X81203045Y-91995418D01*
X81196326Y-91951123D01*
X81191763Y-91898079D01*
X81189122Y-91833924D01*
X81188172Y-91756296D01*
X81188679Y-91662832D01*
X81189503Y-91603255D01*
X81190915Y-91521846D01*
X81192394Y-91457237D01*
X81194150Y-91406691D01*
X81196395Y-91367471D01*
X81199341Y-91336839D01*
X81203200Y-91312059D01*
X81208184Y-91290393D01*
X81214503Y-91269102D01*
X81215618Y-91265656D01*
X81246502Y-91198649D01*
X81291328Y-91145229D01*
X81350684Y-91104771D01*
X81378603Y-91092087D01*
X81392200Y-91086743D01*
X81405283Y-91082278D01*
X81419685Y-91078601D01*
X81437244Y-91075620D01*
X81459793Y-91073243D01*
X81489170Y-91071378D01*
X81527208Y-91069934D01*
X81575744Y-91068819D01*
X81636614Y-91067941D01*
X81711652Y-91067208D01*
X81802694Y-91066528D01*
X81902789Y-91065866D01*
X82369270Y-91062840D01*
X82368925Y-91119535D01*
G37*
X82368925Y-91119535D02*
X82367720Y-91169114D01*
X82364892Y-91226784D01*
X82360818Y-91287970D01*
X82355876Y-91348100D01*
X82350443Y-91402599D01*
X82344896Y-91446892D01*
X82339612Y-91476406D01*
X82339422Y-91477173D01*
X82327873Y-91523039D01*
X82095731Y-91523039D01*
X82095731Y-91317885D01*
X81826111Y-91317885D01*
X81737973Y-91318086D01*
X81667243Y-91318940D01*
X81611792Y-91320827D01*
X81569490Y-91324125D01*
X81538210Y-91329212D01*
X81515822Y-91336466D01*
X81500198Y-91346266D01*
X81489209Y-91358991D01*
X81480726Y-91375018D01*
X81478729Y-91379628D01*
X81474359Y-91400125D01*
X81470801Y-91436733D01*
X81468057Y-91486055D01*
X81466132Y-91544694D01*
X81465029Y-91609255D01*
X81464753Y-91676339D01*
X81465306Y-91742550D01*
X81466692Y-91804491D01*
X81468916Y-91858765D01*
X81471981Y-91901976D01*
X81475890Y-91930727D01*
X81478113Y-91938502D01*
X81483994Y-91952119D01*
X81490264Y-91963434D01*
X81498678Y-91972684D01*
X81510995Y-91980103D01*
X81528970Y-91985928D01*
X81554360Y-91990394D01*
X81588923Y-91993738D01*
X81634416Y-91996195D01*
X81692594Y-91998000D01*
X81765216Y-91999390D01*
X81854038Y-92000601D01*
X81949193Y-92001731D01*
X82364385Y-92006616D01*
X82367119Y-92131173D01*
X82369853Y-92255731D01*
X81927504Y-92255168D01*
X81820698Y-92254961D01*
X81731500Y-92254591D01*
X81657980Y-92253991D01*
X81598207Y-92253092D01*
X81550251Y-92251828D01*
X81512183Y-92250130D01*
X81482071Y-92247932D01*
X81457985Y-92245165D01*
X81437995Y-92241762D01*
X81420171Y-92237656D01*
X81419048Y-92237365D01*
X81354407Y-92215384D01*
X81304756Y-92185727D01*
X81266104Y-92145345D01*
X81238471Y-92099423D01*
X81223885Y-92067206D01*
X81212154Y-92033325D01*
X81203045Y-91995418D01*
X81196326Y-91951123D01*
X81191763Y-91898079D01*
X81189122Y-91833924D01*
X81188172Y-91756296D01*
X81188679Y-91662832D01*
X81189503Y-91603255D01*
X81190915Y-91521846D01*
X81192394Y-91457237D01*
X81194150Y-91406691D01*
X81196395Y-91367471D01*
X81199341Y-91336839D01*
X81203200Y-91312059D01*
X81208184Y-91290393D01*
X81214503Y-91269102D01*
X81215618Y-91265656D01*
X81246502Y-91198649D01*
X81291328Y-91145229D01*
X81350684Y-91104771D01*
X81378603Y-91092087D01*
X81392200Y-91086743D01*
X81405283Y-91082278D01*
X81419685Y-91078601D01*
X81437244Y-91075620D01*
X81459793Y-91073243D01*
X81489170Y-91071378D01*
X81527208Y-91069934D01*
X81575744Y-91068819D01*
X81636614Y-91067941D01*
X81711652Y-91067208D01*
X81802694Y-91066528D01*
X81902789Y-91065866D01*
X82369270Y-91062840D01*
X82368925Y-91119535D01*
G36*
X86540731Y-92255731D02*
G01*
X86267193Y-92255731D01*
X86267193Y-91317885D01*
X86037616Y-91317885D01*
X85963080Y-91318062D01*
X85905974Y-91318675D01*
X85864192Y-91319850D01*
X85835628Y-91321710D01*
X85818176Y-91324380D01*
X85809730Y-91327984D01*
X85808039Y-91331432D01*
X85806986Y-91347726D01*
X85804059Y-91380220D01*
X85799603Y-91425699D01*
X85793964Y-91480950D01*
X85787487Y-91542762D01*
X85780518Y-91607920D01*
X85773403Y-91673212D01*
X85766488Y-91735424D01*
X85760117Y-91791344D01*
X85754637Y-91837758D01*
X85750393Y-91871454D01*
X85748542Y-91884500D01*
X85727811Y-91986021D01*
X85699684Y-92070028D01*
X85663517Y-92137341D01*
X85618667Y-92188781D01*
X85564490Y-92225167D01*
X85500343Y-92247319D01*
X85458822Y-92253917D01*
X85421574Y-92256958D01*
X85389449Y-92258212D01*
X85370866Y-92257531D01*
X85361850Y-92255480D01*
X85355712Y-92250233D01*
X85351900Y-92238559D01*
X85349860Y-92217228D01*
X85349040Y-92183010D01*
X85348885Y-92132673D01*
X85348885Y-92003905D01*
X85381515Y-91997784D01*
X85419620Y-91981698D01*
X85449933Y-91948728D01*
X85471285Y-91903760D01*
X85475869Y-91884350D01*
X85482218Y-91847763D01*
X85490023Y-91796251D01*
X85498971Y-91732066D01*
X85508752Y-91657459D01*
X85519055Y-91574682D01*
X85529569Y-91485987D01*
X85532327Y-91461981D01*
X85577770Y-91063885D01*
X86540731Y-91063885D01*
X86540731Y-92255731D01*
G37*
X86540731Y-92255731D02*
X86267193Y-92255731D01*
X86267193Y-91317885D01*
X86037616Y-91317885D01*
X85963080Y-91318062D01*
X85905974Y-91318675D01*
X85864192Y-91319850D01*
X85835628Y-91321710D01*
X85818176Y-91324380D01*
X85809730Y-91327984D01*
X85808039Y-91331432D01*
X85806986Y-91347726D01*
X85804059Y-91380220D01*
X85799603Y-91425699D01*
X85793964Y-91480950D01*
X85787487Y-91542762D01*
X85780518Y-91607920D01*
X85773403Y-91673212D01*
X85766488Y-91735424D01*
X85760117Y-91791344D01*
X85754637Y-91837758D01*
X85750393Y-91871454D01*
X85748542Y-91884500D01*
X85727811Y-91986021D01*
X85699684Y-92070028D01*
X85663517Y-92137341D01*
X85618667Y-92188781D01*
X85564490Y-92225167D01*
X85500343Y-92247319D01*
X85458822Y-92253917D01*
X85421574Y-92256958D01*
X85389449Y-92258212D01*
X85370866Y-92257531D01*
X85361850Y-92255480D01*
X85355712Y-92250233D01*
X85351900Y-92238559D01*
X85349860Y-92217228D01*
X85349040Y-92183010D01*
X85348885Y-92132673D01*
X85348885Y-92003905D01*
X85381515Y-91997784D01*
X85419620Y-91981698D01*
X85449933Y-91948728D01*
X85471285Y-91903760D01*
X85475869Y-91884350D01*
X85482218Y-91847763D01*
X85490023Y-91796251D01*
X85498971Y-91732066D01*
X85508752Y-91657459D01*
X85519055Y-91574682D01*
X85529569Y-91485987D01*
X85532327Y-91461981D01*
X85577770Y-91063885D01*
X86540731Y-91063885D01*
X86540731Y-92255731D01*
G36*
X83736962Y-92001731D02*
G01*
X83844423Y-92001731D01*
X83844423Y-92372962D01*
X83717610Y-92372962D01*
X83663975Y-92373048D01*
X83626751Y-92371856D01*
X83602832Y-92367205D01*
X83589111Y-92356918D01*
X83582481Y-92338816D01*
X83579835Y-92310721D01*
X83578302Y-92275269D01*
X83575770Y-92221539D01*
X83182558Y-92218985D01*
X82789347Y-92216432D01*
X82789347Y-92264168D01*
X82788049Y-92299985D01*
X82784792Y-92333103D01*
X82783241Y-92342433D01*
X82777135Y-92372962D01*
X82525577Y-92372962D01*
X82525577Y-92187346D01*
X82525669Y-92122855D01*
X82526120Y-92075322D01*
X82527197Y-92042169D01*
X82529164Y-92020815D01*
X82532286Y-92008681D01*
X82536828Y-92003189D01*
X82543056Y-92001757D01*
X82544656Y-92001731D01*
X82581283Y-91994016D01*
X82608764Y-91972727D01*
X82894450Y-91972727D01*
X83176494Y-91970133D01*
X83458539Y-91967539D01*
X83463687Y-91317537D01*
X82990033Y-91322769D01*
X82967813Y-91557231D01*
X82958078Y-91653028D01*
X82948380Y-91732772D01*
X82938135Y-91799940D01*
X82926757Y-91858007D01*
X82913661Y-91910449D01*
X82901584Y-91950594D01*
X82894450Y-91972727D01*
X82608764Y-91972727D01*
X82611948Y-91970261D01*
X82637336Y-91929547D01*
X82658133Y-91870954D01*
X82666074Y-91838966D01*
X82669509Y-91818479D01*
X82674578Y-91781376D01*
X82680973Y-91730483D01*
X82688382Y-91668626D01*
X82696498Y-91598630D01*
X82705009Y-91523320D01*
X82713606Y-91445523D01*
X82721979Y-91368064D01*
X82729819Y-91293769D01*
X82736815Y-91225463D01*
X82742658Y-91165972D01*
X82747038Y-91118121D01*
X82749645Y-91084737D01*
X82750250Y-91071212D01*
X82759717Y-91069784D01*
X82786881Y-91068449D01*
X82829902Y-91067232D01*
X82886940Y-91066162D01*
X82956154Y-91065266D01*
X83035703Y-91064571D01*
X83123748Y-91064105D01*
X83218446Y-91063894D01*
X83243616Y-91063885D01*
X83736962Y-91063885D01*
X83736962Y-92001731D01*
G37*
X83736962Y-92001731D02*
X83844423Y-92001731D01*
X83844423Y-92372962D01*
X83717610Y-92372962D01*
X83663975Y-92373048D01*
X83626751Y-92371856D01*
X83602832Y-92367205D01*
X83589111Y-92356918D01*
X83582481Y-92338816D01*
X83579835Y-92310721D01*
X83578302Y-92275269D01*
X83575770Y-92221539D01*
X83182558Y-92218985D01*
X82789347Y-92216432D01*
X82789347Y-92264168D01*
X82788049Y-92299985D01*
X82784792Y-92333103D01*
X82783241Y-92342433D01*
X82777135Y-92372962D01*
X82525577Y-92372962D01*
X82525577Y-92187346D01*
X82525669Y-92122855D01*
X82526120Y-92075322D01*
X82527197Y-92042169D01*
X82529164Y-92020815D01*
X82532286Y-92008681D01*
X82536828Y-92003189D01*
X82543056Y-92001757D01*
X82544656Y-92001731D01*
X82581283Y-91994016D01*
X82608764Y-91972727D01*
X82894450Y-91972727D01*
X83176494Y-91970133D01*
X83458539Y-91967539D01*
X83463687Y-91317537D01*
X82990033Y-91322769D01*
X82967813Y-91557231D01*
X82958078Y-91653028D01*
X82948380Y-91732772D01*
X82938135Y-91799940D01*
X82926757Y-91858007D01*
X82913661Y-91910449D01*
X82901584Y-91950594D01*
X82894450Y-91972727D01*
X82608764Y-91972727D01*
X82611948Y-91970261D01*
X82637336Y-91929547D01*
X82658133Y-91870954D01*
X82666074Y-91838966D01*
X82669509Y-91818479D01*
X82674578Y-91781376D01*
X82680973Y-91730483D01*
X82688382Y-91668626D01*
X82696498Y-91598630D01*
X82705009Y-91523320D01*
X82713606Y-91445523D01*
X82721979Y-91368064D01*
X82729819Y-91293769D01*
X82736815Y-91225463D01*
X82742658Y-91165972D01*
X82747038Y-91118121D01*
X82749645Y-91084737D01*
X82750250Y-91071212D01*
X82759717Y-91069784D01*
X82786881Y-91068449D01*
X82829902Y-91067232D01*
X82886940Y-91066162D01*
X82956154Y-91065266D01*
X83035703Y-91064571D01*
X83123748Y-91064105D01*
X83218446Y-91063894D01*
X83243616Y-91063885D01*
X83736962Y-91063885D01*
X83736962Y-92001731D01*
G36*
X89825528Y-92924473D02*
G01*
X89828077Y-93329447D01*
X90027656Y-93019723D01*
X90074271Y-92947651D01*
X90119084Y-92878872D01*
X90160640Y-92815582D01*
X90197487Y-92759973D01*
X90228171Y-92714239D01*
X90251237Y-92680575D01*
X90265233Y-92661173D01*
X90265248Y-92661154D01*
X90314287Y-92607880D01*
X90369141Y-92568249D01*
X90432630Y-92541096D01*
X90507578Y-92525254D01*
X90596804Y-92519558D01*
X90607974Y-92519500D01*
X90682885Y-92519500D01*
X90682885Y-93721116D01*
X90409556Y-93721116D01*
X90407009Y-93306285D01*
X90404462Y-92891455D01*
X89866428Y-93716231D01*
X89549654Y-93721599D01*
X89549654Y-92519500D01*
X89822978Y-92519500D01*
X89825528Y-92924473D01*
G37*
X89825528Y-92924473D02*
X89828077Y-93329447D01*
X90027656Y-93019723D01*
X90074271Y-92947651D01*
X90119084Y-92878872D01*
X90160640Y-92815582D01*
X90197487Y-92759973D01*
X90228171Y-92714239D01*
X90251237Y-92680575D01*
X90265233Y-92661173D01*
X90265248Y-92661154D01*
X90314287Y-92607880D01*
X90369141Y-92568249D01*
X90432630Y-92541096D01*
X90507578Y-92525254D01*
X90596804Y-92519558D01*
X90607974Y-92519500D01*
X90682885Y-92519500D01*
X90682885Y-93721116D01*
X90409556Y-93721116D01*
X90407009Y-93306285D01*
X90404462Y-92891455D01*
X89866428Y-93716231D01*
X89549654Y-93721599D01*
X89549654Y-92519500D01*
X89822978Y-92519500D01*
X89825528Y-92924473D01*
G36*
X88450616Y-93324136D02*
G01*
X88659754Y-92999595D01*
X88707266Y-92926249D01*
X88752868Y-92856573D01*
X88795171Y-92792637D01*
X88832788Y-92736509D01*
X88864330Y-92690259D01*
X88888407Y-92655956D01*
X88903632Y-92635669D01*
X88905398Y-92633583D01*
X88956530Y-92587236D01*
X89018124Y-92553399D01*
X89091927Y-92531456D01*
X89179683Y-92520794D01*
X89229064Y-92519500D01*
X89305423Y-92519500D01*
X89305423Y-93721116D01*
X89031885Y-93721116D01*
X89031885Y-92878035D01*
X88757043Y-93299575D01*
X88482202Y-93721116D01*
X88172193Y-93721116D01*
X88172193Y-92519500D01*
X88445514Y-92519500D01*
X88450616Y-93324136D01*
G37*
X88450616Y-93324136D02*
X88659754Y-92999595D01*
X88707266Y-92926249D01*
X88752868Y-92856573D01*
X88795171Y-92792637D01*
X88832788Y-92736509D01*
X88864330Y-92690259D01*
X88888407Y-92655956D01*
X88903632Y-92635669D01*
X88905398Y-92633583D01*
X88956530Y-92587236D01*
X89018124Y-92553399D01*
X89091927Y-92531456D01*
X89179683Y-92520794D01*
X89229064Y-92519500D01*
X89305423Y-92519500D01*
X89305423Y-93721116D01*
X89031885Y-93721116D01*
X89031885Y-92878035D01*
X88757043Y-93299575D01*
X88482202Y-93721116D01*
X88172193Y-93721116D01*
X88172193Y-92519500D01*
X88445514Y-92519500D01*
X88450616Y-93324136D01*
G36*
X87944347Y-92688019D02*
G01*
X87941579Y-92748529D01*
X87937794Y-92806911D01*
X87933382Y-92858378D01*
X87928735Y-92898142D01*
X87925835Y-92915154D01*
X87913308Y-92973769D01*
X87673962Y-92979255D01*
X87673962Y-92772140D01*
X87397526Y-92775263D01*
X87315726Y-92776290D01*
X87251144Y-92777419D01*
X87201460Y-92778809D01*
X87164356Y-92780622D01*
X87137511Y-92783017D01*
X87118606Y-92786155D01*
X87105320Y-92790196D01*
X87095334Y-92795300D01*
X87093864Y-92796241D01*
X87077983Y-92807920D01*
X87065416Y-92821309D01*
X87055815Y-92838672D01*
X87048831Y-92862273D01*
X87044115Y-92894374D01*
X87041319Y-92937239D01*
X87040095Y-92993131D01*
X87040094Y-93064315D01*
X87040821Y-93140724D01*
X87043847Y-93398321D01*
X87069173Y-93423631D01*
X87096239Y-93442995D01*
X87128868Y-93456822D01*
X87132673Y-93457795D01*
X87150744Y-93459759D01*
X87185997Y-93461583D01*
X87236078Y-93463217D01*
X87298633Y-93464612D01*
X87371305Y-93465717D01*
X87451739Y-93466482D01*
X87537581Y-93466856D01*
X87559173Y-93466882D01*
X87947500Y-93467116D01*
X87947500Y-93721116D01*
X87524981Y-93719924D01*
X87433542Y-93719475D01*
X87346159Y-93718680D01*
X87265207Y-93717589D01*
X87193059Y-93716249D01*
X87132088Y-93714707D01*
X87084669Y-93713012D01*
X87053174Y-93711210D01*
X87043847Y-93710243D01*
X86981845Y-93695566D01*
X86923486Y-93671314D01*
X86873873Y-93640164D01*
X86838109Y-93604793D01*
X86835312Y-93600866D01*
X86818856Y-93575908D01*
X86805433Y-93552472D01*
X86794737Y-93528283D01*
X86786458Y-93501063D01*
X86780289Y-93468535D01*
X86775922Y-93428425D01*
X86773049Y-93378455D01*
X86771362Y-93316348D01*
X86770553Y-93239829D01*
X86770315Y-93146621D01*
X86770308Y-93120308D01*
X86770391Y-93029541D01*
X86770713Y-92956043D01*
X86771382Y-92897547D01*
X86772508Y-92851782D01*
X86774199Y-92816480D01*
X86776564Y-92789374D01*
X86779713Y-92768194D01*
X86783754Y-92750671D01*
X86788796Y-92734537D01*
X86788835Y-92734423D01*
X86815320Y-92671953D01*
X86847657Y-92624863D01*
X86889115Y-92589164D01*
X86924246Y-92569332D01*
X86949423Y-92558093D01*
X86975775Y-92548651D01*
X87005186Y-92540853D01*
X87039540Y-92534548D01*
X87080719Y-92529585D01*
X87130607Y-92525813D01*
X87191088Y-92523079D01*
X87264045Y-92521234D01*
X87351361Y-92520125D01*
X87454919Y-92519600D01*
X87544200Y-92519500D01*
X87950333Y-92519500D01*
X87944347Y-92688019D01*
G37*
X87944347Y-92688019D02*
X87941579Y-92748529D01*
X87937794Y-92806911D01*
X87933382Y-92858378D01*
X87928735Y-92898142D01*
X87925835Y-92915154D01*
X87913308Y-92973769D01*
X87673962Y-92979255D01*
X87673962Y-92772140D01*
X87397526Y-92775263D01*
X87315726Y-92776290D01*
X87251144Y-92777419D01*
X87201460Y-92778809D01*
X87164356Y-92780622D01*
X87137511Y-92783017D01*
X87118606Y-92786155D01*
X87105320Y-92790196D01*
X87095334Y-92795300D01*
X87093864Y-92796241D01*
X87077983Y-92807920D01*
X87065416Y-92821309D01*
X87055815Y-92838672D01*
X87048831Y-92862273D01*
X87044115Y-92894374D01*
X87041319Y-92937239D01*
X87040095Y-92993131D01*
X87040094Y-93064315D01*
X87040821Y-93140724D01*
X87043847Y-93398321D01*
X87069173Y-93423631D01*
X87096239Y-93442995D01*
X87128868Y-93456822D01*
X87132673Y-93457795D01*
X87150744Y-93459759D01*
X87185997Y-93461583D01*
X87236078Y-93463217D01*
X87298633Y-93464612D01*
X87371305Y-93465717D01*
X87451739Y-93466482D01*
X87537581Y-93466856D01*
X87559173Y-93466882D01*
X87947500Y-93467116D01*
X87947500Y-93721116D01*
X87524981Y-93719924D01*
X87433542Y-93719475D01*
X87346159Y-93718680D01*
X87265207Y-93717589D01*
X87193059Y-93716249D01*
X87132088Y-93714707D01*
X87084669Y-93713012D01*
X87053174Y-93711210D01*
X87043847Y-93710243D01*
X86981845Y-93695566D01*
X86923486Y-93671314D01*
X86873873Y-93640164D01*
X86838109Y-93604793D01*
X86835312Y-93600866D01*
X86818856Y-93575908D01*
X86805433Y-93552472D01*
X86794737Y-93528283D01*
X86786458Y-93501063D01*
X86780289Y-93468535D01*
X86775922Y-93428425D01*
X86773049Y-93378455D01*
X86771362Y-93316348D01*
X86770553Y-93239829D01*
X86770315Y-93146621D01*
X86770308Y-93120308D01*
X86770391Y-93029541D01*
X86770713Y-92956043D01*
X86771382Y-92897547D01*
X86772508Y-92851782D01*
X86774199Y-92816480D01*
X86776564Y-92789374D01*
X86779713Y-92768194D01*
X86783754Y-92750671D01*
X86788796Y-92734537D01*
X86788835Y-92734423D01*
X86815320Y-92671953D01*
X86847657Y-92624863D01*
X86889115Y-92589164D01*
X86924246Y-92569332D01*
X86949423Y-92558093D01*
X86975775Y-92548651D01*
X87005186Y-92540853D01*
X87039540Y-92534548D01*
X87080719Y-92529585D01*
X87130607Y-92525813D01*
X87191088Y-92523079D01*
X87264045Y-92521234D01*
X87351361Y-92520125D01*
X87454919Y-92519600D01*
X87544200Y-92519500D01*
X87950333Y-92519500D01*
X87944347Y-92688019D01*
G36*
X86576577Y-92687246D02*
G01*
X86573742Y-92747867D01*
X86569923Y-92806344D01*
X86565511Y-92857911D01*
X86560894Y-92897799D01*
X86557978Y-92915154D01*
X86545616Y-92973769D01*
X86306270Y-92979255D01*
X86306270Y-92773500D01*
X86054712Y-92774286D01*
X85965047Y-92774890D01*
X85892744Y-92776289D01*
X85835632Y-92778794D01*
X85791542Y-92782715D01*
X85758302Y-92788362D01*
X85733743Y-92796045D01*
X85715694Y-92806075D01*
X85701984Y-92818762D01*
X85696608Y-92825481D01*
X85690283Y-92835002D01*
X85685364Y-92846111D01*
X85681634Y-92861320D01*
X85678879Y-92883142D01*
X85676883Y-92914087D01*
X85675430Y-92956668D01*
X85674305Y-93013397D01*
X85673292Y-93086786D01*
X85673141Y-93099019D01*
X85672381Y-93185295D01*
X85672667Y-93254341D01*
X85674336Y-93308453D01*
X85677722Y-93349928D01*
X85683162Y-93381061D01*
X85690991Y-93404147D01*
X85701545Y-93421484D01*
X85715160Y-93435367D01*
X85723260Y-93441759D01*
X85730541Y-93446745D01*
X85738937Y-93450866D01*
X85750298Y-93454220D01*
X85766473Y-93456905D01*
X85789313Y-93459019D01*
X85820669Y-93460660D01*
X85862389Y-93461926D01*
X85916324Y-93462914D01*
X85984324Y-93463724D01*
X86068239Y-93464452D01*
X86165318Y-93465164D01*
X86579808Y-93468097D01*
X86579808Y-93721116D01*
X86157289Y-93720234D01*
X86036077Y-93719740D01*
X85933385Y-93718784D01*
X85848202Y-93717341D01*
X85779513Y-93715381D01*
X85726307Y-93712878D01*
X85687570Y-93709804D01*
X85666088Y-93706873D01*
X85588987Y-93686378D01*
X85526899Y-93654904D01*
X85478616Y-93611129D01*
X85442929Y-93553730D01*
X85418628Y-93481386D01*
X85408251Y-93424889D01*
X85405170Y-93392457D01*
X85402444Y-93344544D01*
X85400216Y-93285207D01*
X85398624Y-93218504D01*
X85397808Y-93148490D01*
X85397731Y-93120308D01*
X85398492Y-93015981D01*
X85400909Y-92929032D01*
X85405180Y-92857355D01*
X85411507Y-92798843D01*
X85420089Y-92751390D01*
X85431125Y-92712889D01*
X85438059Y-92695346D01*
X85466952Y-92645996D01*
X85505760Y-92602373D01*
X85548431Y-92571257D01*
X85549154Y-92570876D01*
X85569026Y-92560883D01*
X85588464Y-92552488D01*
X85609341Y-92545531D01*
X85633527Y-92539855D01*
X85662897Y-92535304D01*
X85699321Y-92531719D01*
X85744672Y-92528944D01*
X85800823Y-92526819D01*
X85869645Y-92525189D01*
X85953011Y-92523896D01*
X86052793Y-92522781D01*
X86129484Y-92522059D01*
X86582814Y-92517953D01*
X86576577Y-92687246D01*
G37*
X86576577Y-92687246D02*
X86573742Y-92747867D01*
X86569923Y-92806344D01*
X86565511Y-92857911D01*
X86560894Y-92897799D01*
X86557978Y-92915154D01*
X86545616Y-92973769D01*
X86306270Y-92979255D01*
X86306270Y-92773500D01*
X86054712Y-92774286D01*
X85965047Y-92774890D01*
X85892744Y-92776289D01*
X85835632Y-92778794D01*
X85791542Y-92782715D01*
X85758302Y-92788362D01*
X85733743Y-92796045D01*
X85715694Y-92806075D01*
X85701984Y-92818762D01*
X85696608Y-92825481D01*
X85690283Y-92835002D01*
X85685364Y-92846111D01*
X85681634Y-92861320D01*
X85678879Y-92883142D01*
X85676883Y-92914087D01*
X85675430Y-92956668D01*
X85674305Y-93013397D01*
X85673292Y-93086786D01*
X85673141Y-93099019D01*
X85672381Y-93185295D01*
X85672667Y-93254341D01*
X85674336Y-93308453D01*
X85677722Y-93349928D01*
X85683162Y-93381061D01*
X85690991Y-93404147D01*
X85701545Y-93421484D01*
X85715160Y-93435367D01*
X85723260Y-93441759D01*
X85730541Y-93446745D01*
X85738937Y-93450866D01*
X85750298Y-93454220D01*
X85766473Y-93456905D01*
X85789313Y-93459019D01*
X85820669Y-93460660D01*
X85862389Y-93461926D01*
X85916324Y-93462914D01*
X85984324Y-93463724D01*
X86068239Y-93464452D01*
X86165318Y-93465164D01*
X86579808Y-93468097D01*
X86579808Y-93721116D01*
X86157289Y-93720234D01*
X86036077Y-93719740D01*
X85933385Y-93718784D01*
X85848202Y-93717341D01*
X85779513Y-93715381D01*
X85726307Y-93712878D01*
X85687570Y-93709804D01*
X85666088Y-93706873D01*
X85588987Y-93686378D01*
X85526899Y-93654904D01*
X85478616Y-93611129D01*
X85442929Y-93553730D01*
X85418628Y-93481386D01*
X85408251Y-93424889D01*
X85405170Y-93392457D01*
X85402444Y-93344544D01*
X85400216Y-93285207D01*
X85398624Y-93218504D01*
X85397808Y-93148490D01*
X85397731Y-93120308D01*
X85398492Y-93015981D01*
X85400909Y-92929032D01*
X85405180Y-92857355D01*
X85411507Y-92798843D01*
X85420089Y-92751390D01*
X85431125Y-92712889D01*
X85438059Y-92695346D01*
X85466952Y-92645996D01*
X85505760Y-92602373D01*
X85548431Y-92571257D01*
X85549154Y-92570876D01*
X85569026Y-92560883D01*
X85588464Y-92552488D01*
X85609341Y-92545531D01*
X85633527Y-92539855D01*
X85662897Y-92535304D01*
X85699321Y-92531719D01*
X85744672Y-92528944D01*
X85800823Y-92526819D01*
X85869645Y-92525189D01*
X85953011Y-92523896D01*
X86052793Y-92522781D01*
X86129484Y-92522059D01*
X86582814Y-92517953D01*
X86576577Y-92687246D01*
G36*
X84695031Y-92520269D02*
G01*
X84767908Y-92521561D01*
X84832539Y-92523687D01*
X84884957Y-92526648D01*
X84915890Y-92529679D01*
X84991495Y-92545559D01*
X85057011Y-92571004D01*
X85109433Y-92604548D01*
X85142842Y-92640324D01*
X85159224Y-92665356D01*
X85172582Y-92689657D01*
X85183222Y-92715504D01*
X85191448Y-92745174D01*
X85197566Y-92780944D01*
X85201882Y-92825089D01*
X85204701Y-92879886D01*
X85206328Y-92947612D01*
X85207069Y-93030544D01*
X85207231Y-93120308D01*
X85207028Y-93218912D01*
X85206213Y-93300257D01*
X85204483Y-93366619D01*
X85201531Y-93420275D01*
X85197053Y-93463501D01*
X85190742Y-93498574D01*
X85182293Y-93527770D01*
X85171401Y-93553366D01*
X85157761Y-93577638D01*
X85142842Y-93600292D01*
X85106452Y-93638190D01*
X85054937Y-93670696D01*
X84992430Y-93695719D01*
X84923923Y-93711047D01*
X84887513Y-93714523D01*
X84835920Y-93717142D01*
X84772695Y-93718926D01*
X84701387Y-93719898D01*
X84625548Y-93720082D01*
X84548727Y-93719501D01*
X84474474Y-93718176D01*
X84406339Y-93716132D01*
X84347873Y-93713392D01*
X84302626Y-93709977D01*
X84278857Y-93706873D01*
X84200745Y-93685775D01*
X84137651Y-93652984D01*
X84088513Y-93607393D01*
X84052268Y-93547893D01*
X84027854Y-93473377D01*
X84020941Y-93437749D01*
X84017619Y-93406057D01*
X84014965Y-93358410D01*
X84012977Y-93298382D01*
X84011656Y-93229544D01*
X84011537Y-93215953D01*
X84285065Y-93215953D01*
X84285528Y-93272037D01*
X84286486Y-93317152D01*
X84287902Y-93347926D01*
X84288843Y-93357395D01*
X84303871Y-93403745D01*
X84332139Y-93437926D01*
X84371485Y-93457342D01*
X84372116Y-93457500D01*
X84391576Y-93459845D01*
X84427270Y-93461775D01*
X84475899Y-93463206D01*
X84534162Y-93464054D01*
X84598758Y-93464237D01*
X84631303Y-93464061D01*
X84704601Y-93463321D01*
X84760987Y-93462308D01*
X84803087Y-93460816D01*
X84833527Y-93458642D01*
X84854932Y-93455580D01*
X84869929Y-93451425D01*
X84881144Y-93445972D01*
X84883676Y-93444375D01*
X84899567Y-93432547D01*
X84912081Y-93418730D01*
X84921617Y-93400579D01*
X84928571Y-93375748D01*
X84933342Y-93341892D01*
X84936326Y-93296665D01*
X84937920Y-93237721D01*
X84938523Y-93162715D01*
X84938577Y-93120308D01*
X84938653Y-93029763D01*
X84937773Y-92956820D01*
X84934279Y-92899558D01*
X84926511Y-92856053D01*
X84912808Y-92824383D01*
X84891512Y-92802624D01*
X84860963Y-92788855D01*
X84819501Y-92781151D01*
X84765467Y-92777590D01*
X84697201Y-92776250D01*
X84641072Y-92775616D01*
X84554760Y-92775009D01*
X84485676Y-92775878D01*
X84431540Y-92778565D01*
X84390074Y-92783413D01*
X84359001Y-92790764D01*
X84336040Y-92800960D01*
X84318914Y-92814345D01*
X84309412Y-92825479D01*
X84302896Y-92835311D01*
X84297867Y-92846801D01*
X84294089Y-92862560D01*
X84291322Y-92885195D01*
X84289329Y-92917314D01*
X84287871Y-92961527D01*
X84286710Y-93020441D01*
X84285774Y-93084364D01*
X84285134Y-93152271D01*
X84285065Y-93215953D01*
X84011537Y-93215953D01*
X84011004Y-93155469D01*
X84011019Y-93079730D01*
X84011704Y-93005900D01*
X84013058Y-92937551D01*
X84015081Y-92878256D01*
X84017775Y-92831586D01*
X84020856Y-92802808D01*
X84040386Y-92722314D01*
X84071278Y-92657063D01*
X84114658Y-92605982D01*
X84171648Y-92567997D01*
X84243373Y-92542037D01*
X84306726Y-92529920D01*
X84345781Y-92526247D01*
X84400390Y-92523397D01*
X84466586Y-92521373D01*
X84540403Y-92520176D01*
X84617873Y-92519807D01*
X84695031Y-92520269D01*
G37*
X84695031Y-92520269D02*
X84767908Y-92521561D01*
X84832539Y-92523687D01*
X84884957Y-92526648D01*
X84915890Y-92529679D01*
X84991495Y-92545559D01*
X85057011Y-92571004D01*
X85109433Y-92604548D01*
X85142842Y-92640324D01*
X85159224Y-92665356D01*
X85172582Y-92689657D01*
X85183222Y-92715504D01*
X85191448Y-92745174D01*
X85197566Y-92780944D01*
X85201882Y-92825089D01*
X85204701Y-92879886D01*
X85206328Y-92947612D01*
X85207069Y-93030544D01*
X85207231Y-93120308D01*
X85207028Y-93218912D01*
X85206213Y-93300257D01*
X85204483Y-93366619D01*
X85201531Y-93420275D01*
X85197053Y-93463501D01*
X85190742Y-93498574D01*
X85182293Y-93527770D01*
X85171401Y-93553366D01*
X85157761Y-93577638D01*
X85142842Y-93600292D01*
X85106452Y-93638190D01*
X85054937Y-93670696D01*
X84992430Y-93695719D01*
X84923923Y-93711047D01*
X84887513Y-93714523D01*
X84835920Y-93717142D01*
X84772695Y-93718926D01*
X84701387Y-93719898D01*
X84625548Y-93720082D01*
X84548727Y-93719501D01*
X84474474Y-93718176D01*
X84406339Y-93716132D01*
X84347873Y-93713392D01*
X84302626Y-93709977D01*
X84278857Y-93706873D01*
X84200745Y-93685775D01*
X84137651Y-93652984D01*
X84088513Y-93607393D01*
X84052268Y-93547893D01*
X84027854Y-93473377D01*
X84020941Y-93437749D01*
X84017619Y-93406057D01*
X84014965Y-93358410D01*
X84012977Y-93298382D01*
X84011656Y-93229544D01*
X84011537Y-93215953D01*
X84285065Y-93215953D01*
X84285528Y-93272037D01*
X84286486Y-93317152D01*
X84287902Y-93347926D01*
X84288843Y-93357395D01*
X84303871Y-93403745D01*
X84332139Y-93437926D01*
X84371485Y-93457342D01*
X84372116Y-93457500D01*
X84391576Y-93459845D01*
X84427270Y-93461775D01*
X84475899Y-93463206D01*
X84534162Y-93464054D01*
X84598758Y-93464237D01*
X84631303Y-93464061D01*
X84704601Y-93463321D01*
X84760987Y-93462308D01*
X84803087Y-93460816D01*
X84833527Y-93458642D01*
X84854932Y-93455580D01*
X84869929Y-93451425D01*
X84881144Y-93445972D01*
X84883676Y-93444375D01*
X84899567Y-93432547D01*
X84912081Y-93418730D01*
X84921617Y-93400579D01*
X84928571Y-93375748D01*
X84933342Y-93341892D01*
X84936326Y-93296665D01*
X84937920Y-93237721D01*
X84938523Y-93162715D01*
X84938577Y-93120308D01*
X84938653Y-93029763D01*
X84937773Y-92956820D01*
X84934279Y-92899558D01*
X84926511Y-92856053D01*
X84912808Y-92824383D01*
X84891512Y-92802624D01*
X84860963Y-92788855D01*
X84819501Y-92781151D01*
X84765467Y-92777590D01*
X84697201Y-92776250D01*
X84641072Y-92775616D01*
X84554760Y-92775009D01*
X84485676Y-92775878D01*
X84431540Y-92778565D01*
X84390074Y-92783413D01*
X84359001Y-92790764D01*
X84336040Y-92800960D01*
X84318914Y-92814345D01*
X84309412Y-92825479D01*
X84302896Y-92835311D01*
X84297867Y-92846801D01*
X84294089Y-92862560D01*
X84291322Y-92885195D01*
X84289329Y-92917314D01*
X84287871Y-92961527D01*
X84286710Y-93020441D01*
X84285774Y-93084364D01*
X84285134Y-93152271D01*
X84285065Y-93215953D01*
X84011537Y-93215953D01*
X84011004Y-93155469D01*
X84011019Y-93079730D01*
X84011704Y-93005900D01*
X84013058Y-92937551D01*
X84015081Y-92878256D01*
X84017775Y-92831586D01*
X84020856Y-92802808D01*
X84040386Y-92722314D01*
X84071278Y-92657063D01*
X84114658Y-92605982D01*
X84171648Y-92567997D01*
X84243373Y-92542037D01*
X84306726Y-92529920D01*
X84345781Y-92526247D01*
X84400390Y-92523397D01*
X84466586Y-92521373D01*
X84540403Y-92520176D01*
X84617873Y-92519807D01*
X84695031Y-92520269D01*
G36*
X83099214Y-92521807D02*
G01*
X83211684Y-92522716D01*
X83306480Y-92523697D01*
X83385467Y-92524957D01*
X83450507Y-92526703D01*
X83503465Y-92529144D01*
X83546205Y-92532487D01*
X83580591Y-92536939D01*
X83608487Y-92542707D01*
X83631757Y-92549999D01*
X83652265Y-92559023D01*
X83671874Y-92569986D01*
X83692449Y-92583095D01*
X83701071Y-92588789D01*
X83755480Y-92636402D01*
X83798406Y-92698997D01*
X83820338Y-92749077D01*
X83828996Y-92784614D01*
X83835834Y-92834544D01*
X83840658Y-92893791D01*
X83843272Y-92957278D01*
X83843482Y-93019927D01*
X83841093Y-93076662D01*
X83835911Y-93122406D01*
X83834875Y-93128033D01*
X83810941Y-93208856D01*
X83773283Y-93275935D01*
X83721193Y-93330081D01*
X83653965Y-93372107D01*
X83605355Y-93392093D01*
X83587810Y-93395067D01*
X83553671Y-93398129D01*
X83505878Y-93401117D01*
X83447375Y-93403870D01*
X83381103Y-93406228D01*
X83316885Y-93407886D01*
X83058000Y-93413385D01*
X83055310Y-93567250D01*
X83052620Y-93721116D01*
X82789534Y-93721116D01*
X82786998Y-93249852D01*
X82786485Y-93154500D01*
X83052694Y-93154500D01*
X83270270Y-93154464D01*
X83341681Y-93154331D01*
X83396319Y-93153817D01*
X83436947Y-93152705D01*
X83466331Y-93150779D01*
X83487235Y-93147821D01*
X83502423Y-93143615D01*
X83514660Y-93137946D01*
X83519840Y-93134921D01*
X83542760Y-93117314D01*
X83558456Y-93094850D01*
X83568162Y-93063788D01*
X83573108Y-93020384D01*
X83574504Y-92968885D01*
X83573017Y-92911307D01*
X83566959Y-92868868D01*
X83554978Y-92837433D01*
X83535724Y-92812869D01*
X83518901Y-92798802D01*
X83508881Y-92792139D01*
X83497400Y-92787105D01*
X83481741Y-92783473D01*
X83459186Y-92781016D01*
X83427019Y-92779506D01*
X83382523Y-92778717D01*
X83322981Y-92778420D01*
X83274671Y-92778385D01*
X83058000Y-92778385D01*
X83055347Y-92966442D01*
X83052694Y-93154500D01*
X82786485Y-93154500D01*
X82784462Y-92778589D01*
X82716077Y-92768718D01*
X82647693Y-92758846D01*
X82644945Y-92638561D01*
X82642197Y-92518277D01*
X83099214Y-92521807D01*
G37*
X83099214Y-92521807D02*
X83211684Y-92522716D01*
X83306480Y-92523697D01*
X83385467Y-92524957D01*
X83450507Y-92526703D01*
X83503465Y-92529144D01*
X83546205Y-92532487D01*
X83580591Y-92536939D01*
X83608487Y-92542707D01*
X83631757Y-92549999D01*
X83652265Y-92559023D01*
X83671874Y-92569986D01*
X83692449Y-92583095D01*
X83701071Y-92588789D01*
X83755480Y-92636402D01*
X83798406Y-92698997D01*
X83820338Y-92749077D01*
X83828996Y-92784614D01*
X83835834Y-92834544D01*
X83840658Y-92893791D01*
X83843272Y-92957278D01*
X83843482Y-93019927D01*
X83841093Y-93076662D01*
X83835911Y-93122406D01*
X83834875Y-93128033D01*
X83810941Y-93208856D01*
X83773283Y-93275935D01*
X83721193Y-93330081D01*
X83653965Y-93372107D01*
X83605355Y-93392093D01*
X83587810Y-93395067D01*
X83553671Y-93398129D01*
X83505878Y-93401117D01*
X83447375Y-93403870D01*
X83381103Y-93406228D01*
X83316885Y-93407886D01*
X83058000Y-93413385D01*
X83055310Y-93567250D01*
X83052620Y-93721116D01*
X82789534Y-93721116D01*
X82786998Y-93249852D01*
X82786485Y-93154500D01*
X83052694Y-93154500D01*
X83270270Y-93154464D01*
X83341681Y-93154331D01*
X83396319Y-93153817D01*
X83436947Y-93152705D01*
X83466331Y-93150779D01*
X83487235Y-93147821D01*
X83502423Y-93143615D01*
X83514660Y-93137946D01*
X83519840Y-93134921D01*
X83542760Y-93117314D01*
X83558456Y-93094850D01*
X83568162Y-93063788D01*
X83573108Y-93020384D01*
X83574504Y-92968885D01*
X83573017Y-92911307D01*
X83566959Y-92868868D01*
X83554978Y-92837433D01*
X83535724Y-92812869D01*
X83518901Y-92798802D01*
X83508881Y-92792139D01*
X83497400Y-92787105D01*
X83481741Y-92783473D01*
X83459186Y-92781016D01*
X83427019Y-92779506D01*
X83382523Y-92778717D01*
X83322981Y-92778420D01*
X83274671Y-92778385D01*
X83058000Y-92778385D01*
X83055347Y-92966442D01*
X83052694Y-93154500D01*
X82786485Y-93154500D01*
X82784462Y-92778589D01*
X82716077Y-92768718D01*
X82647693Y-92758846D01*
X82644945Y-92638561D01*
X82642197Y-92518277D01*
X83099214Y-92521807D01*
G36*
X81604827Y-92519670D02*
G01*
X81715067Y-92519921D01*
X81807742Y-92520700D01*
X81884823Y-92522204D01*
X81948280Y-92524633D01*
X82000085Y-92528183D01*
X82042207Y-92533053D01*
X82076619Y-92539441D01*
X82105291Y-92547545D01*
X82130193Y-92557563D01*
X82153296Y-92569694D01*
X82163526Y-92575831D01*
X82219809Y-92621649D01*
X82261720Y-92679839D01*
X82288494Y-92748755D01*
X82299366Y-92826748D01*
X82298694Y-92867220D01*
X82289278Y-92928584D01*
X82270396Y-92986192D01*
X82244257Y-93034767D01*
X82214800Y-93067669D01*
X82198693Y-93083041D01*
X82198453Y-93091615D01*
X82202476Y-93093715D01*
X82223424Y-93106552D01*
X82250884Y-93130352D01*
X82280022Y-93160173D01*
X82306000Y-93191074D01*
X82323689Y-93217561D01*
X82333173Y-93237912D01*
X82339368Y-93259736D01*
X82342936Y-93287777D01*
X82344537Y-93326776D01*
X82344847Y-93369423D01*
X82344255Y-93421983D01*
X82342038Y-93460039D01*
X82337532Y-93488603D01*
X82330071Y-93512686D01*
X82323966Y-93526927D01*
X82283385Y-93592232D01*
X82228386Y-93644889D01*
X82160118Y-93684063D01*
X82079726Y-93708921D01*
X82071956Y-93710423D01*
X82045847Y-93713296D01*
X82001656Y-93715774D01*
X81940836Y-93717823D01*
X81864839Y-93719408D01*
X81775119Y-93720494D01*
X81673129Y-93721049D01*
X81620129Y-93721116D01*
X81226270Y-93721116D01*
X81226270Y-93467116D01*
X81499808Y-93467116D01*
X81746481Y-93467100D01*
X81824114Y-93466951D01*
X81884755Y-93466412D01*
X81930948Y-93465328D01*
X81965237Y-93463544D01*
X81990168Y-93460904D01*
X82008284Y-93457255D01*
X82022130Y-93452441D01*
X82027347Y-93450004D01*
X82058851Y-93424053D01*
X82077367Y-93386365D01*
X82081471Y-93340951D01*
X82076440Y-93311727D01*
X82070262Y-93290992D01*
X82062692Y-93274529D01*
X82051554Y-93261811D01*
X82034676Y-93252313D01*
X82009883Y-93245507D01*
X81975001Y-93240866D01*
X81927857Y-93237864D01*
X81866276Y-93235974D01*
X81788085Y-93234670D01*
X81756701Y-93234258D01*
X81499808Y-93230977D01*
X81499808Y-93467116D01*
X81226270Y-93467116D01*
X81226270Y-92783269D01*
X81499808Y-92783269D01*
X81499808Y-92989394D01*
X81740016Y-92986466D01*
X81980223Y-92983539D01*
X82003785Y-92956128D01*
X82024163Y-92918714D01*
X82028416Y-92876808D01*
X82016752Y-92836418D01*
X81998790Y-92811826D01*
X81970234Y-92783269D01*
X81499808Y-92783269D01*
X81226270Y-92783269D01*
X81226270Y-92519500D01*
X81604827Y-92519670D01*
G37*
X81604827Y-92519670D02*
X81715067Y-92519921D01*
X81807742Y-92520700D01*
X81884823Y-92522204D01*
X81948280Y-92524633D01*
X82000085Y-92528183D01*
X82042207Y-92533053D01*
X82076619Y-92539441D01*
X82105291Y-92547545D01*
X82130193Y-92557563D01*
X82153296Y-92569694D01*
X82163526Y-92575831D01*
X82219809Y-92621649D01*
X82261720Y-92679839D01*
X82288494Y-92748755D01*
X82299366Y-92826748D01*
X82298694Y-92867220D01*
X82289278Y-92928584D01*
X82270396Y-92986192D01*
X82244257Y-93034767D01*
X82214800Y-93067669D01*
X82198693Y-93083041D01*
X82198453Y-93091615D01*
X82202476Y-93093715D01*
X82223424Y-93106552D01*
X82250884Y-93130352D01*
X82280022Y-93160173D01*
X82306000Y-93191074D01*
X82323689Y-93217561D01*
X82333173Y-93237912D01*
X82339368Y-93259736D01*
X82342936Y-93287777D01*
X82344537Y-93326776D01*
X82344847Y-93369423D01*
X82344255Y-93421983D01*
X82342038Y-93460039D01*
X82337532Y-93488603D01*
X82330071Y-93512686D01*
X82323966Y-93526927D01*
X82283385Y-93592232D01*
X82228386Y-93644889D01*
X82160118Y-93684063D01*
X82079726Y-93708921D01*
X82071956Y-93710423D01*
X82045847Y-93713296D01*
X82001656Y-93715774D01*
X81940836Y-93717823D01*
X81864839Y-93719408D01*
X81775119Y-93720494D01*
X81673129Y-93721049D01*
X81620129Y-93721116D01*
X81226270Y-93721116D01*
X81226270Y-93467116D01*
X81499808Y-93467116D01*
X81746481Y-93467100D01*
X81824114Y-93466951D01*
X81884755Y-93466412D01*
X81930948Y-93465328D01*
X81965237Y-93463544D01*
X81990168Y-93460904D01*
X82008284Y-93457255D01*
X82022130Y-93452441D01*
X82027347Y-93450004D01*
X82058851Y-93424053D01*
X82077367Y-93386365D01*
X82081471Y-93340951D01*
X82076440Y-93311727D01*
X82070262Y-93290992D01*
X82062692Y-93274529D01*
X82051554Y-93261811D01*
X82034676Y-93252313D01*
X82009883Y-93245507D01*
X81975001Y-93240866D01*
X81927857Y-93237864D01*
X81866276Y-93235974D01*
X81788085Y-93234670D01*
X81756701Y-93234258D01*
X81499808Y-93230977D01*
X81499808Y-93467116D01*
X81226270Y-93467116D01*
X81226270Y-92783269D01*
X81499808Y-92783269D01*
X81499808Y-92989394D01*
X81740016Y-92986466D01*
X81980223Y-92983539D01*
X82003785Y-92956128D01*
X82024163Y-92918714D01*
X82028416Y-92876808D01*
X82016752Y-92836418D01*
X81998790Y-92811826D01*
X81970234Y-92783269D01*
X81499808Y-92783269D01*
X81226270Y-92783269D01*
X81226270Y-92519500D01*
X81604827Y-92519670D01*
G36*
X80708500Y-94238885D02*
G01*
X78344347Y-94238885D01*
X78344347Y-90800116D01*
X78608116Y-90800116D01*
X78608116Y-93975116D01*
X80444731Y-93975116D01*
X80444731Y-90800116D01*
X78608116Y-90800116D01*
X78344347Y-90800116D01*
X78344347Y-90546116D01*
X80708500Y-90546116D01*
X80708500Y-94238885D01*
G37*
X80708500Y-94238885D02*
X78344347Y-94238885D01*
X78344347Y-90800116D01*
X78608116Y-90800116D01*
X78608116Y-93975116D01*
X80444731Y-93975116D01*
X80444731Y-90800116D01*
X78608116Y-90800116D01*
X78344347Y-90800116D01*
X78344347Y-90546116D01*
X80708500Y-90546116D01*
X80708500Y-94238885D01*
%TD*%
M02*
