%TF.GenerationSoftware,KiCad,Pcbnew,(5.1.9)-1*%
%TF.CreationDate,2021-06-18T11:47:14+07:00*%
%TF.ProjectId,A2B,4132422e-6b69-4636-9164-5f7063625858,2*%
%TF.SameCoordinates,Original*%
%TF.FileFunction,Copper,L3,Inr*%
%TF.FilePolarity,Positive*%
%FSLAX46Y46*%
G04 Gerber Fmt 4.6, Leading zero omitted, Abs format (unit mm)*
G04 Created by KiCad (PCBNEW (5.1.9)-1) date 2021-06-18 11:47:14*
%MOMM*%
%LPD*%
G01*
G04 APERTURE LIST*
%TA.AperFunction,ComponentPad*%
%ADD10O,1.700000X1.700000*%
%TD*%
%TA.AperFunction,ComponentPad*%
%ADD11R,1.700000X1.700000*%
%TD*%
%TA.AperFunction,ViaPad*%
%ADD12C,0.600000*%
%TD*%
%TA.AperFunction,ViaPad*%
%ADD13C,0.700000*%
%TD*%
%TA.AperFunction,ViaPad*%
%ADD14C,0.800000*%
%TD*%
%TA.AperFunction,Conductor*%
%ADD15C,0.800000*%
%TD*%
%TA.AperFunction,Conductor*%
%ADD16C,0.300000*%
%TD*%
%TA.AperFunction,Conductor*%
%ADD17C,0.250000*%
%TD*%
%TA.AperFunction,Conductor*%
%ADD18C,0.400000*%
%TD*%
G04 APERTURE END LIST*
D10*
%TO.N,GND*%
%TO.C,D3*%
X115265200Y-53505100D03*
X112725200Y-53505100D03*
%TO.N,+8V*%
X115265200Y-50965100D03*
X112725200Y-50965100D03*
D11*
%TO.N,GND*%
X115265200Y-90335100D03*
D10*
X112725200Y-90335100D03*
%TO.N,/PDMCLK\u005CIO7*%
X115265200Y-87795100D03*
%TO.N,/DRX1*%
X112725200Y-87795100D03*
%TO.N,/DRX0*%
X115265200Y-85255100D03*
%TO.N,/DTX1*%
X112725200Y-85255100D03*
%TO.N,/DTX0*%
X115265200Y-82715100D03*
%TO.N,GND*%
X112725200Y-82715100D03*
%TO.N,/SYNC*%
X115265200Y-80175100D03*
%TO.N,/BCLK*%
X112725200Y-80175100D03*
%TO.N,/CLKOUT2*%
X115265200Y-77635100D03*
%TO.N,/CLKOUT1*%
X112725200Y-77635100D03*
%TO.N,/IRQ*%
X115265200Y-75095100D03*
%TO.N,GND*%
X112725200Y-75095100D03*
%TO.N,/SDA*%
X115265200Y-72555100D03*
%TO.N,/SCL*%
X112725200Y-72555100D03*
%TD*%
D12*
%TO.N,GND*%
X121348500Y-63627000D03*
X119888000Y-65151000D03*
X119888000Y-64389000D03*
X119888000Y-62865000D03*
X120650000Y-63627000D03*
X119126000Y-63627000D03*
X119888000Y-63627000D03*
X126428500Y-63690500D03*
X122428000Y-61150500D03*
X118427500Y-63627000D03*
X119888000Y-62166500D03*
X116776500Y-56769000D03*
X109511799Y-50569999D03*
X109511799Y-52169999D03*
X109511799Y-53769999D03*
X109511799Y-70569999D03*
X109511799Y-72169999D03*
X109511799Y-73769999D03*
X109511799Y-75369999D03*
X109511799Y-76969999D03*
X109511799Y-78569999D03*
X109511799Y-80169999D03*
X109511799Y-81769999D03*
X109511799Y-83369999D03*
X109511799Y-84969999D03*
X109511799Y-86569999D03*
X109511799Y-88169999D03*
X109511799Y-89769999D03*
X109511799Y-91369999D03*
X110311799Y-51369999D03*
X110311799Y-52969999D03*
X110311799Y-77769999D03*
X110311799Y-79369999D03*
X110311799Y-80969999D03*
X110311799Y-82569999D03*
X110311799Y-84169999D03*
X110311799Y-85769999D03*
X110311799Y-87369999D03*
X110311799Y-88969999D03*
X110311799Y-90569999D03*
X111111799Y-52169999D03*
X111111799Y-53769999D03*
X111111799Y-78569999D03*
X111111799Y-80169999D03*
X111111799Y-81769999D03*
X111111799Y-83369999D03*
X111111799Y-86569999D03*
X111111799Y-89769999D03*
X111111799Y-91369999D03*
X113511799Y-55369999D03*
X113511799Y-56969999D03*
X114311799Y-56169999D03*
X116711799Y-36169999D03*
X116711799Y-37769999D03*
X116711799Y-39369999D03*
X116711799Y-40969999D03*
X116711799Y-42569999D03*
X116711799Y-44169999D03*
X116711799Y-47369999D03*
X117511799Y-36969999D03*
X117511799Y-38569999D03*
X117511799Y-40169999D03*
X117511799Y-41769999D03*
X117511799Y-43369999D03*
X117511799Y-44969999D03*
X117511799Y-48169999D03*
X117511799Y-86569999D03*
X117511799Y-88169999D03*
X117511799Y-89769999D03*
X117511799Y-91369999D03*
X118311799Y-36169999D03*
X118311799Y-37769999D03*
X118311799Y-39369999D03*
X118311799Y-40969999D03*
X118311799Y-42569999D03*
X118311799Y-44169999D03*
X118311799Y-85769999D03*
X118311799Y-87369999D03*
X118311799Y-88969999D03*
X118311799Y-90569999D03*
X119111799Y-36969999D03*
X119111799Y-38569999D03*
X119111799Y-40169999D03*
X119111799Y-41769999D03*
X119111799Y-43369999D03*
X119111799Y-44969999D03*
X119111799Y-83369999D03*
X119111799Y-84969999D03*
X119111799Y-86569999D03*
X119111799Y-88169999D03*
X119111799Y-89769999D03*
X119111799Y-91369999D03*
X119911799Y-36169999D03*
X119911799Y-37769999D03*
X119911799Y-39369999D03*
X119911799Y-40969999D03*
X119911799Y-42569999D03*
X119911799Y-44169999D03*
X119911799Y-45769999D03*
X119911799Y-78569999D03*
X119911799Y-80169999D03*
X119911799Y-81769999D03*
X119911799Y-84169999D03*
X119911799Y-85769999D03*
X119911799Y-87369999D03*
X119911799Y-88969999D03*
X119911799Y-90569999D03*
X120711799Y-36969999D03*
X120711799Y-38569999D03*
X120711799Y-40169999D03*
X120711799Y-41769999D03*
X120711799Y-43369999D03*
X120711799Y-44969999D03*
X120711799Y-80969999D03*
X120711799Y-82569999D03*
X120711799Y-84969999D03*
X120711799Y-86569999D03*
X120711799Y-88169999D03*
X120711799Y-89769999D03*
X120711799Y-91369999D03*
X121511799Y-36169999D03*
X121511799Y-37769999D03*
X121511799Y-39369999D03*
X121511799Y-40969999D03*
X121511799Y-42569999D03*
X121511799Y-44169999D03*
X121511799Y-45769999D03*
X121511799Y-81769999D03*
X121511799Y-83369999D03*
X121511799Y-85769999D03*
X121511799Y-87369999D03*
X121511799Y-88969999D03*
X121511799Y-90569999D03*
X122311799Y-36969999D03*
X122311799Y-38569999D03*
X122311799Y-40169999D03*
X122311799Y-41769999D03*
X122311799Y-43369999D03*
X122311799Y-44969999D03*
X122311799Y-46569999D03*
X122311799Y-48969999D03*
X122311799Y-80969999D03*
X122311799Y-82569999D03*
X122311799Y-84169999D03*
X122311799Y-86569999D03*
X122311799Y-88169999D03*
X122311799Y-89769999D03*
X122311799Y-91369999D03*
X123111799Y-36169999D03*
X123111799Y-37769999D03*
X123111799Y-39369999D03*
X123111799Y-40969999D03*
X123111799Y-42569999D03*
X123111799Y-44169999D03*
X123111799Y-45769999D03*
X123111799Y-49769999D03*
X123317000Y-71628000D03*
X123111799Y-81769999D03*
X123111799Y-83369999D03*
X123111799Y-84969999D03*
X123111799Y-87369999D03*
X123111799Y-88969999D03*
X123111799Y-90569999D03*
X123911799Y-41769999D03*
X123911799Y-43369999D03*
X123911799Y-44969999D03*
X123911799Y-46569999D03*
X123911799Y-70569999D03*
X123911799Y-80969999D03*
X123911799Y-82569999D03*
X123911799Y-84169999D03*
X123911799Y-85769999D03*
X124711799Y-40969999D03*
X124711799Y-42569999D03*
X124711799Y-44169999D03*
X124711799Y-45769999D03*
X124244100Y-54952900D03*
X124711799Y-69769999D03*
X124711799Y-81769999D03*
X124711799Y-83369999D03*
X124711799Y-84969999D03*
X125511799Y-41769999D03*
X125511799Y-43369999D03*
X125511799Y-44969999D03*
X125511799Y-46569999D03*
X125511799Y-80969999D03*
X125511799Y-82569999D03*
X125511799Y-84169999D03*
X125511799Y-85769999D03*
X126311799Y-36169999D03*
X126311799Y-37769999D03*
X126311799Y-39369999D03*
X126311799Y-69769999D03*
X126311799Y-86569999D03*
X126311799Y-88169999D03*
X126311799Y-89769999D03*
X126311799Y-91369999D03*
X127111799Y-36969999D03*
X127111799Y-38569999D03*
X127111799Y-40169999D03*
X127111799Y-87369999D03*
X127111799Y-88969999D03*
X127111799Y-90569999D03*
X127911799Y-36169999D03*
X127911799Y-37769999D03*
X127911799Y-39369999D03*
X127911799Y-86569999D03*
X127911799Y-88169999D03*
X127911799Y-89769999D03*
X127911799Y-91369999D03*
X128711799Y-36969999D03*
X128711799Y-38569999D03*
X128711799Y-40169999D03*
X128711799Y-63369999D03*
X128711799Y-87369999D03*
X128711799Y-88969999D03*
X128711799Y-90569999D03*
X129511799Y-36169999D03*
X129511799Y-37769999D03*
X129511799Y-39369999D03*
X129511799Y-54569999D03*
X129511799Y-64169999D03*
X129511799Y-86569999D03*
X129511799Y-88169999D03*
X129511799Y-89769999D03*
X129511799Y-91369999D03*
X130311799Y-36969999D03*
X130311799Y-38569999D03*
X130311799Y-40169999D03*
X130311799Y-45769999D03*
X130311799Y-53769999D03*
X130311799Y-57769999D03*
X130311799Y-64969999D03*
X130311799Y-66569999D03*
X130311799Y-80969999D03*
X130311799Y-87369999D03*
X130311799Y-88969999D03*
X130311799Y-90569999D03*
X131111799Y-40969999D03*
X131111799Y-42569999D03*
X131111799Y-44169999D03*
X131111799Y-46569999D03*
X131111799Y-52969999D03*
X131111799Y-54569999D03*
X131111799Y-60969999D03*
X131111799Y-81769999D03*
X131111799Y-83369999D03*
X131111799Y-84969999D03*
X131911799Y-41769999D03*
X131911799Y-43369999D03*
X131911799Y-44969999D03*
X131911799Y-53769999D03*
X131911799Y-55369999D03*
X131911799Y-56969999D03*
X131911799Y-58569999D03*
X131911799Y-60169999D03*
X131911799Y-61769999D03*
X131911799Y-80969999D03*
X131911799Y-82569999D03*
X131911799Y-84169999D03*
X131911799Y-85769999D03*
X125780800Y-52324000D03*
X130517900Y-52336700D03*
X124866400Y-56121300D03*
X131419600Y-56121300D03*
X124688600Y-71107300D03*
X131025900Y-68491100D03*
X132969000Y-71120000D03*
X132969000Y-73660000D03*
X124193300Y-74752200D03*
X130073400Y-76860400D03*
X126238000Y-76835000D03*
X125590300Y-73533000D03*
X122555000Y-72567800D03*
X122999500Y-73812400D03*
X129997200Y-60502800D03*
X132562600Y-63004700D03*
X132969000Y-64071500D03*
X132969000Y-65278000D03*
X132969000Y-69850000D03*
X132969000Y-68770500D03*
X132969000Y-67564000D03*
X132969000Y-66421000D03*
X132969000Y-72390000D03*
X132969000Y-74866500D03*
X125857000Y-55118000D03*
X130429000Y-55118000D03*
X124206000Y-52324000D03*
X132080000Y-52324000D03*
X126047500Y-66738500D03*
X125412500Y-68897500D03*
X111950500Y-59055000D03*
X111950500Y-57785000D03*
X111950500Y-56515000D03*
X111950500Y-55308500D03*
X116776500Y-70675500D03*
X122618500Y-70739000D03*
X125031500Y-59753500D03*
X124333000Y-58737500D03*
X122999500Y-56705500D03*
X117094000Y-56007000D03*
%TO.N,/AD_VOUT1*%
X116459000Y-62413500D03*
X116522500Y-60579000D03*
X114681000Y-61531500D03*
%TO.N,Net-(C11-Pad2)*%
X115887500Y-68262500D03*
%TO.N,/AD_VOUT2*%
X123190000Y-63690500D03*
X119651500Y-60025000D03*
X115760500Y-69278500D03*
X112077500Y-69405500D03*
X112298200Y-63149200D03*
D13*
%TO.N,Net-(C14-Pad1)*%
X122061000Y-56310500D03*
X120840500Y-52260500D03*
%TO.N,+8V*%
X131889500Y-74803000D03*
%TO.N,/SENSE*%
X129476500Y-52197000D03*
X118173500Y-53784500D03*
D12*
%TO.N,Net-(C18-Pad1)*%
X123253500Y-61722000D03*
%TO.N,Net-(C19-Pad2)*%
X123190000Y-65595500D03*
%TO.N,Net-(C24-Pad2)*%
X122745500Y-60134500D03*
%TO.N,Net-(C28-Pad2)*%
X130436800Y-59443800D03*
X125864800Y-59443800D03*
%TO.N,Net-(C29-Pad2)*%
X130365500Y-67818000D03*
X125857000Y-67881500D03*
D13*
%TO.N,Net-(C39-Pad1)*%
X124460000Y-79248000D03*
X131826000Y-79248000D03*
%TO.N,Net-(C41-Pad1)*%
X131826000Y-48006000D03*
X124460000Y-48006000D03*
D14*
%TO.N,/AP3*%
X128778000Y-82232500D03*
%TO.N,/AN3*%
X127508000Y-82232500D03*
%TO.N,/BN3*%
X127571500Y-45085000D03*
%TO.N,/BP3*%
X128841500Y-45085000D03*
D12*
%TO.N,/CLKOUT1*%
X111529300Y-65618800D03*
%TO.N,/CLKOUT2*%
X111506000Y-66929000D03*
%TO.N,Net-(R7-Pad1)*%
X117475000Y-60198000D03*
%TO.N,/IRQ*%
X115125500Y-64516000D03*
%TO.N,/DRX1*%
X121412000Y-67691000D03*
%TO.N,/DRX0*%
X120777000Y-67183000D03*
%TO.N,/SDA*%
X115824000Y-63944500D03*
%TO.N,/SCL*%
X116014500Y-63119000D03*
%TO.N,Net-(C2-Pad1)*%
X122809000Y-74866500D03*
X125603000Y-72326500D03*
D14*
%TO.N,Net-(C4-Pad2)*%
X129984500Y-73025000D03*
X121920000Y-79311500D03*
%TO.N,/VIN*%
X121539000Y-71628000D03*
X115697000Y-56769000D03*
%TD*%
D15*
%TO.N,/AD_VOUT2*%
X120621500Y-59055000D02*
X119651500Y-60025000D01*
X123063000Y-59055000D02*
X120621500Y-59055000D01*
X124333000Y-60325000D02*
X123063000Y-59055000D01*
X124333000Y-62547500D02*
X124333000Y-60325000D01*
X123190000Y-63690500D02*
X124333000Y-62547500D01*
X124269500Y-64770000D02*
X123190000Y-63690500D01*
X124396500Y-64897000D02*
X124269500Y-64770000D01*
X122555000Y-69278500D02*
X124396500Y-67437000D01*
X115760500Y-69278500D02*
X122555000Y-69278500D01*
X124396500Y-67437000D02*
X124396500Y-64897000D01*
D16*
X115633500Y-69405500D02*
X115760500Y-69278500D01*
X112077500Y-69405500D02*
X115633500Y-69405500D01*
D17*
X112077500Y-67691000D02*
X112077500Y-69405500D01*
X112268000Y-67500500D02*
X112077500Y-67691000D01*
X112268000Y-63179400D02*
X112268000Y-67500500D01*
X112298200Y-63149200D02*
X112268000Y-63179400D01*
D15*
%TO.N,+8V*%
X131927600Y-74764900D02*
X131889500Y-74803000D01*
X131927600Y-64173100D02*
X131927600Y-74764900D01*
X125539500Y-57785000D02*
X131927600Y-64173100D01*
X120269000Y-57785000D02*
X125539500Y-57785000D01*
X116967000Y-54483000D02*
X120269000Y-57785000D01*
X116967000Y-52324000D02*
X116967000Y-54483000D01*
X115608100Y-50965100D02*
X116967000Y-52324000D01*
X115265200Y-50965100D02*
X115608100Y-50965100D01*
%TO.N,/SENSE*%
X127825500Y-53848000D02*
X129476500Y-52197000D01*
X118237000Y-53848000D02*
X127825500Y-53848000D01*
X118173500Y-53784500D02*
X118237000Y-53848000D01*
%TO.N,Net-(C39-Pad1)*%
X124460000Y-79248000D02*
X131826000Y-79248000D01*
%TO.N,Net-(C41-Pad1)*%
X124460000Y-48006000D02*
X131826000Y-48006000D01*
D18*
%TO.N,Net-(C2-Pad1)*%
X122999500Y-74866500D02*
X122809000Y-74866500D01*
X125539500Y-72326500D02*
X122999500Y-74866500D01*
X125603000Y-72326500D02*
X125539500Y-72326500D01*
D15*
%TO.N,Net-(C4-Pad2)*%
X128206500Y-73025000D02*
X129984500Y-73025000D01*
X121920000Y-79311500D02*
X128206500Y-73025000D01*
%TO.N,/VIN*%
X116427250Y-71628000D02*
X121539000Y-71628000D01*
X115538250Y-70739000D02*
X116427250Y-71628000D01*
X111887000Y-70739000D02*
X115538250Y-70739000D01*
X110426500Y-69278500D02*
X111887000Y-70739000D01*
X110426500Y-62039500D02*
X110426500Y-69278500D01*
X115697000Y-56769000D02*
X110426500Y-62039500D01*
%TD*%
M02*
