M48
; DRILL file {KiCad (5.1.9)-1} date 06/18/21 11:47:10
; FORMAT={-:-/ absolute / inch / decimal}
; #@! TF.CreationDate,2021-06-18T11:47:10+07:00
; #@! TF.GenerationSoftware,Kicad,Pcbnew,(5.1.9)-1
; #@! TF.FileFunction,Plated,1,4,PTH
FMAT,2
INCH
T1C0.0118
T2C0.0157
T3C0.0394
%
G90
G05
T1
X4.3115Y-1.9909
X4.3115Y-2.0539
X4.3115Y-2.1169
X4.3115Y-2.7783
X4.3115Y-2.8413
X4.3115Y-2.9043
X4.3115Y-2.9673
X4.3115Y-3.0303
X4.3115Y-3.0933
X4.3115Y-3.1563
X4.3115Y-3.2193
X4.3115Y-3.2823
X4.3115Y-3.3453
X4.3115Y-3.4083
X4.3115Y-3.4713
X4.3115Y-3.5343
X4.3115Y-3.5972
X4.343Y-2.0224
X4.343Y-2.0854
X4.343Y-3.0618
X4.343Y-3.1248
X4.343Y-3.1878
X4.343Y-3.2508
X4.343Y-3.3138
X4.343Y-3.3768
X4.343Y-3.4398
X4.343Y-3.5028
X4.343Y-3.5657
X4.3745Y-2.0539
X4.3745Y-2.1169
X4.3745Y-3.0933
X4.3745Y-3.1563
X4.3745Y-3.2193
X4.3745Y-3.2823
X4.3745Y-3.4083
X4.3745Y-3.5343
X4.3745Y-3.5972
X4.39Y-2.635
X4.3909Y-2.5834
X4.4075Y-2.1775
X4.4075Y-2.225
X4.4075Y-2.275
X4.4075Y-2.325
X4.4125Y-2.7325
X4.4212Y-2.4862
X4.469Y-2.1799
X4.469Y-2.2429
X4.5005Y-2.2114
X4.515Y-2.4225
X4.5325Y-2.54
X4.5575Y-2.7275
X4.56Y-2.5175
X4.5625Y-2.6875
X4.5675Y-2.485
X4.585Y-2.4572
X4.5875Y-2.385
X4.595Y-1.424
X4.595Y-1.487
X4.595Y-1.55
X4.595Y-1.613
X4.595Y-1.676
X4.595Y-1.739
X4.595Y-1.865
X4.5975Y-2.235
X4.5975Y-2.7825
X4.61Y-2.205
X4.625Y-2.37
X4.6264Y-1.4555
X4.6264Y-1.5185
X4.6264Y-1.5815
X4.6264Y-1.6445
X4.6264Y-1.7075
X4.6264Y-1.7705
X4.6264Y-1.8965
X4.6264Y-3.4083
X4.6264Y-3.4713
X4.6264Y-3.5343
X4.6264Y-3.5972
X4.6579Y-1.424
X4.6579Y-1.487
X4.6579Y-1.55
X4.6579Y-1.613
X4.6579Y-1.676
X4.6579Y-1.739
X4.6579Y-3.3768
X4.6579Y-3.4398
X4.6579Y-3.5028
X4.6579Y-3.5657
X4.6625Y-2.505
X4.6894Y-1.4555
X4.6894Y-1.5185
X4.6894Y-1.5815
X4.6894Y-1.6445
X4.6894Y-1.7075
X4.6894Y-1.7705
X4.6894Y-3.2823
X4.6894Y-3.3453
X4.6894Y-3.4083
X4.6894Y-3.4713
X4.6894Y-3.5343
X4.6894Y-3.5972
X4.69Y-2.505
X4.7107Y-2.3632
X4.72Y-2.4475
X4.72Y-2.475
X4.72Y-2.505
X4.72Y-2.535
X4.72Y-2.565
X4.7209Y-1.424
X4.7209Y-1.487
X4.7209Y-1.55
X4.7209Y-1.613
X4.7209Y-1.676
X4.7209Y-1.739
X4.7209Y-1.802
X4.7209Y-3.0933
X4.7209Y-3.1563
X4.7209Y-3.2193
X4.7209Y-3.3138
X4.7209Y-3.3768
X4.7209Y-3.4398
X4.7209Y-3.5028
X4.7209Y-3.5657
X4.75Y-2.505
X4.7524Y-1.4555
X4.7524Y-1.5185
X4.7524Y-1.5815
X4.7524Y-1.6445
X4.7524Y-1.7075
X4.7524Y-1.7705
X4.7524Y-3.1878
X4.7524Y-3.2508
X4.7524Y-3.3453
X4.7524Y-3.4083
X4.7524Y-3.4713
X4.7524Y-3.5343
X4.7524Y-3.5972
X4.755Y-2.645
X4.7775Y-2.505
X4.78Y-2.665
X4.7839Y-1.424
X4.7839Y-1.487
X4.7839Y-1.55
X4.7839Y-1.613
X4.7839Y-1.676
X4.7839Y-1.739
X4.7839Y-1.802
X4.7839Y-3.2193
X4.7839Y-3.2823
X4.7839Y-3.3768
X4.7839Y-3.4398
X4.7839Y-3.5028
X4.7839Y-3.5657
X4.8154Y-1.4555
X4.8154Y-1.5185
X4.8154Y-1.5815
X4.8154Y-1.6445
X4.8154Y-1.7075
X4.8154Y-1.7705
X4.8154Y-1.8335
X4.8154Y-1.928
X4.8154Y-3.1878
X4.8154Y-3.2508
X4.8154Y-3.3138
X4.8154Y-3.4083
X4.8154Y-3.4713
X4.8154Y-3.5343
X4.8154Y-3.5972
X4.82Y-2.4075
X4.825Y-2.857
X4.8275Y-2.785
X4.8325Y-2.3675
X4.835Y-2.9475
X4.8425Y-2.2325
X4.8425Y-2.906
X4.8469Y-1.424
X4.8469Y-1.487
X4.8469Y-1.55
X4.8469Y-1.613
X4.8469Y-1.676
X4.8469Y-1.739
X4.8469Y-1.802
X4.8469Y-1.9594
X4.8469Y-3.2193
X4.8469Y-3.2823
X4.8469Y-3.3453
X4.8469Y-3.4398
X4.8469Y-3.5028
X4.8469Y-3.5657
X4.85Y-2.5075
X4.85Y-2.5825
X4.8525Y-2.43
X4.855Y-2.82
X4.8784Y-1.6445
X4.8784Y-1.7075
X4.8784Y-1.7705
X4.8784Y-1.8335
X4.8784Y-2.7783
X4.8784Y-3.1878
X4.8784Y-3.2508
X4.8784Y-3.3138
X4.8784Y-3.3768
X4.8895Y-2.943
X4.89Y-2.06
X4.8915Y-2.1635
X4.895Y-2.3125
X4.909Y-2.7995
X4.9099Y-1.613
X4.9099Y-1.676
X4.9099Y-1.739
X4.9099Y-1.802
X4.9099Y-2.7469
X4.9099Y-3.2193
X4.9099Y-3.2823
X4.9099Y-3.3453
X4.916Y-2.2095
X4.9225Y-2.3525
X4.9375Y-2.7125
X4.9414Y-1.6445
X4.9414Y-1.7075
X4.9414Y-1.7705
X4.9414Y-1.8335
X4.9414Y-3.1878
X4.9414Y-3.2508
X4.9414Y-3.3138
X4.9414Y-3.3768
X4.9445Y-2.895
X4.945Y-2.8475
X4.952Y-2.06
X4.955Y-2.17
X4.955Y-2.6725
X4.9553Y-2.3403
X4.9625Y-2.6275
X4.97Y-3.025
X4.9729Y-1.424
X4.9729Y-1.487
X4.9729Y-1.55
X4.9729Y-2.7469
X4.9729Y-3.4083
X4.9729Y-3.4713
X4.9729Y-3.5343
X4.9729Y-3.5972
X4.9775Y-2.5075
X5.0044Y-1.4555
X5.0044Y-1.5185
X5.0044Y-1.5815
X5.0044Y-3.4398
X5.0044Y-3.5028
X5.0044Y-3.5657
X5.0359Y-1.424
X5.0359Y-1.487
X5.0359Y-1.55
X5.0359Y-3.4083
X5.0359Y-3.4713
X5.0359Y-3.5343
X5.0359Y-3.5972
X5.0674Y-1.4555
X5.0674Y-1.5185
X5.0674Y-1.5815
X5.0674Y-2.4949
X5.0674Y-3.4398
X5.0674Y-3.5028
X5.0674Y-3.5657
X5.0989Y-1.424
X5.0989Y-1.487
X5.0989Y-1.55
X5.0989Y-2.1484
X5.0989Y-2.5264
X5.0989Y-3.4083
X5.0989Y-3.4713
X5.0989Y-3.5343
X5.0989Y-3.5972
X5.118Y-2.382
X5.121Y-3.026
X5.1304Y-1.4555
X5.1304Y-1.5185
X5.1304Y-1.5815
X5.1304Y-1.802
X5.1304Y-2.1169
X5.1304Y-2.2744
X5.1304Y-2.5579
X5.1304Y-2.6209
X5.1304Y-3.1878
X5.1304Y-3.4398
X5.1304Y-3.5028
X5.1304Y-3.5657
X5.1325Y-2.67
X5.135Y-2.17
X5.1353Y-2.3403
X5.1385Y-2.0605
X5.1585Y-2.6965
X5.1619Y-1.613
X5.1619Y-1.676
X5.1619Y-1.739
X5.1619Y-1.8335
X5.1619Y-2.0854
X5.1619Y-2.1484
X5.1619Y-2.4004
X5.1619Y-3.2193
X5.1619Y-3.2823
X5.1619Y-3.3453
X5.174Y-2.2095
X5.1934Y-1.6445
X5.1934Y-1.7075
X5.1934Y-1.7705
X5.1934Y-2.1169
X5.1934Y-2.1799
X5.1934Y-2.2429
X5.1934Y-2.3059
X5.1934Y-2.3689
X5.1934Y-2.4319
X5.1934Y-3.1878
X5.1934Y-3.2508
X5.1934Y-3.3138
X5.1934Y-3.3768
X5.2Y-2.06
X5.219Y-2.4805
X5.235Y-2.5225
X5.235Y-2.57
X5.235Y-2.615
X5.235Y-2.66
X5.235Y-2.7075
X5.235Y-2.75
X5.235Y-2.8
X5.235Y-2.85
X5.235Y-2.9
X5.235Y-2.9475
T2
X4.555Y-2.235
X4.6525Y-2.1175
X4.7575Y-2.0575
X4.785Y-2.82
X4.8Y-3.1225
X4.8056Y-2.2169
X4.9Y-1.89
X4.9Y-3.12
X5.02Y-3.2375
X5.0225Y-1.775
X5.07Y-3.2375
X5.0725Y-1.775
X5.0975Y-2.055
X5.1175Y-2.875
X5.19Y-1.89
X5.19Y-3.12
X5.1925Y-2.945
T3
X4.438Y-2.0065
X4.438Y-2.1065
X4.438Y-2.8565
X4.438Y-2.9565
X4.438Y-3.0565
X4.438Y-3.1565
X4.438Y-3.2565
X4.438Y-3.3565
X4.438Y-3.4565
X4.438Y-3.5565
X4.538Y-2.0065
X4.538Y-2.1065
X4.538Y-2.8565
X4.538Y-2.9565
X4.538Y-3.0565
X4.538Y-3.1565
X4.538Y-3.2565
X4.538Y-3.3565
X4.538Y-3.4565
X4.538Y-3.5565
T0
M30
