%TF.GenerationSoftware,KiCad,Pcbnew,(5.1.9)-1*%
%TF.CreationDate,2021-07-06T15:26:53+07:00*%
%TF.ProjectId,A2B,4132422e-6b69-4636-9164-5f7063625858,2*%
%TF.SameCoordinates,Original*%
%TF.FileFunction,Copper,L2,Inr*%
%TF.FilePolarity,Positive*%
%FSLAX46Y46*%
G04 Gerber Fmt 4.6, Leading zero omitted, Abs format (unit mm)*
G04 Created by KiCad (PCBNEW (5.1.9)-1) date 2021-07-06 15:26:53*
%MOMM*%
%LPD*%
G01*
G04 APERTURE LIST*
%TA.AperFunction,ComponentPad*%
%ADD10O,1.700000X1.700000*%
%TD*%
%TA.AperFunction,ComponentPad*%
%ADD11R,1.700000X1.700000*%
%TD*%
%TA.AperFunction,ViaPad*%
%ADD12C,0.600000*%
%TD*%
%TA.AperFunction,ViaPad*%
%ADD13C,0.700000*%
%TD*%
%TA.AperFunction,ViaPad*%
%ADD14C,0.800000*%
%TD*%
%TA.AperFunction,Conductor*%
%ADD15C,0.254000*%
%TD*%
%TA.AperFunction,Conductor*%
%ADD16C,0.100000*%
%TD*%
G04 APERTURE END LIST*
D10*
%TO.N,GND*%
%TO.C,D3*%
X115265200Y-53505100D03*
X112725200Y-53505100D03*
%TO.N,+8V*%
X115265200Y-50965100D03*
X112725200Y-50965100D03*
D11*
%TO.N,GND*%
X115265200Y-90335100D03*
D10*
X112725200Y-90335100D03*
%TO.N,/PDMCLK\u005CIO7*%
X115265200Y-87795100D03*
%TO.N,/DRX1*%
X112725200Y-87795100D03*
%TO.N,/DRX0*%
X115265200Y-85255100D03*
%TO.N,/DTX1*%
X112725200Y-85255100D03*
%TO.N,/DTX0*%
X115265200Y-82715100D03*
%TO.N,GND*%
X112725200Y-82715100D03*
%TO.N,/SYNC*%
X115265200Y-80175100D03*
%TO.N,/BCLK*%
X112725200Y-80175100D03*
%TO.N,/CLKOUT2*%
X115265200Y-77635100D03*
%TO.N,/CLKOUT1*%
X112725200Y-77635100D03*
%TO.N,/IRQ*%
X115265200Y-75095100D03*
%TO.N,GND*%
X112725200Y-75095100D03*
%TO.N,/SDA*%
X115265200Y-72555100D03*
%TO.N,/SCL*%
X112725200Y-72555100D03*
%TD*%
D12*
%TO.N,GND*%
X121348500Y-63627000D03*
X119888000Y-65151000D03*
X119888000Y-64389000D03*
X119888000Y-62865000D03*
X120650000Y-63627000D03*
X119126000Y-63627000D03*
X119888000Y-63627000D03*
X126428500Y-63690500D03*
X122428000Y-61150500D03*
X118427500Y-63627000D03*
X119888000Y-62166500D03*
X116776500Y-56769000D03*
X109511799Y-50569999D03*
X109511799Y-52169999D03*
X109511799Y-53769999D03*
X109511799Y-70569999D03*
X109511799Y-72169999D03*
X109511799Y-73769999D03*
X109511799Y-75369999D03*
X109511799Y-76969999D03*
X109511799Y-78569999D03*
X109511799Y-80169999D03*
X109511799Y-81769999D03*
X109511799Y-83369999D03*
X109511799Y-84969999D03*
X109511799Y-86569999D03*
X109511799Y-88169999D03*
X109511799Y-89769999D03*
X109511799Y-91369999D03*
X110311799Y-51369999D03*
X110311799Y-52969999D03*
X110311799Y-77769999D03*
X110311799Y-79369999D03*
X110311799Y-80969999D03*
X110311799Y-82569999D03*
X110311799Y-84169999D03*
X110311799Y-85769999D03*
X110311799Y-87369999D03*
X110311799Y-88969999D03*
X110311799Y-90569999D03*
X111111799Y-52169999D03*
X111111799Y-53769999D03*
X111111799Y-78569999D03*
X111111799Y-80169999D03*
X111111799Y-81769999D03*
X111111799Y-83369999D03*
X111111799Y-86569999D03*
X111111799Y-89769999D03*
X111111799Y-91369999D03*
X113511799Y-55369999D03*
X113511799Y-56969999D03*
X114311799Y-56169999D03*
X116711799Y-36169999D03*
X116711799Y-37769999D03*
X116711799Y-39369999D03*
X116711799Y-40969999D03*
X116711799Y-42569999D03*
X116711799Y-44169999D03*
X116711799Y-47369999D03*
X117511799Y-36969999D03*
X117511799Y-38569999D03*
X117511799Y-40169999D03*
X117511799Y-41769999D03*
X117511799Y-43369999D03*
X117511799Y-44969999D03*
X117511799Y-48169999D03*
X117511799Y-86569999D03*
X117511799Y-88169999D03*
X117511799Y-89769999D03*
X117511799Y-91369999D03*
X118311799Y-36169999D03*
X118311799Y-37769999D03*
X118311799Y-39369999D03*
X118311799Y-40969999D03*
X118311799Y-42569999D03*
X118311799Y-44169999D03*
X118311799Y-85769999D03*
X118311799Y-87369999D03*
X118311799Y-88969999D03*
X118311799Y-90569999D03*
X119111799Y-36969999D03*
X119111799Y-38569999D03*
X119111799Y-40169999D03*
X119111799Y-41769999D03*
X119111799Y-43369999D03*
X119111799Y-44969999D03*
X119111799Y-83369999D03*
X119111799Y-84969999D03*
X119111799Y-86569999D03*
X119111799Y-88169999D03*
X119111799Y-89769999D03*
X119111799Y-91369999D03*
X119911799Y-36169999D03*
X119911799Y-37769999D03*
X119911799Y-39369999D03*
X119911799Y-40969999D03*
X119911799Y-42569999D03*
X119911799Y-44169999D03*
X119911799Y-45769999D03*
X119911799Y-78569999D03*
X119911799Y-80169999D03*
X119911799Y-81769999D03*
X119911799Y-84169999D03*
X119911799Y-85769999D03*
X119911799Y-87369999D03*
X119911799Y-88969999D03*
X119911799Y-90569999D03*
X120711799Y-36969999D03*
X120711799Y-38569999D03*
X120711799Y-40169999D03*
X120711799Y-41769999D03*
X120711799Y-43369999D03*
X120711799Y-44969999D03*
X120711799Y-80969999D03*
X120711799Y-82569999D03*
X120711799Y-84969999D03*
X120711799Y-86569999D03*
X120711799Y-88169999D03*
X120711799Y-89769999D03*
X120711799Y-91369999D03*
X121511799Y-36169999D03*
X121511799Y-37769999D03*
X121511799Y-39369999D03*
X121511799Y-40969999D03*
X121511799Y-42569999D03*
X121511799Y-44169999D03*
X121511799Y-45769999D03*
X121511799Y-81769999D03*
X121511799Y-83369999D03*
X121511799Y-85769999D03*
X121511799Y-87369999D03*
X121511799Y-88969999D03*
X121511799Y-90569999D03*
X122311799Y-36969999D03*
X122311799Y-38569999D03*
X122311799Y-40169999D03*
X122311799Y-41769999D03*
X122311799Y-43369999D03*
X122311799Y-44969999D03*
X122311799Y-46569999D03*
X122311799Y-48969999D03*
X122311799Y-80969999D03*
X122311799Y-82569999D03*
X122311799Y-84169999D03*
X122311799Y-86569999D03*
X122311799Y-88169999D03*
X122311799Y-89769999D03*
X122311799Y-91369999D03*
X123111799Y-36169999D03*
X123111799Y-37769999D03*
X123111799Y-39369999D03*
X123111799Y-40969999D03*
X123111799Y-42569999D03*
X123111799Y-44169999D03*
X123111799Y-45769999D03*
X123111799Y-49769999D03*
X123317000Y-71628000D03*
X123111799Y-81769999D03*
X123111799Y-83369999D03*
X123111799Y-84969999D03*
X123111799Y-87369999D03*
X123111799Y-88969999D03*
X123111799Y-90569999D03*
X123911799Y-41769999D03*
X123911799Y-43369999D03*
X123911799Y-44969999D03*
X123911799Y-46569999D03*
X123911799Y-70569999D03*
X123911799Y-80969999D03*
X123911799Y-82569999D03*
X123911799Y-84169999D03*
X123911799Y-85769999D03*
X124711799Y-40969999D03*
X124711799Y-42569999D03*
X124711799Y-44169999D03*
X124711799Y-45769999D03*
X124244100Y-54952900D03*
X124711799Y-69769999D03*
X124711799Y-81769999D03*
X124711799Y-83369999D03*
X124711799Y-84969999D03*
X125511799Y-41769999D03*
X125511799Y-43369999D03*
X125511799Y-44969999D03*
X125511799Y-46569999D03*
X125511799Y-80969999D03*
X125511799Y-82569999D03*
X125511799Y-84169999D03*
X125511799Y-85769999D03*
X126311799Y-36169999D03*
X126311799Y-37769999D03*
X126311799Y-39369999D03*
X126311799Y-69769999D03*
X126311799Y-86569999D03*
X126311799Y-88169999D03*
X126311799Y-89769999D03*
X126311799Y-91369999D03*
X127111799Y-36969999D03*
X127111799Y-38569999D03*
X127111799Y-40169999D03*
X127111799Y-87369999D03*
X127111799Y-88969999D03*
X127111799Y-90569999D03*
X127911799Y-36169999D03*
X127911799Y-37769999D03*
X127911799Y-39369999D03*
X127911799Y-86569999D03*
X127911799Y-88169999D03*
X127911799Y-89769999D03*
X127911799Y-91369999D03*
X128711799Y-36969999D03*
X128711799Y-38569999D03*
X128711799Y-40169999D03*
X128711799Y-63369999D03*
X128711799Y-87369999D03*
X128711799Y-88969999D03*
X128711799Y-90569999D03*
X129511799Y-36169999D03*
X129511799Y-37769999D03*
X129511799Y-39369999D03*
X129511799Y-54569999D03*
X129511799Y-64169999D03*
X129511799Y-86569999D03*
X129511799Y-88169999D03*
X129511799Y-89769999D03*
X129511799Y-91369999D03*
X130311799Y-36969999D03*
X130311799Y-38569999D03*
X130311799Y-40169999D03*
X130311799Y-45769999D03*
X130311799Y-53769999D03*
X130311799Y-57769999D03*
X130311799Y-64969999D03*
X130311799Y-66569999D03*
X130311799Y-80969999D03*
X130311799Y-87369999D03*
X130311799Y-88969999D03*
X130311799Y-90569999D03*
X131111799Y-40969999D03*
X131111799Y-42569999D03*
X131111799Y-44169999D03*
X131111799Y-46569999D03*
X131111799Y-52969999D03*
X131111799Y-54569999D03*
X131111799Y-60969999D03*
X131111799Y-81769999D03*
X131111799Y-83369999D03*
X131111799Y-84969999D03*
X131911799Y-41769999D03*
X131911799Y-43369999D03*
X131911799Y-44969999D03*
X131911799Y-53769999D03*
X131911799Y-55369999D03*
X131911799Y-56969999D03*
X131911799Y-58569999D03*
X131911799Y-60169999D03*
X131911799Y-61769999D03*
X131911799Y-80969999D03*
X131911799Y-82569999D03*
X131911799Y-84169999D03*
X131911799Y-85769999D03*
X125780800Y-52324000D03*
X130517900Y-52336700D03*
X124866400Y-56121300D03*
X131419600Y-56121300D03*
X124688600Y-71107300D03*
X132969000Y-71120000D03*
X124193300Y-74752200D03*
X130073400Y-76860400D03*
X126238000Y-76835000D03*
X125590300Y-73533000D03*
X122555000Y-72567800D03*
X122999500Y-73812400D03*
X129997200Y-60502800D03*
X132562600Y-63004700D03*
X132969000Y-64071500D03*
X132969000Y-65278000D03*
X132969000Y-69850000D03*
X132969000Y-68770500D03*
X132969000Y-67564000D03*
X132969000Y-66421000D03*
X132969000Y-74866500D03*
X125857000Y-55118000D03*
X130429000Y-55118000D03*
X124206000Y-52324000D03*
X132080000Y-52324000D03*
X126047500Y-66738500D03*
X125412500Y-68897500D03*
X111950500Y-59055000D03*
X111950500Y-57785000D03*
X111950500Y-56515000D03*
X111950500Y-55308500D03*
X116776500Y-70675500D03*
X122618500Y-70739000D03*
X125031500Y-59753500D03*
X124333000Y-58737500D03*
X122999500Y-56705500D03*
X117094000Y-56007000D03*
%TO.N,/AD_VOUT1*%
X116459000Y-62413500D03*
X116522500Y-60579000D03*
X114681000Y-61531500D03*
%TO.N,Net-(C11-Pad2)*%
X115887500Y-68262500D03*
%TO.N,/AD_VOUT2*%
X123190000Y-63690500D03*
X119651500Y-60025000D03*
X115760500Y-69278500D03*
X112077500Y-69405500D03*
X112298200Y-63149200D03*
D13*
%TO.N,Net-(C14-Pad1)*%
X122061000Y-56310500D03*
X120840500Y-52260500D03*
%TO.N,+8V*%
X131889500Y-74803000D03*
%TO.N,/SENSE*%
X129476500Y-52197000D03*
X118173500Y-53784500D03*
D12*
%TO.N,Net-(C18-Pad1)*%
X123253500Y-61722000D03*
%TO.N,Net-(C19-Pad2)*%
X123190000Y-65595500D03*
%TO.N,Net-(C24-Pad2)*%
X122745500Y-60134500D03*
%TO.N,Net-(C28-Pad2)*%
X130436800Y-59443800D03*
X125864800Y-59443800D03*
%TO.N,Net-(C29-Pad2)*%
X130365500Y-67818000D03*
X125857000Y-67881500D03*
D13*
%TO.N,Net-(C39-Pad1)*%
X124460000Y-79248000D03*
X131826000Y-79248000D03*
%TO.N,Net-(C41-Pad1)*%
X131826000Y-48006000D03*
X124460000Y-48006000D03*
D14*
%TO.N,/AP3*%
X128778000Y-82232500D03*
%TO.N,/AN3*%
X127508000Y-82232500D03*
%TO.N,/BN3*%
X127571500Y-45085000D03*
%TO.N,/BP3*%
X128841500Y-45085000D03*
D12*
%TO.N,/CLKOUT1*%
X111529300Y-65618800D03*
%TO.N,/CLKOUT2*%
X111506000Y-66929000D03*
%TO.N,Net-(R7-Pad1)*%
X117475000Y-60198000D03*
%TO.N,/IRQ*%
X115125500Y-64516000D03*
%TO.N,/DRX1*%
X121412000Y-67691000D03*
%TO.N,/DRX0*%
X120777000Y-67183000D03*
%TO.N,/SDA*%
X115824000Y-63944500D03*
%TO.N,/SCL*%
X116014500Y-63119000D03*
%TO.N,Net-(C2-Pad1)*%
X122809000Y-74866500D03*
X125603000Y-72326500D03*
D14*
%TO.N,Net-(C4-Pad2)*%
X121920000Y-79311500D03*
X130238500Y-72771000D03*
%TO.N,/VIN*%
X121539000Y-71628000D03*
X115697000Y-56769000D03*
%TD*%
D15*
%TO.N,GND*%
X133109501Y-92228200D02*
X109054100Y-92228200D01*
X109054100Y-90691990D01*
X111283724Y-90691990D01*
X111328375Y-90839199D01*
X111453559Y-91102020D01*
X111627612Y-91335369D01*
X111843845Y-91530278D01*
X112093948Y-91679257D01*
X112368309Y-91776581D01*
X112598200Y-91655914D01*
X112598200Y-90462100D01*
X112852200Y-90462100D01*
X112852200Y-91655914D01*
X113082091Y-91776581D01*
X113356452Y-91679257D01*
X113606555Y-91530278D01*
X113802702Y-91353474D01*
X113825698Y-91429280D01*
X113884663Y-91539594D01*
X113964015Y-91636285D01*
X114060706Y-91715637D01*
X114171020Y-91774602D01*
X114290718Y-91810912D01*
X114415200Y-91823172D01*
X114979450Y-91820100D01*
X115138200Y-91661350D01*
X115138200Y-90462100D01*
X115392200Y-90462100D01*
X115392200Y-91661350D01*
X115550950Y-91820100D01*
X116115200Y-91823172D01*
X116239682Y-91810912D01*
X116359380Y-91774602D01*
X116469694Y-91715637D01*
X116566385Y-91636285D01*
X116645737Y-91539594D01*
X116704702Y-91429280D01*
X116741012Y-91309582D01*
X116753272Y-91185100D01*
X116750200Y-90620850D01*
X116591450Y-90462100D01*
X115392200Y-90462100D01*
X115138200Y-90462100D01*
X112852200Y-90462100D01*
X112598200Y-90462100D01*
X111405045Y-90462100D01*
X111283724Y-90691990D01*
X109054100Y-90691990D01*
X109054100Y-89978210D01*
X111283724Y-89978210D01*
X111405045Y-90208100D01*
X112598200Y-90208100D01*
X112598200Y-90188100D01*
X112852200Y-90188100D01*
X112852200Y-90208100D01*
X115138200Y-90208100D01*
X115138200Y-90188100D01*
X115392200Y-90188100D01*
X115392200Y-90208100D01*
X116591450Y-90208100D01*
X116750200Y-90049350D01*
X116753272Y-89485100D01*
X116741012Y-89360618D01*
X116704702Y-89240920D01*
X116645737Y-89130606D01*
X116566385Y-89033915D01*
X116469694Y-88954563D01*
X116359380Y-88895598D01*
X116239682Y-88859288D01*
X116115200Y-88847028D01*
X115904906Y-88848173D01*
X116049917Y-88751280D01*
X116221380Y-88579817D01*
X116356098Y-88378197D01*
X116448893Y-88154169D01*
X116496200Y-87916343D01*
X116496200Y-87673857D01*
X116448893Y-87436031D01*
X116356098Y-87212003D01*
X116221380Y-87010383D01*
X116049917Y-86838920D01*
X115848297Y-86704202D01*
X115624269Y-86611407D01*
X115386443Y-86564100D01*
X115143957Y-86564100D01*
X114906131Y-86611407D01*
X114682103Y-86704202D01*
X114480483Y-86838920D01*
X114309020Y-87010383D01*
X114174302Y-87212003D01*
X114081507Y-87436031D01*
X114034200Y-87673857D01*
X114034200Y-87916343D01*
X114081507Y-88154169D01*
X114174302Y-88378197D01*
X114309020Y-88579817D01*
X114480483Y-88751280D01*
X114625494Y-88848173D01*
X114415200Y-88847028D01*
X114290718Y-88859288D01*
X114171020Y-88895598D01*
X114060706Y-88954563D01*
X113964015Y-89033915D01*
X113884663Y-89130606D01*
X113825698Y-89240920D01*
X113802702Y-89316726D01*
X113606555Y-89139922D01*
X113356452Y-88990943D01*
X113194032Y-88933328D01*
X113308297Y-88885998D01*
X113509917Y-88751280D01*
X113681380Y-88579817D01*
X113816098Y-88378197D01*
X113908893Y-88154169D01*
X113956200Y-87916343D01*
X113956200Y-87673857D01*
X113908893Y-87436031D01*
X113816098Y-87212003D01*
X113681380Y-87010383D01*
X113509917Y-86838920D01*
X113308297Y-86704202D01*
X113084269Y-86611407D01*
X112846443Y-86564100D01*
X112603957Y-86564100D01*
X112366131Y-86611407D01*
X112142103Y-86704202D01*
X111940483Y-86838920D01*
X111769020Y-87010383D01*
X111634302Y-87212003D01*
X111541507Y-87436031D01*
X111494200Y-87673857D01*
X111494200Y-87916343D01*
X111541507Y-88154169D01*
X111634302Y-88378197D01*
X111769020Y-88579817D01*
X111940483Y-88751280D01*
X112142103Y-88885998D01*
X112256368Y-88933328D01*
X112093948Y-88990943D01*
X111843845Y-89139922D01*
X111627612Y-89334831D01*
X111453559Y-89568180D01*
X111328375Y-89831001D01*
X111283724Y-89978210D01*
X109054100Y-89978210D01*
X109054100Y-82358210D01*
X111283724Y-82358210D01*
X111405045Y-82588100D01*
X112598200Y-82588100D01*
X112598200Y-82568100D01*
X112852200Y-82568100D01*
X112852200Y-82588100D01*
X112872200Y-82588100D01*
X112872200Y-82842100D01*
X112852200Y-82842100D01*
X112852200Y-82862100D01*
X112598200Y-82862100D01*
X112598200Y-82842100D01*
X111405045Y-82842100D01*
X111283724Y-83071990D01*
X111328375Y-83219199D01*
X111453559Y-83482020D01*
X111627612Y-83715369D01*
X111843845Y-83910278D01*
X112093948Y-84059257D01*
X112256368Y-84116872D01*
X112142103Y-84164202D01*
X111940483Y-84298920D01*
X111769020Y-84470383D01*
X111634302Y-84672003D01*
X111541507Y-84896031D01*
X111494200Y-85133857D01*
X111494200Y-85376343D01*
X111541507Y-85614169D01*
X111634302Y-85838197D01*
X111769020Y-86039817D01*
X111940483Y-86211280D01*
X112142103Y-86345998D01*
X112366131Y-86438793D01*
X112603957Y-86486100D01*
X112846443Y-86486100D01*
X113084269Y-86438793D01*
X113308297Y-86345998D01*
X113509917Y-86211280D01*
X113681380Y-86039817D01*
X113816098Y-85838197D01*
X113908893Y-85614169D01*
X113956200Y-85376343D01*
X113956200Y-85133857D01*
X114034200Y-85133857D01*
X114034200Y-85376343D01*
X114081507Y-85614169D01*
X114174302Y-85838197D01*
X114309020Y-86039817D01*
X114480483Y-86211280D01*
X114682103Y-86345998D01*
X114906131Y-86438793D01*
X115143957Y-86486100D01*
X115386443Y-86486100D01*
X115624269Y-86438793D01*
X115848297Y-86345998D01*
X116049917Y-86211280D01*
X116221380Y-86039817D01*
X116356098Y-85838197D01*
X116448893Y-85614169D01*
X116496200Y-85376343D01*
X116496200Y-85133857D01*
X116448893Y-84896031D01*
X116356098Y-84672003D01*
X116221380Y-84470383D01*
X116049917Y-84298920D01*
X115848297Y-84164202D01*
X115624269Y-84071407D01*
X115386443Y-84024100D01*
X115143957Y-84024100D01*
X114906131Y-84071407D01*
X114682103Y-84164202D01*
X114480483Y-84298920D01*
X114309020Y-84470383D01*
X114174302Y-84672003D01*
X114081507Y-84896031D01*
X114034200Y-85133857D01*
X113956200Y-85133857D01*
X113908893Y-84896031D01*
X113816098Y-84672003D01*
X113681380Y-84470383D01*
X113509917Y-84298920D01*
X113308297Y-84164202D01*
X113194032Y-84116872D01*
X113356452Y-84059257D01*
X113606555Y-83910278D01*
X113822788Y-83715369D01*
X113996841Y-83482020D01*
X114122025Y-83219199D01*
X114130291Y-83191946D01*
X114174302Y-83298197D01*
X114309020Y-83499817D01*
X114480483Y-83671280D01*
X114682103Y-83805998D01*
X114906131Y-83898793D01*
X115143957Y-83946100D01*
X115386443Y-83946100D01*
X115624269Y-83898793D01*
X115848297Y-83805998D01*
X116049917Y-83671280D01*
X116221380Y-83499817D01*
X116356098Y-83298197D01*
X116448893Y-83074169D01*
X116496200Y-82836343D01*
X116496200Y-82593857D01*
X116448893Y-82356031D01*
X116365864Y-82155578D01*
X126727000Y-82155578D01*
X126727000Y-82309422D01*
X126757013Y-82460309D01*
X126815887Y-82602442D01*
X126901358Y-82730359D01*
X127010141Y-82839142D01*
X127138058Y-82924613D01*
X127280191Y-82983487D01*
X127431078Y-83013500D01*
X127584922Y-83013500D01*
X127735809Y-82983487D01*
X127877942Y-82924613D01*
X128005859Y-82839142D01*
X128114642Y-82730359D01*
X128143000Y-82687918D01*
X128171358Y-82730359D01*
X128280141Y-82839142D01*
X128408058Y-82924613D01*
X128550191Y-82983487D01*
X128701078Y-83013500D01*
X128854922Y-83013500D01*
X129005809Y-82983487D01*
X129147942Y-82924613D01*
X129275859Y-82839142D01*
X129384642Y-82730359D01*
X129470113Y-82602442D01*
X129528987Y-82460309D01*
X129559000Y-82309422D01*
X129559000Y-82155578D01*
X129528987Y-82004691D01*
X129470113Y-81862558D01*
X129384642Y-81734641D01*
X129275859Y-81625858D01*
X129147942Y-81540387D01*
X129005809Y-81481513D01*
X128854922Y-81451500D01*
X128701078Y-81451500D01*
X128550191Y-81481513D01*
X128408058Y-81540387D01*
X128280141Y-81625858D01*
X128171358Y-81734641D01*
X128143000Y-81777082D01*
X128114642Y-81734641D01*
X128005859Y-81625858D01*
X127877942Y-81540387D01*
X127735809Y-81481513D01*
X127584922Y-81451500D01*
X127431078Y-81451500D01*
X127280191Y-81481513D01*
X127138058Y-81540387D01*
X127010141Y-81625858D01*
X126901358Y-81734641D01*
X126815887Y-81862558D01*
X126757013Y-82004691D01*
X126727000Y-82155578D01*
X116365864Y-82155578D01*
X116356098Y-82132003D01*
X116221380Y-81930383D01*
X116049917Y-81758920D01*
X115848297Y-81624202D01*
X115624269Y-81531407D01*
X115386443Y-81484100D01*
X115143957Y-81484100D01*
X114906131Y-81531407D01*
X114682103Y-81624202D01*
X114480483Y-81758920D01*
X114309020Y-81930383D01*
X114174302Y-82132003D01*
X114130291Y-82238254D01*
X114122025Y-82211001D01*
X113996841Y-81948180D01*
X113822788Y-81714831D01*
X113606555Y-81519922D01*
X113356452Y-81370943D01*
X113194032Y-81313328D01*
X113308297Y-81265998D01*
X113509917Y-81131280D01*
X113681380Y-80959817D01*
X113816098Y-80758197D01*
X113908893Y-80534169D01*
X113956200Y-80296343D01*
X113956200Y-80053857D01*
X114034200Y-80053857D01*
X114034200Y-80296343D01*
X114081507Y-80534169D01*
X114174302Y-80758197D01*
X114309020Y-80959817D01*
X114480483Y-81131280D01*
X114682103Y-81265998D01*
X114906131Y-81358793D01*
X115143957Y-81406100D01*
X115386443Y-81406100D01*
X115624269Y-81358793D01*
X115848297Y-81265998D01*
X116049917Y-81131280D01*
X116221380Y-80959817D01*
X116356098Y-80758197D01*
X116448893Y-80534169D01*
X116496200Y-80296343D01*
X116496200Y-80053857D01*
X116448893Y-79816031D01*
X116356098Y-79592003D01*
X116221380Y-79390383D01*
X116065575Y-79234578D01*
X121139000Y-79234578D01*
X121139000Y-79388422D01*
X121169013Y-79539309D01*
X121227887Y-79681442D01*
X121313358Y-79809359D01*
X121422141Y-79918142D01*
X121550058Y-80003613D01*
X121692191Y-80062487D01*
X121843078Y-80092500D01*
X121996922Y-80092500D01*
X122147809Y-80062487D01*
X122289942Y-80003613D01*
X122417859Y-79918142D01*
X122526642Y-79809359D01*
X122612113Y-79681442D01*
X122670987Y-79539309D01*
X122701000Y-79388422D01*
X122701000Y-79234578D01*
X122689349Y-79176003D01*
X123729000Y-79176003D01*
X123729000Y-79319997D01*
X123757092Y-79461225D01*
X123812196Y-79594258D01*
X123892195Y-79713985D01*
X123994015Y-79815805D01*
X124113742Y-79895804D01*
X124246775Y-79950908D01*
X124388003Y-79979000D01*
X124531997Y-79979000D01*
X124673225Y-79950908D01*
X124806258Y-79895804D01*
X124925985Y-79815805D01*
X125027805Y-79713985D01*
X125107804Y-79594258D01*
X125162908Y-79461225D01*
X125191000Y-79319997D01*
X125191000Y-79176003D01*
X131095000Y-79176003D01*
X131095000Y-79319997D01*
X131123092Y-79461225D01*
X131178196Y-79594258D01*
X131258195Y-79713985D01*
X131360015Y-79815805D01*
X131479742Y-79895804D01*
X131612775Y-79950908D01*
X131754003Y-79979000D01*
X131897997Y-79979000D01*
X132039225Y-79950908D01*
X132172258Y-79895804D01*
X132291985Y-79815805D01*
X132393805Y-79713985D01*
X132473804Y-79594258D01*
X132528908Y-79461225D01*
X132557000Y-79319997D01*
X132557000Y-79176003D01*
X132528908Y-79034775D01*
X132473804Y-78901742D01*
X132393805Y-78782015D01*
X132291985Y-78680195D01*
X132172258Y-78600196D01*
X132039225Y-78545092D01*
X131897997Y-78517000D01*
X131754003Y-78517000D01*
X131612775Y-78545092D01*
X131479742Y-78600196D01*
X131360015Y-78680195D01*
X131258195Y-78782015D01*
X131178196Y-78901742D01*
X131123092Y-79034775D01*
X131095000Y-79176003D01*
X125191000Y-79176003D01*
X125162908Y-79034775D01*
X125107804Y-78901742D01*
X125027805Y-78782015D01*
X124925985Y-78680195D01*
X124806258Y-78600196D01*
X124673225Y-78545092D01*
X124531997Y-78517000D01*
X124388003Y-78517000D01*
X124246775Y-78545092D01*
X124113742Y-78600196D01*
X123994015Y-78680195D01*
X123892195Y-78782015D01*
X123812196Y-78901742D01*
X123757092Y-79034775D01*
X123729000Y-79176003D01*
X122689349Y-79176003D01*
X122670987Y-79083691D01*
X122612113Y-78941558D01*
X122526642Y-78813641D01*
X122417859Y-78704858D01*
X122289942Y-78619387D01*
X122147809Y-78560513D01*
X121996922Y-78530500D01*
X121843078Y-78530500D01*
X121692191Y-78560513D01*
X121550058Y-78619387D01*
X121422141Y-78704858D01*
X121313358Y-78813641D01*
X121227887Y-78941558D01*
X121169013Y-79083691D01*
X121139000Y-79234578D01*
X116065575Y-79234578D01*
X116049917Y-79218920D01*
X115848297Y-79084202D01*
X115624269Y-78991407D01*
X115386443Y-78944100D01*
X115143957Y-78944100D01*
X114906131Y-78991407D01*
X114682103Y-79084202D01*
X114480483Y-79218920D01*
X114309020Y-79390383D01*
X114174302Y-79592003D01*
X114081507Y-79816031D01*
X114034200Y-80053857D01*
X113956200Y-80053857D01*
X113908893Y-79816031D01*
X113816098Y-79592003D01*
X113681380Y-79390383D01*
X113509917Y-79218920D01*
X113308297Y-79084202D01*
X113084269Y-78991407D01*
X112846443Y-78944100D01*
X112603957Y-78944100D01*
X112366131Y-78991407D01*
X112142103Y-79084202D01*
X111940483Y-79218920D01*
X111769020Y-79390383D01*
X111634302Y-79592003D01*
X111541507Y-79816031D01*
X111494200Y-80053857D01*
X111494200Y-80296343D01*
X111541507Y-80534169D01*
X111634302Y-80758197D01*
X111769020Y-80959817D01*
X111940483Y-81131280D01*
X112142103Y-81265998D01*
X112256368Y-81313328D01*
X112093948Y-81370943D01*
X111843845Y-81519922D01*
X111627612Y-81714831D01*
X111453559Y-81948180D01*
X111328375Y-82211001D01*
X111283724Y-82358210D01*
X109054100Y-82358210D01*
X109054100Y-74738210D01*
X111283724Y-74738210D01*
X111405045Y-74968100D01*
X112598200Y-74968100D01*
X112598200Y-74948100D01*
X112852200Y-74948100D01*
X112852200Y-74968100D01*
X112872200Y-74968100D01*
X112872200Y-75222100D01*
X112852200Y-75222100D01*
X112852200Y-75242100D01*
X112598200Y-75242100D01*
X112598200Y-75222100D01*
X111405045Y-75222100D01*
X111283724Y-75451990D01*
X111328375Y-75599199D01*
X111453559Y-75862020D01*
X111627612Y-76095369D01*
X111843845Y-76290278D01*
X112093948Y-76439257D01*
X112256368Y-76496872D01*
X112142103Y-76544202D01*
X111940483Y-76678920D01*
X111769020Y-76850383D01*
X111634302Y-77052003D01*
X111541507Y-77276031D01*
X111494200Y-77513857D01*
X111494200Y-77756343D01*
X111541507Y-77994169D01*
X111634302Y-78218197D01*
X111769020Y-78419817D01*
X111940483Y-78591280D01*
X112142103Y-78725998D01*
X112366131Y-78818793D01*
X112603957Y-78866100D01*
X112846443Y-78866100D01*
X113084269Y-78818793D01*
X113308297Y-78725998D01*
X113509917Y-78591280D01*
X113681380Y-78419817D01*
X113816098Y-78218197D01*
X113908893Y-77994169D01*
X113956200Y-77756343D01*
X113956200Y-77513857D01*
X114034200Y-77513857D01*
X114034200Y-77756343D01*
X114081507Y-77994169D01*
X114174302Y-78218197D01*
X114309020Y-78419817D01*
X114480483Y-78591280D01*
X114682103Y-78725998D01*
X114906131Y-78818793D01*
X115143957Y-78866100D01*
X115386443Y-78866100D01*
X115624269Y-78818793D01*
X115848297Y-78725998D01*
X116049917Y-78591280D01*
X116221380Y-78419817D01*
X116356098Y-78218197D01*
X116448893Y-77994169D01*
X116496200Y-77756343D01*
X116496200Y-77513857D01*
X116448893Y-77276031D01*
X116356098Y-77052003D01*
X116221380Y-76850383D01*
X116049917Y-76678920D01*
X115848297Y-76544202D01*
X115624269Y-76451407D01*
X115386443Y-76404100D01*
X115143957Y-76404100D01*
X114906131Y-76451407D01*
X114682103Y-76544202D01*
X114480483Y-76678920D01*
X114309020Y-76850383D01*
X114174302Y-77052003D01*
X114081507Y-77276031D01*
X114034200Y-77513857D01*
X113956200Y-77513857D01*
X113908893Y-77276031D01*
X113816098Y-77052003D01*
X113681380Y-76850383D01*
X113509917Y-76678920D01*
X113308297Y-76544202D01*
X113194032Y-76496872D01*
X113356452Y-76439257D01*
X113606555Y-76290278D01*
X113822788Y-76095369D01*
X113996841Y-75862020D01*
X114122025Y-75599199D01*
X114130291Y-75571946D01*
X114174302Y-75678197D01*
X114309020Y-75879817D01*
X114480483Y-76051280D01*
X114682103Y-76185998D01*
X114906131Y-76278793D01*
X115143957Y-76326100D01*
X115386443Y-76326100D01*
X115624269Y-76278793D01*
X115848297Y-76185998D01*
X116049917Y-76051280D01*
X116221380Y-75879817D01*
X116356098Y-75678197D01*
X116448893Y-75454169D01*
X116496200Y-75216343D01*
X116496200Y-74973857D01*
X116461504Y-74799427D01*
X122128000Y-74799427D01*
X122128000Y-74933573D01*
X122154171Y-75065140D01*
X122205506Y-75189074D01*
X122280033Y-75300612D01*
X122374888Y-75395467D01*
X122486426Y-75469994D01*
X122610360Y-75521329D01*
X122741927Y-75547500D01*
X122876073Y-75547500D01*
X123007640Y-75521329D01*
X123131574Y-75469994D01*
X123243112Y-75395467D01*
X123337967Y-75300612D01*
X123412494Y-75189074D01*
X123463829Y-75065140D01*
X123490000Y-74933573D01*
X123490000Y-74799427D01*
X123476390Y-74731003D01*
X131158500Y-74731003D01*
X131158500Y-74874997D01*
X131186592Y-75016225D01*
X131241696Y-75149258D01*
X131321695Y-75268985D01*
X131423515Y-75370805D01*
X131543242Y-75450804D01*
X131676275Y-75505908D01*
X131817503Y-75534000D01*
X131961497Y-75534000D01*
X132102725Y-75505908D01*
X132235758Y-75450804D01*
X132355485Y-75370805D01*
X132457305Y-75268985D01*
X132537304Y-75149258D01*
X132592408Y-75016225D01*
X132620500Y-74874997D01*
X132620500Y-74731003D01*
X132592408Y-74589775D01*
X132537304Y-74456742D01*
X132457305Y-74337015D01*
X132355485Y-74235195D01*
X132235758Y-74155196D01*
X132102725Y-74100092D01*
X131961497Y-74072000D01*
X131817503Y-74072000D01*
X131676275Y-74100092D01*
X131543242Y-74155196D01*
X131423515Y-74235195D01*
X131321695Y-74337015D01*
X131241696Y-74456742D01*
X131186592Y-74589775D01*
X131158500Y-74731003D01*
X123476390Y-74731003D01*
X123463829Y-74667860D01*
X123412494Y-74543926D01*
X123337967Y-74432388D01*
X123243112Y-74337533D01*
X123131574Y-74263006D01*
X123007640Y-74211671D01*
X122876073Y-74185500D01*
X122741927Y-74185500D01*
X122610360Y-74211671D01*
X122486426Y-74263006D01*
X122374888Y-74337533D01*
X122280033Y-74432388D01*
X122205506Y-74543926D01*
X122154171Y-74667860D01*
X122128000Y-74799427D01*
X116461504Y-74799427D01*
X116448893Y-74736031D01*
X116356098Y-74512003D01*
X116221380Y-74310383D01*
X116049917Y-74138920D01*
X115848297Y-74004202D01*
X115624269Y-73911407D01*
X115386443Y-73864100D01*
X115143957Y-73864100D01*
X114906131Y-73911407D01*
X114682103Y-74004202D01*
X114480483Y-74138920D01*
X114309020Y-74310383D01*
X114174302Y-74512003D01*
X114130291Y-74618254D01*
X114122025Y-74591001D01*
X113996841Y-74328180D01*
X113822788Y-74094831D01*
X113606555Y-73899922D01*
X113356452Y-73750943D01*
X113194032Y-73693328D01*
X113308297Y-73645998D01*
X113509917Y-73511280D01*
X113681380Y-73339817D01*
X113816098Y-73138197D01*
X113908893Y-72914169D01*
X113956200Y-72676343D01*
X113956200Y-72433857D01*
X114034200Y-72433857D01*
X114034200Y-72676343D01*
X114081507Y-72914169D01*
X114174302Y-73138197D01*
X114309020Y-73339817D01*
X114480483Y-73511280D01*
X114682103Y-73645998D01*
X114906131Y-73738793D01*
X115143957Y-73786100D01*
X115386443Y-73786100D01*
X115624269Y-73738793D01*
X115848297Y-73645998D01*
X116049917Y-73511280D01*
X116221380Y-73339817D01*
X116356098Y-73138197D01*
X116448893Y-72914169D01*
X116496200Y-72676343D01*
X116496200Y-72433857D01*
X116448893Y-72196031D01*
X116356098Y-71972003D01*
X116221380Y-71770383D01*
X116049917Y-71598920D01*
X115978317Y-71551078D01*
X120758000Y-71551078D01*
X120758000Y-71704922D01*
X120788013Y-71855809D01*
X120846887Y-71997942D01*
X120932358Y-72125859D01*
X121041141Y-72234642D01*
X121169058Y-72320113D01*
X121311191Y-72378987D01*
X121462078Y-72409000D01*
X121615922Y-72409000D01*
X121766809Y-72378987D01*
X121908942Y-72320113D01*
X121999765Y-72259427D01*
X124922000Y-72259427D01*
X124922000Y-72393573D01*
X124948171Y-72525140D01*
X124999506Y-72649074D01*
X125074033Y-72760612D01*
X125168888Y-72855467D01*
X125280426Y-72929994D01*
X125404360Y-72981329D01*
X125535927Y-73007500D01*
X125670073Y-73007500D01*
X125801640Y-72981329D01*
X125925574Y-72929994D01*
X126037112Y-72855467D01*
X126131967Y-72760612D01*
X126176423Y-72694078D01*
X129457500Y-72694078D01*
X129457500Y-72847922D01*
X129487513Y-72998809D01*
X129546387Y-73140942D01*
X129631858Y-73268859D01*
X129740641Y-73377642D01*
X129868558Y-73463113D01*
X130010691Y-73521987D01*
X130161578Y-73552000D01*
X130315422Y-73552000D01*
X130466309Y-73521987D01*
X130608442Y-73463113D01*
X130736359Y-73377642D01*
X130845142Y-73268859D01*
X130930613Y-73140942D01*
X130989487Y-72998809D01*
X131019500Y-72847922D01*
X131019500Y-72694078D01*
X130989487Y-72543191D01*
X130930613Y-72401058D01*
X130845142Y-72273141D01*
X130736359Y-72164358D01*
X130608442Y-72078887D01*
X130466309Y-72020013D01*
X130315422Y-71990000D01*
X130161578Y-71990000D01*
X130010691Y-72020013D01*
X129868558Y-72078887D01*
X129740641Y-72164358D01*
X129631858Y-72273141D01*
X129546387Y-72401058D01*
X129487513Y-72543191D01*
X129457500Y-72694078D01*
X126176423Y-72694078D01*
X126206494Y-72649074D01*
X126257829Y-72525140D01*
X126284000Y-72393573D01*
X126284000Y-72259427D01*
X126257829Y-72127860D01*
X126206494Y-72003926D01*
X126131967Y-71892388D01*
X126037112Y-71797533D01*
X125925574Y-71723006D01*
X125801640Y-71671671D01*
X125670073Y-71645500D01*
X125535927Y-71645500D01*
X125404360Y-71671671D01*
X125280426Y-71723006D01*
X125168888Y-71797533D01*
X125074033Y-71892388D01*
X124999506Y-72003926D01*
X124948171Y-72127860D01*
X124922000Y-72259427D01*
X121999765Y-72259427D01*
X122036859Y-72234642D01*
X122145642Y-72125859D01*
X122231113Y-71997942D01*
X122289987Y-71855809D01*
X122320000Y-71704922D01*
X122320000Y-71551078D01*
X122289987Y-71400191D01*
X122231113Y-71258058D01*
X122145642Y-71130141D01*
X122036859Y-71021358D01*
X121908942Y-70935887D01*
X121766809Y-70877013D01*
X121615922Y-70847000D01*
X121462078Y-70847000D01*
X121311191Y-70877013D01*
X121169058Y-70935887D01*
X121041141Y-71021358D01*
X120932358Y-71130141D01*
X120846887Y-71258058D01*
X120788013Y-71400191D01*
X120758000Y-71551078D01*
X115978317Y-71551078D01*
X115848297Y-71464202D01*
X115624269Y-71371407D01*
X115386443Y-71324100D01*
X115143957Y-71324100D01*
X114906131Y-71371407D01*
X114682103Y-71464202D01*
X114480483Y-71598920D01*
X114309020Y-71770383D01*
X114174302Y-71972003D01*
X114081507Y-72196031D01*
X114034200Y-72433857D01*
X113956200Y-72433857D01*
X113908893Y-72196031D01*
X113816098Y-71972003D01*
X113681380Y-71770383D01*
X113509917Y-71598920D01*
X113308297Y-71464202D01*
X113084269Y-71371407D01*
X112846443Y-71324100D01*
X112603957Y-71324100D01*
X112366131Y-71371407D01*
X112142103Y-71464202D01*
X111940483Y-71598920D01*
X111769020Y-71770383D01*
X111634302Y-71972003D01*
X111541507Y-72196031D01*
X111494200Y-72433857D01*
X111494200Y-72676343D01*
X111541507Y-72914169D01*
X111634302Y-73138197D01*
X111769020Y-73339817D01*
X111940483Y-73511280D01*
X112142103Y-73645998D01*
X112256368Y-73693328D01*
X112093948Y-73750943D01*
X111843845Y-73899922D01*
X111627612Y-74094831D01*
X111453559Y-74328180D01*
X111328375Y-74591001D01*
X111283724Y-74738210D01*
X109054100Y-74738210D01*
X109054100Y-69338427D01*
X111396500Y-69338427D01*
X111396500Y-69472573D01*
X111422671Y-69604140D01*
X111474006Y-69728074D01*
X111548533Y-69839612D01*
X111643388Y-69934467D01*
X111754926Y-70008994D01*
X111878860Y-70060329D01*
X112010427Y-70086500D01*
X112144573Y-70086500D01*
X112276140Y-70060329D01*
X112400074Y-70008994D01*
X112511612Y-69934467D01*
X112606467Y-69839612D01*
X112680994Y-69728074D01*
X112732329Y-69604140D01*
X112758500Y-69472573D01*
X112758500Y-69338427D01*
X112733238Y-69211427D01*
X115079500Y-69211427D01*
X115079500Y-69345573D01*
X115105671Y-69477140D01*
X115157006Y-69601074D01*
X115231533Y-69712612D01*
X115326388Y-69807467D01*
X115437926Y-69881994D01*
X115561860Y-69933329D01*
X115693427Y-69959500D01*
X115827573Y-69959500D01*
X115959140Y-69933329D01*
X116083074Y-69881994D01*
X116194612Y-69807467D01*
X116289467Y-69712612D01*
X116363994Y-69601074D01*
X116415329Y-69477140D01*
X116441500Y-69345573D01*
X116441500Y-69211427D01*
X116415329Y-69079860D01*
X116363994Y-68955926D01*
X116289467Y-68844388D01*
X116270619Y-68825540D01*
X116321612Y-68791467D01*
X116416467Y-68696612D01*
X116490994Y-68585074D01*
X116542329Y-68461140D01*
X116568500Y-68329573D01*
X116568500Y-68195427D01*
X116542329Y-68063860D01*
X116490994Y-67939926D01*
X116416467Y-67828388D01*
X116321612Y-67733533D01*
X116210074Y-67659006D01*
X116086140Y-67607671D01*
X115954573Y-67581500D01*
X115820427Y-67581500D01*
X115688860Y-67607671D01*
X115564926Y-67659006D01*
X115453388Y-67733533D01*
X115358533Y-67828388D01*
X115284006Y-67939926D01*
X115232671Y-68063860D01*
X115206500Y-68195427D01*
X115206500Y-68329573D01*
X115232671Y-68461140D01*
X115284006Y-68585074D01*
X115358533Y-68696612D01*
X115377381Y-68715460D01*
X115326388Y-68749533D01*
X115231533Y-68844388D01*
X115157006Y-68955926D01*
X115105671Y-69079860D01*
X115079500Y-69211427D01*
X112733238Y-69211427D01*
X112732329Y-69206860D01*
X112680994Y-69082926D01*
X112606467Y-68971388D01*
X112511612Y-68876533D01*
X112400074Y-68802006D01*
X112276140Y-68750671D01*
X112144573Y-68724500D01*
X112010427Y-68724500D01*
X111878860Y-68750671D01*
X111754926Y-68802006D01*
X111643388Y-68876533D01*
X111548533Y-68971388D01*
X111474006Y-69082926D01*
X111422671Y-69206860D01*
X111396500Y-69338427D01*
X109054100Y-69338427D01*
X109054100Y-66861927D01*
X110825000Y-66861927D01*
X110825000Y-66996073D01*
X110851171Y-67127640D01*
X110902506Y-67251574D01*
X110977033Y-67363112D01*
X111071888Y-67457967D01*
X111183426Y-67532494D01*
X111307360Y-67583829D01*
X111438927Y-67610000D01*
X111573073Y-67610000D01*
X111704640Y-67583829D01*
X111828574Y-67532494D01*
X111940112Y-67457967D01*
X112034967Y-67363112D01*
X112109494Y-67251574D01*
X112160829Y-67127640D01*
X112163158Y-67115927D01*
X120096000Y-67115927D01*
X120096000Y-67250073D01*
X120122171Y-67381640D01*
X120173506Y-67505574D01*
X120248033Y-67617112D01*
X120342888Y-67711967D01*
X120454426Y-67786494D01*
X120578360Y-67837829D01*
X120709927Y-67864000D01*
X120752071Y-67864000D01*
X120757171Y-67889640D01*
X120808506Y-68013574D01*
X120883033Y-68125112D01*
X120977888Y-68219967D01*
X121089426Y-68294494D01*
X121213360Y-68345829D01*
X121344927Y-68372000D01*
X121479073Y-68372000D01*
X121610640Y-68345829D01*
X121734574Y-68294494D01*
X121846112Y-68219967D01*
X121940967Y-68125112D01*
X122015494Y-68013574D01*
X122066829Y-67889640D01*
X122081790Y-67814427D01*
X125176000Y-67814427D01*
X125176000Y-67948573D01*
X125202171Y-68080140D01*
X125253506Y-68204074D01*
X125328033Y-68315612D01*
X125422888Y-68410467D01*
X125534426Y-68484994D01*
X125658360Y-68536329D01*
X125789927Y-68562500D01*
X125924073Y-68562500D01*
X126055640Y-68536329D01*
X126179574Y-68484994D01*
X126291112Y-68410467D01*
X126385967Y-68315612D01*
X126460494Y-68204074D01*
X126511829Y-68080140D01*
X126538000Y-67948573D01*
X126538000Y-67814427D01*
X126525369Y-67750927D01*
X129684500Y-67750927D01*
X129684500Y-67885073D01*
X129710671Y-68016640D01*
X129762006Y-68140574D01*
X129836533Y-68252112D01*
X129931388Y-68346967D01*
X130042926Y-68421494D01*
X130166860Y-68472829D01*
X130298427Y-68499000D01*
X130432573Y-68499000D01*
X130564140Y-68472829D01*
X130688074Y-68421494D01*
X130799612Y-68346967D01*
X130894467Y-68252112D01*
X130968994Y-68140574D01*
X131020329Y-68016640D01*
X131046500Y-67885073D01*
X131046500Y-67750927D01*
X131020329Y-67619360D01*
X130968994Y-67495426D01*
X130894467Y-67383888D01*
X130799612Y-67289033D01*
X130688074Y-67214506D01*
X130564140Y-67163171D01*
X130432573Y-67137000D01*
X130298427Y-67137000D01*
X130166860Y-67163171D01*
X130042926Y-67214506D01*
X129931388Y-67289033D01*
X129836533Y-67383888D01*
X129762006Y-67495426D01*
X129710671Y-67619360D01*
X129684500Y-67750927D01*
X126525369Y-67750927D01*
X126511829Y-67682860D01*
X126460494Y-67558926D01*
X126385967Y-67447388D01*
X126291112Y-67352533D01*
X126179574Y-67278006D01*
X126055640Y-67226671D01*
X125924073Y-67200500D01*
X125789927Y-67200500D01*
X125658360Y-67226671D01*
X125534426Y-67278006D01*
X125422888Y-67352533D01*
X125328033Y-67447388D01*
X125253506Y-67558926D01*
X125202171Y-67682860D01*
X125176000Y-67814427D01*
X122081790Y-67814427D01*
X122093000Y-67758073D01*
X122093000Y-67623927D01*
X122066829Y-67492360D01*
X122015494Y-67368426D01*
X121940967Y-67256888D01*
X121846112Y-67162033D01*
X121734574Y-67087506D01*
X121610640Y-67036171D01*
X121479073Y-67010000D01*
X121436929Y-67010000D01*
X121431829Y-66984360D01*
X121380494Y-66860426D01*
X121305967Y-66748888D01*
X121211112Y-66654033D01*
X121099574Y-66579506D01*
X120975640Y-66528171D01*
X120844073Y-66502000D01*
X120709927Y-66502000D01*
X120578360Y-66528171D01*
X120454426Y-66579506D01*
X120342888Y-66654033D01*
X120248033Y-66748888D01*
X120173506Y-66860426D01*
X120122171Y-66984360D01*
X120096000Y-67115927D01*
X112163158Y-67115927D01*
X112187000Y-66996073D01*
X112187000Y-66861927D01*
X112160829Y-66730360D01*
X112109494Y-66606426D01*
X112034967Y-66494888D01*
X111940112Y-66400033D01*
X111828574Y-66325506D01*
X111711315Y-66276936D01*
X111727940Y-66273629D01*
X111851874Y-66222294D01*
X111963412Y-66147767D01*
X112058267Y-66052912D01*
X112132794Y-65941374D01*
X112184129Y-65817440D01*
X112210300Y-65685873D01*
X112210300Y-65551727D01*
X112205666Y-65528427D01*
X122509000Y-65528427D01*
X122509000Y-65662573D01*
X122535171Y-65794140D01*
X122586506Y-65918074D01*
X122661033Y-66029612D01*
X122755888Y-66124467D01*
X122867426Y-66198994D01*
X122991360Y-66250329D01*
X123122927Y-66276500D01*
X123257073Y-66276500D01*
X123388640Y-66250329D01*
X123512574Y-66198994D01*
X123624112Y-66124467D01*
X123718967Y-66029612D01*
X123793494Y-65918074D01*
X123844829Y-65794140D01*
X123871000Y-65662573D01*
X123871000Y-65528427D01*
X123844829Y-65396860D01*
X123793494Y-65272926D01*
X123718967Y-65161388D01*
X123624112Y-65066533D01*
X123512574Y-64992006D01*
X123388640Y-64940671D01*
X123257073Y-64914500D01*
X123122927Y-64914500D01*
X122991360Y-64940671D01*
X122867426Y-64992006D01*
X122755888Y-65066533D01*
X122661033Y-65161388D01*
X122586506Y-65272926D01*
X122535171Y-65396860D01*
X122509000Y-65528427D01*
X112205666Y-65528427D01*
X112184129Y-65420160D01*
X112132794Y-65296226D01*
X112058267Y-65184688D01*
X111963412Y-65089833D01*
X111851874Y-65015306D01*
X111727940Y-64963971D01*
X111596373Y-64937800D01*
X111462227Y-64937800D01*
X111330660Y-64963971D01*
X111206726Y-65015306D01*
X111095188Y-65089833D01*
X111000333Y-65184688D01*
X110925806Y-65296226D01*
X110874471Y-65420160D01*
X110848300Y-65551727D01*
X110848300Y-65685873D01*
X110874471Y-65817440D01*
X110925806Y-65941374D01*
X111000333Y-66052912D01*
X111095188Y-66147767D01*
X111206726Y-66222294D01*
X111323985Y-66270864D01*
X111307360Y-66274171D01*
X111183426Y-66325506D01*
X111071888Y-66400033D01*
X110977033Y-66494888D01*
X110902506Y-66606426D01*
X110851171Y-66730360D01*
X110825000Y-66861927D01*
X109054100Y-66861927D01*
X109054100Y-64448927D01*
X114444500Y-64448927D01*
X114444500Y-64583073D01*
X114470671Y-64714640D01*
X114522006Y-64838574D01*
X114596533Y-64950112D01*
X114691388Y-65044967D01*
X114802926Y-65119494D01*
X114926860Y-65170829D01*
X115058427Y-65197000D01*
X115192573Y-65197000D01*
X115324140Y-65170829D01*
X115448074Y-65119494D01*
X115559612Y-65044967D01*
X115654467Y-64950112D01*
X115728994Y-64838574D01*
X115780329Y-64714640D01*
X115798061Y-64625500D01*
X115891073Y-64625500D01*
X116022640Y-64599329D01*
X116146574Y-64547994D01*
X116258112Y-64473467D01*
X116352967Y-64378612D01*
X116427494Y-64267074D01*
X116478829Y-64143140D01*
X116505000Y-64011573D01*
X116505000Y-63877427D01*
X116478829Y-63745860D01*
X116440520Y-63653374D01*
X116448612Y-63647967D01*
X116473152Y-63623427D01*
X122509000Y-63623427D01*
X122509000Y-63757573D01*
X122535171Y-63889140D01*
X122586506Y-64013074D01*
X122661033Y-64124612D01*
X122755888Y-64219467D01*
X122867426Y-64293994D01*
X122991360Y-64345329D01*
X123122927Y-64371500D01*
X123257073Y-64371500D01*
X123388640Y-64345329D01*
X123512574Y-64293994D01*
X123624112Y-64219467D01*
X123718967Y-64124612D01*
X123793494Y-64013074D01*
X123844829Y-63889140D01*
X123871000Y-63757573D01*
X123871000Y-63623427D01*
X123844829Y-63491860D01*
X123793494Y-63367926D01*
X123718967Y-63256388D01*
X123624112Y-63161533D01*
X123512574Y-63087006D01*
X123388640Y-63035671D01*
X123257073Y-63009500D01*
X123122927Y-63009500D01*
X122991360Y-63035671D01*
X122867426Y-63087006D01*
X122755888Y-63161533D01*
X122661033Y-63256388D01*
X122586506Y-63367926D01*
X122535171Y-63491860D01*
X122509000Y-63623427D01*
X116473152Y-63623427D01*
X116543467Y-63553112D01*
X116617994Y-63441574D01*
X116669329Y-63317640D01*
X116695500Y-63186073D01*
X116695500Y-63052647D01*
X116781574Y-63016994D01*
X116893112Y-62942467D01*
X116987967Y-62847612D01*
X117062494Y-62736074D01*
X117113829Y-62612140D01*
X117140000Y-62480573D01*
X117140000Y-62346427D01*
X117113829Y-62214860D01*
X117062494Y-62090926D01*
X116987967Y-61979388D01*
X116893112Y-61884533D01*
X116781574Y-61810006D01*
X116657640Y-61758671D01*
X116526073Y-61732500D01*
X116391927Y-61732500D01*
X116260360Y-61758671D01*
X116136426Y-61810006D01*
X116024888Y-61884533D01*
X115930033Y-61979388D01*
X115855506Y-62090926D01*
X115804171Y-62214860D01*
X115778000Y-62346427D01*
X115778000Y-62479853D01*
X115691926Y-62515506D01*
X115580388Y-62590033D01*
X115485533Y-62684888D01*
X115411006Y-62796426D01*
X115359671Y-62920360D01*
X115333500Y-63051927D01*
X115333500Y-63186073D01*
X115359671Y-63317640D01*
X115397980Y-63410126D01*
X115389888Y-63415533D01*
X115295033Y-63510388D01*
X115220506Y-63621926D01*
X115169171Y-63745860D01*
X115151439Y-63835000D01*
X115058427Y-63835000D01*
X114926860Y-63861171D01*
X114802926Y-63912506D01*
X114691388Y-63987033D01*
X114596533Y-64081888D01*
X114522006Y-64193426D01*
X114470671Y-64317360D01*
X114444500Y-64448927D01*
X109054100Y-64448927D01*
X109054100Y-63082127D01*
X111617200Y-63082127D01*
X111617200Y-63216273D01*
X111643371Y-63347840D01*
X111694706Y-63471774D01*
X111769233Y-63583312D01*
X111864088Y-63678167D01*
X111975626Y-63752694D01*
X112099560Y-63804029D01*
X112231127Y-63830200D01*
X112365273Y-63830200D01*
X112496840Y-63804029D01*
X112620774Y-63752694D01*
X112732312Y-63678167D01*
X112827167Y-63583312D01*
X112901694Y-63471774D01*
X112953029Y-63347840D01*
X112979200Y-63216273D01*
X112979200Y-63082127D01*
X112953029Y-62950560D01*
X112901694Y-62826626D01*
X112827167Y-62715088D01*
X112732312Y-62620233D01*
X112620774Y-62545706D01*
X112496840Y-62494371D01*
X112365273Y-62468200D01*
X112231127Y-62468200D01*
X112099560Y-62494371D01*
X111975626Y-62545706D01*
X111864088Y-62620233D01*
X111769233Y-62715088D01*
X111694706Y-62826626D01*
X111643371Y-62950560D01*
X111617200Y-63082127D01*
X109054100Y-63082127D01*
X109054100Y-61464427D01*
X114000000Y-61464427D01*
X114000000Y-61598573D01*
X114026171Y-61730140D01*
X114077506Y-61854074D01*
X114152033Y-61965612D01*
X114246888Y-62060467D01*
X114358426Y-62134994D01*
X114482360Y-62186329D01*
X114613927Y-62212500D01*
X114748073Y-62212500D01*
X114879640Y-62186329D01*
X115003574Y-62134994D01*
X115115112Y-62060467D01*
X115209967Y-61965612D01*
X115284494Y-61854074D01*
X115335829Y-61730140D01*
X115350790Y-61654927D01*
X122572500Y-61654927D01*
X122572500Y-61789073D01*
X122598671Y-61920640D01*
X122650006Y-62044574D01*
X122724533Y-62156112D01*
X122819388Y-62250967D01*
X122930926Y-62325494D01*
X123054860Y-62376829D01*
X123186427Y-62403000D01*
X123320573Y-62403000D01*
X123452140Y-62376829D01*
X123576074Y-62325494D01*
X123687612Y-62250967D01*
X123782467Y-62156112D01*
X123856994Y-62044574D01*
X123908329Y-61920640D01*
X123934500Y-61789073D01*
X123934500Y-61654927D01*
X123908329Y-61523360D01*
X123856994Y-61399426D01*
X123782467Y-61287888D01*
X123687612Y-61193033D01*
X123576074Y-61118506D01*
X123452140Y-61067171D01*
X123320573Y-61041000D01*
X123186427Y-61041000D01*
X123054860Y-61067171D01*
X122930926Y-61118506D01*
X122819388Y-61193033D01*
X122724533Y-61287888D01*
X122650006Y-61399426D01*
X122598671Y-61523360D01*
X122572500Y-61654927D01*
X115350790Y-61654927D01*
X115362000Y-61598573D01*
X115362000Y-61464427D01*
X115335829Y-61332860D01*
X115284494Y-61208926D01*
X115209967Y-61097388D01*
X115115112Y-61002533D01*
X115003574Y-60928006D01*
X114879640Y-60876671D01*
X114748073Y-60850500D01*
X114613927Y-60850500D01*
X114482360Y-60876671D01*
X114358426Y-60928006D01*
X114246888Y-61002533D01*
X114152033Y-61097388D01*
X114077506Y-61208926D01*
X114026171Y-61332860D01*
X114000000Y-61464427D01*
X109054100Y-61464427D01*
X109054100Y-60511927D01*
X115841500Y-60511927D01*
X115841500Y-60646073D01*
X115867671Y-60777640D01*
X115919006Y-60901574D01*
X115993533Y-61013112D01*
X116088388Y-61107967D01*
X116199926Y-61182494D01*
X116323860Y-61233829D01*
X116455427Y-61260000D01*
X116589573Y-61260000D01*
X116721140Y-61233829D01*
X116845074Y-61182494D01*
X116956612Y-61107967D01*
X117051467Y-61013112D01*
X117125994Y-60901574D01*
X117165248Y-60806805D01*
X117276360Y-60852829D01*
X117407927Y-60879000D01*
X117542073Y-60879000D01*
X117673640Y-60852829D01*
X117797574Y-60801494D01*
X117909112Y-60726967D01*
X118003967Y-60632112D01*
X118078494Y-60520574D01*
X118129829Y-60396640D01*
X118156000Y-60265073D01*
X118156000Y-60130927D01*
X118129829Y-59999360D01*
X118112667Y-59957927D01*
X118970500Y-59957927D01*
X118970500Y-60092073D01*
X118996671Y-60223640D01*
X119048006Y-60347574D01*
X119122533Y-60459112D01*
X119217388Y-60553967D01*
X119328926Y-60628494D01*
X119452860Y-60679829D01*
X119584427Y-60706000D01*
X119718573Y-60706000D01*
X119850140Y-60679829D01*
X119974074Y-60628494D01*
X120085612Y-60553967D01*
X120180467Y-60459112D01*
X120254994Y-60347574D01*
X120306329Y-60223640D01*
X120332500Y-60092073D01*
X120332500Y-60067427D01*
X122064500Y-60067427D01*
X122064500Y-60201573D01*
X122090671Y-60333140D01*
X122142006Y-60457074D01*
X122216533Y-60568612D01*
X122311388Y-60663467D01*
X122422926Y-60737994D01*
X122546860Y-60789329D01*
X122678427Y-60815500D01*
X122812573Y-60815500D01*
X122944140Y-60789329D01*
X123068074Y-60737994D01*
X123179612Y-60663467D01*
X123274467Y-60568612D01*
X123348994Y-60457074D01*
X123400329Y-60333140D01*
X123426500Y-60201573D01*
X123426500Y-60067427D01*
X123400329Y-59935860D01*
X123348994Y-59811926D01*
X123274467Y-59700388D01*
X123179612Y-59605533D01*
X123068074Y-59531006D01*
X122944140Y-59479671D01*
X122812573Y-59453500D01*
X122678427Y-59453500D01*
X122546860Y-59479671D01*
X122422926Y-59531006D01*
X122311388Y-59605533D01*
X122216533Y-59700388D01*
X122142006Y-59811926D01*
X122090671Y-59935860D01*
X122064500Y-60067427D01*
X120332500Y-60067427D01*
X120332500Y-59957927D01*
X120306329Y-59826360D01*
X120254994Y-59702426D01*
X120180467Y-59590888D01*
X120085612Y-59496033D01*
X119974074Y-59421506D01*
X119865968Y-59376727D01*
X125183800Y-59376727D01*
X125183800Y-59510873D01*
X125209971Y-59642440D01*
X125261306Y-59766374D01*
X125335833Y-59877912D01*
X125430688Y-59972767D01*
X125542226Y-60047294D01*
X125666160Y-60098629D01*
X125797727Y-60124800D01*
X125931873Y-60124800D01*
X126063440Y-60098629D01*
X126187374Y-60047294D01*
X126298912Y-59972767D01*
X126393767Y-59877912D01*
X126468294Y-59766374D01*
X126519629Y-59642440D01*
X126545800Y-59510873D01*
X126545800Y-59376727D01*
X129755800Y-59376727D01*
X129755800Y-59510873D01*
X129781971Y-59642440D01*
X129833306Y-59766374D01*
X129907833Y-59877912D01*
X130002688Y-59972767D01*
X130114226Y-60047294D01*
X130238160Y-60098629D01*
X130369727Y-60124800D01*
X130503873Y-60124800D01*
X130635440Y-60098629D01*
X130759374Y-60047294D01*
X130870912Y-59972767D01*
X130965767Y-59877912D01*
X131040294Y-59766374D01*
X131091629Y-59642440D01*
X131117800Y-59510873D01*
X131117800Y-59376727D01*
X131091629Y-59245160D01*
X131040294Y-59121226D01*
X130965767Y-59009688D01*
X130870912Y-58914833D01*
X130759374Y-58840306D01*
X130635440Y-58788971D01*
X130503873Y-58762800D01*
X130369727Y-58762800D01*
X130238160Y-58788971D01*
X130114226Y-58840306D01*
X130002688Y-58914833D01*
X129907833Y-59009688D01*
X129833306Y-59121226D01*
X129781971Y-59245160D01*
X129755800Y-59376727D01*
X126545800Y-59376727D01*
X126519629Y-59245160D01*
X126468294Y-59121226D01*
X126393767Y-59009688D01*
X126298912Y-58914833D01*
X126187374Y-58840306D01*
X126063440Y-58788971D01*
X125931873Y-58762800D01*
X125797727Y-58762800D01*
X125666160Y-58788971D01*
X125542226Y-58840306D01*
X125430688Y-58914833D01*
X125335833Y-59009688D01*
X125261306Y-59121226D01*
X125209971Y-59245160D01*
X125183800Y-59376727D01*
X119865968Y-59376727D01*
X119850140Y-59370171D01*
X119718573Y-59344000D01*
X119584427Y-59344000D01*
X119452860Y-59370171D01*
X119328926Y-59421506D01*
X119217388Y-59496033D01*
X119122533Y-59590888D01*
X119048006Y-59702426D01*
X118996671Y-59826360D01*
X118970500Y-59957927D01*
X118112667Y-59957927D01*
X118078494Y-59875426D01*
X118003967Y-59763888D01*
X117909112Y-59669033D01*
X117797574Y-59594506D01*
X117673640Y-59543171D01*
X117542073Y-59517000D01*
X117407927Y-59517000D01*
X117276360Y-59543171D01*
X117152426Y-59594506D01*
X117040888Y-59669033D01*
X116946033Y-59763888D01*
X116871506Y-59875426D01*
X116832252Y-59970195D01*
X116721140Y-59924171D01*
X116589573Y-59898000D01*
X116455427Y-59898000D01*
X116323860Y-59924171D01*
X116199926Y-59975506D01*
X116088388Y-60050033D01*
X115993533Y-60144888D01*
X115919006Y-60256426D01*
X115867671Y-60380360D01*
X115841500Y-60511927D01*
X109054100Y-60511927D01*
X109054100Y-56692078D01*
X114916000Y-56692078D01*
X114916000Y-56845922D01*
X114946013Y-56996809D01*
X115004887Y-57138942D01*
X115090358Y-57266859D01*
X115199141Y-57375642D01*
X115327058Y-57461113D01*
X115469191Y-57519987D01*
X115620078Y-57550000D01*
X115773922Y-57550000D01*
X115924809Y-57519987D01*
X116066942Y-57461113D01*
X116194859Y-57375642D01*
X116303642Y-57266859D01*
X116389113Y-57138942D01*
X116447987Y-56996809D01*
X116478000Y-56845922D01*
X116478000Y-56692078D01*
X116447987Y-56541191D01*
X116389113Y-56399058D01*
X116303642Y-56271141D01*
X116271004Y-56238503D01*
X121330000Y-56238503D01*
X121330000Y-56382497D01*
X121358092Y-56523725D01*
X121413196Y-56656758D01*
X121493195Y-56776485D01*
X121595015Y-56878305D01*
X121714742Y-56958304D01*
X121847775Y-57013408D01*
X121989003Y-57041500D01*
X122132997Y-57041500D01*
X122274225Y-57013408D01*
X122407258Y-56958304D01*
X122526985Y-56878305D01*
X122628805Y-56776485D01*
X122708804Y-56656758D01*
X122763908Y-56523725D01*
X122792000Y-56382497D01*
X122792000Y-56238503D01*
X122763908Y-56097275D01*
X122708804Y-55964242D01*
X122628805Y-55844515D01*
X122526985Y-55742695D01*
X122407258Y-55662696D01*
X122274225Y-55607592D01*
X122132997Y-55579500D01*
X121989003Y-55579500D01*
X121847775Y-55607592D01*
X121714742Y-55662696D01*
X121595015Y-55742695D01*
X121493195Y-55844515D01*
X121413196Y-55964242D01*
X121358092Y-56097275D01*
X121330000Y-56238503D01*
X116271004Y-56238503D01*
X116194859Y-56162358D01*
X116066942Y-56076887D01*
X115924809Y-56018013D01*
X115773922Y-55988000D01*
X115620078Y-55988000D01*
X115469191Y-56018013D01*
X115327058Y-56076887D01*
X115199141Y-56162358D01*
X115090358Y-56271141D01*
X115004887Y-56399058D01*
X114946013Y-56541191D01*
X114916000Y-56692078D01*
X109054100Y-56692078D01*
X109054100Y-53861990D01*
X111283724Y-53861990D01*
X111328375Y-54009199D01*
X111453559Y-54272020D01*
X111627612Y-54505369D01*
X111843845Y-54700278D01*
X112093948Y-54849257D01*
X112368309Y-54946581D01*
X112598200Y-54825914D01*
X112598200Y-53632100D01*
X112852200Y-53632100D01*
X112852200Y-54825914D01*
X113082091Y-54946581D01*
X113356452Y-54849257D01*
X113606555Y-54700278D01*
X113822788Y-54505369D01*
X113995200Y-54274220D01*
X114167612Y-54505369D01*
X114383845Y-54700278D01*
X114633948Y-54849257D01*
X114908309Y-54946581D01*
X115138200Y-54825914D01*
X115138200Y-53632100D01*
X115392200Y-53632100D01*
X115392200Y-54825914D01*
X115622091Y-54946581D01*
X115896452Y-54849257D01*
X116146555Y-54700278D01*
X116362788Y-54505369D01*
X116536841Y-54272020D01*
X116662025Y-54009199D01*
X116706676Y-53861990D01*
X116627787Y-53712503D01*
X117442500Y-53712503D01*
X117442500Y-53856497D01*
X117470592Y-53997725D01*
X117525696Y-54130758D01*
X117605695Y-54250485D01*
X117707515Y-54352305D01*
X117827242Y-54432304D01*
X117960275Y-54487408D01*
X118101503Y-54515500D01*
X118245497Y-54515500D01*
X118386725Y-54487408D01*
X118519758Y-54432304D01*
X118639485Y-54352305D01*
X118741305Y-54250485D01*
X118821304Y-54130758D01*
X118876408Y-53997725D01*
X118904500Y-53856497D01*
X118904500Y-53712503D01*
X118876408Y-53571275D01*
X118821304Y-53438242D01*
X118741305Y-53318515D01*
X118639485Y-53216695D01*
X118519758Y-53136696D01*
X118386725Y-53081592D01*
X118245497Y-53053500D01*
X118101503Y-53053500D01*
X117960275Y-53081592D01*
X117827242Y-53136696D01*
X117707515Y-53216695D01*
X117605695Y-53318515D01*
X117525696Y-53438242D01*
X117470592Y-53571275D01*
X117442500Y-53712503D01*
X116627787Y-53712503D01*
X116585355Y-53632100D01*
X115392200Y-53632100D01*
X115138200Y-53632100D01*
X112852200Y-53632100D01*
X112598200Y-53632100D01*
X111405045Y-53632100D01*
X111283724Y-53861990D01*
X109054100Y-53861990D01*
X109054100Y-49961000D01*
X112012200Y-49961000D01*
X111940483Y-50008920D01*
X111769020Y-50180383D01*
X111634302Y-50382003D01*
X111541507Y-50606031D01*
X111494200Y-50843857D01*
X111494200Y-51086343D01*
X111541507Y-51324169D01*
X111634302Y-51548197D01*
X111769020Y-51749817D01*
X111940483Y-51921280D01*
X112142103Y-52055998D01*
X112256368Y-52103328D01*
X112093948Y-52160943D01*
X111843845Y-52309922D01*
X111627612Y-52504831D01*
X111453559Y-52738180D01*
X111328375Y-53001001D01*
X111283724Y-53148210D01*
X111405045Y-53378100D01*
X112598200Y-53378100D01*
X112598200Y-53358100D01*
X112852200Y-53358100D01*
X112852200Y-53378100D01*
X115138200Y-53378100D01*
X115138200Y-53358100D01*
X115392200Y-53358100D01*
X115392200Y-53378100D01*
X116585355Y-53378100D01*
X116706676Y-53148210D01*
X116662025Y-53001001D01*
X116536841Y-52738180D01*
X116362788Y-52504831D01*
X116146555Y-52309922D01*
X115942720Y-52188503D01*
X120109500Y-52188503D01*
X120109500Y-52332497D01*
X120137592Y-52473725D01*
X120192696Y-52606758D01*
X120272695Y-52726485D01*
X120374515Y-52828305D01*
X120494242Y-52908304D01*
X120627275Y-52963408D01*
X120768503Y-52991500D01*
X120912497Y-52991500D01*
X121053725Y-52963408D01*
X121186758Y-52908304D01*
X121306485Y-52828305D01*
X121408305Y-52726485D01*
X121488304Y-52606758D01*
X121543408Y-52473725D01*
X121571500Y-52332497D01*
X121571500Y-52188503D01*
X121558870Y-52125003D01*
X128745500Y-52125003D01*
X128745500Y-52268997D01*
X128773592Y-52410225D01*
X128828696Y-52543258D01*
X128908695Y-52662985D01*
X129010515Y-52764805D01*
X129130242Y-52844804D01*
X129263275Y-52899908D01*
X129404503Y-52928000D01*
X129548497Y-52928000D01*
X129689725Y-52899908D01*
X129822758Y-52844804D01*
X129942485Y-52764805D01*
X130044305Y-52662985D01*
X130124304Y-52543258D01*
X130179408Y-52410225D01*
X130207500Y-52268997D01*
X130207500Y-52125003D01*
X130179408Y-51983775D01*
X130124304Y-51850742D01*
X130044305Y-51731015D01*
X129942485Y-51629195D01*
X129822758Y-51549196D01*
X129689725Y-51494092D01*
X129548497Y-51466000D01*
X129404503Y-51466000D01*
X129263275Y-51494092D01*
X129130242Y-51549196D01*
X129010515Y-51629195D01*
X128908695Y-51731015D01*
X128828696Y-51850742D01*
X128773592Y-51983775D01*
X128745500Y-52125003D01*
X121558870Y-52125003D01*
X121543408Y-52047275D01*
X121488304Y-51914242D01*
X121408305Y-51794515D01*
X121306485Y-51692695D01*
X121186758Y-51612696D01*
X121053725Y-51557592D01*
X120912497Y-51529500D01*
X120768503Y-51529500D01*
X120627275Y-51557592D01*
X120494242Y-51612696D01*
X120374515Y-51692695D01*
X120272695Y-51794515D01*
X120192696Y-51914242D01*
X120137592Y-52047275D01*
X120109500Y-52188503D01*
X115942720Y-52188503D01*
X115896452Y-52160943D01*
X115734032Y-52103328D01*
X115848297Y-52055998D01*
X116049917Y-51921280D01*
X116221380Y-51749817D01*
X116356098Y-51548197D01*
X116448893Y-51324169D01*
X116496200Y-51086343D01*
X116496200Y-50843857D01*
X116448893Y-50606031D01*
X116356098Y-50382003D01*
X116221380Y-50180383D01*
X116049917Y-50008920D01*
X115848297Y-49874202D01*
X115806798Y-49857013D01*
X115829509Y-49841694D01*
X115862200Y-49820301D01*
X115866864Y-49816498D01*
X115906970Y-49783319D01*
X115934459Y-49755638D01*
X115962409Y-49728267D01*
X115966245Y-49723629D01*
X115999142Y-49683293D01*
X116020748Y-49650773D01*
X116042831Y-49618521D01*
X116045693Y-49613227D01*
X116070129Y-49567268D01*
X116085014Y-49531153D01*
X116100399Y-49495258D01*
X116102179Y-49489509D01*
X116102180Y-49489504D01*
X116102183Y-49489498D01*
X116102184Y-49489491D01*
X116117224Y-49439680D01*
X116124814Y-49401352D01*
X116132935Y-49363144D01*
X116133562Y-49357175D01*
X116133564Y-49357166D01*
X116133564Y-49357158D01*
X116134511Y-49347502D01*
X116134537Y-49347415D01*
X116138406Y-49307773D01*
X116138643Y-49305357D01*
X116138643Y-49305346D01*
X116140718Y-49284086D01*
X116139524Y-47934003D01*
X123729000Y-47934003D01*
X123729000Y-48077997D01*
X123757092Y-48219225D01*
X123812196Y-48352258D01*
X123892195Y-48471985D01*
X123994015Y-48573805D01*
X124113742Y-48653804D01*
X124246775Y-48708908D01*
X124388003Y-48737000D01*
X124531997Y-48737000D01*
X124673225Y-48708908D01*
X124806258Y-48653804D01*
X124925985Y-48573805D01*
X125027805Y-48471985D01*
X125107804Y-48352258D01*
X125162908Y-48219225D01*
X125191000Y-48077997D01*
X125191000Y-47934003D01*
X131095000Y-47934003D01*
X131095000Y-48077997D01*
X131123092Y-48219225D01*
X131178196Y-48352258D01*
X131258195Y-48471985D01*
X131360015Y-48573805D01*
X131479742Y-48653804D01*
X131612775Y-48708908D01*
X131754003Y-48737000D01*
X131897997Y-48737000D01*
X132039225Y-48708908D01*
X132172258Y-48653804D01*
X132291985Y-48573805D01*
X132393805Y-48471985D01*
X132473804Y-48352258D01*
X132528908Y-48219225D01*
X132557000Y-48077997D01*
X132557000Y-47934003D01*
X132528908Y-47792775D01*
X132473804Y-47659742D01*
X132393805Y-47540015D01*
X132291985Y-47438195D01*
X132172258Y-47358196D01*
X132039225Y-47303092D01*
X131897997Y-47275000D01*
X131754003Y-47275000D01*
X131612775Y-47303092D01*
X131479742Y-47358196D01*
X131360015Y-47438195D01*
X131258195Y-47540015D01*
X131178196Y-47659742D01*
X131123092Y-47792775D01*
X131095000Y-47934003D01*
X125191000Y-47934003D01*
X125162908Y-47792775D01*
X125107804Y-47659742D01*
X125027805Y-47540015D01*
X124925985Y-47438195D01*
X124806258Y-47358196D01*
X124673225Y-47303092D01*
X124531997Y-47275000D01*
X124388003Y-47275000D01*
X124246775Y-47303092D01*
X124113742Y-47358196D01*
X123994015Y-47438195D01*
X123892195Y-47540015D01*
X123812196Y-47659742D01*
X123757092Y-47792775D01*
X123729000Y-47934003D01*
X116139524Y-47934003D01*
X116136936Y-45008078D01*
X126790500Y-45008078D01*
X126790500Y-45161922D01*
X126820513Y-45312809D01*
X126879387Y-45454942D01*
X126964858Y-45582859D01*
X127073641Y-45691642D01*
X127201558Y-45777113D01*
X127343691Y-45835987D01*
X127494578Y-45866000D01*
X127648422Y-45866000D01*
X127799309Y-45835987D01*
X127941442Y-45777113D01*
X128069359Y-45691642D01*
X128178142Y-45582859D01*
X128206500Y-45540418D01*
X128234858Y-45582859D01*
X128343641Y-45691642D01*
X128471558Y-45777113D01*
X128613691Y-45835987D01*
X128764578Y-45866000D01*
X128918422Y-45866000D01*
X129069309Y-45835987D01*
X129211442Y-45777113D01*
X129339359Y-45691642D01*
X129448142Y-45582859D01*
X129533613Y-45454942D01*
X129592487Y-45312809D01*
X129622500Y-45161922D01*
X129622500Y-45008078D01*
X129592487Y-44857191D01*
X129533613Y-44715058D01*
X129448142Y-44587141D01*
X129339359Y-44478358D01*
X129211442Y-44392887D01*
X129069309Y-44334013D01*
X128918422Y-44304000D01*
X128764578Y-44304000D01*
X128613691Y-44334013D01*
X128471558Y-44392887D01*
X128343641Y-44478358D01*
X128234858Y-44587141D01*
X128206500Y-44629582D01*
X128178142Y-44587141D01*
X128069359Y-44478358D01*
X127941442Y-44392887D01*
X127799309Y-44334013D01*
X127648422Y-44304000D01*
X127494578Y-44304000D01*
X127343691Y-44334013D01*
X127201558Y-44392887D01*
X127073641Y-44478358D01*
X126964858Y-44587141D01*
X126879387Y-44715058D01*
X126820513Y-44857191D01*
X126790500Y-45008078D01*
X116136936Y-45008078D01*
X116136797Y-44851972D01*
X116138863Y-44830993D01*
X116136759Y-44809633D01*
X116136759Y-44809440D01*
X116135748Y-43666445D01*
X116135748Y-43666440D01*
X116128145Y-35076600D01*
X133109500Y-35076600D01*
X133109501Y-92228200D01*
%TA.AperFunction,Conductor*%
D16*
G36*
X133109501Y-92228200D02*
G01*
X109054100Y-92228200D01*
X109054100Y-90691990D01*
X111283724Y-90691990D01*
X111328375Y-90839199D01*
X111453559Y-91102020D01*
X111627612Y-91335369D01*
X111843845Y-91530278D01*
X112093948Y-91679257D01*
X112368309Y-91776581D01*
X112598200Y-91655914D01*
X112598200Y-90462100D01*
X112852200Y-90462100D01*
X112852200Y-91655914D01*
X113082091Y-91776581D01*
X113356452Y-91679257D01*
X113606555Y-91530278D01*
X113802702Y-91353474D01*
X113825698Y-91429280D01*
X113884663Y-91539594D01*
X113964015Y-91636285D01*
X114060706Y-91715637D01*
X114171020Y-91774602D01*
X114290718Y-91810912D01*
X114415200Y-91823172D01*
X114979450Y-91820100D01*
X115138200Y-91661350D01*
X115138200Y-90462100D01*
X115392200Y-90462100D01*
X115392200Y-91661350D01*
X115550950Y-91820100D01*
X116115200Y-91823172D01*
X116239682Y-91810912D01*
X116359380Y-91774602D01*
X116469694Y-91715637D01*
X116566385Y-91636285D01*
X116645737Y-91539594D01*
X116704702Y-91429280D01*
X116741012Y-91309582D01*
X116753272Y-91185100D01*
X116750200Y-90620850D01*
X116591450Y-90462100D01*
X115392200Y-90462100D01*
X115138200Y-90462100D01*
X112852200Y-90462100D01*
X112598200Y-90462100D01*
X111405045Y-90462100D01*
X111283724Y-90691990D01*
X109054100Y-90691990D01*
X109054100Y-89978210D01*
X111283724Y-89978210D01*
X111405045Y-90208100D01*
X112598200Y-90208100D01*
X112598200Y-90188100D01*
X112852200Y-90188100D01*
X112852200Y-90208100D01*
X115138200Y-90208100D01*
X115138200Y-90188100D01*
X115392200Y-90188100D01*
X115392200Y-90208100D01*
X116591450Y-90208100D01*
X116750200Y-90049350D01*
X116753272Y-89485100D01*
X116741012Y-89360618D01*
X116704702Y-89240920D01*
X116645737Y-89130606D01*
X116566385Y-89033915D01*
X116469694Y-88954563D01*
X116359380Y-88895598D01*
X116239682Y-88859288D01*
X116115200Y-88847028D01*
X115904906Y-88848173D01*
X116049917Y-88751280D01*
X116221380Y-88579817D01*
X116356098Y-88378197D01*
X116448893Y-88154169D01*
X116496200Y-87916343D01*
X116496200Y-87673857D01*
X116448893Y-87436031D01*
X116356098Y-87212003D01*
X116221380Y-87010383D01*
X116049917Y-86838920D01*
X115848297Y-86704202D01*
X115624269Y-86611407D01*
X115386443Y-86564100D01*
X115143957Y-86564100D01*
X114906131Y-86611407D01*
X114682103Y-86704202D01*
X114480483Y-86838920D01*
X114309020Y-87010383D01*
X114174302Y-87212003D01*
X114081507Y-87436031D01*
X114034200Y-87673857D01*
X114034200Y-87916343D01*
X114081507Y-88154169D01*
X114174302Y-88378197D01*
X114309020Y-88579817D01*
X114480483Y-88751280D01*
X114625494Y-88848173D01*
X114415200Y-88847028D01*
X114290718Y-88859288D01*
X114171020Y-88895598D01*
X114060706Y-88954563D01*
X113964015Y-89033915D01*
X113884663Y-89130606D01*
X113825698Y-89240920D01*
X113802702Y-89316726D01*
X113606555Y-89139922D01*
X113356452Y-88990943D01*
X113194032Y-88933328D01*
X113308297Y-88885998D01*
X113509917Y-88751280D01*
X113681380Y-88579817D01*
X113816098Y-88378197D01*
X113908893Y-88154169D01*
X113956200Y-87916343D01*
X113956200Y-87673857D01*
X113908893Y-87436031D01*
X113816098Y-87212003D01*
X113681380Y-87010383D01*
X113509917Y-86838920D01*
X113308297Y-86704202D01*
X113084269Y-86611407D01*
X112846443Y-86564100D01*
X112603957Y-86564100D01*
X112366131Y-86611407D01*
X112142103Y-86704202D01*
X111940483Y-86838920D01*
X111769020Y-87010383D01*
X111634302Y-87212003D01*
X111541507Y-87436031D01*
X111494200Y-87673857D01*
X111494200Y-87916343D01*
X111541507Y-88154169D01*
X111634302Y-88378197D01*
X111769020Y-88579817D01*
X111940483Y-88751280D01*
X112142103Y-88885998D01*
X112256368Y-88933328D01*
X112093948Y-88990943D01*
X111843845Y-89139922D01*
X111627612Y-89334831D01*
X111453559Y-89568180D01*
X111328375Y-89831001D01*
X111283724Y-89978210D01*
X109054100Y-89978210D01*
X109054100Y-82358210D01*
X111283724Y-82358210D01*
X111405045Y-82588100D01*
X112598200Y-82588100D01*
X112598200Y-82568100D01*
X112852200Y-82568100D01*
X112852200Y-82588100D01*
X112872200Y-82588100D01*
X112872200Y-82842100D01*
X112852200Y-82842100D01*
X112852200Y-82862100D01*
X112598200Y-82862100D01*
X112598200Y-82842100D01*
X111405045Y-82842100D01*
X111283724Y-83071990D01*
X111328375Y-83219199D01*
X111453559Y-83482020D01*
X111627612Y-83715369D01*
X111843845Y-83910278D01*
X112093948Y-84059257D01*
X112256368Y-84116872D01*
X112142103Y-84164202D01*
X111940483Y-84298920D01*
X111769020Y-84470383D01*
X111634302Y-84672003D01*
X111541507Y-84896031D01*
X111494200Y-85133857D01*
X111494200Y-85376343D01*
X111541507Y-85614169D01*
X111634302Y-85838197D01*
X111769020Y-86039817D01*
X111940483Y-86211280D01*
X112142103Y-86345998D01*
X112366131Y-86438793D01*
X112603957Y-86486100D01*
X112846443Y-86486100D01*
X113084269Y-86438793D01*
X113308297Y-86345998D01*
X113509917Y-86211280D01*
X113681380Y-86039817D01*
X113816098Y-85838197D01*
X113908893Y-85614169D01*
X113956200Y-85376343D01*
X113956200Y-85133857D01*
X114034200Y-85133857D01*
X114034200Y-85376343D01*
X114081507Y-85614169D01*
X114174302Y-85838197D01*
X114309020Y-86039817D01*
X114480483Y-86211280D01*
X114682103Y-86345998D01*
X114906131Y-86438793D01*
X115143957Y-86486100D01*
X115386443Y-86486100D01*
X115624269Y-86438793D01*
X115848297Y-86345998D01*
X116049917Y-86211280D01*
X116221380Y-86039817D01*
X116356098Y-85838197D01*
X116448893Y-85614169D01*
X116496200Y-85376343D01*
X116496200Y-85133857D01*
X116448893Y-84896031D01*
X116356098Y-84672003D01*
X116221380Y-84470383D01*
X116049917Y-84298920D01*
X115848297Y-84164202D01*
X115624269Y-84071407D01*
X115386443Y-84024100D01*
X115143957Y-84024100D01*
X114906131Y-84071407D01*
X114682103Y-84164202D01*
X114480483Y-84298920D01*
X114309020Y-84470383D01*
X114174302Y-84672003D01*
X114081507Y-84896031D01*
X114034200Y-85133857D01*
X113956200Y-85133857D01*
X113908893Y-84896031D01*
X113816098Y-84672003D01*
X113681380Y-84470383D01*
X113509917Y-84298920D01*
X113308297Y-84164202D01*
X113194032Y-84116872D01*
X113356452Y-84059257D01*
X113606555Y-83910278D01*
X113822788Y-83715369D01*
X113996841Y-83482020D01*
X114122025Y-83219199D01*
X114130291Y-83191946D01*
X114174302Y-83298197D01*
X114309020Y-83499817D01*
X114480483Y-83671280D01*
X114682103Y-83805998D01*
X114906131Y-83898793D01*
X115143957Y-83946100D01*
X115386443Y-83946100D01*
X115624269Y-83898793D01*
X115848297Y-83805998D01*
X116049917Y-83671280D01*
X116221380Y-83499817D01*
X116356098Y-83298197D01*
X116448893Y-83074169D01*
X116496200Y-82836343D01*
X116496200Y-82593857D01*
X116448893Y-82356031D01*
X116365864Y-82155578D01*
X126727000Y-82155578D01*
X126727000Y-82309422D01*
X126757013Y-82460309D01*
X126815887Y-82602442D01*
X126901358Y-82730359D01*
X127010141Y-82839142D01*
X127138058Y-82924613D01*
X127280191Y-82983487D01*
X127431078Y-83013500D01*
X127584922Y-83013500D01*
X127735809Y-82983487D01*
X127877942Y-82924613D01*
X128005859Y-82839142D01*
X128114642Y-82730359D01*
X128143000Y-82687918D01*
X128171358Y-82730359D01*
X128280141Y-82839142D01*
X128408058Y-82924613D01*
X128550191Y-82983487D01*
X128701078Y-83013500D01*
X128854922Y-83013500D01*
X129005809Y-82983487D01*
X129147942Y-82924613D01*
X129275859Y-82839142D01*
X129384642Y-82730359D01*
X129470113Y-82602442D01*
X129528987Y-82460309D01*
X129559000Y-82309422D01*
X129559000Y-82155578D01*
X129528987Y-82004691D01*
X129470113Y-81862558D01*
X129384642Y-81734641D01*
X129275859Y-81625858D01*
X129147942Y-81540387D01*
X129005809Y-81481513D01*
X128854922Y-81451500D01*
X128701078Y-81451500D01*
X128550191Y-81481513D01*
X128408058Y-81540387D01*
X128280141Y-81625858D01*
X128171358Y-81734641D01*
X128143000Y-81777082D01*
X128114642Y-81734641D01*
X128005859Y-81625858D01*
X127877942Y-81540387D01*
X127735809Y-81481513D01*
X127584922Y-81451500D01*
X127431078Y-81451500D01*
X127280191Y-81481513D01*
X127138058Y-81540387D01*
X127010141Y-81625858D01*
X126901358Y-81734641D01*
X126815887Y-81862558D01*
X126757013Y-82004691D01*
X126727000Y-82155578D01*
X116365864Y-82155578D01*
X116356098Y-82132003D01*
X116221380Y-81930383D01*
X116049917Y-81758920D01*
X115848297Y-81624202D01*
X115624269Y-81531407D01*
X115386443Y-81484100D01*
X115143957Y-81484100D01*
X114906131Y-81531407D01*
X114682103Y-81624202D01*
X114480483Y-81758920D01*
X114309020Y-81930383D01*
X114174302Y-82132003D01*
X114130291Y-82238254D01*
X114122025Y-82211001D01*
X113996841Y-81948180D01*
X113822788Y-81714831D01*
X113606555Y-81519922D01*
X113356452Y-81370943D01*
X113194032Y-81313328D01*
X113308297Y-81265998D01*
X113509917Y-81131280D01*
X113681380Y-80959817D01*
X113816098Y-80758197D01*
X113908893Y-80534169D01*
X113956200Y-80296343D01*
X113956200Y-80053857D01*
X114034200Y-80053857D01*
X114034200Y-80296343D01*
X114081507Y-80534169D01*
X114174302Y-80758197D01*
X114309020Y-80959817D01*
X114480483Y-81131280D01*
X114682103Y-81265998D01*
X114906131Y-81358793D01*
X115143957Y-81406100D01*
X115386443Y-81406100D01*
X115624269Y-81358793D01*
X115848297Y-81265998D01*
X116049917Y-81131280D01*
X116221380Y-80959817D01*
X116356098Y-80758197D01*
X116448893Y-80534169D01*
X116496200Y-80296343D01*
X116496200Y-80053857D01*
X116448893Y-79816031D01*
X116356098Y-79592003D01*
X116221380Y-79390383D01*
X116065575Y-79234578D01*
X121139000Y-79234578D01*
X121139000Y-79388422D01*
X121169013Y-79539309D01*
X121227887Y-79681442D01*
X121313358Y-79809359D01*
X121422141Y-79918142D01*
X121550058Y-80003613D01*
X121692191Y-80062487D01*
X121843078Y-80092500D01*
X121996922Y-80092500D01*
X122147809Y-80062487D01*
X122289942Y-80003613D01*
X122417859Y-79918142D01*
X122526642Y-79809359D01*
X122612113Y-79681442D01*
X122670987Y-79539309D01*
X122701000Y-79388422D01*
X122701000Y-79234578D01*
X122689349Y-79176003D01*
X123729000Y-79176003D01*
X123729000Y-79319997D01*
X123757092Y-79461225D01*
X123812196Y-79594258D01*
X123892195Y-79713985D01*
X123994015Y-79815805D01*
X124113742Y-79895804D01*
X124246775Y-79950908D01*
X124388003Y-79979000D01*
X124531997Y-79979000D01*
X124673225Y-79950908D01*
X124806258Y-79895804D01*
X124925985Y-79815805D01*
X125027805Y-79713985D01*
X125107804Y-79594258D01*
X125162908Y-79461225D01*
X125191000Y-79319997D01*
X125191000Y-79176003D01*
X131095000Y-79176003D01*
X131095000Y-79319997D01*
X131123092Y-79461225D01*
X131178196Y-79594258D01*
X131258195Y-79713985D01*
X131360015Y-79815805D01*
X131479742Y-79895804D01*
X131612775Y-79950908D01*
X131754003Y-79979000D01*
X131897997Y-79979000D01*
X132039225Y-79950908D01*
X132172258Y-79895804D01*
X132291985Y-79815805D01*
X132393805Y-79713985D01*
X132473804Y-79594258D01*
X132528908Y-79461225D01*
X132557000Y-79319997D01*
X132557000Y-79176003D01*
X132528908Y-79034775D01*
X132473804Y-78901742D01*
X132393805Y-78782015D01*
X132291985Y-78680195D01*
X132172258Y-78600196D01*
X132039225Y-78545092D01*
X131897997Y-78517000D01*
X131754003Y-78517000D01*
X131612775Y-78545092D01*
X131479742Y-78600196D01*
X131360015Y-78680195D01*
X131258195Y-78782015D01*
X131178196Y-78901742D01*
X131123092Y-79034775D01*
X131095000Y-79176003D01*
X125191000Y-79176003D01*
X125162908Y-79034775D01*
X125107804Y-78901742D01*
X125027805Y-78782015D01*
X124925985Y-78680195D01*
X124806258Y-78600196D01*
X124673225Y-78545092D01*
X124531997Y-78517000D01*
X124388003Y-78517000D01*
X124246775Y-78545092D01*
X124113742Y-78600196D01*
X123994015Y-78680195D01*
X123892195Y-78782015D01*
X123812196Y-78901742D01*
X123757092Y-79034775D01*
X123729000Y-79176003D01*
X122689349Y-79176003D01*
X122670987Y-79083691D01*
X122612113Y-78941558D01*
X122526642Y-78813641D01*
X122417859Y-78704858D01*
X122289942Y-78619387D01*
X122147809Y-78560513D01*
X121996922Y-78530500D01*
X121843078Y-78530500D01*
X121692191Y-78560513D01*
X121550058Y-78619387D01*
X121422141Y-78704858D01*
X121313358Y-78813641D01*
X121227887Y-78941558D01*
X121169013Y-79083691D01*
X121139000Y-79234578D01*
X116065575Y-79234578D01*
X116049917Y-79218920D01*
X115848297Y-79084202D01*
X115624269Y-78991407D01*
X115386443Y-78944100D01*
X115143957Y-78944100D01*
X114906131Y-78991407D01*
X114682103Y-79084202D01*
X114480483Y-79218920D01*
X114309020Y-79390383D01*
X114174302Y-79592003D01*
X114081507Y-79816031D01*
X114034200Y-80053857D01*
X113956200Y-80053857D01*
X113908893Y-79816031D01*
X113816098Y-79592003D01*
X113681380Y-79390383D01*
X113509917Y-79218920D01*
X113308297Y-79084202D01*
X113084269Y-78991407D01*
X112846443Y-78944100D01*
X112603957Y-78944100D01*
X112366131Y-78991407D01*
X112142103Y-79084202D01*
X111940483Y-79218920D01*
X111769020Y-79390383D01*
X111634302Y-79592003D01*
X111541507Y-79816031D01*
X111494200Y-80053857D01*
X111494200Y-80296343D01*
X111541507Y-80534169D01*
X111634302Y-80758197D01*
X111769020Y-80959817D01*
X111940483Y-81131280D01*
X112142103Y-81265998D01*
X112256368Y-81313328D01*
X112093948Y-81370943D01*
X111843845Y-81519922D01*
X111627612Y-81714831D01*
X111453559Y-81948180D01*
X111328375Y-82211001D01*
X111283724Y-82358210D01*
X109054100Y-82358210D01*
X109054100Y-74738210D01*
X111283724Y-74738210D01*
X111405045Y-74968100D01*
X112598200Y-74968100D01*
X112598200Y-74948100D01*
X112852200Y-74948100D01*
X112852200Y-74968100D01*
X112872200Y-74968100D01*
X112872200Y-75222100D01*
X112852200Y-75222100D01*
X112852200Y-75242100D01*
X112598200Y-75242100D01*
X112598200Y-75222100D01*
X111405045Y-75222100D01*
X111283724Y-75451990D01*
X111328375Y-75599199D01*
X111453559Y-75862020D01*
X111627612Y-76095369D01*
X111843845Y-76290278D01*
X112093948Y-76439257D01*
X112256368Y-76496872D01*
X112142103Y-76544202D01*
X111940483Y-76678920D01*
X111769020Y-76850383D01*
X111634302Y-77052003D01*
X111541507Y-77276031D01*
X111494200Y-77513857D01*
X111494200Y-77756343D01*
X111541507Y-77994169D01*
X111634302Y-78218197D01*
X111769020Y-78419817D01*
X111940483Y-78591280D01*
X112142103Y-78725998D01*
X112366131Y-78818793D01*
X112603957Y-78866100D01*
X112846443Y-78866100D01*
X113084269Y-78818793D01*
X113308297Y-78725998D01*
X113509917Y-78591280D01*
X113681380Y-78419817D01*
X113816098Y-78218197D01*
X113908893Y-77994169D01*
X113956200Y-77756343D01*
X113956200Y-77513857D01*
X114034200Y-77513857D01*
X114034200Y-77756343D01*
X114081507Y-77994169D01*
X114174302Y-78218197D01*
X114309020Y-78419817D01*
X114480483Y-78591280D01*
X114682103Y-78725998D01*
X114906131Y-78818793D01*
X115143957Y-78866100D01*
X115386443Y-78866100D01*
X115624269Y-78818793D01*
X115848297Y-78725998D01*
X116049917Y-78591280D01*
X116221380Y-78419817D01*
X116356098Y-78218197D01*
X116448893Y-77994169D01*
X116496200Y-77756343D01*
X116496200Y-77513857D01*
X116448893Y-77276031D01*
X116356098Y-77052003D01*
X116221380Y-76850383D01*
X116049917Y-76678920D01*
X115848297Y-76544202D01*
X115624269Y-76451407D01*
X115386443Y-76404100D01*
X115143957Y-76404100D01*
X114906131Y-76451407D01*
X114682103Y-76544202D01*
X114480483Y-76678920D01*
X114309020Y-76850383D01*
X114174302Y-77052003D01*
X114081507Y-77276031D01*
X114034200Y-77513857D01*
X113956200Y-77513857D01*
X113908893Y-77276031D01*
X113816098Y-77052003D01*
X113681380Y-76850383D01*
X113509917Y-76678920D01*
X113308297Y-76544202D01*
X113194032Y-76496872D01*
X113356452Y-76439257D01*
X113606555Y-76290278D01*
X113822788Y-76095369D01*
X113996841Y-75862020D01*
X114122025Y-75599199D01*
X114130291Y-75571946D01*
X114174302Y-75678197D01*
X114309020Y-75879817D01*
X114480483Y-76051280D01*
X114682103Y-76185998D01*
X114906131Y-76278793D01*
X115143957Y-76326100D01*
X115386443Y-76326100D01*
X115624269Y-76278793D01*
X115848297Y-76185998D01*
X116049917Y-76051280D01*
X116221380Y-75879817D01*
X116356098Y-75678197D01*
X116448893Y-75454169D01*
X116496200Y-75216343D01*
X116496200Y-74973857D01*
X116461504Y-74799427D01*
X122128000Y-74799427D01*
X122128000Y-74933573D01*
X122154171Y-75065140D01*
X122205506Y-75189074D01*
X122280033Y-75300612D01*
X122374888Y-75395467D01*
X122486426Y-75469994D01*
X122610360Y-75521329D01*
X122741927Y-75547500D01*
X122876073Y-75547500D01*
X123007640Y-75521329D01*
X123131574Y-75469994D01*
X123243112Y-75395467D01*
X123337967Y-75300612D01*
X123412494Y-75189074D01*
X123463829Y-75065140D01*
X123490000Y-74933573D01*
X123490000Y-74799427D01*
X123476390Y-74731003D01*
X131158500Y-74731003D01*
X131158500Y-74874997D01*
X131186592Y-75016225D01*
X131241696Y-75149258D01*
X131321695Y-75268985D01*
X131423515Y-75370805D01*
X131543242Y-75450804D01*
X131676275Y-75505908D01*
X131817503Y-75534000D01*
X131961497Y-75534000D01*
X132102725Y-75505908D01*
X132235758Y-75450804D01*
X132355485Y-75370805D01*
X132457305Y-75268985D01*
X132537304Y-75149258D01*
X132592408Y-75016225D01*
X132620500Y-74874997D01*
X132620500Y-74731003D01*
X132592408Y-74589775D01*
X132537304Y-74456742D01*
X132457305Y-74337015D01*
X132355485Y-74235195D01*
X132235758Y-74155196D01*
X132102725Y-74100092D01*
X131961497Y-74072000D01*
X131817503Y-74072000D01*
X131676275Y-74100092D01*
X131543242Y-74155196D01*
X131423515Y-74235195D01*
X131321695Y-74337015D01*
X131241696Y-74456742D01*
X131186592Y-74589775D01*
X131158500Y-74731003D01*
X123476390Y-74731003D01*
X123463829Y-74667860D01*
X123412494Y-74543926D01*
X123337967Y-74432388D01*
X123243112Y-74337533D01*
X123131574Y-74263006D01*
X123007640Y-74211671D01*
X122876073Y-74185500D01*
X122741927Y-74185500D01*
X122610360Y-74211671D01*
X122486426Y-74263006D01*
X122374888Y-74337533D01*
X122280033Y-74432388D01*
X122205506Y-74543926D01*
X122154171Y-74667860D01*
X122128000Y-74799427D01*
X116461504Y-74799427D01*
X116448893Y-74736031D01*
X116356098Y-74512003D01*
X116221380Y-74310383D01*
X116049917Y-74138920D01*
X115848297Y-74004202D01*
X115624269Y-73911407D01*
X115386443Y-73864100D01*
X115143957Y-73864100D01*
X114906131Y-73911407D01*
X114682103Y-74004202D01*
X114480483Y-74138920D01*
X114309020Y-74310383D01*
X114174302Y-74512003D01*
X114130291Y-74618254D01*
X114122025Y-74591001D01*
X113996841Y-74328180D01*
X113822788Y-74094831D01*
X113606555Y-73899922D01*
X113356452Y-73750943D01*
X113194032Y-73693328D01*
X113308297Y-73645998D01*
X113509917Y-73511280D01*
X113681380Y-73339817D01*
X113816098Y-73138197D01*
X113908893Y-72914169D01*
X113956200Y-72676343D01*
X113956200Y-72433857D01*
X114034200Y-72433857D01*
X114034200Y-72676343D01*
X114081507Y-72914169D01*
X114174302Y-73138197D01*
X114309020Y-73339817D01*
X114480483Y-73511280D01*
X114682103Y-73645998D01*
X114906131Y-73738793D01*
X115143957Y-73786100D01*
X115386443Y-73786100D01*
X115624269Y-73738793D01*
X115848297Y-73645998D01*
X116049917Y-73511280D01*
X116221380Y-73339817D01*
X116356098Y-73138197D01*
X116448893Y-72914169D01*
X116496200Y-72676343D01*
X116496200Y-72433857D01*
X116448893Y-72196031D01*
X116356098Y-71972003D01*
X116221380Y-71770383D01*
X116049917Y-71598920D01*
X115978317Y-71551078D01*
X120758000Y-71551078D01*
X120758000Y-71704922D01*
X120788013Y-71855809D01*
X120846887Y-71997942D01*
X120932358Y-72125859D01*
X121041141Y-72234642D01*
X121169058Y-72320113D01*
X121311191Y-72378987D01*
X121462078Y-72409000D01*
X121615922Y-72409000D01*
X121766809Y-72378987D01*
X121908942Y-72320113D01*
X121999765Y-72259427D01*
X124922000Y-72259427D01*
X124922000Y-72393573D01*
X124948171Y-72525140D01*
X124999506Y-72649074D01*
X125074033Y-72760612D01*
X125168888Y-72855467D01*
X125280426Y-72929994D01*
X125404360Y-72981329D01*
X125535927Y-73007500D01*
X125670073Y-73007500D01*
X125801640Y-72981329D01*
X125925574Y-72929994D01*
X126037112Y-72855467D01*
X126131967Y-72760612D01*
X126176423Y-72694078D01*
X129457500Y-72694078D01*
X129457500Y-72847922D01*
X129487513Y-72998809D01*
X129546387Y-73140942D01*
X129631858Y-73268859D01*
X129740641Y-73377642D01*
X129868558Y-73463113D01*
X130010691Y-73521987D01*
X130161578Y-73552000D01*
X130315422Y-73552000D01*
X130466309Y-73521987D01*
X130608442Y-73463113D01*
X130736359Y-73377642D01*
X130845142Y-73268859D01*
X130930613Y-73140942D01*
X130989487Y-72998809D01*
X131019500Y-72847922D01*
X131019500Y-72694078D01*
X130989487Y-72543191D01*
X130930613Y-72401058D01*
X130845142Y-72273141D01*
X130736359Y-72164358D01*
X130608442Y-72078887D01*
X130466309Y-72020013D01*
X130315422Y-71990000D01*
X130161578Y-71990000D01*
X130010691Y-72020013D01*
X129868558Y-72078887D01*
X129740641Y-72164358D01*
X129631858Y-72273141D01*
X129546387Y-72401058D01*
X129487513Y-72543191D01*
X129457500Y-72694078D01*
X126176423Y-72694078D01*
X126206494Y-72649074D01*
X126257829Y-72525140D01*
X126284000Y-72393573D01*
X126284000Y-72259427D01*
X126257829Y-72127860D01*
X126206494Y-72003926D01*
X126131967Y-71892388D01*
X126037112Y-71797533D01*
X125925574Y-71723006D01*
X125801640Y-71671671D01*
X125670073Y-71645500D01*
X125535927Y-71645500D01*
X125404360Y-71671671D01*
X125280426Y-71723006D01*
X125168888Y-71797533D01*
X125074033Y-71892388D01*
X124999506Y-72003926D01*
X124948171Y-72127860D01*
X124922000Y-72259427D01*
X121999765Y-72259427D01*
X122036859Y-72234642D01*
X122145642Y-72125859D01*
X122231113Y-71997942D01*
X122289987Y-71855809D01*
X122320000Y-71704922D01*
X122320000Y-71551078D01*
X122289987Y-71400191D01*
X122231113Y-71258058D01*
X122145642Y-71130141D01*
X122036859Y-71021358D01*
X121908942Y-70935887D01*
X121766809Y-70877013D01*
X121615922Y-70847000D01*
X121462078Y-70847000D01*
X121311191Y-70877013D01*
X121169058Y-70935887D01*
X121041141Y-71021358D01*
X120932358Y-71130141D01*
X120846887Y-71258058D01*
X120788013Y-71400191D01*
X120758000Y-71551078D01*
X115978317Y-71551078D01*
X115848297Y-71464202D01*
X115624269Y-71371407D01*
X115386443Y-71324100D01*
X115143957Y-71324100D01*
X114906131Y-71371407D01*
X114682103Y-71464202D01*
X114480483Y-71598920D01*
X114309020Y-71770383D01*
X114174302Y-71972003D01*
X114081507Y-72196031D01*
X114034200Y-72433857D01*
X113956200Y-72433857D01*
X113908893Y-72196031D01*
X113816098Y-71972003D01*
X113681380Y-71770383D01*
X113509917Y-71598920D01*
X113308297Y-71464202D01*
X113084269Y-71371407D01*
X112846443Y-71324100D01*
X112603957Y-71324100D01*
X112366131Y-71371407D01*
X112142103Y-71464202D01*
X111940483Y-71598920D01*
X111769020Y-71770383D01*
X111634302Y-71972003D01*
X111541507Y-72196031D01*
X111494200Y-72433857D01*
X111494200Y-72676343D01*
X111541507Y-72914169D01*
X111634302Y-73138197D01*
X111769020Y-73339817D01*
X111940483Y-73511280D01*
X112142103Y-73645998D01*
X112256368Y-73693328D01*
X112093948Y-73750943D01*
X111843845Y-73899922D01*
X111627612Y-74094831D01*
X111453559Y-74328180D01*
X111328375Y-74591001D01*
X111283724Y-74738210D01*
X109054100Y-74738210D01*
X109054100Y-69338427D01*
X111396500Y-69338427D01*
X111396500Y-69472573D01*
X111422671Y-69604140D01*
X111474006Y-69728074D01*
X111548533Y-69839612D01*
X111643388Y-69934467D01*
X111754926Y-70008994D01*
X111878860Y-70060329D01*
X112010427Y-70086500D01*
X112144573Y-70086500D01*
X112276140Y-70060329D01*
X112400074Y-70008994D01*
X112511612Y-69934467D01*
X112606467Y-69839612D01*
X112680994Y-69728074D01*
X112732329Y-69604140D01*
X112758500Y-69472573D01*
X112758500Y-69338427D01*
X112733238Y-69211427D01*
X115079500Y-69211427D01*
X115079500Y-69345573D01*
X115105671Y-69477140D01*
X115157006Y-69601074D01*
X115231533Y-69712612D01*
X115326388Y-69807467D01*
X115437926Y-69881994D01*
X115561860Y-69933329D01*
X115693427Y-69959500D01*
X115827573Y-69959500D01*
X115959140Y-69933329D01*
X116083074Y-69881994D01*
X116194612Y-69807467D01*
X116289467Y-69712612D01*
X116363994Y-69601074D01*
X116415329Y-69477140D01*
X116441500Y-69345573D01*
X116441500Y-69211427D01*
X116415329Y-69079860D01*
X116363994Y-68955926D01*
X116289467Y-68844388D01*
X116270619Y-68825540D01*
X116321612Y-68791467D01*
X116416467Y-68696612D01*
X116490994Y-68585074D01*
X116542329Y-68461140D01*
X116568500Y-68329573D01*
X116568500Y-68195427D01*
X116542329Y-68063860D01*
X116490994Y-67939926D01*
X116416467Y-67828388D01*
X116321612Y-67733533D01*
X116210074Y-67659006D01*
X116086140Y-67607671D01*
X115954573Y-67581500D01*
X115820427Y-67581500D01*
X115688860Y-67607671D01*
X115564926Y-67659006D01*
X115453388Y-67733533D01*
X115358533Y-67828388D01*
X115284006Y-67939926D01*
X115232671Y-68063860D01*
X115206500Y-68195427D01*
X115206500Y-68329573D01*
X115232671Y-68461140D01*
X115284006Y-68585074D01*
X115358533Y-68696612D01*
X115377381Y-68715460D01*
X115326388Y-68749533D01*
X115231533Y-68844388D01*
X115157006Y-68955926D01*
X115105671Y-69079860D01*
X115079500Y-69211427D01*
X112733238Y-69211427D01*
X112732329Y-69206860D01*
X112680994Y-69082926D01*
X112606467Y-68971388D01*
X112511612Y-68876533D01*
X112400074Y-68802006D01*
X112276140Y-68750671D01*
X112144573Y-68724500D01*
X112010427Y-68724500D01*
X111878860Y-68750671D01*
X111754926Y-68802006D01*
X111643388Y-68876533D01*
X111548533Y-68971388D01*
X111474006Y-69082926D01*
X111422671Y-69206860D01*
X111396500Y-69338427D01*
X109054100Y-69338427D01*
X109054100Y-66861927D01*
X110825000Y-66861927D01*
X110825000Y-66996073D01*
X110851171Y-67127640D01*
X110902506Y-67251574D01*
X110977033Y-67363112D01*
X111071888Y-67457967D01*
X111183426Y-67532494D01*
X111307360Y-67583829D01*
X111438927Y-67610000D01*
X111573073Y-67610000D01*
X111704640Y-67583829D01*
X111828574Y-67532494D01*
X111940112Y-67457967D01*
X112034967Y-67363112D01*
X112109494Y-67251574D01*
X112160829Y-67127640D01*
X112163158Y-67115927D01*
X120096000Y-67115927D01*
X120096000Y-67250073D01*
X120122171Y-67381640D01*
X120173506Y-67505574D01*
X120248033Y-67617112D01*
X120342888Y-67711967D01*
X120454426Y-67786494D01*
X120578360Y-67837829D01*
X120709927Y-67864000D01*
X120752071Y-67864000D01*
X120757171Y-67889640D01*
X120808506Y-68013574D01*
X120883033Y-68125112D01*
X120977888Y-68219967D01*
X121089426Y-68294494D01*
X121213360Y-68345829D01*
X121344927Y-68372000D01*
X121479073Y-68372000D01*
X121610640Y-68345829D01*
X121734574Y-68294494D01*
X121846112Y-68219967D01*
X121940967Y-68125112D01*
X122015494Y-68013574D01*
X122066829Y-67889640D01*
X122081790Y-67814427D01*
X125176000Y-67814427D01*
X125176000Y-67948573D01*
X125202171Y-68080140D01*
X125253506Y-68204074D01*
X125328033Y-68315612D01*
X125422888Y-68410467D01*
X125534426Y-68484994D01*
X125658360Y-68536329D01*
X125789927Y-68562500D01*
X125924073Y-68562500D01*
X126055640Y-68536329D01*
X126179574Y-68484994D01*
X126291112Y-68410467D01*
X126385967Y-68315612D01*
X126460494Y-68204074D01*
X126511829Y-68080140D01*
X126538000Y-67948573D01*
X126538000Y-67814427D01*
X126525369Y-67750927D01*
X129684500Y-67750927D01*
X129684500Y-67885073D01*
X129710671Y-68016640D01*
X129762006Y-68140574D01*
X129836533Y-68252112D01*
X129931388Y-68346967D01*
X130042926Y-68421494D01*
X130166860Y-68472829D01*
X130298427Y-68499000D01*
X130432573Y-68499000D01*
X130564140Y-68472829D01*
X130688074Y-68421494D01*
X130799612Y-68346967D01*
X130894467Y-68252112D01*
X130968994Y-68140574D01*
X131020329Y-68016640D01*
X131046500Y-67885073D01*
X131046500Y-67750927D01*
X131020329Y-67619360D01*
X130968994Y-67495426D01*
X130894467Y-67383888D01*
X130799612Y-67289033D01*
X130688074Y-67214506D01*
X130564140Y-67163171D01*
X130432573Y-67137000D01*
X130298427Y-67137000D01*
X130166860Y-67163171D01*
X130042926Y-67214506D01*
X129931388Y-67289033D01*
X129836533Y-67383888D01*
X129762006Y-67495426D01*
X129710671Y-67619360D01*
X129684500Y-67750927D01*
X126525369Y-67750927D01*
X126511829Y-67682860D01*
X126460494Y-67558926D01*
X126385967Y-67447388D01*
X126291112Y-67352533D01*
X126179574Y-67278006D01*
X126055640Y-67226671D01*
X125924073Y-67200500D01*
X125789927Y-67200500D01*
X125658360Y-67226671D01*
X125534426Y-67278006D01*
X125422888Y-67352533D01*
X125328033Y-67447388D01*
X125253506Y-67558926D01*
X125202171Y-67682860D01*
X125176000Y-67814427D01*
X122081790Y-67814427D01*
X122093000Y-67758073D01*
X122093000Y-67623927D01*
X122066829Y-67492360D01*
X122015494Y-67368426D01*
X121940967Y-67256888D01*
X121846112Y-67162033D01*
X121734574Y-67087506D01*
X121610640Y-67036171D01*
X121479073Y-67010000D01*
X121436929Y-67010000D01*
X121431829Y-66984360D01*
X121380494Y-66860426D01*
X121305967Y-66748888D01*
X121211112Y-66654033D01*
X121099574Y-66579506D01*
X120975640Y-66528171D01*
X120844073Y-66502000D01*
X120709927Y-66502000D01*
X120578360Y-66528171D01*
X120454426Y-66579506D01*
X120342888Y-66654033D01*
X120248033Y-66748888D01*
X120173506Y-66860426D01*
X120122171Y-66984360D01*
X120096000Y-67115927D01*
X112163158Y-67115927D01*
X112187000Y-66996073D01*
X112187000Y-66861927D01*
X112160829Y-66730360D01*
X112109494Y-66606426D01*
X112034967Y-66494888D01*
X111940112Y-66400033D01*
X111828574Y-66325506D01*
X111711315Y-66276936D01*
X111727940Y-66273629D01*
X111851874Y-66222294D01*
X111963412Y-66147767D01*
X112058267Y-66052912D01*
X112132794Y-65941374D01*
X112184129Y-65817440D01*
X112210300Y-65685873D01*
X112210300Y-65551727D01*
X112205666Y-65528427D01*
X122509000Y-65528427D01*
X122509000Y-65662573D01*
X122535171Y-65794140D01*
X122586506Y-65918074D01*
X122661033Y-66029612D01*
X122755888Y-66124467D01*
X122867426Y-66198994D01*
X122991360Y-66250329D01*
X123122927Y-66276500D01*
X123257073Y-66276500D01*
X123388640Y-66250329D01*
X123512574Y-66198994D01*
X123624112Y-66124467D01*
X123718967Y-66029612D01*
X123793494Y-65918074D01*
X123844829Y-65794140D01*
X123871000Y-65662573D01*
X123871000Y-65528427D01*
X123844829Y-65396860D01*
X123793494Y-65272926D01*
X123718967Y-65161388D01*
X123624112Y-65066533D01*
X123512574Y-64992006D01*
X123388640Y-64940671D01*
X123257073Y-64914500D01*
X123122927Y-64914500D01*
X122991360Y-64940671D01*
X122867426Y-64992006D01*
X122755888Y-65066533D01*
X122661033Y-65161388D01*
X122586506Y-65272926D01*
X122535171Y-65396860D01*
X122509000Y-65528427D01*
X112205666Y-65528427D01*
X112184129Y-65420160D01*
X112132794Y-65296226D01*
X112058267Y-65184688D01*
X111963412Y-65089833D01*
X111851874Y-65015306D01*
X111727940Y-64963971D01*
X111596373Y-64937800D01*
X111462227Y-64937800D01*
X111330660Y-64963971D01*
X111206726Y-65015306D01*
X111095188Y-65089833D01*
X111000333Y-65184688D01*
X110925806Y-65296226D01*
X110874471Y-65420160D01*
X110848300Y-65551727D01*
X110848300Y-65685873D01*
X110874471Y-65817440D01*
X110925806Y-65941374D01*
X111000333Y-66052912D01*
X111095188Y-66147767D01*
X111206726Y-66222294D01*
X111323985Y-66270864D01*
X111307360Y-66274171D01*
X111183426Y-66325506D01*
X111071888Y-66400033D01*
X110977033Y-66494888D01*
X110902506Y-66606426D01*
X110851171Y-66730360D01*
X110825000Y-66861927D01*
X109054100Y-66861927D01*
X109054100Y-64448927D01*
X114444500Y-64448927D01*
X114444500Y-64583073D01*
X114470671Y-64714640D01*
X114522006Y-64838574D01*
X114596533Y-64950112D01*
X114691388Y-65044967D01*
X114802926Y-65119494D01*
X114926860Y-65170829D01*
X115058427Y-65197000D01*
X115192573Y-65197000D01*
X115324140Y-65170829D01*
X115448074Y-65119494D01*
X115559612Y-65044967D01*
X115654467Y-64950112D01*
X115728994Y-64838574D01*
X115780329Y-64714640D01*
X115798061Y-64625500D01*
X115891073Y-64625500D01*
X116022640Y-64599329D01*
X116146574Y-64547994D01*
X116258112Y-64473467D01*
X116352967Y-64378612D01*
X116427494Y-64267074D01*
X116478829Y-64143140D01*
X116505000Y-64011573D01*
X116505000Y-63877427D01*
X116478829Y-63745860D01*
X116440520Y-63653374D01*
X116448612Y-63647967D01*
X116473152Y-63623427D01*
X122509000Y-63623427D01*
X122509000Y-63757573D01*
X122535171Y-63889140D01*
X122586506Y-64013074D01*
X122661033Y-64124612D01*
X122755888Y-64219467D01*
X122867426Y-64293994D01*
X122991360Y-64345329D01*
X123122927Y-64371500D01*
X123257073Y-64371500D01*
X123388640Y-64345329D01*
X123512574Y-64293994D01*
X123624112Y-64219467D01*
X123718967Y-64124612D01*
X123793494Y-64013074D01*
X123844829Y-63889140D01*
X123871000Y-63757573D01*
X123871000Y-63623427D01*
X123844829Y-63491860D01*
X123793494Y-63367926D01*
X123718967Y-63256388D01*
X123624112Y-63161533D01*
X123512574Y-63087006D01*
X123388640Y-63035671D01*
X123257073Y-63009500D01*
X123122927Y-63009500D01*
X122991360Y-63035671D01*
X122867426Y-63087006D01*
X122755888Y-63161533D01*
X122661033Y-63256388D01*
X122586506Y-63367926D01*
X122535171Y-63491860D01*
X122509000Y-63623427D01*
X116473152Y-63623427D01*
X116543467Y-63553112D01*
X116617994Y-63441574D01*
X116669329Y-63317640D01*
X116695500Y-63186073D01*
X116695500Y-63052647D01*
X116781574Y-63016994D01*
X116893112Y-62942467D01*
X116987967Y-62847612D01*
X117062494Y-62736074D01*
X117113829Y-62612140D01*
X117140000Y-62480573D01*
X117140000Y-62346427D01*
X117113829Y-62214860D01*
X117062494Y-62090926D01*
X116987967Y-61979388D01*
X116893112Y-61884533D01*
X116781574Y-61810006D01*
X116657640Y-61758671D01*
X116526073Y-61732500D01*
X116391927Y-61732500D01*
X116260360Y-61758671D01*
X116136426Y-61810006D01*
X116024888Y-61884533D01*
X115930033Y-61979388D01*
X115855506Y-62090926D01*
X115804171Y-62214860D01*
X115778000Y-62346427D01*
X115778000Y-62479853D01*
X115691926Y-62515506D01*
X115580388Y-62590033D01*
X115485533Y-62684888D01*
X115411006Y-62796426D01*
X115359671Y-62920360D01*
X115333500Y-63051927D01*
X115333500Y-63186073D01*
X115359671Y-63317640D01*
X115397980Y-63410126D01*
X115389888Y-63415533D01*
X115295033Y-63510388D01*
X115220506Y-63621926D01*
X115169171Y-63745860D01*
X115151439Y-63835000D01*
X115058427Y-63835000D01*
X114926860Y-63861171D01*
X114802926Y-63912506D01*
X114691388Y-63987033D01*
X114596533Y-64081888D01*
X114522006Y-64193426D01*
X114470671Y-64317360D01*
X114444500Y-64448927D01*
X109054100Y-64448927D01*
X109054100Y-63082127D01*
X111617200Y-63082127D01*
X111617200Y-63216273D01*
X111643371Y-63347840D01*
X111694706Y-63471774D01*
X111769233Y-63583312D01*
X111864088Y-63678167D01*
X111975626Y-63752694D01*
X112099560Y-63804029D01*
X112231127Y-63830200D01*
X112365273Y-63830200D01*
X112496840Y-63804029D01*
X112620774Y-63752694D01*
X112732312Y-63678167D01*
X112827167Y-63583312D01*
X112901694Y-63471774D01*
X112953029Y-63347840D01*
X112979200Y-63216273D01*
X112979200Y-63082127D01*
X112953029Y-62950560D01*
X112901694Y-62826626D01*
X112827167Y-62715088D01*
X112732312Y-62620233D01*
X112620774Y-62545706D01*
X112496840Y-62494371D01*
X112365273Y-62468200D01*
X112231127Y-62468200D01*
X112099560Y-62494371D01*
X111975626Y-62545706D01*
X111864088Y-62620233D01*
X111769233Y-62715088D01*
X111694706Y-62826626D01*
X111643371Y-62950560D01*
X111617200Y-63082127D01*
X109054100Y-63082127D01*
X109054100Y-61464427D01*
X114000000Y-61464427D01*
X114000000Y-61598573D01*
X114026171Y-61730140D01*
X114077506Y-61854074D01*
X114152033Y-61965612D01*
X114246888Y-62060467D01*
X114358426Y-62134994D01*
X114482360Y-62186329D01*
X114613927Y-62212500D01*
X114748073Y-62212500D01*
X114879640Y-62186329D01*
X115003574Y-62134994D01*
X115115112Y-62060467D01*
X115209967Y-61965612D01*
X115284494Y-61854074D01*
X115335829Y-61730140D01*
X115350790Y-61654927D01*
X122572500Y-61654927D01*
X122572500Y-61789073D01*
X122598671Y-61920640D01*
X122650006Y-62044574D01*
X122724533Y-62156112D01*
X122819388Y-62250967D01*
X122930926Y-62325494D01*
X123054860Y-62376829D01*
X123186427Y-62403000D01*
X123320573Y-62403000D01*
X123452140Y-62376829D01*
X123576074Y-62325494D01*
X123687612Y-62250967D01*
X123782467Y-62156112D01*
X123856994Y-62044574D01*
X123908329Y-61920640D01*
X123934500Y-61789073D01*
X123934500Y-61654927D01*
X123908329Y-61523360D01*
X123856994Y-61399426D01*
X123782467Y-61287888D01*
X123687612Y-61193033D01*
X123576074Y-61118506D01*
X123452140Y-61067171D01*
X123320573Y-61041000D01*
X123186427Y-61041000D01*
X123054860Y-61067171D01*
X122930926Y-61118506D01*
X122819388Y-61193033D01*
X122724533Y-61287888D01*
X122650006Y-61399426D01*
X122598671Y-61523360D01*
X122572500Y-61654927D01*
X115350790Y-61654927D01*
X115362000Y-61598573D01*
X115362000Y-61464427D01*
X115335829Y-61332860D01*
X115284494Y-61208926D01*
X115209967Y-61097388D01*
X115115112Y-61002533D01*
X115003574Y-60928006D01*
X114879640Y-60876671D01*
X114748073Y-60850500D01*
X114613927Y-60850500D01*
X114482360Y-60876671D01*
X114358426Y-60928006D01*
X114246888Y-61002533D01*
X114152033Y-61097388D01*
X114077506Y-61208926D01*
X114026171Y-61332860D01*
X114000000Y-61464427D01*
X109054100Y-61464427D01*
X109054100Y-60511927D01*
X115841500Y-60511927D01*
X115841500Y-60646073D01*
X115867671Y-60777640D01*
X115919006Y-60901574D01*
X115993533Y-61013112D01*
X116088388Y-61107967D01*
X116199926Y-61182494D01*
X116323860Y-61233829D01*
X116455427Y-61260000D01*
X116589573Y-61260000D01*
X116721140Y-61233829D01*
X116845074Y-61182494D01*
X116956612Y-61107967D01*
X117051467Y-61013112D01*
X117125994Y-60901574D01*
X117165248Y-60806805D01*
X117276360Y-60852829D01*
X117407927Y-60879000D01*
X117542073Y-60879000D01*
X117673640Y-60852829D01*
X117797574Y-60801494D01*
X117909112Y-60726967D01*
X118003967Y-60632112D01*
X118078494Y-60520574D01*
X118129829Y-60396640D01*
X118156000Y-60265073D01*
X118156000Y-60130927D01*
X118129829Y-59999360D01*
X118112667Y-59957927D01*
X118970500Y-59957927D01*
X118970500Y-60092073D01*
X118996671Y-60223640D01*
X119048006Y-60347574D01*
X119122533Y-60459112D01*
X119217388Y-60553967D01*
X119328926Y-60628494D01*
X119452860Y-60679829D01*
X119584427Y-60706000D01*
X119718573Y-60706000D01*
X119850140Y-60679829D01*
X119974074Y-60628494D01*
X120085612Y-60553967D01*
X120180467Y-60459112D01*
X120254994Y-60347574D01*
X120306329Y-60223640D01*
X120332500Y-60092073D01*
X120332500Y-60067427D01*
X122064500Y-60067427D01*
X122064500Y-60201573D01*
X122090671Y-60333140D01*
X122142006Y-60457074D01*
X122216533Y-60568612D01*
X122311388Y-60663467D01*
X122422926Y-60737994D01*
X122546860Y-60789329D01*
X122678427Y-60815500D01*
X122812573Y-60815500D01*
X122944140Y-60789329D01*
X123068074Y-60737994D01*
X123179612Y-60663467D01*
X123274467Y-60568612D01*
X123348994Y-60457074D01*
X123400329Y-60333140D01*
X123426500Y-60201573D01*
X123426500Y-60067427D01*
X123400329Y-59935860D01*
X123348994Y-59811926D01*
X123274467Y-59700388D01*
X123179612Y-59605533D01*
X123068074Y-59531006D01*
X122944140Y-59479671D01*
X122812573Y-59453500D01*
X122678427Y-59453500D01*
X122546860Y-59479671D01*
X122422926Y-59531006D01*
X122311388Y-59605533D01*
X122216533Y-59700388D01*
X122142006Y-59811926D01*
X122090671Y-59935860D01*
X122064500Y-60067427D01*
X120332500Y-60067427D01*
X120332500Y-59957927D01*
X120306329Y-59826360D01*
X120254994Y-59702426D01*
X120180467Y-59590888D01*
X120085612Y-59496033D01*
X119974074Y-59421506D01*
X119865968Y-59376727D01*
X125183800Y-59376727D01*
X125183800Y-59510873D01*
X125209971Y-59642440D01*
X125261306Y-59766374D01*
X125335833Y-59877912D01*
X125430688Y-59972767D01*
X125542226Y-60047294D01*
X125666160Y-60098629D01*
X125797727Y-60124800D01*
X125931873Y-60124800D01*
X126063440Y-60098629D01*
X126187374Y-60047294D01*
X126298912Y-59972767D01*
X126393767Y-59877912D01*
X126468294Y-59766374D01*
X126519629Y-59642440D01*
X126545800Y-59510873D01*
X126545800Y-59376727D01*
X129755800Y-59376727D01*
X129755800Y-59510873D01*
X129781971Y-59642440D01*
X129833306Y-59766374D01*
X129907833Y-59877912D01*
X130002688Y-59972767D01*
X130114226Y-60047294D01*
X130238160Y-60098629D01*
X130369727Y-60124800D01*
X130503873Y-60124800D01*
X130635440Y-60098629D01*
X130759374Y-60047294D01*
X130870912Y-59972767D01*
X130965767Y-59877912D01*
X131040294Y-59766374D01*
X131091629Y-59642440D01*
X131117800Y-59510873D01*
X131117800Y-59376727D01*
X131091629Y-59245160D01*
X131040294Y-59121226D01*
X130965767Y-59009688D01*
X130870912Y-58914833D01*
X130759374Y-58840306D01*
X130635440Y-58788971D01*
X130503873Y-58762800D01*
X130369727Y-58762800D01*
X130238160Y-58788971D01*
X130114226Y-58840306D01*
X130002688Y-58914833D01*
X129907833Y-59009688D01*
X129833306Y-59121226D01*
X129781971Y-59245160D01*
X129755800Y-59376727D01*
X126545800Y-59376727D01*
X126519629Y-59245160D01*
X126468294Y-59121226D01*
X126393767Y-59009688D01*
X126298912Y-58914833D01*
X126187374Y-58840306D01*
X126063440Y-58788971D01*
X125931873Y-58762800D01*
X125797727Y-58762800D01*
X125666160Y-58788971D01*
X125542226Y-58840306D01*
X125430688Y-58914833D01*
X125335833Y-59009688D01*
X125261306Y-59121226D01*
X125209971Y-59245160D01*
X125183800Y-59376727D01*
X119865968Y-59376727D01*
X119850140Y-59370171D01*
X119718573Y-59344000D01*
X119584427Y-59344000D01*
X119452860Y-59370171D01*
X119328926Y-59421506D01*
X119217388Y-59496033D01*
X119122533Y-59590888D01*
X119048006Y-59702426D01*
X118996671Y-59826360D01*
X118970500Y-59957927D01*
X118112667Y-59957927D01*
X118078494Y-59875426D01*
X118003967Y-59763888D01*
X117909112Y-59669033D01*
X117797574Y-59594506D01*
X117673640Y-59543171D01*
X117542073Y-59517000D01*
X117407927Y-59517000D01*
X117276360Y-59543171D01*
X117152426Y-59594506D01*
X117040888Y-59669033D01*
X116946033Y-59763888D01*
X116871506Y-59875426D01*
X116832252Y-59970195D01*
X116721140Y-59924171D01*
X116589573Y-59898000D01*
X116455427Y-59898000D01*
X116323860Y-59924171D01*
X116199926Y-59975506D01*
X116088388Y-60050033D01*
X115993533Y-60144888D01*
X115919006Y-60256426D01*
X115867671Y-60380360D01*
X115841500Y-60511927D01*
X109054100Y-60511927D01*
X109054100Y-56692078D01*
X114916000Y-56692078D01*
X114916000Y-56845922D01*
X114946013Y-56996809D01*
X115004887Y-57138942D01*
X115090358Y-57266859D01*
X115199141Y-57375642D01*
X115327058Y-57461113D01*
X115469191Y-57519987D01*
X115620078Y-57550000D01*
X115773922Y-57550000D01*
X115924809Y-57519987D01*
X116066942Y-57461113D01*
X116194859Y-57375642D01*
X116303642Y-57266859D01*
X116389113Y-57138942D01*
X116447987Y-56996809D01*
X116478000Y-56845922D01*
X116478000Y-56692078D01*
X116447987Y-56541191D01*
X116389113Y-56399058D01*
X116303642Y-56271141D01*
X116271004Y-56238503D01*
X121330000Y-56238503D01*
X121330000Y-56382497D01*
X121358092Y-56523725D01*
X121413196Y-56656758D01*
X121493195Y-56776485D01*
X121595015Y-56878305D01*
X121714742Y-56958304D01*
X121847775Y-57013408D01*
X121989003Y-57041500D01*
X122132997Y-57041500D01*
X122274225Y-57013408D01*
X122407258Y-56958304D01*
X122526985Y-56878305D01*
X122628805Y-56776485D01*
X122708804Y-56656758D01*
X122763908Y-56523725D01*
X122792000Y-56382497D01*
X122792000Y-56238503D01*
X122763908Y-56097275D01*
X122708804Y-55964242D01*
X122628805Y-55844515D01*
X122526985Y-55742695D01*
X122407258Y-55662696D01*
X122274225Y-55607592D01*
X122132997Y-55579500D01*
X121989003Y-55579500D01*
X121847775Y-55607592D01*
X121714742Y-55662696D01*
X121595015Y-55742695D01*
X121493195Y-55844515D01*
X121413196Y-55964242D01*
X121358092Y-56097275D01*
X121330000Y-56238503D01*
X116271004Y-56238503D01*
X116194859Y-56162358D01*
X116066942Y-56076887D01*
X115924809Y-56018013D01*
X115773922Y-55988000D01*
X115620078Y-55988000D01*
X115469191Y-56018013D01*
X115327058Y-56076887D01*
X115199141Y-56162358D01*
X115090358Y-56271141D01*
X115004887Y-56399058D01*
X114946013Y-56541191D01*
X114916000Y-56692078D01*
X109054100Y-56692078D01*
X109054100Y-53861990D01*
X111283724Y-53861990D01*
X111328375Y-54009199D01*
X111453559Y-54272020D01*
X111627612Y-54505369D01*
X111843845Y-54700278D01*
X112093948Y-54849257D01*
X112368309Y-54946581D01*
X112598200Y-54825914D01*
X112598200Y-53632100D01*
X112852200Y-53632100D01*
X112852200Y-54825914D01*
X113082091Y-54946581D01*
X113356452Y-54849257D01*
X113606555Y-54700278D01*
X113822788Y-54505369D01*
X113995200Y-54274220D01*
X114167612Y-54505369D01*
X114383845Y-54700278D01*
X114633948Y-54849257D01*
X114908309Y-54946581D01*
X115138200Y-54825914D01*
X115138200Y-53632100D01*
X115392200Y-53632100D01*
X115392200Y-54825914D01*
X115622091Y-54946581D01*
X115896452Y-54849257D01*
X116146555Y-54700278D01*
X116362788Y-54505369D01*
X116536841Y-54272020D01*
X116662025Y-54009199D01*
X116706676Y-53861990D01*
X116627787Y-53712503D01*
X117442500Y-53712503D01*
X117442500Y-53856497D01*
X117470592Y-53997725D01*
X117525696Y-54130758D01*
X117605695Y-54250485D01*
X117707515Y-54352305D01*
X117827242Y-54432304D01*
X117960275Y-54487408D01*
X118101503Y-54515500D01*
X118245497Y-54515500D01*
X118386725Y-54487408D01*
X118519758Y-54432304D01*
X118639485Y-54352305D01*
X118741305Y-54250485D01*
X118821304Y-54130758D01*
X118876408Y-53997725D01*
X118904500Y-53856497D01*
X118904500Y-53712503D01*
X118876408Y-53571275D01*
X118821304Y-53438242D01*
X118741305Y-53318515D01*
X118639485Y-53216695D01*
X118519758Y-53136696D01*
X118386725Y-53081592D01*
X118245497Y-53053500D01*
X118101503Y-53053500D01*
X117960275Y-53081592D01*
X117827242Y-53136696D01*
X117707515Y-53216695D01*
X117605695Y-53318515D01*
X117525696Y-53438242D01*
X117470592Y-53571275D01*
X117442500Y-53712503D01*
X116627787Y-53712503D01*
X116585355Y-53632100D01*
X115392200Y-53632100D01*
X115138200Y-53632100D01*
X112852200Y-53632100D01*
X112598200Y-53632100D01*
X111405045Y-53632100D01*
X111283724Y-53861990D01*
X109054100Y-53861990D01*
X109054100Y-49961000D01*
X112012200Y-49961000D01*
X111940483Y-50008920D01*
X111769020Y-50180383D01*
X111634302Y-50382003D01*
X111541507Y-50606031D01*
X111494200Y-50843857D01*
X111494200Y-51086343D01*
X111541507Y-51324169D01*
X111634302Y-51548197D01*
X111769020Y-51749817D01*
X111940483Y-51921280D01*
X112142103Y-52055998D01*
X112256368Y-52103328D01*
X112093948Y-52160943D01*
X111843845Y-52309922D01*
X111627612Y-52504831D01*
X111453559Y-52738180D01*
X111328375Y-53001001D01*
X111283724Y-53148210D01*
X111405045Y-53378100D01*
X112598200Y-53378100D01*
X112598200Y-53358100D01*
X112852200Y-53358100D01*
X112852200Y-53378100D01*
X115138200Y-53378100D01*
X115138200Y-53358100D01*
X115392200Y-53358100D01*
X115392200Y-53378100D01*
X116585355Y-53378100D01*
X116706676Y-53148210D01*
X116662025Y-53001001D01*
X116536841Y-52738180D01*
X116362788Y-52504831D01*
X116146555Y-52309922D01*
X115942720Y-52188503D01*
X120109500Y-52188503D01*
X120109500Y-52332497D01*
X120137592Y-52473725D01*
X120192696Y-52606758D01*
X120272695Y-52726485D01*
X120374515Y-52828305D01*
X120494242Y-52908304D01*
X120627275Y-52963408D01*
X120768503Y-52991500D01*
X120912497Y-52991500D01*
X121053725Y-52963408D01*
X121186758Y-52908304D01*
X121306485Y-52828305D01*
X121408305Y-52726485D01*
X121488304Y-52606758D01*
X121543408Y-52473725D01*
X121571500Y-52332497D01*
X121571500Y-52188503D01*
X121558870Y-52125003D01*
X128745500Y-52125003D01*
X128745500Y-52268997D01*
X128773592Y-52410225D01*
X128828696Y-52543258D01*
X128908695Y-52662985D01*
X129010515Y-52764805D01*
X129130242Y-52844804D01*
X129263275Y-52899908D01*
X129404503Y-52928000D01*
X129548497Y-52928000D01*
X129689725Y-52899908D01*
X129822758Y-52844804D01*
X129942485Y-52764805D01*
X130044305Y-52662985D01*
X130124304Y-52543258D01*
X130179408Y-52410225D01*
X130207500Y-52268997D01*
X130207500Y-52125003D01*
X130179408Y-51983775D01*
X130124304Y-51850742D01*
X130044305Y-51731015D01*
X129942485Y-51629195D01*
X129822758Y-51549196D01*
X129689725Y-51494092D01*
X129548497Y-51466000D01*
X129404503Y-51466000D01*
X129263275Y-51494092D01*
X129130242Y-51549196D01*
X129010515Y-51629195D01*
X128908695Y-51731015D01*
X128828696Y-51850742D01*
X128773592Y-51983775D01*
X128745500Y-52125003D01*
X121558870Y-52125003D01*
X121543408Y-52047275D01*
X121488304Y-51914242D01*
X121408305Y-51794515D01*
X121306485Y-51692695D01*
X121186758Y-51612696D01*
X121053725Y-51557592D01*
X120912497Y-51529500D01*
X120768503Y-51529500D01*
X120627275Y-51557592D01*
X120494242Y-51612696D01*
X120374515Y-51692695D01*
X120272695Y-51794515D01*
X120192696Y-51914242D01*
X120137592Y-52047275D01*
X120109500Y-52188503D01*
X115942720Y-52188503D01*
X115896452Y-52160943D01*
X115734032Y-52103328D01*
X115848297Y-52055998D01*
X116049917Y-51921280D01*
X116221380Y-51749817D01*
X116356098Y-51548197D01*
X116448893Y-51324169D01*
X116496200Y-51086343D01*
X116496200Y-50843857D01*
X116448893Y-50606031D01*
X116356098Y-50382003D01*
X116221380Y-50180383D01*
X116049917Y-50008920D01*
X115848297Y-49874202D01*
X115806798Y-49857013D01*
X115829509Y-49841694D01*
X115862200Y-49820301D01*
X115866864Y-49816498D01*
X115906970Y-49783319D01*
X115934459Y-49755638D01*
X115962409Y-49728267D01*
X115966245Y-49723629D01*
X115999142Y-49683293D01*
X116020748Y-49650773D01*
X116042831Y-49618521D01*
X116045693Y-49613227D01*
X116070129Y-49567268D01*
X116085014Y-49531153D01*
X116100399Y-49495258D01*
X116102179Y-49489509D01*
X116102180Y-49489504D01*
X116102183Y-49489498D01*
X116102184Y-49489491D01*
X116117224Y-49439680D01*
X116124814Y-49401352D01*
X116132935Y-49363144D01*
X116133562Y-49357175D01*
X116133564Y-49357166D01*
X116133564Y-49357158D01*
X116134511Y-49347502D01*
X116134537Y-49347415D01*
X116138406Y-49307773D01*
X116138643Y-49305357D01*
X116138643Y-49305346D01*
X116140718Y-49284086D01*
X116139524Y-47934003D01*
X123729000Y-47934003D01*
X123729000Y-48077997D01*
X123757092Y-48219225D01*
X123812196Y-48352258D01*
X123892195Y-48471985D01*
X123994015Y-48573805D01*
X124113742Y-48653804D01*
X124246775Y-48708908D01*
X124388003Y-48737000D01*
X124531997Y-48737000D01*
X124673225Y-48708908D01*
X124806258Y-48653804D01*
X124925985Y-48573805D01*
X125027805Y-48471985D01*
X125107804Y-48352258D01*
X125162908Y-48219225D01*
X125191000Y-48077997D01*
X125191000Y-47934003D01*
X131095000Y-47934003D01*
X131095000Y-48077997D01*
X131123092Y-48219225D01*
X131178196Y-48352258D01*
X131258195Y-48471985D01*
X131360015Y-48573805D01*
X131479742Y-48653804D01*
X131612775Y-48708908D01*
X131754003Y-48737000D01*
X131897997Y-48737000D01*
X132039225Y-48708908D01*
X132172258Y-48653804D01*
X132291985Y-48573805D01*
X132393805Y-48471985D01*
X132473804Y-48352258D01*
X132528908Y-48219225D01*
X132557000Y-48077997D01*
X132557000Y-47934003D01*
X132528908Y-47792775D01*
X132473804Y-47659742D01*
X132393805Y-47540015D01*
X132291985Y-47438195D01*
X132172258Y-47358196D01*
X132039225Y-47303092D01*
X131897997Y-47275000D01*
X131754003Y-47275000D01*
X131612775Y-47303092D01*
X131479742Y-47358196D01*
X131360015Y-47438195D01*
X131258195Y-47540015D01*
X131178196Y-47659742D01*
X131123092Y-47792775D01*
X131095000Y-47934003D01*
X125191000Y-47934003D01*
X125162908Y-47792775D01*
X125107804Y-47659742D01*
X125027805Y-47540015D01*
X124925985Y-47438195D01*
X124806258Y-47358196D01*
X124673225Y-47303092D01*
X124531997Y-47275000D01*
X124388003Y-47275000D01*
X124246775Y-47303092D01*
X124113742Y-47358196D01*
X123994015Y-47438195D01*
X123892195Y-47540015D01*
X123812196Y-47659742D01*
X123757092Y-47792775D01*
X123729000Y-47934003D01*
X116139524Y-47934003D01*
X116136936Y-45008078D01*
X126790500Y-45008078D01*
X126790500Y-45161922D01*
X126820513Y-45312809D01*
X126879387Y-45454942D01*
X126964858Y-45582859D01*
X127073641Y-45691642D01*
X127201558Y-45777113D01*
X127343691Y-45835987D01*
X127494578Y-45866000D01*
X127648422Y-45866000D01*
X127799309Y-45835987D01*
X127941442Y-45777113D01*
X128069359Y-45691642D01*
X128178142Y-45582859D01*
X128206500Y-45540418D01*
X128234858Y-45582859D01*
X128343641Y-45691642D01*
X128471558Y-45777113D01*
X128613691Y-45835987D01*
X128764578Y-45866000D01*
X128918422Y-45866000D01*
X129069309Y-45835987D01*
X129211442Y-45777113D01*
X129339359Y-45691642D01*
X129448142Y-45582859D01*
X129533613Y-45454942D01*
X129592487Y-45312809D01*
X129622500Y-45161922D01*
X129622500Y-45008078D01*
X129592487Y-44857191D01*
X129533613Y-44715058D01*
X129448142Y-44587141D01*
X129339359Y-44478358D01*
X129211442Y-44392887D01*
X129069309Y-44334013D01*
X128918422Y-44304000D01*
X128764578Y-44304000D01*
X128613691Y-44334013D01*
X128471558Y-44392887D01*
X128343641Y-44478358D01*
X128234858Y-44587141D01*
X128206500Y-44629582D01*
X128178142Y-44587141D01*
X128069359Y-44478358D01*
X127941442Y-44392887D01*
X127799309Y-44334013D01*
X127648422Y-44304000D01*
X127494578Y-44304000D01*
X127343691Y-44334013D01*
X127201558Y-44392887D01*
X127073641Y-44478358D01*
X126964858Y-44587141D01*
X126879387Y-44715058D01*
X126820513Y-44857191D01*
X126790500Y-45008078D01*
X116136936Y-45008078D01*
X116136797Y-44851972D01*
X116138863Y-44830993D01*
X116136759Y-44809633D01*
X116136759Y-44809440D01*
X116135748Y-43666445D01*
X116135748Y-43666440D01*
X116128145Y-35076600D01*
X133109500Y-35076600D01*
X133109501Y-92228200D01*
G37*
%TD.AperFunction*%
%TD*%
M02*
