%TF.GenerationSoftware,KiCad,Pcbnew,(5.1.9)-1*%
%TF.CreationDate,2021-06-18T11:47:15+07:00*%
%TF.ProjectId,A2B,4132422e-6b69-4636-9164-5f7063625858,2*%
%TF.SameCoordinates,Original*%
%TF.FileFunction,Soldermask,Top*%
%TF.FilePolarity,Negative*%
%FSLAX46Y46*%
G04 Gerber Fmt 4.6, Leading zero omitted, Abs format (unit mm)*
G04 Created by KiCad (PCBNEW (5.1.9)-1) date 2021-06-18 11:47:15*
%MOMM*%
%LPD*%
G01*
G04 APERTURE LIST*
%ADD10R,3.600000X3.600000*%
%ADD11R,0.249200X0.804800*%
%ADD12R,0.804800X0.249200*%
%ADD13O,1.700000X1.700000*%
%ADD14R,1.700000X1.700000*%
%ADD15R,0.800000X0.900000*%
%ADD16R,0.500000X0.800000*%
%ADD17R,0.400000X0.800000*%
%ADD18R,0.609600X1.041400*%
%ADD19R,1.700000X5.300000*%
%ADD20R,1.200000X3.200000*%
%ADD21R,1.200000X0.900000*%
G04 APERTURE END LIST*
D10*
%TO.C,U1*%
X119905500Y-63663500D03*
D11*
X118155501Y-61261099D03*
X118655500Y-61261099D03*
X119155499Y-61261099D03*
X119655500Y-61261099D03*
X120155500Y-61261099D03*
X120655501Y-61261099D03*
X121155500Y-61261099D03*
X121655499Y-61261099D03*
D12*
X122307901Y-61913501D03*
X122307901Y-62413500D03*
X122307901Y-62913499D03*
X122307901Y-63413500D03*
X122307901Y-63913500D03*
X122307901Y-64413501D03*
X122307901Y-64913500D03*
X122307901Y-65413499D03*
D11*
X121655499Y-66065901D03*
X121155500Y-66065901D03*
X120655501Y-66065901D03*
X120155500Y-66065901D03*
X119655500Y-66065901D03*
X119155499Y-66065901D03*
X118655500Y-66065901D03*
X118155501Y-66065901D03*
D12*
X117503099Y-65413499D03*
X117503099Y-64913500D03*
X117503099Y-64413501D03*
X117503099Y-63913500D03*
X117503099Y-63413500D03*
X117503099Y-62913499D03*
X117503099Y-62413500D03*
X117503099Y-61913501D03*
%TD*%
D13*
%TO.C,D3*%
X115265200Y-53505100D03*
X112725200Y-53505100D03*
X115265200Y-50965100D03*
X112725200Y-50965100D03*
D14*
X115265200Y-90335100D03*
D13*
X112725200Y-90335100D03*
X115265200Y-87795100D03*
X112725200Y-87795100D03*
X115265200Y-85255100D03*
X112725200Y-85255100D03*
X115265200Y-82715100D03*
X112725200Y-82715100D03*
X115265200Y-80175100D03*
X112725200Y-80175100D03*
X115265200Y-77635100D03*
X112725200Y-77635100D03*
X115265200Y-75095100D03*
X112725200Y-75095100D03*
X115265200Y-72555100D03*
X112725200Y-72555100D03*
%TD*%
%TO.C,C7*%
G36*
G01*
X114896500Y-62516500D02*
X114896500Y-62016500D01*
G75*
G02*
X115121500Y-61791500I225000J0D01*
G01*
X115571500Y-61791500D01*
G75*
G02*
X115796500Y-62016500I0J-225000D01*
G01*
X115796500Y-62516500D01*
G75*
G02*
X115571500Y-62741500I-225000J0D01*
G01*
X115121500Y-62741500D01*
G75*
G02*
X114896500Y-62516500I0J225000D01*
G01*
G37*
G36*
G01*
X113346500Y-62516500D02*
X113346500Y-62016500D01*
G75*
G02*
X113571500Y-61791500I225000J0D01*
G01*
X114021500Y-61791500D01*
G75*
G02*
X114246500Y-62016500I0J-225000D01*
G01*
X114246500Y-62516500D01*
G75*
G02*
X114021500Y-62741500I-225000J0D01*
G01*
X113571500Y-62741500D01*
G75*
G02*
X113346500Y-62516500I0J225000D01*
G01*
G37*
%TD*%
%TO.C,C10*%
G36*
G01*
X117941000Y-58845000D02*
X118441000Y-58845000D01*
G75*
G02*
X118666000Y-59070000I0J-225000D01*
G01*
X118666000Y-59520000D01*
G75*
G02*
X118441000Y-59745000I-225000J0D01*
G01*
X117941000Y-59745000D01*
G75*
G02*
X117716000Y-59520000I0J225000D01*
G01*
X117716000Y-59070000D01*
G75*
G02*
X117941000Y-58845000I225000J0D01*
G01*
G37*
G36*
G01*
X117941000Y-57295000D02*
X118441000Y-57295000D01*
G75*
G02*
X118666000Y-57520000I0J-225000D01*
G01*
X118666000Y-57970000D01*
G75*
G02*
X118441000Y-58195000I-225000J0D01*
G01*
X117941000Y-58195000D01*
G75*
G02*
X117716000Y-57970000I0J225000D01*
G01*
X117716000Y-57520000D01*
G75*
G02*
X117941000Y-57295000I225000J0D01*
G01*
G37*
%TD*%
%TO.C,C11*%
G36*
G01*
X117026500Y-70222500D02*
X116526500Y-70222500D01*
G75*
G02*
X116301500Y-69997500I0J225000D01*
G01*
X116301500Y-69547500D01*
G75*
G02*
X116526500Y-69322500I225000J0D01*
G01*
X117026500Y-69322500D01*
G75*
G02*
X117251500Y-69547500I0J-225000D01*
G01*
X117251500Y-69997500D01*
G75*
G02*
X117026500Y-70222500I-225000J0D01*
G01*
G37*
G36*
G01*
X117026500Y-68672500D02*
X116526500Y-68672500D01*
G75*
G02*
X116301500Y-68447500I0J225000D01*
G01*
X116301500Y-67997500D01*
G75*
G02*
X116526500Y-67772500I225000J0D01*
G01*
X117026500Y-67772500D01*
G75*
G02*
X117251500Y-67997500I0J-225000D01*
G01*
X117251500Y-68447500D01*
G75*
G02*
X117026500Y-68672500I-225000J0D01*
G01*
G37*
%TD*%
%TO.C,C12*%
G36*
G01*
X113312000Y-59503000D02*
X113312000Y-58553000D01*
G75*
G02*
X113562000Y-58303000I250000J0D01*
G01*
X114062000Y-58303000D01*
G75*
G02*
X114312000Y-58553000I0J-250000D01*
G01*
X114312000Y-59503000D01*
G75*
G02*
X114062000Y-59753000I-250000J0D01*
G01*
X113562000Y-59753000D01*
G75*
G02*
X113312000Y-59503000I0J250000D01*
G01*
G37*
G36*
G01*
X115212000Y-59503000D02*
X115212000Y-58553000D01*
G75*
G02*
X115462000Y-58303000I250000J0D01*
G01*
X115962000Y-58303000D01*
G75*
G02*
X116212000Y-58553000I0J-250000D01*
G01*
X116212000Y-59503000D01*
G75*
G02*
X115962000Y-59753000I-250000J0D01*
G01*
X115462000Y-59753000D01*
G75*
G02*
X115212000Y-59503000I0J250000D01*
G01*
G37*
%TD*%
%TO.C,C13*%
G36*
G01*
X119401500Y-58845000D02*
X119901500Y-58845000D01*
G75*
G02*
X120126500Y-59070000I0J-225000D01*
G01*
X120126500Y-59520000D01*
G75*
G02*
X119901500Y-59745000I-225000J0D01*
G01*
X119401500Y-59745000D01*
G75*
G02*
X119176500Y-59520000I0J225000D01*
G01*
X119176500Y-59070000D01*
G75*
G02*
X119401500Y-58845000I225000J0D01*
G01*
G37*
G36*
G01*
X119401500Y-57295000D02*
X119901500Y-57295000D01*
G75*
G02*
X120126500Y-57520000I0J-225000D01*
G01*
X120126500Y-57970000D01*
G75*
G02*
X119901500Y-58195000I-225000J0D01*
G01*
X119401500Y-58195000D01*
G75*
G02*
X119176500Y-57970000I0J225000D01*
G01*
X119176500Y-57520000D01*
G75*
G02*
X119401500Y-57295000I225000J0D01*
G01*
G37*
%TD*%
%TO.C,C14*%
G36*
G01*
X121113000Y-49470500D02*
X121113000Y-49970500D01*
G75*
G02*
X120888000Y-50195500I-225000J0D01*
G01*
X120438000Y-50195500D01*
G75*
G02*
X120213000Y-49970500I0J225000D01*
G01*
X120213000Y-49470500D01*
G75*
G02*
X120438000Y-49245500I225000J0D01*
G01*
X120888000Y-49245500D01*
G75*
G02*
X121113000Y-49470500I0J-225000D01*
G01*
G37*
G36*
G01*
X119563000Y-49470500D02*
X119563000Y-49970500D01*
G75*
G02*
X119338000Y-50195500I-225000J0D01*
G01*
X118888000Y-50195500D01*
G75*
G02*
X118663000Y-49970500I0J225000D01*
G01*
X118663000Y-49470500D01*
G75*
G02*
X118888000Y-49245500I225000J0D01*
G01*
X119338000Y-49245500D01*
G75*
G02*
X119563000Y-49470500I0J-225000D01*
G01*
G37*
%TD*%
%TO.C,C15*%
G36*
G01*
X120862000Y-55860500D02*
X121362000Y-55860500D01*
G75*
G02*
X121587000Y-56085500I0J-225000D01*
G01*
X121587000Y-56535500D01*
G75*
G02*
X121362000Y-56760500I-225000J0D01*
G01*
X120862000Y-56760500D01*
G75*
G02*
X120637000Y-56535500I0J225000D01*
G01*
X120637000Y-56085500D01*
G75*
G02*
X120862000Y-55860500I225000J0D01*
G01*
G37*
G36*
G01*
X120862000Y-54310500D02*
X121362000Y-54310500D01*
G75*
G02*
X121587000Y-54535500I0J-225000D01*
G01*
X121587000Y-54985500D01*
G75*
G02*
X121362000Y-55210500I-225000J0D01*
G01*
X120862000Y-55210500D01*
G75*
G02*
X120637000Y-54985500I0J225000D01*
G01*
X120637000Y-54535500D01*
G75*
G02*
X120862000Y-54310500I225000J0D01*
G01*
G37*
%TD*%
%TO.C,C16*%
G36*
G01*
X119563000Y-46549500D02*
X119563000Y-47049500D01*
G75*
G02*
X119338000Y-47274500I-225000J0D01*
G01*
X118888000Y-47274500D01*
G75*
G02*
X118663000Y-47049500I0J225000D01*
G01*
X118663000Y-46549500D01*
G75*
G02*
X118888000Y-46324500I225000J0D01*
G01*
X119338000Y-46324500D01*
G75*
G02*
X119563000Y-46549500I0J-225000D01*
G01*
G37*
G36*
G01*
X121113000Y-46549500D02*
X121113000Y-47049500D01*
G75*
G02*
X120888000Y-47274500I-225000J0D01*
G01*
X120438000Y-47274500D01*
G75*
G02*
X120213000Y-47049500I0J225000D01*
G01*
X120213000Y-46549500D01*
G75*
G02*
X120438000Y-46324500I225000J0D01*
G01*
X120888000Y-46324500D01*
G75*
G02*
X121113000Y-46549500I0J-225000D01*
G01*
G37*
%TD*%
%TO.C,C18*%
G36*
G01*
X124283000Y-60227000D02*
X123783000Y-60227000D01*
G75*
G02*
X123558000Y-60002000I0J225000D01*
G01*
X123558000Y-59552000D01*
G75*
G02*
X123783000Y-59327000I225000J0D01*
G01*
X124283000Y-59327000D01*
G75*
G02*
X124508000Y-59552000I0J-225000D01*
G01*
X124508000Y-60002000D01*
G75*
G02*
X124283000Y-60227000I-225000J0D01*
G01*
G37*
G36*
G01*
X124283000Y-61777000D02*
X123783000Y-61777000D01*
G75*
G02*
X123558000Y-61552000I0J225000D01*
G01*
X123558000Y-61102000D01*
G75*
G02*
X123783000Y-60877000I225000J0D01*
G01*
X124283000Y-60877000D01*
G75*
G02*
X124508000Y-61102000I0J-225000D01*
G01*
X124508000Y-61552000D01*
G75*
G02*
X124283000Y-61777000I-225000J0D01*
G01*
G37*
%TD*%
%TO.C,C19*%
G36*
G01*
X124283000Y-66450000D02*
X123783000Y-66450000D01*
G75*
G02*
X123558000Y-66225000I0J225000D01*
G01*
X123558000Y-65775000D01*
G75*
G02*
X123783000Y-65550000I225000J0D01*
G01*
X124283000Y-65550000D01*
G75*
G02*
X124508000Y-65775000I0J-225000D01*
G01*
X124508000Y-66225000D01*
G75*
G02*
X124283000Y-66450000I-225000J0D01*
G01*
G37*
G36*
G01*
X124283000Y-68000000D02*
X123783000Y-68000000D01*
G75*
G02*
X123558000Y-67775000I0J225000D01*
G01*
X123558000Y-67325000D01*
G75*
G02*
X123783000Y-67100000I225000J0D01*
G01*
X124283000Y-67100000D01*
G75*
G02*
X124508000Y-67325000I0J-225000D01*
G01*
X124508000Y-67775000D01*
G75*
G02*
X124283000Y-68000000I-225000J0D01*
G01*
G37*
%TD*%
%TO.C,C25*%
G36*
G01*
X122495500Y-58845000D02*
X122995500Y-58845000D01*
G75*
G02*
X123220500Y-59070000I0J-225000D01*
G01*
X123220500Y-59520000D01*
G75*
G02*
X122995500Y-59745000I-225000J0D01*
G01*
X122495500Y-59745000D01*
G75*
G02*
X122270500Y-59520000I0J225000D01*
G01*
X122270500Y-59070000D01*
G75*
G02*
X122495500Y-58845000I225000J0D01*
G01*
G37*
G36*
G01*
X122495500Y-57295000D02*
X122995500Y-57295000D01*
G75*
G02*
X123220500Y-57520000I0J-225000D01*
G01*
X123220500Y-57970000D01*
G75*
G02*
X122995500Y-58195000I-225000J0D01*
G01*
X122495500Y-58195000D01*
G75*
G02*
X122270500Y-57970000I0J225000D01*
G01*
X122270500Y-57520000D01*
G75*
G02*
X122495500Y-57295000I225000J0D01*
G01*
G37*
%TD*%
%TO.C,C30*%
G36*
G01*
X118441000Y-55210500D02*
X117941000Y-55210500D01*
G75*
G02*
X117716000Y-54985500I0J225000D01*
G01*
X117716000Y-54535500D01*
G75*
G02*
X117941000Y-54310500I225000J0D01*
G01*
X118441000Y-54310500D01*
G75*
G02*
X118666000Y-54535500I0J-225000D01*
G01*
X118666000Y-54985500D01*
G75*
G02*
X118441000Y-55210500I-225000J0D01*
G01*
G37*
G36*
G01*
X118441000Y-56760500D02*
X117941000Y-56760500D01*
G75*
G02*
X117716000Y-56535500I0J225000D01*
G01*
X117716000Y-56085500D01*
G75*
G02*
X117941000Y-55860500I225000J0D01*
G01*
X118441000Y-55860500D01*
G75*
G02*
X118666000Y-56085500I0J-225000D01*
G01*
X118666000Y-56535500D01*
G75*
G02*
X118441000Y-56760500I-225000J0D01*
G01*
G37*
%TD*%
%TO.C,C31*%
G36*
G01*
X126918000Y-61090800D02*
X126918000Y-60590800D01*
G75*
G02*
X127143000Y-60365800I225000J0D01*
G01*
X127593000Y-60365800D01*
G75*
G02*
X127818000Y-60590800I0J-225000D01*
G01*
X127818000Y-61090800D01*
G75*
G02*
X127593000Y-61315800I-225000J0D01*
G01*
X127143000Y-61315800D01*
G75*
G02*
X126918000Y-61090800I0J225000D01*
G01*
G37*
G36*
G01*
X128468000Y-61090800D02*
X128468000Y-60590800D01*
G75*
G02*
X128693000Y-60365800I225000J0D01*
G01*
X129143000Y-60365800D01*
G75*
G02*
X129368000Y-60590800I0J-225000D01*
G01*
X129368000Y-61090800D01*
G75*
G02*
X129143000Y-61315800I-225000J0D01*
G01*
X128693000Y-61315800D01*
G75*
G02*
X128468000Y-61090800I0J225000D01*
G01*
G37*
%TD*%
%TO.C,C32*%
G36*
G01*
X129368000Y-66196400D02*
X129368000Y-66696400D01*
G75*
G02*
X129143000Y-66921400I-225000J0D01*
G01*
X128693000Y-66921400D01*
G75*
G02*
X128468000Y-66696400I0J225000D01*
G01*
X128468000Y-66196400D01*
G75*
G02*
X128693000Y-65971400I225000J0D01*
G01*
X129143000Y-65971400D01*
G75*
G02*
X129368000Y-66196400I0J-225000D01*
G01*
G37*
G36*
G01*
X127818000Y-66196400D02*
X127818000Y-66696400D01*
G75*
G02*
X127593000Y-66921400I-225000J0D01*
G01*
X127143000Y-66921400D01*
G75*
G02*
X126918000Y-66696400I0J225000D01*
G01*
X126918000Y-66196400D01*
G75*
G02*
X127143000Y-65971400I225000J0D01*
G01*
X127593000Y-65971400D01*
G75*
G02*
X127818000Y-66196400I0J-225000D01*
G01*
G37*
%TD*%
%TO.C,C33*%
G36*
G01*
X126944000Y-56391800D02*
X126944000Y-55891800D01*
G75*
G02*
X127169000Y-55666800I225000J0D01*
G01*
X127619000Y-55666800D01*
G75*
G02*
X127844000Y-55891800I0J-225000D01*
G01*
X127844000Y-56391800D01*
G75*
G02*
X127619000Y-56616800I-225000J0D01*
G01*
X127169000Y-56616800D01*
G75*
G02*
X126944000Y-56391800I0J225000D01*
G01*
G37*
G36*
G01*
X125394000Y-56391800D02*
X125394000Y-55891800D01*
G75*
G02*
X125619000Y-55666800I225000J0D01*
G01*
X126069000Y-55666800D01*
G75*
G02*
X126294000Y-55891800I0J-225000D01*
G01*
X126294000Y-56391800D01*
G75*
G02*
X126069000Y-56616800I-225000J0D01*
G01*
X125619000Y-56616800D01*
G75*
G02*
X125394000Y-56391800I0J225000D01*
G01*
G37*
%TD*%
%TO.C,C34*%
G36*
G01*
X130892000Y-55891800D02*
X130892000Y-56391800D01*
G75*
G02*
X130667000Y-56616800I-225000J0D01*
G01*
X130217000Y-56616800D01*
G75*
G02*
X129992000Y-56391800I0J225000D01*
G01*
X129992000Y-55891800D01*
G75*
G02*
X130217000Y-55666800I225000J0D01*
G01*
X130667000Y-55666800D01*
G75*
G02*
X130892000Y-55891800I0J-225000D01*
G01*
G37*
G36*
G01*
X129342000Y-55891800D02*
X129342000Y-56391800D01*
G75*
G02*
X129117000Y-56616800I-225000J0D01*
G01*
X128667000Y-56616800D01*
G75*
G02*
X128442000Y-56391800I0J225000D01*
G01*
X128442000Y-55891800D01*
G75*
G02*
X128667000Y-55666800I225000J0D01*
G01*
X129117000Y-55666800D01*
G75*
G02*
X129342000Y-55891800I0J-225000D01*
G01*
G37*
%TD*%
%TO.C,C35*%
G36*
G01*
X130904700Y-70895400D02*
X130904700Y-71395400D01*
G75*
G02*
X130679700Y-71620400I-225000J0D01*
G01*
X130229700Y-71620400D01*
G75*
G02*
X130004700Y-71395400I0J225000D01*
G01*
X130004700Y-70895400D01*
G75*
G02*
X130229700Y-70670400I225000J0D01*
G01*
X130679700Y-70670400D01*
G75*
G02*
X130904700Y-70895400I0J-225000D01*
G01*
G37*
G36*
G01*
X129354700Y-70895400D02*
X129354700Y-71395400D01*
G75*
G02*
X129129700Y-71620400I-225000J0D01*
G01*
X128679700Y-71620400D01*
G75*
G02*
X128454700Y-71395400I0J225000D01*
G01*
X128454700Y-70895400D01*
G75*
G02*
X128679700Y-70670400I225000J0D01*
G01*
X129129700Y-70670400D01*
G75*
G02*
X129354700Y-70895400I0J-225000D01*
G01*
G37*
%TD*%
%TO.C,C36*%
G36*
G01*
X125394000Y-71395400D02*
X125394000Y-70895400D01*
G75*
G02*
X125619000Y-70670400I225000J0D01*
G01*
X126069000Y-70670400D01*
G75*
G02*
X126294000Y-70895400I0J-225000D01*
G01*
X126294000Y-71395400D01*
G75*
G02*
X126069000Y-71620400I-225000J0D01*
G01*
X125619000Y-71620400D01*
G75*
G02*
X125394000Y-71395400I0J225000D01*
G01*
G37*
G36*
G01*
X126944000Y-71395400D02*
X126944000Y-70895400D01*
G75*
G02*
X127169000Y-70670400I225000J0D01*
G01*
X127619000Y-70670400D01*
G75*
G02*
X127844000Y-70895400I0J-225000D01*
G01*
X127844000Y-71395400D01*
G75*
G02*
X127619000Y-71620400I-225000J0D01*
G01*
X127169000Y-71620400D01*
G75*
G02*
X126944000Y-71395400I0J225000D01*
G01*
G37*
%TD*%
%TO.C,C39*%
G36*
G01*
X130993000Y-75721400D02*
X130993000Y-76221400D01*
G75*
G02*
X130768000Y-76446400I-225000J0D01*
G01*
X130318000Y-76446400D01*
G75*
G02*
X130093000Y-76221400I0J225000D01*
G01*
X130093000Y-75721400D01*
G75*
G02*
X130318000Y-75496400I225000J0D01*
G01*
X130768000Y-75496400D01*
G75*
G02*
X130993000Y-75721400I0J-225000D01*
G01*
G37*
G36*
G01*
X132543000Y-75721400D02*
X132543000Y-76221400D01*
G75*
G02*
X132318000Y-76446400I-225000J0D01*
G01*
X131868000Y-76446400D01*
G75*
G02*
X131643000Y-76221400I0J225000D01*
G01*
X131643000Y-75721400D01*
G75*
G02*
X131868000Y-75496400I225000J0D01*
G01*
X132318000Y-75496400D01*
G75*
G02*
X132543000Y-75721400I0J-225000D01*
G01*
G37*
%TD*%
%TO.C,C40*%
G36*
G01*
X126193000Y-75721400D02*
X126193000Y-76221400D01*
G75*
G02*
X125968000Y-76446400I-225000J0D01*
G01*
X125518000Y-76446400D01*
G75*
G02*
X125293000Y-76221400I0J225000D01*
G01*
X125293000Y-75721400D01*
G75*
G02*
X125518000Y-75496400I225000J0D01*
G01*
X125968000Y-75496400D01*
G75*
G02*
X126193000Y-75721400I0J-225000D01*
G01*
G37*
G36*
G01*
X124643000Y-75721400D02*
X124643000Y-76221400D01*
G75*
G02*
X124418000Y-76446400I-225000J0D01*
G01*
X123968000Y-76446400D01*
G75*
G02*
X123743000Y-76221400I0J225000D01*
G01*
X123743000Y-75721400D01*
G75*
G02*
X123968000Y-75496400I225000J0D01*
G01*
X124418000Y-75496400D01*
G75*
G02*
X124643000Y-75721400I0J-225000D01*
G01*
G37*
%TD*%
%TO.C,C41*%
G36*
G01*
X125293000Y-51565800D02*
X125293000Y-51065800D01*
G75*
G02*
X125518000Y-50840800I225000J0D01*
G01*
X125968000Y-50840800D01*
G75*
G02*
X126193000Y-51065800I0J-225000D01*
G01*
X126193000Y-51565800D01*
G75*
G02*
X125968000Y-51790800I-225000J0D01*
G01*
X125518000Y-51790800D01*
G75*
G02*
X125293000Y-51565800I0J225000D01*
G01*
G37*
G36*
G01*
X123743000Y-51565800D02*
X123743000Y-51065800D01*
G75*
G02*
X123968000Y-50840800I225000J0D01*
G01*
X124418000Y-50840800D01*
G75*
G02*
X124643000Y-51065800I0J-225000D01*
G01*
X124643000Y-51565800D01*
G75*
G02*
X124418000Y-51790800I-225000J0D01*
G01*
X123968000Y-51790800D01*
G75*
G02*
X123743000Y-51565800I0J225000D01*
G01*
G37*
%TD*%
%TO.C,C42*%
G36*
G01*
X130093000Y-51565800D02*
X130093000Y-51065800D01*
G75*
G02*
X130318000Y-50840800I225000J0D01*
G01*
X130768000Y-50840800D01*
G75*
G02*
X130993000Y-51065800I0J-225000D01*
G01*
X130993000Y-51565800D01*
G75*
G02*
X130768000Y-51790800I-225000J0D01*
G01*
X130318000Y-51790800D01*
G75*
G02*
X130093000Y-51565800I0J225000D01*
G01*
G37*
G36*
G01*
X131643000Y-51565800D02*
X131643000Y-51065800D01*
G75*
G02*
X131868000Y-50840800I225000J0D01*
G01*
X132318000Y-50840800D01*
G75*
G02*
X132543000Y-51065800I0J-225000D01*
G01*
X132543000Y-51565800D01*
G75*
G02*
X132318000Y-51790800I-225000J0D01*
G01*
X131868000Y-51790800D01*
G75*
G02*
X131643000Y-51565800I0J225000D01*
G01*
G37*
%TD*%
%TO.C,C43*%
G36*
G01*
X128655000Y-80868400D02*
X129155000Y-80868400D01*
G75*
G02*
X129380000Y-81093400I0J-225000D01*
G01*
X129380000Y-81543400D01*
G75*
G02*
X129155000Y-81768400I-225000J0D01*
G01*
X128655000Y-81768400D01*
G75*
G02*
X128430000Y-81543400I0J225000D01*
G01*
X128430000Y-81093400D01*
G75*
G02*
X128655000Y-80868400I225000J0D01*
G01*
G37*
G36*
G01*
X128655000Y-79318400D02*
X129155000Y-79318400D01*
G75*
G02*
X129380000Y-79543400I0J-225000D01*
G01*
X129380000Y-79993400D01*
G75*
G02*
X129155000Y-80218400I-225000J0D01*
G01*
X128655000Y-80218400D01*
G75*
G02*
X128430000Y-79993400I0J225000D01*
G01*
X128430000Y-79543400D01*
G75*
G02*
X128655000Y-79318400I225000J0D01*
G01*
G37*
%TD*%
%TO.C,C44*%
G36*
G01*
X127131000Y-79318400D02*
X127631000Y-79318400D01*
G75*
G02*
X127856000Y-79543400I0J-225000D01*
G01*
X127856000Y-79993400D01*
G75*
G02*
X127631000Y-80218400I-225000J0D01*
G01*
X127131000Y-80218400D01*
G75*
G02*
X126906000Y-79993400I0J225000D01*
G01*
X126906000Y-79543400D01*
G75*
G02*
X127131000Y-79318400I225000J0D01*
G01*
G37*
G36*
G01*
X127131000Y-80868400D02*
X127631000Y-80868400D01*
G75*
G02*
X127856000Y-81093400I0J-225000D01*
G01*
X127856000Y-81543400D01*
G75*
G02*
X127631000Y-81768400I-225000J0D01*
G01*
X127131000Y-81768400D01*
G75*
G02*
X126906000Y-81543400I0J225000D01*
G01*
X126906000Y-81093400D01*
G75*
G02*
X127131000Y-80868400I225000J0D01*
G01*
G37*
%TD*%
%TO.C,C46*%
G36*
G01*
X127758000Y-46418800D02*
X127258000Y-46418800D01*
G75*
G02*
X127033000Y-46193800I0J225000D01*
G01*
X127033000Y-45743800D01*
G75*
G02*
X127258000Y-45518800I225000J0D01*
G01*
X127758000Y-45518800D01*
G75*
G02*
X127983000Y-45743800I0J-225000D01*
G01*
X127983000Y-46193800D01*
G75*
G02*
X127758000Y-46418800I-225000J0D01*
G01*
G37*
G36*
G01*
X127758000Y-47968800D02*
X127258000Y-47968800D01*
G75*
G02*
X127033000Y-47743800I0J225000D01*
G01*
X127033000Y-47293800D01*
G75*
G02*
X127258000Y-47068800I225000J0D01*
G01*
X127758000Y-47068800D01*
G75*
G02*
X127983000Y-47293800I0J-225000D01*
G01*
X127983000Y-47743800D01*
G75*
G02*
X127758000Y-47968800I-225000J0D01*
G01*
G37*
%TD*%
%TO.C,C47*%
G36*
G01*
X129155000Y-47968800D02*
X128655000Y-47968800D01*
G75*
G02*
X128430000Y-47743800I0J225000D01*
G01*
X128430000Y-47293800D01*
G75*
G02*
X128655000Y-47068800I225000J0D01*
G01*
X129155000Y-47068800D01*
G75*
G02*
X129380000Y-47293800I0J-225000D01*
G01*
X129380000Y-47743800D01*
G75*
G02*
X129155000Y-47968800I-225000J0D01*
G01*
G37*
G36*
G01*
X129155000Y-46418800D02*
X128655000Y-46418800D01*
G75*
G02*
X128430000Y-46193800I0J225000D01*
G01*
X128430000Y-45743800D01*
G75*
G02*
X128655000Y-45518800I225000J0D01*
G01*
X129155000Y-45518800D01*
G75*
G02*
X129380000Y-45743800I0J-225000D01*
G01*
X129380000Y-46193800D01*
G75*
G02*
X129155000Y-46418800I-225000J0D01*
G01*
G37*
%TD*%
%TO.C,FB2*%
G36*
G01*
X127190000Y-59616300D02*
X127190000Y-59271300D01*
G75*
G02*
X127337500Y-59123800I147500J0D01*
G01*
X127632500Y-59123800D01*
G75*
G02*
X127780000Y-59271300I0J-147500D01*
G01*
X127780000Y-59616300D01*
G75*
G02*
X127632500Y-59763800I-147500J0D01*
G01*
X127337500Y-59763800D01*
G75*
G02*
X127190000Y-59616300I0J147500D01*
G01*
G37*
G36*
G01*
X126220000Y-59616300D02*
X126220000Y-59271300D01*
G75*
G02*
X126367500Y-59123800I147500J0D01*
G01*
X126662500Y-59123800D01*
G75*
G02*
X126810000Y-59271300I0J-147500D01*
G01*
X126810000Y-59616300D01*
G75*
G02*
X126662500Y-59763800I-147500J0D01*
G01*
X126367500Y-59763800D01*
G75*
G02*
X126220000Y-59616300I0J147500D01*
G01*
G37*
%TD*%
%TO.C,FB3*%
G36*
G01*
X128506000Y-59616300D02*
X128506000Y-59271300D01*
G75*
G02*
X128653500Y-59123800I147500J0D01*
G01*
X128948500Y-59123800D01*
G75*
G02*
X129096000Y-59271300I0J-147500D01*
G01*
X129096000Y-59616300D01*
G75*
G02*
X128948500Y-59763800I-147500J0D01*
G01*
X128653500Y-59763800D01*
G75*
G02*
X128506000Y-59616300I0J147500D01*
G01*
G37*
G36*
G01*
X129476000Y-59616300D02*
X129476000Y-59271300D01*
G75*
G02*
X129623500Y-59123800I147500J0D01*
G01*
X129918500Y-59123800D01*
G75*
G02*
X130066000Y-59271300I0J-147500D01*
G01*
X130066000Y-59616300D01*
G75*
G02*
X129918500Y-59763800I-147500J0D01*
G01*
X129623500Y-59763800D01*
G75*
G02*
X129476000Y-59616300I0J147500D01*
G01*
G37*
%TD*%
%TO.C,FB4*%
G36*
G01*
X130002500Y-67670900D02*
X130002500Y-68015900D01*
G75*
G02*
X129855000Y-68163400I-147500J0D01*
G01*
X129560000Y-68163400D01*
G75*
G02*
X129412500Y-68015900I0J147500D01*
G01*
X129412500Y-67670900D01*
G75*
G02*
X129560000Y-67523400I147500J0D01*
G01*
X129855000Y-67523400D01*
G75*
G02*
X130002500Y-67670900I0J-147500D01*
G01*
G37*
G36*
G01*
X129032500Y-67670900D02*
X129032500Y-68015900D01*
G75*
G02*
X128885000Y-68163400I-147500J0D01*
G01*
X128590000Y-68163400D01*
G75*
G02*
X128442500Y-68015900I0J147500D01*
G01*
X128442500Y-67670900D01*
G75*
G02*
X128590000Y-67523400I147500J0D01*
G01*
X128885000Y-67523400D01*
G75*
G02*
X129032500Y-67670900I0J-147500D01*
G01*
G37*
%TD*%
%TO.C,FB5*%
G36*
G01*
X127780000Y-67670900D02*
X127780000Y-68015900D01*
G75*
G02*
X127632500Y-68163400I-147500J0D01*
G01*
X127337500Y-68163400D01*
G75*
G02*
X127190000Y-68015900I0J147500D01*
G01*
X127190000Y-67670900D01*
G75*
G02*
X127337500Y-67523400I147500J0D01*
G01*
X127632500Y-67523400D01*
G75*
G02*
X127780000Y-67670900I0J-147500D01*
G01*
G37*
G36*
G01*
X126810000Y-67670900D02*
X126810000Y-68015900D01*
G75*
G02*
X126662500Y-68163400I-147500J0D01*
G01*
X126367500Y-68163400D01*
G75*
G02*
X126220000Y-68015900I0J147500D01*
G01*
X126220000Y-67670900D01*
G75*
G02*
X126367500Y-67523400I147500J0D01*
G01*
X126662500Y-67523400D01*
G75*
G02*
X126810000Y-67670900I0J-147500D01*
G01*
G37*
%TD*%
%TO.C,L1*%
G36*
G01*
X127680500Y-58699800D02*
X127335500Y-58699800D01*
G75*
G02*
X127188000Y-58552300I0J147500D01*
G01*
X127188000Y-58257300D01*
G75*
G02*
X127335500Y-58109800I147500J0D01*
G01*
X127680500Y-58109800D01*
G75*
G02*
X127828000Y-58257300I0J-147500D01*
G01*
X127828000Y-58552300D01*
G75*
G02*
X127680500Y-58699800I-147500J0D01*
G01*
G37*
G36*
G01*
X127680500Y-57729800D02*
X127335500Y-57729800D01*
G75*
G02*
X127188000Y-57582300I0J147500D01*
G01*
X127188000Y-57287300D01*
G75*
G02*
X127335500Y-57139800I147500J0D01*
G01*
X127680500Y-57139800D01*
G75*
G02*
X127828000Y-57287300I0J-147500D01*
G01*
X127828000Y-57582300D01*
G75*
G02*
X127680500Y-57729800I-147500J0D01*
G01*
G37*
%TD*%
%TO.C,L2*%
G36*
G01*
X128950500Y-57729800D02*
X128605500Y-57729800D01*
G75*
G02*
X128458000Y-57582300I0J147500D01*
G01*
X128458000Y-57287300D01*
G75*
G02*
X128605500Y-57139800I147500J0D01*
G01*
X128950500Y-57139800D01*
G75*
G02*
X129098000Y-57287300I0J-147500D01*
G01*
X129098000Y-57582300D01*
G75*
G02*
X128950500Y-57729800I-147500J0D01*
G01*
G37*
G36*
G01*
X128950500Y-58699800D02*
X128605500Y-58699800D01*
G75*
G02*
X128458000Y-58552300I0J147500D01*
G01*
X128458000Y-58257300D01*
G75*
G02*
X128605500Y-58109800I147500J0D01*
G01*
X128950500Y-58109800D01*
G75*
G02*
X129098000Y-58257300I0J-147500D01*
G01*
X129098000Y-58552300D01*
G75*
G02*
X128950500Y-58699800I-147500J0D01*
G01*
G37*
%TD*%
%TO.C,L3*%
G36*
G01*
X128605500Y-69557400D02*
X128950500Y-69557400D01*
G75*
G02*
X129098000Y-69704900I0J-147500D01*
G01*
X129098000Y-69999900D01*
G75*
G02*
X128950500Y-70147400I-147500J0D01*
G01*
X128605500Y-70147400D01*
G75*
G02*
X128458000Y-69999900I0J147500D01*
G01*
X128458000Y-69704900D01*
G75*
G02*
X128605500Y-69557400I147500J0D01*
G01*
G37*
G36*
G01*
X128605500Y-68587400D02*
X128950500Y-68587400D01*
G75*
G02*
X129098000Y-68734900I0J-147500D01*
G01*
X129098000Y-69029900D01*
G75*
G02*
X128950500Y-69177400I-147500J0D01*
G01*
X128605500Y-69177400D01*
G75*
G02*
X128458000Y-69029900I0J147500D01*
G01*
X128458000Y-68734900D01*
G75*
G02*
X128605500Y-68587400I147500J0D01*
G01*
G37*
%TD*%
%TO.C,L4*%
G36*
G01*
X127272000Y-68587400D02*
X127617000Y-68587400D01*
G75*
G02*
X127764500Y-68734900I0J-147500D01*
G01*
X127764500Y-69029900D01*
G75*
G02*
X127617000Y-69177400I-147500J0D01*
G01*
X127272000Y-69177400D01*
G75*
G02*
X127124500Y-69029900I0J147500D01*
G01*
X127124500Y-68734900D01*
G75*
G02*
X127272000Y-68587400I147500J0D01*
G01*
G37*
G36*
G01*
X127272000Y-69557400D02*
X127617000Y-69557400D01*
G75*
G02*
X127764500Y-69704900I0J-147500D01*
G01*
X127764500Y-69999900D01*
G75*
G02*
X127617000Y-70147400I-147500J0D01*
G01*
X127272000Y-70147400D01*
G75*
G02*
X127124500Y-69999900I0J147500D01*
G01*
X127124500Y-69704900D01*
G75*
G02*
X127272000Y-69557400I147500J0D01*
G01*
G37*
%TD*%
D15*
%TO.C,Q1*%
X120838000Y-51197000D03*
X118938000Y-51197000D03*
X119888000Y-53197000D03*
%TD*%
%TO.C,R1*%
G36*
G01*
X112573200Y-66018800D02*
X112023200Y-66018800D01*
G75*
G02*
X111823200Y-65818800I0J200000D01*
G01*
X111823200Y-65418800D01*
G75*
G02*
X112023200Y-65218800I200000J0D01*
G01*
X112573200Y-65218800D01*
G75*
G02*
X112773200Y-65418800I0J-200000D01*
G01*
X112773200Y-65818800D01*
G75*
G02*
X112573200Y-66018800I-200000J0D01*
G01*
G37*
G36*
G01*
X112573200Y-64368800D02*
X112023200Y-64368800D01*
G75*
G02*
X111823200Y-64168800I0J200000D01*
G01*
X111823200Y-63768800D01*
G75*
G02*
X112023200Y-63568800I200000J0D01*
G01*
X112573200Y-63568800D01*
G75*
G02*
X112773200Y-63768800I0J-200000D01*
G01*
X112773200Y-64168800D01*
G75*
G02*
X112573200Y-64368800I-200000J0D01*
G01*
G37*
%TD*%
%TO.C,R2*%
G36*
G01*
X110562700Y-65218800D02*
X111112700Y-65218800D01*
G75*
G02*
X111312700Y-65418800I0J-200000D01*
G01*
X111312700Y-65818800D01*
G75*
G02*
X111112700Y-66018800I-200000J0D01*
G01*
X110562700Y-66018800D01*
G75*
G02*
X110362700Y-65818800I0J200000D01*
G01*
X110362700Y-65418800D01*
G75*
G02*
X110562700Y-65218800I200000J0D01*
G01*
G37*
G36*
G01*
X110562700Y-63568800D02*
X111112700Y-63568800D01*
G75*
G02*
X111312700Y-63768800I0J-200000D01*
G01*
X111312700Y-64168800D01*
G75*
G02*
X111112700Y-64368800I-200000J0D01*
G01*
X110562700Y-64368800D01*
G75*
G02*
X110362700Y-64168800I0J200000D01*
G01*
X110362700Y-63768800D01*
G75*
G02*
X110562700Y-63568800I200000J0D01*
G01*
G37*
%TD*%
%TO.C,R3*%
G36*
G01*
X112023200Y-68139300D02*
X112573200Y-68139300D01*
G75*
G02*
X112773200Y-68339300I0J-200000D01*
G01*
X112773200Y-68739300D01*
G75*
G02*
X112573200Y-68939300I-200000J0D01*
G01*
X112023200Y-68939300D01*
G75*
G02*
X111823200Y-68739300I0J200000D01*
G01*
X111823200Y-68339300D01*
G75*
G02*
X112023200Y-68139300I200000J0D01*
G01*
G37*
G36*
G01*
X112023200Y-66489300D02*
X112573200Y-66489300D01*
G75*
G02*
X112773200Y-66689300I0J-200000D01*
G01*
X112773200Y-67089300D01*
G75*
G02*
X112573200Y-67289300I-200000J0D01*
G01*
X112023200Y-67289300D01*
G75*
G02*
X111823200Y-67089300I0J200000D01*
G01*
X111823200Y-66689300D01*
G75*
G02*
X112023200Y-66489300I200000J0D01*
G01*
G37*
%TD*%
%TO.C,R4*%
G36*
G01*
X111112700Y-68939300D02*
X110562700Y-68939300D01*
G75*
G02*
X110362700Y-68739300I0J200000D01*
G01*
X110362700Y-68339300D01*
G75*
G02*
X110562700Y-68139300I200000J0D01*
G01*
X111112700Y-68139300D01*
G75*
G02*
X111312700Y-68339300I0J-200000D01*
G01*
X111312700Y-68739300D01*
G75*
G02*
X111112700Y-68939300I-200000J0D01*
G01*
G37*
G36*
G01*
X111112700Y-67289300D02*
X110562700Y-67289300D01*
G75*
G02*
X110362700Y-67089300I0J200000D01*
G01*
X110362700Y-66689300D01*
G75*
G02*
X110562700Y-66489300I200000J0D01*
G01*
X111112700Y-66489300D01*
G75*
G02*
X111312700Y-66689300I0J-200000D01*
G01*
X111312700Y-67089300D01*
G75*
G02*
X111112700Y-67289300I-200000J0D01*
G01*
G37*
%TD*%
%TO.C,R5*%
G36*
G01*
X115796500Y-65230000D02*
X115796500Y-65780000D01*
G75*
G02*
X115596500Y-65980000I-200000J0D01*
G01*
X115196500Y-65980000D01*
G75*
G02*
X114996500Y-65780000I0J200000D01*
G01*
X114996500Y-65230000D01*
G75*
G02*
X115196500Y-65030000I200000J0D01*
G01*
X115596500Y-65030000D01*
G75*
G02*
X115796500Y-65230000I0J-200000D01*
G01*
G37*
G36*
G01*
X114146500Y-65230000D02*
X114146500Y-65780000D01*
G75*
G02*
X113946500Y-65980000I-200000J0D01*
G01*
X113546500Y-65980000D01*
G75*
G02*
X113346500Y-65780000I0J200000D01*
G01*
X113346500Y-65230000D01*
G75*
G02*
X113546500Y-65030000I200000J0D01*
G01*
X113946500Y-65030000D01*
G75*
G02*
X114146500Y-65230000I0J-200000D01*
G01*
G37*
%TD*%
%TO.C,R6*%
G36*
G01*
X114146500Y-66690500D02*
X114146500Y-67240500D01*
G75*
G02*
X113946500Y-67440500I-200000J0D01*
G01*
X113546500Y-67440500D01*
G75*
G02*
X113346500Y-67240500I0J200000D01*
G01*
X113346500Y-66690500D01*
G75*
G02*
X113546500Y-66490500I200000J0D01*
G01*
X113946500Y-66490500D01*
G75*
G02*
X114146500Y-66690500I0J-200000D01*
G01*
G37*
G36*
G01*
X115796500Y-66690500D02*
X115796500Y-67240500D01*
G75*
G02*
X115596500Y-67440500I-200000J0D01*
G01*
X115196500Y-67440500D01*
G75*
G02*
X114996500Y-67240500I0J200000D01*
G01*
X114996500Y-66690500D01*
G75*
G02*
X115196500Y-66490500I200000J0D01*
G01*
X115596500Y-66490500D01*
G75*
G02*
X115796500Y-66690500I0J-200000D01*
G01*
G37*
%TD*%
%TO.C,R8*%
G36*
G01*
X122297500Y-69422500D02*
X122847500Y-69422500D01*
G75*
G02*
X123047500Y-69622500I0J-200000D01*
G01*
X123047500Y-70022500D01*
G75*
G02*
X122847500Y-70222500I-200000J0D01*
G01*
X122297500Y-70222500D01*
G75*
G02*
X122097500Y-70022500I0J200000D01*
G01*
X122097500Y-69622500D01*
G75*
G02*
X122297500Y-69422500I200000J0D01*
G01*
G37*
G36*
G01*
X122297500Y-67772500D02*
X122847500Y-67772500D01*
G75*
G02*
X123047500Y-67972500I0J-200000D01*
G01*
X123047500Y-68372500D01*
G75*
G02*
X122847500Y-68572500I-200000J0D01*
G01*
X122297500Y-68572500D01*
G75*
G02*
X122097500Y-68372500I0J200000D01*
G01*
X122097500Y-67972500D01*
G75*
G02*
X122297500Y-67772500I200000J0D01*
G01*
G37*
%TD*%
%TO.C,R9*%
G36*
G01*
X121010000Y-57295000D02*
X121560000Y-57295000D01*
G75*
G02*
X121760000Y-57495000I0J-200000D01*
G01*
X121760000Y-57895000D01*
G75*
G02*
X121560000Y-58095000I-200000J0D01*
G01*
X121010000Y-58095000D01*
G75*
G02*
X120810000Y-57895000I0J200000D01*
G01*
X120810000Y-57495000D01*
G75*
G02*
X121010000Y-57295000I200000J0D01*
G01*
G37*
G36*
G01*
X121010000Y-58945000D02*
X121560000Y-58945000D01*
G75*
G02*
X121760000Y-59145000I0J-200000D01*
G01*
X121760000Y-59545000D01*
G75*
G02*
X121560000Y-59745000I-200000J0D01*
G01*
X121010000Y-59745000D01*
G75*
G02*
X120810000Y-59545000I0J200000D01*
G01*
X120810000Y-59145000D01*
G75*
G02*
X121010000Y-58945000I200000J0D01*
G01*
G37*
%TD*%
%TO.C,R10*%
G36*
G01*
X119376500Y-55960500D02*
X119926500Y-55960500D01*
G75*
G02*
X120126500Y-56160500I0J-200000D01*
G01*
X120126500Y-56560500D01*
G75*
G02*
X119926500Y-56760500I-200000J0D01*
G01*
X119376500Y-56760500D01*
G75*
G02*
X119176500Y-56560500I0J200000D01*
G01*
X119176500Y-56160500D01*
G75*
G02*
X119376500Y-55960500I200000J0D01*
G01*
G37*
G36*
G01*
X119376500Y-54310500D02*
X119926500Y-54310500D01*
G75*
G02*
X120126500Y-54510500I0J-200000D01*
G01*
X120126500Y-54910500D01*
G75*
G02*
X119926500Y-55110500I-200000J0D01*
G01*
X119376500Y-55110500D01*
G75*
G02*
X119176500Y-54910500I0J200000D01*
G01*
X119176500Y-54510500D01*
G75*
G02*
X119376500Y-54310500I200000J0D01*
G01*
G37*
%TD*%
%TO.C,R11*%
G36*
G01*
X121113000Y-47985000D02*
X121113000Y-48535000D01*
G75*
G02*
X120913000Y-48735000I-200000J0D01*
G01*
X120513000Y-48735000D01*
G75*
G02*
X120313000Y-48535000I0J200000D01*
G01*
X120313000Y-47985000D01*
G75*
G02*
X120513000Y-47785000I200000J0D01*
G01*
X120913000Y-47785000D01*
G75*
G02*
X121113000Y-47985000I0J-200000D01*
G01*
G37*
G36*
G01*
X119463000Y-47985000D02*
X119463000Y-48535000D01*
G75*
G02*
X119263000Y-48735000I-200000J0D01*
G01*
X118863000Y-48735000D01*
G75*
G02*
X118663000Y-48535000I0J200000D01*
G01*
X118663000Y-47985000D01*
G75*
G02*
X118863000Y-47785000I200000J0D01*
G01*
X119263000Y-47785000D01*
G75*
G02*
X119463000Y-47985000I0J-200000D01*
G01*
G37*
%TD*%
D16*
%TO.C,RN1*%
X118180000Y-69961000D03*
D17*
X119780000Y-69961000D03*
X118980000Y-69961000D03*
D16*
X120580000Y-69961000D03*
D17*
X118980000Y-68161000D03*
D16*
X118180000Y-68161000D03*
D17*
X119780000Y-68161000D03*
D16*
X120580000Y-68161000D03*
%TD*%
D18*
%TO.C,L5*%
X128642999Y-72795402D03*
X128642999Y-75845398D03*
X127643001Y-72795402D03*
X127643001Y-75845398D03*
%TD*%
%TO.C,L6*%
X128642999Y-51441802D03*
X128642999Y-54491798D03*
X127643001Y-51441802D03*
X127643001Y-54491798D03*
%TD*%
%TO.C,R13*%
G36*
G01*
X128340500Y-78501402D02*
X128340500Y-77251398D01*
G75*
G02*
X128590498Y-77001400I249998J0D01*
G01*
X129215502Y-77001400D01*
G75*
G02*
X129465500Y-77251398I0J-249998D01*
G01*
X129465500Y-78501402D01*
G75*
G02*
X129215502Y-78751400I-249998J0D01*
G01*
X128590498Y-78751400D01*
G75*
G02*
X128340500Y-78501402I0J249998D01*
G01*
G37*
G36*
G01*
X131265500Y-78501402D02*
X131265500Y-77251398D01*
G75*
G02*
X131515498Y-77001400I249998J0D01*
G01*
X132140502Y-77001400D01*
G75*
G02*
X132390500Y-77251398I0J-249998D01*
G01*
X132390500Y-78501402D01*
G75*
G02*
X132140502Y-78751400I-249998J0D01*
G01*
X131515498Y-78751400D01*
G75*
G02*
X131265500Y-78501402I0J249998D01*
G01*
G37*
%TD*%
%TO.C,R14*%
G36*
G01*
X125020500Y-77251398D02*
X125020500Y-78501402D01*
G75*
G02*
X124770502Y-78751400I-249998J0D01*
G01*
X124145498Y-78751400D01*
G75*
G02*
X123895500Y-78501402I0J249998D01*
G01*
X123895500Y-77251398D01*
G75*
G02*
X124145498Y-77001400I249998J0D01*
G01*
X124770502Y-77001400D01*
G75*
G02*
X125020500Y-77251398I0J-249998D01*
G01*
G37*
G36*
G01*
X127945500Y-77251398D02*
X127945500Y-78501402D01*
G75*
G02*
X127695502Y-78751400I-249998J0D01*
G01*
X127070498Y-78751400D01*
G75*
G02*
X126820500Y-78501402I0J249998D01*
G01*
X126820500Y-77251398D01*
G75*
G02*
X127070498Y-77001400I249998J0D01*
G01*
X127695502Y-77001400D01*
G75*
G02*
X127945500Y-77251398I0J-249998D01*
G01*
G37*
%TD*%
%TO.C,R15*%
G36*
G01*
X127882000Y-48785798D02*
X127882000Y-50035802D01*
G75*
G02*
X127632002Y-50285800I-249998J0D01*
G01*
X127006998Y-50285800D01*
G75*
G02*
X126757000Y-50035802I0J249998D01*
G01*
X126757000Y-48785798D01*
G75*
G02*
X127006998Y-48535800I249998J0D01*
G01*
X127632002Y-48535800D01*
G75*
G02*
X127882000Y-48785798I0J-249998D01*
G01*
G37*
G36*
G01*
X124957000Y-48785798D02*
X124957000Y-50035802D01*
G75*
G02*
X124707002Y-50285800I-249998J0D01*
G01*
X124081998Y-50285800D01*
G75*
G02*
X123832000Y-50035802I0J249998D01*
G01*
X123832000Y-48785798D01*
G75*
G02*
X124081998Y-48535800I249998J0D01*
G01*
X124707002Y-48535800D01*
G75*
G02*
X124957000Y-48785798I0J-249998D01*
G01*
G37*
%TD*%
%TO.C,R16*%
G36*
G01*
X131329000Y-50035802D02*
X131329000Y-48785798D01*
G75*
G02*
X131578998Y-48535800I249998J0D01*
G01*
X132204002Y-48535800D01*
G75*
G02*
X132454000Y-48785798I0J-249998D01*
G01*
X132454000Y-50035802D01*
G75*
G02*
X132204002Y-50285800I-249998J0D01*
G01*
X131578998Y-50285800D01*
G75*
G02*
X131329000Y-50035802I0J249998D01*
G01*
G37*
G36*
G01*
X128404000Y-50035802D02*
X128404000Y-48785798D01*
G75*
G02*
X128653998Y-48535800I249998J0D01*
G01*
X129279002Y-48535800D01*
G75*
G02*
X129529000Y-48785798I0J-249998D01*
G01*
X129529000Y-50035802D01*
G75*
G02*
X129279002Y-50285800I-249998J0D01*
G01*
X128653998Y-50285800D01*
G75*
G02*
X128404000Y-50035802I0J249998D01*
G01*
G37*
%TD*%
D19*
%TO.C,J1*%
X124618400Y-37563600D03*
X131718400Y-37563600D03*
D20*
X127168400Y-43043600D03*
X129168400Y-43043600D03*
%TD*%
%TO.C,J2*%
X127168400Y-84261200D03*
X129168400Y-84261200D03*
D19*
X124618400Y-89741200D03*
X131718400Y-89741200D03*
%TD*%
%TO.C,C17*%
G36*
G01*
X125093000Y-63520500D02*
X125093000Y-63860500D01*
G75*
G02*
X124953000Y-64000500I-140000J0D01*
G01*
X124673000Y-64000500D01*
G75*
G02*
X124533000Y-63860500I0J140000D01*
G01*
X124533000Y-63520500D01*
G75*
G02*
X124673000Y-63380500I140000J0D01*
G01*
X124953000Y-63380500D01*
G75*
G02*
X125093000Y-63520500I0J-140000D01*
G01*
G37*
G36*
G01*
X124133000Y-63520500D02*
X124133000Y-63860500D01*
G75*
G02*
X123993000Y-64000500I-140000J0D01*
G01*
X123713000Y-64000500D01*
G75*
G02*
X123573000Y-63860500I0J140000D01*
G01*
X123573000Y-63520500D01*
G75*
G02*
X123713000Y-63380500I140000J0D01*
G01*
X123993000Y-63380500D01*
G75*
G02*
X124133000Y-63520500I0J-140000D01*
G01*
G37*
%TD*%
%TO.C,R17*%
G36*
G01*
X117798001Y-53050500D02*
X116897999Y-53050500D01*
G75*
G02*
X116648000Y-52800501I0J249999D01*
G01*
X116648000Y-52275499D01*
G75*
G02*
X116897999Y-52025500I249999J0D01*
G01*
X117798001Y-52025500D01*
G75*
G02*
X118048000Y-52275499I0J-249999D01*
G01*
X118048000Y-52800501D01*
G75*
G02*
X117798001Y-53050500I-249999J0D01*
G01*
G37*
G36*
G01*
X117798001Y-51225500D02*
X116897999Y-51225500D01*
G75*
G02*
X116648000Y-50975501I0J249999D01*
G01*
X116648000Y-50450499D01*
G75*
G02*
X116897999Y-50200500I249999J0D01*
G01*
X117798001Y-50200500D01*
G75*
G02*
X118048000Y-50450499I0J-249999D01*
G01*
X118048000Y-50975501D01*
G75*
G02*
X117798001Y-51225500I-249999J0D01*
G01*
G37*
%TD*%
D21*
%TO.C,D1*%
X117348000Y-45975000D03*
X117348000Y-49275000D03*
%TD*%
M02*
