%TF.GenerationSoftware,KiCad,Pcbnew,(5.1.9)-1*%
%TF.CreationDate,2021-07-06T15:26:54+07:00*%
%TF.ProjectId,A2B,4132422e-6b69-4636-9164-5f7063625858,2*%
%TF.SameCoordinates,Original*%
%TF.FileFunction,Paste,Bot*%
%TF.FilePolarity,Positive*%
%FSLAX46Y46*%
G04 Gerber Fmt 4.6, Leading zero omitted, Abs format (unit mm)*
G04 Created by KiCad (PCBNEW (5.1.9)-1) date 2021-07-06 15:26:54*
%MOMM*%
%LPD*%
G01*
G04 APERTURE LIST*
%ADD10R,1.200000X0.900000*%
%ADD11R,0.900000X0.800000*%
%ADD12R,0.900000X1.200000*%
G04 APERTURE END LIST*
%TO.C,C1*%
G36*
G01*
X113346500Y-59595500D02*
X113346500Y-59095500D01*
G75*
G02*
X113571500Y-58870500I225000J0D01*
G01*
X114021500Y-58870500D01*
G75*
G02*
X114246500Y-59095500I0J-225000D01*
G01*
X114246500Y-59595500D01*
G75*
G02*
X114021500Y-59820500I-225000J0D01*
G01*
X113571500Y-59820500D01*
G75*
G02*
X113346500Y-59595500I0J225000D01*
G01*
G37*
G36*
G01*
X114896500Y-59595500D02*
X114896500Y-59095500D01*
G75*
G02*
X115121500Y-58870500I225000J0D01*
G01*
X115571500Y-58870500D01*
G75*
G02*
X115796500Y-59095500I0J-225000D01*
G01*
X115796500Y-59595500D01*
G75*
G02*
X115571500Y-59820500I-225000J0D01*
G01*
X115121500Y-59820500D01*
G75*
G02*
X114896500Y-59595500I0J225000D01*
G01*
G37*
%TD*%
%TO.C,C3*%
G36*
G01*
X113346500Y-62516500D02*
X113346500Y-62016500D01*
G75*
G02*
X113571500Y-61791500I225000J0D01*
G01*
X114021500Y-61791500D01*
G75*
G02*
X114246500Y-62016500I0J-225000D01*
G01*
X114246500Y-62516500D01*
G75*
G02*
X114021500Y-62741500I-225000J0D01*
G01*
X113571500Y-62741500D01*
G75*
G02*
X113346500Y-62516500I0J225000D01*
G01*
G37*
G36*
G01*
X114896500Y-62516500D02*
X114896500Y-62016500D01*
G75*
G02*
X115121500Y-61791500I225000J0D01*
G01*
X115571500Y-61791500D01*
G75*
G02*
X115796500Y-62016500I0J-225000D01*
G01*
X115796500Y-62516500D01*
G75*
G02*
X115571500Y-62741500I-225000J0D01*
G01*
X115121500Y-62741500D01*
G75*
G02*
X114896500Y-62516500I0J225000D01*
G01*
G37*
%TD*%
%TO.C,C8*%
G36*
G01*
X113346500Y-61056000D02*
X113346500Y-60556000D01*
G75*
G02*
X113571500Y-60331000I225000J0D01*
G01*
X114021500Y-60331000D01*
G75*
G02*
X114246500Y-60556000I0J-225000D01*
G01*
X114246500Y-61056000D01*
G75*
G02*
X114021500Y-61281000I-225000J0D01*
G01*
X113571500Y-61281000D01*
G75*
G02*
X113346500Y-61056000I0J225000D01*
G01*
G37*
G36*
G01*
X114896500Y-61056000D02*
X114896500Y-60556000D01*
G75*
G02*
X115121500Y-60331000I225000J0D01*
G01*
X115571500Y-60331000D01*
G75*
G02*
X115796500Y-60556000I0J-225000D01*
G01*
X115796500Y-61056000D01*
G75*
G02*
X115571500Y-61281000I-225000J0D01*
G01*
X115121500Y-61281000D01*
G75*
G02*
X114896500Y-61056000I0J225000D01*
G01*
G37*
%TD*%
%TO.C,C9*%
G36*
G01*
X117026500Y-68699500D02*
X116526500Y-68699500D01*
G75*
G02*
X116301500Y-68474500I0J225000D01*
G01*
X116301500Y-68024500D01*
G75*
G02*
X116526500Y-67799500I225000J0D01*
G01*
X117026500Y-67799500D01*
G75*
G02*
X117251500Y-68024500I0J-225000D01*
G01*
X117251500Y-68474500D01*
G75*
G02*
X117026500Y-68699500I-225000J0D01*
G01*
G37*
G36*
G01*
X117026500Y-70249500D02*
X116526500Y-70249500D01*
G75*
G02*
X116301500Y-70024500I0J225000D01*
G01*
X116301500Y-69574500D01*
G75*
G02*
X116526500Y-69349500I225000J0D01*
G01*
X117026500Y-69349500D01*
G75*
G02*
X117251500Y-69574500I0J-225000D01*
G01*
X117251500Y-70024500D01*
G75*
G02*
X117026500Y-70249500I-225000J0D01*
G01*
G37*
%TD*%
%TO.C,C20*%
G36*
G01*
X126002500Y-63440500D02*
X126002500Y-63940500D01*
G75*
G02*
X125777500Y-64165500I-225000J0D01*
G01*
X125327500Y-64165500D01*
G75*
G02*
X125102500Y-63940500I0J225000D01*
G01*
X125102500Y-63440500D01*
G75*
G02*
X125327500Y-63215500I225000J0D01*
G01*
X125777500Y-63215500D01*
G75*
G02*
X126002500Y-63440500I0J-225000D01*
G01*
G37*
G36*
G01*
X124452500Y-63440500D02*
X124452500Y-63940500D01*
G75*
G02*
X124227500Y-64165500I-225000J0D01*
G01*
X123777500Y-64165500D01*
G75*
G02*
X123552500Y-63940500I0J225000D01*
G01*
X123552500Y-63440500D01*
G75*
G02*
X123777500Y-63215500I225000J0D01*
G01*
X124227500Y-63215500D01*
G75*
G02*
X124452500Y-63440500I0J-225000D01*
G01*
G37*
%TD*%
%TO.C,C21*%
G36*
G01*
X123570000Y-61972000D02*
X123570000Y-61472000D01*
G75*
G02*
X123795000Y-61247000I225000J0D01*
G01*
X124245000Y-61247000D01*
G75*
G02*
X124470000Y-61472000I0J-225000D01*
G01*
X124470000Y-61972000D01*
G75*
G02*
X124245000Y-62197000I-225000J0D01*
G01*
X123795000Y-62197000D01*
G75*
G02*
X123570000Y-61972000I0J225000D01*
G01*
G37*
G36*
G01*
X125120000Y-61972000D02*
X125120000Y-61472000D01*
G75*
G02*
X125345000Y-61247000I225000J0D01*
G01*
X125795000Y-61247000D01*
G75*
G02*
X126020000Y-61472000I0J-225000D01*
G01*
X126020000Y-61972000D01*
G75*
G02*
X125795000Y-62197000I-225000J0D01*
G01*
X125345000Y-62197000D01*
G75*
G02*
X125120000Y-61972000I0J225000D01*
G01*
G37*
%TD*%
%TO.C,C22*%
G36*
G01*
X126020000Y-65345500D02*
X126020000Y-65845500D01*
G75*
G02*
X125795000Y-66070500I-225000J0D01*
G01*
X125345000Y-66070500D01*
G75*
G02*
X125120000Y-65845500I0J225000D01*
G01*
X125120000Y-65345500D01*
G75*
G02*
X125345000Y-65120500I225000J0D01*
G01*
X125795000Y-65120500D01*
G75*
G02*
X126020000Y-65345500I0J-225000D01*
G01*
G37*
G36*
G01*
X124470000Y-65345500D02*
X124470000Y-65845500D01*
G75*
G02*
X124245000Y-66070500I-225000J0D01*
G01*
X123795000Y-66070500D01*
G75*
G02*
X123570000Y-65845500I0J225000D01*
G01*
X123570000Y-65345500D01*
G75*
G02*
X123795000Y-65120500I225000J0D01*
G01*
X124245000Y-65120500D01*
G75*
G02*
X124470000Y-65345500I0J-225000D01*
G01*
G37*
%TD*%
%TO.C,C23*%
G36*
G01*
X119401500Y-57295000D02*
X119901500Y-57295000D01*
G75*
G02*
X120126500Y-57520000I0J-225000D01*
G01*
X120126500Y-57970000D01*
G75*
G02*
X119901500Y-58195000I-225000J0D01*
G01*
X119401500Y-58195000D01*
G75*
G02*
X119176500Y-57970000I0J225000D01*
G01*
X119176500Y-57520000D01*
G75*
G02*
X119401500Y-57295000I225000J0D01*
G01*
G37*
G36*
G01*
X119401500Y-58845000D02*
X119901500Y-58845000D01*
G75*
G02*
X120126500Y-59070000I0J-225000D01*
G01*
X120126500Y-59520000D01*
G75*
G02*
X119901500Y-59745000I-225000J0D01*
G01*
X119401500Y-59745000D01*
G75*
G02*
X119176500Y-59520000I0J225000D01*
G01*
X119176500Y-59070000D01*
G75*
G02*
X119401500Y-58845000I225000J0D01*
G01*
G37*
%TD*%
%TO.C,C24*%
G36*
G01*
X122495500Y-57295000D02*
X122995500Y-57295000D01*
G75*
G02*
X123220500Y-57520000I0J-225000D01*
G01*
X123220500Y-57970000D01*
G75*
G02*
X122995500Y-58195000I-225000J0D01*
G01*
X122495500Y-58195000D01*
G75*
G02*
X122270500Y-57970000I0J225000D01*
G01*
X122270500Y-57520000D01*
G75*
G02*
X122495500Y-57295000I225000J0D01*
G01*
G37*
G36*
G01*
X122495500Y-58845000D02*
X122995500Y-58845000D01*
G75*
G02*
X123220500Y-59070000I0J-225000D01*
G01*
X123220500Y-59520000D01*
G75*
G02*
X122995500Y-59745000I-225000J0D01*
G01*
X122495500Y-59745000D01*
G75*
G02*
X122270500Y-59520000I0J225000D01*
G01*
X122270500Y-59070000D01*
G75*
G02*
X122495500Y-58845000I225000J0D01*
G01*
G37*
%TD*%
%TO.C,C26*%
G36*
G01*
X123921000Y-48949500D02*
X124421000Y-48949500D01*
G75*
G02*
X124646000Y-49174500I0J-225000D01*
G01*
X124646000Y-49624500D01*
G75*
G02*
X124421000Y-49849500I-225000J0D01*
G01*
X123921000Y-49849500D01*
G75*
G02*
X123696000Y-49624500I0J225000D01*
G01*
X123696000Y-49174500D01*
G75*
G02*
X123921000Y-48949500I225000J0D01*
G01*
G37*
G36*
G01*
X123921000Y-50499500D02*
X124421000Y-50499500D01*
G75*
G02*
X124646000Y-50724500I0J-225000D01*
G01*
X124646000Y-51174500D01*
G75*
G02*
X124421000Y-51399500I-225000J0D01*
G01*
X123921000Y-51399500D01*
G75*
G02*
X123696000Y-51174500I0J225000D01*
G01*
X123696000Y-50724500D01*
G75*
G02*
X123921000Y-50499500I225000J0D01*
G01*
G37*
%TD*%
%TO.C,C27*%
G36*
G01*
X118377500Y-56760500D02*
X117877500Y-56760500D01*
G75*
G02*
X117652500Y-56535500I0J225000D01*
G01*
X117652500Y-56085500D01*
G75*
G02*
X117877500Y-55860500I225000J0D01*
G01*
X118377500Y-55860500D01*
G75*
G02*
X118602500Y-56085500I0J-225000D01*
G01*
X118602500Y-56535500D01*
G75*
G02*
X118377500Y-56760500I-225000J0D01*
G01*
G37*
G36*
G01*
X118377500Y-55210500D02*
X117877500Y-55210500D01*
G75*
G02*
X117652500Y-54985500I0J225000D01*
G01*
X117652500Y-54535500D01*
G75*
G02*
X117877500Y-54310500I225000J0D01*
G01*
X118377500Y-54310500D01*
G75*
G02*
X118602500Y-54535500I0J-225000D01*
G01*
X118602500Y-54985500D01*
G75*
G02*
X118377500Y-55210500I-225000J0D01*
G01*
G37*
%TD*%
%TO.C,C28*%
G36*
G01*
X127893000Y-58999000D02*
X128393000Y-58999000D01*
G75*
G02*
X128618000Y-59224000I0J-225000D01*
G01*
X128618000Y-59674000D01*
G75*
G02*
X128393000Y-59899000I-225000J0D01*
G01*
X127893000Y-59899000D01*
G75*
G02*
X127668000Y-59674000I0J225000D01*
G01*
X127668000Y-59224000D01*
G75*
G02*
X127893000Y-58999000I225000J0D01*
G01*
G37*
G36*
G01*
X127893000Y-57449000D02*
X128393000Y-57449000D01*
G75*
G02*
X128618000Y-57674000I0J-225000D01*
G01*
X128618000Y-58124000D01*
G75*
G02*
X128393000Y-58349000I-225000J0D01*
G01*
X127893000Y-58349000D01*
G75*
G02*
X127668000Y-58124000I0J225000D01*
G01*
X127668000Y-57674000D01*
G75*
G02*
X127893000Y-57449000I225000J0D01*
G01*
G37*
%TD*%
%TO.C,C29*%
G36*
G01*
X128329500Y-68318500D02*
X127829500Y-68318500D01*
G75*
G02*
X127604500Y-68093500I0J225000D01*
G01*
X127604500Y-67643500D01*
G75*
G02*
X127829500Y-67418500I225000J0D01*
G01*
X128329500Y-67418500D01*
G75*
G02*
X128554500Y-67643500I0J-225000D01*
G01*
X128554500Y-68093500D01*
G75*
G02*
X128329500Y-68318500I-225000J0D01*
G01*
G37*
G36*
G01*
X128329500Y-69868500D02*
X127829500Y-69868500D01*
G75*
G02*
X127604500Y-69643500I0J225000D01*
G01*
X127604500Y-69193500D01*
G75*
G02*
X127829500Y-68968500I225000J0D01*
G01*
X128329500Y-68968500D01*
G75*
G02*
X128554500Y-69193500I0J-225000D01*
G01*
X128554500Y-69643500D01*
G75*
G02*
X128329500Y-69868500I-225000J0D01*
G01*
G37*
%TD*%
%TO.C,C45*%
G36*
G01*
X125267000Y-49737000D02*
X125267000Y-49237000D01*
G75*
G02*
X125492000Y-49012000I225000J0D01*
G01*
X125942000Y-49012000D01*
G75*
G02*
X126167000Y-49237000I0J-225000D01*
G01*
X126167000Y-49737000D01*
G75*
G02*
X125942000Y-49962000I-225000J0D01*
G01*
X125492000Y-49962000D01*
G75*
G02*
X125267000Y-49737000I0J225000D01*
G01*
G37*
G36*
G01*
X126817000Y-49737000D02*
X126817000Y-49237000D01*
G75*
G02*
X127042000Y-49012000I225000J0D01*
G01*
X127492000Y-49012000D01*
G75*
G02*
X127717000Y-49237000I0J-225000D01*
G01*
X127717000Y-49737000D01*
G75*
G02*
X127492000Y-49962000I-225000J0D01*
G01*
X127042000Y-49962000D01*
G75*
G02*
X126817000Y-49737000I0J225000D01*
G01*
G37*
%TD*%
%TO.C,C48*%
G36*
G01*
X129469000Y-49237000D02*
X129469000Y-49737000D01*
G75*
G02*
X129244000Y-49962000I-225000J0D01*
G01*
X128794000Y-49962000D01*
G75*
G02*
X128569000Y-49737000I0J225000D01*
G01*
X128569000Y-49237000D01*
G75*
G02*
X128794000Y-49012000I225000J0D01*
G01*
X129244000Y-49012000D01*
G75*
G02*
X129469000Y-49237000I0J-225000D01*
G01*
G37*
G36*
G01*
X131019000Y-49237000D02*
X131019000Y-49737000D01*
G75*
G02*
X130794000Y-49962000I-225000J0D01*
G01*
X130344000Y-49962000D01*
G75*
G02*
X130119000Y-49737000I0J225000D01*
G01*
X130119000Y-49237000D01*
G75*
G02*
X130344000Y-49012000I225000J0D01*
G01*
X130794000Y-49012000D01*
G75*
G02*
X131019000Y-49237000I0J-225000D01*
G01*
G37*
%TD*%
%TO.C,C49*%
G36*
G01*
X126918000Y-76704000D02*
X126918000Y-76204000D01*
G75*
G02*
X127143000Y-75979000I225000J0D01*
G01*
X127593000Y-75979000D01*
G75*
G02*
X127818000Y-76204000I0J-225000D01*
G01*
X127818000Y-76704000D01*
G75*
G02*
X127593000Y-76929000I-225000J0D01*
G01*
X127143000Y-76929000D01*
G75*
G02*
X126918000Y-76704000I0J225000D01*
G01*
G37*
G36*
G01*
X128468000Y-76704000D02*
X128468000Y-76204000D01*
G75*
G02*
X128693000Y-75979000I225000J0D01*
G01*
X129143000Y-75979000D01*
G75*
G02*
X129368000Y-76204000I0J-225000D01*
G01*
X129368000Y-76704000D01*
G75*
G02*
X129143000Y-76929000I-225000J0D01*
G01*
X128693000Y-76929000D01*
G75*
G02*
X128468000Y-76704000I0J225000D01*
G01*
G37*
%TD*%
%TO.C,C50*%
G36*
G01*
X129368000Y-50634000D02*
X129368000Y-51134000D01*
G75*
G02*
X129143000Y-51359000I-225000J0D01*
G01*
X128693000Y-51359000D01*
G75*
G02*
X128468000Y-51134000I0J225000D01*
G01*
X128468000Y-50634000D01*
G75*
G02*
X128693000Y-50409000I225000J0D01*
G01*
X129143000Y-50409000D01*
G75*
G02*
X129368000Y-50634000I0J-225000D01*
G01*
G37*
G36*
G01*
X127818000Y-50634000D02*
X127818000Y-51134000D01*
G75*
G02*
X127593000Y-51359000I-225000J0D01*
G01*
X127143000Y-51359000D01*
G75*
G02*
X126918000Y-51134000I0J225000D01*
G01*
X126918000Y-50634000D01*
G75*
G02*
X127143000Y-50409000I225000J0D01*
G01*
X127593000Y-50409000D01*
G75*
G02*
X127818000Y-50634000I0J-225000D01*
G01*
G37*
%TD*%
D10*
%TO.C,D2*%
X122202500Y-50999000D03*
X122202500Y-47699000D03*
%TD*%
%TO.C,FB1*%
G36*
G01*
X114953000Y-68960500D02*
X115298000Y-68960500D01*
G75*
G02*
X115445500Y-69108000I0J-147500D01*
G01*
X115445500Y-69403000D01*
G75*
G02*
X115298000Y-69550500I-147500J0D01*
G01*
X114953000Y-69550500D01*
G75*
G02*
X114805500Y-69403000I0J147500D01*
G01*
X114805500Y-69108000D01*
G75*
G02*
X114953000Y-68960500I147500J0D01*
G01*
G37*
G36*
G01*
X114953000Y-67990500D02*
X115298000Y-67990500D01*
G75*
G02*
X115445500Y-68138000I0J-147500D01*
G01*
X115445500Y-68433000D01*
G75*
G02*
X115298000Y-68580500I-147500J0D01*
G01*
X114953000Y-68580500D01*
G75*
G02*
X114805500Y-68433000I0J147500D01*
G01*
X114805500Y-68138000D01*
G75*
G02*
X114953000Y-67990500I147500J0D01*
G01*
G37*
%TD*%
%TO.C,L7*%
G36*
G01*
X129413250Y-79639000D02*
X128650750Y-79639000D01*
G75*
G02*
X128432000Y-79420250I0J218750D01*
G01*
X128432000Y-78982750D01*
G75*
G02*
X128650750Y-78764000I218750J0D01*
G01*
X129413250Y-78764000D01*
G75*
G02*
X129632000Y-78982750I0J-218750D01*
G01*
X129632000Y-79420250D01*
G75*
G02*
X129413250Y-79639000I-218750J0D01*
G01*
G37*
G36*
G01*
X129413250Y-81764000D02*
X128650750Y-81764000D01*
G75*
G02*
X128432000Y-81545250I0J218750D01*
G01*
X128432000Y-81107750D01*
G75*
G02*
X128650750Y-80889000I218750J0D01*
G01*
X129413250Y-80889000D01*
G75*
G02*
X129632000Y-81107750I0J-218750D01*
G01*
X129632000Y-81545250D01*
G75*
G02*
X129413250Y-81764000I-218750J0D01*
G01*
G37*
%TD*%
%TO.C,L8*%
G36*
G01*
X126872750Y-78764000D02*
X127635250Y-78764000D01*
G75*
G02*
X127854000Y-78982750I0J-218750D01*
G01*
X127854000Y-79420250D01*
G75*
G02*
X127635250Y-79639000I-218750J0D01*
G01*
X126872750Y-79639000D01*
G75*
G02*
X126654000Y-79420250I0J218750D01*
G01*
X126654000Y-78982750D01*
G75*
G02*
X126872750Y-78764000I218750J0D01*
G01*
G37*
G36*
G01*
X126872750Y-80889000D02*
X127635250Y-80889000D01*
G75*
G02*
X127854000Y-81107750I0J-218750D01*
G01*
X127854000Y-81545250D01*
G75*
G02*
X127635250Y-81764000I-218750J0D01*
G01*
X126872750Y-81764000D01*
G75*
G02*
X126654000Y-81545250I0J218750D01*
G01*
X126654000Y-81107750D01*
G75*
G02*
X126872750Y-80889000I218750J0D01*
G01*
G37*
%TD*%
%TO.C,L9*%
G36*
G01*
X126872750Y-45574000D02*
X127635250Y-45574000D01*
G75*
G02*
X127854000Y-45792750I0J-218750D01*
G01*
X127854000Y-46230250D01*
G75*
G02*
X127635250Y-46449000I-218750J0D01*
G01*
X126872750Y-46449000D01*
G75*
G02*
X126654000Y-46230250I0J218750D01*
G01*
X126654000Y-45792750D01*
G75*
G02*
X126872750Y-45574000I218750J0D01*
G01*
G37*
G36*
G01*
X126872750Y-47699000D02*
X127635250Y-47699000D01*
G75*
G02*
X127854000Y-47917750I0J-218750D01*
G01*
X127854000Y-48355250D01*
G75*
G02*
X127635250Y-48574000I-218750J0D01*
G01*
X126872750Y-48574000D01*
G75*
G02*
X126654000Y-48355250I0J218750D01*
G01*
X126654000Y-47917750D01*
G75*
G02*
X126872750Y-47699000I218750J0D01*
G01*
G37*
%TD*%
%TO.C,L10*%
G36*
G01*
X129413250Y-46449000D02*
X128650750Y-46449000D01*
G75*
G02*
X128432000Y-46230250I0J218750D01*
G01*
X128432000Y-45792750D01*
G75*
G02*
X128650750Y-45574000I218750J0D01*
G01*
X129413250Y-45574000D01*
G75*
G02*
X129632000Y-45792750I0J-218750D01*
G01*
X129632000Y-46230250D01*
G75*
G02*
X129413250Y-46449000I-218750J0D01*
G01*
G37*
G36*
G01*
X129413250Y-48574000D02*
X128650750Y-48574000D01*
G75*
G02*
X128432000Y-48355250I0J218750D01*
G01*
X128432000Y-47917750D01*
G75*
G02*
X128650750Y-47699000I218750J0D01*
G01*
X129413250Y-47699000D01*
G75*
G02*
X129632000Y-47917750I0J-218750D01*
G01*
X129632000Y-48355250D01*
G75*
G02*
X129413250Y-48574000I-218750J0D01*
G01*
G37*
%TD*%
%TO.C,R7*%
G36*
G01*
X117069000Y-59745000D02*
X116519000Y-59745000D01*
G75*
G02*
X116319000Y-59545000I0J200000D01*
G01*
X116319000Y-59145000D01*
G75*
G02*
X116519000Y-58945000I200000J0D01*
G01*
X117069000Y-58945000D01*
G75*
G02*
X117269000Y-59145000I0J-200000D01*
G01*
X117269000Y-59545000D01*
G75*
G02*
X117069000Y-59745000I-200000J0D01*
G01*
G37*
G36*
G01*
X117069000Y-58095000D02*
X116519000Y-58095000D01*
G75*
G02*
X116319000Y-57895000I0J200000D01*
G01*
X116319000Y-57495000D01*
G75*
G02*
X116519000Y-57295000I200000J0D01*
G01*
X117069000Y-57295000D01*
G75*
G02*
X117269000Y-57495000I0J-200000D01*
G01*
X117269000Y-57895000D01*
G75*
G02*
X117069000Y-58095000I-200000J0D01*
G01*
G37*
%TD*%
%TO.C,R12*%
G36*
G01*
X121723998Y-52042000D02*
X122624002Y-52042000D01*
G75*
G02*
X122874000Y-52291998I0J-249998D01*
G01*
X122874000Y-52817002D01*
G75*
G02*
X122624002Y-53067000I-249998J0D01*
G01*
X121723998Y-53067000D01*
G75*
G02*
X121474000Y-52817002I0J249998D01*
G01*
X121474000Y-52291998D01*
G75*
G02*
X121723998Y-52042000I249998J0D01*
G01*
G37*
G36*
G01*
X121723998Y-53867000D02*
X122624002Y-53867000D01*
G75*
G02*
X122874000Y-54116998I0J-249998D01*
G01*
X122874000Y-54642002D01*
G75*
G02*
X122624002Y-54892000I-249998J0D01*
G01*
X121723998Y-54892000D01*
G75*
G02*
X121474000Y-54642002I0J249998D01*
G01*
X121474000Y-54116998D01*
G75*
G02*
X121723998Y-53867000I249998J0D01*
G01*
G37*
%TD*%
%TO.C,C2*%
G36*
G01*
X122319500Y-74616500D02*
X122319500Y-75116500D01*
G75*
G02*
X122094500Y-75341500I-225000J0D01*
G01*
X121644500Y-75341500D01*
G75*
G02*
X121419500Y-75116500I0J225000D01*
G01*
X121419500Y-74616500D01*
G75*
G02*
X121644500Y-74391500I225000J0D01*
G01*
X122094500Y-74391500D01*
G75*
G02*
X122319500Y-74616500I0J-225000D01*
G01*
G37*
G36*
G01*
X120769500Y-74616500D02*
X120769500Y-75116500D01*
G75*
G02*
X120544500Y-75341500I-225000J0D01*
G01*
X120094500Y-75341500D01*
G75*
G02*
X119869500Y-75116500I0J225000D01*
G01*
X119869500Y-74616500D01*
G75*
G02*
X120094500Y-74391500I225000J0D01*
G01*
X120544500Y-74391500D01*
G75*
G02*
X120769500Y-74616500I0J-225000D01*
G01*
G37*
%TD*%
%TO.C,C4*%
G36*
G01*
X129469000Y-77601000D02*
X129469000Y-78101000D01*
G75*
G02*
X129244000Y-78326000I-225000J0D01*
G01*
X128794000Y-78326000D01*
G75*
G02*
X128569000Y-78101000I0J225000D01*
G01*
X128569000Y-77601000D01*
G75*
G02*
X128794000Y-77376000I225000J0D01*
G01*
X129244000Y-77376000D01*
G75*
G02*
X129469000Y-77601000I0J-225000D01*
G01*
G37*
G36*
G01*
X131019000Y-77601000D02*
X131019000Y-78101000D01*
G75*
G02*
X130794000Y-78326000I-225000J0D01*
G01*
X130344000Y-78326000D01*
G75*
G02*
X130119000Y-78101000I0J225000D01*
G01*
X130119000Y-77601000D01*
G75*
G02*
X130344000Y-77376000I225000J0D01*
G01*
X130794000Y-77376000D01*
G75*
G02*
X131019000Y-77601000I0J-225000D01*
G01*
G37*
%TD*%
%TO.C,C5*%
G36*
G01*
X125267000Y-78101000D02*
X125267000Y-77601000D01*
G75*
G02*
X125492000Y-77376000I225000J0D01*
G01*
X125942000Y-77376000D01*
G75*
G02*
X126167000Y-77601000I0J-225000D01*
G01*
X126167000Y-78101000D01*
G75*
G02*
X125942000Y-78326000I-225000J0D01*
G01*
X125492000Y-78326000D01*
G75*
G02*
X125267000Y-78101000I0J225000D01*
G01*
G37*
G36*
G01*
X126817000Y-78101000D02*
X126817000Y-77601000D01*
G75*
G02*
X127042000Y-77376000I225000J0D01*
G01*
X127492000Y-77376000D01*
G75*
G02*
X127717000Y-77601000I0J-225000D01*
G01*
X127717000Y-78101000D01*
G75*
G02*
X127492000Y-78326000I-225000J0D01*
G01*
X127042000Y-78326000D01*
G75*
G02*
X126817000Y-78101000I0J225000D01*
G01*
G37*
%TD*%
%TO.C,C6*%
G36*
G01*
X129042500Y-71277500D02*
X129042500Y-70327500D01*
G75*
G02*
X129292500Y-70077500I250000J0D01*
G01*
X129792500Y-70077500D01*
G75*
G02*
X130042500Y-70327500I0J-250000D01*
G01*
X130042500Y-71277500D01*
G75*
G02*
X129792500Y-71527500I-250000J0D01*
G01*
X129292500Y-71527500D01*
G75*
G02*
X129042500Y-71277500I0J250000D01*
G01*
G37*
G36*
G01*
X130942500Y-71277500D02*
X130942500Y-70327500D01*
G75*
G02*
X131192500Y-70077500I250000J0D01*
G01*
X131692500Y-70077500D01*
G75*
G02*
X131942500Y-70327500I0J-250000D01*
G01*
X131942500Y-71277500D01*
G75*
G02*
X131692500Y-71527500I-250000J0D01*
G01*
X131192500Y-71527500D01*
G75*
G02*
X130942500Y-71277500I0J250000D01*
G01*
G37*
%TD*%
D11*
%TO.C,Q2*%
X121904000Y-76329500D03*
X121904000Y-78229500D03*
X119904000Y-77279500D03*
%TD*%
%TO.C,R18*%
G36*
G01*
X123042000Y-77704500D02*
X123592000Y-77704500D01*
G75*
G02*
X123792000Y-77904500I0J-200000D01*
G01*
X123792000Y-78304500D01*
G75*
G02*
X123592000Y-78504500I-200000J0D01*
G01*
X123042000Y-78504500D01*
G75*
G02*
X122842000Y-78304500I0J200000D01*
G01*
X122842000Y-77904500D01*
G75*
G02*
X123042000Y-77704500I200000J0D01*
G01*
G37*
G36*
G01*
X123042000Y-76054500D02*
X123592000Y-76054500D01*
G75*
G02*
X123792000Y-76254500I0J-200000D01*
G01*
X123792000Y-76654500D01*
G75*
G02*
X123592000Y-76854500I-200000J0D01*
G01*
X123042000Y-76854500D01*
G75*
G02*
X122842000Y-76654500I0J200000D01*
G01*
X122842000Y-76254500D01*
G75*
G02*
X123042000Y-76054500I200000J0D01*
G01*
G37*
%TD*%
%TO.C,R19*%
G36*
G01*
X127653500Y-70718000D02*
X127653500Y-71268000D01*
G75*
G02*
X127453500Y-71468000I-200000J0D01*
G01*
X127053500Y-71468000D01*
G75*
G02*
X126853500Y-71268000I0J200000D01*
G01*
X126853500Y-70718000D01*
G75*
G02*
X127053500Y-70518000I200000J0D01*
G01*
X127453500Y-70518000D01*
G75*
G02*
X127653500Y-70718000I0J-200000D01*
G01*
G37*
G36*
G01*
X126003500Y-70718000D02*
X126003500Y-71268000D01*
G75*
G02*
X125803500Y-71468000I-200000J0D01*
G01*
X125403500Y-71468000D01*
G75*
G02*
X125203500Y-71268000I0J200000D01*
G01*
X125203500Y-70718000D01*
G75*
G02*
X125403500Y-70518000I200000J0D01*
G01*
X125803500Y-70518000D01*
G75*
G02*
X126003500Y-70718000I0J-200000D01*
G01*
G37*
%TD*%
%TO.C,R20*%
G36*
G01*
X130257500Y-75253002D02*
X130257500Y-74352998D01*
G75*
G02*
X130507498Y-74103000I249998J0D01*
G01*
X131032502Y-74103000D01*
G75*
G02*
X131282500Y-74352998I0J-249998D01*
G01*
X131282500Y-75253002D01*
G75*
G02*
X131032502Y-75503000I-249998J0D01*
G01*
X130507498Y-75503000D01*
G75*
G02*
X130257500Y-75253002I0J249998D01*
G01*
G37*
G36*
G01*
X128432500Y-75253002D02*
X128432500Y-74352998D01*
G75*
G02*
X128682498Y-74103000I249998J0D01*
G01*
X129207502Y-74103000D01*
G75*
G02*
X129457500Y-74352998I0J-249998D01*
G01*
X129457500Y-75253002D01*
G75*
G02*
X129207502Y-75503000I-249998J0D01*
G01*
X128682498Y-75503000D01*
G75*
G02*
X128432500Y-75253002I0J249998D01*
G01*
G37*
%TD*%
%TO.C,R21*%
G36*
G01*
X125003500Y-75253002D02*
X125003500Y-74352998D01*
G75*
G02*
X125253498Y-74103000I249998J0D01*
G01*
X125778502Y-74103000D01*
G75*
G02*
X126028500Y-74352998I0J-249998D01*
G01*
X126028500Y-75253002D01*
G75*
G02*
X125778502Y-75503000I-249998J0D01*
G01*
X125253498Y-75503000D01*
G75*
G02*
X125003500Y-75253002I0J249998D01*
G01*
G37*
G36*
G01*
X126828500Y-75253002D02*
X126828500Y-74352998D01*
G75*
G02*
X127078498Y-74103000I249998J0D01*
G01*
X127603502Y-74103000D01*
G75*
G02*
X127853500Y-74352998I0J-249998D01*
G01*
X127853500Y-75253002D01*
G75*
G02*
X127603502Y-75503000I-249998J0D01*
G01*
X127078498Y-75503000D01*
G75*
G02*
X126828500Y-75253002I0J249998D01*
G01*
G37*
%TD*%
%TO.C,R22*%
G36*
G01*
X129267500Y-69426500D02*
X129267500Y-68876500D01*
G75*
G02*
X129467500Y-68676500I200000J0D01*
G01*
X129867500Y-68676500D01*
G75*
G02*
X130067500Y-68876500I0J-200000D01*
G01*
X130067500Y-69426500D01*
G75*
G02*
X129867500Y-69626500I-200000J0D01*
G01*
X129467500Y-69626500D01*
G75*
G02*
X129267500Y-69426500I0J200000D01*
G01*
G37*
G36*
G01*
X130917500Y-69426500D02*
X130917500Y-68876500D01*
G75*
G02*
X131117500Y-68676500I200000J0D01*
G01*
X131517500Y-68676500D01*
G75*
G02*
X131717500Y-68876500I0J-200000D01*
G01*
X131717500Y-69426500D01*
G75*
G02*
X131517500Y-69626500I-200000J0D01*
G01*
X131117500Y-69626500D01*
G75*
G02*
X130917500Y-69426500I0J200000D01*
G01*
G37*
%TD*%
D10*
%TO.C,D4*%
X121539000Y-73405000D03*
X121539000Y-70105000D03*
%TD*%
D12*
%TO.C,D5*%
X127316500Y-72771000D03*
X124016500Y-72771000D03*
%TD*%
%TO.C,D6*%
X132142500Y-72771000D03*
X128842500Y-72771000D03*
%TD*%
M02*
