M48
; DRILL file {KiCad (5.1.9)-1} date 06/18/21 12:26:32
; FORMAT={-:-/ absolute / inch / decimal}
; #@! TF.CreationDate,2021-06-18T12:26:32+07:00
; #@! TF.GenerationSoftware,Kicad,Pcbnew,(5.1.9)-1
; #@! TF.FileFunction,Plated,1,2,PTH
FMAT,2
INCH
T1C0.0118
T2C0.0157
T3C0.0315
T4C0.0394
T5C0.0512
%
G90
G05
T1
X1.8033Y-1.7805
X1.8033Y-1.938
X1.8033Y-2.0954
X1.8033Y-2.2529
X1.8033Y-2.4104
X1.8033Y-2.5679
X1.8033Y-2.7254
X1.8033Y-3.1978
X1.8033Y-3.3553
X1.8033Y-3.5128
X1.8033Y-3.6702
X1.8033Y-3.8277
X1.8033Y-3.9852
X1.8033Y-4.1427
X1.8033Y-4.3002
X1.8033Y-4.4576
X1.8033Y-4.8356
X1.8033Y-4.9931
X1.8075Y-2.8775
X1.81Y-3.015
X1.8475Y-4.3325
X1.865Y-4.7225
X1.865Y-4.9825
X1.865Y-5.0175
X1.865Y-5.0525
X1.865Y-5.0875
X1.865Y-5.1225
X1.885Y-4.2925
X1.885Y-4.4275
X1.8977Y-1.8435
X1.8977Y-2.0009
X1.8977Y-2.1584
X1.8977Y-2.3159
X1.8977Y-2.4734
X1.8977Y-2.6309
X1.8977Y-3.2608
X1.8977Y-3.4183
X1.8977Y-3.9222
X1.8977Y-4.0797
X1.8977Y-4.2372
X1.9Y-5.1475
X1.905Y-4.7225
X1.925Y-3.6875
X1.9275Y-3.7475
X1.9292Y-4.9616
X1.9425Y-5.1475
X1.945Y-4.7225
X1.9607Y-3.5128
X1.9725Y-3.65
X1.9725Y-3.9075
X1.9725Y-3.965
X1.9725Y-4.0225
X1.975Y-4.9825
X1.975Y-5.0175
X1.975Y-5.0525
X1.975Y-5.0875
X1.975Y-5.1225
X1.98Y-4.6825
X1.99Y-2.8775
X1.99Y-3.015
X1.9922Y-1.7805
X1.9922Y-2.0639
X1.9922Y-2.2214
X1.9922Y-2.4104
X1.9922Y-2.5679
X1.9922Y-2.7569
X1.9922Y-3.1978
X1.9922Y-4.1427
X1.9922Y-4.3002
X1.9922Y-4.7411
X2.0075Y-4.445
X2.015Y-4.6825
X2.0237Y-3.3238
X2.0237Y-5.0246
X2.045Y-2.8775
X2.045Y-3.015
X2.045Y-4.3475
X2.045Y-4.445
X2.05Y-4.6825
X2.0552Y-3.4498
X2.0825Y-4.445
X2.085Y-5.045
X2.085Y-5.075
X2.085Y-5.105
X2.085Y-5.135
X2.0867Y-1.8435
X2.0867Y-2.4734
X2.0867Y-4.0797
X2.0867Y-4.2372
X2.0925Y-4.7225
X2.105Y-3.87
X2.11Y-3.73
X2.115Y-3.4825
X2.115Y-3.6725
X2.1182Y-2.2844
X2.1182Y-3.2293
X2.12Y-3.83
X2.135Y-4.6825
X2.1497Y-2.6309
X2.15Y-3.9075
X2.1575Y-3.6725
X2.165Y-3.4825
X2.1812Y-1.7805
X2.1812Y-4.1427
X2.1812Y-4.6151
X2.1875Y-4.095
X2.2127Y-2.5364
X2.2127Y-2.7569
X2.2127Y-4.2687
X2.22Y-5.045
X2.22Y-5.075
X2.22Y-5.105
X2.22Y-5.135
X2.2225Y-2.8775
X2.2225Y-3.015
X2.2225Y-3.96
X2.23Y-3.9975
X2.2442Y-2.2529
X2.2442Y-2.4104
X2.2442Y-3.0718
X2.2442Y-3.2608
X2.2442Y-4.7096
X2.2757Y-4.3631
X2.2775Y-2.8775
X2.2775Y-3.015
X2.28Y-3.985
X2.305Y-3.965
X2.3072Y-2.6939
X2.3072Y-4.4891
X2.33Y-4.605
X2.33Y-4.6325
X2.33Y-4.66
X2.3375Y-4.7
X2.3387Y-4.1112
X2.3702Y-2.2844
X2.3702Y-2.4419
X2.3702Y-2.5994
X2.3702Y-3.1978
X2.3702Y-4.3002
X2.385Y-3.94
X2.4017Y-3.6702
X2.4017Y-4.8671
X2.425Y-3.94
X2.43Y-3.5225
X2.43Y-3.715
X2.43Y-3.745
X2.43Y-3.84
X2.43Y-3.87
X2.4332Y-3.7962
X2.4332Y-4.1742
X2.4332Y-4.9931
X2.4575Y-2.8775
X2.4575Y-3.015
X2.4647Y-2.6624
X2.4647Y-2.8198
X2.4647Y-3.0718
X2.4647Y-3.2608
X2.465Y-3.94
X2.4775Y-4.7
X2.4962Y-2.2529
X2.4962Y-2.4734
X2.4962Y-3.4813
X2.4962Y-4.2687
X2.4962Y-4.4261
X2.4962Y-4.5836
X2.4962Y-4.7726
X2.505Y-3.94
X2.5125Y-2.8775
X2.5125Y-3.015
X2.5277Y-1.7805
X2.5277Y-1.938
X2.5277Y-2.0954
X2.5277Y-3.6072
X2.5277Y-4.1112
X2.5277Y-4.8986
X2.545Y-3.94
X2.5592Y-3.7332
X2.5725Y-4.59
X2.585Y-3.94
X2.5907Y-3.1978
X2.5907Y-4.2057
X2.615Y-4.475
X2.6222Y-1.8435
X2.6222Y-2.0009
X2.6222Y-2.4104
X2.6222Y-2.5679
X2.6222Y-3.5128
X2.6222Y-3.8277
X2.625Y-3.94
X2.6525Y-4.475
X2.6537Y-2.6939
X2.6537Y-3.6387
X2.6537Y-4.4261
X2.6537Y-4.7411
X2.675Y-4.265
X2.6852Y-2.8198
X2.6852Y-3.2608
X2.69Y-2.8775
X2.6925Y-3.015
X2.7075Y-3.45
X2.7075Y-3.7332
X2.7125Y-4.555
X2.715Y-4.3075
X2.715Y-4.365
X2.7166Y-1.7805
X2.7166Y-2.0639
X2.7166Y-2.4734
X2.7166Y-4.8356
X2.7175Y-4.59
X2.7275Y-4.635
X2.7275Y-4.675
X2.73Y-2.9175
X2.73Y-2.975
X2.7481Y-2.5994
X2.7481Y-3.9537
X2.7481Y-4.2372
X2.755Y-4.545
X2.7796Y-2.7254
X2.7796Y-2.8828
X2.7796Y-3.0403
X2.7796Y-3.1978
X2.7796Y-3.3553
X2.7796Y-3.5443
X2.7796Y-4.0797
X2.7796Y-4.3631
X2.7796Y-4.6151
X2.795Y-4.505
X2.8111Y-1.8435
X2.8111Y-2.1269
X2.8111Y-2.3159
X2.8111Y-3.6702
X2.8111Y-4.7411
X2.8426Y-2.4419
X2.8741Y-1.938
X2.8741Y-2.5679
X2.8741Y-2.7883
X2.8741Y-3.1348
X2.8741Y-3.2923
X2.8741Y-3.4498
X2.8741Y-4.8356
X2.9056Y-1.7805
X2.9056Y-2.0639
X2.9056Y-2.2214
X2.9056Y-3.5757
X2.9056Y-3.7332
X2.9056Y-4.5836
X2.9371Y-2.6624
X2.9371Y-2.8828
X2.9371Y-4.7096
X2.9371Y-4.9301
X2.9371Y-5.0876
X2.9686Y-1.875
X2.9686Y-3.1978
X2.9686Y-3.3553
X3.0001Y-2.0009
X3.0001Y-2.1584
X3.0001Y-2.7569
X3.0001Y-3.4813
X3.0001Y-3.6387
X3.0001Y-4.8041
T2
X1.855Y-3.8325
X1.9275Y-2.7575
X1.955Y-3.5825
X2.045Y-3.7425
X2.115Y-3.62
X2.1475Y-3.995
X2.1625Y-2.7575
X2.39Y-5.0525
X2.39Y-5.09
X2.39Y-5.1275
X2.395Y-2.7575
X2.43Y-3.5825
X2.5525Y-4.3025
X2.58Y-4.3025
X2.63Y-2.7575
T3
X1.8588Y-3.1275
X1.8613Y-3.355
X1.9375Y-3.1275
X1.94Y-3.355
X2.0863Y-3.1275
X2.0888Y-3.355
X2.165Y-3.1275
X2.1675Y-3.355
X2.3163Y-3.1275
X2.3163Y-3.355
X2.395Y-3.1275
X2.395Y-3.355
X2.5488Y-3.1275
X2.5488Y-3.355
X2.6275Y-3.1275
X2.6275Y-3.355
T4
X2.265Y-1.815
X2.265Y-1.915
X2.265Y-2.015
X2.265Y-2.115
X2.365Y-1.815
X2.365Y-1.915
X2.365Y-2.015
X2.365Y-2.115
X2.465Y-1.815
X2.465Y-1.915
X2.465Y-2.015
X2.465Y-2.115
X2.875Y-2.96
X2.875Y-3.06
X2.875Y-3.81
X2.875Y-3.91
X2.875Y-4.01
X2.875Y-4.11
X2.875Y-4.21
X2.875Y-4.31
X2.875Y-4.41
X2.875Y-4.51
X2.975Y-2.96
X2.975Y-3.06
X2.975Y-3.81
X2.975Y-3.91
X2.975Y-4.01
X2.975Y-4.11
X2.975Y-4.21
X2.975Y-4.31
X2.975Y-4.41
X2.975Y-4.51
T5
X2.62Y-4.9525
X2.82Y-4.9525
T4
G00X2.0247Y-1.895
M15
G01X1.9853Y-1.895
M16
G05
G00X2.0247Y-2.1352
M15
G01X1.9853Y-2.1352
M16
G05
G00X2.0247Y-2.3517
M15
G01X1.9853Y-2.3517
M16
G05
G00X2.1034Y-1.9895
M15
G01X2.0641Y-1.9895
M16
G05
G00X2.1034Y-2.206
M15
G01X2.0641Y-2.206
M16
G05
G00X2.7247Y-1.895
M15
G01X2.6853Y-1.895
M16
G05
G00X2.7247Y-2.1352
M15
G01X2.6853Y-2.1352
M16
G05
G00X2.7247Y-2.3517
M15
G01X2.6853Y-2.3517
M16
G05
G00X2.8034Y-1.9895
M15
G01X2.7641Y-1.9895
M16
G05
G00X2.8034Y-2.206
M15
G01X2.7641Y-2.206
M16
G05
T0
M30
