%TF.GenerationSoftware,KiCad,Pcbnew,(5.1.9)-1*%
%TF.CreationDate,2021-06-18T12:26:37+07:00*%
%TF.ProjectId,adau1978,61646175-3139-4373-982e-6b696361645f,rev?*%
%TF.SameCoordinates,Original*%
%TF.FileFunction,Legend,Bot*%
%TF.FilePolarity,Positive*%
%FSLAX46Y46*%
G04 Gerber Fmt 4.6, Leading zero omitted, Abs format (unit mm)*
G04 Created by KiCad (PCBNEW (5.1.9)-1) date 2021-06-18 12:26:37*
%MOMM*%
%LPD*%
G01*
G04 APERTURE LIST*
%ADD10C,0.300000*%
%ADD11C,0.200000*%
%ADD12C,0.010000*%
G04 APERTURE END LIST*
D10*
X52316142Y-92346214D02*
X54316142Y-92346214D01*
X51173285Y-91870023D02*
X53316142Y-91393833D01*
X53316142Y-92631928D01*
X53459000Y-94822404D02*
X53459000Y-95774785D01*
X54316142Y-94631928D02*
X51316142Y-95298595D01*
X54316142Y-95965261D01*
X52316142Y-96631928D02*
X54316142Y-96631928D01*
X52601857Y-96631928D02*
X52459000Y-96727166D01*
X52316142Y-96917642D01*
X52316142Y-97203357D01*
X52459000Y-97393833D01*
X52744714Y-97489071D01*
X54316142Y-97489071D01*
X54316142Y-99298595D02*
X52744714Y-99298595D01*
X52459000Y-99203357D01*
X52316142Y-99012880D01*
X52316142Y-98631928D01*
X52459000Y-98441452D01*
X54173285Y-99298595D02*
X54316142Y-99108119D01*
X54316142Y-98631928D01*
X54173285Y-98441452D01*
X53887571Y-98346214D01*
X53601857Y-98346214D01*
X53316142Y-98441452D01*
X53173285Y-98631928D01*
X53173285Y-99108119D01*
X53030428Y-99298595D01*
X54316142Y-100536690D02*
X54173285Y-100346214D01*
X53887571Y-100250976D01*
X51316142Y-100250976D01*
X54316142Y-101584309D02*
X54173285Y-101393833D01*
X54030428Y-101298595D01*
X53744714Y-101203357D01*
X52887571Y-101203357D01*
X52601857Y-101298595D01*
X52459000Y-101393833D01*
X52316142Y-101584309D01*
X52316142Y-101870023D01*
X52459000Y-102060500D01*
X52601857Y-102155738D01*
X52887571Y-102250976D01*
X53744714Y-102250976D01*
X54030428Y-102155738D01*
X54173285Y-102060500D01*
X54316142Y-101870023D01*
X54316142Y-101584309D01*
X52316142Y-103965261D02*
X54744714Y-103965261D01*
X55030428Y-103870023D01*
X55173285Y-103774785D01*
X55316142Y-103584309D01*
X55316142Y-103298595D01*
X55173285Y-103108119D01*
X54173285Y-103965261D02*
X54316142Y-103774785D01*
X54316142Y-103393833D01*
X54173285Y-103203357D01*
X54030428Y-103108119D01*
X53744714Y-103012880D01*
X52887571Y-103012880D01*
X52601857Y-103108119D01*
X52459000Y-103203357D01*
X52316142Y-103393833D01*
X52316142Y-103774785D01*
X52459000Y-103965261D01*
X54316142Y-106441452D02*
X51316142Y-106441452D01*
X52316142Y-107393833D02*
X54316142Y-107393833D01*
X52601857Y-107393833D02*
X52459000Y-107489071D01*
X52316142Y-107679547D01*
X52316142Y-107965261D01*
X52459000Y-108155738D01*
X52744714Y-108250976D01*
X54316142Y-108250976D01*
X52316142Y-109203357D02*
X55316142Y-109203357D01*
X52459000Y-109203357D02*
X52316142Y-109393833D01*
X52316142Y-109774785D01*
X52459000Y-109965261D01*
X52601857Y-110060500D01*
X52887571Y-110155738D01*
X53744714Y-110155738D01*
X54030428Y-110060500D01*
X54173285Y-109965261D01*
X54316142Y-109774785D01*
X54316142Y-109393833D01*
X54173285Y-109203357D01*
X52316142Y-111870023D02*
X54316142Y-111870023D01*
X52316142Y-111012880D02*
X53887571Y-111012880D01*
X54173285Y-111108119D01*
X54316142Y-111298595D01*
X54316142Y-111584309D01*
X54173285Y-111774785D01*
X54030428Y-111870023D01*
X52316142Y-112536690D02*
X52316142Y-113298595D01*
X51316142Y-112822404D02*
X53887571Y-112822404D01*
X54173285Y-112917642D01*
X54316142Y-113108119D01*
X54316142Y-113298595D01*
X54173285Y-113870023D02*
X54316142Y-114060500D01*
X54316142Y-114441452D01*
X54173285Y-114631928D01*
X53887571Y-114727166D01*
X53744714Y-114727166D01*
X53459000Y-114631928D01*
X53316142Y-114441452D01*
X53316142Y-114155738D01*
X53173285Y-113965261D01*
X52887571Y-113870023D01*
X52744714Y-113870023D01*
X52459000Y-113965261D01*
X52316142Y-114155738D01*
X52316142Y-114441452D01*
X52459000Y-114631928D01*
D11*
X61356761Y-91338571D02*
X59356761Y-91338571D01*
X61356761Y-91981428D02*
X60309142Y-91981428D01*
X60118666Y-91910000D01*
X60023428Y-91767142D01*
X60023428Y-91552857D01*
X60118666Y-91410000D01*
X60213904Y-91338571D01*
X60023428Y-92481428D02*
X60023428Y-93052857D01*
X59356761Y-92695714D02*
X61071047Y-92695714D01*
X61261523Y-92767142D01*
X61356761Y-92910000D01*
X61356761Y-93052857D01*
X60023428Y-93338571D02*
X60023428Y-93910000D01*
X59356761Y-93552857D02*
X61071047Y-93552857D01*
X61261523Y-93624285D01*
X61356761Y-93767142D01*
X61356761Y-93910000D01*
X60023428Y-94410000D02*
X62023428Y-94410000D01*
X60118666Y-94410000D02*
X60023428Y-94552857D01*
X60023428Y-94838571D01*
X60118666Y-94981428D01*
X60213904Y-95052857D01*
X60404380Y-95124285D01*
X60975809Y-95124285D01*
X61166285Y-95052857D01*
X61261523Y-94981428D01*
X61356761Y-94838571D01*
X61356761Y-94552857D01*
X61261523Y-94410000D01*
X61261523Y-95695714D02*
X61356761Y-95838571D01*
X61356761Y-96124285D01*
X61261523Y-96267142D01*
X61071047Y-96338571D01*
X60975809Y-96338571D01*
X60785333Y-96267142D01*
X60690095Y-96124285D01*
X60690095Y-95910000D01*
X60594857Y-95767142D01*
X60404380Y-95695714D01*
X60309142Y-95695714D01*
X60118666Y-95767142D01*
X60023428Y-95910000D01*
X60023428Y-96124285D01*
X60118666Y-96267142D01*
X61166285Y-96981428D02*
X61261523Y-97052857D01*
X61356761Y-96981428D01*
X61261523Y-96910000D01*
X61166285Y-96981428D01*
X61356761Y-96981428D01*
X60118666Y-96981428D02*
X60213904Y-97052857D01*
X60309142Y-96981428D01*
X60213904Y-96910000D01*
X60118666Y-96981428D01*
X60309142Y-96981428D01*
X59261523Y-98767142D02*
X61832952Y-97481428D01*
X59261523Y-100338571D02*
X61832952Y-99052857D01*
X61356761Y-100838571D02*
X59356761Y-100838571D01*
X60118666Y-100838571D02*
X60023428Y-100981428D01*
X60023428Y-101267142D01*
X60118666Y-101410000D01*
X60213904Y-101481428D01*
X60404380Y-101552857D01*
X60975809Y-101552857D01*
X61166285Y-101481428D01*
X61261523Y-101410000D01*
X61356761Y-101267142D01*
X61356761Y-100981428D01*
X61261523Y-100838571D01*
X61356761Y-102410000D02*
X61261523Y-102267142D01*
X61071047Y-102195714D01*
X59356761Y-102195714D01*
X61356761Y-103195714D02*
X61261523Y-103052857D01*
X61166285Y-102981428D01*
X60975809Y-102910000D01*
X60404380Y-102910000D01*
X60213904Y-102981428D01*
X60118666Y-103052857D01*
X60023428Y-103195714D01*
X60023428Y-103410000D01*
X60118666Y-103552857D01*
X60213904Y-103624285D01*
X60404380Y-103695714D01*
X60975809Y-103695714D01*
X61166285Y-103624285D01*
X61261523Y-103552857D01*
X61356761Y-103410000D01*
X61356761Y-103195714D01*
X60023428Y-104981428D02*
X61642476Y-104981428D01*
X61832952Y-104910000D01*
X61928190Y-104838571D01*
X62023428Y-104695714D01*
X62023428Y-104481428D01*
X61928190Y-104338571D01*
X61261523Y-104981428D02*
X61356761Y-104838571D01*
X61356761Y-104552857D01*
X61261523Y-104410000D01*
X61166285Y-104338571D01*
X60975809Y-104267142D01*
X60404380Y-104267142D01*
X60213904Y-104338571D01*
X60118666Y-104410000D01*
X60023428Y-104552857D01*
X60023428Y-104838571D01*
X60118666Y-104981428D01*
X61166285Y-105695714D02*
X61261523Y-105767142D01*
X61356761Y-105695714D01*
X61261523Y-105624285D01*
X61166285Y-105695714D01*
X61356761Y-105695714D01*
X61356761Y-106410000D02*
X60023428Y-106410000D01*
X59356761Y-106410000D02*
X59452000Y-106338571D01*
X59547238Y-106410000D01*
X59452000Y-106481428D01*
X59356761Y-106410000D01*
X59547238Y-106410000D01*
X60023428Y-107124285D02*
X61356761Y-107124285D01*
X60213904Y-107124285D02*
X60118666Y-107195714D01*
X60023428Y-107338571D01*
X60023428Y-107552857D01*
X60118666Y-107695714D01*
X60309142Y-107767142D01*
X61356761Y-107767142D01*
X61261523Y-108410000D02*
X61356761Y-108552857D01*
X61356761Y-108838571D01*
X61261523Y-108981428D01*
X61071047Y-109052857D01*
X60975809Y-109052857D01*
X60785333Y-108981428D01*
X60690095Y-108838571D01*
X60690095Y-108624285D01*
X60594857Y-108481428D01*
X60404380Y-108410000D01*
X60309142Y-108410000D01*
X60118666Y-108481428D01*
X60023428Y-108624285D01*
X60023428Y-108838571D01*
X60118666Y-108981428D01*
X60023428Y-109481428D02*
X60023428Y-110052857D01*
X59356761Y-109695714D02*
X61071047Y-109695714D01*
X61261523Y-109767142D01*
X61356761Y-109910000D01*
X61356761Y-110052857D01*
X61356761Y-111195714D02*
X60309142Y-111195714D01*
X60118666Y-111124285D01*
X60023428Y-110981428D01*
X60023428Y-110695714D01*
X60118666Y-110552857D01*
X61261523Y-111195714D02*
X61356761Y-111052857D01*
X61356761Y-110695714D01*
X61261523Y-110552857D01*
X61071047Y-110481428D01*
X60880571Y-110481428D01*
X60690095Y-110552857D01*
X60594857Y-110695714D01*
X60594857Y-111052857D01*
X60499619Y-111195714D01*
X61356761Y-112124285D02*
X61261523Y-111981428D01*
X61071047Y-111910000D01*
X59356761Y-111910000D01*
X61356761Y-113338571D02*
X60309142Y-113338571D01*
X60118666Y-113267142D01*
X60023428Y-113124285D01*
X60023428Y-112838571D01*
X60118666Y-112695714D01*
X61261523Y-113338571D02*
X61356761Y-113195714D01*
X61356761Y-112838571D01*
X61261523Y-112695714D01*
X61071047Y-112624285D01*
X60880571Y-112624285D01*
X60690095Y-112695714D01*
X60594857Y-112838571D01*
X60594857Y-113195714D01*
X60499619Y-113338571D01*
X60023428Y-113838571D02*
X60023428Y-114410000D01*
X59356761Y-114052857D02*
X61071047Y-114052857D01*
X61261523Y-114124285D01*
X61356761Y-114267142D01*
X61356761Y-114410000D01*
X61356761Y-115124285D02*
X61261523Y-114981428D01*
X61166285Y-114910000D01*
X60975809Y-114838571D01*
X60404380Y-114838571D01*
X60213904Y-114910000D01*
X60118666Y-114981428D01*
X60023428Y-115124285D01*
X60023428Y-115338571D01*
X60118666Y-115481428D01*
X60213904Y-115552857D01*
X60404380Y-115624285D01*
X60975809Y-115624285D01*
X61166285Y-115552857D01*
X61261523Y-115481428D01*
X61356761Y-115338571D01*
X61356761Y-115124285D01*
X61356761Y-116267142D02*
X60023428Y-116267142D01*
X60404380Y-116267142D02*
X60213904Y-116338571D01*
X60118666Y-116410000D01*
X60023428Y-116552857D01*
X60023428Y-116695714D01*
X61166285Y-117195714D02*
X61261523Y-117267142D01*
X61356761Y-117195714D01*
X61261523Y-117124285D01*
X61166285Y-117195714D01*
X61356761Y-117195714D01*
X61356761Y-117910000D02*
X60023428Y-117910000D01*
X60404380Y-117910000D02*
X60213904Y-117981428D01*
X60118666Y-118052857D01*
X60023428Y-118195714D01*
X60023428Y-118338571D01*
X60023428Y-119481428D02*
X61356761Y-119481428D01*
X60023428Y-118838571D02*
X61071047Y-118838571D01*
X61261523Y-118910000D01*
X61356761Y-119052857D01*
X61356761Y-119267142D01*
X61261523Y-119410000D01*
X61166285Y-119481428D01*
D10*
X58118261Y-92219833D02*
X56118261Y-92219833D01*
X58023023Y-92219833D02*
X58118261Y-92029357D01*
X58118261Y-91648404D01*
X58023023Y-91457928D01*
X57927785Y-91362690D01*
X57737309Y-91267452D01*
X57165880Y-91267452D01*
X56975404Y-91362690D01*
X56880166Y-91457928D01*
X56784928Y-91648404D01*
X56784928Y-92029357D01*
X56880166Y-92219833D01*
X58023023Y-93934119D02*
X58118261Y-93743642D01*
X58118261Y-93362690D01*
X58023023Y-93172214D01*
X57832547Y-93076976D01*
X57070642Y-93076976D01*
X56880166Y-93172214D01*
X56784928Y-93362690D01*
X56784928Y-93743642D01*
X56880166Y-93934119D01*
X57070642Y-94029357D01*
X57261119Y-94029357D01*
X57451595Y-93076976D01*
X58023023Y-94791261D02*
X58118261Y-94981738D01*
X58118261Y-95362690D01*
X58023023Y-95553166D01*
X57832547Y-95648404D01*
X57737309Y-95648404D01*
X57546833Y-95553166D01*
X57451595Y-95362690D01*
X57451595Y-95076976D01*
X57356357Y-94886500D01*
X57165880Y-94791261D01*
X57070642Y-94791261D01*
X56880166Y-94886500D01*
X56784928Y-95076976D01*
X56784928Y-95362690D01*
X56880166Y-95553166D01*
X58118261Y-96505547D02*
X56784928Y-96505547D01*
X56118261Y-96505547D02*
X56213500Y-96410309D01*
X56308738Y-96505547D01*
X56213500Y-96600785D01*
X56118261Y-96505547D01*
X56308738Y-96505547D01*
X56784928Y-98315071D02*
X58403976Y-98315071D01*
X58594452Y-98219833D01*
X58689690Y-98124595D01*
X58784928Y-97934119D01*
X58784928Y-97648404D01*
X58689690Y-97457928D01*
X58023023Y-98315071D02*
X58118261Y-98124595D01*
X58118261Y-97743642D01*
X58023023Y-97553166D01*
X57927785Y-97457928D01*
X57737309Y-97362690D01*
X57165880Y-97362690D01*
X56975404Y-97457928D01*
X56880166Y-97553166D01*
X56784928Y-97743642D01*
X56784928Y-98124595D01*
X56880166Y-98315071D01*
X56784928Y-99267452D02*
X58118261Y-99267452D01*
X56975404Y-99267452D02*
X56880166Y-99362690D01*
X56784928Y-99553166D01*
X56784928Y-99838880D01*
X56880166Y-100029357D01*
X57070642Y-100124595D01*
X58118261Y-100124595D01*
X58023023Y-101838880D02*
X58118261Y-101648404D01*
X58118261Y-101267452D01*
X58023023Y-101076976D01*
X57832547Y-100981738D01*
X57070642Y-100981738D01*
X56880166Y-101076976D01*
X56784928Y-101267452D01*
X56784928Y-101648404D01*
X56880166Y-101838880D01*
X57070642Y-101934119D01*
X57261119Y-101934119D01*
X57451595Y-100981738D01*
X58118261Y-103648404D02*
X56118261Y-103648404D01*
X58023023Y-103648404D02*
X58118261Y-103457928D01*
X58118261Y-103076976D01*
X58023023Y-102886499D01*
X57927785Y-102791261D01*
X57737309Y-102696023D01*
X57165880Y-102696023D01*
X56975404Y-102791261D01*
X56880166Y-102886499D01*
X56784928Y-103076976D01*
X56784928Y-103457928D01*
X56880166Y-103648404D01*
X58118261Y-106124595D02*
X56118261Y-106124595D01*
X56880166Y-106124595D02*
X56784928Y-106315071D01*
X56784928Y-106696023D01*
X56880166Y-106886499D01*
X56975404Y-106981738D01*
X57165880Y-107076976D01*
X57737309Y-107076976D01*
X57927785Y-106981738D01*
X58023023Y-106886499D01*
X58118261Y-106696023D01*
X58118261Y-106315071D01*
X58023023Y-106124595D01*
X56784928Y-107743642D02*
X58118261Y-108219833D01*
X56784928Y-108696023D02*
X58118261Y-108219833D01*
X58594452Y-108029357D01*
X58689690Y-107934119D01*
X58784928Y-107743642D01*
X58118261Y-110981738D02*
X56784928Y-110981738D01*
X56118261Y-110981738D02*
X56213500Y-110886499D01*
X56308738Y-110981738D01*
X56213500Y-111076976D01*
X56118261Y-110981738D01*
X56308738Y-110981738D01*
X56784928Y-111934119D02*
X58118261Y-111934119D01*
X56975404Y-111934119D02*
X56880166Y-112029357D01*
X56784928Y-112219833D01*
X56784928Y-112505547D01*
X56880166Y-112696023D01*
X57070642Y-112791261D01*
X58118261Y-112791261D01*
X58023023Y-113648404D02*
X58118261Y-113838880D01*
X58118261Y-114219833D01*
X58023023Y-114410309D01*
X57832547Y-114505547D01*
X57737309Y-114505547D01*
X57546833Y-114410309D01*
X57451595Y-114219833D01*
X57451595Y-113934119D01*
X57356357Y-113743642D01*
X57165880Y-113648404D01*
X57070642Y-113648404D01*
X56880166Y-113743642D01*
X56784928Y-113934119D01*
X56784928Y-114219833D01*
X56880166Y-114410309D01*
X56784928Y-115076976D02*
X56784928Y-115838880D01*
X56118261Y-115362690D02*
X57832547Y-115362690D01*
X58023023Y-115457928D01*
X58118261Y-115648404D01*
X58118261Y-115838880D01*
X58118261Y-117362690D02*
X57070642Y-117362690D01*
X56880166Y-117267452D01*
X56784928Y-117076976D01*
X56784928Y-116696023D01*
X56880166Y-116505547D01*
X58023023Y-117362690D02*
X58118261Y-117172214D01*
X58118261Y-116696023D01*
X58023023Y-116505547D01*
X57832547Y-116410309D01*
X57642071Y-116410309D01*
X57451595Y-116505547D01*
X57356357Y-116696023D01*
X57356357Y-117172214D01*
X57261119Y-117362690D01*
X58118261Y-118600785D02*
X58023023Y-118410309D01*
X57832547Y-118315071D01*
X56118261Y-118315071D01*
X58118261Y-120219833D02*
X57070642Y-120219833D01*
X56880166Y-120124595D01*
X56784928Y-119934119D01*
X56784928Y-119553166D01*
X56880166Y-119362690D01*
X58023023Y-120219833D02*
X58118261Y-120029357D01*
X58118261Y-119553166D01*
X58023023Y-119362690D01*
X57832547Y-119267452D01*
X57642071Y-119267452D01*
X57451595Y-119362690D01*
X57356357Y-119553166D01*
X57356357Y-120029357D01*
X57261119Y-120219833D01*
X56784928Y-120886499D02*
X56784928Y-121648404D01*
X56118261Y-121172214D02*
X57832547Y-121172214D01*
X58023023Y-121267452D01*
X58118261Y-121457928D01*
X58118261Y-121648404D01*
X58118261Y-122600785D02*
X58023023Y-122410309D01*
X57927785Y-122315071D01*
X57737309Y-122219833D01*
X57165880Y-122219833D01*
X56975404Y-122315071D01*
X56880166Y-122410309D01*
X56784928Y-122600785D01*
X56784928Y-122886499D01*
X56880166Y-123076976D01*
X56975404Y-123172214D01*
X57165880Y-123267452D01*
X57737309Y-123267452D01*
X57927785Y-123172214D01*
X58023023Y-123076976D01*
X58118261Y-122886499D01*
X58118261Y-122600785D01*
X58118261Y-124124595D02*
X56784928Y-124124595D01*
X57165880Y-124124595D02*
X56975404Y-124219833D01*
X56880166Y-124315071D01*
X56784928Y-124505547D01*
X56784928Y-124696023D01*
D12*
%TO.C,TP2*%
G36*
X66425885Y-93535500D02*
G01*
X66425885Y-91171347D01*
X62987116Y-91171347D01*
X62987116Y-91435116D01*
X66162116Y-91435116D01*
X66162116Y-93271731D01*
X62987116Y-93271731D01*
X62987116Y-91435116D01*
X62987116Y-91171347D01*
X62733116Y-91171347D01*
X62733116Y-93535500D01*
X66425885Y-93535500D01*
G37*
X66425885Y-93535500D02*
X66425885Y-91171347D01*
X62987116Y-91171347D01*
X62987116Y-91435116D01*
X66162116Y-91435116D01*
X66162116Y-93271731D01*
X62987116Y-93271731D01*
X62987116Y-91435116D01*
X62987116Y-91171347D01*
X62733116Y-91171347D01*
X62733116Y-93535500D01*
X66425885Y-93535500D01*
G36*
X64706670Y-94431827D02*
G01*
X64706921Y-94542067D01*
X64707700Y-94634742D01*
X64709204Y-94711823D01*
X64711633Y-94775280D01*
X64715183Y-94827085D01*
X64720053Y-94869207D01*
X64726441Y-94903619D01*
X64734545Y-94932291D01*
X64744563Y-94957193D01*
X64756694Y-94980296D01*
X64762831Y-94990526D01*
X64808649Y-95046809D01*
X64866839Y-95088720D01*
X64935755Y-95115494D01*
X65013748Y-95126366D01*
X65054220Y-95125694D01*
X65115584Y-95116278D01*
X65173192Y-95097396D01*
X65221767Y-95071257D01*
X65254669Y-95041800D01*
X65270041Y-95025693D01*
X65278615Y-95025453D01*
X65280715Y-95029476D01*
X65293552Y-95050424D01*
X65317352Y-95077884D01*
X65347173Y-95107022D01*
X65378074Y-95133000D01*
X65404561Y-95150689D01*
X65424912Y-95160173D01*
X65446736Y-95166368D01*
X65474777Y-95169936D01*
X65513776Y-95171537D01*
X65556423Y-95171847D01*
X65608983Y-95171255D01*
X65647039Y-95169038D01*
X65675603Y-95164532D01*
X65699686Y-95157071D01*
X65713927Y-95150966D01*
X65779232Y-95110385D01*
X65831889Y-95055386D01*
X65871063Y-94987118D01*
X65895921Y-94906726D01*
X65897423Y-94898956D01*
X65900296Y-94872847D01*
X65902774Y-94828656D01*
X65904823Y-94767836D01*
X65906408Y-94691839D01*
X65907494Y-94602119D01*
X65908049Y-94500129D01*
X65908116Y-94447129D01*
X65908116Y-94053270D01*
X65654116Y-94053270D01*
X65654116Y-94326808D01*
X65654100Y-94573481D01*
X65653951Y-94651114D01*
X65653412Y-94711755D01*
X65652328Y-94757948D01*
X65650544Y-94792237D01*
X65647904Y-94817168D01*
X65644255Y-94835284D01*
X65639441Y-94849130D01*
X65637004Y-94854347D01*
X65611053Y-94885851D01*
X65573365Y-94904367D01*
X65527951Y-94908471D01*
X65498727Y-94903440D01*
X65477992Y-94897262D01*
X65461529Y-94889692D01*
X65448811Y-94878554D01*
X65439313Y-94861676D01*
X65432507Y-94836883D01*
X65427866Y-94802001D01*
X65424864Y-94754857D01*
X65422974Y-94693276D01*
X65421670Y-94615085D01*
X65421258Y-94583701D01*
X65417977Y-94326808D01*
X65654116Y-94326808D01*
X65654116Y-94053270D01*
X64970269Y-94053270D01*
X64970269Y-94326808D01*
X65176394Y-94326808D01*
X65173466Y-94567016D01*
X65170539Y-94807223D01*
X65143128Y-94830785D01*
X65105714Y-94851163D01*
X65063808Y-94855416D01*
X65023418Y-94843752D01*
X64998826Y-94825790D01*
X64970269Y-94797234D01*
X64970269Y-94326808D01*
X64970269Y-94053270D01*
X64706500Y-94053270D01*
X64706670Y-94431827D01*
G37*
X64706670Y-94431827D02*
X64706921Y-94542067D01*
X64707700Y-94634742D01*
X64709204Y-94711823D01*
X64711633Y-94775280D01*
X64715183Y-94827085D01*
X64720053Y-94869207D01*
X64726441Y-94903619D01*
X64734545Y-94932291D01*
X64744563Y-94957193D01*
X64756694Y-94980296D01*
X64762831Y-94990526D01*
X64808649Y-95046809D01*
X64866839Y-95088720D01*
X64935755Y-95115494D01*
X65013748Y-95126366D01*
X65054220Y-95125694D01*
X65115584Y-95116278D01*
X65173192Y-95097396D01*
X65221767Y-95071257D01*
X65254669Y-95041800D01*
X65270041Y-95025693D01*
X65278615Y-95025453D01*
X65280715Y-95029476D01*
X65293552Y-95050424D01*
X65317352Y-95077884D01*
X65347173Y-95107022D01*
X65378074Y-95133000D01*
X65404561Y-95150689D01*
X65424912Y-95160173D01*
X65446736Y-95166368D01*
X65474777Y-95169936D01*
X65513776Y-95171537D01*
X65556423Y-95171847D01*
X65608983Y-95171255D01*
X65647039Y-95169038D01*
X65675603Y-95164532D01*
X65699686Y-95157071D01*
X65713927Y-95150966D01*
X65779232Y-95110385D01*
X65831889Y-95055386D01*
X65871063Y-94987118D01*
X65895921Y-94906726D01*
X65897423Y-94898956D01*
X65900296Y-94872847D01*
X65902774Y-94828656D01*
X65904823Y-94767836D01*
X65906408Y-94691839D01*
X65907494Y-94602119D01*
X65908049Y-94500129D01*
X65908116Y-94447129D01*
X65908116Y-94053270D01*
X65654116Y-94053270D01*
X65654116Y-94326808D01*
X65654100Y-94573481D01*
X65653951Y-94651114D01*
X65653412Y-94711755D01*
X65652328Y-94757948D01*
X65650544Y-94792237D01*
X65647904Y-94817168D01*
X65644255Y-94835284D01*
X65639441Y-94849130D01*
X65637004Y-94854347D01*
X65611053Y-94885851D01*
X65573365Y-94904367D01*
X65527951Y-94908471D01*
X65498727Y-94903440D01*
X65477992Y-94897262D01*
X65461529Y-94889692D01*
X65448811Y-94878554D01*
X65439313Y-94861676D01*
X65432507Y-94836883D01*
X65427866Y-94802001D01*
X65424864Y-94754857D01*
X65422974Y-94693276D01*
X65421670Y-94615085D01*
X65421258Y-94583701D01*
X65417977Y-94326808D01*
X65654116Y-94326808D01*
X65654116Y-94053270D01*
X64970269Y-94053270D01*
X64970269Y-94326808D01*
X65176394Y-94326808D01*
X65173466Y-94567016D01*
X65170539Y-94807223D01*
X65143128Y-94830785D01*
X65105714Y-94851163D01*
X65063808Y-94855416D01*
X65023418Y-94843752D01*
X64998826Y-94825790D01*
X64970269Y-94797234D01*
X64970269Y-94326808D01*
X64970269Y-94053270D01*
X64706500Y-94053270D01*
X64706670Y-94431827D01*
G36*
X64708807Y-95926214D02*
G01*
X64709716Y-96038684D01*
X64710697Y-96133480D01*
X64711957Y-96212467D01*
X64713703Y-96277507D01*
X64716144Y-96330465D01*
X64719487Y-96373205D01*
X64723939Y-96407591D01*
X64729707Y-96435487D01*
X64736999Y-96458757D01*
X64746023Y-96479265D01*
X64756986Y-96498874D01*
X64770095Y-96519449D01*
X64775789Y-96528071D01*
X64823402Y-96582480D01*
X64885997Y-96625406D01*
X64936077Y-96647338D01*
X64971614Y-96655996D01*
X65021544Y-96662834D01*
X65080791Y-96667658D01*
X65144278Y-96670272D01*
X65206927Y-96670482D01*
X65263662Y-96668093D01*
X65309406Y-96662911D01*
X65315033Y-96661875D01*
X65395856Y-96637941D01*
X65462935Y-96600283D01*
X65517081Y-96548193D01*
X65559107Y-96480965D01*
X65579093Y-96432355D01*
X65582067Y-96414810D01*
X65585129Y-96380671D01*
X65588117Y-96332878D01*
X65590870Y-96274375D01*
X65593228Y-96208103D01*
X65594886Y-96143885D01*
X65600385Y-95885000D01*
X65754250Y-95882310D01*
X65908116Y-95879620D01*
X65908116Y-95616534D01*
X65436852Y-95613998D01*
X65341500Y-95613485D01*
X65341500Y-95879694D01*
X65341464Y-96097270D01*
X65341331Y-96168681D01*
X65340817Y-96223319D01*
X65339705Y-96263947D01*
X65337779Y-96293331D01*
X65334821Y-96314235D01*
X65330615Y-96329423D01*
X65324946Y-96341660D01*
X65321921Y-96346840D01*
X65304314Y-96369760D01*
X65281850Y-96385456D01*
X65250788Y-96395162D01*
X65207384Y-96400108D01*
X65155885Y-96401504D01*
X65098307Y-96400017D01*
X65055868Y-96393959D01*
X65024433Y-96381978D01*
X64999869Y-96362724D01*
X64985802Y-96345901D01*
X64979139Y-96335881D01*
X64974105Y-96324400D01*
X64970473Y-96308741D01*
X64968016Y-96286186D01*
X64966506Y-96254019D01*
X64965717Y-96209523D01*
X64965420Y-96149981D01*
X64965385Y-96101671D01*
X64965385Y-95885000D01*
X65153442Y-95882347D01*
X65341500Y-95879694D01*
X65341500Y-95613485D01*
X64965589Y-95611462D01*
X64955718Y-95543077D01*
X64945846Y-95474693D01*
X64825561Y-95471945D01*
X64705277Y-95469197D01*
X64708807Y-95926214D01*
G37*
X64708807Y-95926214D02*
X64709716Y-96038684D01*
X64710697Y-96133480D01*
X64711957Y-96212467D01*
X64713703Y-96277507D01*
X64716144Y-96330465D01*
X64719487Y-96373205D01*
X64723939Y-96407591D01*
X64729707Y-96435487D01*
X64736999Y-96458757D01*
X64746023Y-96479265D01*
X64756986Y-96498874D01*
X64770095Y-96519449D01*
X64775789Y-96528071D01*
X64823402Y-96582480D01*
X64885997Y-96625406D01*
X64936077Y-96647338D01*
X64971614Y-96655996D01*
X65021544Y-96662834D01*
X65080791Y-96667658D01*
X65144278Y-96670272D01*
X65206927Y-96670482D01*
X65263662Y-96668093D01*
X65309406Y-96662911D01*
X65315033Y-96661875D01*
X65395856Y-96637941D01*
X65462935Y-96600283D01*
X65517081Y-96548193D01*
X65559107Y-96480965D01*
X65579093Y-96432355D01*
X65582067Y-96414810D01*
X65585129Y-96380671D01*
X65588117Y-96332878D01*
X65590870Y-96274375D01*
X65593228Y-96208103D01*
X65594886Y-96143885D01*
X65600385Y-95885000D01*
X65754250Y-95882310D01*
X65908116Y-95879620D01*
X65908116Y-95616534D01*
X65436852Y-95613998D01*
X65341500Y-95613485D01*
X65341500Y-95879694D01*
X65341464Y-96097270D01*
X65341331Y-96168681D01*
X65340817Y-96223319D01*
X65339705Y-96263947D01*
X65337779Y-96293331D01*
X65334821Y-96314235D01*
X65330615Y-96329423D01*
X65324946Y-96341660D01*
X65321921Y-96346840D01*
X65304314Y-96369760D01*
X65281850Y-96385456D01*
X65250788Y-96395162D01*
X65207384Y-96400108D01*
X65155885Y-96401504D01*
X65098307Y-96400017D01*
X65055868Y-96393959D01*
X65024433Y-96381978D01*
X64999869Y-96362724D01*
X64985802Y-96345901D01*
X64979139Y-96335881D01*
X64974105Y-96324400D01*
X64970473Y-96308741D01*
X64968016Y-96286186D01*
X64966506Y-96254019D01*
X64965717Y-96209523D01*
X64965420Y-96149981D01*
X64965385Y-96101671D01*
X64965385Y-95885000D01*
X65153442Y-95882347D01*
X65341500Y-95879694D01*
X65341500Y-95613485D01*
X64965589Y-95611462D01*
X64955718Y-95543077D01*
X64945846Y-95474693D01*
X64825561Y-95471945D01*
X64705277Y-95469197D01*
X64708807Y-95926214D01*
G36*
X64707269Y-97522031D02*
G01*
X64708561Y-97594908D01*
X64710687Y-97659539D01*
X64713648Y-97711957D01*
X64716679Y-97742890D01*
X64732559Y-97818495D01*
X64758004Y-97884011D01*
X64791548Y-97936433D01*
X64827324Y-97969842D01*
X64852356Y-97986224D01*
X64876657Y-97999582D01*
X64902504Y-98010222D01*
X64932174Y-98018448D01*
X64967944Y-98024566D01*
X65012089Y-98028882D01*
X65066886Y-98031701D01*
X65134612Y-98033328D01*
X65217544Y-98034069D01*
X65307308Y-98034231D01*
X65405912Y-98034028D01*
X65487257Y-98033213D01*
X65553619Y-98031483D01*
X65607275Y-98028531D01*
X65650501Y-98024053D01*
X65685574Y-98017742D01*
X65714770Y-98009293D01*
X65740366Y-97998401D01*
X65764638Y-97984761D01*
X65787292Y-97969842D01*
X65825190Y-97933452D01*
X65857696Y-97881937D01*
X65882719Y-97819430D01*
X65898047Y-97750923D01*
X65901523Y-97714513D01*
X65904142Y-97662920D01*
X65905926Y-97599695D01*
X65906898Y-97528387D01*
X65907082Y-97452548D01*
X65906501Y-97375727D01*
X65905176Y-97301474D01*
X65903132Y-97233339D01*
X65900392Y-97174873D01*
X65896977Y-97129626D01*
X65893873Y-97105857D01*
X65872775Y-97027745D01*
X65839984Y-96964651D01*
X65794393Y-96915513D01*
X65734893Y-96879268D01*
X65660377Y-96854854D01*
X65624749Y-96847941D01*
X65593057Y-96844619D01*
X65545410Y-96841965D01*
X65485382Y-96839977D01*
X65416544Y-96838656D01*
X65402953Y-96838537D01*
X65402953Y-97112065D01*
X65459037Y-97112528D01*
X65504152Y-97113486D01*
X65534926Y-97114902D01*
X65544395Y-97115843D01*
X65590745Y-97130871D01*
X65624926Y-97159139D01*
X65644342Y-97198485D01*
X65644500Y-97199116D01*
X65646845Y-97218576D01*
X65648775Y-97254270D01*
X65650206Y-97302899D01*
X65651054Y-97361162D01*
X65651237Y-97425758D01*
X65651061Y-97458303D01*
X65650321Y-97531601D01*
X65649308Y-97587987D01*
X65647816Y-97630087D01*
X65645642Y-97660527D01*
X65642580Y-97681932D01*
X65638425Y-97696929D01*
X65632972Y-97708144D01*
X65631375Y-97710676D01*
X65619547Y-97726567D01*
X65605730Y-97739081D01*
X65587579Y-97748617D01*
X65562748Y-97755571D01*
X65528892Y-97760342D01*
X65483665Y-97763326D01*
X65424721Y-97764920D01*
X65349715Y-97765523D01*
X65307308Y-97765577D01*
X65216763Y-97765653D01*
X65143820Y-97764773D01*
X65086558Y-97761279D01*
X65043053Y-97753511D01*
X65011383Y-97739808D01*
X64989624Y-97718512D01*
X64975855Y-97687963D01*
X64968151Y-97646501D01*
X64964590Y-97592467D01*
X64963250Y-97524201D01*
X64962616Y-97468072D01*
X64962009Y-97381760D01*
X64962878Y-97312676D01*
X64965565Y-97258540D01*
X64970413Y-97217074D01*
X64977764Y-97186001D01*
X64987960Y-97163040D01*
X65001345Y-97145914D01*
X65012479Y-97136412D01*
X65022311Y-97129896D01*
X65033801Y-97124867D01*
X65049560Y-97121089D01*
X65072195Y-97118322D01*
X65104314Y-97116329D01*
X65148527Y-97114871D01*
X65207441Y-97113710D01*
X65271364Y-97112774D01*
X65339271Y-97112134D01*
X65402953Y-97112065D01*
X65402953Y-96838537D01*
X65342469Y-96838004D01*
X65266730Y-96838019D01*
X65192900Y-96838704D01*
X65124551Y-96840058D01*
X65065256Y-96842081D01*
X65018586Y-96844775D01*
X64989808Y-96847856D01*
X64909314Y-96867386D01*
X64844063Y-96898278D01*
X64792982Y-96941658D01*
X64754997Y-96998648D01*
X64729037Y-97070373D01*
X64716920Y-97133726D01*
X64713247Y-97172781D01*
X64710397Y-97227390D01*
X64708373Y-97293586D01*
X64707176Y-97367403D01*
X64706807Y-97444873D01*
X64707269Y-97522031D01*
G37*
X64707269Y-97522031D02*
X64708561Y-97594908D01*
X64710687Y-97659539D01*
X64713648Y-97711957D01*
X64716679Y-97742890D01*
X64732559Y-97818495D01*
X64758004Y-97884011D01*
X64791548Y-97936433D01*
X64827324Y-97969842D01*
X64852356Y-97986224D01*
X64876657Y-97999582D01*
X64902504Y-98010222D01*
X64932174Y-98018448D01*
X64967944Y-98024566D01*
X65012089Y-98028882D01*
X65066886Y-98031701D01*
X65134612Y-98033328D01*
X65217544Y-98034069D01*
X65307308Y-98034231D01*
X65405912Y-98034028D01*
X65487257Y-98033213D01*
X65553619Y-98031483D01*
X65607275Y-98028531D01*
X65650501Y-98024053D01*
X65685574Y-98017742D01*
X65714770Y-98009293D01*
X65740366Y-97998401D01*
X65764638Y-97984761D01*
X65787292Y-97969842D01*
X65825190Y-97933452D01*
X65857696Y-97881937D01*
X65882719Y-97819430D01*
X65898047Y-97750923D01*
X65901523Y-97714513D01*
X65904142Y-97662920D01*
X65905926Y-97599695D01*
X65906898Y-97528387D01*
X65907082Y-97452548D01*
X65906501Y-97375727D01*
X65905176Y-97301474D01*
X65903132Y-97233339D01*
X65900392Y-97174873D01*
X65896977Y-97129626D01*
X65893873Y-97105857D01*
X65872775Y-97027745D01*
X65839984Y-96964651D01*
X65794393Y-96915513D01*
X65734893Y-96879268D01*
X65660377Y-96854854D01*
X65624749Y-96847941D01*
X65593057Y-96844619D01*
X65545410Y-96841965D01*
X65485382Y-96839977D01*
X65416544Y-96838656D01*
X65402953Y-96838537D01*
X65402953Y-97112065D01*
X65459037Y-97112528D01*
X65504152Y-97113486D01*
X65534926Y-97114902D01*
X65544395Y-97115843D01*
X65590745Y-97130871D01*
X65624926Y-97159139D01*
X65644342Y-97198485D01*
X65644500Y-97199116D01*
X65646845Y-97218576D01*
X65648775Y-97254270D01*
X65650206Y-97302899D01*
X65651054Y-97361162D01*
X65651237Y-97425758D01*
X65651061Y-97458303D01*
X65650321Y-97531601D01*
X65649308Y-97587987D01*
X65647816Y-97630087D01*
X65645642Y-97660527D01*
X65642580Y-97681932D01*
X65638425Y-97696929D01*
X65632972Y-97708144D01*
X65631375Y-97710676D01*
X65619547Y-97726567D01*
X65605730Y-97739081D01*
X65587579Y-97748617D01*
X65562748Y-97755571D01*
X65528892Y-97760342D01*
X65483665Y-97763326D01*
X65424721Y-97764920D01*
X65349715Y-97765523D01*
X65307308Y-97765577D01*
X65216763Y-97765653D01*
X65143820Y-97764773D01*
X65086558Y-97761279D01*
X65043053Y-97753511D01*
X65011383Y-97739808D01*
X64989624Y-97718512D01*
X64975855Y-97687963D01*
X64968151Y-97646501D01*
X64964590Y-97592467D01*
X64963250Y-97524201D01*
X64962616Y-97468072D01*
X64962009Y-97381760D01*
X64962878Y-97312676D01*
X64965565Y-97258540D01*
X64970413Y-97217074D01*
X64977764Y-97186001D01*
X64987960Y-97163040D01*
X65001345Y-97145914D01*
X65012479Y-97136412D01*
X65022311Y-97129896D01*
X65033801Y-97124867D01*
X65049560Y-97121089D01*
X65072195Y-97118322D01*
X65104314Y-97116329D01*
X65148527Y-97114871D01*
X65207441Y-97113710D01*
X65271364Y-97112774D01*
X65339271Y-97112134D01*
X65402953Y-97112065D01*
X65402953Y-96838537D01*
X65342469Y-96838004D01*
X65266730Y-96838019D01*
X65192900Y-96838704D01*
X65124551Y-96840058D01*
X65065256Y-96842081D01*
X65018586Y-96844775D01*
X64989808Y-96847856D01*
X64909314Y-96867386D01*
X64844063Y-96898278D01*
X64792982Y-96941658D01*
X64754997Y-96998648D01*
X64729037Y-97070373D01*
X64716920Y-97133726D01*
X64713247Y-97172781D01*
X64710397Y-97227390D01*
X64708373Y-97293586D01*
X64707176Y-97367403D01*
X64706807Y-97444873D01*
X64707269Y-97522031D01*
G36*
X64874246Y-99403577D02*
G01*
X64934867Y-99400742D01*
X64993344Y-99396923D01*
X65044911Y-99392511D01*
X65084799Y-99387894D01*
X65102154Y-99384978D01*
X65160769Y-99372616D01*
X65166255Y-99133270D01*
X64960500Y-99133270D01*
X64961286Y-98881712D01*
X64961890Y-98792047D01*
X64963289Y-98719744D01*
X64965794Y-98662632D01*
X64969715Y-98618542D01*
X64975362Y-98585302D01*
X64983045Y-98560743D01*
X64993075Y-98542694D01*
X65005762Y-98528984D01*
X65012481Y-98523608D01*
X65022002Y-98517283D01*
X65033111Y-98512364D01*
X65048320Y-98508634D01*
X65070142Y-98505879D01*
X65101087Y-98503883D01*
X65143668Y-98502430D01*
X65200397Y-98501305D01*
X65273786Y-98500292D01*
X65286019Y-98500141D01*
X65372295Y-98499381D01*
X65441341Y-98499667D01*
X65495453Y-98501336D01*
X65536928Y-98504722D01*
X65568061Y-98510162D01*
X65591147Y-98517991D01*
X65608484Y-98528545D01*
X65622367Y-98542160D01*
X65628759Y-98550260D01*
X65633745Y-98557541D01*
X65637866Y-98565937D01*
X65641220Y-98577298D01*
X65643905Y-98593473D01*
X65646019Y-98616313D01*
X65647660Y-98647669D01*
X65648926Y-98689389D01*
X65649914Y-98743324D01*
X65650724Y-98811324D01*
X65651452Y-98895239D01*
X65652164Y-98992318D01*
X65655097Y-99406808D01*
X65908116Y-99406808D01*
X65907234Y-98984289D01*
X65906740Y-98863077D01*
X65905784Y-98760385D01*
X65904341Y-98675202D01*
X65902381Y-98606513D01*
X65899878Y-98553307D01*
X65896804Y-98514570D01*
X65893873Y-98493088D01*
X65873378Y-98415987D01*
X65841904Y-98353899D01*
X65798129Y-98305616D01*
X65740730Y-98269929D01*
X65668386Y-98245628D01*
X65611889Y-98235251D01*
X65579457Y-98232170D01*
X65531544Y-98229444D01*
X65472207Y-98227216D01*
X65405504Y-98225624D01*
X65335490Y-98224808D01*
X65307308Y-98224731D01*
X65202981Y-98225492D01*
X65116032Y-98227909D01*
X65044355Y-98232180D01*
X64985843Y-98238507D01*
X64938390Y-98247089D01*
X64899889Y-98258125D01*
X64882346Y-98265059D01*
X64832996Y-98293952D01*
X64789373Y-98332760D01*
X64758257Y-98375431D01*
X64757876Y-98376154D01*
X64747883Y-98396026D01*
X64739488Y-98415464D01*
X64732531Y-98436341D01*
X64726855Y-98460527D01*
X64722304Y-98489897D01*
X64718719Y-98526321D01*
X64715944Y-98571672D01*
X64713819Y-98627823D01*
X64712189Y-98696645D01*
X64710896Y-98780011D01*
X64709781Y-98879793D01*
X64709059Y-98956484D01*
X64704953Y-99409814D01*
X64874246Y-99403577D01*
G37*
X64874246Y-99403577D02*
X64934867Y-99400742D01*
X64993344Y-99396923D01*
X65044911Y-99392511D01*
X65084799Y-99387894D01*
X65102154Y-99384978D01*
X65160769Y-99372616D01*
X65166255Y-99133270D01*
X64960500Y-99133270D01*
X64961286Y-98881712D01*
X64961890Y-98792047D01*
X64963289Y-98719744D01*
X64965794Y-98662632D01*
X64969715Y-98618542D01*
X64975362Y-98585302D01*
X64983045Y-98560743D01*
X64993075Y-98542694D01*
X65005762Y-98528984D01*
X65012481Y-98523608D01*
X65022002Y-98517283D01*
X65033111Y-98512364D01*
X65048320Y-98508634D01*
X65070142Y-98505879D01*
X65101087Y-98503883D01*
X65143668Y-98502430D01*
X65200397Y-98501305D01*
X65273786Y-98500292D01*
X65286019Y-98500141D01*
X65372295Y-98499381D01*
X65441341Y-98499667D01*
X65495453Y-98501336D01*
X65536928Y-98504722D01*
X65568061Y-98510162D01*
X65591147Y-98517991D01*
X65608484Y-98528545D01*
X65622367Y-98542160D01*
X65628759Y-98550260D01*
X65633745Y-98557541D01*
X65637866Y-98565937D01*
X65641220Y-98577298D01*
X65643905Y-98593473D01*
X65646019Y-98616313D01*
X65647660Y-98647669D01*
X65648926Y-98689389D01*
X65649914Y-98743324D01*
X65650724Y-98811324D01*
X65651452Y-98895239D01*
X65652164Y-98992318D01*
X65655097Y-99406808D01*
X65908116Y-99406808D01*
X65907234Y-98984289D01*
X65906740Y-98863077D01*
X65905784Y-98760385D01*
X65904341Y-98675202D01*
X65902381Y-98606513D01*
X65899878Y-98553307D01*
X65896804Y-98514570D01*
X65893873Y-98493088D01*
X65873378Y-98415987D01*
X65841904Y-98353899D01*
X65798129Y-98305616D01*
X65740730Y-98269929D01*
X65668386Y-98245628D01*
X65611889Y-98235251D01*
X65579457Y-98232170D01*
X65531544Y-98229444D01*
X65472207Y-98227216D01*
X65405504Y-98225624D01*
X65335490Y-98224808D01*
X65307308Y-98224731D01*
X65202981Y-98225492D01*
X65116032Y-98227909D01*
X65044355Y-98232180D01*
X64985843Y-98238507D01*
X64938390Y-98247089D01*
X64899889Y-98258125D01*
X64882346Y-98265059D01*
X64832996Y-98293952D01*
X64789373Y-98332760D01*
X64758257Y-98375431D01*
X64757876Y-98376154D01*
X64747883Y-98396026D01*
X64739488Y-98415464D01*
X64732531Y-98436341D01*
X64726855Y-98460527D01*
X64722304Y-98489897D01*
X64718719Y-98526321D01*
X64715944Y-98571672D01*
X64713819Y-98627823D01*
X64712189Y-98696645D01*
X64710896Y-98780011D01*
X64709781Y-98879793D01*
X64709059Y-98956484D01*
X64704953Y-99409814D01*
X64874246Y-99403577D01*
G36*
X64875019Y-100771347D02*
G01*
X64935529Y-100768579D01*
X64993911Y-100764794D01*
X65045378Y-100760382D01*
X65085142Y-100755735D01*
X65102154Y-100752835D01*
X65160769Y-100740308D01*
X65166255Y-100500962D01*
X64959140Y-100500962D01*
X64962263Y-100224526D01*
X64963290Y-100142726D01*
X64964419Y-100078144D01*
X64965809Y-100028460D01*
X64967622Y-99991356D01*
X64970017Y-99964511D01*
X64973155Y-99945606D01*
X64977196Y-99932320D01*
X64982300Y-99922334D01*
X64983241Y-99920864D01*
X64994920Y-99904983D01*
X65008309Y-99892416D01*
X65025672Y-99882815D01*
X65049273Y-99875831D01*
X65081374Y-99871115D01*
X65124239Y-99868319D01*
X65180131Y-99867095D01*
X65251315Y-99867094D01*
X65327724Y-99867821D01*
X65585321Y-99870847D01*
X65610631Y-99896173D01*
X65629995Y-99923239D01*
X65643822Y-99955868D01*
X65644795Y-99959673D01*
X65646759Y-99977744D01*
X65648583Y-100012997D01*
X65650217Y-100063078D01*
X65651612Y-100125633D01*
X65652717Y-100198305D01*
X65653482Y-100278739D01*
X65653856Y-100364581D01*
X65653882Y-100386173D01*
X65654116Y-100774500D01*
X65908116Y-100774500D01*
X65906924Y-100351981D01*
X65906475Y-100260542D01*
X65905680Y-100173159D01*
X65904589Y-100092207D01*
X65903249Y-100020059D01*
X65901707Y-99959088D01*
X65900012Y-99911669D01*
X65898210Y-99880174D01*
X65897243Y-99870847D01*
X65882566Y-99808845D01*
X65858314Y-99750486D01*
X65827164Y-99700873D01*
X65791793Y-99665109D01*
X65787866Y-99662312D01*
X65762908Y-99645856D01*
X65739472Y-99632433D01*
X65715283Y-99621737D01*
X65688063Y-99613458D01*
X65655535Y-99607289D01*
X65615425Y-99602922D01*
X65565455Y-99600049D01*
X65503348Y-99598362D01*
X65426829Y-99597553D01*
X65333621Y-99597315D01*
X65307308Y-99597308D01*
X65216541Y-99597391D01*
X65143043Y-99597713D01*
X65084547Y-99598382D01*
X65038782Y-99599508D01*
X65003480Y-99601199D01*
X64976374Y-99603564D01*
X64955194Y-99606713D01*
X64937671Y-99610754D01*
X64921537Y-99615796D01*
X64921423Y-99615835D01*
X64858953Y-99642320D01*
X64811863Y-99674657D01*
X64776164Y-99716115D01*
X64756332Y-99751246D01*
X64745093Y-99776423D01*
X64735651Y-99802775D01*
X64727853Y-99832186D01*
X64721548Y-99866540D01*
X64716585Y-99907719D01*
X64712813Y-99957607D01*
X64710079Y-100018088D01*
X64708234Y-100091045D01*
X64707125Y-100178361D01*
X64706600Y-100281919D01*
X64706500Y-100371200D01*
X64706500Y-100777333D01*
X64875019Y-100771347D01*
G37*
X64875019Y-100771347D02*
X64935529Y-100768579D01*
X64993911Y-100764794D01*
X65045378Y-100760382D01*
X65085142Y-100755735D01*
X65102154Y-100752835D01*
X65160769Y-100740308D01*
X65166255Y-100500962D01*
X64959140Y-100500962D01*
X64962263Y-100224526D01*
X64963290Y-100142726D01*
X64964419Y-100078144D01*
X64965809Y-100028460D01*
X64967622Y-99991356D01*
X64970017Y-99964511D01*
X64973155Y-99945606D01*
X64977196Y-99932320D01*
X64982300Y-99922334D01*
X64983241Y-99920864D01*
X64994920Y-99904983D01*
X65008309Y-99892416D01*
X65025672Y-99882815D01*
X65049273Y-99875831D01*
X65081374Y-99871115D01*
X65124239Y-99868319D01*
X65180131Y-99867095D01*
X65251315Y-99867094D01*
X65327724Y-99867821D01*
X65585321Y-99870847D01*
X65610631Y-99896173D01*
X65629995Y-99923239D01*
X65643822Y-99955868D01*
X65644795Y-99959673D01*
X65646759Y-99977744D01*
X65648583Y-100012997D01*
X65650217Y-100063078D01*
X65651612Y-100125633D01*
X65652717Y-100198305D01*
X65653482Y-100278739D01*
X65653856Y-100364581D01*
X65653882Y-100386173D01*
X65654116Y-100774500D01*
X65908116Y-100774500D01*
X65906924Y-100351981D01*
X65906475Y-100260542D01*
X65905680Y-100173159D01*
X65904589Y-100092207D01*
X65903249Y-100020059D01*
X65901707Y-99959088D01*
X65900012Y-99911669D01*
X65898210Y-99880174D01*
X65897243Y-99870847D01*
X65882566Y-99808845D01*
X65858314Y-99750486D01*
X65827164Y-99700873D01*
X65791793Y-99665109D01*
X65787866Y-99662312D01*
X65762908Y-99645856D01*
X65739472Y-99632433D01*
X65715283Y-99621737D01*
X65688063Y-99613458D01*
X65655535Y-99607289D01*
X65615425Y-99602922D01*
X65565455Y-99600049D01*
X65503348Y-99598362D01*
X65426829Y-99597553D01*
X65333621Y-99597315D01*
X65307308Y-99597308D01*
X65216541Y-99597391D01*
X65143043Y-99597713D01*
X65084547Y-99598382D01*
X65038782Y-99599508D01*
X65003480Y-99601199D01*
X64976374Y-99603564D01*
X64955194Y-99606713D01*
X64937671Y-99610754D01*
X64921537Y-99615796D01*
X64921423Y-99615835D01*
X64858953Y-99642320D01*
X64811863Y-99674657D01*
X64776164Y-99716115D01*
X64756332Y-99751246D01*
X64745093Y-99776423D01*
X64735651Y-99802775D01*
X64727853Y-99832186D01*
X64721548Y-99866540D01*
X64716585Y-99907719D01*
X64712813Y-99957607D01*
X64710079Y-100018088D01*
X64708234Y-100091045D01*
X64707125Y-100178361D01*
X64706600Y-100281919D01*
X64706500Y-100371200D01*
X64706500Y-100777333D01*
X64875019Y-100771347D01*
G36*
X65511136Y-101277616D02*
G01*
X65186595Y-101486754D01*
X65113249Y-101534266D01*
X65043573Y-101579868D01*
X64979637Y-101622171D01*
X64923509Y-101659788D01*
X64877259Y-101691330D01*
X64842956Y-101715407D01*
X64822669Y-101730632D01*
X64820583Y-101732398D01*
X64774236Y-101783530D01*
X64740399Y-101845124D01*
X64718456Y-101918927D01*
X64707794Y-102006683D01*
X64706500Y-102056064D01*
X64706500Y-102132423D01*
X65908116Y-102132423D01*
X65908116Y-101858885D01*
X65065035Y-101858885D01*
X65486575Y-101584043D01*
X65908116Y-101309202D01*
X65908116Y-100999193D01*
X64706500Y-100999193D01*
X64706500Y-101272514D01*
X65511136Y-101277616D01*
G37*
X65511136Y-101277616D02*
X65186595Y-101486754D01*
X65113249Y-101534266D01*
X65043573Y-101579868D01*
X64979637Y-101622171D01*
X64923509Y-101659788D01*
X64877259Y-101691330D01*
X64842956Y-101715407D01*
X64822669Y-101730632D01*
X64820583Y-101732398D01*
X64774236Y-101783530D01*
X64740399Y-101845124D01*
X64718456Y-101918927D01*
X64707794Y-102006683D01*
X64706500Y-102056064D01*
X64706500Y-102132423D01*
X65908116Y-102132423D01*
X65908116Y-101858885D01*
X65065035Y-101858885D01*
X65486575Y-101584043D01*
X65908116Y-101309202D01*
X65908116Y-100999193D01*
X64706500Y-100999193D01*
X64706500Y-101272514D01*
X65511136Y-101277616D01*
G36*
X65111473Y-102652528D02*
G01*
X65516447Y-102655077D01*
X65206723Y-102854656D01*
X65134651Y-102901271D01*
X65065872Y-102946084D01*
X65002582Y-102987640D01*
X64946973Y-103024487D01*
X64901239Y-103055171D01*
X64867575Y-103078237D01*
X64848173Y-103092233D01*
X64848154Y-103092248D01*
X64794880Y-103141287D01*
X64755249Y-103196141D01*
X64728096Y-103259630D01*
X64712254Y-103334578D01*
X64706558Y-103423804D01*
X64706500Y-103434974D01*
X64706500Y-103509885D01*
X65908116Y-103509885D01*
X65908116Y-103236556D01*
X65493285Y-103234009D01*
X65078455Y-103231462D01*
X65903231Y-102693428D01*
X65908599Y-102376654D01*
X64706500Y-102376654D01*
X64706500Y-102649978D01*
X65111473Y-102652528D01*
G37*
X65111473Y-102652528D02*
X65516447Y-102655077D01*
X65206723Y-102854656D01*
X65134651Y-102901271D01*
X65065872Y-102946084D01*
X65002582Y-102987640D01*
X64946973Y-103024487D01*
X64901239Y-103055171D01*
X64867575Y-103078237D01*
X64848173Y-103092233D01*
X64848154Y-103092248D01*
X64794880Y-103141287D01*
X64755249Y-103196141D01*
X64728096Y-103259630D01*
X64712254Y-103334578D01*
X64706558Y-103423804D01*
X64706500Y-103434974D01*
X64706500Y-103509885D01*
X65908116Y-103509885D01*
X65908116Y-103236556D01*
X65493285Y-103234009D01*
X65078455Y-103231462D01*
X65903231Y-102693428D01*
X65908599Y-102376654D01*
X64706500Y-102376654D01*
X64706500Y-102649978D01*
X65111473Y-102652528D01*
G36*
X64188731Y-96563962D02*
G01*
X64188731Y-96671423D01*
X64559962Y-96671423D01*
X64559962Y-96544610D01*
X64560048Y-96490975D01*
X64558856Y-96453751D01*
X64554205Y-96429832D01*
X64543918Y-96416111D01*
X64525816Y-96409481D01*
X64497721Y-96406835D01*
X64462269Y-96405302D01*
X64408539Y-96402770D01*
X64405985Y-96009558D01*
X64403432Y-95616347D01*
X64451168Y-95616347D01*
X64486985Y-95615049D01*
X64520103Y-95611792D01*
X64529433Y-95610241D01*
X64559962Y-95604135D01*
X64559962Y-95352577D01*
X64374346Y-95352577D01*
X64309855Y-95352669D01*
X64262322Y-95353120D01*
X64229169Y-95354197D01*
X64207815Y-95356164D01*
X64195681Y-95359286D01*
X64190189Y-95363828D01*
X64188757Y-95370056D01*
X64188731Y-95371656D01*
X64181016Y-95408283D01*
X64159727Y-95435764D01*
X64159727Y-95721450D01*
X64157133Y-96003494D01*
X64154539Y-96285539D01*
X63504537Y-96290687D01*
X63509769Y-95817033D01*
X63744231Y-95794813D01*
X63840028Y-95785078D01*
X63919772Y-95775380D01*
X63986940Y-95765135D01*
X64045007Y-95753757D01*
X64097449Y-95740661D01*
X64137594Y-95728584D01*
X64159727Y-95721450D01*
X64159727Y-95435764D01*
X64157261Y-95438948D01*
X64116547Y-95464336D01*
X64057954Y-95485133D01*
X64025966Y-95493074D01*
X64005479Y-95496509D01*
X63968376Y-95501578D01*
X63917483Y-95507973D01*
X63855626Y-95515382D01*
X63785630Y-95523498D01*
X63710320Y-95532009D01*
X63632523Y-95540606D01*
X63555064Y-95548979D01*
X63480769Y-95556819D01*
X63412463Y-95563815D01*
X63352972Y-95569658D01*
X63305121Y-95574038D01*
X63271737Y-95576645D01*
X63258212Y-95577250D01*
X63256784Y-95586717D01*
X63255449Y-95613881D01*
X63254232Y-95656902D01*
X63253162Y-95713940D01*
X63252266Y-95783154D01*
X63251571Y-95862703D01*
X63251105Y-95950748D01*
X63250894Y-96045446D01*
X63250885Y-96070616D01*
X63250885Y-96563962D01*
X64188731Y-96563962D01*
G37*
X64188731Y-96563962D02*
X64188731Y-96671423D01*
X64559962Y-96671423D01*
X64559962Y-96544610D01*
X64560048Y-96490975D01*
X64558856Y-96453751D01*
X64554205Y-96429832D01*
X64543918Y-96416111D01*
X64525816Y-96409481D01*
X64497721Y-96406835D01*
X64462269Y-96405302D01*
X64408539Y-96402770D01*
X64405985Y-96009558D01*
X64403432Y-95616347D01*
X64451168Y-95616347D01*
X64486985Y-95615049D01*
X64520103Y-95611792D01*
X64529433Y-95610241D01*
X64559962Y-95604135D01*
X64559962Y-95352577D01*
X64374346Y-95352577D01*
X64309855Y-95352669D01*
X64262322Y-95353120D01*
X64229169Y-95354197D01*
X64207815Y-95356164D01*
X64195681Y-95359286D01*
X64190189Y-95363828D01*
X64188757Y-95370056D01*
X64188731Y-95371656D01*
X64181016Y-95408283D01*
X64159727Y-95435764D01*
X64159727Y-95721450D01*
X64157133Y-96003494D01*
X64154539Y-96285539D01*
X63504537Y-96290687D01*
X63509769Y-95817033D01*
X63744231Y-95794813D01*
X63840028Y-95785078D01*
X63919772Y-95775380D01*
X63986940Y-95765135D01*
X64045007Y-95753757D01*
X64097449Y-95740661D01*
X64137594Y-95728584D01*
X64159727Y-95721450D01*
X64159727Y-95435764D01*
X64157261Y-95438948D01*
X64116547Y-95464336D01*
X64057954Y-95485133D01*
X64025966Y-95493074D01*
X64005479Y-95496509D01*
X63968376Y-95501578D01*
X63917483Y-95507973D01*
X63855626Y-95515382D01*
X63785630Y-95523498D01*
X63710320Y-95532009D01*
X63632523Y-95540606D01*
X63555064Y-95548979D01*
X63480769Y-95556819D01*
X63412463Y-95563815D01*
X63352972Y-95569658D01*
X63305121Y-95574038D01*
X63271737Y-95576645D01*
X63258212Y-95577250D01*
X63256784Y-95586717D01*
X63255449Y-95613881D01*
X63254232Y-95656902D01*
X63253162Y-95713940D01*
X63252266Y-95783154D01*
X63251571Y-95862703D01*
X63251105Y-95950748D01*
X63250894Y-96045446D01*
X63250885Y-96070616D01*
X63250885Y-96563962D01*
X64188731Y-96563962D01*
G36*
X64442731Y-99367731D02*
G01*
X64442731Y-99094193D01*
X63504885Y-99094193D01*
X63504885Y-98864616D01*
X63505062Y-98790080D01*
X63505675Y-98732974D01*
X63506850Y-98691192D01*
X63508710Y-98662628D01*
X63511380Y-98645176D01*
X63514984Y-98636730D01*
X63518432Y-98635039D01*
X63534726Y-98633986D01*
X63567220Y-98631059D01*
X63612699Y-98626603D01*
X63667950Y-98620964D01*
X63729762Y-98614487D01*
X63794920Y-98607518D01*
X63860212Y-98600403D01*
X63922424Y-98593488D01*
X63978344Y-98587117D01*
X64024758Y-98581637D01*
X64058454Y-98577393D01*
X64071500Y-98575542D01*
X64173021Y-98554811D01*
X64257028Y-98526684D01*
X64324341Y-98490517D01*
X64375781Y-98445667D01*
X64412167Y-98391490D01*
X64434319Y-98327343D01*
X64440917Y-98285822D01*
X64443958Y-98248574D01*
X64445212Y-98216449D01*
X64444531Y-98197866D01*
X64442480Y-98188850D01*
X64437233Y-98182712D01*
X64425559Y-98178900D01*
X64404228Y-98176860D01*
X64370010Y-98176040D01*
X64319673Y-98175885D01*
X64190905Y-98175885D01*
X64184784Y-98208515D01*
X64168698Y-98246620D01*
X64135728Y-98276933D01*
X64090760Y-98298285D01*
X64071350Y-98302869D01*
X64034763Y-98309218D01*
X63983251Y-98317023D01*
X63919066Y-98325971D01*
X63844459Y-98335752D01*
X63761682Y-98346055D01*
X63672987Y-98356569D01*
X63648981Y-98359327D01*
X63250885Y-98404770D01*
X63250885Y-99367731D01*
X64442731Y-99367731D01*
G37*
X64442731Y-99367731D02*
X64442731Y-99094193D01*
X63504885Y-99094193D01*
X63504885Y-98864616D01*
X63505062Y-98790080D01*
X63505675Y-98732974D01*
X63506850Y-98691192D01*
X63508710Y-98662628D01*
X63511380Y-98645176D01*
X63514984Y-98636730D01*
X63518432Y-98635039D01*
X63534726Y-98633986D01*
X63567220Y-98631059D01*
X63612699Y-98626603D01*
X63667950Y-98620964D01*
X63729762Y-98614487D01*
X63794920Y-98607518D01*
X63860212Y-98600403D01*
X63922424Y-98593488D01*
X63978344Y-98587117D01*
X64024758Y-98581637D01*
X64058454Y-98577393D01*
X64071500Y-98575542D01*
X64173021Y-98554811D01*
X64257028Y-98526684D01*
X64324341Y-98490517D01*
X64375781Y-98445667D01*
X64412167Y-98391490D01*
X64434319Y-98327343D01*
X64440917Y-98285822D01*
X64443958Y-98248574D01*
X64445212Y-98216449D01*
X64444531Y-98197866D01*
X64442480Y-98188850D01*
X64437233Y-98182712D01*
X64425559Y-98178900D01*
X64404228Y-98176860D01*
X64370010Y-98176040D01*
X64319673Y-98175885D01*
X64190905Y-98175885D01*
X64184784Y-98208515D01*
X64168698Y-98246620D01*
X64135728Y-98276933D01*
X64090760Y-98298285D01*
X64071350Y-98302869D01*
X64034763Y-98309218D01*
X63983251Y-98317023D01*
X63919066Y-98325971D01*
X63844459Y-98335752D01*
X63761682Y-98346055D01*
X63672987Y-98356569D01*
X63648981Y-98359327D01*
X63250885Y-98404770D01*
X63250885Y-99367731D01*
X64442731Y-99367731D01*
G36*
X63306535Y-95195925D02*
G01*
X63356114Y-95194720D01*
X63413784Y-95191892D01*
X63474970Y-95187818D01*
X63535100Y-95182876D01*
X63589599Y-95177443D01*
X63633892Y-95171896D01*
X63663406Y-95166612D01*
X63664173Y-95166422D01*
X63710039Y-95154873D01*
X63710039Y-94922731D01*
X63504885Y-94922731D01*
X63504885Y-94653111D01*
X63505086Y-94564973D01*
X63505940Y-94494243D01*
X63507827Y-94438792D01*
X63511125Y-94396490D01*
X63516212Y-94365210D01*
X63523466Y-94342822D01*
X63533266Y-94327198D01*
X63545991Y-94316209D01*
X63562018Y-94307726D01*
X63566628Y-94305729D01*
X63587125Y-94301359D01*
X63623733Y-94297801D01*
X63673055Y-94295057D01*
X63731694Y-94293132D01*
X63796255Y-94292029D01*
X63863339Y-94291753D01*
X63929550Y-94292306D01*
X63991491Y-94293692D01*
X64045765Y-94295916D01*
X64088976Y-94298981D01*
X64117727Y-94302890D01*
X64125502Y-94305113D01*
X64139119Y-94310994D01*
X64150434Y-94317264D01*
X64159684Y-94325678D01*
X64167103Y-94337995D01*
X64172928Y-94355970D01*
X64177394Y-94381360D01*
X64180738Y-94415923D01*
X64183195Y-94461416D01*
X64185000Y-94519594D01*
X64186390Y-94592216D01*
X64187601Y-94681038D01*
X64188731Y-94776193D01*
X64193616Y-95191385D01*
X64318173Y-95194119D01*
X64442731Y-95196853D01*
X64442168Y-94754504D01*
X64441961Y-94647698D01*
X64441591Y-94558500D01*
X64440991Y-94484980D01*
X64440092Y-94425207D01*
X64438828Y-94377251D01*
X64437130Y-94339183D01*
X64434932Y-94309071D01*
X64432165Y-94284985D01*
X64428762Y-94264995D01*
X64424656Y-94247171D01*
X64424365Y-94246048D01*
X64402384Y-94181407D01*
X64372727Y-94131756D01*
X64332345Y-94093104D01*
X64286423Y-94065471D01*
X64254206Y-94050885D01*
X64220325Y-94039154D01*
X64182418Y-94030045D01*
X64138123Y-94023326D01*
X64085079Y-94018763D01*
X64020924Y-94016122D01*
X63943296Y-94015172D01*
X63849832Y-94015679D01*
X63790255Y-94016503D01*
X63708846Y-94017915D01*
X63644237Y-94019394D01*
X63593691Y-94021150D01*
X63554471Y-94023395D01*
X63523839Y-94026341D01*
X63499059Y-94030200D01*
X63477393Y-94035184D01*
X63456102Y-94041503D01*
X63452656Y-94042618D01*
X63385649Y-94073502D01*
X63332229Y-94118328D01*
X63291771Y-94177684D01*
X63279087Y-94205603D01*
X63273743Y-94219200D01*
X63269278Y-94232283D01*
X63265601Y-94246685D01*
X63262620Y-94264244D01*
X63260243Y-94286793D01*
X63258378Y-94316170D01*
X63256934Y-94354208D01*
X63255819Y-94402744D01*
X63254941Y-94463614D01*
X63254208Y-94538652D01*
X63253528Y-94629694D01*
X63252866Y-94729789D01*
X63249840Y-95196270D01*
X63306535Y-95195925D01*
G37*
X63306535Y-95195925D02*
X63356114Y-95194720D01*
X63413784Y-95191892D01*
X63474970Y-95187818D01*
X63535100Y-95182876D01*
X63589599Y-95177443D01*
X63633892Y-95171896D01*
X63663406Y-95166612D01*
X63664173Y-95166422D01*
X63710039Y-95154873D01*
X63710039Y-94922731D01*
X63504885Y-94922731D01*
X63504885Y-94653111D01*
X63505086Y-94564973D01*
X63505940Y-94494243D01*
X63507827Y-94438792D01*
X63511125Y-94396490D01*
X63516212Y-94365210D01*
X63523466Y-94342822D01*
X63533266Y-94327198D01*
X63545991Y-94316209D01*
X63562018Y-94307726D01*
X63566628Y-94305729D01*
X63587125Y-94301359D01*
X63623733Y-94297801D01*
X63673055Y-94295057D01*
X63731694Y-94293132D01*
X63796255Y-94292029D01*
X63863339Y-94291753D01*
X63929550Y-94292306D01*
X63991491Y-94293692D01*
X64045765Y-94295916D01*
X64088976Y-94298981D01*
X64117727Y-94302890D01*
X64125502Y-94305113D01*
X64139119Y-94310994D01*
X64150434Y-94317264D01*
X64159684Y-94325678D01*
X64167103Y-94337995D01*
X64172928Y-94355970D01*
X64177394Y-94381360D01*
X64180738Y-94415923D01*
X64183195Y-94461416D01*
X64185000Y-94519594D01*
X64186390Y-94592216D01*
X64187601Y-94681038D01*
X64188731Y-94776193D01*
X64193616Y-95191385D01*
X64318173Y-95194119D01*
X64442731Y-95196853D01*
X64442168Y-94754504D01*
X64441961Y-94647698D01*
X64441591Y-94558500D01*
X64440991Y-94484980D01*
X64440092Y-94425207D01*
X64438828Y-94377251D01*
X64437130Y-94339183D01*
X64434932Y-94309071D01*
X64432165Y-94284985D01*
X64428762Y-94264995D01*
X64424656Y-94247171D01*
X64424365Y-94246048D01*
X64402384Y-94181407D01*
X64372727Y-94131756D01*
X64332345Y-94093104D01*
X64286423Y-94065471D01*
X64254206Y-94050885D01*
X64220325Y-94039154D01*
X64182418Y-94030045D01*
X64138123Y-94023326D01*
X64085079Y-94018763D01*
X64020924Y-94016122D01*
X63943296Y-94015172D01*
X63849832Y-94015679D01*
X63790255Y-94016503D01*
X63708846Y-94017915D01*
X63644237Y-94019394D01*
X63593691Y-94021150D01*
X63554471Y-94023395D01*
X63523839Y-94026341D01*
X63499059Y-94030200D01*
X63477393Y-94035184D01*
X63456102Y-94041503D01*
X63452656Y-94042618D01*
X63385649Y-94073502D01*
X63332229Y-94118328D01*
X63291771Y-94177684D01*
X63279087Y-94205603D01*
X63273743Y-94219200D01*
X63269278Y-94232283D01*
X63265601Y-94246685D01*
X63262620Y-94264244D01*
X63260243Y-94286793D01*
X63258378Y-94316170D01*
X63256934Y-94354208D01*
X63255819Y-94402744D01*
X63254941Y-94463614D01*
X63254208Y-94538652D01*
X63253528Y-94629694D01*
X63252866Y-94729789D01*
X63249840Y-95196270D01*
X63306535Y-95195925D01*
G36*
X63504885Y-98000039D02*
G01*
X63504885Y-97605021D01*
X63505127Y-97505246D01*
X63505831Y-97416119D01*
X63506961Y-97339166D01*
X63508482Y-97275911D01*
X63510359Y-97227881D01*
X63512557Y-97196601D01*
X63514592Y-97184471D01*
X63534437Y-97158992D01*
X63570511Y-97141169D01*
X63620743Y-97131819D01*
X63651109Y-97130577D01*
X63710039Y-97130577D01*
X63710039Y-97804654D01*
X63964039Y-97804654D01*
X63964039Y-97130577D01*
X64032737Y-97130577D01*
X64094838Y-97135002D01*
X64140966Y-97148098D01*
X64170389Y-97169594D01*
X64179024Y-97184471D01*
X64181450Y-97200722D01*
X64183587Y-97235008D01*
X64185400Y-97285828D01*
X64186854Y-97351680D01*
X64187916Y-97431063D01*
X64188552Y-97522475D01*
X64188731Y-97609906D01*
X64188731Y-98009808D01*
X64442731Y-98009808D01*
X64441661Y-97582404D01*
X64441242Y-97491165D01*
X64440481Y-97404587D01*
X64439425Y-97324926D01*
X64438118Y-97254436D01*
X64436607Y-97195372D01*
X64434939Y-97149989D01*
X64433158Y-97120542D01*
X64432059Y-97111481D01*
X64415789Y-97056544D01*
X64390335Y-97003011D01*
X64359344Y-96957656D01*
X64337091Y-96935043D01*
X64308793Y-96916602D01*
X64270230Y-96897740D01*
X64232692Y-96883555D01*
X64212728Y-96877538D01*
X64193418Y-96872751D01*
X64172298Y-96869054D01*
X64146900Y-96866307D01*
X64114758Y-96864371D01*
X64073406Y-96863104D01*
X64020376Y-96862368D01*
X63953203Y-96862021D01*
X63869420Y-96861925D01*
X63851692Y-96861923D01*
X63754102Y-96862141D01*
X63673746Y-96862959D01*
X63608325Y-96864625D01*
X63555540Y-96867389D01*
X63513089Y-96871499D01*
X63478673Y-96877203D01*
X63449991Y-96884749D01*
X63424743Y-96894387D01*
X63400630Y-96906365D01*
X63391126Y-96911673D01*
X63345149Y-96945057D01*
X63309322Y-96988488D01*
X63279939Y-97046514D01*
X63278594Y-97049829D01*
X63273266Y-97063475D01*
X63268833Y-97076794D01*
X63265197Y-97091668D01*
X63262263Y-97109981D01*
X63259934Y-97133612D01*
X63258115Y-97164446D01*
X63256709Y-97204363D01*
X63255619Y-97255246D01*
X63254751Y-97318977D01*
X63254006Y-97397438D01*
X63253290Y-97492511D01*
X63252870Y-97553097D01*
X63249802Y-98000039D01*
X63504885Y-98000039D01*
G37*
X63504885Y-98000039D02*
X63504885Y-97605021D01*
X63505127Y-97505246D01*
X63505831Y-97416119D01*
X63506961Y-97339166D01*
X63508482Y-97275911D01*
X63510359Y-97227881D01*
X63512557Y-97196601D01*
X63514592Y-97184471D01*
X63534437Y-97158992D01*
X63570511Y-97141169D01*
X63620743Y-97131819D01*
X63651109Y-97130577D01*
X63710039Y-97130577D01*
X63710039Y-97804654D01*
X63964039Y-97804654D01*
X63964039Y-97130577D01*
X64032737Y-97130577D01*
X64094838Y-97135002D01*
X64140966Y-97148098D01*
X64170389Y-97169594D01*
X64179024Y-97184471D01*
X64181450Y-97200722D01*
X64183587Y-97235008D01*
X64185400Y-97285828D01*
X64186854Y-97351680D01*
X64187916Y-97431063D01*
X64188552Y-97522475D01*
X64188731Y-97609906D01*
X64188731Y-98009808D01*
X64442731Y-98009808D01*
X64441661Y-97582404D01*
X64441242Y-97491165D01*
X64440481Y-97404587D01*
X64439425Y-97324926D01*
X64438118Y-97254436D01*
X64436607Y-97195372D01*
X64434939Y-97149989D01*
X64433158Y-97120542D01*
X64432059Y-97111481D01*
X64415789Y-97056544D01*
X64390335Y-97003011D01*
X64359344Y-96957656D01*
X64337091Y-96935043D01*
X64308793Y-96916602D01*
X64270230Y-96897740D01*
X64232692Y-96883555D01*
X64212728Y-96877538D01*
X64193418Y-96872751D01*
X64172298Y-96869054D01*
X64146900Y-96866307D01*
X64114758Y-96864371D01*
X64073406Y-96863104D01*
X64020376Y-96862368D01*
X63953203Y-96862021D01*
X63869420Y-96861925D01*
X63851692Y-96861923D01*
X63754102Y-96862141D01*
X63673746Y-96862959D01*
X63608325Y-96864625D01*
X63555540Y-96867389D01*
X63513089Y-96871499D01*
X63478673Y-96877203D01*
X63449991Y-96884749D01*
X63424743Y-96894387D01*
X63400630Y-96906365D01*
X63391126Y-96911673D01*
X63345149Y-96945057D01*
X63309322Y-96988488D01*
X63279939Y-97046514D01*
X63278594Y-97049829D01*
X63273266Y-97063475D01*
X63268833Y-97076794D01*
X63265197Y-97091668D01*
X63262263Y-97109981D01*
X63259934Y-97133612D01*
X63258115Y-97164446D01*
X63256709Y-97204363D01*
X63255619Y-97255246D01*
X63254751Y-97318977D01*
X63254006Y-97397438D01*
X63253290Y-97492511D01*
X63252870Y-97553097D01*
X63249802Y-98000039D01*
X63504885Y-98000039D01*
G36*
X64442731Y-100754962D02*
G01*
X64442731Y-100481828D01*
X64244904Y-100479183D01*
X64047077Y-100476539D01*
X64047077Y-99890385D01*
X64244904Y-99887740D01*
X64442731Y-99885096D01*
X64442731Y-99620855D01*
X63971366Y-99624012D01*
X63854909Y-99624815D01*
X63756239Y-99625702D01*
X63755359Y-99625715D01*
X63755359Y-99886258D01*
X63778033Y-99887710D01*
X63782560Y-99888746D01*
X63787059Y-99892156D01*
X63790569Y-99899906D01*
X63793180Y-99914059D01*
X63794983Y-99936680D01*
X63796071Y-99969832D01*
X63796532Y-100015580D01*
X63796460Y-100075986D01*
X63795944Y-100153115D01*
X63795665Y-100185654D01*
X63793077Y-100476539D01*
X63648981Y-100479242D01*
X63504885Y-100481946D01*
X63504900Y-100235012D01*
X63505161Y-100145274D01*
X63506605Y-100073083D01*
X63510237Y-100016447D01*
X63517063Y-99973374D01*
X63528089Y-99941874D01*
X63544323Y-99919954D01*
X63566770Y-99905624D01*
X63596437Y-99896892D01*
X63634330Y-99891767D01*
X63680082Y-99888347D01*
X63720881Y-99886463D01*
X63755359Y-99886258D01*
X63755359Y-99625715D01*
X63673607Y-99626925D01*
X63605262Y-99628733D01*
X63549454Y-99631377D01*
X63504432Y-99635108D01*
X63468447Y-99640175D01*
X63439748Y-99646830D01*
X63416584Y-99655322D01*
X63397206Y-99665902D01*
X63379863Y-99678821D01*
X63362805Y-99694328D01*
X63344281Y-99712675D01*
X63343055Y-99713902D01*
X63324061Y-99733107D01*
X63308075Y-99750754D01*
X63294824Y-99768661D01*
X63284037Y-99788643D01*
X63275439Y-99812516D01*
X63268760Y-99842097D01*
X63263726Y-99879201D01*
X63260065Y-99925644D01*
X63257504Y-99983244D01*
X63255771Y-100053816D01*
X63254593Y-100139176D01*
X63253698Y-100241140D01*
X63253169Y-100312904D01*
X63249959Y-100754962D01*
X64442731Y-100754962D01*
G37*
X64442731Y-100754962D02*
X64442731Y-100481828D01*
X64244904Y-100479183D01*
X64047077Y-100476539D01*
X64047077Y-99890385D01*
X64244904Y-99887740D01*
X64442731Y-99885096D01*
X64442731Y-99620855D01*
X63971366Y-99624012D01*
X63854909Y-99624815D01*
X63756239Y-99625702D01*
X63755359Y-99625715D01*
X63755359Y-99886258D01*
X63778033Y-99887710D01*
X63782560Y-99888746D01*
X63787059Y-99892156D01*
X63790569Y-99899906D01*
X63793180Y-99914059D01*
X63794983Y-99936680D01*
X63796071Y-99969832D01*
X63796532Y-100015580D01*
X63796460Y-100075986D01*
X63795944Y-100153115D01*
X63795665Y-100185654D01*
X63793077Y-100476539D01*
X63648981Y-100479242D01*
X63504885Y-100481946D01*
X63504900Y-100235012D01*
X63505161Y-100145274D01*
X63506605Y-100073083D01*
X63510237Y-100016447D01*
X63517063Y-99973374D01*
X63528089Y-99941874D01*
X63544323Y-99919954D01*
X63566770Y-99905624D01*
X63596437Y-99896892D01*
X63634330Y-99891767D01*
X63680082Y-99888347D01*
X63720881Y-99886463D01*
X63755359Y-99886258D01*
X63755359Y-99625715D01*
X63673607Y-99626925D01*
X63605262Y-99628733D01*
X63549454Y-99631377D01*
X63504432Y-99635108D01*
X63468447Y-99640175D01*
X63439748Y-99646830D01*
X63416584Y-99655322D01*
X63397206Y-99665902D01*
X63379863Y-99678821D01*
X63362805Y-99694328D01*
X63344281Y-99712675D01*
X63343055Y-99713902D01*
X63324061Y-99733107D01*
X63308075Y-99750754D01*
X63294824Y-99768661D01*
X63284037Y-99788643D01*
X63275439Y-99812516D01*
X63268760Y-99842097D01*
X63263726Y-99879201D01*
X63260065Y-99925644D01*
X63257504Y-99983244D01*
X63255771Y-100053816D01*
X63254593Y-100139176D01*
X63253698Y-100241140D01*
X63253169Y-100312904D01*
X63249959Y-100754962D01*
X64442731Y-100754962D01*
G36*
X63710039Y-101272731D02*
G01*
X63710039Y-101858885D01*
X63250885Y-101858885D01*
X63250885Y-102132423D01*
X64442731Y-102132423D01*
X64442731Y-101858885D01*
X63964039Y-101858885D01*
X63964039Y-101272731D01*
X64442731Y-101272731D01*
X64442731Y-100999193D01*
X63250885Y-100999193D01*
X63250885Y-101272731D01*
X63710039Y-101272731D01*
G37*
X63710039Y-101272731D02*
X63710039Y-101858885D01*
X63250885Y-101858885D01*
X63250885Y-102132423D01*
X64442731Y-102132423D01*
X64442731Y-101858885D01*
X63964039Y-101858885D01*
X63964039Y-101272731D01*
X64442731Y-101272731D01*
X64442731Y-100999193D01*
X63250885Y-100999193D01*
X63250885Y-101272731D01*
X63710039Y-101272731D01*
G36*
X63255918Y-103043592D02*
G01*
X63256617Y-103126522D01*
X63258245Y-103194207D01*
X63261182Y-103248794D01*
X63265807Y-103292427D01*
X63272499Y-103327254D01*
X63281637Y-103355421D01*
X63293601Y-103379073D01*
X63308770Y-103400358D01*
X63327523Y-103421421D01*
X63343055Y-103437253D01*
X63365100Y-103458629D01*
X63385848Y-103476199D01*
X63407427Y-103490338D01*
X63431965Y-103501415D01*
X63461589Y-103509804D01*
X63498427Y-103515878D01*
X63544607Y-103520008D01*
X63602256Y-103522566D01*
X63673503Y-103523925D01*
X63760474Y-103524458D01*
X63841923Y-103524539D01*
X63931707Y-103524488D01*
X64004236Y-103524251D01*
X64061793Y-103523702D01*
X64106660Y-103522718D01*
X64141122Y-103521172D01*
X64167460Y-103518939D01*
X64187959Y-103515894D01*
X64204901Y-103511913D01*
X64220570Y-103506869D01*
X64230435Y-103503232D01*
X64297871Y-103469771D01*
X64350942Y-103425046D01*
X64390975Y-103367418D01*
X64419296Y-103295248D01*
X64428356Y-103258624D01*
X64433149Y-103224559D01*
X64436946Y-103174732D01*
X64439749Y-103112786D01*
X64441557Y-103042363D01*
X64442373Y-102967105D01*
X64442197Y-102890655D01*
X64441030Y-102816654D01*
X64438873Y-102748745D01*
X64435727Y-102690570D01*
X64431593Y-102645771D01*
X64428190Y-102624683D01*
X64403459Y-102545266D01*
X64366609Y-102480894D01*
X64316724Y-102430674D01*
X64252888Y-102393715D01*
X64174186Y-102369123D01*
X64163847Y-102366989D01*
X64133138Y-102363143D01*
X64085541Y-102360428D01*
X64020445Y-102358830D01*
X63937391Y-102358338D01*
X63937391Y-102625670D01*
X64010356Y-102626544D01*
X64067607Y-102630151D01*
X64111048Y-102638247D01*
X64142584Y-102652593D01*
X64164120Y-102674946D01*
X64177559Y-102707066D01*
X64184806Y-102750709D01*
X64187765Y-102807635D01*
X64188341Y-102879603D01*
X64188348Y-102941141D01*
X64188168Y-103018599D01*
X64187236Y-103078875D01*
X64185428Y-103124313D01*
X64182617Y-103157259D01*
X64178677Y-103180059D01*
X64174847Y-103192050D01*
X64165671Y-103211475D01*
X64154704Y-103226858D01*
X64139707Y-103238666D01*
X64118440Y-103247369D01*
X64088665Y-103253434D01*
X64048143Y-103257331D01*
X63994635Y-103259527D01*
X63925901Y-103260492D01*
X63846808Y-103260695D01*
X63756092Y-103260777D01*
X63683000Y-103259845D01*
X63625634Y-103256136D01*
X63582092Y-103247888D01*
X63550476Y-103233335D01*
X63528887Y-103210716D01*
X63515423Y-103178266D01*
X63508186Y-103134221D01*
X63505277Y-103076819D01*
X63504795Y-103004296D01*
X63504885Y-102943270D01*
X63504798Y-102859034D01*
X63505804Y-102791163D01*
X63509803Y-102737895D01*
X63518695Y-102697463D01*
X63534378Y-102668106D01*
X63558753Y-102648058D01*
X63593719Y-102635557D01*
X63641176Y-102628837D01*
X63703024Y-102626135D01*
X63781162Y-102625687D01*
X63846808Y-102625770D01*
X63937391Y-102625670D01*
X63937391Y-102358338D01*
X63937239Y-102358337D01*
X63835309Y-102358935D01*
X63802846Y-102359302D01*
X63706836Y-102360672D01*
X63628090Y-102362475D01*
X63564334Y-102365159D01*
X63513295Y-102369169D01*
X63472697Y-102374952D01*
X63440268Y-102382956D01*
X63413732Y-102393626D01*
X63390816Y-102407411D01*
X63369246Y-102424756D01*
X63346748Y-102446108D01*
X63343249Y-102449588D01*
X63321669Y-102471898D01*
X63303958Y-102493083D01*
X63289735Y-102515293D01*
X63278619Y-102540680D01*
X63270229Y-102571394D01*
X63264183Y-102609587D01*
X63260100Y-102657408D01*
X63257600Y-102717009D01*
X63256301Y-102790541D01*
X63255822Y-102880154D01*
X63255769Y-102943270D01*
X63255918Y-103043592D01*
G37*
X63255918Y-103043592D02*
X63256617Y-103126522D01*
X63258245Y-103194207D01*
X63261182Y-103248794D01*
X63265807Y-103292427D01*
X63272499Y-103327254D01*
X63281637Y-103355421D01*
X63293601Y-103379073D01*
X63308770Y-103400358D01*
X63327523Y-103421421D01*
X63343055Y-103437253D01*
X63365100Y-103458629D01*
X63385848Y-103476199D01*
X63407427Y-103490338D01*
X63431965Y-103501415D01*
X63461589Y-103509804D01*
X63498427Y-103515878D01*
X63544607Y-103520008D01*
X63602256Y-103522566D01*
X63673503Y-103523925D01*
X63760474Y-103524458D01*
X63841923Y-103524539D01*
X63931707Y-103524488D01*
X64004236Y-103524251D01*
X64061793Y-103523702D01*
X64106660Y-103522718D01*
X64141122Y-103521172D01*
X64167460Y-103518939D01*
X64187959Y-103515894D01*
X64204901Y-103511913D01*
X64220570Y-103506869D01*
X64230435Y-103503232D01*
X64297871Y-103469771D01*
X64350942Y-103425046D01*
X64390975Y-103367418D01*
X64419296Y-103295248D01*
X64428356Y-103258624D01*
X64433149Y-103224559D01*
X64436946Y-103174732D01*
X64439749Y-103112786D01*
X64441557Y-103042363D01*
X64442373Y-102967105D01*
X64442197Y-102890655D01*
X64441030Y-102816654D01*
X64438873Y-102748745D01*
X64435727Y-102690570D01*
X64431593Y-102645771D01*
X64428190Y-102624683D01*
X64403459Y-102545266D01*
X64366609Y-102480894D01*
X64316724Y-102430674D01*
X64252888Y-102393715D01*
X64174186Y-102369123D01*
X64163847Y-102366989D01*
X64133138Y-102363143D01*
X64085541Y-102360428D01*
X64020445Y-102358830D01*
X63937391Y-102358338D01*
X63937391Y-102625670D01*
X64010356Y-102626544D01*
X64067607Y-102630151D01*
X64111048Y-102638247D01*
X64142584Y-102652593D01*
X64164120Y-102674946D01*
X64177559Y-102707066D01*
X64184806Y-102750709D01*
X64187765Y-102807635D01*
X64188341Y-102879603D01*
X64188348Y-102941141D01*
X64188168Y-103018599D01*
X64187236Y-103078875D01*
X64185428Y-103124313D01*
X64182617Y-103157259D01*
X64178677Y-103180059D01*
X64174847Y-103192050D01*
X64165671Y-103211475D01*
X64154704Y-103226858D01*
X64139707Y-103238666D01*
X64118440Y-103247369D01*
X64088665Y-103253434D01*
X64048143Y-103257331D01*
X63994635Y-103259527D01*
X63925901Y-103260492D01*
X63846808Y-103260695D01*
X63756092Y-103260777D01*
X63683000Y-103259845D01*
X63625634Y-103256136D01*
X63582092Y-103247888D01*
X63550476Y-103233335D01*
X63528887Y-103210716D01*
X63515423Y-103178266D01*
X63508186Y-103134221D01*
X63505277Y-103076819D01*
X63504795Y-103004296D01*
X63504885Y-102943270D01*
X63504798Y-102859034D01*
X63505804Y-102791163D01*
X63509803Y-102737895D01*
X63518695Y-102697463D01*
X63534378Y-102668106D01*
X63558753Y-102648058D01*
X63593719Y-102635557D01*
X63641176Y-102628837D01*
X63703024Y-102626135D01*
X63781162Y-102625687D01*
X63846808Y-102625770D01*
X63937391Y-102625670D01*
X63937391Y-102358338D01*
X63937239Y-102358337D01*
X63835309Y-102358935D01*
X63802846Y-102359302D01*
X63706836Y-102360672D01*
X63628090Y-102362475D01*
X63564334Y-102365159D01*
X63513295Y-102369169D01*
X63472697Y-102374952D01*
X63440268Y-102382956D01*
X63413732Y-102393626D01*
X63390816Y-102407411D01*
X63369246Y-102424756D01*
X63346748Y-102446108D01*
X63343249Y-102449588D01*
X63321669Y-102471898D01*
X63303958Y-102493083D01*
X63289735Y-102515293D01*
X63278619Y-102540680D01*
X63270229Y-102571394D01*
X63264183Y-102609587D01*
X63260100Y-102657408D01*
X63257600Y-102717009D01*
X63256301Y-102790541D01*
X63255822Y-102880154D01*
X63255769Y-102943270D01*
X63255918Y-103043592D01*
G36*
X65115271Y-91962654D02*
G01*
X65215300Y-91962672D01*
X65297715Y-91962790D01*
X65364443Y-91963103D01*
X65417409Y-91963706D01*
X65458539Y-91964696D01*
X65489757Y-91966167D01*
X65512990Y-91968215D01*
X65530163Y-91970936D01*
X65543201Y-91974425D01*
X65554030Y-91978778D01*
X65564575Y-91984089D01*
X65566342Y-91985023D01*
X65608419Y-92017110D01*
X65628936Y-92046080D01*
X65634404Y-92057399D01*
X65638823Y-92069781D01*
X65642328Y-92085386D01*
X65645053Y-92106377D01*
X65647132Y-92134915D01*
X65648701Y-92173162D01*
X65649894Y-92223280D01*
X65650844Y-92287430D01*
X65651686Y-92367773D01*
X65652150Y-92419366D01*
X65655069Y-92753962D01*
X64706500Y-92753962D01*
X64706500Y-93017731D01*
X65908116Y-93017731D01*
X65907234Y-92541481D01*
X65906810Y-92415518D01*
X65906023Y-92307995D01*
X65904846Y-92217816D01*
X65903251Y-92143885D01*
X65901213Y-92085106D01*
X65898704Y-92040384D01*
X65895698Y-92008622D01*
X65893894Y-91996672D01*
X65871367Y-91912319D01*
X65836661Y-91842924D01*
X65788842Y-91787464D01*
X65726972Y-91744919D01*
X65650117Y-91714265D01*
X65630343Y-91708821D01*
X65610470Y-91704028D01*
X65590468Y-91700078D01*
X65568285Y-91696890D01*
X65541869Y-91694384D01*
X65509168Y-91692477D01*
X65468130Y-91691091D01*
X65416703Y-91690143D01*
X65352836Y-91689554D01*
X65274477Y-91689241D01*
X65179572Y-91689125D01*
X65129899Y-91689116D01*
X64706500Y-91689116D01*
X64706500Y-91962654D01*
X65115271Y-91962654D01*
G37*
X65115271Y-91962654D02*
X65215300Y-91962672D01*
X65297715Y-91962790D01*
X65364443Y-91963103D01*
X65417409Y-91963706D01*
X65458539Y-91964696D01*
X65489757Y-91966167D01*
X65512990Y-91968215D01*
X65530163Y-91970936D01*
X65543201Y-91974425D01*
X65554030Y-91978778D01*
X65564575Y-91984089D01*
X65566342Y-91985023D01*
X65608419Y-92017110D01*
X65628936Y-92046080D01*
X65634404Y-92057399D01*
X65638823Y-92069781D01*
X65642328Y-92085386D01*
X65645053Y-92106377D01*
X65647132Y-92134915D01*
X65648701Y-92173162D01*
X65649894Y-92223280D01*
X65650844Y-92287430D01*
X65651686Y-92367773D01*
X65652150Y-92419366D01*
X65655069Y-92753962D01*
X64706500Y-92753962D01*
X64706500Y-93017731D01*
X65908116Y-93017731D01*
X65907234Y-92541481D01*
X65906810Y-92415518D01*
X65906023Y-92307995D01*
X65904846Y-92217816D01*
X65903251Y-92143885D01*
X65901213Y-92085106D01*
X65898704Y-92040384D01*
X65895698Y-92008622D01*
X65893894Y-91996672D01*
X65871367Y-91912319D01*
X65836661Y-91842924D01*
X65788842Y-91787464D01*
X65726972Y-91744919D01*
X65650117Y-91714265D01*
X65630343Y-91708821D01*
X65610470Y-91704028D01*
X65590468Y-91700078D01*
X65568285Y-91696890D01*
X65541869Y-91694384D01*
X65509168Y-91692477D01*
X65468130Y-91691091D01*
X65416703Y-91690143D01*
X65352836Y-91689554D01*
X65274477Y-91689241D01*
X65179572Y-91689125D01*
X65129899Y-91689116D01*
X64706500Y-91689116D01*
X64706500Y-91962654D01*
X65115271Y-91962654D01*
G36*
X63253016Y-92238635D02*
G01*
X63253616Y-92356075D01*
X63254191Y-92455634D01*
X63254808Y-92538968D01*
X63255538Y-92607734D01*
X63256449Y-92663589D01*
X63257610Y-92708190D01*
X63259089Y-92743193D01*
X63260957Y-92770255D01*
X63263280Y-92791034D01*
X63266130Y-92807184D01*
X63269574Y-92820365D01*
X63273681Y-92832232D01*
X63278175Y-92843587D01*
X63314532Y-92909448D01*
X63364765Y-92961584D01*
X63428773Y-92999923D01*
X63506451Y-93024390D01*
X63537420Y-93029743D01*
X63615577Y-93033946D01*
X63690762Y-93025276D01*
X63759515Y-93004862D01*
X63818376Y-92973831D01*
X63863887Y-92933312D01*
X63874067Y-92919987D01*
X63890515Y-92897484D01*
X63902412Y-92883539D01*
X63905423Y-92881359D01*
X63912598Y-92888892D01*
X63924779Y-92908208D01*
X63929846Y-92917320D01*
X63962212Y-92958458D01*
X64008256Y-92990910D01*
X64050812Y-93007805D01*
X64071942Y-93010991D01*
X64108684Y-93013751D01*
X64157115Y-93015905D01*
X64213308Y-93017270D01*
X64264442Y-93017677D01*
X64442731Y-93017731D01*
X64442731Y-92753962D01*
X64327942Y-92753765D01*
X64242153Y-92752094D01*
X64174261Y-92747258D01*
X64122848Y-92739037D01*
X64086495Y-92727212D01*
X64065101Y-92712927D01*
X64054247Y-92699467D01*
X64045353Y-92681620D01*
X64038238Y-92657494D01*
X64032719Y-92625200D01*
X64028612Y-92582845D01*
X64025735Y-92528539D01*
X64023904Y-92460392D01*
X64022939Y-92376513D01*
X64022654Y-92275011D01*
X64022654Y-91962654D01*
X64442731Y-91962654D01*
X64442731Y-91689116D01*
X63768654Y-91689116D01*
X63768654Y-91962654D01*
X63768654Y-92309776D01*
X63768507Y-92406240D01*
X63768022Y-92485036D01*
X63767131Y-92548032D01*
X63765765Y-92597098D01*
X63763857Y-92634102D01*
X63761338Y-92660912D01*
X63758141Y-92679397D01*
X63754816Y-92690016D01*
X63730334Y-92725897D01*
X63694919Y-92749573D01*
X63653101Y-92760783D01*
X63609408Y-92759266D01*
X63568370Y-92744762D01*
X63534516Y-92717011D01*
X63524674Y-92703261D01*
X63519511Y-92693988D01*
X63515336Y-92683469D01*
X63512045Y-92669654D01*
X63509531Y-92650491D01*
X63507691Y-92623929D01*
X63506419Y-92587917D01*
X63505611Y-92540404D01*
X63505162Y-92479338D01*
X63504967Y-92402668D01*
X63504921Y-92316789D01*
X63504885Y-91962654D01*
X63768654Y-91962654D01*
X63768654Y-91689116D01*
X63250263Y-91689116D01*
X63253016Y-92238635D01*
G37*
X63253016Y-92238635D02*
X63253616Y-92356075D01*
X63254191Y-92455634D01*
X63254808Y-92538968D01*
X63255538Y-92607734D01*
X63256449Y-92663589D01*
X63257610Y-92708190D01*
X63259089Y-92743193D01*
X63260957Y-92770255D01*
X63263280Y-92791034D01*
X63266130Y-92807184D01*
X63269574Y-92820365D01*
X63273681Y-92832232D01*
X63278175Y-92843587D01*
X63314532Y-92909448D01*
X63364765Y-92961584D01*
X63428773Y-92999923D01*
X63506451Y-93024390D01*
X63537420Y-93029743D01*
X63615577Y-93033946D01*
X63690762Y-93025276D01*
X63759515Y-93004862D01*
X63818376Y-92973831D01*
X63863887Y-92933312D01*
X63874067Y-92919987D01*
X63890515Y-92897484D01*
X63902412Y-92883539D01*
X63905423Y-92881359D01*
X63912598Y-92888892D01*
X63924779Y-92908208D01*
X63929846Y-92917320D01*
X63962212Y-92958458D01*
X64008256Y-92990910D01*
X64050812Y-93007805D01*
X64071942Y-93010991D01*
X64108684Y-93013751D01*
X64157115Y-93015905D01*
X64213308Y-93017270D01*
X64264442Y-93017677D01*
X64442731Y-93017731D01*
X64442731Y-92753962D01*
X64327942Y-92753765D01*
X64242153Y-92752094D01*
X64174261Y-92747258D01*
X64122848Y-92739037D01*
X64086495Y-92727212D01*
X64065101Y-92712927D01*
X64054247Y-92699467D01*
X64045353Y-92681620D01*
X64038238Y-92657494D01*
X64032719Y-92625200D01*
X64028612Y-92582845D01*
X64025735Y-92528539D01*
X64023904Y-92460392D01*
X64022939Y-92376513D01*
X64022654Y-92275011D01*
X64022654Y-91962654D01*
X64442731Y-91962654D01*
X64442731Y-91689116D01*
X63768654Y-91689116D01*
X63768654Y-91962654D01*
X63768654Y-92309776D01*
X63768507Y-92406240D01*
X63768022Y-92485036D01*
X63767131Y-92548032D01*
X63765765Y-92597098D01*
X63763857Y-92634102D01*
X63761338Y-92660912D01*
X63758141Y-92679397D01*
X63754816Y-92690016D01*
X63730334Y-92725897D01*
X63694919Y-92749573D01*
X63653101Y-92760783D01*
X63609408Y-92759266D01*
X63568370Y-92744762D01*
X63534516Y-92717011D01*
X63524674Y-92703261D01*
X63519511Y-92693988D01*
X63515336Y-92683469D01*
X63512045Y-92669654D01*
X63509531Y-92650491D01*
X63507691Y-92623929D01*
X63506419Y-92587917D01*
X63505611Y-92540404D01*
X63505162Y-92479338D01*
X63504967Y-92402668D01*
X63504921Y-92316789D01*
X63504885Y-91962654D01*
X63768654Y-91962654D01*
X63768654Y-91689116D01*
X63250263Y-91689116D01*
X63253016Y-92238635D01*
%TD*%
M02*
