%TF.GenerationSoftware,KiCad,Pcbnew,(5.1.9)-1*%
%TF.CreationDate,2021-06-18T12:26:37+07:00*%
%TF.ProjectId,adau1978,61646175-3139-4373-982e-6b696361645f,rev?*%
%TF.SameCoordinates,Original*%
%TF.FileFunction,Soldermask,Bot*%
%TF.FilePolarity,Negative*%
%FSLAX46Y46*%
G04 Gerber Fmt 4.6, Leading zero omitted, Abs format (unit mm)*
G04 Created by KiCad (PCBNEW (5.1.9)-1) date 2021-06-18 12:26:37*
%MOMM*%
%LPD*%
G01*
G04 APERTURE LIST*
%ADD10O,1.700000X1.700000*%
%ADD11R,2.600000X2.600000*%
%ADD12C,2.600000*%
%ADD13R,1.700000X1.700000*%
%ADD14C,1.600000*%
%ADD15R,1.600000X1.600000*%
%ADD16O,3.016000X1.508000*%
G04 APERTURE END LIST*
D10*
%TO.C,D5*%
X73025000Y-75184000D03*
X75565000Y-75184000D03*
X73025000Y-77724000D03*
X75565000Y-77724000D03*
X73025000Y-96774000D03*
X75565000Y-96774000D03*
X73025000Y-99314000D03*
X75565000Y-99314000D03*
X73025000Y-101854000D03*
X75565000Y-101854000D03*
X73025000Y-104394000D03*
X75565000Y-104394000D03*
X73025000Y-106934000D03*
X75565000Y-106934000D03*
X73025000Y-109474000D03*
X75565000Y-109474000D03*
X73025000Y-112014000D03*
X75565000Y-112014000D03*
X73025000Y-114554000D03*
X75565000Y-114554000D03*
%TD*%
D11*
%TO.C,J1*%
X66548000Y-125793500D03*
D12*
X71628000Y-125793500D03*
%TD*%
D13*
%TO.C,JP1*%
X62611000Y-53721000D03*
D10*
X60071000Y-53721000D03*
X57531000Y-53721000D03*
%TD*%
%TO.C,JP2*%
X57531000Y-51181000D03*
X60071000Y-51181000D03*
D13*
X62611000Y-51181000D03*
%TD*%
%TO.C,JP3*%
X62611000Y-48641000D03*
D10*
X60071000Y-48641000D03*
X57531000Y-48641000D03*
%TD*%
%TO.C,JP4*%
X57531000Y-46101000D03*
X60071000Y-46101000D03*
D13*
X62611000Y-46101000D03*
%TD*%
D14*
%TO.C,C12*%
X64738500Y-85217000D03*
D15*
X66738500Y-85217000D03*
%TD*%
%TO.C,C13*%
X66738500Y-79438500D03*
D14*
X64738500Y-79438500D03*
%TD*%
%TO.C,C14*%
X58833000Y-85217000D03*
D15*
X60833000Y-85217000D03*
%TD*%
%TO.C,C15*%
X60833000Y-79438500D03*
D14*
X58833000Y-79438500D03*
%TD*%
D15*
%TO.C,C16*%
X55054500Y-85217000D03*
D14*
X53054500Y-85217000D03*
%TD*%
%TO.C,C17*%
X52991000Y-79438500D03*
D15*
X54991000Y-79438500D03*
%TD*%
%TO.C,C18*%
X49276000Y-85217000D03*
D14*
X47276000Y-85217000D03*
%TD*%
%TO.C,C19*%
X47212500Y-79438500D03*
D15*
X49212500Y-79438500D03*
%TD*%
D16*
%TO.C,J2*%
X68707000Y-59733000D03*
X70707000Y-56033000D03*
X68707000Y-54233000D03*
X70707000Y-50533000D03*
X68707000Y-48133000D03*
%TD*%
%TO.C,J3*%
X50927000Y-48133000D03*
X52927000Y-50533000D03*
X50927000Y-54233000D03*
X52927000Y-56033000D03*
X50927000Y-59733000D03*
%TD*%
M02*
