%TF.GenerationSoftware,KiCad,Pcbnew,(5.1.9)-1*%
%TF.CreationDate,2021-06-18T12:26:36+07:00*%
%TF.ProjectId,adau1978,61646175-3139-4373-982e-6b696361645f,rev?*%
%TF.SameCoordinates,Original*%
%TF.FileFunction,Legend,Top*%
%TF.FilePolarity,Positive*%
%FSLAX46Y46*%
G04 Gerber Fmt 4.6, Leading zero omitted, Abs format (unit mm)*
G04 Created by KiCad (PCBNEW (5.1.9)-1) date 2021-06-18 12:26:36*
%MOMM*%
%LPD*%
G01*
G04 APERTURE LIST*
%ADD10C,0.300000*%
%ADD11C,0.100000*%
%ADD12C,0.150000*%
%ADD13C,0.120000*%
%ADD14C,0.127000*%
%ADD15C,0.350000*%
%ADD16C,0.010000*%
G04 APERTURE END LIST*
D10*
X74739595Y-125682357D02*
X76263404Y-125682357D01*
X75501500Y-126444261D02*
X75501500Y-124920452D01*
X50276214Y-61734047D02*
X50395261Y-61615000D01*
X50633357Y-61495952D01*
X51228595Y-61495952D01*
X51466690Y-61615000D01*
X51585738Y-61734047D01*
X51704785Y-61972142D01*
X51704785Y-62210238D01*
X51585738Y-62567380D01*
X50157166Y-63995952D01*
X51704785Y-63995952D01*
X69484785Y-64122952D02*
X68056214Y-64122952D01*
X68770500Y-64122952D02*
X68770500Y-61622952D01*
X68532404Y-61980095D01*
X68294309Y-62218190D01*
X68056214Y-62337238D01*
D11*
G36*
X61341000Y-55051000D02*
G01*
X58801000Y-55051000D01*
X58801000Y-44767500D01*
X61341000Y-44767500D01*
X61341000Y-55051000D01*
G37*
X61341000Y-55051000D02*
X58801000Y-55051000D01*
X58801000Y-44767500D01*
X61341000Y-44767500D01*
X61341000Y-55051000D01*
D12*
X73469500Y-52387500D02*
X76073000Y-52387500D01*
X73533000Y-49847500D02*
X76073000Y-49847500D01*
X73533000Y-47307500D02*
X76073000Y-47307500D01*
X73469500Y-55054500D02*
X73469500Y-44767500D01*
X76136500Y-55054500D02*
X73469500Y-55054500D01*
D10*
X76136500Y-44767500D02*
X76136500Y-55054500D01*
X56261000Y-44767500D02*
X76136500Y-44767500D01*
X75025214Y-45906571D02*
X75025214Y-46906571D01*
X74668071Y-45335142D02*
X74310928Y-46406571D01*
X75239500Y-46406571D01*
X74239500Y-47819571D02*
X75168071Y-47819571D01*
X74668071Y-48391000D01*
X74882357Y-48391000D01*
X75025214Y-48462428D01*
X75096642Y-48533857D01*
X75168071Y-48676714D01*
X75168071Y-49033857D01*
X75096642Y-49176714D01*
X75025214Y-49248142D01*
X74882357Y-49319571D01*
X74453785Y-49319571D01*
X74310928Y-49248142D01*
X74239500Y-49176714D01*
X74310928Y-50565928D02*
X74382357Y-50494500D01*
X74525214Y-50423071D01*
X74882357Y-50423071D01*
X75025214Y-50494500D01*
X75096642Y-50565928D01*
X75168071Y-50708785D01*
X75168071Y-50851642D01*
X75096642Y-51065928D01*
X74239500Y-51923071D01*
X75168071Y-51923071D01*
X75168071Y-54463071D02*
X74310928Y-54463071D01*
X74739500Y-54463071D02*
X74739500Y-52963071D01*
X74596642Y-53177357D01*
X74453785Y-53320214D01*
X74310928Y-53391642D01*
X59448000Y-58737357D02*
X59376571Y-58880214D01*
X59376571Y-59094500D01*
X59448000Y-59308785D01*
X59590857Y-59451642D01*
X59733714Y-59523071D01*
X60019428Y-59594500D01*
X60233714Y-59594500D01*
X60519428Y-59523071D01*
X60662285Y-59451642D01*
X60805142Y-59308785D01*
X60876571Y-59094500D01*
X60876571Y-58951642D01*
X60805142Y-58737357D01*
X60733714Y-58665928D01*
X60233714Y-58665928D01*
X60233714Y-58951642D01*
X60876571Y-58023071D02*
X59376571Y-58023071D01*
X60876571Y-57165928D01*
X59376571Y-57165928D01*
X60876571Y-56451642D02*
X59376571Y-56451642D01*
X59376571Y-56094500D01*
X59448000Y-55880214D01*
X59590857Y-55737357D01*
X59733714Y-55665928D01*
X60019428Y-55594500D01*
X60233714Y-55594500D01*
X60519428Y-55665928D01*
X60662285Y-55737357D01*
X60805142Y-55880214D01*
X60876571Y-56094500D01*
X60876571Y-56451642D01*
X63261785Y-55638047D02*
X63261785Y-58138047D01*
X61833214Y-55638047D01*
X61833214Y-58138047D01*
X58122261Y-55574547D02*
X58122261Y-58074547D01*
X57169880Y-58074547D01*
X56931785Y-57955500D01*
X56812738Y-57836452D01*
X56693690Y-57598357D01*
X56693690Y-57241214D01*
X56812738Y-57003119D01*
X56931785Y-56884071D01*
X57169880Y-56765023D01*
X58122261Y-56765023D01*
D12*
X62999880Y-127642690D02*
X61999880Y-127642690D01*
X61999880Y-127261738D01*
X62047500Y-127166500D01*
X62095119Y-127118880D01*
X62190357Y-127071261D01*
X62333214Y-127071261D01*
X62428452Y-127118880D01*
X62476071Y-127166500D01*
X62523690Y-127261738D01*
X62523690Y-127642690D01*
X62999880Y-126499833D02*
X62952261Y-126595071D01*
X62904642Y-126642690D01*
X62809404Y-126690309D01*
X62523690Y-126690309D01*
X62428452Y-126642690D01*
X62380833Y-126595071D01*
X62333214Y-126499833D01*
X62333214Y-126356976D01*
X62380833Y-126261738D01*
X62428452Y-126214119D01*
X62523690Y-126166500D01*
X62809404Y-126166500D01*
X62904642Y-126214119D01*
X62952261Y-126261738D01*
X62999880Y-126356976D01*
X62999880Y-126499833D01*
X62333214Y-125833166D02*
X62999880Y-125642690D01*
X62523690Y-125452214D01*
X62999880Y-125261738D01*
X62333214Y-125071261D01*
X62952261Y-124309357D02*
X62999880Y-124404595D01*
X62999880Y-124595071D01*
X62952261Y-124690309D01*
X62857023Y-124737928D01*
X62476071Y-124737928D01*
X62380833Y-124690309D01*
X62333214Y-124595071D01*
X62333214Y-124404595D01*
X62380833Y-124309357D01*
X62476071Y-124261738D01*
X62571309Y-124261738D01*
X62666547Y-124737928D01*
X62999880Y-123833166D02*
X62333214Y-123833166D01*
X62523690Y-123833166D02*
X62428452Y-123785547D01*
X62380833Y-123737928D01*
X62333214Y-123642690D01*
X62333214Y-123547452D01*
D13*
%TO.C,D5*%
X71695000Y-73917500D02*
X74295000Y-73917500D01*
X71695000Y-75247500D02*
X71695000Y-73917500D01*
X74295000Y-73914000D02*
X76835000Y-73914000D01*
X74295000Y-76454000D02*
X74295000Y-73914000D01*
X71695000Y-76454000D02*
X74295000Y-76454000D01*
X76895000Y-73914000D02*
X76895000Y-115884000D01*
X71695000Y-74041000D02*
X71695000Y-115884000D01*
X71695000Y-115884000D02*
X76895000Y-115884000D01*
%TO.C,C1*%
X51009250Y-121622750D02*
X50221750Y-121622750D01*
X50615500Y-121229000D02*
X50615500Y-122016500D01*
X46422437Y-122256500D02*
X45358000Y-123320937D01*
X51113563Y-122256500D02*
X52178000Y-123320937D01*
X51113563Y-122256500D02*
X49828000Y-122256500D01*
X46422437Y-122256500D02*
X47708000Y-122256500D01*
X45358000Y-123320937D02*
X45358000Y-129076500D01*
X52178000Y-123320937D02*
X52178000Y-129076500D01*
X52178000Y-129076500D02*
X49828000Y-129076500D01*
X45358000Y-129076500D02*
X47708000Y-129076500D01*
%TO.C,C2*%
X64438920Y-73594500D02*
X64720080Y-73594500D01*
X64438920Y-74614500D02*
X64720080Y-74614500D01*
%TO.C,C10*%
X47027000Y-116636748D02*
X47027000Y-118059252D01*
X49747000Y-116636748D02*
X49747000Y-118059252D01*
%TO.C,C11*%
X50480500Y-116699420D02*
X50480500Y-116980580D01*
X51500500Y-116699420D02*
X51500500Y-116980580D01*
%TO.C,C20*%
X53580420Y-109154500D02*
X53861580Y-109154500D01*
X53580420Y-110174500D02*
X53861580Y-110174500D01*
%TO.C,C21*%
X52020080Y-97089500D02*
X51738920Y-97089500D01*
X52020080Y-98109500D02*
X51738920Y-98109500D01*
%TO.C,C22*%
X61475252Y-116930500D02*
X60952748Y-116930500D01*
X61475252Y-118400500D02*
X60952748Y-118400500D01*
%TO.C,C23*%
X61291080Y-119890000D02*
X61009920Y-119890000D01*
X61291080Y-118870000D02*
X61009920Y-118870000D01*
%TO.C,C24*%
X66985248Y-117565500D02*
X67507752Y-117565500D01*
X66985248Y-119035500D02*
X67507752Y-119035500D01*
%TO.C,C25*%
X67105920Y-117096000D02*
X67387080Y-117096000D01*
X67105920Y-116076000D02*
X67387080Y-116076000D01*
%TO.C,C26*%
X69467000Y-113524420D02*
X69467000Y-113805580D01*
X70487000Y-113524420D02*
X70487000Y-113805580D01*
%TO.C,C27*%
X67042420Y-108900500D02*
X67323580Y-108900500D01*
X67042420Y-109920500D02*
X67323580Y-109920500D01*
%TO.C,C28*%
X67042420Y-111381000D02*
X67323580Y-111381000D01*
X67042420Y-110361000D02*
X67323580Y-110361000D01*
%TO.C,C29*%
X47575080Y-94934500D02*
X47293920Y-94934500D01*
X47575080Y-93914500D02*
X47293920Y-93914500D01*
%TO.C,C30*%
X49147000Y-94982420D02*
X49147000Y-95263580D01*
X50167000Y-94982420D02*
X50167000Y-95263580D01*
%TO.C,C31*%
X52020080Y-100201000D02*
X51738920Y-100201000D01*
X52020080Y-101221000D02*
X51738920Y-101221000D01*
%TO.C,C32*%
X52020080Y-93093000D02*
X51738920Y-93093000D01*
X52020080Y-92073000D02*
X51738920Y-92073000D01*
%TO.C,C33*%
X53211000Y-90374080D02*
X53211000Y-90092920D01*
X54231000Y-90374080D02*
X54231000Y-90092920D01*
%TO.C,C34*%
X52020080Y-99760500D02*
X51738920Y-99760500D01*
X52020080Y-98740500D02*
X51738920Y-98740500D01*
%TO.C,C35*%
X52020080Y-93533500D02*
X51738920Y-93533500D01*
X52020080Y-94553500D02*
X51738920Y-94553500D01*
%TO.C,C36*%
X52020080Y-96395000D02*
X51738920Y-96395000D01*
X52020080Y-95375000D02*
X51738920Y-95375000D01*
%TO.C,C37*%
X54671500Y-90374080D02*
X54671500Y-90092920D01*
X55691500Y-90374080D02*
X55691500Y-90092920D01*
%TO.C,C38*%
X55052500Y-102094420D02*
X55052500Y-102375580D01*
X56072500Y-102094420D02*
X56072500Y-102375580D01*
%TO.C,C39*%
X61216000Y-90374080D02*
X61216000Y-90092920D01*
X60196000Y-90374080D02*
X60196000Y-90092920D01*
%TO.C,D2*%
X56823500Y-123577000D02*
X56823500Y-129277000D01*
X52523500Y-123577000D02*
X52523500Y-129277000D01*
X56823500Y-123577000D02*
X52523500Y-123577000D01*
%TO.C,D3*%
X54149500Y-115275000D02*
X54149500Y-119125000D01*
X52149500Y-115275000D02*
X52149500Y-119125000D01*
X54149500Y-115275000D02*
X52149500Y-115275000D01*
%TO.C,D4*%
X63282500Y-130834500D02*
X63282500Y-128549500D01*
X61812500Y-130834500D02*
X63282500Y-130834500D01*
X61812500Y-128549500D02*
X61812500Y-130834500D01*
%TO.C,J1*%
X63708000Y-130693500D02*
X64208000Y-130693500D01*
X63708000Y-129953500D02*
X63708000Y-130693500D01*
X70401000Y-126816500D02*
X70354000Y-126862500D01*
X72698000Y-124518500D02*
X72663000Y-124554500D01*
X70594000Y-127032500D02*
X70559000Y-127067500D01*
X72903000Y-124724500D02*
X72856000Y-124770500D01*
X74228000Y-120532500D02*
X74228000Y-130453500D01*
X63948000Y-120532500D02*
X63948000Y-130453500D01*
X63948000Y-130453500D02*
X74228000Y-130453500D01*
X63948000Y-120532500D02*
X74228000Y-120532500D01*
X63948000Y-123492500D02*
X74228000Y-123492500D01*
X63948000Y-128393500D02*
X74228000Y-128393500D01*
X63948000Y-129893500D02*
X74228000Y-129893500D01*
X73308000Y-125793500D02*
G75*
G03*
X73308000Y-125793500I-1680000J0D01*
G01*
X67231318Y-127328256D02*
G75*
G02*
X66548000Y-127473500I-683318J1534756D01*
G01*
X68083426Y-125110458D02*
G75*
G02*
X68083000Y-126477500I-1535426J-683042D01*
G01*
X65864958Y-124258074D02*
G75*
G02*
X67232000Y-124258500I683042J-1535426D01*
G01*
X65012574Y-126476542D02*
G75*
G02*
X65013000Y-125109500I1535426J683042D01*
G01*
X66576805Y-127473753D02*
G75*
G02*
X65864000Y-127328500I-28805J1680253D01*
G01*
%TO.C,L1*%
X61758500Y-116432000D02*
X61758500Y-115171500D01*
X55208500Y-116432000D02*
X61758500Y-116432000D01*
X55208500Y-115171500D02*
X55208500Y-116432000D01*
X61758500Y-109882000D02*
X61758500Y-111142500D01*
X55208500Y-109882000D02*
X61758500Y-109882000D01*
X55208500Y-111142500D02*
X55208500Y-109882000D01*
%TO.C,R1*%
X64819000Y-72119258D02*
X64819000Y-71644742D01*
X65864000Y-72119258D02*
X65864000Y-71644742D01*
%TO.C,R9*%
X64342242Y-75042500D02*
X64816758Y-75042500D01*
X64342242Y-76087500D02*
X64816758Y-76087500D01*
%TO.C,R17*%
X48467242Y-110568000D02*
X48941758Y-110568000D01*
X48467242Y-109523000D02*
X48941758Y-109523000D01*
%TO.C,R18*%
X48941758Y-110983500D02*
X48467242Y-110983500D01*
X48941758Y-112028500D02*
X48467242Y-112028500D01*
%TO.C,R19*%
X49132258Y-97868000D02*
X48657742Y-97868000D01*
X49132258Y-96823000D02*
X48657742Y-96823000D01*
%TO.C,R20*%
X61355500Y-101997742D02*
X61355500Y-102472258D01*
X60310500Y-101997742D02*
X60310500Y-102472258D01*
%TO.C,R21*%
X58850000Y-101997742D02*
X58850000Y-102472258D01*
X59895000Y-101997742D02*
X59895000Y-102472258D01*
%TO.C,R22*%
X61390000Y-121365242D02*
X61390000Y-121839758D01*
X62435000Y-121365242D02*
X62435000Y-121839758D01*
%TO.C,R23*%
X47671758Y-95362500D02*
X47197242Y-95362500D01*
X47671758Y-96407500D02*
X47197242Y-96407500D01*
%TO.C,R24*%
X51642242Y-101649000D02*
X52116758Y-101649000D01*
X51642242Y-102694000D02*
X52116758Y-102694000D01*
%TO.C,U1*%
X53453000Y-113783000D02*
X53453000Y-111353000D01*
X50383000Y-112023000D02*
X50383000Y-113783000D01*
%TO.C,U3*%
X65763500Y-112765000D02*
X65763500Y-115215000D01*
X68983500Y-114565000D02*
X68983500Y-112765000D01*
%TO.C,U2*%
X55128259Y-93025499D02*
X54671499Y-93025499D01*
X61025501Y-93482259D02*
X61025501Y-93025499D01*
X60568741Y-99379501D02*
X61025501Y-99379501D01*
X54671499Y-98922741D02*
X54671499Y-99379501D01*
X54671499Y-99379501D02*
X55128259Y-99379501D01*
X54671499Y-93025499D02*
X54671499Y-93482259D01*
X61025501Y-93025499D02*
X60568741Y-93025499D01*
X61025501Y-99379501D02*
X61025501Y-98922741D01*
%TO.C,F1*%
X56611436Y-122449000D02*
X57815564Y-122449000D01*
X56611436Y-120629000D02*
X57815564Y-120629000D01*
%TO.C,D1*%
X61141500Y-123577000D02*
X61141500Y-129277000D01*
X56841500Y-123577000D02*
X56841500Y-129277000D01*
X61141500Y-123577000D02*
X56841500Y-123577000D01*
%TO.C,C3*%
X67423420Y-74614500D02*
X67704580Y-74614500D01*
X67423420Y-73594500D02*
X67704580Y-73594500D01*
%TO.C,C4*%
X58469920Y-73594500D02*
X58751080Y-73594500D01*
X58469920Y-74614500D02*
X58751080Y-74614500D01*
%TO.C,C5*%
X61467420Y-74614500D02*
X61748580Y-74614500D01*
X61467420Y-73594500D02*
X61748580Y-73594500D01*
%TO.C,C6*%
X52564420Y-73594500D02*
X52845580Y-73594500D01*
X52564420Y-74614500D02*
X52845580Y-74614500D01*
%TO.C,C7*%
X55548920Y-74614500D02*
X55830080Y-74614500D01*
X55548920Y-73594500D02*
X55830080Y-73594500D01*
%TO.C,C8*%
X46595420Y-76075000D02*
X46876580Y-76075000D01*
X46595420Y-75055000D02*
X46876580Y-75055000D01*
%TO.C,C9*%
X49579920Y-75055000D02*
X49861080Y-75055000D01*
X49579920Y-76075000D02*
X49861080Y-76075000D01*
%TO.C,JP1*%
X63941000Y-52391000D02*
X63941000Y-53721000D01*
X62611000Y-52391000D02*
X63941000Y-52391000D01*
X61341000Y-52391000D02*
X61341000Y-55051000D01*
X61341000Y-55051000D02*
X56201000Y-55051000D01*
X61341000Y-52391000D02*
X56201000Y-52391000D01*
X56201000Y-52391000D02*
X56201000Y-55051000D01*
%TO.C,JP2*%
X56201000Y-49851000D02*
X56201000Y-52511000D01*
X61341000Y-49851000D02*
X56201000Y-49851000D01*
X61341000Y-52511000D02*
X56201000Y-52511000D01*
X61341000Y-49851000D02*
X61341000Y-52511000D01*
X62611000Y-49851000D02*
X63941000Y-49851000D01*
X63941000Y-49851000D02*
X63941000Y-51181000D01*
%TO.C,JP3*%
X63941000Y-47311000D02*
X63941000Y-48641000D01*
X62611000Y-47311000D02*
X63941000Y-47311000D01*
X61341000Y-47311000D02*
X61341000Y-49971000D01*
X61341000Y-49971000D02*
X56201000Y-49971000D01*
X61341000Y-47311000D02*
X56201000Y-47311000D01*
X56201000Y-47311000D02*
X56201000Y-49971000D01*
%TO.C,JP4*%
X56201000Y-44771000D02*
X56201000Y-47431000D01*
X61341000Y-44771000D02*
X56201000Y-44771000D01*
X61341000Y-47431000D02*
X56201000Y-47431000D01*
X61341000Y-44771000D02*
X61341000Y-47431000D01*
X62611000Y-44771000D02*
X63941000Y-44771000D01*
X63941000Y-44771000D02*
X63941000Y-46101000D01*
%TO.C,R2*%
X67324500Y-72119258D02*
X67324500Y-71644742D01*
X66279500Y-72119258D02*
X66279500Y-71644742D01*
%TO.C,R3*%
X58850000Y-72119758D02*
X58850000Y-71645242D01*
X59895000Y-72119758D02*
X59895000Y-71645242D01*
%TO.C,R4*%
X61355500Y-72119758D02*
X61355500Y-71645242D01*
X60310500Y-72119758D02*
X60310500Y-71645242D01*
%TO.C,R5*%
X52944500Y-72119258D02*
X52944500Y-71644742D01*
X53989500Y-72119258D02*
X53989500Y-71644742D01*
%TO.C,R6*%
X54405000Y-72119758D02*
X54405000Y-71645242D01*
X55450000Y-72119758D02*
X55450000Y-71645242D01*
%TO.C,R7*%
X48020500Y-72119258D02*
X48020500Y-71644742D01*
X46975500Y-72119258D02*
X46975500Y-71644742D01*
%TO.C,R8*%
X48436000Y-72119258D02*
X48436000Y-71644742D01*
X49481000Y-72119258D02*
X49481000Y-71644742D01*
%TO.C,R10*%
X67326742Y-75042500D02*
X67801258Y-75042500D01*
X67326742Y-76087500D02*
X67801258Y-76087500D01*
%TO.C,R11*%
X58373242Y-76087500D02*
X58847758Y-76087500D01*
X58373242Y-75042500D02*
X58847758Y-75042500D01*
%TO.C,R12*%
X61357242Y-75042500D02*
X61831758Y-75042500D01*
X61357242Y-76087500D02*
X61831758Y-76087500D01*
%TO.C,R13*%
X52467742Y-76087500D02*
X52942258Y-76087500D01*
X52467742Y-75042500D02*
X52942258Y-75042500D01*
%TO.C,R14*%
X55452242Y-75042500D02*
X55926758Y-75042500D01*
X55452242Y-76087500D02*
X55926758Y-76087500D01*
%TO.C,R15*%
X46498742Y-74627000D02*
X46973258Y-74627000D01*
X46498742Y-73582000D02*
X46973258Y-73582000D01*
%TO.C,R16*%
X49483242Y-74627000D02*
X49957758Y-74627000D01*
X49483242Y-73582000D02*
X49957758Y-73582000D01*
%TO.C,C12*%
X68358500Y-85217000D02*
G75*
G03*
X68358500Y-85217000I-2620000J0D01*
G01*
X65738500Y-84177000D02*
X65738500Y-82637000D01*
X65738500Y-87797000D02*
X65738500Y-86257000D01*
X65698500Y-84177000D02*
X65698500Y-82637000D01*
X65698500Y-87797000D02*
X65698500Y-86257000D01*
X65658500Y-87796000D02*
X65658500Y-86257000D01*
X65658500Y-84177000D02*
X65658500Y-82638000D01*
X65618500Y-87795000D02*
X65618500Y-86257000D01*
X65618500Y-84177000D02*
X65618500Y-82639000D01*
X65578500Y-87793000D02*
X65578500Y-86257000D01*
X65578500Y-84177000D02*
X65578500Y-82641000D01*
X65538500Y-87790000D02*
X65538500Y-86257000D01*
X65538500Y-84177000D02*
X65538500Y-82644000D01*
X65498500Y-87786000D02*
X65498500Y-86257000D01*
X65498500Y-84177000D02*
X65498500Y-82648000D01*
X65458500Y-87782000D02*
X65458500Y-86257000D01*
X65458500Y-84177000D02*
X65458500Y-82652000D01*
X65418500Y-87778000D02*
X65418500Y-86257000D01*
X65418500Y-84177000D02*
X65418500Y-82656000D01*
X65378500Y-87773000D02*
X65378500Y-86257000D01*
X65378500Y-84177000D02*
X65378500Y-82661000D01*
X65338500Y-87767000D02*
X65338500Y-86257000D01*
X65338500Y-84177000D02*
X65338500Y-82667000D01*
X65298500Y-87760000D02*
X65298500Y-86257000D01*
X65298500Y-84177000D02*
X65298500Y-82674000D01*
X65258500Y-87753000D02*
X65258500Y-86257000D01*
X65258500Y-84177000D02*
X65258500Y-82681000D01*
X65218500Y-87745000D02*
X65218500Y-86257000D01*
X65218500Y-84177000D02*
X65218500Y-82689000D01*
X65178500Y-87737000D02*
X65178500Y-86257000D01*
X65178500Y-84177000D02*
X65178500Y-82697000D01*
X65138500Y-87728000D02*
X65138500Y-86257000D01*
X65138500Y-84177000D02*
X65138500Y-82706000D01*
X65098500Y-87718000D02*
X65098500Y-86257000D01*
X65098500Y-84177000D02*
X65098500Y-82716000D01*
X65058500Y-87708000D02*
X65058500Y-86257000D01*
X65058500Y-84177000D02*
X65058500Y-82726000D01*
X65017500Y-87697000D02*
X65017500Y-86257000D01*
X65017500Y-84177000D02*
X65017500Y-82737000D01*
X64977500Y-87685000D02*
X64977500Y-86257000D01*
X64977500Y-84177000D02*
X64977500Y-82749000D01*
X64937500Y-87672000D02*
X64937500Y-86257000D01*
X64937500Y-84177000D02*
X64937500Y-82762000D01*
X64897500Y-87659000D02*
X64897500Y-86257000D01*
X64897500Y-84177000D02*
X64897500Y-82775000D01*
X64857500Y-87645000D02*
X64857500Y-86257000D01*
X64857500Y-84177000D02*
X64857500Y-82789000D01*
X64817500Y-87631000D02*
X64817500Y-86257000D01*
X64817500Y-84177000D02*
X64817500Y-82803000D01*
X64777500Y-87615000D02*
X64777500Y-86257000D01*
X64777500Y-84177000D02*
X64777500Y-82819000D01*
X64737500Y-87599000D02*
X64737500Y-86257000D01*
X64737500Y-84177000D02*
X64737500Y-82835000D01*
X64697500Y-87582000D02*
X64697500Y-86257000D01*
X64697500Y-84177000D02*
X64697500Y-82852000D01*
X64657500Y-87565000D02*
X64657500Y-86257000D01*
X64657500Y-84177000D02*
X64657500Y-82869000D01*
X64617500Y-87546000D02*
X64617500Y-86257000D01*
X64617500Y-84177000D02*
X64617500Y-82888000D01*
X64577500Y-87527000D02*
X64577500Y-86257000D01*
X64577500Y-84177000D02*
X64577500Y-82907000D01*
X64537500Y-87507000D02*
X64537500Y-86257000D01*
X64537500Y-84177000D02*
X64537500Y-82927000D01*
X64497500Y-87485000D02*
X64497500Y-86257000D01*
X64497500Y-84177000D02*
X64497500Y-82949000D01*
X64457500Y-87464000D02*
X64457500Y-86257000D01*
X64457500Y-84177000D02*
X64457500Y-82970000D01*
X64417500Y-87441000D02*
X64417500Y-86257000D01*
X64417500Y-84177000D02*
X64417500Y-82993000D01*
X64377500Y-87417000D02*
X64377500Y-86257000D01*
X64377500Y-84177000D02*
X64377500Y-83017000D01*
X64337500Y-87392000D02*
X64337500Y-86257000D01*
X64337500Y-84177000D02*
X64337500Y-83042000D01*
X64297500Y-87366000D02*
X64297500Y-86257000D01*
X64297500Y-84177000D02*
X64297500Y-83068000D01*
X64257500Y-87339000D02*
X64257500Y-86257000D01*
X64257500Y-84177000D02*
X64257500Y-83095000D01*
X64217500Y-87312000D02*
X64217500Y-86257000D01*
X64217500Y-84177000D02*
X64217500Y-83122000D01*
X64177500Y-87282000D02*
X64177500Y-86257000D01*
X64177500Y-84177000D02*
X64177500Y-83152000D01*
X64137500Y-87252000D02*
X64137500Y-86257000D01*
X64137500Y-84177000D02*
X64137500Y-83182000D01*
X64097500Y-87221000D02*
X64097500Y-86257000D01*
X64097500Y-84177000D02*
X64097500Y-83213000D01*
X64057500Y-87188000D02*
X64057500Y-86257000D01*
X64057500Y-84177000D02*
X64057500Y-83246000D01*
X64017500Y-87154000D02*
X64017500Y-86257000D01*
X64017500Y-84177000D02*
X64017500Y-83280000D01*
X63977500Y-87118000D02*
X63977500Y-86257000D01*
X63977500Y-84177000D02*
X63977500Y-83316000D01*
X63937500Y-87081000D02*
X63937500Y-86257000D01*
X63937500Y-84177000D02*
X63937500Y-83353000D01*
X63897500Y-87043000D02*
X63897500Y-86257000D01*
X63897500Y-84177000D02*
X63897500Y-83391000D01*
X63857500Y-87002000D02*
X63857500Y-86257000D01*
X63857500Y-84177000D02*
X63857500Y-83432000D01*
X63817500Y-86960000D02*
X63817500Y-86257000D01*
X63817500Y-84177000D02*
X63817500Y-83474000D01*
X63777500Y-86916000D02*
X63777500Y-86257000D01*
X63777500Y-84177000D02*
X63777500Y-83518000D01*
X63737500Y-86870000D02*
X63737500Y-86257000D01*
X63737500Y-84177000D02*
X63737500Y-83564000D01*
X63697500Y-86822000D02*
X63697500Y-83612000D01*
X63657500Y-86771000D02*
X63657500Y-83663000D01*
X63617500Y-86717000D02*
X63617500Y-83717000D01*
X63577500Y-86660000D02*
X63577500Y-83774000D01*
X63537500Y-86600000D02*
X63537500Y-83834000D01*
X63497500Y-86536000D02*
X63497500Y-83898000D01*
X63457500Y-86468000D02*
X63457500Y-83966000D01*
X63417500Y-86395000D02*
X63417500Y-84039000D01*
X63377500Y-86315000D02*
X63377500Y-84119000D01*
X63337500Y-86228000D02*
X63337500Y-84206000D01*
X63297500Y-86132000D02*
X63297500Y-84302000D01*
X63257500Y-86022000D02*
X63257500Y-84412000D01*
X63217500Y-85894000D02*
X63217500Y-84540000D01*
X63177500Y-85735000D02*
X63177500Y-84699000D01*
X63137500Y-85501000D02*
X63137500Y-84933000D01*
X68543275Y-86692000D02*
X68043275Y-86692000D01*
X68293275Y-86942000D02*
X68293275Y-86442000D01*
%TO.C,C13*%
X68293275Y-81163500D02*
X68293275Y-80663500D01*
X68543275Y-80913500D02*
X68043275Y-80913500D01*
X63137500Y-79722500D02*
X63137500Y-79154500D01*
X63177500Y-79956500D02*
X63177500Y-78920500D01*
X63217500Y-80115500D02*
X63217500Y-78761500D01*
X63257500Y-80243500D02*
X63257500Y-78633500D01*
X63297500Y-80353500D02*
X63297500Y-78523500D01*
X63337500Y-80449500D02*
X63337500Y-78427500D01*
X63377500Y-80536500D02*
X63377500Y-78340500D01*
X63417500Y-80616500D02*
X63417500Y-78260500D01*
X63457500Y-80689500D02*
X63457500Y-78187500D01*
X63497500Y-80757500D02*
X63497500Y-78119500D01*
X63537500Y-80821500D02*
X63537500Y-78055500D01*
X63577500Y-80881500D02*
X63577500Y-77995500D01*
X63617500Y-80938500D02*
X63617500Y-77938500D01*
X63657500Y-80992500D02*
X63657500Y-77884500D01*
X63697500Y-81043500D02*
X63697500Y-77833500D01*
X63737500Y-78398500D02*
X63737500Y-77785500D01*
X63737500Y-81091500D02*
X63737500Y-80478500D01*
X63777500Y-78398500D02*
X63777500Y-77739500D01*
X63777500Y-81137500D02*
X63777500Y-80478500D01*
X63817500Y-78398500D02*
X63817500Y-77695500D01*
X63817500Y-81181500D02*
X63817500Y-80478500D01*
X63857500Y-78398500D02*
X63857500Y-77653500D01*
X63857500Y-81223500D02*
X63857500Y-80478500D01*
X63897500Y-78398500D02*
X63897500Y-77612500D01*
X63897500Y-81264500D02*
X63897500Y-80478500D01*
X63937500Y-78398500D02*
X63937500Y-77574500D01*
X63937500Y-81302500D02*
X63937500Y-80478500D01*
X63977500Y-78398500D02*
X63977500Y-77537500D01*
X63977500Y-81339500D02*
X63977500Y-80478500D01*
X64017500Y-78398500D02*
X64017500Y-77501500D01*
X64017500Y-81375500D02*
X64017500Y-80478500D01*
X64057500Y-78398500D02*
X64057500Y-77467500D01*
X64057500Y-81409500D02*
X64057500Y-80478500D01*
X64097500Y-78398500D02*
X64097500Y-77434500D01*
X64097500Y-81442500D02*
X64097500Y-80478500D01*
X64137500Y-78398500D02*
X64137500Y-77403500D01*
X64137500Y-81473500D02*
X64137500Y-80478500D01*
X64177500Y-78398500D02*
X64177500Y-77373500D01*
X64177500Y-81503500D02*
X64177500Y-80478500D01*
X64217500Y-78398500D02*
X64217500Y-77343500D01*
X64217500Y-81533500D02*
X64217500Y-80478500D01*
X64257500Y-78398500D02*
X64257500Y-77316500D01*
X64257500Y-81560500D02*
X64257500Y-80478500D01*
X64297500Y-78398500D02*
X64297500Y-77289500D01*
X64297500Y-81587500D02*
X64297500Y-80478500D01*
X64337500Y-78398500D02*
X64337500Y-77263500D01*
X64337500Y-81613500D02*
X64337500Y-80478500D01*
X64377500Y-78398500D02*
X64377500Y-77238500D01*
X64377500Y-81638500D02*
X64377500Y-80478500D01*
X64417500Y-78398500D02*
X64417500Y-77214500D01*
X64417500Y-81662500D02*
X64417500Y-80478500D01*
X64457500Y-78398500D02*
X64457500Y-77191500D01*
X64457500Y-81685500D02*
X64457500Y-80478500D01*
X64497500Y-78398500D02*
X64497500Y-77170500D01*
X64497500Y-81706500D02*
X64497500Y-80478500D01*
X64537500Y-78398500D02*
X64537500Y-77148500D01*
X64537500Y-81728500D02*
X64537500Y-80478500D01*
X64577500Y-78398500D02*
X64577500Y-77128500D01*
X64577500Y-81748500D02*
X64577500Y-80478500D01*
X64617500Y-78398500D02*
X64617500Y-77109500D01*
X64617500Y-81767500D02*
X64617500Y-80478500D01*
X64657500Y-78398500D02*
X64657500Y-77090500D01*
X64657500Y-81786500D02*
X64657500Y-80478500D01*
X64697500Y-78398500D02*
X64697500Y-77073500D01*
X64697500Y-81803500D02*
X64697500Y-80478500D01*
X64737500Y-78398500D02*
X64737500Y-77056500D01*
X64737500Y-81820500D02*
X64737500Y-80478500D01*
X64777500Y-78398500D02*
X64777500Y-77040500D01*
X64777500Y-81836500D02*
X64777500Y-80478500D01*
X64817500Y-78398500D02*
X64817500Y-77024500D01*
X64817500Y-81852500D02*
X64817500Y-80478500D01*
X64857500Y-78398500D02*
X64857500Y-77010500D01*
X64857500Y-81866500D02*
X64857500Y-80478500D01*
X64897500Y-78398500D02*
X64897500Y-76996500D01*
X64897500Y-81880500D02*
X64897500Y-80478500D01*
X64937500Y-78398500D02*
X64937500Y-76983500D01*
X64937500Y-81893500D02*
X64937500Y-80478500D01*
X64977500Y-78398500D02*
X64977500Y-76970500D01*
X64977500Y-81906500D02*
X64977500Y-80478500D01*
X65017500Y-78398500D02*
X65017500Y-76958500D01*
X65017500Y-81918500D02*
X65017500Y-80478500D01*
X65058500Y-78398500D02*
X65058500Y-76947500D01*
X65058500Y-81929500D02*
X65058500Y-80478500D01*
X65098500Y-78398500D02*
X65098500Y-76937500D01*
X65098500Y-81939500D02*
X65098500Y-80478500D01*
X65138500Y-78398500D02*
X65138500Y-76927500D01*
X65138500Y-81949500D02*
X65138500Y-80478500D01*
X65178500Y-78398500D02*
X65178500Y-76918500D01*
X65178500Y-81958500D02*
X65178500Y-80478500D01*
X65218500Y-78398500D02*
X65218500Y-76910500D01*
X65218500Y-81966500D02*
X65218500Y-80478500D01*
X65258500Y-78398500D02*
X65258500Y-76902500D01*
X65258500Y-81974500D02*
X65258500Y-80478500D01*
X65298500Y-78398500D02*
X65298500Y-76895500D01*
X65298500Y-81981500D02*
X65298500Y-80478500D01*
X65338500Y-78398500D02*
X65338500Y-76888500D01*
X65338500Y-81988500D02*
X65338500Y-80478500D01*
X65378500Y-78398500D02*
X65378500Y-76882500D01*
X65378500Y-81994500D02*
X65378500Y-80478500D01*
X65418500Y-78398500D02*
X65418500Y-76877500D01*
X65418500Y-81999500D02*
X65418500Y-80478500D01*
X65458500Y-78398500D02*
X65458500Y-76873500D01*
X65458500Y-82003500D02*
X65458500Y-80478500D01*
X65498500Y-78398500D02*
X65498500Y-76869500D01*
X65498500Y-82007500D02*
X65498500Y-80478500D01*
X65538500Y-78398500D02*
X65538500Y-76865500D01*
X65538500Y-82011500D02*
X65538500Y-80478500D01*
X65578500Y-78398500D02*
X65578500Y-76862500D01*
X65578500Y-82014500D02*
X65578500Y-80478500D01*
X65618500Y-78398500D02*
X65618500Y-76860500D01*
X65618500Y-82016500D02*
X65618500Y-80478500D01*
X65658500Y-78398500D02*
X65658500Y-76859500D01*
X65658500Y-82017500D02*
X65658500Y-80478500D01*
X65698500Y-82018500D02*
X65698500Y-80478500D01*
X65698500Y-78398500D02*
X65698500Y-76858500D01*
X65738500Y-82018500D02*
X65738500Y-80478500D01*
X65738500Y-78398500D02*
X65738500Y-76858500D01*
X68358500Y-79438500D02*
G75*
G03*
X68358500Y-79438500I-2620000J0D01*
G01*
%TO.C,C14*%
X62453000Y-85217000D02*
G75*
G03*
X62453000Y-85217000I-2620000J0D01*
G01*
X59833000Y-84177000D02*
X59833000Y-82637000D01*
X59833000Y-87797000D02*
X59833000Y-86257000D01*
X59793000Y-84177000D02*
X59793000Y-82637000D01*
X59793000Y-87797000D02*
X59793000Y-86257000D01*
X59753000Y-87796000D02*
X59753000Y-86257000D01*
X59753000Y-84177000D02*
X59753000Y-82638000D01*
X59713000Y-87795000D02*
X59713000Y-86257000D01*
X59713000Y-84177000D02*
X59713000Y-82639000D01*
X59673000Y-87793000D02*
X59673000Y-86257000D01*
X59673000Y-84177000D02*
X59673000Y-82641000D01*
X59633000Y-87790000D02*
X59633000Y-86257000D01*
X59633000Y-84177000D02*
X59633000Y-82644000D01*
X59593000Y-87786000D02*
X59593000Y-86257000D01*
X59593000Y-84177000D02*
X59593000Y-82648000D01*
X59553000Y-87782000D02*
X59553000Y-86257000D01*
X59553000Y-84177000D02*
X59553000Y-82652000D01*
X59513000Y-87778000D02*
X59513000Y-86257000D01*
X59513000Y-84177000D02*
X59513000Y-82656000D01*
X59473000Y-87773000D02*
X59473000Y-86257000D01*
X59473000Y-84177000D02*
X59473000Y-82661000D01*
X59433000Y-87767000D02*
X59433000Y-86257000D01*
X59433000Y-84177000D02*
X59433000Y-82667000D01*
X59393000Y-87760000D02*
X59393000Y-86257000D01*
X59393000Y-84177000D02*
X59393000Y-82674000D01*
X59353000Y-87753000D02*
X59353000Y-86257000D01*
X59353000Y-84177000D02*
X59353000Y-82681000D01*
X59313000Y-87745000D02*
X59313000Y-86257000D01*
X59313000Y-84177000D02*
X59313000Y-82689000D01*
X59273000Y-87737000D02*
X59273000Y-86257000D01*
X59273000Y-84177000D02*
X59273000Y-82697000D01*
X59233000Y-87728000D02*
X59233000Y-86257000D01*
X59233000Y-84177000D02*
X59233000Y-82706000D01*
X59193000Y-87718000D02*
X59193000Y-86257000D01*
X59193000Y-84177000D02*
X59193000Y-82716000D01*
X59153000Y-87708000D02*
X59153000Y-86257000D01*
X59153000Y-84177000D02*
X59153000Y-82726000D01*
X59112000Y-87697000D02*
X59112000Y-86257000D01*
X59112000Y-84177000D02*
X59112000Y-82737000D01*
X59072000Y-87685000D02*
X59072000Y-86257000D01*
X59072000Y-84177000D02*
X59072000Y-82749000D01*
X59032000Y-87672000D02*
X59032000Y-86257000D01*
X59032000Y-84177000D02*
X59032000Y-82762000D01*
X58992000Y-87659000D02*
X58992000Y-86257000D01*
X58992000Y-84177000D02*
X58992000Y-82775000D01*
X58952000Y-87645000D02*
X58952000Y-86257000D01*
X58952000Y-84177000D02*
X58952000Y-82789000D01*
X58912000Y-87631000D02*
X58912000Y-86257000D01*
X58912000Y-84177000D02*
X58912000Y-82803000D01*
X58872000Y-87615000D02*
X58872000Y-86257000D01*
X58872000Y-84177000D02*
X58872000Y-82819000D01*
X58832000Y-87599000D02*
X58832000Y-86257000D01*
X58832000Y-84177000D02*
X58832000Y-82835000D01*
X58792000Y-87582000D02*
X58792000Y-86257000D01*
X58792000Y-84177000D02*
X58792000Y-82852000D01*
X58752000Y-87565000D02*
X58752000Y-86257000D01*
X58752000Y-84177000D02*
X58752000Y-82869000D01*
X58712000Y-87546000D02*
X58712000Y-86257000D01*
X58712000Y-84177000D02*
X58712000Y-82888000D01*
X58672000Y-87527000D02*
X58672000Y-86257000D01*
X58672000Y-84177000D02*
X58672000Y-82907000D01*
X58632000Y-87507000D02*
X58632000Y-86257000D01*
X58632000Y-84177000D02*
X58632000Y-82927000D01*
X58592000Y-87485000D02*
X58592000Y-86257000D01*
X58592000Y-84177000D02*
X58592000Y-82949000D01*
X58552000Y-87464000D02*
X58552000Y-86257000D01*
X58552000Y-84177000D02*
X58552000Y-82970000D01*
X58512000Y-87441000D02*
X58512000Y-86257000D01*
X58512000Y-84177000D02*
X58512000Y-82993000D01*
X58472000Y-87417000D02*
X58472000Y-86257000D01*
X58472000Y-84177000D02*
X58472000Y-83017000D01*
X58432000Y-87392000D02*
X58432000Y-86257000D01*
X58432000Y-84177000D02*
X58432000Y-83042000D01*
X58392000Y-87366000D02*
X58392000Y-86257000D01*
X58392000Y-84177000D02*
X58392000Y-83068000D01*
X58352000Y-87339000D02*
X58352000Y-86257000D01*
X58352000Y-84177000D02*
X58352000Y-83095000D01*
X58312000Y-87312000D02*
X58312000Y-86257000D01*
X58312000Y-84177000D02*
X58312000Y-83122000D01*
X58272000Y-87282000D02*
X58272000Y-86257000D01*
X58272000Y-84177000D02*
X58272000Y-83152000D01*
X58232000Y-87252000D02*
X58232000Y-86257000D01*
X58232000Y-84177000D02*
X58232000Y-83182000D01*
X58192000Y-87221000D02*
X58192000Y-86257000D01*
X58192000Y-84177000D02*
X58192000Y-83213000D01*
X58152000Y-87188000D02*
X58152000Y-86257000D01*
X58152000Y-84177000D02*
X58152000Y-83246000D01*
X58112000Y-87154000D02*
X58112000Y-86257000D01*
X58112000Y-84177000D02*
X58112000Y-83280000D01*
X58072000Y-87118000D02*
X58072000Y-86257000D01*
X58072000Y-84177000D02*
X58072000Y-83316000D01*
X58032000Y-87081000D02*
X58032000Y-86257000D01*
X58032000Y-84177000D02*
X58032000Y-83353000D01*
X57992000Y-87043000D02*
X57992000Y-86257000D01*
X57992000Y-84177000D02*
X57992000Y-83391000D01*
X57952000Y-87002000D02*
X57952000Y-86257000D01*
X57952000Y-84177000D02*
X57952000Y-83432000D01*
X57912000Y-86960000D02*
X57912000Y-86257000D01*
X57912000Y-84177000D02*
X57912000Y-83474000D01*
X57872000Y-86916000D02*
X57872000Y-86257000D01*
X57872000Y-84177000D02*
X57872000Y-83518000D01*
X57832000Y-86870000D02*
X57832000Y-86257000D01*
X57832000Y-84177000D02*
X57832000Y-83564000D01*
X57792000Y-86822000D02*
X57792000Y-83612000D01*
X57752000Y-86771000D02*
X57752000Y-83663000D01*
X57712000Y-86717000D02*
X57712000Y-83717000D01*
X57672000Y-86660000D02*
X57672000Y-83774000D01*
X57632000Y-86600000D02*
X57632000Y-83834000D01*
X57592000Y-86536000D02*
X57592000Y-83898000D01*
X57552000Y-86468000D02*
X57552000Y-83966000D01*
X57512000Y-86395000D02*
X57512000Y-84039000D01*
X57472000Y-86315000D02*
X57472000Y-84119000D01*
X57432000Y-86228000D02*
X57432000Y-84206000D01*
X57392000Y-86132000D02*
X57392000Y-84302000D01*
X57352000Y-86022000D02*
X57352000Y-84412000D01*
X57312000Y-85894000D02*
X57312000Y-84540000D01*
X57272000Y-85735000D02*
X57272000Y-84699000D01*
X57232000Y-85501000D02*
X57232000Y-84933000D01*
X62637775Y-86692000D02*
X62137775Y-86692000D01*
X62387775Y-86942000D02*
X62387775Y-86442000D01*
%TO.C,C15*%
X62387775Y-81163500D02*
X62387775Y-80663500D01*
X62637775Y-80913500D02*
X62137775Y-80913500D01*
X57232000Y-79722500D02*
X57232000Y-79154500D01*
X57272000Y-79956500D02*
X57272000Y-78920500D01*
X57312000Y-80115500D02*
X57312000Y-78761500D01*
X57352000Y-80243500D02*
X57352000Y-78633500D01*
X57392000Y-80353500D02*
X57392000Y-78523500D01*
X57432000Y-80449500D02*
X57432000Y-78427500D01*
X57472000Y-80536500D02*
X57472000Y-78340500D01*
X57512000Y-80616500D02*
X57512000Y-78260500D01*
X57552000Y-80689500D02*
X57552000Y-78187500D01*
X57592000Y-80757500D02*
X57592000Y-78119500D01*
X57632000Y-80821500D02*
X57632000Y-78055500D01*
X57672000Y-80881500D02*
X57672000Y-77995500D01*
X57712000Y-80938500D02*
X57712000Y-77938500D01*
X57752000Y-80992500D02*
X57752000Y-77884500D01*
X57792000Y-81043500D02*
X57792000Y-77833500D01*
X57832000Y-78398500D02*
X57832000Y-77785500D01*
X57832000Y-81091500D02*
X57832000Y-80478500D01*
X57872000Y-78398500D02*
X57872000Y-77739500D01*
X57872000Y-81137500D02*
X57872000Y-80478500D01*
X57912000Y-78398500D02*
X57912000Y-77695500D01*
X57912000Y-81181500D02*
X57912000Y-80478500D01*
X57952000Y-78398500D02*
X57952000Y-77653500D01*
X57952000Y-81223500D02*
X57952000Y-80478500D01*
X57992000Y-78398500D02*
X57992000Y-77612500D01*
X57992000Y-81264500D02*
X57992000Y-80478500D01*
X58032000Y-78398500D02*
X58032000Y-77574500D01*
X58032000Y-81302500D02*
X58032000Y-80478500D01*
X58072000Y-78398500D02*
X58072000Y-77537500D01*
X58072000Y-81339500D02*
X58072000Y-80478500D01*
X58112000Y-78398500D02*
X58112000Y-77501500D01*
X58112000Y-81375500D02*
X58112000Y-80478500D01*
X58152000Y-78398500D02*
X58152000Y-77467500D01*
X58152000Y-81409500D02*
X58152000Y-80478500D01*
X58192000Y-78398500D02*
X58192000Y-77434500D01*
X58192000Y-81442500D02*
X58192000Y-80478500D01*
X58232000Y-78398500D02*
X58232000Y-77403500D01*
X58232000Y-81473500D02*
X58232000Y-80478500D01*
X58272000Y-78398500D02*
X58272000Y-77373500D01*
X58272000Y-81503500D02*
X58272000Y-80478500D01*
X58312000Y-78398500D02*
X58312000Y-77343500D01*
X58312000Y-81533500D02*
X58312000Y-80478500D01*
X58352000Y-78398500D02*
X58352000Y-77316500D01*
X58352000Y-81560500D02*
X58352000Y-80478500D01*
X58392000Y-78398500D02*
X58392000Y-77289500D01*
X58392000Y-81587500D02*
X58392000Y-80478500D01*
X58432000Y-78398500D02*
X58432000Y-77263500D01*
X58432000Y-81613500D02*
X58432000Y-80478500D01*
X58472000Y-78398500D02*
X58472000Y-77238500D01*
X58472000Y-81638500D02*
X58472000Y-80478500D01*
X58512000Y-78398500D02*
X58512000Y-77214500D01*
X58512000Y-81662500D02*
X58512000Y-80478500D01*
X58552000Y-78398500D02*
X58552000Y-77191500D01*
X58552000Y-81685500D02*
X58552000Y-80478500D01*
X58592000Y-78398500D02*
X58592000Y-77170500D01*
X58592000Y-81706500D02*
X58592000Y-80478500D01*
X58632000Y-78398500D02*
X58632000Y-77148500D01*
X58632000Y-81728500D02*
X58632000Y-80478500D01*
X58672000Y-78398500D02*
X58672000Y-77128500D01*
X58672000Y-81748500D02*
X58672000Y-80478500D01*
X58712000Y-78398500D02*
X58712000Y-77109500D01*
X58712000Y-81767500D02*
X58712000Y-80478500D01*
X58752000Y-78398500D02*
X58752000Y-77090500D01*
X58752000Y-81786500D02*
X58752000Y-80478500D01*
X58792000Y-78398500D02*
X58792000Y-77073500D01*
X58792000Y-81803500D02*
X58792000Y-80478500D01*
X58832000Y-78398500D02*
X58832000Y-77056500D01*
X58832000Y-81820500D02*
X58832000Y-80478500D01*
X58872000Y-78398500D02*
X58872000Y-77040500D01*
X58872000Y-81836500D02*
X58872000Y-80478500D01*
X58912000Y-78398500D02*
X58912000Y-77024500D01*
X58912000Y-81852500D02*
X58912000Y-80478500D01*
X58952000Y-78398500D02*
X58952000Y-77010500D01*
X58952000Y-81866500D02*
X58952000Y-80478500D01*
X58992000Y-78398500D02*
X58992000Y-76996500D01*
X58992000Y-81880500D02*
X58992000Y-80478500D01*
X59032000Y-78398500D02*
X59032000Y-76983500D01*
X59032000Y-81893500D02*
X59032000Y-80478500D01*
X59072000Y-78398500D02*
X59072000Y-76970500D01*
X59072000Y-81906500D02*
X59072000Y-80478500D01*
X59112000Y-78398500D02*
X59112000Y-76958500D01*
X59112000Y-81918500D02*
X59112000Y-80478500D01*
X59153000Y-78398500D02*
X59153000Y-76947500D01*
X59153000Y-81929500D02*
X59153000Y-80478500D01*
X59193000Y-78398500D02*
X59193000Y-76937500D01*
X59193000Y-81939500D02*
X59193000Y-80478500D01*
X59233000Y-78398500D02*
X59233000Y-76927500D01*
X59233000Y-81949500D02*
X59233000Y-80478500D01*
X59273000Y-78398500D02*
X59273000Y-76918500D01*
X59273000Y-81958500D02*
X59273000Y-80478500D01*
X59313000Y-78398500D02*
X59313000Y-76910500D01*
X59313000Y-81966500D02*
X59313000Y-80478500D01*
X59353000Y-78398500D02*
X59353000Y-76902500D01*
X59353000Y-81974500D02*
X59353000Y-80478500D01*
X59393000Y-78398500D02*
X59393000Y-76895500D01*
X59393000Y-81981500D02*
X59393000Y-80478500D01*
X59433000Y-78398500D02*
X59433000Y-76888500D01*
X59433000Y-81988500D02*
X59433000Y-80478500D01*
X59473000Y-78398500D02*
X59473000Y-76882500D01*
X59473000Y-81994500D02*
X59473000Y-80478500D01*
X59513000Y-78398500D02*
X59513000Y-76877500D01*
X59513000Y-81999500D02*
X59513000Y-80478500D01*
X59553000Y-78398500D02*
X59553000Y-76873500D01*
X59553000Y-82003500D02*
X59553000Y-80478500D01*
X59593000Y-78398500D02*
X59593000Y-76869500D01*
X59593000Y-82007500D02*
X59593000Y-80478500D01*
X59633000Y-78398500D02*
X59633000Y-76865500D01*
X59633000Y-82011500D02*
X59633000Y-80478500D01*
X59673000Y-78398500D02*
X59673000Y-76862500D01*
X59673000Y-82014500D02*
X59673000Y-80478500D01*
X59713000Y-78398500D02*
X59713000Y-76860500D01*
X59713000Y-82016500D02*
X59713000Y-80478500D01*
X59753000Y-78398500D02*
X59753000Y-76859500D01*
X59753000Y-82017500D02*
X59753000Y-80478500D01*
X59793000Y-82018500D02*
X59793000Y-80478500D01*
X59793000Y-78398500D02*
X59793000Y-76858500D01*
X59833000Y-82018500D02*
X59833000Y-80478500D01*
X59833000Y-78398500D02*
X59833000Y-76858500D01*
X62453000Y-79438500D02*
G75*
G03*
X62453000Y-79438500I-2620000J0D01*
G01*
%TO.C,C16*%
X56609275Y-86942000D02*
X56609275Y-86442000D01*
X56859275Y-86692000D02*
X56359275Y-86692000D01*
X51453500Y-85501000D02*
X51453500Y-84933000D01*
X51493500Y-85735000D02*
X51493500Y-84699000D01*
X51533500Y-85894000D02*
X51533500Y-84540000D01*
X51573500Y-86022000D02*
X51573500Y-84412000D01*
X51613500Y-86132000D02*
X51613500Y-84302000D01*
X51653500Y-86228000D02*
X51653500Y-84206000D01*
X51693500Y-86315000D02*
X51693500Y-84119000D01*
X51733500Y-86395000D02*
X51733500Y-84039000D01*
X51773500Y-86468000D02*
X51773500Y-83966000D01*
X51813500Y-86536000D02*
X51813500Y-83898000D01*
X51853500Y-86600000D02*
X51853500Y-83834000D01*
X51893500Y-86660000D02*
X51893500Y-83774000D01*
X51933500Y-86717000D02*
X51933500Y-83717000D01*
X51973500Y-86771000D02*
X51973500Y-83663000D01*
X52013500Y-86822000D02*
X52013500Y-83612000D01*
X52053500Y-84177000D02*
X52053500Y-83564000D01*
X52053500Y-86870000D02*
X52053500Y-86257000D01*
X52093500Y-84177000D02*
X52093500Y-83518000D01*
X52093500Y-86916000D02*
X52093500Y-86257000D01*
X52133500Y-84177000D02*
X52133500Y-83474000D01*
X52133500Y-86960000D02*
X52133500Y-86257000D01*
X52173500Y-84177000D02*
X52173500Y-83432000D01*
X52173500Y-87002000D02*
X52173500Y-86257000D01*
X52213500Y-84177000D02*
X52213500Y-83391000D01*
X52213500Y-87043000D02*
X52213500Y-86257000D01*
X52253500Y-84177000D02*
X52253500Y-83353000D01*
X52253500Y-87081000D02*
X52253500Y-86257000D01*
X52293500Y-84177000D02*
X52293500Y-83316000D01*
X52293500Y-87118000D02*
X52293500Y-86257000D01*
X52333500Y-84177000D02*
X52333500Y-83280000D01*
X52333500Y-87154000D02*
X52333500Y-86257000D01*
X52373500Y-84177000D02*
X52373500Y-83246000D01*
X52373500Y-87188000D02*
X52373500Y-86257000D01*
X52413500Y-84177000D02*
X52413500Y-83213000D01*
X52413500Y-87221000D02*
X52413500Y-86257000D01*
X52453500Y-84177000D02*
X52453500Y-83182000D01*
X52453500Y-87252000D02*
X52453500Y-86257000D01*
X52493500Y-84177000D02*
X52493500Y-83152000D01*
X52493500Y-87282000D02*
X52493500Y-86257000D01*
X52533500Y-84177000D02*
X52533500Y-83122000D01*
X52533500Y-87312000D02*
X52533500Y-86257000D01*
X52573500Y-84177000D02*
X52573500Y-83095000D01*
X52573500Y-87339000D02*
X52573500Y-86257000D01*
X52613500Y-84177000D02*
X52613500Y-83068000D01*
X52613500Y-87366000D02*
X52613500Y-86257000D01*
X52653500Y-84177000D02*
X52653500Y-83042000D01*
X52653500Y-87392000D02*
X52653500Y-86257000D01*
X52693500Y-84177000D02*
X52693500Y-83017000D01*
X52693500Y-87417000D02*
X52693500Y-86257000D01*
X52733500Y-84177000D02*
X52733500Y-82993000D01*
X52733500Y-87441000D02*
X52733500Y-86257000D01*
X52773500Y-84177000D02*
X52773500Y-82970000D01*
X52773500Y-87464000D02*
X52773500Y-86257000D01*
X52813500Y-84177000D02*
X52813500Y-82949000D01*
X52813500Y-87485000D02*
X52813500Y-86257000D01*
X52853500Y-84177000D02*
X52853500Y-82927000D01*
X52853500Y-87507000D02*
X52853500Y-86257000D01*
X52893500Y-84177000D02*
X52893500Y-82907000D01*
X52893500Y-87527000D02*
X52893500Y-86257000D01*
X52933500Y-84177000D02*
X52933500Y-82888000D01*
X52933500Y-87546000D02*
X52933500Y-86257000D01*
X52973500Y-84177000D02*
X52973500Y-82869000D01*
X52973500Y-87565000D02*
X52973500Y-86257000D01*
X53013500Y-84177000D02*
X53013500Y-82852000D01*
X53013500Y-87582000D02*
X53013500Y-86257000D01*
X53053500Y-84177000D02*
X53053500Y-82835000D01*
X53053500Y-87599000D02*
X53053500Y-86257000D01*
X53093500Y-84177000D02*
X53093500Y-82819000D01*
X53093500Y-87615000D02*
X53093500Y-86257000D01*
X53133500Y-84177000D02*
X53133500Y-82803000D01*
X53133500Y-87631000D02*
X53133500Y-86257000D01*
X53173500Y-84177000D02*
X53173500Y-82789000D01*
X53173500Y-87645000D02*
X53173500Y-86257000D01*
X53213500Y-84177000D02*
X53213500Y-82775000D01*
X53213500Y-87659000D02*
X53213500Y-86257000D01*
X53253500Y-84177000D02*
X53253500Y-82762000D01*
X53253500Y-87672000D02*
X53253500Y-86257000D01*
X53293500Y-84177000D02*
X53293500Y-82749000D01*
X53293500Y-87685000D02*
X53293500Y-86257000D01*
X53333500Y-84177000D02*
X53333500Y-82737000D01*
X53333500Y-87697000D02*
X53333500Y-86257000D01*
X53374500Y-84177000D02*
X53374500Y-82726000D01*
X53374500Y-87708000D02*
X53374500Y-86257000D01*
X53414500Y-84177000D02*
X53414500Y-82716000D01*
X53414500Y-87718000D02*
X53414500Y-86257000D01*
X53454500Y-84177000D02*
X53454500Y-82706000D01*
X53454500Y-87728000D02*
X53454500Y-86257000D01*
X53494500Y-84177000D02*
X53494500Y-82697000D01*
X53494500Y-87737000D02*
X53494500Y-86257000D01*
X53534500Y-84177000D02*
X53534500Y-82689000D01*
X53534500Y-87745000D02*
X53534500Y-86257000D01*
X53574500Y-84177000D02*
X53574500Y-82681000D01*
X53574500Y-87753000D02*
X53574500Y-86257000D01*
X53614500Y-84177000D02*
X53614500Y-82674000D01*
X53614500Y-87760000D02*
X53614500Y-86257000D01*
X53654500Y-84177000D02*
X53654500Y-82667000D01*
X53654500Y-87767000D02*
X53654500Y-86257000D01*
X53694500Y-84177000D02*
X53694500Y-82661000D01*
X53694500Y-87773000D02*
X53694500Y-86257000D01*
X53734500Y-84177000D02*
X53734500Y-82656000D01*
X53734500Y-87778000D02*
X53734500Y-86257000D01*
X53774500Y-84177000D02*
X53774500Y-82652000D01*
X53774500Y-87782000D02*
X53774500Y-86257000D01*
X53814500Y-84177000D02*
X53814500Y-82648000D01*
X53814500Y-87786000D02*
X53814500Y-86257000D01*
X53854500Y-84177000D02*
X53854500Y-82644000D01*
X53854500Y-87790000D02*
X53854500Y-86257000D01*
X53894500Y-84177000D02*
X53894500Y-82641000D01*
X53894500Y-87793000D02*
X53894500Y-86257000D01*
X53934500Y-84177000D02*
X53934500Y-82639000D01*
X53934500Y-87795000D02*
X53934500Y-86257000D01*
X53974500Y-84177000D02*
X53974500Y-82638000D01*
X53974500Y-87796000D02*
X53974500Y-86257000D01*
X54014500Y-87797000D02*
X54014500Y-86257000D01*
X54014500Y-84177000D02*
X54014500Y-82637000D01*
X54054500Y-87797000D02*
X54054500Y-86257000D01*
X54054500Y-84177000D02*
X54054500Y-82637000D01*
X56674500Y-85217000D02*
G75*
G03*
X56674500Y-85217000I-2620000J0D01*
G01*
%TO.C,C17*%
X56611000Y-79438500D02*
G75*
G03*
X56611000Y-79438500I-2620000J0D01*
G01*
X53991000Y-78398500D02*
X53991000Y-76858500D01*
X53991000Y-82018500D02*
X53991000Y-80478500D01*
X53951000Y-78398500D02*
X53951000Y-76858500D01*
X53951000Y-82018500D02*
X53951000Y-80478500D01*
X53911000Y-82017500D02*
X53911000Y-80478500D01*
X53911000Y-78398500D02*
X53911000Y-76859500D01*
X53871000Y-82016500D02*
X53871000Y-80478500D01*
X53871000Y-78398500D02*
X53871000Y-76860500D01*
X53831000Y-82014500D02*
X53831000Y-80478500D01*
X53831000Y-78398500D02*
X53831000Y-76862500D01*
X53791000Y-82011500D02*
X53791000Y-80478500D01*
X53791000Y-78398500D02*
X53791000Y-76865500D01*
X53751000Y-82007500D02*
X53751000Y-80478500D01*
X53751000Y-78398500D02*
X53751000Y-76869500D01*
X53711000Y-82003500D02*
X53711000Y-80478500D01*
X53711000Y-78398500D02*
X53711000Y-76873500D01*
X53671000Y-81999500D02*
X53671000Y-80478500D01*
X53671000Y-78398500D02*
X53671000Y-76877500D01*
X53631000Y-81994500D02*
X53631000Y-80478500D01*
X53631000Y-78398500D02*
X53631000Y-76882500D01*
X53591000Y-81988500D02*
X53591000Y-80478500D01*
X53591000Y-78398500D02*
X53591000Y-76888500D01*
X53551000Y-81981500D02*
X53551000Y-80478500D01*
X53551000Y-78398500D02*
X53551000Y-76895500D01*
X53511000Y-81974500D02*
X53511000Y-80478500D01*
X53511000Y-78398500D02*
X53511000Y-76902500D01*
X53471000Y-81966500D02*
X53471000Y-80478500D01*
X53471000Y-78398500D02*
X53471000Y-76910500D01*
X53431000Y-81958500D02*
X53431000Y-80478500D01*
X53431000Y-78398500D02*
X53431000Y-76918500D01*
X53391000Y-81949500D02*
X53391000Y-80478500D01*
X53391000Y-78398500D02*
X53391000Y-76927500D01*
X53351000Y-81939500D02*
X53351000Y-80478500D01*
X53351000Y-78398500D02*
X53351000Y-76937500D01*
X53311000Y-81929500D02*
X53311000Y-80478500D01*
X53311000Y-78398500D02*
X53311000Y-76947500D01*
X53270000Y-81918500D02*
X53270000Y-80478500D01*
X53270000Y-78398500D02*
X53270000Y-76958500D01*
X53230000Y-81906500D02*
X53230000Y-80478500D01*
X53230000Y-78398500D02*
X53230000Y-76970500D01*
X53190000Y-81893500D02*
X53190000Y-80478500D01*
X53190000Y-78398500D02*
X53190000Y-76983500D01*
X53150000Y-81880500D02*
X53150000Y-80478500D01*
X53150000Y-78398500D02*
X53150000Y-76996500D01*
X53110000Y-81866500D02*
X53110000Y-80478500D01*
X53110000Y-78398500D02*
X53110000Y-77010500D01*
X53070000Y-81852500D02*
X53070000Y-80478500D01*
X53070000Y-78398500D02*
X53070000Y-77024500D01*
X53030000Y-81836500D02*
X53030000Y-80478500D01*
X53030000Y-78398500D02*
X53030000Y-77040500D01*
X52990000Y-81820500D02*
X52990000Y-80478500D01*
X52990000Y-78398500D02*
X52990000Y-77056500D01*
X52950000Y-81803500D02*
X52950000Y-80478500D01*
X52950000Y-78398500D02*
X52950000Y-77073500D01*
X52910000Y-81786500D02*
X52910000Y-80478500D01*
X52910000Y-78398500D02*
X52910000Y-77090500D01*
X52870000Y-81767500D02*
X52870000Y-80478500D01*
X52870000Y-78398500D02*
X52870000Y-77109500D01*
X52830000Y-81748500D02*
X52830000Y-80478500D01*
X52830000Y-78398500D02*
X52830000Y-77128500D01*
X52790000Y-81728500D02*
X52790000Y-80478500D01*
X52790000Y-78398500D02*
X52790000Y-77148500D01*
X52750000Y-81706500D02*
X52750000Y-80478500D01*
X52750000Y-78398500D02*
X52750000Y-77170500D01*
X52710000Y-81685500D02*
X52710000Y-80478500D01*
X52710000Y-78398500D02*
X52710000Y-77191500D01*
X52670000Y-81662500D02*
X52670000Y-80478500D01*
X52670000Y-78398500D02*
X52670000Y-77214500D01*
X52630000Y-81638500D02*
X52630000Y-80478500D01*
X52630000Y-78398500D02*
X52630000Y-77238500D01*
X52590000Y-81613500D02*
X52590000Y-80478500D01*
X52590000Y-78398500D02*
X52590000Y-77263500D01*
X52550000Y-81587500D02*
X52550000Y-80478500D01*
X52550000Y-78398500D02*
X52550000Y-77289500D01*
X52510000Y-81560500D02*
X52510000Y-80478500D01*
X52510000Y-78398500D02*
X52510000Y-77316500D01*
X52470000Y-81533500D02*
X52470000Y-80478500D01*
X52470000Y-78398500D02*
X52470000Y-77343500D01*
X52430000Y-81503500D02*
X52430000Y-80478500D01*
X52430000Y-78398500D02*
X52430000Y-77373500D01*
X52390000Y-81473500D02*
X52390000Y-80478500D01*
X52390000Y-78398500D02*
X52390000Y-77403500D01*
X52350000Y-81442500D02*
X52350000Y-80478500D01*
X52350000Y-78398500D02*
X52350000Y-77434500D01*
X52310000Y-81409500D02*
X52310000Y-80478500D01*
X52310000Y-78398500D02*
X52310000Y-77467500D01*
X52270000Y-81375500D02*
X52270000Y-80478500D01*
X52270000Y-78398500D02*
X52270000Y-77501500D01*
X52230000Y-81339500D02*
X52230000Y-80478500D01*
X52230000Y-78398500D02*
X52230000Y-77537500D01*
X52190000Y-81302500D02*
X52190000Y-80478500D01*
X52190000Y-78398500D02*
X52190000Y-77574500D01*
X52150000Y-81264500D02*
X52150000Y-80478500D01*
X52150000Y-78398500D02*
X52150000Y-77612500D01*
X52110000Y-81223500D02*
X52110000Y-80478500D01*
X52110000Y-78398500D02*
X52110000Y-77653500D01*
X52070000Y-81181500D02*
X52070000Y-80478500D01*
X52070000Y-78398500D02*
X52070000Y-77695500D01*
X52030000Y-81137500D02*
X52030000Y-80478500D01*
X52030000Y-78398500D02*
X52030000Y-77739500D01*
X51990000Y-81091500D02*
X51990000Y-80478500D01*
X51990000Y-78398500D02*
X51990000Y-77785500D01*
X51950000Y-81043500D02*
X51950000Y-77833500D01*
X51910000Y-80992500D02*
X51910000Y-77884500D01*
X51870000Y-80938500D02*
X51870000Y-77938500D01*
X51830000Y-80881500D02*
X51830000Y-77995500D01*
X51790000Y-80821500D02*
X51790000Y-78055500D01*
X51750000Y-80757500D02*
X51750000Y-78119500D01*
X51710000Y-80689500D02*
X51710000Y-78187500D01*
X51670000Y-80616500D02*
X51670000Y-78260500D01*
X51630000Y-80536500D02*
X51630000Y-78340500D01*
X51590000Y-80449500D02*
X51590000Y-78427500D01*
X51550000Y-80353500D02*
X51550000Y-78523500D01*
X51510000Y-80243500D02*
X51510000Y-78633500D01*
X51470000Y-80115500D02*
X51470000Y-78761500D01*
X51430000Y-79956500D02*
X51430000Y-78920500D01*
X51390000Y-79722500D02*
X51390000Y-79154500D01*
X56795775Y-80913500D02*
X56295775Y-80913500D01*
X56545775Y-81163500D02*
X56545775Y-80663500D01*
%TO.C,C18*%
X50830775Y-86942000D02*
X50830775Y-86442000D01*
X51080775Y-86692000D02*
X50580775Y-86692000D01*
X45675000Y-85501000D02*
X45675000Y-84933000D01*
X45715000Y-85735000D02*
X45715000Y-84699000D01*
X45755000Y-85894000D02*
X45755000Y-84540000D01*
X45795000Y-86022000D02*
X45795000Y-84412000D01*
X45835000Y-86132000D02*
X45835000Y-84302000D01*
X45875000Y-86228000D02*
X45875000Y-84206000D01*
X45915000Y-86315000D02*
X45915000Y-84119000D01*
X45955000Y-86395000D02*
X45955000Y-84039000D01*
X45995000Y-86468000D02*
X45995000Y-83966000D01*
X46035000Y-86536000D02*
X46035000Y-83898000D01*
X46075000Y-86600000D02*
X46075000Y-83834000D01*
X46115000Y-86660000D02*
X46115000Y-83774000D01*
X46155000Y-86717000D02*
X46155000Y-83717000D01*
X46195000Y-86771000D02*
X46195000Y-83663000D01*
X46235000Y-86822000D02*
X46235000Y-83612000D01*
X46275000Y-84177000D02*
X46275000Y-83564000D01*
X46275000Y-86870000D02*
X46275000Y-86257000D01*
X46315000Y-84177000D02*
X46315000Y-83518000D01*
X46315000Y-86916000D02*
X46315000Y-86257000D01*
X46355000Y-84177000D02*
X46355000Y-83474000D01*
X46355000Y-86960000D02*
X46355000Y-86257000D01*
X46395000Y-84177000D02*
X46395000Y-83432000D01*
X46395000Y-87002000D02*
X46395000Y-86257000D01*
X46435000Y-84177000D02*
X46435000Y-83391000D01*
X46435000Y-87043000D02*
X46435000Y-86257000D01*
X46475000Y-84177000D02*
X46475000Y-83353000D01*
X46475000Y-87081000D02*
X46475000Y-86257000D01*
X46515000Y-84177000D02*
X46515000Y-83316000D01*
X46515000Y-87118000D02*
X46515000Y-86257000D01*
X46555000Y-84177000D02*
X46555000Y-83280000D01*
X46555000Y-87154000D02*
X46555000Y-86257000D01*
X46595000Y-84177000D02*
X46595000Y-83246000D01*
X46595000Y-87188000D02*
X46595000Y-86257000D01*
X46635000Y-84177000D02*
X46635000Y-83213000D01*
X46635000Y-87221000D02*
X46635000Y-86257000D01*
X46675000Y-84177000D02*
X46675000Y-83182000D01*
X46675000Y-87252000D02*
X46675000Y-86257000D01*
X46715000Y-84177000D02*
X46715000Y-83152000D01*
X46715000Y-87282000D02*
X46715000Y-86257000D01*
X46755000Y-84177000D02*
X46755000Y-83122000D01*
X46755000Y-87312000D02*
X46755000Y-86257000D01*
X46795000Y-84177000D02*
X46795000Y-83095000D01*
X46795000Y-87339000D02*
X46795000Y-86257000D01*
X46835000Y-84177000D02*
X46835000Y-83068000D01*
X46835000Y-87366000D02*
X46835000Y-86257000D01*
X46875000Y-84177000D02*
X46875000Y-83042000D01*
X46875000Y-87392000D02*
X46875000Y-86257000D01*
X46915000Y-84177000D02*
X46915000Y-83017000D01*
X46915000Y-87417000D02*
X46915000Y-86257000D01*
X46955000Y-84177000D02*
X46955000Y-82993000D01*
X46955000Y-87441000D02*
X46955000Y-86257000D01*
X46995000Y-84177000D02*
X46995000Y-82970000D01*
X46995000Y-87464000D02*
X46995000Y-86257000D01*
X47035000Y-84177000D02*
X47035000Y-82949000D01*
X47035000Y-87485000D02*
X47035000Y-86257000D01*
X47075000Y-84177000D02*
X47075000Y-82927000D01*
X47075000Y-87507000D02*
X47075000Y-86257000D01*
X47115000Y-84177000D02*
X47115000Y-82907000D01*
X47115000Y-87527000D02*
X47115000Y-86257000D01*
X47155000Y-84177000D02*
X47155000Y-82888000D01*
X47155000Y-87546000D02*
X47155000Y-86257000D01*
X47195000Y-84177000D02*
X47195000Y-82869000D01*
X47195000Y-87565000D02*
X47195000Y-86257000D01*
X47235000Y-84177000D02*
X47235000Y-82852000D01*
X47235000Y-87582000D02*
X47235000Y-86257000D01*
X47275000Y-84177000D02*
X47275000Y-82835000D01*
X47275000Y-87599000D02*
X47275000Y-86257000D01*
X47315000Y-84177000D02*
X47315000Y-82819000D01*
X47315000Y-87615000D02*
X47315000Y-86257000D01*
X47355000Y-84177000D02*
X47355000Y-82803000D01*
X47355000Y-87631000D02*
X47355000Y-86257000D01*
X47395000Y-84177000D02*
X47395000Y-82789000D01*
X47395000Y-87645000D02*
X47395000Y-86257000D01*
X47435000Y-84177000D02*
X47435000Y-82775000D01*
X47435000Y-87659000D02*
X47435000Y-86257000D01*
X47475000Y-84177000D02*
X47475000Y-82762000D01*
X47475000Y-87672000D02*
X47475000Y-86257000D01*
X47515000Y-84177000D02*
X47515000Y-82749000D01*
X47515000Y-87685000D02*
X47515000Y-86257000D01*
X47555000Y-84177000D02*
X47555000Y-82737000D01*
X47555000Y-87697000D02*
X47555000Y-86257000D01*
X47596000Y-84177000D02*
X47596000Y-82726000D01*
X47596000Y-87708000D02*
X47596000Y-86257000D01*
X47636000Y-84177000D02*
X47636000Y-82716000D01*
X47636000Y-87718000D02*
X47636000Y-86257000D01*
X47676000Y-84177000D02*
X47676000Y-82706000D01*
X47676000Y-87728000D02*
X47676000Y-86257000D01*
X47716000Y-84177000D02*
X47716000Y-82697000D01*
X47716000Y-87737000D02*
X47716000Y-86257000D01*
X47756000Y-84177000D02*
X47756000Y-82689000D01*
X47756000Y-87745000D02*
X47756000Y-86257000D01*
X47796000Y-84177000D02*
X47796000Y-82681000D01*
X47796000Y-87753000D02*
X47796000Y-86257000D01*
X47836000Y-84177000D02*
X47836000Y-82674000D01*
X47836000Y-87760000D02*
X47836000Y-86257000D01*
X47876000Y-84177000D02*
X47876000Y-82667000D01*
X47876000Y-87767000D02*
X47876000Y-86257000D01*
X47916000Y-84177000D02*
X47916000Y-82661000D01*
X47916000Y-87773000D02*
X47916000Y-86257000D01*
X47956000Y-84177000D02*
X47956000Y-82656000D01*
X47956000Y-87778000D02*
X47956000Y-86257000D01*
X47996000Y-84177000D02*
X47996000Y-82652000D01*
X47996000Y-87782000D02*
X47996000Y-86257000D01*
X48036000Y-84177000D02*
X48036000Y-82648000D01*
X48036000Y-87786000D02*
X48036000Y-86257000D01*
X48076000Y-84177000D02*
X48076000Y-82644000D01*
X48076000Y-87790000D02*
X48076000Y-86257000D01*
X48116000Y-84177000D02*
X48116000Y-82641000D01*
X48116000Y-87793000D02*
X48116000Y-86257000D01*
X48156000Y-84177000D02*
X48156000Y-82639000D01*
X48156000Y-87795000D02*
X48156000Y-86257000D01*
X48196000Y-84177000D02*
X48196000Y-82638000D01*
X48196000Y-87796000D02*
X48196000Y-86257000D01*
X48236000Y-87797000D02*
X48236000Y-86257000D01*
X48236000Y-84177000D02*
X48236000Y-82637000D01*
X48276000Y-87797000D02*
X48276000Y-86257000D01*
X48276000Y-84177000D02*
X48276000Y-82637000D01*
X50896000Y-85217000D02*
G75*
G03*
X50896000Y-85217000I-2620000J0D01*
G01*
%TO.C,C19*%
X50832500Y-79438500D02*
G75*
G03*
X50832500Y-79438500I-2620000J0D01*
G01*
X48212500Y-78398500D02*
X48212500Y-76858500D01*
X48212500Y-82018500D02*
X48212500Y-80478500D01*
X48172500Y-78398500D02*
X48172500Y-76858500D01*
X48172500Y-82018500D02*
X48172500Y-80478500D01*
X48132500Y-82017500D02*
X48132500Y-80478500D01*
X48132500Y-78398500D02*
X48132500Y-76859500D01*
X48092500Y-82016500D02*
X48092500Y-80478500D01*
X48092500Y-78398500D02*
X48092500Y-76860500D01*
X48052500Y-82014500D02*
X48052500Y-80478500D01*
X48052500Y-78398500D02*
X48052500Y-76862500D01*
X48012500Y-82011500D02*
X48012500Y-80478500D01*
X48012500Y-78398500D02*
X48012500Y-76865500D01*
X47972500Y-82007500D02*
X47972500Y-80478500D01*
X47972500Y-78398500D02*
X47972500Y-76869500D01*
X47932500Y-82003500D02*
X47932500Y-80478500D01*
X47932500Y-78398500D02*
X47932500Y-76873500D01*
X47892500Y-81999500D02*
X47892500Y-80478500D01*
X47892500Y-78398500D02*
X47892500Y-76877500D01*
X47852500Y-81994500D02*
X47852500Y-80478500D01*
X47852500Y-78398500D02*
X47852500Y-76882500D01*
X47812500Y-81988500D02*
X47812500Y-80478500D01*
X47812500Y-78398500D02*
X47812500Y-76888500D01*
X47772500Y-81981500D02*
X47772500Y-80478500D01*
X47772500Y-78398500D02*
X47772500Y-76895500D01*
X47732500Y-81974500D02*
X47732500Y-80478500D01*
X47732500Y-78398500D02*
X47732500Y-76902500D01*
X47692500Y-81966500D02*
X47692500Y-80478500D01*
X47692500Y-78398500D02*
X47692500Y-76910500D01*
X47652500Y-81958500D02*
X47652500Y-80478500D01*
X47652500Y-78398500D02*
X47652500Y-76918500D01*
X47612500Y-81949500D02*
X47612500Y-80478500D01*
X47612500Y-78398500D02*
X47612500Y-76927500D01*
X47572500Y-81939500D02*
X47572500Y-80478500D01*
X47572500Y-78398500D02*
X47572500Y-76937500D01*
X47532500Y-81929500D02*
X47532500Y-80478500D01*
X47532500Y-78398500D02*
X47532500Y-76947500D01*
X47491500Y-81918500D02*
X47491500Y-80478500D01*
X47491500Y-78398500D02*
X47491500Y-76958500D01*
X47451500Y-81906500D02*
X47451500Y-80478500D01*
X47451500Y-78398500D02*
X47451500Y-76970500D01*
X47411500Y-81893500D02*
X47411500Y-80478500D01*
X47411500Y-78398500D02*
X47411500Y-76983500D01*
X47371500Y-81880500D02*
X47371500Y-80478500D01*
X47371500Y-78398500D02*
X47371500Y-76996500D01*
X47331500Y-81866500D02*
X47331500Y-80478500D01*
X47331500Y-78398500D02*
X47331500Y-77010500D01*
X47291500Y-81852500D02*
X47291500Y-80478500D01*
X47291500Y-78398500D02*
X47291500Y-77024500D01*
X47251500Y-81836500D02*
X47251500Y-80478500D01*
X47251500Y-78398500D02*
X47251500Y-77040500D01*
X47211500Y-81820500D02*
X47211500Y-80478500D01*
X47211500Y-78398500D02*
X47211500Y-77056500D01*
X47171500Y-81803500D02*
X47171500Y-80478500D01*
X47171500Y-78398500D02*
X47171500Y-77073500D01*
X47131500Y-81786500D02*
X47131500Y-80478500D01*
X47131500Y-78398500D02*
X47131500Y-77090500D01*
X47091500Y-81767500D02*
X47091500Y-80478500D01*
X47091500Y-78398500D02*
X47091500Y-77109500D01*
X47051500Y-81748500D02*
X47051500Y-80478500D01*
X47051500Y-78398500D02*
X47051500Y-77128500D01*
X47011500Y-81728500D02*
X47011500Y-80478500D01*
X47011500Y-78398500D02*
X47011500Y-77148500D01*
X46971500Y-81706500D02*
X46971500Y-80478500D01*
X46971500Y-78398500D02*
X46971500Y-77170500D01*
X46931500Y-81685500D02*
X46931500Y-80478500D01*
X46931500Y-78398500D02*
X46931500Y-77191500D01*
X46891500Y-81662500D02*
X46891500Y-80478500D01*
X46891500Y-78398500D02*
X46891500Y-77214500D01*
X46851500Y-81638500D02*
X46851500Y-80478500D01*
X46851500Y-78398500D02*
X46851500Y-77238500D01*
X46811500Y-81613500D02*
X46811500Y-80478500D01*
X46811500Y-78398500D02*
X46811500Y-77263500D01*
X46771500Y-81587500D02*
X46771500Y-80478500D01*
X46771500Y-78398500D02*
X46771500Y-77289500D01*
X46731500Y-81560500D02*
X46731500Y-80478500D01*
X46731500Y-78398500D02*
X46731500Y-77316500D01*
X46691500Y-81533500D02*
X46691500Y-80478500D01*
X46691500Y-78398500D02*
X46691500Y-77343500D01*
X46651500Y-81503500D02*
X46651500Y-80478500D01*
X46651500Y-78398500D02*
X46651500Y-77373500D01*
X46611500Y-81473500D02*
X46611500Y-80478500D01*
X46611500Y-78398500D02*
X46611500Y-77403500D01*
X46571500Y-81442500D02*
X46571500Y-80478500D01*
X46571500Y-78398500D02*
X46571500Y-77434500D01*
X46531500Y-81409500D02*
X46531500Y-80478500D01*
X46531500Y-78398500D02*
X46531500Y-77467500D01*
X46491500Y-81375500D02*
X46491500Y-80478500D01*
X46491500Y-78398500D02*
X46491500Y-77501500D01*
X46451500Y-81339500D02*
X46451500Y-80478500D01*
X46451500Y-78398500D02*
X46451500Y-77537500D01*
X46411500Y-81302500D02*
X46411500Y-80478500D01*
X46411500Y-78398500D02*
X46411500Y-77574500D01*
X46371500Y-81264500D02*
X46371500Y-80478500D01*
X46371500Y-78398500D02*
X46371500Y-77612500D01*
X46331500Y-81223500D02*
X46331500Y-80478500D01*
X46331500Y-78398500D02*
X46331500Y-77653500D01*
X46291500Y-81181500D02*
X46291500Y-80478500D01*
X46291500Y-78398500D02*
X46291500Y-77695500D01*
X46251500Y-81137500D02*
X46251500Y-80478500D01*
X46251500Y-78398500D02*
X46251500Y-77739500D01*
X46211500Y-81091500D02*
X46211500Y-80478500D01*
X46211500Y-78398500D02*
X46211500Y-77785500D01*
X46171500Y-81043500D02*
X46171500Y-77833500D01*
X46131500Y-80992500D02*
X46131500Y-77884500D01*
X46091500Y-80938500D02*
X46091500Y-77938500D01*
X46051500Y-80881500D02*
X46051500Y-77995500D01*
X46011500Y-80821500D02*
X46011500Y-78055500D01*
X45971500Y-80757500D02*
X45971500Y-78119500D01*
X45931500Y-80689500D02*
X45931500Y-78187500D01*
X45891500Y-80616500D02*
X45891500Y-78260500D01*
X45851500Y-80536500D02*
X45851500Y-78340500D01*
X45811500Y-80449500D02*
X45811500Y-78427500D01*
X45771500Y-80353500D02*
X45771500Y-78523500D01*
X45731500Y-80243500D02*
X45731500Y-78633500D01*
X45691500Y-80115500D02*
X45691500Y-78761500D01*
X45651500Y-79956500D02*
X45651500Y-78920500D01*
X45611500Y-79722500D02*
X45611500Y-79154500D01*
X51017275Y-80913500D02*
X50517275Y-80913500D01*
X50767275Y-81163500D02*
X50767275Y-80663500D01*
D14*
%TO.C,J2*%
X73007000Y-46933000D02*
X73007000Y-60933000D01*
X73007000Y-60933000D02*
X64807000Y-60933000D01*
X64807000Y-60933000D02*
X64807000Y-46933000D01*
D15*
X68307000Y-46233000D02*
G75*
G03*
X68307000Y-46233000I-150000J0D01*
G01*
%TO.C,J3*%
X50527000Y-46233000D02*
G75*
G03*
X50527000Y-46233000I-150000J0D01*
G01*
D14*
X47027000Y-60933000D02*
X47027000Y-46933000D01*
X55227000Y-60933000D02*
X47027000Y-60933000D01*
X55227000Y-46933000D02*
X55227000Y-60933000D01*
D16*
%TO.C,TP1*%
G36*
X72116463Y-84660114D02*
G01*
X72120701Y-84432298D01*
X72125025Y-84255069D01*
X72130359Y-84119259D01*
X72137625Y-84015697D01*
X72147749Y-83935212D01*
X72161652Y-83868634D01*
X72180260Y-83806793D01*
X72204494Y-83740518D01*
X72210704Y-83724352D01*
X72329636Y-83490721D01*
X72487189Y-83298811D01*
X72677497Y-83152008D01*
X72894698Y-83053699D01*
X73132928Y-83007273D01*
X73386324Y-83016115D01*
X73425663Y-83022486D01*
X73646560Y-83087363D01*
X73832723Y-83199046D01*
X73991604Y-83362183D01*
X74010758Y-83387569D01*
X74120582Y-83537180D01*
X74193066Y-83392840D01*
X74303203Y-83223396D01*
X74451892Y-83063851D01*
X74619581Y-82933510D01*
X74709617Y-82882802D01*
X74863284Y-82830057D01*
X75052767Y-82796769D01*
X75256977Y-82784127D01*
X75454827Y-82793318D01*
X75625227Y-82825531D01*
X75640765Y-82830329D01*
X75895114Y-82942762D01*
X76116055Y-83104586D01*
X76303158Y-83315350D01*
X76455993Y-83574605D01*
X76537664Y-83771441D01*
X76607147Y-83965676D01*
X76616054Y-86154279D01*
X76624961Y-88342881D01*
X75147988Y-88350632D01*
X73671015Y-88358382D01*
X74311759Y-88791676D01*
X74485744Y-88908998D01*
X74643931Y-89015031D01*
X74779438Y-89105213D01*
X74885380Y-89174983D01*
X74954876Y-89219776D01*
X74980472Y-89234931D01*
X74992386Y-89211247D01*
X75001530Y-89137081D01*
X75007097Y-89021680D01*
X75008441Y-88913696D01*
X75008441Y-88582500D01*
X75964676Y-88582500D01*
X75966264Y-89912264D01*
X76294176Y-90134550D01*
X76622088Y-90356837D01*
X76622088Y-91778789D01*
X76241088Y-91501088D01*
X76079305Y-91383052D01*
X75885837Y-91241712D01*
X75669367Y-91083424D01*
X75438574Y-90914547D01*
X75202140Y-90741439D01*
X74968744Y-90570457D01*
X74747067Y-90407959D01*
X74545790Y-90260304D01*
X74373594Y-90133848D01*
X74239159Y-90034949D01*
X74216559Y-90018292D01*
X73881910Y-89771811D01*
X73557600Y-89533466D01*
X73250327Y-89308162D01*
X72966792Y-89100799D01*
X72713695Y-88916282D01*
X72497734Y-88759511D01*
X72386264Y-88679002D01*
X72109853Y-88479878D01*
X72109853Y-88097895D01*
X72110823Y-87954681D01*
X72113477Y-87835937D01*
X72117425Y-87752852D01*
X72122281Y-87716615D01*
X72123086Y-87715911D01*
X72154980Y-87729498D01*
X72217403Y-87763169D01*
X72235145Y-87773361D01*
X72441485Y-87862283D01*
X72685717Y-87910272D01*
X72950742Y-87918782D01*
X73230441Y-87910147D01*
X73238935Y-87587691D01*
X73247429Y-87265236D01*
X73391492Y-87434059D01*
X73571719Y-87623239D01*
X73748287Y-87761495D01*
X73930780Y-87856185D01*
X73952436Y-87864560D01*
X74090737Y-87905388D01*
X74261016Y-87939685D01*
X74443039Y-87964884D01*
X74616574Y-87978419D01*
X74761388Y-87977725D01*
X74806735Y-87972889D01*
X74948676Y-87951308D01*
X74948676Y-87088382D01*
X75546323Y-87088382D01*
X75545022Y-85855735D01*
X75544121Y-85584523D01*
X75542096Y-85327442D01*
X75539088Y-85091655D01*
X75535240Y-84884322D01*
X75530693Y-84712605D01*
X75525589Y-84583665D01*
X75520071Y-84504664D01*
X75517941Y-84489465D01*
X75463884Y-84351118D01*
X75368364Y-84247215D01*
X75242466Y-84183732D01*
X75097277Y-84166647D01*
X74967737Y-84192802D01*
X74887791Y-84225276D01*
X74827397Y-84264179D01*
X74783639Y-84317956D01*
X74753599Y-84395056D01*
X74734358Y-84503925D01*
X74723000Y-84653010D01*
X74716606Y-84850757D01*
X74715162Y-84923995D01*
X74705765Y-85444853D01*
X73843029Y-85444853D01*
X73842917Y-85004088D01*
X73841964Y-84827296D01*
X73838401Y-84699150D01*
X73831022Y-84608549D01*
X73818618Y-84544390D01*
X73799982Y-84495572D01*
X73784582Y-84467833D01*
X73697252Y-84375479D01*
X73584716Y-84326664D01*
X73462914Y-84322229D01*
X73347783Y-84363014D01*
X73262141Y-84440278D01*
X73236905Y-84480512D01*
X73219009Y-84529952D01*
X73206835Y-84599853D01*
X73198770Y-84701467D01*
X73193196Y-84846046D01*
X73190871Y-84936551D01*
X73181183Y-85350461D01*
X73011577Y-85290818D01*
X72821285Y-85248670D01*
X72609806Y-85242106D01*
X72402160Y-85270171D01*
X72248733Y-85319929D01*
X72103732Y-85384435D01*
X72116463Y-84660114D01*
G37*
X72116463Y-84660114D02*
X72120701Y-84432298D01*
X72125025Y-84255069D01*
X72130359Y-84119259D01*
X72137625Y-84015697D01*
X72147749Y-83935212D01*
X72161652Y-83868634D01*
X72180260Y-83806793D01*
X72204494Y-83740518D01*
X72210704Y-83724352D01*
X72329636Y-83490721D01*
X72487189Y-83298811D01*
X72677497Y-83152008D01*
X72894698Y-83053699D01*
X73132928Y-83007273D01*
X73386324Y-83016115D01*
X73425663Y-83022486D01*
X73646560Y-83087363D01*
X73832723Y-83199046D01*
X73991604Y-83362183D01*
X74010758Y-83387569D01*
X74120582Y-83537180D01*
X74193066Y-83392840D01*
X74303203Y-83223396D01*
X74451892Y-83063851D01*
X74619581Y-82933510D01*
X74709617Y-82882802D01*
X74863284Y-82830057D01*
X75052767Y-82796769D01*
X75256977Y-82784127D01*
X75454827Y-82793318D01*
X75625227Y-82825531D01*
X75640765Y-82830329D01*
X75895114Y-82942762D01*
X76116055Y-83104586D01*
X76303158Y-83315350D01*
X76455993Y-83574605D01*
X76537664Y-83771441D01*
X76607147Y-83965676D01*
X76616054Y-86154279D01*
X76624961Y-88342881D01*
X75147988Y-88350632D01*
X73671015Y-88358382D01*
X74311759Y-88791676D01*
X74485744Y-88908998D01*
X74643931Y-89015031D01*
X74779438Y-89105213D01*
X74885380Y-89174983D01*
X74954876Y-89219776D01*
X74980472Y-89234931D01*
X74992386Y-89211247D01*
X75001530Y-89137081D01*
X75007097Y-89021680D01*
X75008441Y-88913696D01*
X75008441Y-88582500D01*
X75964676Y-88582500D01*
X75966264Y-89912264D01*
X76294176Y-90134550D01*
X76622088Y-90356837D01*
X76622088Y-91778789D01*
X76241088Y-91501088D01*
X76079305Y-91383052D01*
X75885837Y-91241712D01*
X75669367Y-91083424D01*
X75438574Y-90914547D01*
X75202140Y-90741439D01*
X74968744Y-90570457D01*
X74747067Y-90407959D01*
X74545790Y-90260304D01*
X74373594Y-90133848D01*
X74239159Y-90034949D01*
X74216559Y-90018292D01*
X73881910Y-89771811D01*
X73557600Y-89533466D01*
X73250327Y-89308162D01*
X72966792Y-89100799D01*
X72713695Y-88916282D01*
X72497734Y-88759511D01*
X72386264Y-88679002D01*
X72109853Y-88479878D01*
X72109853Y-88097895D01*
X72110823Y-87954681D01*
X72113477Y-87835937D01*
X72117425Y-87752852D01*
X72122281Y-87716615D01*
X72123086Y-87715911D01*
X72154980Y-87729498D01*
X72217403Y-87763169D01*
X72235145Y-87773361D01*
X72441485Y-87862283D01*
X72685717Y-87910272D01*
X72950742Y-87918782D01*
X73230441Y-87910147D01*
X73238935Y-87587691D01*
X73247429Y-87265236D01*
X73391492Y-87434059D01*
X73571719Y-87623239D01*
X73748287Y-87761495D01*
X73930780Y-87856185D01*
X73952436Y-87864560D01*
X74090737Y-87905388D01*
X74261016Y-87939685D01*
X74443039Y-87964884D01*
X74616574Y-87978419D01*
X74761388Y-87977725D01*
X74806735Y-87972889D01*
X74948676Y-87951308D01*
X74948676Y-87088382D01*
X75546323Y-87088382D01*
X75545022Y-85855735D01*
X75544121Y-85584523D01*
X75542096Y-85327442D01*
X75539088Y-85091655D01*
X75535240Y-84884322D01*
X75530693Y-84712605D01*
X75525589Y-84583665D01*
X75520071Y-84504664D01*
X75517941Y-84489465D01*
X75463884Y-84351118D01*
X75368364Y-84247215D01*
X75242466Y-84183732D01*
X75097277Y-84166647D01*
X74967737Y-84192802D01*
X74887791Y-84225276D01*
X74827397Y-84264179D01*
X74783639Y-84317956D01*
X74753599Y-84395056D01*
X74734358Y-84503925D01*
X74723000Y-84653010D01*
X74716606Y-84850757D01*
X74715162Y-84923995D01*
X74705765Y-85444853D01*
X73843029Y-85444853D01*
X73842917Y-85004088D01*
X73841964Y-84827296D01*
X73838401Y-84699150D01*
X73831022Y-84608549D01*
X73818618Y-84544390D01*
X73799982Y-84495572D01*
X73784582Y-84467833D01*
X73697252Y-84375479D01*
X73584716Y-84326664D01*
X73462914Y-84322229D01*
X73347783Y-84363014D01*
X73262141Y-84440278D01*
X73236905Y-84480512D01*
X73219009Y-84529952D01*
X73206835Y-84599853D01*
X73198770Y-84701467D01*
X73193196Y-84846046D01*
X73190871Y-84936551D01*
X73181183Y-85350461D01*
X73011577Y-85290818D01*
X72821285Y-85248670D01*
X72609806Y-85242106D01*
X72402160Y-85270171D01*
X72248733Y-85319929D01*
X72103732Y-85384435D01*
X72116463Y-84660114D01*
G36*
X71864170Y-86325244D02*
G01*
X71919177Y-86068099D01*
X72009349Y-85858919D01*
X72135373Y-85696855D01*
X72297937Y-85581054D01*
X72497726Y-85510667D01*
X72526345Y-85504831D01*
X72649194Y-85489712D01*
X72764355Y-85497622D01*
X72869992Y-85520487D01*
X73012591Y-85566551D01*
X73138053Y-85630870D01*
X73253465Y-85720444D01*
X73365915Y-85842268D01*
X73482489Y-86003340D01*
X73610277Y-86210657D01*
X73664064Y-86304459D01*
X73730763Y-86419872D01*
X73788585Y-86514973D01*
X73830286Y-86578133D01*
X73846673Y-86597576D01*
X73855892Y-86575298D01*
X73863650Y-86502685D01*
X73869376Y-86389157D01*
X73872502Y-86244136D01*
X73872912Y-86163793D01*
X73872912Y-85713794D01*
X74709617Y-85713794D01*
X74709617Y-87724788D01*
X74460712Y-87707223D01*
X74263449Y-87684125D01*
X74090132Y-87641191D01*
X73934249Y-87573205D01*
X73789286Y-87474948D01*
X73648730Y-87341202D01*
X73506067Y-87166752D01*
X73354783Y-86946378D01*
X73203172Y-86699911D01*
X73124930Y-86574214D01*
X73047085Y-86459850D01*
X72980258Y-86371902D01*
X72945418Y-86333853D01*
X72834143Y-86265571D01*
X72717000Y-86248473D01*
X72606505Y-86277077D01*
X72515171Y-86345903D01*
X72455511Y-86449470D01*
X72438999Y-86555672D01*
X72448047Y-86655864D01*
X72469953Y-86743041D01*
X72476919Y-86759044D01*
X72542591Y-86836582D01*
X72645969Y-86905182D01*
X72765064Y-86952966D01*
X72864382Y-86968361D01*
X72976441Y-86968853D01*
X72976441Y-87694543D01*
X72800402Y-87676143D01*
X72543249Y-87623727D01*
X72323305Y-87525890D01*
X72142550Y-87385489D01*
X72002964Y-87205379D01*
X71906525Y-86988417D01*
X71855213Y-86737459D01*
X71851008Y-86455362D01*
X71864170Y-86325244D01*
G37*
X71864170Y-86325244D02*
X71919177Y-86068099D01*
X72009349Y-85858919D01*
X72135373Y-85696855D01*
X72297937Y-85581054D01*
X72497726Y-85510667D01*
X72526345Y-85504831D01*
X72649194Y-85489712D01*
X72764355Y-85497622D01*
X72869992Y-85520487D01*
X73012591Y-85566551D01*
X73138053Y-85630870D01*
X73253465Y-85720444D01*
X73365915Y-85842268D01*
X73482489Y-86003340D01*
X73610277Y-86210657D01*
X73664064Y-86304459D01*
X73730763Y-86419872D01*
X73788585Y-86514973D01*
X73830286Y-86578133D01*
X73846673Y-86597576D01*
X73855892Y-86575298D01*
X73863650Y-86502685D01*
X73869376Y-86389157D01*
X73872502Y-86244136D01*
X73872912Y-86163793D01*
X73872912Y-85713794D01*
X74709617Y-85713794D01*
X74709617Y-87724788D01*
X74460712Y-87707223D01*
X74263449Y-87684125D01*
X74090132Y-87641191D01*
X73934249Y-87573205D01*
X73789286Y-87474948D01*
X73648730Y-87341202D01*
X73506067Y-87166752D01*
X73354783Y-86946378D01*
X73203172Y-86699911D01*
X73124930Y-86574214D01*
X73047085Y-86459850D01*
X72980258Y-86371902D01*
X72945418Y-86333853D01*
X72834143Y-86265571D01*
X72717000Y-86248473D01*
X72606505Y-86277077D01*
X72515171Y-86345903D01*
X72455511Y-86449470D01*
X72438999Y-86555672D01*
X72448047Y-86655864D01*
X72469953Y-86743041D01*
X72476919Y-86759044D01*
X72542591Y-86836582D01*
X72645969Y-86905182D01*
X72765064Y-86952966D01*
X72864382Y-86968361D01*
X72976441Y-86968853D01*
X72976441Y-87694543D01*
X72800402Y-87676143D01*
X72543249Y-87623727D01*
X72323305Y-87525890D01*
X72142550Y-87385489D01*
X72002964Y-87205379D01*
X71906525Y-86988417D01*
X71855213Y-86737459D01*
X71851008Y-86455362D01*
X71864170Y-86325244D01*
G36*
X72124159Y-82558985D02*
G01*
X72184734Y-82460315D01*
X72268642Y-82395365D01*
X72398864Y-82347484D01*
X72532170Y-82351747D01*
X72654032Y-82403486D01*
X72749921Y-82498035D01*
X72784004Y-82560900D01*
X72819240Y-82669482D01*
X72818523Y-82761745D01*
X72782726Y-82866911D01*
X72719431Y-82957085D01*
X72624745Y-83032754D01*
X72521369Y-83077904D01*
X72474952Y-83084035D01*
X72440699Y-83077457D01*
X72440699Y-82985547D01*
X72549241Y-82970287D01*
X72640538Y-82916401D01*
X72705961Y-82834056D01*
X72736876Y-82733419D01*
X72724652Y-82624658D01*
X72676323Y-82536464D01*
X72585735Y-82462427D01*
X72478960Y-82434986D01*
X72370001Y-82449328D01*
X72272862Y-82500641D01*
X72201545Y-82584110D01*
X72170056Y-82694924D01*
X72169617Y-82710617D01*
X72193233Y-82828234D01*
X72267012Y-82916772D01*
X72323545Y-82952012D01*
X72440699Y-82985547D01*
X72440699Y-83077457D01*
X72335052Y-83057165D01*
X72220749Y-82982519D01*
X72141190Y-82869776D01*
X72105525Y-82728618D01*
X72104507Y-82692063D01*
X72124159Y-82558985D01*
G37*
X72124159Y-82558985D02*
X72184734Y-82460315D01*
X72268642Y-82395365D01*
X72398864Y-82347484D01*
X72532170Y-82351747D01*
X72654032Y-82403486D01*
X72749921Y-82498035D01*
X72784004Y-82560900D01*
X72819240Y-82669482D01*
X72818523Y-82761745D01*
X72782726Y-82866911D01*
X72719431Y-82957085D01*
X72624745Y-83032754D01*
X72521369Y-83077904D01*
X72474952Y-83084035D01*
X72440699Y-83077457D01*
X72440699Y-82985547D01*
X72549241Y-82970287D01*
X72640538Y-82916401D01*
X72705961Y-82834056D01*
X72736876Y-82733419D01*
X72724652Y-82624658D01*
X72676323Y-82536464D01*
X72585735Y-82462427D01*
X72478960Y-82434986D01*
X72370001Y-82449328D01*
X72272862Y-82500641D01*
X72201545Y-82584110D01*
X72170056Y-82694924D01*
X72169617Y-82710617D01*
X72193233Y-82828234D01*
X72267012Y-82916772D01*
X72323545Y-82952012D01*
X72440699Y-82985547D01*
X72440699Y-83077457D01*
X72335052Y-83057165D01*
X72220749Y-82982519D01*
X72141190Y-82869776D01*
X72105525Y-82728618D01*
X72104507Y-82692063D01*
X72124159Y-82558985D01*
G36*
X72301653Y-82608278D02*
G01*
X72336430Y-82554961D01*
X72389363Y-82553900D01*
X72422088Y-82574877D01*
X72477449Y-82594572D01*
X72524331Y-82578220D01*
X72585511Y-82552464D01*
X72615888Y-82546264D01*
X72646723Y-82563082D01*
X72639551Y-82600815D01*
X72600773Y-82640380D01*
X72580674Y-82651237D01*
X72520530Y-82694147D01*
X72502164Y-82741221D01*
X72526755Y-82776391D01*
X72570838Y-82785323D01*
X72628036Y-82795286D01*
X72647735Y-82815206D01*
X72620516Y-82831123D01*
X72549412Y-82841914D01*
X72468441Y-82845088D01*
X72395926Y-82845088D01*
X72395926Y-82755441D01*
X72428609Y-82735092D01*
X72430132Y-82691711D01*
X72402782Y-82651799D01*
X72386264Y-82643368D01*
X72356087Y-82657113D01*
X72348912Y-82693186D01*
X72367894Y-82744556D01*
X72395926Y-82755441D01*
X72395926Y-82845088D01*
X72289147Y-82845088D01*
X72289147Y-82709680D01*
X72301653Y-82608278D01*
G37*
X72301653Y-82608278D02*
X72336430Y-82554961D01*
X72389363Y-82553900D01*
X72422088Y-82574877D01*
X72477449Y-82594572D01*
X72524331Y-82578220D01*
X72585511Y-82552464D01*
X72615888Y-82546264D01*
X72646723Y-82563082D01*
X72639551Y-82600815D01*
X72600773Y-82640380D01*
X72580674Y-82651237D01*
X72520530Y-82694147D01*
X72502164Y-82741221D01*
X72526755Y-82776391D01*
X72570838Y-82785323D01*
X72628036Y-82795286D01*
X72647735Y-82815206D01*
X72620516Y-82831123D01*
X72549412Y-82841914D01*
X72468441Y-82845088D01*
X72395926Y-82845088D01*
X72395926Y-82755441D01*
X72428609Y-82735092D01*
X72430132Y-82691711D01*
X72402782Y-82651799D01*
X72386264Y-82643368D01*
X72356087Y-82657113D01*
X72348912Y-82693186D01*
X72367894Y-82744556D01*
X72395926Y-82755441D01*
X72395926Y-82845088D01*
X72289147Y-82845088D01*
X72289147Y-82709680D01*
X72301653Y-82608278D01*
D13*
%TO.C,FB1*%
X51335721Y-90485500D02*
X51661279Y-90485500D01*
X51335721Y-91505500D02*
X51661279Y-91505500D01*
%TO.C,C1*%
D12*
X45680333Y-121832642D02*
X45632714Y-121880261D01*
X45489857Y-121927880D01*
X45394619Y-121927880D01*
X45251761Y-121880261D01*
X45156523Y-121785023D01*
X45108904Y-121689785D01*
X45061285Y-121499309D01*
X45061285Y-121356452D01*
X45108904Y-121165976D01*
X45156523Y-121070738D01*
X45251761Y-120975500D01*
X45394619Y-120927880D01*
X45489857Y-120927880D01*
X45632714Y-120975500D01*
X45680333Y-121023119D01*
X46632714Y-121927880D02*
X46061285Y-121927880D01*
X46347000Y-121927880D02*
X46347000Y-120927880D01*
X46251761Y-121070738D01*
X46156523Y-121165976D01*
X46061285Y-121213595D01*
%TO.C,C2*%
X64476333Y-69953142D02*
X64428714Y-70000761D01*
X64285857Y-70048380D01*
X64190619Y-70048380D01*
X64047761Y-70000761D01*
X63952523Y-69905523D01*
X63904904Y-69810285D01*
X63857285Y-69619809D01*
X63857285Y-69476952D01*
X63904904Y-69286476D01*
X63952523Y-69191238D01*
X64047761Y-69096000D01*
X64190619Y-69048380D01*
X64285857Y-69048380D01*
X64428714Y-69096000D01*
X64476333Y-69143619D01*
X64857285Y-69143619D02*
X64904904Y-69096000D01*
X65000142Y-69048380D01*
X65238238Y-69048380D01*
X65333476Y-69096000D01*
X65381095Y-69143619D01*
X65428714Y-69238857D01*
X65428714Y-69334095D01*
X65381095Y-69476952D01*
X64809666Y-70048380D01*
X65428714Y-70048380D01*
%TO.C,C10*%
X46585142Y-117800357D02*
X46632761Y-117847976D01*
X46680380Y-117990833D01*
X46680380Y-118086071D01*
X46632761Y-118228928D01*
X46537523Y-118324166D01*
X46442285Y-118371785D01*
X46251809Y-118419404D01*
X46108952Y-118419404D01*
X45918476Y-118371785D01*
X45823238Y-118324166D01*
X45728000Y-118228928D01*
X45680380Y-118086071D01*
X45680380Y-117990833D01*
X45728000Y-117847976D01*
X45775619Y-117800357D01*
X46680380Y-116847976D02*
X46680380Y-117419404D01*
X46680380Y-117133690D02*
X45680380Y-117133690D01*
X45823238Y-117228928D01*
X45918476Y-117324166D01*
X45966095Y-117419404D01*
X45680380Y-116228928D02*
X45680380Y-116133690D01*
X45728000Y-116038452D01*
X45775619Y-115990833D01*
X45870857Y-115943214D01*
X46061333Y-115895595D01*
X46299428Y-115895595D01*
X46489904Y-115943214D01*
X46585142Y-115990833D01*
X46632761Y-116038452D01*
X46680380Y-116133690D01*
X46680380Y-116228928D01*
X46632761Y-116324166D01*
X46585142Y-116371785D01*
X46489904Y-116419404D01*
X46299428Y-116467023D01*
X46061333Y-116467023D01*
X45870857Y-116419404D01*
X45775619Y-116371785D01*
X45728000Y-116324166D01*
X45680380Y-116228928D01*
%TO.C,C11*%
X51347642Y-120213357D02*
X51395261Y-120260976D01*
X51442880Y-120403833D01*
X51442880Y-120499071D01*
X51395261Y-120641928D01*
X51300023Y-120737166D01*
X51204785Y-120784785D01*
X51014309Y-120832404D01*
X50871452Y-120832404D01*
X50680976Y-120784785D01*
X50585738Y-120737166D01*
X50490500Y-120641928D01*
X50442880Y-120499071D01*
X50442880Y-120403833D01*
X50490500Y-120260976D01*
X50538119Y-120213357D01*
X51442880Y-119260976D02*
X51442880Y-119832404D01*
X51442880Y-119546690D02*
X50442880Y-119546690D01*
X50585738Y-119641928D01*
X50680976Y-119737166D01*
X50728595Y-119832404D01*
X51442880Y-118308595D02*
X51442880Y-118880023D01*
X51442880Y-118594309D02*
X50442880Y-118594309D01*
X50585738Y-118689547D01*
X50680976Y-118784785D01*
X50728595Y-118880023D01*
%TO.C,C20*%
X53078142Y-108591642D02*
X53030523Y-108639261D01*
X52887666Y-108686880D01*
X52792428Y-108686880D01*
X52649571Y-108639261D01*
X52554333Y-108544023D01*
X52506714Y-108448785D01*
X52459095Y-108258309D01*
X52459095Y-108115452D01*
X52506714Y-107924976D01*
X52554333Y-107829738D01*
X52649571Y-107734500D01*
X52792428Y-107686880D01*
X52887666Y-107686880D01*
X53030523Y-107734500D01*
X53078142Y-107782119D01*
X53459095Y-107782119D02*
X53506714Y-107734500D01*
X53601952Y-107686880D01*
X53840047Y-107686880D01*
X53935285Y-107734500D01*
X53982904Y-107782119D01*
X54030523Y-107877357D01*
X54030523Y-107972595D01*
X53982904Y-108115452D01*
X53411476Y-108686880D01*
X54030523Y-108686880D01*
X54649571Y-107686880D02*
X54744809Y-107686880D01*
X54840047Y-107734500D01*
X54887666Y-107782119D01*
X54935285Y-107877357D01*
X54982904Y-108067833D01*
X54982904Y-108305928D01*
X54935285Y-108496404D01*
X54887666Y-108591642D01*
X54840047Y-108639261D01*
X54744809Y-108686880D01*
X54649571Y-108686880D01*
X54554333Y-108639261D01*
X54506714Y-108591642D01*
X54459095Y-108496404D01*
X54411476Y-108305928D01*
X54411476Y-108067833D01*
X54459095Y-107877357D01*
X54506714Y-107782119D01*
X54554333Y-107734500D01*
X54649571Y-107686880D01*
%TO.C,C21*%
X51236642Y-99386642D02*
X51189023Y-99434261D01*
X51046166Y-99481880D01*
X50950928Y-99481880D01*
X50808071Y-99434261D01*
X50712833Y-99339023D01*
X50665214Y-99243785D01*
X50617595Y-99053309D01*
X50617595Y-98910452D01*
X50665214Y-98719976D01*
X50712833Y-98624738D01*
X50808071Y-98529500D01*
X50950928Y-98481880D01*
X51046166Y-98481880D01*
X51189023Y-98529500D01*
X51236642Y-98577119D01*
X51617595Y-98577119D02*
X51665214Y-98529500D01*
X51760452Y-98481880D01*
X51998547Y-98481880D01*
X52093785Y-98529500D01*
X52141404Y-98577119D01*
X52189023Y-98672357D01*
X52189023Y-98767595D01*
X52141404Y-98910452D01*
X51569976Y-99481880D01*
X52189023Y-99481880D01*
X53141404Y-99481880D02*
X52569976Y-99481880D01*
X52855690Y-99481880D02*
X52855690Y-98481880D01*
X52760452Y-98624738D01*
X52665214Y-98719976D01*
X52569976Y-98767595D01*
%TO.C,C22*%
X63555642Y-118022642D02*
X63508023Y-118070261D01*
X63365166Y-118117880D01*
X63269928Y-118117880D01*
X63127071Y-118070261D01*
X63031833Y-117975023D01*
X62984214Y-117879785D01*
X62936595Y-117689309D01*
X62936595Y-117546452D01*
X62984214Y-117355976D01*
X63031833Y-117260738D01*
X63127071Y-117165500D01*
X63269928Y-117117880D01*
X63365166Y-117117880D01*
X63508023Y-117165500D01*
X63555642Y-117213119D01*
X63936595Y-117213119D02*
X63984214Y-117165500D01*
X64079452Y-117117880D01*
X64317547Y-117117880D01*
X64412785Y-117165500D01*
X64460404Y-117213119D01*
X64508023Y-117308357D01*
X64508023Y-117403595D01*
X64460404Y-117546452D01*
X63888976Y-118117880D01*
X64508023Y-118117880D01*
X64888976Y-117213119D02*
X64936595Y-117165500D01*
X65031833Y-117117880D01*
X65269928Y-117117880D01*
X65365166Y-117165500D01*
X65412785Y-117213119D01*
X65460404Y-117308357D01*
X65460404Y-117403595D01*
X65412785Y-117546452D01*
X64841357Y-118117880D01*
X65460404Y-118117880D01*
%TO.C,C23*%
X63428642Y-119800642D02*
X63381023Y-119848261D01*
X63238166Y-119895880D01*
X63142928Y-119895880D01*
X63000071Y-119848261D01*
X62904833Y-119753023D01*
X62857214Y-119657785D01*
X62809595Y-119467309D01*
X62809595Y-119324452D01*
X62857214Y-119133976D01*
X62904833Y-119038738D01*
X63000071Y-118943500D01*
X63142928Y-118895880D01*
X63238166Y-118895880D01*
X63381023Y-118943500D01*
X63428642Y-118991119D01*
X63809595Y-118991119D02*
X63857214Y-118943500D01*
X63952452Y-118895880D01*
X64190547Y-118895880D01*
X64285785Y-118943500D01*
X64333404Y-118991119D01*
X64381023Y-119086357D01*
X64381023Y-119181595D01*
X64333404Y-119324452D01*
X63761976Y-119895880D01*
X64381023Y-119895880D01*
X64714357Y-118895880D02*
X65333404Y-118895880D01*
X65000071Y-119276833D01*
X65142928Y-119276833D01*
X65238166Y-119324452D01*
X65285785Y-119372071D01*
X65333404Y-119467309D01*
X65333404Y-119705404D01*
X65285785Y-119800642D01*
X65238166Y-119848261D01*
X65142928Y-119895880D01*
X64857214Y-119895880D01*
X64761976Y-119848261D01*
X64714357Y-119800642D01*
%TO.C,C24*%
X70159642Y-118657642D02*
X70112023Y-118705261D01*
X69969166Y-118752880D01*
X69873928Y-118752880D01*
X69731071Y-118705261D01*
X69635833Y-118610023D01*
X69588214Y-118514785D01*
X69540595Y-118324309D01*
X69540595Y-118181452D01*
X69588214Y-117990976D01*
X69635833Y-117895738D01*
X69731071Y-117800500D01*
X69873928Y-117752880D01*
X69969166Y-117752880D01*
X70112023Y-117800500D01*
X70159642Y-117848119D01*
X70540595Y-117848119D02*
X70588214Y-117800500D01*
X70683452Y-117752880D01*
X70921547Y-117752880D01*
X71016785Y-117800500D01*
X71064404Y-117848119D01*
X71112023Y-117943357D01*
X71112023Y-118038595D01*
X71064404Y-118181452D01*
X70492976Y-118752880D01*
X71112023Y-118752880D01*
X71969166Y-118086214D02*
X71969166Y-118752880D01*
X71731071Y-117705261D02*
X71492976Y-118419547D01*
X72112023Y-118419547D01*
%TO.C,C25*%
X69651642Y-117006642D02*
X69604023Y-117054261D01*
X69461166Y-117101880D01*
X69365928Y-117101880D01*
X69223071Y-117054261D01*
X69127833Y-116959023D01*
X69080214Y-116863785D01*
X69032595Y-116673309D01*
X69032595Y-116530452D01*
X69080214Y-116339976D01*
X69127833Y-116244738D01*
X69223071Y-116149500D01*
X69365928Y-116101880D01*
X69461166Y-116101880D01*
X69604023Y-116149500D01*
X69651642Y-116197119D01*
X70032595Y-116197119D02*
X70080214Y-116149500D01*
X70175452Y-116101880D01*
X70413547Y-116101880D01*
X70508785Y-116149500D01*
X70556404Y-116197119D01*
X70604023Y-116292357D01*
X70604023Y-116387595D01*
X70556404Y-116530452D01*
X69984976Y-117101880D01*
X70604023Y-117101880D01*
X71508785Y-116101880D02*
X71032595Y-116101880D01*
X70984976Y-116578071D01*
X71032595Y-116530452D01*
X71127833Y-116482833D01*
X71365928Y-116482833D01*
X71461166Y-116530452D01*
X71508785Y-116578071D01*
X71556404Y-116673309D01*
X71556404Y-116911404D01*
X71508785Y-117006642D01*
X71461166Y-117054261D01*
X71365928Y-117101880D01*
X71127833Y-117101880D01*
X71032595Y-117054261D01*
X70984976Y-117006642D01*
%TO.C,C26*%
X71667642Y-114307857D02*
X71715261Y-114355476D01*
X71762880Y-114498333D01*
X71762880Y-114593571D01*
X71715261Y-114736428D01*
X71620023Y-114831666D01*
X71524785Y-114879285D01*
X71334309Y-114926904D01*
X71191452Y-114926904D01*
X71000976Y-114879285D01*
X70905738Y-114831666D01*
X70810500Y-114736428D01*
X70762880Y-114593571D01*
X70762880Y-114498333D01*
X70810500Y-114355476D01*
X70858119Y-114307857D01*
X70858119Y-113926904D02*
X70810500Y-113879285D01*
X70762880Y-113784047D01*
X70762880Y-113545952D01*
X70810500Y-113450714D01*
X70858119Y-113403095D01*
X70953357Y-113355476D01*
X71048595Y-113355476D01*
X71191452Y-113403095D01*
X71762880Y-113974523D01*
X71762880Y-113355476D01*
X70762880Y-112498333D02*
X70762880Y-112688809D01*
X70810500Y-112784047D01*
X70858119Y-112831666D01*
X71000976Y-112926904D01*
X71191452Y-112974523D01*
X71572404Y-112974523D01*
X71667642Y-112926904D01*
X71715261Y-112879285D01*
X71762880Y-112784047D01*
X71762880Y-112593571D01*
X71715261Y-112498333D01*
X71667642Y-112450714D01*
X71572404Y-112403095D01*
X71334309Y-112403095D01*
X71239071Y-112450714D01*
X71191452Y-112498333D01*
X71143833Y-112593571D01*
X71143833Y-112784047D01*
X71191452Y-112879285D01*
X71239071Y-112926904D01*
X71334309Y-112974523D01*
%TO.C,C27*%
X69524642Y-109831142D02*
X69477023Y-109878761D01*
X69334166Y-109926380D01*
X69238928Y-109926380D01*
X69096071Y-109878761D01*
X69000833Y-109783523D01*
X68953214Y-109688285D01*
X68905595Y-109497809D01*
X68905595Y-109354952D01*
X68953214Y-109164476D01*
X69000833Y-109069238D01*
X69096071Y-108974000D01*
X69238928Y-108926380D01*
X69334166Y-108926380D01*
X69477023Y-108974000D01*
X69524642Y-109021619D01*
X69905595Y-109021619D02*
X69953214Y-108974000D01*
X70048452Y-108926380D01*
X70286547Y-108926380D01*
X70381785Y-108974000D01*
X70429404Y-109021619D01*
X70477023Y-109116857D01*
X70477023Y-109212095D01*
X70429404Y-109354952D01*
X69857976Y-109926380D01*
X70477023Y-109926380D01*
X70810357Y-108926380D02*
X71477023Y-108926380D01*
X71048452Y-109926380D01*
%TO.C,C28*%
X69524642Y-111228142D02*
X69477023Y-111275761D01*
X69334166Y-111323380D01*
X69238928Y-111323380D01*
X69096071Y-111275761D01*
X69000833Y-111180523D01*
X68953214Y-111085285D01*
X68905595Y-110894809D01*
X68905595Y-110751952D01*
X68953214Y-110561476D01*
X69000833Y-110466238D01*
X69096071Y-110371000D01*
X69238928Y-110323380D01*
X69334166Y-110323380D01*
X69477023Y-110371000D01*
X69524642Y-110418619D01*
X69905595Y-110418619D02*
X69953214Y-110371000D01*
X70048452Y-110323380D01*
X70286547Y-110323380D01*
X70381785Y-110371000D01*
X70429404Y-110418619D01*
X70477023Y-110513857D01*
X70477023Y-110609095D01*
X70429404Y-110751952D01*
X69857976Y-111323380D01*
X70477023Y-111323380D01*
X71048452Y-110751952D02*
X70953214Y-110704333D01*
X70905595Y-110656714D01*
X70857976Y-110561476D01*
X70857976Y-110513857D01*
X70905595Y-110418619D01*
X70953214Y-110371000D01*
X71048452Y-110323380D01*
X71238928Y-110323380D01*
X71334166Y-110371000D01*
X71381785Y-110418619D01*
X71429404Y-110513857D01*
X71429404Y-110561476D01*
X71381785Y-110656714D01*
X71334166Y-110704333D01*
X71238928Y-110751952D01*
X71048452Y-110751952D01*
X70953214Y-110799571D01*
X70905595Y-110847190D01*
X70857976Y-110942428D01*
X70857976Y-111132904D01*
X70905595Y-111228142D01*
X70953214Y-111275761D01*
X71048452Y-111323380D01*
X71238928Y-111323380D01*
X71334166Y-111275761D01*
X71381785Y-111228142D01*
X71429404Y-111132904D01*
X71429404Y-110942428D01*
X71381785Y-110847190D01*
X71334166Y-110799571D01*
X71238928Y-110751952D01*
%TO.C,C29*%
X45394642Y-93321142D02*
X45347023Y-93368761D01*
X45204166Y-93416380D01*
X45108928Y-93416380D01*
X44966071Y-93368761D01*
X44870833Y-93273523D01*
X44823214Y-93178285D01*
X44775595Y-92987809D01*
X44775595Y-92844952D01*
X44823214Y-92654476D01*
X44870833Y-92559238D01*
X44966071Y-92464000D01*
X45108928Y-92416380D01*
X45204166Y-92416380D01*
X45347023Y-92464000D01*
X45394642Y-92511619D01*
X45775595Y-92511619D02*
X45823214Y-92464000D01*
X45918452Y-92416380D01*
X46156547Y-92416380D01*
X46251785Y-92464000D01*
X46299404Y-92511619D01*
X46347023Y-92606857D01*
X46347023Y-92702095D01*
X46299404Y-92844952D01*
X45727976Y-93416380D01*
X46347023Y-93416380D01*
X46823214Y-93416380D02*
X47013690Y-93416380D01*
X47108928Y-93368761D01*
X47156547Y-93321142D01*
X47251785Y-93178285D01*
X47299404Y-92987809D01*
X47299404Y-92606857D01*
X47251785Y-92511619D01*
X47204166Y-92464000D01*
X47108928Y-92416380D01*
X46918452Y-92416380D01*
X46823214Y-92464000D01*
X46775595Y-92511619D01*
X46727976Y-92606857D01*
X46727976Y-92844952D01*
X46775595Y-92940190D01*
X46823214Y-92987809D01*
X46918452Y-93035428D01*
X47108928Y-93035428D01*
X47204166Y-92987809D01*
X47251785Y-92940190D01*
X47299404Y-92844952D01*
%TO.C,C30*%
X51444142Y-95765857D02*
X51491761Y-95813476D01*
X51539380Y-95956333D01*
X51539380Y-96051571D01*
X51491761Y-96194428D01*
X51396523Y-96289666D01*
X51301285Y-96337285D01*
X51110809Y-96384904D01*
X50967952Y-96384904D01*
X50777476Y-96337285D01*
X50682238Y-96289666D01*
X50587000Y-96194428D01*
X50539380Y-96051571D01*
X50539380Y-95956333D01*
X50587000Y-95813476D01*
X50634619Y-95765857D01*
X50539380Y-95432523D02*
X50539380Y-94813476D01*
X50920333Y-95146809D01*
X50920333Y-95003952D01*
X50967952Y-94908714D01*
X51015571Y-94861095D01*
X51110809Y-94813476D01*
X51348904Y-94813476D01*
X51444142Y-94861095D01*
X51491761Y-94908714D01*
X51539380Y-95003952D01*
X51539380Y-95289666D01*
X51491761Y-95384904D01*
X51444142Y-95432523D01*
X50539380Y-94194428D02*
X50539380Y-94099190D01*
X50587000Y-94003952D01*
X50634619Y-93956333D01*
X50729857Y-93908714D01*
X50920333Y-93861095D01*
X51158428Y-93861095D01*
X51348904Y-93908714D01*
X51444142Y-93956333D01*
X51491761Y-94003952D01*
X51539380Y-94099190D01*
X51539380Y-94194428D01*
X51491761Y-94289666D01*
X51444142Y-94337285D01*
X51348904Y-94384904D01*
X51158428Y-94432523D01*
X50920333Y-94432523D01*
X50729857Y-94384904D01*
X50634619Y-94337285D01*
X50587000Y-94289666D01*
X50539380Y-94194428D01*
%TO.C,C31*%
X51363642Y-104179642D02*
X51316023Y-104227261D01*
X51173166Y-104274880D01*
X51077928Y-104274880D01*
X50935071Y-104227261D01*
X50839833Y-104132023D01*
X50792214Y-104036785D01*
X50744595Y-103846309D01*
X50744595Y-103703452D01*
X50792214Y-103512976D01*
X50839833Y-103417738D01*
X50935071Y-103322500D01*
X51077928Y-103274880D01*
X51173166Y-103274880D01*
X51316023Y-103322500D01*
X51363642Y-103370119D01*
X51696976Y-103274880D02*
X52316023Y-103274880D01*
X51982690Y-103655833D01*
X52125547Y-103655833D01*
X52220785Y-103703452D01*
X52268404Y-103751071D01*
X52316023Y-103846309D01*
X52316023Y-104084404D01*
X52268404Y-104179642D01*
X52220785Y-104227261D01*
X52125547Y-104274880D01*
X51839833Y-104274880D01*
X51744595Y-104227261D01*
X51696976Y-104179642D01*
X53268404Y-104274880D02*
X52696976Y-104274880D01*
X52982690Y-104274880D02*
X52982690Y-103274880D01*
X52887452Y-103417738D01*
X52792214Y-103512976D01*
X52696976Y-103560595D01*
%TO.C,C32*%
X48379142Y-92940142D02*
X48331523Y-92987761D01*
X48188666Y-93035380D01*
X48093428Y-93035380D01*
X47950571Y-92987761D01*
X47855333Y-92892523D01*
X47807714Y-92797285D01*
X47760095Y-92606809D01*
X47760095Y-92463952D01*
X47807714Y-92273476D01*
X47855333Y-92178238D01*
X47950571Y-92083000D01*
X48093428Y-92035380D01*
X48188666Y-92035380D01*
X48331523Y-92083000D01*
X48379142Y-92130619D01*
X48712476Y-92035380D02*
X49331523Y-92035380D01*
X48998190Y-92416333D01*
X49141047Y-92416333D01*
X49236285Y-92463952D01*
X49283904Y-92511571D01*
X49331523Y-92606809D01*
X49331523Y-92844904D01*
X49283904Y-92940142D01*
X49236285Y-92987761D01*
X49141047Y-93035380D01*
X48855333Y-93035380D01*
X48760095Y-92987761D01*
X48712476Y-92940142D01*
X49712476Y-92130619D02*
X49760095Y-92083000D01*
X49855333Y-92035380D01*
X50093428Y-92035380D01*
X50188666Y-92083000D01*
X50236285Y-92130619D01*
X50283904Y-92225857D01*
X50283904Y-92321095D01*
X50236285Y-92463952D01*
X49664857Y-93035380D01*
X50283904Y-93035380D01*
%TO.C,C33*%
X52744642Y-89479357D02*
X52792261Y-89526976D01*
X52839880Y-89669833D01*
X52839880Y-89765071D01*
X52792261Y-89907928D01*
X52697023Y-90003166D01*
X52601785Y-90050785D01*
X52411309Y-90098404D01*
X52268452Y-90098404D01*
X52077976Y-90050785D01*
X51982738Y-90003166D01*
X51887500Y-89907928D01*
X51839880Y-89765071D01*
X51839880Y-89669833D01*
X51887500Y-89526976D01*
X51935119Y-89479357D01*
X51839880Y-89146023D02*
X51839880Y-88526976D01*
X52220833Y-88860309D01*
X52220833Y-88717452D01*
X52268452Y-88622214D01*
X52316071Y-88574595D01*
X52411309Y-88526976D01*
X52649404Y-88526976D01*
X52744642Y-88574595D01*
X52792261Y-88622214D01*
X52839880Y-88717452D01*
X52839880Y-89003166D01*
X52792261Y-89098404D01*
X52744642Y-89146023D01*
X51839880Y-88193642D02*
X51839880Y-87574595D01*
X52220833Y-87907928D01*
X52220833Y-87765071D01*
X52268452Y-87669833D01*
X52316071Y-87622214D01*
X52411309Y-87574595D01*
X52649404Y-87574595D01*
X52744642Y-87622214D01*
X52792261Y-87669833D01*
X52839880Y-87765071D01*
X52839880Y-88050785D01*
X52792261Y-88146023D01*
X52744642Y-88193642D01*
%TO.C,C34*%
X48569642Y-100687142D02*
X48522023Y-100734761D01*
X48379166Y-100782380D01*
X48283928Y-100782380D01*
X48141071Y-100734761D01*
X48045833Y-100639523D01*
X47998214Y-100544285D01*
X47950595Y-100353809D01*
X47950595Y-100210952D01*
X47998214Y-100020476D01*
X48045833Y-99925238D01*
X48141071Y-99830000D01*
X48283928Y-99782380D01*
X48379166Y-99782380D01*
X48522023Y-99830000D01*
X48569642Y-99877619D01*
X48902976Y-99782380D02*
X49522023Y-99782380D01*
X49188690Y-100163333D01*
X49331547Y-100163333D01*
X49426785Y-100210952D01*
X49474404Y-100258571D01*
X49522023Y-100353809D01*
X49522023Y-100591904D01*
X49474404Y-100687142D01*
X49426785Y-100734761D01*
X49331547Y-100782380D01*
X49045833Y-100782380D01*
X48950595Y-100734761D01*
X48902976Y-100687142D01*
X50379166Y-100115714D02*
X50379166Y-100782380D01*
X50141071Y-99734761D02*
X49902976Y-100449047D01*
X50522023Y-100449047D01*
%TO.C,C35*%
X51236642Y-95830642D02*
X51189023Y-95878261D01*
X51046166Y-95925880D01*
X50950928Y-95925880D01*
X50808071Y-95878261D01*
X50712833Y-95783023D01*
X50665214Y-95687785D01*
X50617595Y-95497309D01*
X50617595Y-95354452D01*
X50665214Y-95163976D01*
X50712833Y-95068738D01*
X50808071Y-94973500D01*
X50950928Y-94925880D01*
X51046166Y-94925880D01*
X51189023Y-94973500D01*
X51236642Y-95021119D01*
X51569976Y-94925880D02*
X52189023Y-94925880D01*
X51855690Y-95306833D01*
X51998547Y-95306833D01*
X52093785Y-95354452D01*
X52141404Y-95402071D01*
X52189023Y-95497309D01*
X52189023Y-95735404D01*
X52141404Y-95830642D01*
X52093785Y-95878261D01*
X51998547Y-95925880D01*
X51712833Y-95925880D01*
X51617595Y-95878261D01*
X51569976Y-95830642D01*
X53093785Y-94925880D02*
X52617595Y-94925880D01*
X52569976Y-95402071D01*
X52617595Y-95354452D01*
X52712833Y-95306833D01*
X52950928Y-95306833D01*
X53046166Y-95354452D01*
X53093785Y-95402071D01*
X53141404Y-95497309D01*
X53141404Y-95735404D01*
X53093785Y-95830642D01*
X53046166Y-95878261D01*
X52950928Y-95925880D01*
X52712833Y-95925880D01*
X52617595Y-95878261D01*
X52569976Y-95830642D01*
%TO.C,C36*%
X51236642Y-97672142D02*
X51189023Y-97719761D01*
X51046166Y-97767380D01*
X50950928Y-97767380D01*
X50808071Y-97719761D01*
X50712833Y-97624523D01*
X50665214Y-97529285D01*
X50617595Y-97338809D01*
X50617595Y-97195952D01*
X50665214Y-97005476D01*
X50712833Y-96910238D01*
X50808071Y-96815000D01*
X50950928Y-96767380D01*
X51046166Y-96767380D01*
X51189023Y-96815000D01*
X51236642Y-96862619D01*
X51569976Y-96767380D02*
X52189023Y-96767380D01*
X51855690Y-97148333D01*
X51998547Y-97148333D01*
X52093785Y-97195952D01*
X52141404Y-97243571D01*
X52189023Y-97338809D01*
X52189023Y-97576904D01*
X52141404Y-97672142D01*
X52093785Y-97719761D01*
X51998547Y-97767380D01*
X51712833Y-97767380D01*
X51617595Y-97719761D01*
X51569976Y-97672142D01*
X53046166Y-96767380D02*
X52855690Y-96767380D01*
X52760452Y-96815000D01*
X52712833Y-96862619D01*
X52617595Y-97005476D01*
X52569976Y-97195952D01*
X52569976Y-97576904D01*
X52617595Y-97672142D01*
X52665214Y-97719761D01*
X52760452Y-97767380D01*
X52950928Y-97767380D01*
X53046166Y-97719761D01*
X53093785Y-97672142D01*
X53141404Y-97576904D01*
X53141404Y-97338809D01*
X53093785Y-97243571D01*
X53046166Y-97195952D01*
X52950928Y-97148333D01*
X52760452Y-97148333D01*
X52665214Y-97195952D01*
X52617595Y-97243571D01*
X52569976Y-97338809D01*
%TO.C,C37*%
X56935642Y-91003357D02*
X56983261Y-91050976D01*
X57030880Y-91193833D01*
X57030880Y-91289071D01*
X56983261Y-91431928D01*
X56888023Y-91527166D01*
X56792785Y-91574785D01*
X56602309Y-91622404D01*
X56459452Y-91622404D01*
X56268976Y-91574785D01*
X56173738Y-91527166D01*
X56078500Y-91431928D01*
X56030880Y-91289071D01*
X56030880Y-91193833D01*
X56078500Y-91050976D01*
X56126119Y-91003357D01*
X56030880Y-90670023D02*
X56030880Y-90050976D01*
X56411833Y-90384309D01*
X56411833Y-90241452D01*
X56459452Y-90146214D01*
X56507071Y-90098595D01*
X56602309Y-90050976D01*
X56840404Y-90050976D01*
X56935642Y-90098595D01*
X56983261Y-90146214D01*
X57030880Y-90241452D01*
X57030880Y-90527166D01*
X56983261Y-90622404D01*
X56935642Y-90670023D01*
X56030880Y-89717642D02*
X56030880Y-89050976D01*
X57030880Y-89479547D01*
%TO.C,C38*%
X55983142Y-105798857D02*
X56030761Y-105846476D01*
X56078380Y-105989333D01*
X56078380Y-106084571D01*
X56030761Y-106227428D01*
X55935523Y-106322666D01*
X55840285Y-106370285D01*
X55649809Y-106417904D01*
X55506952Y-106417904D01*
X55316476Y-106370285D01*
X55221238Y-106322666D01*
X55126000Y-106227428D01*
X55078380Y-106084571D01*
X55078380Y-105989333D01*
X55126000Y-105846476D01*
X55173619Y-105798857D01*
X55078380Y-105465523D02*
X55078380Y-104846476D01*
X55459333Y-105179809D01*
X55459333Y-105036952D01*
X55506952Y-104941714D01*
X55554571Y-104894095D01*
X55649809Y-104846476D01*
X55887904Y-104846476D01*
X55983142Y-104894095D01*
X56030761Y-104941714D01*
X56078380Y-105036952D01*
X56078380Y-105322666D01*
X56030761Y-105417904D01*
X55983142Y-105465523D01*
X55506952Y-104275047D02*
X55459333Y-104370285D01*
X55411714Y-104417904D01*
X55316476Y-104465523D01*
X55268857Y-104465523D01*
X55173619Y-104417904D01*
X55126000Y-104370285D01*
X55078380Y-104275047D01*
X55078380Y-104084571D01*
X55126000Y-103989333D01*
X55173619Y-103941714D01*
X55268857Y-103894095D01*
X55316476Y-103894095D01*
X55411714Y-103941714D01*
X55459333Y-103989333D01*
X55506952Y-104084571D01*
X55506952Y-104275047D01*
X55554571Y-104370285D01*
X55602190Y-104417904D01*
X55697428Y-104465523D01*
X55887904Y-104465523D01*
X55983142Y-104417904D01*
X56030761Y-104370285D01*
X56078380Y-104275047D01*
X56078380Y-104084571D01*
X56030761Y-103989333D01*
X55983142Y-103941714D01*
X55887904Y-103894095D01*
X55697428Y-103894095D01*
X55602190Y-103941714D01*
X55554571Y-103989333D01*
X55506952Y-104084571D01*
%TO.C,C39*%
X59633142Y-90876357D02*
X59680761Y-90923976D01*
X59728380Y-91066833D01*
X59728380Y-91162071D01*
X59680761Y-91304928D01*
X59585523Y-91400166D01*
X59490285Y-91447785D01*
X59299809Y-91495404D01*
X59156952Y-91495404D01*
X58966476Y-91447785D01*
X58871238Y-91400166D01*
X58776000Y-91304928D01*
X58728380Y-91162071D01*
X58728380Y-91066833D01*
X58776000Y-90923976D01*
X58823619Y-90876357D01*
X58728380Y-90543023D02*
X58728380Y-89923976D01*
X59109333Y-90257309D01*
X59109333Y-90114452D01*
X59156952Y-90019214D01*
X59204571Y-89971595D01*
X59299809Y-89923976D01*
X59537904Y-89923976D01*
X59633142Y-89971595D01*
X59680761Y-90019214D01*
X59728380Y-90114452D01*
X59728380Y-90400166D01*
X59680761Y-90495404D01*
X59633142Y-90543023D01*
X59728380Y-89447785D02*
X59728380Y-89257309D01*
X59680761Y-89162071D01*
X59633142Y-89114452D01*
X59490285Y-89019214D01*
X59299809Y-88971595D01*
X58918857Y-88971595D01*
X58823619Y-89019214D01*
X58776000Y-89066833D01*
X58728380Y-89162071D01*
X58728380Y-89352547D01*
X58776000Y-89447785D01*
X58823619Y-89495404D01*
X58918857Y-89543023D01*
X59156952Y-89543023D01*
X59252190Y-89495404D01*
X59299809Y-89447785D01*
X59347428Y-89352547D01*
X59347428Y-89162071D01*
X59299809Y-89066833D01*
X59252190Y-89019214D01*
X59156952Y-88971595D01*
%TO.C,D2*%
X54363880Y-123229595D02*
X53363880Y-123229595D01*
X53363880Y-122991500D01*
X53411500Y-122848642D01*
X53506738Y-122753404D01*
X53601976Y-122705785D01*
X53792452Y-122658166D01*
X53935309Y-122658166D01*
X54125785Y-122705785D01*
X54221023Y-122753404D01*
X54316261Y-122848642D01*
X54363880Y-122991500D01*
X54363880Y-123229595D01*
X53459119Y-122277214D02*
X53411500Y-122229595D01*
X53363880Y-122134357D01*
X53363880Y-121896261D01*
X53411500Y-121801023D01*
X53459119Y-121753404D01*
X53554357Y-121705785D01*
X53649595Y-121705785D01*
X53792452Y-121753404D01*
X54363880Y-122324833D01*
X54363880Y-121705785D01*
%TO.C,D3*%
X55506880Y-118530595D02*
X54506880Y-118530595D01*
X54506880Y-118292500D01*
X54554500Y-118149642D01*
X54649738Y-118054404D01*
X54744976Y-118006785D01*
X54935452Y-117959166D01*
X55078309Y-117959166D01*
X55268785Y-118006785D01*
X55364023Y-118054404D01*
X55459261Y-118149642D01*
X55506880Y-118292500D01*
X55506880Y-118530595D01*
X54506880Y-117625833D02*
X54506880Y-117006785D01*
X54887833Y-117340119D01*
X54887833Y-117197261D01*
X54935452Y-117102023D01*
X54983071Y-117054404D01*
X55078309Y-117006785D01*
X55316404Y-117006785D01*
X55411642Y-117054404D01*
X55459261Y-117102023D01*
X55506880Y-117197261D01*
X55506880Y-117482976D01*
X55459261Y-117578214D01*
X55411642Y-117625833D01*
%TO.C,J1*%
X68691166Y-122007380D02*
X68691166Y-122721666D01*
X68643547Y-122864523D01*
X68548309Y-122959761D01*
X68405452Y-123007380D01*
X68310214Y-123007380D01*
X69691166Y-123007380D02*
X69119738Y-123007380D01*
X69405452Y-123007380D02*
X69405452Y-122007380D01*
X69310214Y-122150238D01*
X69214976Y-122245476D01*
X69119738Y-122293095D01*
%TO.C,L1*%
X58316833Y-109434380D02*
X57840642Y-109434380D01*
X57840642Y-108434380D01*
X59173976Y-109434380D02*
X58602547Y-109434380D01*
X58888261Y-109434380D02*
X58888261Y-108434380D01*
X58793023Y-108577238D01*
X58697785Y-108672476D01*
X58602547Y-108720095D01*
%TO.C,R1*%
X65793880Y-66778166D02*
X65317690Y-67111500D01*
X65793880Y-67349595D02*
X64793880Y-67349595D01*
X64793880Y-66968642D01*
X64841500Y-66873404D01*
X64889119Y-66825785D01*
X64984357Y-66778166D01*
X65127214Y-66778166D01*
X65222452Y-66825785D01*
X65270071Y-66873404D01*
X65317690Y-66968642D01*
X65317690Y-67349595D01*
X65793880Y-65825785D02*
X65793880Y-66397214D01*
X65793880Y-66111500D02*
X64793880Y-66111500D01*
X64936738Y-66206738D01*
X65031976Y-66301976D01*
X65079595Y-66397214D01*
%TO.C,R9*%
X64412833Y-68778380D02*
X64079500Y-68302190D01*
X63841404Y-68778380D02*
X63841404Y-67778380D01*
X64222357Y-67778380D01*
X64317595Y-67826000D01*
X64365214Y-67873619D01*
X64412833Y-67968857D01*
X64412833Y-68111714D01*
X64365214Y-68206952D01*
X64317595Y-68254571D01*
X64222357Y-68302190D01*
X63841404Y-68302190D01*
X64889023Y-68778380D02*
X65079500Y-68778380D01*
X65174738Y-68730761D01*
X65222357Y-68683142D01*
X65317595Y-68540285D01*
X65365214Y-68349809D01*
X65365214Y-67968857D01*
X65317595Y-67873619D01*
X65269976Y-67826000D01*
X65174738Y-67778380D01*
X64984261Y-67778380D01*
X64889023Y-67826000D01*
X64841404Y-67873619D01*
X64793785Y-67968857D01*
X64793785Y-68206952D01*
X64841404Y-68302190D01*
X64889023Y-68349809D01*
X64984261Y-68397428D01*
X65174738Y-68397428D01*
X65269976Y-68349809D01*
X65317595Y-68302190D01*
X65365214Y-68206952D01*
%TO.C,R17*%
X48061642Y-109067880D02*
X47728309Y-108591690D01*
X47490214Y-109067880D02*
X47490214Y-108067880D01*
X47871166Y-108067880D01*
X47966404Y-108115500D01*
X48014023Y-108163119D01*
X48061642Y-108258357D01*
X48061642Y-108401214D01*
X48014023Y-108496452D01*
X47966404Y-108544071D01*
X47871166Y-108591690D01*
X47490214Y-108591690D01*
X49014023Y-109067880D02*
X48442595Y-109067880D01*
X48728309Y-109067880D02*
X48728309Y-108067880D01*
X48633071Y-108210738D01*
X48537833Y-108305976D01*
X48442595Y-108353595D01*
X49347357Y-108067880D02*
X50014023Y-108067880D01*
X49585452Y-109067880D01*
%TO.C,R18*%
X48061642Y-113388380D02*
X47728309Y-112912190D01*
X47490214Y-113388380D02*
X47490214Y-112388380D01*
X47871166Y-112388380D01*
X47966404Y-112436000D01*
X48014023Y-112483619D01*
X48061642Y-112578857D01*
X48061642Y-112721714D01*
X48014023Y-112816952D01*
X47966404Y-112864571D01*
X47871166Y-112912190D01*
X47490214Y-112912190D01*
X49014023Y-113388380D02*
X48442595Y-113388380D01*
X48728309Y-113388380D02*
X48728309Y-112388380D01*
X48633071Y-112531238D01*
X48537833Y-112626476D01*
X48442595Y-112674095D01*
X49585452Y-112816952D02*
X49490214Y-112769333D01*
X49442595Y-112721714D01*
X49394976Y-112626476D01*
X49394976Y-112578857D01*
X49442595Y-112483619D01*
X49490214Y-112436000D01*
X49585452Y-112388380D01*
X49775928Y-112388380D01*
X49871166Y-112436000D01*
X49918785Y-112483619D01*
X49966404Y-112578857D01*
X49966404Y-112626476D01*
X49918785Y-112721714D01*
X49871166Y-112769333D01*
X49775928Y-112816952D01*
X49585452Y-112816952D01*
X49490214Y-112864571D01*
X49442595Y-112912190D01*
X49394976Y-113007428D01*
X49394976Y-113197904D01*
X49442595Y-113293142D01*
X49490214Y-113340761D01*
X49585452Y-113388380D01*
X49775928Y-113388380D01*
X49871166Y-113340761D01*
X49918785Y-113293142D01*
X49966404Y-113197904D01*
X49966404Y-113007428D01*
X49918785Y-112912190D01*
X49871166Y-112864571D01*
X49775928Y-112816952D01*
%TO.C,R19*%
X48252142Y-99227880D02*
X47918809Y-98751690D01*
X47680714Y-99227880D02*
X47680714Y-98227880D01*
X48061666Y-98227880D01*
X48156904Y-98275500D01*
X48204523Y-98323119D01*
X48252142Y-98418357D01*
X48252142Y-98561214D01*
X48204523Y-98656452D01*
X48156904Y-98704071D01*
X48061666Y-98751690D01*
X47680714Y-98751690D01*
X49204523Y-99227880D02*
X48633095Y-99227880D01*
X48918809Y-99227880D02*
X48918809Y-98227880D01*
X48823571Y-98370738D01*
X48728333Y-98465976D01*
X48633095Y-98513595D01*
X49680714Y-99227880D02*
X49871190Y-99227880D01*
X49966428Y-99180261D01*
X50014047Y-99132642D01*
X50109285Y-98989785D01*
X50156904Y-98799309D01*
X50156904Y-98418357D01*
X50109285Y-98323119D01*
X50061666Y-98275500D01*
X49966428Y-98227880D01*
X49775952Y-98227880D01*
X49680714Y-98275500D01*
X49633095Y-98323119D01*
X49585476Y-98418357D01*
X49585476Y-98656452D01*
X49633095Y-98751690D01*
X49680714Y-98799309D01*
X49775952Y-98846928D01*
X49966428Y-98846928D01*
X50061666Y-98799309D01*
X50109285Y-98751690D01*
X50156904Y-98656452D01*
%TO.C,R20*%
X61348880Y-105735357D02*
X60872690Y-106068690D01*
X61348880Y-106306785D02*
X60348880Y-106306785D01*
X60348880Y-105925833D01*
X60396500Y-105830595D01*
X60444119Y-105782976D01*
X60539357Y-105735357D01*
X60682214Y-105735357D01*
X60777452Y-105782976D01*
X60825071Y-105830595D01*
X60872690Y-105925833D01*
X60872690Y-106306785D01*
X60444119Y-105354404D02*
X60396500Y-105306785D01*
X60348880Y-105211547D01*
X60348880Y-104973452D01*
X60396500Y-104878214D01*
X60444119Y-104830595D01*
X60539357Y-104782976D01*
X60634595Y-104782976D01*
X60777452Y-104830595D01*
X61348880Y-105402023D01*
X61348880Y-104782976D01*
X60348880Y-104163928D02*
X60348880Y-104068690D01*
X60396500Y-103973452D01*
X60444119Y-103925833D01*
X60539357Y-103878214D01*
X60729833Y-103830595D01*
X60967928Y-103830595D01*
X61158404Y-103878214D01*
X61253642Y-103925833D01*
X61301261Y-103973452D01*
X61348880Y-104068690D01*
X61348880Y-104163928D01*
X61301261Y-104259166D01*
X61253642Y-104306785D01*
X61158404Y-104354404D01*
X60967928Y-104402023D01*
X60729833Y-104402023D01*
X60539357Y-104354404D01*
X60444119Y-104306785D01*
X60396500Y-104259166D01*
X60348880Y-104163928D01*
%TO.C,R21*%
X59888380Y-105735357D02*
X59412190Y-106068690D01*
X59888380Y-106306785D02*
X58888380Y-106306785D01*
X58888380Y-105925833D01*
X58936000Y-105830595D01*
X58983619Y-105782976D01*
X59078857Y-105735357D01*
X59221714Y-105735357D01*
X59316952Y-105782976D01*
X59364571Y-105830595D01*
X59412190Y-105925833D01*
X59412190Y-106306785D01*
X58983619Y-105354404D02*
X58936000Y-105306785D01*
X58888380Y-105211547D01*
X58888380Y-104973452D01*
X58936000Y-104878214D01*
X58983619Y-104830595D01*
X59078857Y-104782976D01*
X59174095Y-104782976D01*
X59316952Y-104830595D01*
X59888380Y-105402023D01*
X59888380Y-104782976D01*
X59888380Y-103830595D02*
X59888380Y-104402023D01*
X59888380Y-104116309D02*
X58888380Y-104116309D01*
X59031238Y-104211547D01*
X59126476Y-104306785D01*
X59174095Y-104402023D01*
%TO.C,R22*%
X63794880Y-122245357D02*
X63318690Y-122578690D01*
X63794880Y-122816785D02*
X62794880Y-122816785D01*
X62794880Y-122435833D01*
X62842500Y-122340595D01*
X62890119Y-122292976D01*
X62985357Y-122245357D01*
X63128214Y-122245357D01*
X63223452Y-122292976D01*
X63271071Y-122340595D01*
X63318690Y-122435833D01*
X63318690Y-122816785D01*
X62890119Y-121864404D02*
X62842500Y-121816785D01*
X62794880Y-121721547D01*
X62794880Y-121483452D01*
X62842500Y-121388214D01*
X62890119Y-121340595D01*
X62985357Y-121292976D01*
X63080595Y-121292976D01*
X63223452Y-121340595D01*
X63794880Y-121912023D01*
X63794880Y-121292976D01*
X62890119Y-120912023D02*
X62842500Y-120864404D01*
X62794880Y-120769166D01*
X62794880Y-120531071D01*
X62842500Y-120435833D01*
X62890119Y-120388214D01*
X62985357Y-120340595D01*
X63080595Y-120340595D01*
X63223452Y-120388214D01*
X63794880Y-120959642D01*
X63794880Y-120340595D01*
%TO.C,R23*%
X45854880Y-95765857D02*
X45378690Y-96099190D01*
X45854880Y-96337285D02*
X44854880Y-96337285D01*
X44854880Y-95956333D01*
X44902500Y-95861095D01*
X44950119Y-95813476D01*
X45045357Y-95765857D01*
X45188214Y-95765857D01*
X45283452Y-95813476D01*
X45331071Y-95861095D01*
X45378690Y-95956333D01*
X45378690Y-96337285D01*
X44950119Y-95384904D02*
X44902500Y-95337285D01*
X44854880Y-95242047D01*
X44854880Y-95003952D01*
X44902500Y-94908714D01*
X44950119Y-94861095D01*
X45045357Y-94813476D01*
X45140595Y-94813476D01*
X45283452Y-94861095D01*
X45854880Y-95432523D01*
X45854880Y-94813476D01*
X44854880Y-94480142D02*
X44854880Y-93861095D01*
X45235833Y-94194428D01*
X45235833Y-94051571D01*
X45283452Y-93956333D01*
X45331071Y-93908714D01*
X45426309Y-93861095D01*
X45664404Y-93861095D01*
X45759642Y-93908714D01*
X45807261Y-93956333D01*
X45854880Y-94051571D01*
X45854880Y-94337285D01*
X45807261Y-94432523D01*
X45759642Y-94480142D01*
%TO.C,R24*%
X51363642Y-105671880D02*
X51030309Y-105195690D01*
X50792214Y-105671880D02*
X50792214Y-104671880D01*
X51173166Y-104671880D01*
X51268404Y-104719500D01*
X51316023Y-104767119D01*
X51363642Y-104862357D01*
X51363642Y-105005214D01*
X51316023Y-105100452D01*
X51268404Y-105148071D01*
X51173166Y-105195690D01*
X50792214Y-105195690D01*
X51744595Y-104767119D02*
X51792214Y-104719500D01*
X51887452Y-104671880D01*
X52125547Y-104671880D01*
X52220785Y-104719500D01*
X52268404Y-104767119D01*
X52316023Y-104862357D01*
X52316023Y-104957595D01*
X52268404Y-105100452D01*
X51696976Y-105671880D01*
X52316023Y-105671880D01*
X53173166Y-105005214D02*
X53173166Y-105671880D01*
X52935071Y-104624261D02*
X52696976Y-105338547D01*
X53316023Y-105338547D01*
%TO.C,U1*%
X48514095Y-113815880D02*
X48514095Y-114625404D01*
X48561714Y-114720642D01*
X48609333Y-114768261D01*
X48704571Y-114815880D01*
X48895047Y-114815880D01*
X48990285Y-114768261D01*
X49037904Y-114720642D01*
X49085523Y-114625404D01*
X49085523Y-113815880D01*
X50085523Y-114815880D02*
X49514095Y-114815880D01*
X49799809Y-114815880D02*
X49799809Y-113815880D01*
X49704571Y-113958738D01*
X49609333Y-114053976D01*
X49514095Y-114101595D01*
%TO.C,U3*%
X64285880Y-114426904D02*
X65095404Y-114426904D01*
X65190642Y-114379285D01*
X65238261Y-114331666D01*
X65285880Y-114236428D01*
X65285880Y-114045952D01*
X65238261Y-113950714D01*
X65190642Y-113903095D01*
X65095404Y-113855476D01*
X64285880Y-113855476D01*
X64285880Y-113474523D02*
X64285880Y-112855476D01*
X64666833Y-113188809D01*
X64666833Y-113045952D01*
X64714452Y-112950714D01*
X64762071Y-112903095D01*
X64857309Y-112855476D01*
X65095404Y-112855476D01*
X65190642Y-112903095D01*
X65238261Y-112950714D01*
X65285880Y-113045952D01*
X65285880Y-113331666D01*
X65238261Y-113426904D01*
X65190642Y-113474523D01*
%TO.C,U2*%
X61722095Y-92924380D02*
X61722095Y-93733904D01*
X61769714Y-93829142D01*
X61817333Y-93876761D01*
X61912571Y-93924380D01*
X62103047Y-93924380D01*
X62198285Y-93876761D01*
X62245904Y-93829142D01*
X62293523Y-93733904D01*
X62293523Y-92924380D01*
X62722095Y-93019619D02*
X62769714Y-92972000D01*
X62864952Y-92924380D01*
X63103047Y-92924380D01*
X63198285Y-92972000D01*
X63245904Y-93019619D01*
X63293523Y-93114857D01*
X63293523Y-93210095D01*
X63245904Y-93352952D01*
X62674476Y-93924380D01*
X63293523Y-93924380D01*
X54669880Y-100193501D02*
X54907976Y-100193501D01*
X54812738Y-100431596D02*
X54907976Y-100193501D01*
X54812738Y-99955405D01*
X55098452Y-100336358D02*
X54907976Y-100193501D01*
X55098452Y-100050643D01*
%TO.C,F1*%
X56880166Y-119647571D02*
X56546833Y-119647571D01*
X56546833Y-120171380D02*
X56546833Y-119171380D01*
X57023023Y-119171380D01*
X57927785Y-120171380D02*
X57356357Y-120171380D01*
X57642071Y-120171380D02*
X57642071Y-119171380D01*
X57546833Y-119314238D01*
X57451595Y-119409476D01*
X57356357Y-119457095D01*
%TO.C,D1*%
X60713880Y-123166095D02*
X59713880Y-123166095D01*
X59713880Y-122928000D01*
X59761500Y-122785142D01*
X59856738Y-122689904D01*
X59951976Y-122642285D01*
X60142452Y-122594666D01*
X60285309Y-122594666D01*
X60475785Y-122642285D01*
X60571023Y-122689904D01*
X60666261Y-122785142D01*
X60713880Y-122928000D01*
X60713880Y-123166095D01*
X60713880Y-121642285D02*
X60713880Y-122213714D01*
X60713880Y-121928000D02*
X59713880Y-121928000D01*
X59856738Y-122023238D01*
X59951976Y-122118476D01*
X59999595Y-122213714D01*
%TO.C,C3*%
X67397333Y-69953142D02*
X67349714Y-70000761D01*
X67206857Y-70048380D01*
X67111619Y-70048380D01*
X66968761Y-70000761D01*
X66873523Y-69905523D01*
X66825904Y-69810285D01*
X66778285Y-69619809D01*
X66778285Y-69476952D01*
X66825904Y-69286476D01*
X66873523Y-69191238D01*
X66968761Y-69096000D01*
X67111619Y-69048380D01*
X67206857Y-69048380D01*
X67349714Y-69096000D01*
X67397333Y-69143619D01*
X67730666Y-69048380D02*
X68349714Y-69048380D01*
X68016380Y-69429333D01*
X68159238Y-69429333D01*
X68254476Y-69476952D01*
X68302095Y-69524571D01*
X68349714Y-69619809D01*
X68349714Y-69857904D01*
X68302095Y-69953142D01*
X68254476Y-70000761D01*
X68159238Y-70048380D01*
X67873523Y-70048380D01*
X67778285Y-70000761D01*
X67730666Y-69953142D01*
%TO.C,C4*%
X58443833Y-70080142D02*
X58396214Y-70127761D01*
X58253357Y-70175380D01*
X58158119Y-70175380D01*
X58015261Y-70127761D01*
X57920023Y-70032523D01*
X57872404Y-69937285D01*
X57824785Y-69746809D01*
X57824785Y-69603952D01*
X57872404Y-69413476D01*
X57920023Y-69318238D01*
X58015261Y-69223000D01*
X58158119Y-69175380D01*
X58253357Y-69175380D01*
X58396214Y-69223000D01*
X58443833Y-69270619D01*
X59300976Y-69508714D02*
X59300976Y-70175380D01*
X59062880Y-69127761D02*
X58824785Y-69842047D01*
X59443833Y-69842047D01*
%TO.C,C5*%
X61491833Y-70016642D02*
X61444214Y-70064261D01*
X61301357Y-70111880D01*
X61206119Y-70111880D01*
X61063261Y-70064261D01*
X60968023Y-69969023D01*
X60920404Y-69873785D01*
X60872785Y-69683309D01*
X60872785Y-69540452D01*
X60920404Y-69349976D01*
X60968023Y-69254738D01*
X61063261Y-69159500D01*
X61206119Y-69111880D01*
X61301357Y-69111880D01*
X61444214Y-69159500D01*
X61491833Y-69207119D01*
X62396595Y-69111880D02*
X61920404Y-69111880D01*
X61872785Y-69588071D01*
X61920404Y-69540452D01*
X62015642Y-69492833D01*
X62253738Y-69492833D01*
X62348976Y-69540452D01*
X62396595Y-69588071D01*
X62444214Y-69683309D01*
X62444214Y-69921404D01*
X62396595Y-70016642D01*
X62348976Y-70064261D01*
X62253738Y-70111880D01*
X62015642Y-70111880D01*
X61920404Y-70064261D01*
X61872785Y-70016642D01*
%TO.C,C6*%
X52855833Y-70207142D02*
X52808214Y-70254761D01*
X52665357Y-70302380D01*
X52570119Y-70302380D01*
X52427261Y-70254761D01*
X52332023Y-70159523D01*
X52284404Y-70064285D01*
X52236785Y-69873809D01*
X52236785Y-69730952D01*
X52284404Y-69540476D01*
X52332023Y-69445238D01*
X52427261Y-69350000D01*
X52570119Y-69302380D01*
X52665357Y-69302380D01*
X52808214Y-69350000D01*
X52855833Y-69397619D01*
X53712976Y-69302380D02*
X53522500Y-69302380D01*
X53427261Y-69350000D01*
X53379642Y-69397619D01*
X53284404Y-69540476D01*
X53236785Y-69730952D01*
X53236785Y-70111904D01*
X53284404Y-70207142D01*
X53332023Y-70254761D01*
X53427261Y-70302380D01*
X53617738Y-70302380D01*
X53712976Y-70254761D01*
X53760595Y-70207142D01*
X53808214Y-70111904D01*
X53808214Y-69873809D01*
X53760595Y-69778571D01*
X53712976Y-69730952D01*
X53617738Y-69683333D01*
X53427261Y-69683333D01*
X53332023Y-69730952D01*
X53284404Y-69778571D01*
X53236785Y-69873809D01*
%TO.C,C7*%
X55014833Y-70143642D02*
X54967214Y-70191261D01*
X54824357Y-70238880D01*
X54729119Y-70238880D01*
X54586261Y-70191261D01*
X54491023Y-70096023D01*
X54443404Y-70000785D01*
X54395785Y-69810309D01*
X54395785Y-69667452D01*
X54443404Y-69476976D01*
X54491023Y-69381738D01*
X54586261Y-69286500D01*
X54729119Y-69238880D01*
X54824357Y-69238880D01*
X54967214Y-69286500D01*
X55014833Y-69334119D01*
X55348166Y-69238880D02*
X56014833Y-69238880D01*
X55586261Y-70238880D01*
%TO.C,C8*%
X46188333Y-70207142D02*
X46140714Y-70254761D01*
X45997857Y-70302380D01*
X45902619Y-70302380D01*
X45759761Y-70254761D01*
X45664523Y-70159523D01*
X45616904Y-70064285D01*
X45569285Y-69873809D01*
X45569285Y-69730952D01*
X45616904Y-69540476D01*
X45664523Y-69445238D01*
X45759761Y-69350000D01*
X45902619Y-69302380D01*
X45997857Y-69302380D01*
X46140714Y-69350000D01*
X46188333Y-69397619D01*
X46759761Y-69730952D02*
X46664523Y-69683333D01*
X46616904Y-69635714D01*
X46569285Y-69540476D01*
X46569285Y-69492857D01*
X46616904Y-69397619D01*
X46664523Y-69350000D01*
X46759761Y-69302380D01*
X46950238Y-69302380D01*
X47045476Y-69350000D01*
X47093095Y-69397619D01*
X47140714Y-69492857D01*
X47140714Y-69540476D01*
X47093095Y-69635714D01*
X47045476Y-69683333D01*
X46950238Y-69730952D01*
X46759761Y-69730952D01*
X46664523Y-69778571D01*
X46616904Y-69826190D01*
X46569285Y-69921428D01*
X46569285Y-70111904D01*
X46616904Y-70207142D01*
X46664523Y-70254761D01*
X46759761Y-70302380D01*
X46950238Y-70302380D01*
X47045476Y-70254761D01*
X47093095Y-70207142D01*
X47140714Y-70111904D01*
X47140714Y-69921428D01*
X47093095Y-69826190D01*
X47045476Y-69778571D01*
X46950238Y-69730952D01*
%TO.C,C9*%
X49045833Y-70207142D02*
X48998214Y-70254761D01*
X48855357Y-70302380D01*
X48760119Y-70302380D01*
X48617261Y-70254761D01*
X48522023Y-70159523D01*
X48474404Y-70064285D01*
X48426785Y-69873809D01*
X48426785Y-69730952D01*
X48474404Y-69540476D01*
X48522023Y-69445238D01*
X48617261Y-69350000D01*
X48760119Y-69302380D01*
X48855357Y-69302380D01*
X48998214Y-69350000D01*
X49045833Y-69397619D01*
X49522023Y-70302380D02*
X49712500Y-70302380D01*
X49807738Y-70254761D01*
X49855357Y-70207142D01*
X49950595Y-70064285D01*
X49998214Y-69873809D01*
X49998214Y-69492857D01*
X49950595Y-69397619D01*
X49902976Y-69350000D01*
X49807738Y-69302380D01*
X49617261Y-69302380D01*
X49522023Y-69350000D01*
X49474404Y-69397619D01*
X49426785Y-69492857D01*
X49426785Y-69730952D01*
X49474404Y-69826190D01*
X49522023Y-69873809D01*
X49617261Y-69921428D01*
X49807738Y-69921428D01*
X49902976Y-69873809D01*
X49950595Y-69826190D01*
X49998214Y-69730952D01*
%TO.C,R2*%
X67254380Y-66778166D02*
X66778190Y-67111500D01*
X67254380Y-67349595D02*
X66254380Y-67349595D01*
X66254380Y-66968642D01*
X66302000Y-66873404D01*
X66349619Y-66825785D01*
X66444857Y-66778166D01*
X66587714Y-66778166D01*
X66682952Y-66825785D01*
X66730571Y-66873404D01*
X66778190Y-66968642D01*
X66778190Y-67349595D01*
X66349619Y-66397214D02*
X66302000Y-66349595D01*
X66254380Y-66254357D01*
X66254380Y-66016261D01*
X66302000Y-65921023D01*
X66349619Y-65873404D01*
X66444857Y-65825785D01*
X66540095Y-65825785D01*
X66682952Y-65873404D01*
X67254380Y-66444833D01*
X67254380Y-65825785D01*
%TO.C,R3*%
X59824880Y-66778166D02*
X59348690Y-67111500D01*
X59824880Y-67349595D02*
X58824880Y-67349595D01*
X58824880Y-66968642D01*
X58872500Y-66873404D01*
X58920119Y-66825785D01*
X59015357Y-66778166D01*
X59158214Y-66778166D01*
X59253452Y-66825785D01*
X59301071Y-66873404D01*
X59348690Y-66968642D01*
X59348690Y-67349595D01*
X58824880Y-66444833D02*
X58824880Y-65825785D01*
X59205833Y-66159119D01*
X59205833Y-66016261D01*
X59253452Y-65921023D01*
X59301071Y-65873404D01*
X59396309Y-65825785D01*
X59634404Y-65825785D01*
X59729642Y-65873404D01*
X59777261Y-65921023D01*
X59824880Y-66016261D01*
X59824880Y-66301976D01*
X59777261Y-66397214D01*
X59729642Y-66444833D01*
%TO.C,R4*%
X61348880Y-66778166D02*
X60872690Y-67111500D01*
X61348880Y-67349595D02*
X60348880Y-67349595D01*
X60348880Y-66968642D01*
X60396500Y-66873404D01*
X60444119Y-66825785D01*
X60539357Y-66778166D01*
X60682214Y-66778166D01*
X60777452Y-66825785D01*
X60825071Y-66873404D01*
X60872690Y-66968642D01*
X60872690Y-67349595D01*
X60682214Y-65921023D02*
X61348880Y-65921023D01*
X60301261Y-66159119D02*
X61015547Y-66397214D01*
X61015547Y-65778166D01*
%TO.C,R5*%
X53919380Y-66841666D02*
X53443190Y-67175000D01*
X53919380Y-67413095D02*
X52919380Y-67413095D01*
X52919380Y-67032142D01*
X52967000Y-66936904D01*
X53014619Y-66889285D01*
X53109857Y-66841666D01*
X53252714Y-66841666D01*
X53347952Y-66889285D01*
X53395571Y-66936904D01*
X53443190Y-67032142D01*
X53443190Y-67413095D01*
X52919380Y-65936904D02*
X52919380Y-66413095D01*
X53395571Y-66460714D01*
X53347952Y-66413095D01*
X53300333Y-66317857D01*
X53300333Y-66079761D01*
X53347952Y-65984523D01*
X53395571Y-65936904D01*
X53490809Y-65889285D01*
X53728904Y-65889285D01*
X53824142Y-65936904D01*
X53871761Y-65984523D01*
X53919380Y-66079761D01*
X53919380Y-66317857D01*
X53871761Y-66413095D01*
X53824142Y-66460714D01*
%TO.C,R6*%
X55379880Y-66778166D02*
X54903690Y-67111500D01*
X55379880Y-67349595D02*
X54379880Y-67349595D01*
X54379880Y-66968642D01*
X54427500Y-66873404D01*
X54475119Y-66825785D01*
X54570357Y-66778166D01*
X54713214Y-66778166D01*
X54808452Y-66825785D01*
X54856071Y-66873404D01*
X54903690Y-66968642D01*
X54903690Y-67349595D01*
X54379880Y-65921023D02*
X54379880Y-66111500D01*
X54427500Y-66206738D01*
X54475119Y-66254357D01*
X54617976Y-66349595D01*
X54808452Y-66397214D01*
X55189404Y-66397214D01*
X55284642Y-66349595D01*
X55332261Y-66301976D01*
X55379880Y-66206738D01*
X55379880Y-66016261D01*
X55332261Y-65921023D01*
X55284642Y-65873404D01*
X55189404Y-65825785D01*
X54951309Y-65825785D01*
X54856071Y-65873404D01*
X54808452Y-65921023D01*
X54760833Y-66016261D01*
X54760833Y-66206738D01*
X54808452Y-66301976D01*
X54856071Y-66349595D01*
X54951309Y-66397214D01*
%TO.C,R7*%
X48013880Y-66905166D02*
X47537690Y-67238500D01*
X48013880Y-67476595D02*
X47013880Y-67476595D01*
X47013880Y-67095642D01*
X47061500Y-67000404D01*
X47109119Y-66952785D01*
X47204357Y-66905166D01*
X47347214Y-66905166D01*
X47442452Y-66952785D01*
X47490071Y-67000404D01*
X47537690Y-67095642D01*
X47537690Y-67476595D01*
X47013880Y-66571833D02*
X47013880Y-65905166D01*
X48013880Y-66333738D01*
%TO.C,R8*%
X49537880Y-66905166D02*
X49061690Y-67238500D01*
X49537880Y-67476595D02*
X48537880Y-67476595D01*
X48537880Y-67095642D01*
X48585500Y-67000404D01*
X48633119Y-66952785D01*
X48728357Y-66905166D01*
X48871214Y-66905166D01*
X48966452Y-66952785D01*
X49014071Y-67000404D01*
X49061690Y-67095642D01*
X49061690Y-67476595D01*
X48966452Y-66333738D02*
X48918833Y-66428976D01*
X48871214Y-66476595D01*
X48775976Y-66524214D01*
X48728357Y-66524214D01*
X48633119Y-66476595D01*
X48585500Y-66428976D01*
X48537880Y-66333738D01*
X48537880Y-66143261D01*
X48585500Y-66048023D01*
X48633119Y-66000404D01*
X48728357Y-65952785D01*
X48775976Y-65952785D01*
X48871214Y-66000404D01*
X48918833Y-66048023D01*
X48966452Y-66143261D01*
X48966452Y-66333738D01*
X49014071Y-66428976D01*
X49061690Y-66476595D01*
X49156928Y-66524214D01*
X49347404Y-66524214D01*
X49442642Y-66476595D01*
X49490261Y-66428976D01*
X49537880Y-66333738D01*
X49537880Y-66143261D01*
X49490261Y-66048023D01*
X49442642Y-66000404D01*
X49347404Y-65952785D01*
X49156928Y-65952785D01*
X49061690Y-66000404D01*
X49014071Y-66048023D01*
X48966452Y-66143261D01*
%TO.C,R10*%
X66921142Y-68778380D02*
X66587809Y-68302190D01*
X66349714Y-68778380D02*
X66349714Y-67778380D01*
X66730666Y-67778380D01*
X66825904Y-67826000D01*
X66873523Y-67873619D01*
X66921142Y-67968857D01*
X66921142Y-68111714D01*
X66873523Y-68206952D01*
X66825904Y-68254571D01*
X66730666Y-68302190D01*
X66349714Y-68302190D01*
X67873523Y-68778380D02*
X67302095Y-68778380D01*
X67587809Y-68778380D02*
X67587809Y-67778380D01*
X67492571Y-67921238D01*
X67397333Y-68016476D01*
X67302095Y-68064095D01*
X68492571Y-67778380D02*
X68587809Y-67778380D01*
X68683047Y-67826000D01*
X68730666Y-67873619D01*
X68778285Y-67968857D01*
X68825904Y-68159333D01*
X68825904Y-68397428D01*
X68778285Y-68587904D01*
X68730666Y-68683142D01*
X68683047Y-68730761D01*
X68587809Y-68778380D01*
X68492571Y-68778380D01*
X68397333Y-68730761D01*
X68349714Y-68683142D01*
X68302095Y-68587904D01*
X68254476Y-68397428D01*
X68254476Y-68159333D01*
X68302095Y-67968857D01*
X68349714Y-67873619D01*
X68397333Y-67826000D01*
X68492571Y-67778380D01*
%TO.C,R11*%
X57967642Y-68905380D02*
X57634309Y-68429190D01*
X57396214Y-68905380D02*
X57396214Y-67905380D01*
X57777166Y-67905380D01*
X57872404Y-67953000D01*
X57920023Y-68000619D01*
X57967642Y-68095857D01*
X57967642Y-68238714D01*
X57920023Y-68333952D01*
X57872404Y-68381571D01*
X57777166Y-68429190D01*
X57396214Y-68429190D01*
X58920023Y-68905380D02*
X58348595Y-68905380D01*
X58634309Y-68905380D02*
X58634309Y-67905380D01*
X58539071Y-68048238D01*
X58443833Y-68143476D01*
X58348595Y-68191095D01*
X59872404Y-68905380D02*
X59300976Y-68905380D01*
X59586690Y-68905380D02*
X59586690Y-67905380D01*
X59491452Y-68048238D01*
X59396214Y-68143476D01*
X59300976Y-68191095D01*
%TO.C,R12*%
X60951642Y-68905380D02*
X60618309Y-68429190D01*
X60380214Y-68905380D02*
X60380214Y-67905380D01*
X60761166Y-67905380D01*
X60856404Y-67953000D01*
X60904023Y-68000619D01*
X60951642Y-68095857D01*
X60951642Y-68238714D01*
X60904023Y-68333952D01*
X60856404Y-68381571D01*
X60761166Y-68429190D01*
X60380214Y-68429190D01*
X61904023Y-68905380D02*
X61332595Y-68905380D01*
X61618309Y-68905380D02*
X61618309Y-67905380D01*
X61523071Y-68048238D01*
X61427833Y-68143476D01*
X61332595Y-68191095D01*
X62284976Y-68000619D02*
X62332595Y-67953000D01*
X62427833Y-67905380D01*
X62665928Y-67905380D01*
X62761166Y-67953000D01*
X62808785Y-68000619D01*
X62856404Y-68095857D01*
X62856404Y-68191095D01*
X62808785Y-68333952D01*
X62237357Y-68905380D01*
X62856404Y-68905380D01*
%TO.C,R13*%
X52125642Y-68968880D02*
X51792309Y-68492690D01*
X51554214Y-68968880D02*
X51554214Y-67968880D01*
X51935166Y-67968880D01*
X52030404Y-68016500D01*
X52078023Y-68064119D01*
X52125642Y-68159357D01*
X52125642Y-68302214D01*
X52078023Y-68397452D01*
X52030404Y-68445071D01*
X51935166Y-68492690D01*
X51554214Y-68492690D01*
X53078023Y-68968880D02*
X52506595Y-68968880D01*
X52792309Y-68968880D02*
X52792309Y-67968880D01*
X52697071Y-68111738D01*
X52601833Y-68206976D01*
X52506595Y-68254595D01*
X53411357Y-67968880D02*
X54030404Y-67968880D01*
X53697071Y-68349833D01*
X53839928Y-68349833D01*
X53935166Y-68397452D01*
X53982785Y-68445071D01*
X54030404Y-68540309D01*
X54030404Y-68778404D01*
X53982785Y-68873642D01*
X53935166Y-68921261D01*
X53839928Y-68968880D01*
X53554214Y-68968880D01*
X53458976Y-68921261D01*
X53411357Y-68873642D01*
%TO.C,R14*%
X54983142Y-68905380D02*
X54649809Y-68429190D01*
X54411714Y-68905380D02*
X54411714Y-67905380D01*
X54792666Y-67905380D01*
X54887904Y-67953000D01*
X54935523Y-68000619D01*
X54983142Y-68095857D01*
X54983142Y-68238714D01*
X54935523Y-68333952D01*
X54887904Y-68381571D01*
X54792666Y-68429190D01*
X54411714Y-68429190D01*
X55935523Y-68905380D02*
X55364095Y-68905380D01*
X55649809Y-68905380D02*
X55649809Y-67905380D01*
X55554571Y-68048238D01*
X55459333Y-68143476D01*
X55364095Y-68191095D01*
X56792666Y-68238714D02*
X56792666Y-68905380D01*
X56554571Y-67857761D02*
X56316476Y-68572047D01*
X56935523Y-68572047D01*
%TO.C,R15*%
X46156642Y-68968880D02*
X45823309Y-68492690D01*
X45585214Y-68968880D02*
X45585214Y-67968880D01*
X45966166Y-67968880D01*
X46061404Y-68016500D01*
X46109023Y-68064119D01*
X46156642Y-68159357D01*
X46156642Y-68302214D01*
X46109023Y-68397452D01*
X46061404Y-68445071D01*
X45966166Y-68492690D01*
X45585214Y-68492690D01*
X47109023Y-68968880D02*
X46537595Y-68968880D01*
X46823309Y-68968880D02*
X46823309Y-67968880D01*
X46728071Y-68111738D01*
X46632833Y-68206976D01*
X46537595Y-68254595D01*
X48013785Y-67968880D02*
X47537595Y-67968880D01*
X47489976Y-68445071D01*
X47537595Y-68397452D01*
X47632833Y-68349833D01*
X47870928Y-68349833D01*
X47966166Y-68397452D01*
X48013785Y-68445071D01*
X48061404Y-68540309D01*
X48061404Y-68778404D01*
X48013785Y-68873642D01*
X47966166Y-68921261D01*
X47870928Y-68968880D01*
X47632833Y-68968880D01*
X47537595Y-68921261D01*
X47489976Y-68873642D01*
%TO.C,R16*%
X49077642Y-68968880D02*
X48744309Y-68492690D01*
X48506214Y-68968880D02*
X48506214Y-67968880D01*
X48887166Y-67968880D01*
X48982404Y-68016500D01*
X49030023Y-68064119D01*
X49077642Y-68159357D01*
X49077642Y-68302214D01*
X49030023Y-68397452D01*
X48982404Y-68445071D01*
X48887166Y-68492690D01*
X48506214Y-68492690D01*
X50030023Y-68968880D02*
X49458595Y-68968880D01*
X49744309Y-68968880D02*
X49744309Y-67968880D01*
X49649071Y-68111738D01*
X49553833Y-68206976D01*
X49458595Y-68254595D01*
X50887166Y-67968880D02*
X50696690Y-67968880D01*
X50601452Y-68016500D01*
X50553833Y-68064119D01*
X50458595Y-68206976D01*
X50410976Y-68397452D01*
X50410976Y-68778404D01*
X50458595Y-68873642D01*
X50506214Y-68921261D01*
X50601452Y-68968880D01*
X50791928Y-68968880D01*
X50887166Y-68921261D01*
X50934785Y-68873642D01*
X50982404Y-68778404D01*
X50982404Y-68540309D01*
X50934785Y-68445071D01*
X50887166Y-68397452D01*
X50791928Y-68349833D01*
X50601452Y-68349833D01*
X50506214Y-68397452D01*
X50458595Y-68445071D01*
X50410976Y-68540309D01*
%TO.C,C12*%
X68318142Y-82716642D02*
X68270523Y-82764261D01*
X68127666Y-82811880D01*
X68032428Y-82811880D01*
X67889571Y-82764261D01*
X67794333Y-82669023D01*
X67746714Y-82573785D01*
X67699095Y-82383309D01*
X67699095Y-82240452D01*
X67746714Y-82049976D01*
X67794333Y-81954738D01*
X67889571Y-81859500D01*
X68032428Y-81811880D01*
X68127666Y-81811880D01*
X68270523Y-81859500D01*
X68318142Y-81907119D01*
X69270523Y-82811880D02*
X68699095Y-82811880D01*
X68984809Y-82811880D02*
X68984809Y-81811880D01*
X68889571Y-81954738D01*
X68794333Y-82049976D01*
X68699095Y-82097595D01*
X69651476Y-81907119D02*
X69699095Y-81859500D01*
X69794333Y-81811880D01*
X70032428Y-81811880D01*
X70127666Y-81859500D01*
X70175285Y-81907119D01*
X70222904Y-82002357D01*
X70222904Y-82097595D01*
X70175285Y-82240452D01*
X69603857Y-82811880D01*
X70222904Y-82811880D01*
%TO.C,C13*%
X68445142Y-77319142D02*
X68397523Y-77366761D01*
X68254666Y-77414380D01*
X68159428Y-77414380D01*
X68016571Y-77366761D01*
X67921333Y-77271523D01*
X67873714Y-77176285D01*
X67826095Y-76985809D01*
X67826095Y-76842952D01*
X67873714Y-76652476D01*
X67921333Y-76557238D01*
X68016571Y-76462000D01*
X68159428Y-76414380D01*
X68254666Y-76414380D01*
X68397523Y-76462000D01*
X68445142Y-76509619D01*
X69397523Y-77414380D02*
X68826095Y-77414380D01*
X69111809Y-77414380D02*
X69111809Y-76414380D01*
X69016571Y-76557238D01*
X68921333Y-76652476D01*
X68826095Y-76700095D01*
X69730857Y-76414380D02*
X70349904Y-76414380D01*
X70016571Y-76795333D01*
X70159428Y-76795333D01*
X70254666Y-76842952D01*
X70302285Y-76890571D01*
X70349904Y-76985809D01*
X70349904Y-77223904D01*
X70302285Y-77319142D01*
X70254666Y-77366761D01*
X70159428Y-77414380D01*
X69873714Y-77414380D01*
X69778476Y-77366761D01*
X69730857Y-77319142D01*
%TO.C,C14*%
X62031642Y-82653142D02*
X61984023Y-82700761D01*
X61841166Y-82748380D01*
X61745928Y-82748380D01*
X61603071Y-82700761D01*
X61507833Y-82605523D01*
X61460214Y-82510285D01*
X61412595Y-82319809D01*
X61412595Y-82176952D01*
X61460214Y-81986476D01*
X61507833Y-81891238D01*
X61603071Y-81796000D01*
X61745928Y-81748380D01*
X61841166Y-81748380D01*
X61984023Y-81796000D01*
X62031642Y-81843619D01*
X62984023Y-82748380D02*
X62412595Y-82748380D01*
X62698309Y-82748380D02*
X62698309Y-81748380D01*
X62603071Y-81891238D01*
X62507833Y-81986476D01*
X62412595Y-82034095D01*
X63841166Y-82081714D02*
X63841166Y-82748380D01*
X63603071Y-81700761D02*
X63364976Y-82415047D01*
X63984023Y-82415047D01*
%TO.C,C15*%
X62031642Y-77255642D02*
X61984023Y-77303261D01*
X61841166Y-77350880D01*
X61745928Y-77350880D01*
X61603071Y-77303261D01*
X61507833Y-77208023D01*
X61460214Y-77112785D01*
X61412595Y-76922309D01*
X61412595Y-76779452D01*
X61460214Y-76588976D01*
X61507833Y-76493738D01*
X61603071Y-76398500D01*
X61745928Y-76350880D01*
X61841166Y-76350880D01*
X61984023Y-76398500D01*
X62031642Y-76446119D01*
X62984023Y-77350880D02*
X62412595Y-77350880D01*
X62698309Y-77350880D02*
X62698309Y-76350880D01*
X62603071Y-76493738D01*
X62507833Y-76588976D01*
X62412595Y-76636595D01*
X63888785Y-76350880D02*
X63412595Y-76350880D01*
X63364976Y-76827071D01*
X63412595Y-76779452D01*
X63507833Y-76731833D01*
X63745928Y-76731833D01*
X63841166Y-76779452D01*
X63888785Y-76827071D01*
X63936404Y-76922309D01*
X63936404Y-77160404D01*
X63888785Y-77255642D01*
X63841166Y-77303261D01*
X63745928Y-77350880D01*
X63507833Y-77350880D01*
X63412595Y-77303261D01*
X63364976Y-77255642D01*
%TO.C,C16*%
X56253142Y-82843642D02*
X56205523Y-82891261D01*
X56062666Y-82938880D01*
X55967428Y-82938880D01*
X55824571Y-82891261D01*
X55729333Y-82796023D01*
X55681714Y-82700785D01*
X55634095Y-82510309D01*
X55634095Y-82367452D01*
X55681714Y-82176976D01*
X55729333Y-82081738D01*
X55824571Y-81986500D01*
X55967428Y-81938880D01*
X56062666Y-81938880D01*
X56205523Y-81986500D01*
X56253142Y-82034119D01*
X57205523Y-82938880D02*
X56634095Y-82938880D01*
X56919809Y-82938880D02*
X56919809Y-81938880D01*
X56824571Y-82081738D01*
X56729333Y-82176976D01*
X56634095Y-82224595D01*
X58062666Y-81938880D02*
X57872190Y-81938880D01*
X57776952Y-81986500D01*
X57729333Y-82034119D01*
X57634095Y-82176976D01*
X57586476Y-82367452D01*
X57586476Y-82748404D01*
X57634095Y-82843642D01*
X57681714Y-82891261D01*
X57776952Y-82938880D01*
X57967428Y-82938880D01*
X58062666Y-82891261D01*
X58110285Y-82843642D01*
X58157904Y-82748404D01*
X58157904Y-82510309D01*
X58110285Y-82415071D01*
X58062666Y-82367452D01*
X57967428Y-82319833D01*
X57776952Y-82319833D01*
X57681714Y-82367452D01*
X57634095Y-82415071D01*
X57586476Y-82510309D01*
%TO.C,C17*%
X56380142Y-77319142D02*
X56332523Y-77366761D01*
X56189666Y-77414380D01*
X56094428Y-77414380D01*
X55951571Y-77366761D01*
X55856333Y-77271523D01*
X55808714Y-77176285D01*
X55761095Y-76985809D01*
X55761095Y-76842952D01*
X55808714Y-76652476D01*
X55856333Y-76557238D01*
X55951571Y-76462000D01*
X56094428Y-76414380D01*
X56189666Y-76414380D01*
X56332523Y-76462000D01*
X56380142Y-76509619D01*
X57332523Y-77414380D02*
X56761095Y-77414380D01*
X57046809Y-77414380D02*
X57046809Y-76414380D01*
X56951571Y-76557238D01*
X56856333Y-76652476D01*
X56761095Y-76700095D01*
X57665857Y-76414380D02*
X58332523Y-76414380D01*
X57903952Y-77414380D01*
%TO.C,C18*%
X50411142Y-82780142D02*
X50363523Y-82827761D01*
X50220666Y-82875380D01*
X50125428Y-82875380D01*
X49982571Y-82827761D01*
X49887333Y-82732523D01*
X49839714Y-82637285D01*
X49792095Y-82446809D01*
X49792095Y-82303952D01*
X49839714Y-82113476D01*
X49887333Y-82018238D01*
X49982571Y-81923000D01*
X50125428Y-81875380D01*
X50220666Y-81875380D01*
X50363523Y-81923000D01*
X50411142Y-81970619D01*
X51363523Y-82875380D02*
X50792095Y-82875380D01*
X51077809Y-82875380D02*
X51077809Y-81875380D01*
X50982571Y-82018238D01*
X50887333Y-82113476D01*
X50792095Y-82161095D01*
X51934952Y-82303952D02*
X51839714Y-82256333D01*
X51792095Y-82208714D01*
X51744476Y-82113476D01*
X51744476Y-82065857D01*
X51792095Y-81970619D01*
X51839714Y-81923000D01*
X51934952Y-81875380D01*
X52125428Y-81875380D01*
X52220666Y-81923000D01*
X52268285Y-81970619D01*
X52315904Y-82065857D01*
X52315904Y-82113476D01*
X52268285Y-82208714D01*
X52220666Y-82256333D01*
X52125428Y-82303952D01*
X51934952Y-82303952D01*
X51839714Y-82351571D01*
X51792095Y-82399190D01*
X51744476Y-82494428D01*
X51744476Y-82684904D01*
X51792095Y-82780142D01*
X51839714Y-82827761D01*
X51934952Y-82875380D01*
X52125428Y-82875380D01*
X52220666Y-82827761D01*
X52268285Y-82780142D01*
X52315904Y-82684904D01*
X52315904Y-82494428D01*
X52268285Y-82399190D01*
X52220666Y-82351571D01*
X52125428Y-82303952D01*
%TO.C,C19*%
X50411142Y-77319142D02*
X50363523Y-77366761D01*
X50220666Y-77414380D01*
X50125428Y-77414380D01*
X49982571Y-77366761D01*
X49887333Y-77271523D01*
X49839714Y-77176285D01*
X49792095Y-76985809D01*
X49792095Y-76842952D01*
X49839714Y-76652476D01*
X49887333Y-76557238D01*
X49982571Y-76462000D01*
X50125428Y-76414380D01*
X50220666Y-76414380D01*
X50363523Y-76462000D01*
X50411142Y-76509619D01*
X51363523Y-77414380D02*
X50792095Y-77414380D01*
X51077809Y-77414380D02*
X51077809Y-76414380D01*
X50982571Y-76557238D01*
X50887333Y-76652476D01*
X50792095Y-76700095D01*
X51839714Y-77414380D02*
X52030190Y-77414380D01*
X52125428Y-77366761D01*
X52173047Y-77319142D01*
X52268285Y-77176285D01*
X52315904Y-76985809D01*
X52315904Y-76604857D01*
X52268285Y-76509619D01*
X52220666Y-76462000D01*
X52125428Y-76414380D01*
X51934952Y-76414380D01*
X51839714Y-76462000D01*
X51792095Y-76509619D01*
X51744476Y-76604857D01*
X51744476Y-76842952D01*
X51792095Y-76938190D01*
X51839714Y-76985809D01*
X51934952Y-77033428D01*
X52125428Y-77033428D01*
X52220666Y-76985809D01*
X52268285Y-76938190D01*
X52315904Y-76842952D01*
%TO.C,FB1*%
X50665166Y-89494071D02*
X50331833Y-89494071D01*
X50331833Y-90017880D02*
X50331833Y-89017880D01*
X50808023Y-89017880D01*
X51522309Y-89494071D02*
X51665166Y-89541690D01*
X51712785Y-89589309D01*
X51760404Y-89684547D01*
X51760404Y-89827404D01*
X51712785Y-89922642D01*
X51665166Y-89970261D01*
X51569928Y-90017880D01*
X51188976Y-90017880D01*
X51188976Y-89017880D01*
X51522309Y-89017880D01*
X51617547Y-89065500D01*
X51665166Y-89113119D01*
X51712785Y-89208357D01*
X51712785Y-89303595D01*
X51665166Y-89398833D01*
X51617547Y-89446452D01*
X51522309Y-89494071D01*
X51188976Y-89494071D01*
X52712785Y-90017880D02*
X52141357Y-90017880D01*
X52427071Y-90017880D02*
X52427071Y-89017880D01*
X52331833Y-89160738D01*
X52236595Y-89255976D01*
X52141357Y-89303595D01*
%TD*%
M02*
