%TF.GenerationSoftware,KiCad,Pcbnew,(5.1.9)-1*%
%TF.CreationDate,2021-06-18T12:26:35+07:00*%
%TF.ProjectId,adau1978,61646175-3139-4373-982e-6b696361645f,rev?*%
%TF.SameCoordinates,Original*%
%TF.FileFunction,Copper,L2,Bot*%
%TF.FilePolarity,Positive*%
%FSLAX46Y46*%
G04 Gerber Fmt 4.6, Leading zero omitted, Abs format (unit mm)*
G04 Created by KiCad (PCBNEW (5.1.9)-1) date 2021-06-18 12:26:35*
%MOMM*%
%LPD*%
G01*
G04 APERTURE LIST*
%TA.AperFunction,ComponentPad*%
%ADD10O,1.700000X1.700000*%
%TD*%
%TA.AperFunction,ComponentPad*%
%ADD11R,2.600000X2.600000*%
%TD*%
%TA.AperFunction,ComponentPad*%
%ADD12C,2.600000*%
%TD*%
%TA.AperFunction,ComponentPad*%
%ADD13R,1.700000X1.700000*%
%TD*%
%TA.AperFunction,ComponentPad*%
%ADD14C,1.600000*%
%TD*%
%TA.AperFunction,ComponentPad*%
%ADD15R,1.600000X1.600000*%
%TD*%
%TA.AperFunction,ComponentPad*%
%ADD16O,3.016000X1.508000*%
%TD*%
%TA.AperFunction,ViaPad*%
%ADD17C,0.600000*%
%TD*%
%TA.AperFunction,ViaPad*%
%ADD18C,0.700000*%
%TD*%
%TA.AperFunction,Conductor*%
%ADD19C,0.300000*%
%TD*%
%TA.AperFunction,Conductor*%
%ADD20C,0.500000*%
%TD*%
%TA.AperFunction,Conductor*%
%ADD21C,0.250000*%
%TD*%
%TA.AperFunction,Conductor*%
%ADD22C,0.400000*%
%TD*%
%TA.AperFunction,Conductor*%
%ADD23C,0.200000*%
%TD*%
%TA.AperFunction,Conductor*%
%ADD24C,0.254000*%
%TD*%
%TA.AperFunction,Conductor*%
%ADD25C,0.100000*%
%TD*%
%TA.AperFunction,Conductor*%
%ADD26C,0.025400*%
%TD*%
G04 APERTURE END LIST*
D10*
%TO.P,D5,1*%
%TO.N,VIN*%
X73025000Y-75184000D03*
%TO.P,D5,2*%
X75565000Y-75184000D03*
%TO.P,D5,3*%
%TO.N,GND*%
X73025000Y-77724000D03*
%TO.P,D5,4*%
X75565000Y-77724000D03*
%TO.P,D5,5*%
%TO.N,/SCL*%
X73025000Y-96774000D03*
%TO.P,D5,6*%
%TO.N,/SDA*%
X75565000Y-96774000D03*
%TO.P,D5,7*%
%TO.N,GND*%
X73025000Y-99314000D03*
%TO.P,D5,8*%
%TO.N,Net-(D5-Pad8)*%
X75565000Y-99314000D03*
%TO.P,D5,9*%
%TO.N,/MCLKIN*%
X73025000Y-101854000D03*
%TO.P,D5,10*%
%TO.N,Net-(D5-Pad10)*%
X75565000Y-101854000D03*
%TO.P,D5,11*%
%TO.N,/BCLK*%
X73025000Y-104394000D03*
%TO.P,D5,12*%
%TO.N,/LRCLK*%
X75565000Y-104394000D03*
%TO.P,D5,13*%
%TO.N,GND*%
X73025000Y-106934000D03*
%TO.P,D5,14*%
%TO.N,Net-(D5-Pad14)*%
X75565000Y-106934000D03*
%TO.P,D5,15*%
%TO.N,Net-(D5-Pad15)*%
X73025000Y-109474000D03*
%TO.P,D5,16*%
%TO.N,/SDATAOUT1*%
X75565000Y-109474000D03*
%TO.P,D5,17*%
%TO.N,/SDATAOUT2*%
X73025000Y-112014000D03*
%TO.P,D5,18*%
%TO.N,Net-(D5-Pad18)*%
X75565000Y-112014000D03*
%TO.P,D5,19*%
%TO.N,GND*%
X73025000Y-114554000D03*
%TO.P,D5,20*%
X75565000Y-114554000D03*
%TD*%
D11*
%TO.P,J1,1*%
%TO.N,GND*%
X66548000Y-125793500D03*
D12*
%TO.P,J1,2*%
%TO.N,Net-(D1-Pad2)*%
X71628000Y-125793500D03*
%TD*%
D13*
%TO.P,JP1,1*%
%TO.N,Net-(JP1-Pad1)*%
X62611000Y-53721000D03*
D10*
%TO.P,JP1,2*%
%TO.N,GND*%
X60071000Y-53721000D03*
%TO.P,JP1,3*%
%TO.N,Net-(J2-Pad2)*%
X57531000Y-53721000D03*
%TD*%
%TO.P,JP2,3*%
%TO.N,Net-(J2-Pad3)*%
X57531000Y-51181000D03*
%TO.P,JP2,2*%
%TO.N,GND*%
X60071000Y-51181000D03*
D13*
%TO.P,JP2,1*%
%TO.N,Net-(JP2-Pad1)*%
X62611000Y-51181000D03*
%TD*%
%TO.P,JP3,1*%
%TO.N,Net-(JP3-Pad1)*%
X62611000Y-48641000D03*
D10*
%TO.P,JP3,2*%
%TO.N,GND*%
X60071000Y-48641000D03*
%TO.P,JP3,3*%
%TO.N,Net-(J3-Pad2)*%
X57531000Y-48641000D03*
%TD*%
%TO.P,JP4,3*%
%TO.N,Net-(J3-Pad3)*%
X57531000Y-46101000D03*
%TO.P,JP4,2*%
%TO.N,GND*%
X60071000Y-46101000D03*
D13*
%TO.P,JP4,1*%
%TO.N,Net-(JP4-Pad1)*%
X62611000Y-46101000D03*
%TD*%
D14*
%TO.P,C12,2*%
%TO.N,Net-(C12-Pad2)*%
X64738500Y-85217000D03*
D15*
%TO.P,C12,1*%
%TO.N,/AIN1P*%
X66738500Y-85217000D03*
%TD*%
%TO.P,C13,1*%
%TO.N,/AIN1N*%
X66738500Y-79438500D03*
D14*
%TO.P,C13,2*%
%TO.N,Net-(C13-Pad2)*%
X64738500Y-79438500D03*
%TD*%
%TO.P,C14,2*%
%TO.N,Net-(C14-Pad2)*%
X58833000Y-85217000D03*
D15*
%TO.P,C14,1*%
%TO.N,/AIN2P*%
X60833000Y-85217000D03*
%TD*%
%TO.P,C15,1*%
%TO.N,/AIN2N*%
X60833000Y-79438500D03*
D14*
%TO.P,C15,2*%
%TO.N,Net-(C15-Pad2)*%
X58833000Y-79438500D03*
%TD*%
D15*
%TO.P,C16,1*%
%TO.N,/AIN3P*%
X55054500Y-85217000D03*
D14*
%TO.P,C16,2*%
%TO.N,Net-(C16-Pad2)*%
X53054500Y-85217000D03*
%TD*%
%TO.P,C17,2*%
%TO.N,Net-(C17-Pad2)*%
X52991000Y-79438500D03*
D15*
%TO.P,C17,1*%
%TO.N,/AIN3N*%
X54991000Y-79438500D03*
%TD*%
%TO.P,C18,1*%
%TO.N,/AIN4P*%
X49276000Y-85217000D03*
D14*
%TO.P,C18,2*%
%TO.N,Net-(C18-Pad2)*%
X47276000Y-85217000D03*
%TD*%
%TO.P,C19,2*%
%TO.N,Net-(C19-Pad2)*%
X47212500Y-79438500D03*
D15*
%TO.P,C19,1*%
%TO.N,/AIN4N*%
X49212500Y-79438500D03*
%TD*%
D16*
%TO.P,J2,4*%
%TO.N,Net-(J2-Pad4)*%
X68707000Y-59733000D03*
%TO.P,J2,3*%
%TO.N,Net-(J2-Pad3)*%
X70707000Y-56033000D03*
%TO.P,J2,5*%
%TO.N,Net-(J2-Pad5)*%
X68707000Y-54233000D03*
%TO.P,J2,2*%
%TO.N,Net-(J2-Pad2)*%
X70707000Y-50533000D03*
%TO.P,J2,1*%
%TO.N,GND*%
X68707000Y-48133000D03*
%TD*%
%TO.P,J3,1*%
%TO.N,GND*%
X50927000Y-48133000D03*
%TO.P,J3,2*%
%TO.N,Net-(J3-Pad2)*%
X52927000Y-50533000D03*
%TO.P,J3,5*%
%TO.N,Net-(J3-Pad5)*%
X50927000Y-54233000D03*
%TO.P,J3,3*%
%TO.N,Net-(J3-Pad3)*%
X52927000Y-56033000D03*
%TO.P,J3,4*%
%TO.N,Net-(J3-Pad4)*%
X50927000Y-59733000D03*
%TD*%
D17*
%TO.N,GND*%
X47371000Y-119951500D03*
X49403000Y-119951500D03*
X51181000Y-118935500D03*
X53467000Y-98298000D03*
X54610000Y-99250500D03*
X50101500Y-99250500D03*
X50101500Y-102171500D03*
X50101500Y-100711000D03*
X55562500Y-104013000D03*
X51943000Y-110426500D03*
X46926500Y-110045500D03*
X47879000Y-109029500D03*
X48387000Y-119951500D03*
X53149500Y-119951500D03*
X52070000Y-118935500D03*
X54229000Y-118935500D03*
X50292000Y-118935500D03*
X67373500Y-113665000D03*
X68961000Y-110871000D03*
X68961000Y-109410500D03*
X69977000Y-115443000D03*
X70993000Y-114427000D03*
X67945000Y-108331000D03*
X69024500Y-116586000D03*
X69278500Y-117729000D03*
X69278500Y-118745000D03*
X59182000Y-116967000D03*
X59182000Y-117665500D03*
X59182000Y-118364000D03*
X59372500Y-119380000D03*
X48260000Y-130746500D03*
X49339500Y-130746500D03*
X47371000Y-130111500D03*
X47371000Y-129222500D03*
X47371000Y-128333500D03*
X47371000Y-127444500D03*
X50165000Y-130111500D03*
X50165000Y-129222500D03*
X50165000Y-128333500D03*
X50165000Y-127444500D03*
X56388000Y-130429000D03*
X56388000Y-129667000D03*
X56388000Y-128905000D03*
X56388000Y-128143000D03*
X52959000Y-130429000D03*
X52959000Y-129667000D03*
X52959000Y-128905000D03*
X52959000Y-128143000D03*
X50165000Y-126555500D03*
X47371000Y-126555500D03*
X51943000Y-112903000D03*
X50990500Y-112903000D03*
X52895500Y-112903000D03*
X66421000Y-113665000D03*
X60579000Y-100076000D03*
X61595000Y-100076000D03*
X62611000Y-100076000D03*
X63627000Y-100076000D03*
X64643000Y-100076000D03*
X65659000Y-100076000D03*
X66675000Y-100076000D03*
X62420500Y-73088500D03*
X63817500Y-73088500D03*
X62420500Y-76581000D03*
X63817500Y-76581000D03*
X68389500Y-76581000D03*
X68326000Y-73088500D03*
X69342000Y-74104500D03*
X69342000Y-75565000D03*
X57848500Y-73088500D03*
X56451500Y-73088500D03*
X56451500Y-76581000D03*
X57848500Y-76581000D03*
X51943000Y-73088500D03*
X50546000Y-73088500D03*
X50546000Y-76581000D03*
X51943000Y-76581000D03*
X45974000Y-76581000D03*
X45910500Y-73088500D03*
X50101500Y-92710000D03*
X53721000Y-88455500D03*
X61722000Y-89471500D03*
X61722000Y-94361000D03*
X61722000Y-95123000D03*
X61722000Y-98298000D03*
X61722000Y-97536000D03*
X54800500Y-93281500D03*
X53721000Y-93281500D03*
X54991000Y-88455500D03*
X45802834Y-45224000D03*
X45802834Y-49224000D03*
X45802834Y-53224000D03*
X45802834Y-57224000D03*
X45802834Y-61224000D03*
X45802834Y-65224000D03*
X45802834Y-69224000D03*
X45802834Y-81224000D03*
X45802834Y-85224000D03*
X45802834Y-89224000D03*
X45802834Y-93224000D03*
X45802834Y-97224000D03*
X45802834Y-101224000D03*
X45802834Y-105224000D03*
X45802834Y-109224000D03*
X45802834Y-113224000D03*
X45802834Y-122824000D03*
X45802834Y-126824000D03*
X48202834Y-46824000D03*
X48202834Y-50824000D03*
X48202834Y-54824000D03*
X48202834Y-58824000D03*
X48202834Y-62824000D03*
X48202834Y-66824000D03*
X48202834Y-82824000D03*
X48202834Y-86824000D03*
X48202834Y-99624000D03*
X48202834Y-103624000D03*
X48202834Y-107624000D03*
X49002834Y-126024000D03*
X49802834Y-89224000D03*
X50602834Y-45224000D03*
X50602834Y-52424000D03*
X50602834Y-56424000D03*
X50602834Y-61224000D03*
X50602834Y-65224000D03*
X50602834Y-70024000D03*
X50602834Y-81224000D03*
X50602834Y-105224000D03*
X50602834Y-109224000D03*
X50602834Y-120424000D03*
X51402834Y-84424000D03*
X51402834Y-127624000D03*
X52202834Y-87624000D03*
X53002834Y-46824000D03*
X53002834Y-62824000D03*
X53002834Y-103624000D03*
X53002834Y-107624000D03*
X53802834Y-58024000D03*
X53802834Y-82024000D03*
X54602834Y-66824000D03*
X55402834Y-45224000D03*
X55402834Y-105224000D03*
X55402834Y-117224000D03*
X56202834Y-64424000D03*
X56202834Y-70024000D03*
X56202834Y-108424000D03*
X57002834Y-57224000D03*
X57002834Y-61224000D03*
X57002834Y-78024000D03*
X57002834Y-82824000D03*
X57002834Y-119624000D03*
X57802834Y-110824000D03*
X58602834Y-68424000D03*
X58602834Y-114024000D03*
X59402834Y-104424000D03*
X60202834Y-58024000D03*
X60202834Y-62024000D03*
X60202834Y-66024000D03*
X60202834Y-81224000D03*
X60202834Y-109224000D03*
X61002834Y-93224000D03*
X61002834Y-123624000D03*
X61802834Y-96424000D03*
X61802834Y-106024000D03*
X61802834Y-126824000D03*
X62602834Y-67624000D03*
X62602834Y-71624000D03*
X62602834Y-78024000D03*
X62602834Y-82824000D03*
X63402834Y-57224000D03*
X63402834Y-62824000D03*
X63402834Y-88424000D03*
X63402834Y-108424000D03*
X63402834Y-112424000D03*
X63402834Y-116424000D03*
X63402834Y-121224000D03*
X64202834Y-45224000D03*
X64202834Y-49224000D03*
X64202834Y-53224000D03*
X64202834Y-91624000D03*
X64202834Y-104424000D03*
X64202834Y-124424000D03*
X65002834Y-94824000D03*
X65802834Y-81224000D03*
X65802834Y-106824000D03*
X66602834Y-46824000D03*
X66602834Y-50824000D03*
X66602834Y-61224000D03*
X66602834Y-65224000D03*
X66602834Y-89224000D03*
X66602834Y-97224000D03*
X67402834Y-68424000D03*
X67402834Y-92424000D03*
X67402834Y-112424000D03*
X67402834Y-120424000D03*
X68202834Y-71624000D03*
X68202834Y-82824000D03*
X69002834Y-45224000D03*
X69002834Y-52424000D03*
X69002834Y-62824000D03*
X69002834Y-122824000D03*
X69802834Y-66024000D03*
X69802834Y-100424000D03*
X69802834Y-107624000D03*
X70602834Y-69224000D03*
X70602834Y-73224000D03*
X70602834Y-77224000D03*
X70602834Y-81224000D03*
X70602834Y-85224000D03*
X70602834Y-90024000D03*
X70602834Y-103624000D03*
X70602834Y-110824000D03*
X70602834Y-117224000D03*
X71402834Y-46824000D03*
X71402834Y-54024000D03*
X71402834Y-58824000D03*
X71402834Y-93224000D03*
X71402834Y-120424000D03*
X72202834Y-62024000D03*
X73002834Y-49224000D03*
X73002834Y-65224000D03*
X73002834Y-70824000D03*
X73002834Y-79624000D03*
X73002834Y-83624000D03*
X73002834Y-87624000D03*
X73002834Y-122824000D03*
X73802834Y-45224000D03*
X73802834Y-52424000D03*
X73802834Y-56424000D03*
X73802834Y-90824000D03*
X73802834Y-94824000D03*
X73802834Y-116424000D03*
X74602834Y-67624000D03*
X74602834Y-73224000D03*
X74602834Y-119624000D03*
X74602834Y-125224000D03*
X74602834Y-129224000D03*
X75402834Y-47624000D03*
X75402834Y-81224000D03*
X75402834Y-85224000D03*
X76202834Y-50824000D03*
X76202834Y-54824000D03*
X76202834Y-70024000D03*
X76202834Y-88424000D03*
X76202834Y-92424000D03*
X76202834Y-122024000D03*
X68770500Y-94824000D03*
X68770500Y-87630000D03*
%TO.N,+5V*%
X47879000Y-112458500D03*
X68897500Y-115697000D03*
X62928500Y-119380000D03*
X65341500Y-116586000D03*
D18*
%TO.N,+3.3VA*%
X65532000Y-109283500D03*
X54546500Y-101473000D03*
X47117000Y-97345500D03*
X64833500Y-109283500D03*
X49657000Y-90995500D03*
D17*
%TO.N,Net-(C29-Pad1)*%
X53594000Y-94742000D03*
X48895000Y-93662500D03*
D18*
%TO.N,/AVDD*%
X51943000Y-95059500D03*
X61722000Y-90995500D03*
X53721000Y-91948000D03*
D17*
X48958500Y-95186500D03*
D18*
%TO.N,Net-(D1-Pad2)*%
X60706000Y-130238500D03*
X60706000Y-128333500D03*
X60706000Y-129286000D03*
D17*
%TO.N,/SDATAOUT2*%
X56642000Y-101536500D03*
%TO.N,/SDATAOUT1*%
X56451500Y-100584000D03*
%TO.N,/LRCLK*%
X57912000Y-101219000D03*
%TO.N,/BCLK*%
X58547000Y-100711000D03*
%TO.N,/MCLKIN*%
X53848000Y-97282000D03*
D18*
%TO.N,Net-(JP1-Pad1)*%
X66802000Y-70040500D03*
%TO.N,Net-(JP2-Pad1)*%
X60833000Y-70040500D03*
%TO.N,Net-(JP3-Pad1)*%
X54927500Y-70040500D03*
%TO.N,Net-(JP4-Pad1)*%
X48958500Y-70040500D03*
%TD*%
D19*
%TO.N,+5V*%
X50546000Y-115125500D02*
X47879000Y-112458500D01*
X58801000Y-115125500D02*
X50546000Y-115125500D01*
X62928500Y-119253000D02*
X58801000Y-115125500D01*
X62928500Y-119380000D02*
X62928500Y-119253000D01*
X68008500Y-116586000D02*
X68897500Y-115697000D01*
X65341500Y-116586000D02*
X68008500Y-116586000D01*
D20*
%TO.N,+3.3VA*%
X47879000Y-98107500D02*
X47117000Y-97345500D01*
X51181000Y-98107500D02*
X47879000Y-98107500D01*
X62357000Y-109283500D02*
X51181000Y-98107500D01*
X65532000Y-109283500D02*
X62357000Y-109283500D01*
X47117000Y-93535500D02*
X47117000Y-97345500D01*
X49657000Y-90995500D02*
X47117000Y-93535500D01*
D21*
%TO.N,Net-(C29-Pad1)*%
X52451000Y-95885000D02*
X53594000Y-94742000D01*
X48641000Y-95885000D02*
X52451000Y-95885000D01*
X48260000Y-95504000D02*
X48641000Y-95885000D01*
X48260000Y-94297500D02*
X48260000Y-95504000D01*
X48895000Y-93662500D02*
X48260000Y-94297500D01*
D20*
%TO.N,/AVDD*%
X51943000Y-93726000D02*
X53721000Y-91948000D01*
X51943000Y-95059500D02*
X51943000Y-93726000D01*
X60769500Y-91948000D02*
X61722000Y-90995500D01*
X53721000Y-91948000D02*
X60769500Y-91948000D01*
D22*
X51816000Y-95186500D02*
X51943000Y-95059500D01*
X48958500Y-95186500D02*
X51816000Y-95186500D01*
D19*
%TO.N,Net-(D1-Pad2)*%
X71628000Y-128968500D02*
X71628000Y-125793500D01*
X71310500Y-129286000D02*
X71628000Y-128968500D01*
X60833000Y-129286000D02*
X71310500Y-129286000D01*
X60706000Y-129159000D02*
X60833000Y-129286000D01*
D23*
%TO.N,/SDATAOUT2*%
X72961500Y-112077500D02*
X73025000Y-112014000D01*
X72961500Y-112014000D02*
X72961500Y-112077500D01*
X71818500Y-110871000D02*
X72961500Y-112014000D01*
X71818500Y-108267500D02*
X71818500Y-110871000D01*
X67183000Y-103632000D02*
X71818500Y-108267500D01*
X58737500Y-103632000D02*
X67183000Y-103632000D01*
X56642000Y-101536500D02*
X58737500Y-103632000D01*
%TO.N,/SDATAOUT1*%
X74295000Y-108204000D02*
X75565000Y-109474000D01*
X72453500Y-108204000D02*
X74295000Y-108204000D01*
X67437000Y-103187500D02*
X72453500Y-108204000D01*
X58928000Y-103187500D02*
X67437000Y-103187500D01*
X57277000Y-101536500D02*
X58928000Y-103187500D01*
X57277000Y-101092000D02*
X57277000Y-101536500D01*
X56769000Y-100584000D02*
X57277000Y-101092000D01*
X56451500Y-100584000D02*
X56769000Y-100584000D01*
%TO.N,/LRCLK*%
X67564000Y-102743000D02*
X70485000Y-105664000D01*
X70485000Y-105664000D02*
X74295000Y-105664000D01*
X59436000Y-102743000D02*
X67564000Y-102743000D01*
X74295000Y-105664000D02*
X75565000Y-104394000D01*
X57912000Y-101219000D02*
X59436000Y-102743000D01*
%TO.N,/BCLK*%
X60071000Y-102298500D02*
X67691000Y-102298500D01*
X67691000Y-102298500D02*
X69786500Y-104394000D01*
X58547000Y-100774500D02*
X60071000Y-102298500D01*
X69786500Y-104394000D02*
X73025000Y-104394000D01*
X58547000Y-100711000D02*
X58547000Y-100774500D01*
D21*
%TO.N,/MCLKIN*%
X60960000Y-101854000D02*
X73025000Y-101854000D01*
X58801000Y-99695000D02*
X60960000Y-101854000D01*
X56451500Y-99695000D02*
X58801000Y-99695000D01*
X54038500Y-97282000D02*
X56451500Y-99695000D01*
X53848000Y-97282000D02*
X54038500Y-97282000D01*
D19*
%TO.N,Net-(JP1-Pad1)*%
X62611000Y-65786000D02*
X62611000Y-53721000D01*
X66802000Y-69977000D02*
X62611000Y-65786000D01*
X66802000Y-70040500D02*
X66802000Y-69977000D01*
%TO.N,Net-(JP2-Pad1)*%
X61277500Y-52514500D02*
X62611000Y-51181000D01*
X61277500Y-69596000D02*
X61277500Y-52514500D01*
X60833000Y-70040500D02*
X61277500Y-69596000D01*
%TO.N,Net-(JP3-Pad1)*%
X61341000Y-49911000D02*
X62611000Y-48641000D01*
X59436000Y-49911000D02*
X61341000Y-49911000D01*
X58801000Y-50546000D02*
X59436000Y-49911000D01*
X58801000Y-66040000D02*
X58801000Y-50546000D01*
X54927500Y-69913500D02*
X58801000Y-66040000D01*
X54927500Y-70040500D02*
X54927500Y-69913500D01*
%TO.N,Net-(JP4-Pad1)*%
X61341000Y-47371000D02*
X62611000Y-46101000D01*
X57023000Y-47371000D02*
X61341000Y-47371000D01*
X56070500Y-48323500D02*
X57023000Y-47371000D01*
X56070500Y-62928500D02*
X56070500Y-48323500D01*
X48958500Y-70040500D02*
X56070500Y-62928500D01*
%TO.N,Net-(J3-Pad3)*%
X52927000Y-56033000D02*
X52927000Y-55023000D01*
X52927000Y-55023000D02*
X55499000Y-52451000D01*
X55499000Y-48133000D02*
X57531000Y-46101000D01*
X55499000Y-52451000D02*
X55499000Y-48133000D01*
%TD*%
D24*
%TO.N,Net-(D1-Pad2)*%
X73279000Y-129106394D02*
X71892894Y-130492500D01*
X60198000Y-130492500D01*
X60198000Y-128016000D01*
X68580000Y-128016000D01*
X68604776Y-128013560D01*
X68628601Y-128006333D01*
X68650557Y-127994597D01*
X68664959Y-127983398D01*
X69299959Y-127411898D01*
X69316742Y-127393510D01*
X69329616Y-127372200D01*
X69338085Y-127348789D01*
X69342000Y-127317500D01*
X69342000Y-124142500D01*
X73279000Y-124142500D01*
X73279000Y-129106394D01*
%TA.AperFunction,Conductor*%
D25*
G36*
X73279000Y-129106394D02*
G01*
X71892894Y-130492500D01*
X60198000Y-130492500D01*
X60198000Y-128016000D01*
X68580000Y-128016000D01*
X68604776Y-128013560D01*
X68628601Y-128006333D01*
X68650557Y-127994597D01*
X68664959Y-127983398D01*
X69299959Y-127411898D01*
X69316742Y-127393510D01*
X69329616Y-127372200D01*
X69338085Y-127348789D01*
X69342000Y-127317500D01*
X69342000Y-124142500D01*
X73279000Y-124142500D01*
X73279000Y-129106394D01*
G37*
%TD.AperFunction*%
%TD*%
D26*
%TO.N,GND*%
X77139300Y-131143800D02*
X44814700Y-131143800D01*
X44814700Y-127889000D01*
X59758300Y-127889000D01*
X59758300Y-130619500D01*
X59764308Y-130680505D01*
X59782103Y-130739165D01*
X59810999Y-130793227D01*
X59849888Y-130840612D01*
X59897273Y-130879501D01*
X59951335Y-130908397D01*
X60009995Y-130926192D01*
X60071000Y-130932200D01*
X71945500Y-130932200D01*
X72006505Y-130926192D01*
X72065165Y-130908397D01*
X72119227Y-130879501D01*
X72166612Y-130840612D01*
X73627112Y-129380112D01*
X73666001Y-129332727D01*
X73694897Y-129278665D01*
X73712692Y-129220005D01*
X73718700Y-129159000D01*
X73718700Y-124015500D01*
X73712692Y-123954495D01*
X73694897Y-123895835D01*
X73666001Y-123841773D01*
X73627112Y-123794388D01*
X73579727Y-123755499D01*
X73525665Y-123726603D01*
X73467005Y-123708808D01*
X73406000Y-123702800D01*
X69215000Y-123702800D01*
X69153995Y-123708808D01*
X69095335Y-123726603D01*
X69041273Y-123755499D01*
X68993888Y-123794388D01*
X68954999Y-123841773D01*
X68926103Y-123895835D01*
X68908308Y-123954495D01*
X68902300Y-124015500D01*
X68902300Y-127178236D01*
X68460006Y-127576300D01*
X60071000Y-127576300D01*
X60009995Y-127582308D01*
X59951335Y-127600103D01*
X59897273Y-127628999D01*
X59849888Y-127667888D01*
X59810999Y-127715273D01*
X59782103Y-127769335D01*
X59764308Y-127827995D01*
X59758300Y-127889000D01*
X44814700Y-127889000D01*
X44814700Y-112408003D01*
X47366300Y-112408003D01*
X47366300Y-112508997D01*
X47386003Y-112608049D01*
X47424651Y-112701355D01*
X47480760Y-112785327D01*
X47552173Y-112856740D01*
X47636145Y-112912849D01*
X47729451Y-112951497D01*
X47828503Y-112971200D01*
X47878766Y-112971200D01*
X50276943Y-115369379D01*
X50288292Y-115383208D01*
X50302121Y-115394557D01*
X50302124Y-115394560D01*
X50343520Y-115428532D01*
X50406529Y-115462212D01*
X50474899Y-115482951D01*
X50546000Y-115489954D01*
X50563808Y-115488200D01*
X58650766Y-115488200D01*
X62428454Y-119265889D01*
X62415800Y-119329503D01*
X62415800Y-119430497D01*
X62435503Y-119529549D01*
X62474151Y-119622855D01*
X62530260Y-119706827D01*
X62601673Y-119778240D01*
X62685645Y-119834349D01*
X62778951Y-119872997D01*
X62878003Y-119892700D01*
X62978997Y-119892700D01*
X63078049Y-119872997D01*
X63171355Y-119834349D01*
X63255327Y-119778240D01*
X63326740Y-119706827D01*
X63382849Y-119622855D01*
X63421497Y-119529549D01*
X63441200Y-119430497D01*
X63441200Y-119329503D01*
X63421497Y-119230451D01*
X63382849Y-119137145D01*
X63326740Y-119053173D01*
X63255327Y-118981760D01*
X63171355Y-118925651D01*
X63078049Y-118887003D01*
X63074790Y-118886355D01*
X60723938Y-116535503D01*
X64828800Y-116535503D01*
X64828800Y-116636497D01*
X64848503Y-116735549D01*
X64887151Y-116828855D01*
X64943260Y-116912827D01*
X65014673Y-116984240D01*
X65098645Y-117040349D01*
X65191951Y-117078997D01*
X65291003Y-117098700D01*
X65391997Y-117098700D01*
X65491049Y-117078997D01*
X65584355Y-117040349D01*
X65668327Y-116984240D01*
X65703867Y-116948700D01*
X67990694Y-116948700D01*
X68008500Y-116950454D01*
X68026306Y-116948700D01*
X68026308Y-116948700D01*
X68079601Y-116943451D01*
X68147971Y-116922712D01*
X68210980Y-116889032D01*
X68266208Y-116843708D01*
X68277566Y-116829868D01*
X68897735Y-116209700D01*
X68947997Y-116209700D01*
X69047049Y-116189997D01*
X69140355Y-116151349D01*
X69224327Y-116095240D01*
X69295740Y-116023827D01*
X69351849Y-115939855D01*
X69390497Y-115846549D01*
X69410200Y-115747497D01*
X69410200Y-115646503D01*
X69390497Y-115547451D01*
X69351849Y-115454145D01*
X69295740Y-115370173D01*
X69224327Y-115298760D01*
X69140355Y-115242651D01*
X69047049Y-115204003D01*
X68947997Y-115184300D01*
X68847003Y-115184300D01*
X68747951Y-115204003D01*
X68654645Y-115242651D01*
X68570673Y-115298760D01*
X68499260Y-115370173D01*
X68443151Y-115454145D01*
X68404503Y-115547451D01*
X68384800Y-115646503D01*
X68384800Y-115696765D01*
X67858266Y-116223300D01*
X65703867Y-116223300D01*
X65668327Y-116187760D01*
X65584355Y-116131651D01*
X65491049Y-116093003D01*
X65391997Y-116073300D01*
X65291003Y-116073300D01*
X65191951Y-116093003D01*
X65098645Y-116131651D01*
X65014673Y-116187760D01*
X64943260Y-116259173D01*
X64887151Y-116343145D01*
X64848503Y-116436451D01*
X64828800Y-116535503D01*
X60723938Y-116535503D01*
X59142665Y-114954230D01*
X72040547Y-114954230D01*
X72045872Y-114967115D01*
X72145280Y-115150196D01*
X72278496Y-115310365D01*
X72440399Y-115441467D01*
X72624768Y-115538465D01*
X72783700Y-115535780D01*
X72783700Y-114795300D01*
X73266300Y-114795300D01*
X73266300Y-115535780D01*
X73425232Y-115538465D01*
X73609601Y-115441467D01*
X73771504Y-115310365D01*
X73904720Y-115150196D01*
X74004128Y-114967115D01*
X74009453Y-114954230D01*
X74580547Y-114954230D01*
X74585872Y-114967115D01*
X74685280Y-115150196D01*
X74818496Y-115310365D01*
X74980399Y-115441467D01*
X75164768Y-115538465D01*
X75323700Y-115535780D01*
X75323700Y-114795300D01*
X75806300Y-114795300D01*
X75806300Y-115535780D01*
X75965232Y-115538465D01*
X76149601Y-115441467D01*
X76311504Y-115310365D01*
X76444720Y-115150196D01*
X76544128Y-114967115D01*
X76549453Y-114954230D01*
X76545263Y-114795300D01*
X75806300Y-114795300D01*
X75323700Y-114795300D01*
X74584737Y-114795300D01*
X74580547Y-114954230D01*
X74009453Y-114954230D01*
X74005263Y-114795300D01*
X73266300Y-114795300D01*
X72783700Y-114795300D01*
X72044737Y-114795300D01*
X72040547Y-114954230D01*
X59142665Y-114954230D01*
X59070066Y-114881632D01*
X59058708Y-114867792D01*
X59003480Y-114822468D01*
X58940471Y-114788788D01*
X58872101Y-114768049D01*
X58818808Y-114762800D01*
X58818806Y-114762800D01*
X58801000Y-114761046D01*
X58783194Y-114762800D01*
X50696236Y-114762800D01*
X50087206Y-114153770D01*
X72040547Y-114153770D01*
X72044737Y-114312700D01*
X72783700Y-114312700D01*
X72783700Y-113572220D01*
X73266300Y-113572220D01*
X73266300Y-114312700D01*
X74005263Y-114312700D01*
X74009453Y-114153770D01*
X74580547Y-114153770D01*
X74584737Y-114312700D01*
X75323700Y-114312700D01*
X75323700Y-113572220D01*
X75806300Y-113572220D01*
X75806300Y-114312700D01*
X76545263Y-114312700D01*
X76549453Y-114153770D01*
X76544128Y-114140885D01*
X76444720Y-113957804D01*
X76311504Y-113797635D01*
X76149601Y-113666533D01*
X75965232Y-113569535D01*
X75806300Y-113572220D01*
X75323700Y-113572220D01*
X75164768Y-113569535D01*
X74980399Y-113666533D01*
X74818496Y-113797635D01*
X74685280Y-113957804D01*
X74585872Y-114140885D01*
X74580547Y-114153770D01*
X74009453Y-114153770D01*
X74004128Y-114140885D01*
X73904720Y-113957804D01*
X73771504Y-113797635D01*
X73609601Y-113666533D01*
X73425232Y-113569535D01*
X73266300Y-113572220D01*
X72783700Y-113572220D01*
X72624768Y-113569535D01*
X72440399Y-113666533D01*
X72278496Y-113797635D01*
X72145280Y-113957804D01*
X72045872Y-114140885D01*
X72040547Y-114153770D01*
X50087206Y-114153770D01*
X48391700Y-112458266D01*
X48391700Y-112408003D01*
X48371997Y-112308951D01*
X48333349Y-112215645D01*
X48277240Y-112131673D01*
X48205827Y-112060260D01*
X48121855Y-112004151D01*
X48028549Y-111965503D01*
X47929497Y-111945800D01*
X47828503Y-111945800D01*
X47729451Y-111965503D01*
X47636145Y-112004151D01*
X47552173Y-112060260D01*
X47480760Y-112131673D01*
X47424651Y-112215645D01*
X47386003Y-112308951D01*
X47366300Y-112408003D01*
X44814700Y-112408003D01*
X44814700Y-97802700D01*
X46788414Y-97802700D01*
X46850461Y-97844159D01*
X46952866Y-97886576D01*
X47016347Y-97899203D01*
X47535754Y-98418611D01*
X47550239Y-98436261D01*
X47620694Y-98494082D01*
X47673076Y-98522081D01*
X47701075Y-98537047D01*
X47788295Y-98563504D01*
X47879000Y-98572438D01*
X47901722Y-98570200D01*
X50989344Y-98570200D01*
X53992797Y-101573653D01*
X54005424Y-101637134D01*
X54047841Y-101739539D01*
X54109422Y-101831701D01*
X54187799Y-101910078D01*
X54279961Y-101971659D01*
X54382366Y-102014076D01*
X54445847Y-102026703D01*
X62013754Y-109594611D01*
X62028239Y-109612261D01*
X62098694Y-109670082D01*
X62147522Y-109696181D01*
X62179075Y-109713047D01*
X62266295Y-109739504D01*
X62357000Y-109748438D01*
X62379722Y-109746200D01*
X64513145Y-109746200D01*
X64566961Y-109782159D01*
X64669366Y-109824576D01*
X64778079Y-109846200D01*
X64888921Y-109846200D01*
X64997634Y-109824576D01*
X65100039Y-109782159D01*
X65153855Y-109746200D01*
X65211645Y-109746200D01*
X65265461Y-109782159D01*
X65367866Y-109824576D01*
X65476579Y-109846200D01*
X65587421Y-109846200D01*
X65696134Y-109824576D01*
X65798539Y-109782159D01*
X65890701Y-109720578D01*
X65969078Y-109642201D01*
X66030659Y-109550039D01*
X66073076Y-109447634D01*
X66094700Y-109338921D01*
X66094700Y-109228079D01*
X66073076Y-109119366D01*
X66030659Y-109016961D01*
X65969078Y-108924799D01*
X65890701Y-108846422D01*
X65798539Y-108784841D01*
X65696134Y-108742424D01*
X65587421Y-108720800D01*
X65476579Y-108720800D01*
X65367866Y-108742424D01*
X65265461Y-108784841D01*
X65211645Y-108820800D01*
X65153855Y-108820800D01*
X65100039Y-108784841D01*
X64997634Y-108742424D01*
X64888921Y-108720800D01*
X64778079Y-108720800D01*
X64669366Y-108742424D01*
X64566961Y-108784841D01*
X64513145Y-108820800D01*
X62548657Y-108820800D01*
X55100203Y-101372347D01*
X55087576Y-101308866D01*
X55045159Y-101206461D01*
X54983578Y-101114299D01*
X54905201Y-101035922D01*
X54813039Y-100974341D01*
X54710634Y-100931924D01*
X54647153Y-100919297D01*
X51530556Y-97802700D01*
X54081621Y-97802700D01*
X56200984Y-99922064D01*
X56211555Y-99934945D01*
X56224434Y-99945514D01*
X56262976Y-99977145D01*
X56289706Y-99991432D01*
X56321643Y-100008503D01*
X56385299Y-100027813D01*
X56434919Y-100032700D01*
X56434921Y-100032700D01*
X56451499Y-100034333D01*
X56468077Y-100032700D01*
X58661121Y-100032700D01*
X60614220Y-101985800D01*
X60200524Y-101985800D01*
X59045850Y-100831126D01*
X59059700Y-100761497D01*
X59059700Y-100660503D01*
X59039997Y-100561451D01*
X59001349Y-100468145D01*
X58945240Y-100384173D01*
X58873827Y-100312760D01*
X58789855Y-100256651D01*
X58696549Y-100218003D01*
X58597497Y-100198300D01*
X58496503Y-100198300D01*
X58397451Y-100218003D01*
X58304145Y-100256651D01*
X58220173Y-100312760D01*
X58148760Y-100384173D01*
X58092651Y-100468145D01*
X58054003Y-100561451D01*
X58034300Y-100660503D01*
X58034300Y-100720583D01*
X57962497Y-100706300D01*
X57861503Y-100706300D01*
X57762451Y-100726003D01*
X57669145Y-100764651D01*
X57585173Y-100820760D01*
X57515830Y-100890103D01*
X57499182Y-100869818D01*
X57487249Y-100860025D01*
X57000976Y-100373752D01*
X56991182Y-100361818D01*
X56943567Y-100322741D01*
X56889244Y-100293705D01*
X56870313Y-100287963D01*
X56849740Y-100257173D01*
X56778327Y-100185760D01*
X56694355Y-100129651D01*
X56601049Y-100091003D01*
X56501997Y-100071300D01*
X56401003Y-100071300D01*
X56301951Y-100091003D01*
X56208645Y-100129651D01*
X56124673Y-100185760D01*
X56053260Y-100257173D01*
X55997151Y-100341145D01*
X55958503Y-100434451D01*
X55938800Y-100533503D01*
X55938800Y-100634497D01*
X55958503Y-100733549D01*
X55997151Y-100826855D01*
X56053260Y-100910827D01*
X56124673Y-100982240D01*
X56208645Y-101038349D01*
X56301951Y-101076997D01*
X56382792Y-101093078D01*
X56315173Y-101138260D01*
X56243760Y-101209673D01*
X56187651Y-101293645D01*
X56149003Y-101386951D01*
X56129300Y-101486003D01*
X56129300Y-101586997D01*
X56149003Y-101686049D01*
X56187651Y-101779355D01*
X56243760Y-101863327D01*
X56315173Y-101934740D01*
X56399145Y-101990849D01*
X56492451Y-102029497D01*
X56591503Y-102049200D01*
X56692497Y-102049200D01*
X56709161Y-102045885D01*
X58505528Y-103842253D01*
X58515318Y-103854182D01*
X58562933Y-103893259D01*
X58617256Y-103922295D01*
X58676199Y-103940175D01*
X58737500Y-103946213D01*
X58752861Y-103944700D01*
X67053476Y-103944700D01*
X71505800Y-108397025D01*
X71505801Y-110855637D01*
X71504288Y-110871000D01*
X71510325Y-110932300D01*
X71516089Y-110951300D01*
X71528206Y-110991244D01*
X71557242Y-111045567D01*
X71574578Y-111066691D01*
X71586526Y-111081250D01*
X71586529Y-111081253D01*
X71596319Y-111093182D01*
X71608248Y-111102972D01*
X72063521Y-111558246D01*
X72003139Y-111704022D01*
X71962300Y-111909333D01*
X71962300Y-112118667D01*
X72003139Y-112323978D01*
X72083247Y-112517377D01*
X72199547Y-112691432D01*
X72347568Y-112839453D01*
X72521623Y-112955753D01*
X72715022Y-113035861D01*
X72920333Y-113076700D01*
X73129667Y-113076700D01*
X73334978Y-113035861D01*
X73528377Y-112955753D01*
X73702432Y-112839453D01*
X73850453Y-112691432D01*
X73966753Y-112517377D01*
X74046861Y-112323978D01*
X74087700Y-112118667D01*
X74087700Y-111909333D01*
X74502300Y-111909333D01*
X74502300Y-112118667D01*
X74543139Y-112323978D01*
X74623247Y-112517377D01*
X74739547Y-112691432D01*
X74887568Y-112839453D01*
X75061623Y-112955753D01*
X75255022Y-113035861D01*
X75460333Y-113076700D01*
X75669667Y-113076700D01*
X75874978Y-113035861D01*
X76068377Y-112955753D01*
X76242432Y-112839453D01*
X76390453Y-112691432D01*
X76506753Y-112517377D01*
X76586861Y-112323978D01*
X76627700Y-112118667D01*
X76627700Y-111909333D01*
X76586861Y-111704022D01*
X76506753Y-111510623D01*
X76390453Y-111336568D01*
X76242432Y-111188547D01*
X76068377Y-111072247D01*
X75874978Y-110992139D01*
X75669667Y-110951300D01*
X75460333Y-110951300D01*
X75255022Y-110992139D01*
X75061623Y-111072247D01*
X74887568Y-111188547D01*
X74739547Y-111336568D01*
X74623247Y-111510623D01*
X74543139Y-111704022D01*
X74502300Y-111909333D01*
X74087700Y-111909333D01*
X74046861Y-111704022D01*
X73966753Y-111510623D01*
X73850453Y-111336568D01*
X73702432Y-111188547D01*
X73528377Y-111072247D01*
X73334978Y-110992139D01*
X73129667Y-110951300D01*
X72920333Y-110951300D01*
X72715022Y-110992139D01*
X72521623Y-111072247D01*
X72485864Y-111096140D01*
X72131200Y-110741476D01*
X72131200Y-110049144D01*
X72199547Y-110151432D01*
X72347568Y-110299453D01*
X72521623Y-110415753D01*
X72715022Y-110495861D01*
X72920333Y-110536700D01*
X73129667Y-110536700D01*
X73334978Y-110495861D01*
X73528377Y-110415753D01*
X73702432Y-110299453D01*
X73850453Y-110151432D01*
X73966753Y-109977377D01*
X74046861Y-109783978D01*
X74087700Y-109578667D01*
X74087700Y-109369333D01*
X74046861Y-109164022D01*
X73966753Y-108970623D01*
X73850453Y-108796568D01*
X73702432Y-108648547D01*
X73528377Y-108532247D01*
X73490843Y-108516700D01*
X74165476Y-108516700D01*
X74622120Y-108973344D01*
X74543139Y-109164022D01*
X74502300Y-109369333D01*
X74502300Y-109578667D01*
X74543139Y-109783978D01*
X74623247Y-109977377D01*
X74739547Y-110151432D01*
X74887568Y-110299453D01*
X75061623Y-110415753D01*
X75255022Y-110495861D01*
X75460333Y-110536700D01*
X75669667Y-110536700D01*
X75874978Y-110495861D01*
X76068377Y-110415753D01*
X76242432Y-110299453D01*
X76390453Y-110151432D01*
X76506753Y-109977377D01*
X76586861Y-109783978D01*
X76627700Y-109578667D01*
X76627700Y-109369333D01*
X76586861Y-109164022D01*
X76506753Y-108970623D01*
X76390453Y-108796568D01*
X76242432Y-108648547D01*
X76068377Y-108532247D01*
X75874978Y-108452139D01*
X75669667Y-108411300D01*
X75460333Y-108411300D01*
X75255022Y-108452139D01*
X75064344Y-108531120D01*
X74526976Y-107993752D01*
X74517182Y-107981818D01*
X74469567Y-107942741D01*
X74415244Y-107913705D01*
X74356300Y-107895825D01*
X74310361Y-107891300D01*
X74310353Y-107891300D01*
X74295000Y-107889788D01*
X74279647Y-107891300D01*
X73476866Y-107891300D01*
X73609601Y-107821467D01*
X73771504Y-107690365D01*
X73904720Y-107530196D01*
X74004128Y-107347115D01*
X74009453Y-107334230D01*
X74005263Y-107175300D01*
X73266300Y-107175300D01*
X73266300Y-107195300D01*
X72783700Y-107195300D01*
X72783700Y-107175300D01*
X72044737Y-107175300D01*
X72040547Y-107334230D01*
X72045872Y-107347115D01*
X72054228Y-107362504D01*
X71521057Y-106829333D01*
X74502300Y-106829333D01*
X74502300Y-107038667D01*
X74543139Y-107243978D01*
X74623247Y-107437377D01*
X74739547Y-107611432D01*
X74887568Y-107759453D01*
X75061623Y-107875753D01*
X75255022Y-107955861D01*
X75460333Y-107996700D01*
X75669667Y-107996700D01*
X75874978Y-107955861D01*
X76068377Y-107875753D01*
X76242432Y-107759453D01*
X76390453Y-107611432D01*
X76506753Y-107437377D01*
X76586861Y-107243978D01*
X76627700Y-107038667D01*
X76627700Y-106829333D01*
X76586861Y-106624022D01*
X76506753Y-106430623D01*
X76390453Y-106256568D01*
X76242432Y-106108547D01*
X76068377Y-105992247D01*
X75874978Y-105912139D01*
X75669667Y-105871300D01*
X75460333Y-105871300D01*
X75255022Y-105912139D01*
X75061623Y-105992247D01*
X74887568Y-106108547D01*
X74739547Y-106256568D01*
X74623247Y-106430623D01*
X74543139Y-106624022D01*
X74502300Y-106829333D01*
X71521057Y-106829333D01*
X70668424Y-105976700D01*
X72573134Y-105976700D01*
X72440399Y-106046533D01*
X72278496Y-106177635D01*
X72145280Y-106337804D01*
X72045872Y-106520885D01*
X72040547Y-106533770D01*
X72044737Y-106692700D01*
X72783700Y-106692700D01*
X72783700Y-106672700D01*
X73266300Y-106672700D01*
X73266300Y-106692700D01*
X74005263Y-106692700D01*
X74009453Y-106533770D01*
X74004128Y-106520885D01*
X73904720Y-106337804D01*
X73771504Y-106177635D01*
X73609601Y-106046533D01*
X73476866Y-105976700D01*
X74279647Y-105976700D01*
X74295000Y-105978212D01*
X74310353Y-105976700D01*
X74310361Y-105976700D01*
X74356300Y-105972175D01*
X74415244Y-105954295D01*
X74469567Y-105925259D01*
X74517182Y-105886182D01*
X74526976Y-105874248D01*
X75064344Y-105336880D01*
X75255022Y-105415861D01*
X75460333Y-105456700D01*
X75669667Y-105456700D01*
X75874978Y-105415861D01*
X76068377Y-105335753D01*
X76242432Y-105219453D01*
X76390453Y-105071432D01*
X76506753Y-104897377D01*
X76586861Y-104703978D01*
X76627700Y-104498667D01*
X76627700Y-104289333D01*
X76586861Y-104084022D01*
X76506753Y-103890623D01*
X76390453Y-103716568D01*
X76242432Y-103568547D01*
X76068377Y-103452247D01*
X75874978Y-103372139D01*
X75669667Y-103331300D01*
X75460333Y-103331300D01*
X75255022Y-103372139D01*
X75061623Y-103452247D01*
X74887568Y-103568547D01*
X74739547Y-103716568D01*
X74623247Y-103890623D01*
X74543139Y-104084022D01*
X74502300Y-104289333D01*
X74502300Y-104498667D01*
X74543139Y-104703978D01*
X74622120Y-104894656D01*
X74165476Y-105351300D01*
X73490843Y-105351300D01*
X73528377Y-105335753D01*
X73702432Y-105219453D01*
X73850453Y-105071432D01*
X73966753Y-104897377D01*
X74046861Y-104703978D01*
X74087700Y-104498667D01*
X74087700Y-104289333D01*
X74046861Y-104084022D01*
X73966753Y-103890623D01*
X73850453Y-103716568D01*
X73702432Y-103568547D01*
X73528377Y-103452247D01*
X73334978Y-103372139D01*
X73129667Y-103331300D01*
X72920333Y-103331300D01*
X72715022Y-103372139D01*
X72521623Y-103452247D01*
X72347568Y-103568547D01*
X72199547Y-103716568D01*
X72083247Y-103890623D01*
X72004266Y-104081300D01*
X69916025Y-104081300D01*
X68026424Y-102191700D01*
X72014622Y-102191700D01*
X72083247Y-102357377D01*
X72199547Y-102531432D01*
X72347568Y-102679453D01*
X72521623Y-102795753D01*
X72715022Y-102875861D01*
X72920333Y-102916700D01*
X73129667Y-102916700D01*
X73334978Y-102875861D01*
X73528377Y-102795753D01*
X73702432Y-102679453D01*
X73850453Y-102531432D01*
X73966753Y-102357377D01*
X74046861Y-102163978D01*
X74087700Y-101958667D01*
X74087700Y-101749333D01*
X74502300Y-101749333D01*
X74502300Y-101958667D01*
X74543139Y-102163978D01*
X74623247Y-102357377D01*
X74739547Y-102531432D01*
X74887568Y-102679453D01*
X75061623Y-102795753D01*
X75255022Y-102875861D01*
X75460333Y-102916700D01*
X75669667Y-102916700D01*
X75874978Y-102875861D01*
X76068377Y-102795753D01*
X76242432Y-102679453D01*
X76390453Y-102531432D01*
X76506753Y-102357377D01*
X76586861Y-102163978D01*
X76627700Y-101958667D01*
X76627700Y-101749333D01*
X76586861Y-101544022D01*
X76506753Y-101350623D01*
X76390453Y-101176568D01*
X76242432Y-101028547D01*
X76068377Y-100912247D01*
X75874978Y-100832139D01*
X75669667Y-100791300D01*
X75460333Y-100791300D01*
X75255022Y-100832139D01*
X75061623Y-100912247D01*
X74887568Y-101028547D01*
X74739547Y-101176568D01*
X74623247Y-101350623D01*
X74543139Y-101544022D01*
X74502300Y-101749333D01*
X74087700Y-101749333D01*
X74046861Y-101544022D01*
X73966753Y-101350623D01*
X73850453Y-101176568D01*
X73702432Y-101028547D01*
X73528377Y-100912247D01*
X73334978Y-100832139D01*
X73129667Y-100791300D01*
X72920333Y-100791300D01*
X72715022Y-100832139D01*
X72521623Y-100912247D01*
X72347568Y-101028547D01*
X72199547Y-101176568D01*
X72083247Y-101350623D01*
X72014622Y-101516300D01*
X61099880Y-101516300D01*
X59297810Y-99714230D01*
X72040547Y-99714230D01*
X72045872Y-99727115D01*
X72145280Y-99910196D01*
X72278496Y-100070365D01*
X72440399Y-100201467D01*
X72624768Y-100298465D01*
X72783700Y-100295780D01*
X72783700Y-99555300D01*
X73266300Y-99555300D01*
X73266300Y-100295780D01*
X73425232Y-100298465D01*
X73609601Y-100201467D01*
X73771504Y-100070365D01*
X73904720Y-99910196D01*
X74004128Y-99727115D01*
X74009453Y-99714230D01*
X74005263Y-99555300D01*
X73266300Y-99555300D01*
X72783700Y-99555300D01*
X72044737Y-99555300D01*
X72040547Y-99714230D01*
X59297810Y-99714230D01*
X59051520Y-99467941D01*
X59040945Y-99455055D01*
X58989523Y-99412855D01*
X58930857Y-99381497D01*
X58867201Y-99362187D01*
X58817581Y-99357300D01*
X58817578Y-99357300D01*
X58801000Y-99355667D01*
X58784422Y-99357300D01*
X56591380Y-99357300D01*
X56443413Y-99209333D01*
X74502300Y-99209333D01*
X74502300Y-99418667D01*
X74543139Y-99623978D01*
X74623247Y-99817377D01*
X74739547Y-99991432D01*
X74887568Y-100139453D01*
X75061623Y-100255753D01*
X75255022Y-100335861D01*
X75460333Y-100376700D01*
X75669667Y-100376700D01*
X75874978Y-100335861D01*
X76068377Y-100255753D01*
X76242432Y-100139453D01*
X76390453Y-99991432D01*
X76506753Y-99817377D01*
X76586861Y-99623978D01*
X76627700Y-99418667D01*
X76627700Y-99209333D01*
X76586861Y-99004022D01*
X76506753Y-98810623D01*
X76390453Y-98636568D01*
X76242432Y-98488547D01*
X76068377Y-98372247D01*
X75874978Y-98292139D01*
X75669667Y-98251300D01*
X75460333Y-98251300D01*
X75255022Y-98292139D01*
X75061623Y-98372247D01*
X74887568Y-98488547D01*
X74739547Y-98636568D01*
X74623247Y-98810623D01*
X74543139Y-99004022D01*
X74502300Y-99209333D01*
X56443413Y-99209333D01*
X56147850Y-98913770D01*
X72040547Y-98913770D01*
X72044737Y-99072700D01*
X72783700Y-99072700D01*
X72783700Y-98332220D01*
X73266300Y-98332220D01*
X73266300Y-99072700D01*
X74005263Y-99072700D01*
X74009453Y-98913770D01*
X74004128Y-98900885D01*
X73904720Y-98717804D01*
X73771504Y-98557635D01*
X73609601Y-98426533D01*
X73425232Y-98329535D01*
X73266300Y-98332220D01*
X72783700Y-98332220D01*
X72624768Y-98329535D01*
X72440399Y-98426533D01*
X72278496Y-98557635D01*
X72145280Y-98717804D01*
X72045872Y-98900885D01*
X72040547Y-98913770D01*
X56147850Y-98913770D01*
X55862280Y-98628200D01*
X61391800Y-98628200D01*
X61391800Y-98869500D01*
X61392044Y-98871978D01*
X61392767Y-98874360D01*
X61393940Y-98876556D01*
X61395520Y-98878480D01*
X61397444Y-98880060D01*
X61399640Y-98881233D01*
X61402022Y-98881956D01*
X61404500Y-98882200D01*
X67818000Y-98882200D01*
X67820212Y-98882006D01*
X67822609Y-98881334D01*
X67824830Y-98880207D01*
X67826787Y-98878669D01*
X69350787Y-97418169D01*
X69352538Y-97416089D01*
X69353718Y-97413896D01*
X69354448Y-97411516D01*
X69354700Y-97409039D01*
X69356997Y-96669333D01*
X71962300Y-96669333D01*
X71962300Y-96878667D01*
X72003139Y-97083978D01*
X72083247Y-97277377D01*
X72199547Y-97451432D01*
X72347568Y-97599453D01*
X72521623Y-97715753D01*
X72715022Y-97795861D01*
X72920333Y-97836700D01*
X73129667Y-97836700D01*
X73334978Y-97795861D01*
X73528377Y-97715753D01*
X73702432Y-97599453D01*
X73850453Y-97451432D01*
X73966753Y-97277377D01*
X74046861Y-97083978D01*
X74087700Y-96878667D01*
X74087700Y-96669333D01*
X74502300Y-96669333D01*
X74502300Y-96878667D01*
X74543139Y-97083978D01*
X74623247Y-97277377D01*
X74739547Y-97451432D01*
X74887568Y-97599453D01*
X75061623Y-97715753D01*
X75255022Y-97795861D01*
X75460333Y-97836700D01*
X75669667Y-97836700D01*
X75874978Y-97795861D01*
X76068377Y-97715753D01*
X76242432Y-97599453D01*
X76390453Y-97451432D01*
X76506753Y-97277377D01*
X76586861Y-97083978D01*
X76627700Y-96878667D01*
X76627700Y-96669333D01*
X76586861Y-96464022D01*
X76506753Y-96270623D01*
X76390453Y-96096568D01*
X76242432Y-95948547D01*
X76068377Y-95832247D01*
X75874978Y-95752139D01*
X75669667Y-95711300D01*
X75460333Y-95711300D01*
X75255022Y-95752139D01*
X75061623Y-95832247D01*
X74887568Y-95948547D01*
X74739547Y-96096568D01*
X74623247Y-96270623D01*
X74543139Y-96464022D01*
X74502300Y-96669333D01*
X74087700Y-96669333D01*
X74046861Y-96464022D01*
X73966753Y-96270623D01*
X73850453Y-96096568D01*
X73702432Y-95948547D01*
X73528377Y-95832247D01*
X73334978Y-95752139D01*
X73129667Y-95711300D01*
X72920333Y-95711300D01*
X72715022Y-95752139D01*
X72521623Y-95832247D01*
X72347568Y-95948547D01*
X72199547Y-96096568D01*
X72083247Y-96270623D01*
X72003139Y-96464022D01*
X71962300Y-96669333D01*
X69356997Y-96669333D01*
X69414590Y-78124230D01*
X72040547Y-78124230D01*
X72045872Y-78137115D01*
X72145280Y-78320196D01*
X72278496Y-78480365D01*
X72440399Y-78611467D01*
X72624768Y-78708465D01*
X72783700Y-78705780D01*
X72783700Y-77965300D01*
X73266300Y-77965300D01*
X73266300Y-78705780D01*
X73425232Y-78708465D01*
X73609601Y-78611467D01*
X73771504Y-78480365D01*
X73904720Y-78320196D01*
X74004128Y-78137115D01*
X74009453Y-78124230D01*
X74580547Y-78124230D01*
X74585872Y-78137115D01*
X74685280Y-78320196D01*
X74818496Y-78480365D01*
X74980399Y-78611467D01*
X75164768Y-78708465D01*
X75323700Y-78705780D01*
X75323700Y-77965300D01*
X75806300Y-77965300D01*
X75806300Y-78705780D01*
X75965232Y-78708465D01*
X76149601Y-78611467D01*
X76311504Y-78480365D01*
X76444720Y-78320196D01*
X76544128Y-78137115D01*
X76549453Y-78124230D01*
X76545263Y-77965300D01*
X75806300Y-77965300D01*
X75323700Y-77965300D01*
X74584737Y-77965300D01*
X74580547Y-78124230D01*
X74009453Y-78124230D01*
X74005263Y-77965300D01*
X73266300Y-77965300D01*
X72783700Y-77965300D01*
X72044737Y-77965300D01*
X72040547Y-78124230D01*
X69414590Y-78124230D01*
X69417076Y-77323770D01*
X72040547Y-77323770D01*
X72044737Y-77482700D01*
X72783700Y-77482700D01*
X72783700Y-76742220D01*
X73266300Y-76742220D01*
X73266300Y-77482700D01*
X74005263Y-77482700D01*
X74009453Y-77323770D01*
X74580547Y-77323770D01*
X74584737Y-77482700D01*
X75323700Y-77482700D01*
X75323700Y-76742220D01*
X75806300Y-76742220D01*
X75806300Y-77482700D01*
X76545263Y-77482700D01*
X76549453Y-77323770D01*
X76544128Y-77310885D01*
X76444720Y-77127804D01*
X76311504Y-76967635D01*
X76149601Y-76836533D01*
X75965232Y-76739535D01*
X75806300Y-76742220D01*
X75323700Y-76742220D01*
X75164768Y-76739535D01*
X74980399Y-76836533D01*
X74818496Y-76967635D01*
X74685280Y-77127804D01*
X74585872Y-77310885D01*
X74580547Y-77323770D01*
X74009453Y-77323770D01*
X74004128Y-77310885D01*
X73904720Y-77127804D01*
X73771504Y-76967635D01*
X73609601Y-76836533D01*
X73425232Y-76739535D01*
X73266300Y-76742220D01*
X72783700Y-76742220D01*
X72624768Y-76739535D01*
X72440399Y-76836533D01*
X72278496Y-76967635D01*
X72145280Y-77127804D01*
X72045872Y-77310885D01*
X72040547Y-77323770D01*
X69417076Y-77323770D01*
X69418186Y-76966614D01*
X70990920Y-75079333D01*
X71962300Y-75079333D01*
X71962300Y-75288667D01*
X72003139Y-75493978D01*
X72083247Y-75687377D01*
X72199547Y-75861432D01*
X72347568Y-76009453D01*
X72521623Y-76125753D01*
X72715022Y-76205861D01*
X72920333Y-76246700D01*
X73129667Y-76246700D01*
X73334978Y-76205861D01*
X73528377Y-76125753D01*
X73702432Y-76009453D01*
X73850453Y-75861432D01*
X73966753Y-75687377D01*
X74046861Y-75493978D01*
X74087700Y-75288667D01*
X74087700Y-75079333D01*
X74502300Y-75079333D01*
X74502300Y-75288667D01*
X74543139Y-75493978D01*
X74623247Y-75687377D01*
X74739547Y-75861432D01*
X74887568Y-76009453D01*
X75061623Y-76125753D01*
X75255022Y-76205861D01*
X75460333Y-76246700D01*
X75669667Y-76246700D01*
X75874978Y-76205861D01*
X76068377Y-76125753D01*
X76242432Y-76009453D01*
X76390453Y-75861432D01*
X76506753Y-75687377D01*
X76586861Y-75493978D01*
X76627700Y-75288667D01*
X76627700Y-75079333D01*
X76586861Y-74874022D01*
X76506753Y-74680623D01*
X76390453Y-74506568D01*
X76242432Y-74358547D01*
X76068377Y-74242247D01*
X75874978Y-74162139D01*
X75669667Y-74121300D01*
X75460333Y-74121300D01*
X75255022Y-74162139D01*
X75061623Y-74242247D01*
X74887568Y-74358547D01*
X74739547Y-74506568D01*
X74623247Y-74680623D01*
X74543139Y-74874022D01*
X74502300Y-75079333D01*
X74087700Y-75079333D01*
X74046861Y-74874022D01*
X73966753Y-74680623D01*
X73850453Y-74506568D01*
X73702432Y-74358547D01*
X73528377Y-74242247D01*
X73334978Y-74162139D01*
X73129667Y-74121300D01*
X72920333Y-74121300D01*
X72715022Y-74162139D01*
X72521623Y-74242247D01*
X72347568Y-74358547D01*
X72199547Y-74506568D01*
X72083247Y-74680623D01*
X72003139Y-74874022D01*
X71962300Y-75079333D01*
X70990920Y-75079333D01*
X77139301Y-67701276D01*
X77139300Y-131143800D01*
%TA.AperFunction,Conductor*%
D25*
G36*
X77139300Y-131143800D02*
G01*
X44814700Y-131143800D01*
X44814700Y-127889000D01*
X59758300Y-127889000D01*
X59758300Y-130619500D01*
X59764308Y-130680505D01*
X59782103Y-130739165D01*
X59810999Y-130793227D01*
X59849888Y-130840612D01*
X59897273Y-130879501D01*
X59951335Y-130908397D01*
X60009995Y-130926192D01*
X60071000Y-130932200D01*
X71945500Y-130932200D01*
X72006505Y-130926192D01*
X72065165Y-130908397D01*
X72119227Y-130879501D01*
X72166612Y-130840612D01*
X73627112Y-129380112D01*
X73666001Y-129332727D01*
X73694897Y-129278665D01*
X73712692Y-129220005D01*
X73718700Y-129159000D01*
X73718700Y-124015500D01*
X73712692Y-123954495D01*
X73694897Y-123895835D01*
X73666001Y-123841773D01*
X73627112Y-123794388D01*
X73579727Y-123755499D01*
X73525665Y-123726603D01*
X73467005Y-123708808D01*
X73406000Y-123702800D01*
X69215000Y-123702800D01*
X69153995Y-123708808D01*
X69095335Y-123726603D01*
X69041273Y-123755499D01*
X68993888Y-123794388D01*
X68954999Y-123841773D01*
X68926103Y-123895835D01*
X68908308Y-123954495D01*
X68902300Y-124015500D01*
X68902300Y-127178236D01*
X68460006Y-127576300D01*
X60071000Y-127576300D01*
X60009995Y-127582308D01*
X59951335Y-127600103D01*
X59897273Y-127628999D01*
X59849888Y-127667888D01*
X59810999Y-127715273D01*
X59782103Y-127769335D01*
X59764308Y-127827995D01*
X59758300Y-127889000D01*
X44814700Y-127889000D01*
X44814700Y-112408003D01*
X47366300Y-112408003D01*
X47366300Y-112508997D01*
X47386003Y-112608049D01*
X47424651Y-112701355D01*
X47480760Y-112785327D01*
X47552173Y-112856740D01*
X47636145Y-112912849D01*
X47729451Y-112951497D01*
X47828503Y-112971200D01*
X47878766Y-112971200D01*
X50276943Y-115369379D01*
X50288292Y-115383208D01*
X50302121Y-115394557D01*
X50302124Y-115394560D01*
X50343520Y-115428532D01*
X50406529Y-115462212D01*
X50474899Y-115482951D01*
X50546000Y-115489954D01*
X50563808Y-115488200D01*
X58650766Y-115488200D01*
X62428454Y-119265889D01*
X62415800Y-119329503D01*
X62415800Y-119430497D01*
X62435503Y-119529549D01*
X62474151Y-119622855D01*
X62530260Y-119706827D01*
X62601673Y-119778240D01*
X62685645Y-119834349D01*
X62778951Y-119872997D01*
X62878003Y-119892700D01*
X62978997Y-119892700D01*
X63078049Y-119872997D01*
X63171355Y-119834349D01*
X63255327Y-119778240D01*
X63326740Y-119706827D01*
X63382849Y-119622855D01*
X63421497Y-119529549D01*
X63441200Y-119430497D01*
X63441200Y-119329503D01*
X63421497Y-119230451D01*
X63382849Y-119137145D01*
X63326740Y-119053173D01*
X63255327Y-118981760D01*
X63171355Y-118925651D01*
X63078049Y-118887003D01*
X63074790Y-118886355D01*
X60723938Y-116535503D01*
X64828800Y-116535503D01*
X64828800Y-116636497D01*
X64848503Y-116735549D01*
X64887151Y-116828855D01*
X64943260Y-116912827D01*
X65014673Y-116984240D01*
X65098645Y-117040349D01*
X65191951Y-117078997D01*
X65291003Y-117098700D01*
X65391997Y-117098700D01*
X65491049Y-117078997D01*
X65584355Y-117040349D01*
X65668327Y-116984240D01*
X65703867Y-116948700D01*
X67990694Y-116948700D01*
X68008500Y-116950454D01*
X68026306Y-116948700D01*
X68026308Y-116948700D01*
X68079601Y-116943451D01*
X68147971Y-116922712D01*
X68210980Y-116889032D01*
X68266208Y-116843708D01*
X68277566Y-116829868D01*
X68897735Y-116209700D01*
X68947997Y-116209700D01*
X69047049Y-116189997D01*
X69140355Y-116151349D01*
X69224327Y-116095240D01*
X69295740Y-116023827D01*
X69351849Y-115939855D01*
X69390497Y-115846549D01*
X69410200Y-115747497D01*
X69410200Y-115646503D01*
X69390497Y-115547451D01*
X69351849Y-115454145D01*
X69295740Y-115370173D01*
X69224327Y-115298760D01*
X69140355Y-115242651D01*
X69047049Y-115204003D01*
X68947997Y-115184300D01*
X68847003Y-115184300D01*
X68747951Y-115204003D01*
X68654645Y-115242651D01*
X68570673Y-115298760D01*
X68499260Y-115370173D01*
X68443151Y-115454145D01*
X68404503Y-115547451D01*
X68384800Y-115646503D01*
X68384800Y-115696765D01*
X67858266Y-116223300D01*
X65703867Y-116223300D01*
X65668327Y-116187760D01*
X65584355Y-116131651D01*
X65491049Y-116093003D01*
X65391997Y-116073300D01*
X65291003Y-116073300D01*
X65191951Y-116093003D01*
X65098645Y-116131651D01*
X65014673Y-116187760D01*
X64943260Y-116259173D01*
X64887151Y-116343145D01*
X64848503Y-116436451D01*
X64828800Y-116535503D01*
X60723938Y-116535503D01*
X59142665Y-114954230D01*
X72040547Y-114954230D01*
X72045872Y-114967115D01*
X72145280Y-115150196D01*
X72278496Y-115310365D01*
X72440399Y-115441467D01*
X72624768Y-115538465D01*
X72783700Y-115535780D01*
X72783700Y-114795300D01*
X73266300Y-114795300D01*
X73266300Y-115535780D01*
X73425232Y-115538465D01*
X73609601Y-115441467D01*
X73771504Y-115310365D01*
X73904720Y-115150196D01*
X74004128Y-114967115D01*
X74009453Y-114954230D01*
X74580547Y-114954230D01*
X74585872Y-114967115D01*
X74685280Y-115150196D01*
X74818496Y-115310365D01*
X74980399Y-115441467D01*
X75164768Y-115538465D01*
X75323700Y-115535780D01*
X75323700Y-114795300D01*
X75806300Y-114795300D01*
X75806300Y-115535780D01*
X75965232Y-115538465D01*
X76149601Y-115441467D01*
X76311504Y-115310365D01*
X76444720Y-115150196D01*
X76544128Y-114967115D01*
X76549453Y-114954230D01*
X76545263Y-114795300D01*
X75806300Y-114795300D01*
X75323700Y-114795300D01*
X74584737Y-114795300D01*
X74580547Y-114954230D01*
X74009453Y-114954230D01*
X74005263Y-114795300D01*
X73266300Y-114795300D01*
X72783700Y-114795300D01*
X72044737Y-114795300D01*
X72040547Y-114954230D01*
X59142665Y-114954230D01*
X59070066Y-114881632D01*
X59058708Y-114867792D01*
X59003480Y-114822468D01*
X58940471Y-114788788D01*
X58872101Y-114768049D01*
X58818808Y-114762800D01*
X58818806Y-114762800D01*
X58801000Y-114761046D01*
X58783194Y-114762800D01*
X50696236Y-114762800D01*
X50087206Y-114153770D01*
X72040547Y-114153770D01*
X72044737Y-114312700D01*
X72783700Y-114312700D01*
X72783700Y-113572220D01*
X73266300Y-113572220D01*
X73266300Y-114312700D01*
X74005263Y-114312700D01*
X74009453Y-114153770D01*
X74580547Y-114153770D01*
X74584737Y-114312700D01*
X75323700Y-114312700D01*
X75323700Y-113572220D01*
X75806300Y-113572220D01*
X75806300Y-114312700D01*
X76545263Y-114312700D01*
X76549453Y-114153770D01*
X76544128Y-114140885D01*
X76444720Y-113957804D01*
X76311504Y-113797635D01*
X76149601Y-113666533D01*
X75965232Y-113569535D01*
X75806300Y-113572220D01*
X75323700Y-113572220D01*
X75164768Y-113569535D01*
X74980399Y-113666533D01*
X74818496Y-113797635D01*
X74685280Y-113957804D01*
X74585872Y-114140885D01*
X74580547Y-114153770D01*
X74009453Y-114153770D01*
X74004128Y-114140885D01*
X73904720Y-113957804D01*
X73771504Y-113797635D01*
X73609601Y-113666533D01*
X73425232Y-113569535D01*
X73266300Y-113572220D01*
X72783700Y-113572220D01*
X72624768Y-113569535D01*
X72440399Y-113666533D01*
X72278496Y-113797635D01*
X72145280Y-113957804D01*
X72045872Y-114140885D01*
X72040547Y-114153770D01*
X50087206Y-114153770D01*
X48391700Y-112458266D01*
X48391700Y-112408003D01*
X48371997Y-112308951D01*
X48333349Y-112215645D01*
X48277240Y-112131673D01*
X48205827Y-112060260D01*
X48121855Y-112004151D01*
X48028549Y-111965503D01*
X47929497Y-111945800D01*
X47828503Y-111945800D01*
X47729451Y-111965503D01*
X47636145Y-112004151D01*
X47552173Y-112060260D01*
X47480760Y-112131673D01*
X47424651Y-112215645D01*
X47386003Y-112308951D01*
X47366300Y-112408003D01*
X44814700Y-112408003D01*
X44814700Y-97802700D01*
X46788414Y-97802700D01*
X46850461Y-97844159D01*
X46952866Y-97886576D01*
X47016347Y-97899203D01*
X47535754Y-98418611D01*
X47550239Y-98436261D01*
X47620694Y-98494082D01*
X47673076Y-98522081D01*
X47701075Y-98537047D01*
X47788295Y-98563504D01*
X47879000Y-98572438D01*
X47901722Y-98570200D01*
X50989344Y-98570200D01*
X53992797Y-101573653D01*
X54005424Y-101637134D01*
X54047841Y-101739539D01*
X54109422Y-101831701D01*
X54187799Y-101910078D01*
X54279961Y-101971659D01*
X54382366Y-102014076D01*
X54445847Y-102026703D01*
X62013754Y-109594611D01*
X62028239Y-109612261D01*
X62098694Y-109670082D01*
X62147522Y-109696181D01*
X62179075Y-109713047D01*
X62266295Y-109739504D01*
X62357000Y-109748438D01*
X62379722Y-109746200D01*
X64513145Y-109746200D01*
X64566961Y-109782159D01*
X64669366Y-109824576D01*
X64778079Y-109846200D01*
X64888921Y-109846200D01*
X64997634Y-109824576D01*
X65100039Y-109782159D01*
X65153855Y-109746200D01*
X65211645Y-109746200D01*
X65265461Y-109782159D01*
X65367866Y-109824576D01*
X65476579Y-109846200D01*
X65587421Y-109846200D01*
X65696134Y-109824576D01*
X65798539Y-109782159D01*
X65890701Y-109720578D01*
X65969078Y-109642201D01*
X66030659Y-109550039D01*
X66073076Y-109447634D01*
X66094700Y-109338921D01*
X66094700Y-109228079D01*
X66073076Y-109119366D01*
X66030659Y-109016961D01*
X65969078Y-108924799D01*
X65890701Y-108846422D01*
X65798539Y-108784841D01*
X65696134Y-108742424D01*
X65587421Y-108720800D01*
X65476579Y-108720800D01*
X65367866Y-108742424D01*
X65265461Y-108784841D01*
X65211645Y-108820800D01*
X65153855Y-108820800D01*
X65100039Y-108784841D01*
X64997634Y-108742424D01*
X64888921Y-108720800D01*
X64778079Y-108720800D01*
X64669366Y-108742424D01*
X64566961Y-108784841D01*
X64513145Y-108820800D01*
X62548657Y-108820800D01*
X55100203Y-101372347D01*
X55087576Y-101308866D01*
X55045159Y-101206461D01*
X54983578Y-101114299D01*
X54905201Y-101035922D01*
X54813039Y-100974341D01*
X54710634Y-100931924D01*
X54647153Y-100919297D01*
X51530556Y-97802700D01*
X54081621Y-97802700D01*
X56200984Y-99922064D01*
X56211555Y-99934945D01*
X56224434Y-99945514D01*
X56262976Y-99977145D01*
X56289706Y-99991432D01*
X56321643Y-100008503D01*
X56385299Y-100027813D01*
X56434919Y-100032700D01*
X56434921Y-100032700D01*
X56451499Y-100034333D01*
X56468077Y-100032700D01*
X58661121Y-100032700D01*
X60614220Y-101985800D01*
X60200524Y-101985800D01*
X59045850Y-100831126D01*
X59059700Y-100761497D01*
X59059700Y-100660503D01*
X59039997Y-100561451D01*
X59001349Y-100468145D01*
X58945240Y-100384173D01*
X58873827Y-100312760D01*
X58789855Y-100256651D01*
X58696549Y-100218003D01*
X58597497Y-100198300D01*
X58496503Y-100198300D01*
X58397451Y-100218003D01*
X58304145Y-100256651D01*
X58220173Y-100312760D01*
X58148760Y-100384173D01*
X58092651Y-100468145D01*
X58054003Y-100561451D01*
X58034300Y-100660503D01*
X58034300Y-100720583D01*
X57962497Y-100706300D01*
X57861503Y-100706300D01*
X57762451Y-100726003D01*
X57669145Y-100764651D01*
X57585173Y-100820760D01*
X57515830Y-100890103D01*
X57499182Y-100869818D01*
X57487249Y-100860025D01*
X57000976Y-100373752D01*
X56991182Y-100361818D01*
X56943567Y-100322741D01*
X56889244Y-100293705D01*
X56870313Y-100287963D01*
X56849740Y-100257173D01*
X56778327Y-100185760D01*
X56694355Y-100129651D01*
X56601049Y-100091003D01*
X56501997Y-100071300D01*
X56401003Y-100071300D01*
X56301951Y-100091003D01*
X56208645Y-100129651D01*
X56124673Y-100185760D01*
X56053260Y-100257173D01*
X55997151Y-100341145D01*
X55958503Y-100434451D01*
X55938800Y-100533503D01*
X55938800Y-100634497D01*
X55958503Y-100733549D01*
X55997151Y-100826855D01*
X56053260Y-100910827D01*
X56124673Y-100982240D01*
X56208645Y-101038349D01*
X56301951Y-101076997D01*
X56382792Y-101093078D01*
X56315173Y-101138260D01*
X56243760Y-101209673D01*
X56187651Y-101293645D01*
X56149003Y-101386951D01*
X56129300Y-101486003D01*
X56129300Y-101586997D01*
X56149003Y-101686049D01*
X56187651Y-101779355D01*
X56243760Y-101863327D01*
X56315173Y-101934740D01*
X56399145Y-101990849D01*
X56492451Y-102029497D01*
X56591503Y-102049200D01*
X56692497Y-102049200D01*
X56709161Y-102045885D01*
X58505528Y-103842253D01*
X58515318Y-103854182D01*
X58562933Y-103893259D01*
X58617256Y-103922295D01*
X58676199Y-103940175D01*
X58737500Y-103946213D01*
X58752861Y-103944700D01*
X67053476Y-103944700D01*
X71505800Y-108397025D01*
X71505801Y-110855637D01*
X71504288Y-110871000D01*
X71510325Y-110932300D01*
X71516089Y-110951300D01*
X71528206Y-110991244D01*
X71557242Y-111045567D01*
X71574578Y-111066691D01*
X71586526Y-111081250D01*
X71586529Y-111081253D01*
X71596319Y-111093182D01*
X71608248Y-111102972D01*
X72063521Y-111558246D01*
X72003139Y-111704022D01*
X71962300Y-111909333D01*
X71962300Y-112118667D01*
X72003139Y-112323978D01*
X72083247Y-112517377D01*
X72199547Y-112691432D01*
X72347568Y-112839453D01*
X72521623Y-112955753D01*
X72715022Y-113035861D01*
X72920333Y-113076700D01*
X73129667Y-113076700D01*
X73334978Y-113035861D01*
X73528377Y-112955753D01*
X73702432Y-112839453D01*
X73850453Y-112691432D01*
X73966753Y-112517377D01*
X74046861Y-112323978D01*
X74087700Y-112118667D01*
X74087700Y-111909333D01*
X74502300Y-111909333D01*
X74502300Y-112118667D01*
X74543139Y-112323978D01*
X74623247Y-112517377D01*
X74739547Y-112691432D01*
X74887568Y-112839453D01*
X75061623Y-112955753D01*
X75255022Y-113035861D01*
X75460333Y-113076700D01*
X75669667Y-113076700D01*
X75874978Y-113035861D01*
X76068377Y-112955753D01*
X76242432Y-112839453D01*
X76390453Y-112691432D01*
X76506753Y-112517377D01*
X76586861Y-112323978D01*
X76627700Y-112118667D01*
X76627700Y-111909333D01*
X76586861Y-111704022D01*
X76506753Y-111510623D01*
X76390453Y-111336568D01*
X76242432Y-111188547D01*
X76068377Y-111072247D01*
X75874978Y-110992139D01*
X75669667Y-110951300D01*
X75460333Y-110951300D01*
X75255022Y-110992139D01*
X75061623Y-111072247D01*
X74887568Y-111188547D01*
X74739547Y-111336568D01*
X74623247Y-111510623D01*
X74543139Y-111704022D01*
X74502300Y-111909333D01*
X74087700Y-111909333D01*
X74046861Y-111704022D01*
X73966753Y-111510623D01*
X73850453Y-111336568D01*
X73702432Y-111188547D01*
X73528377Y-111072247D01*
X73334978Y-110992139D01*
X73129667Y-110951300D01*
X72920333Y-110951300D01*
X72715022Y-110992139D01*
X72521623Y-111072247D01*
X72485864Y-111096140D01*
X72131200Y-110741476D01*
X72131200Y-110049144D01*
X72199547Y-110151432D01*
X72347568Y-110299453D01*
X72521623Y-110415753D01*
X72715022Y-110495861D01*
X72920333Y-110536700D01*
X73129667Y-110536700D01*
X73334978Y-110495861D01*
X73528377Y-110415753D01*
X73702432Y-110299453D01*
X73850453Y-110151432D01*
X73966753Y-109977377D01*
X74046861Y-109783978D01*
X74087700Y-109578667D01*
X74087700Y-109369333D01*
X74046861Y-109164022D01*
X73966753Y-108970623D01*
X73850453Y-108796568D01*
X73702432Y-108648547D01*
X73528377Y-108532247D01*
X73490843Y-108516700D01*
X74165476Y-108516700D01*
X74622120Y-108973344D01*
X74543139Y-109164022D01*
X74502300Y-109369333D01*
X74502300Y-109578667D01*
X74543139Y-109783978D01*
X74623247Y-109977377D01*
X74739547Y-110151432D01*
X74887568Y-110299453D01*
X75061623Y-110415753D01*
X75255022Y-110495861D01*
X75460333Y-110536700D01*
X75669667Y-110536700D01*
X75874978Y-110495861D01*
X76068377Y-110415753D01*
X76242432Y-110299453D01*
X76390453Y-110151432D01*
X76506753Y-109977377D01*
X76586861Y-109783978D01*
X76627700Y-109578667D01*
X76627700Y-109369333D01*
X76586861Y-109164022D01*
X76506753Y-108970623D01*
X76390453Y-108796568D01*
X76242432Y-108648547D01*
X76068377Y-108532247D01*
X75874978Y-108452139D01*
X75669667Y-108411300D01*
X75460333Y-108411300D01*
X75255022Y-108452139D01*
X75064344Y-108531120D01*
X74526976Y-107993752D01*
X74517182Y-107981818D01*
X74469567Y-107942741D01*
X74415244Y-107913705D01*
X74356300Y-107895825D01*
X74310361Y-107891300D01*
X74310353Y-107891300D01*
X74295000Y-107889788D01*
X74279647Y-107891300D01*
X73476866Y-107891300D01*
X73609601Y-107821467D01*
X73771504Y-107690365D01*
X73904720Y-107530196D01*
X74004128Y-107347115D01*
X74009453Y-107334230D01*
X74005263Y-107175300D01*
X73266300Y-107175300D01*
X73266300Y-107195300D01*
X72783700Y-107195300D01*
X72783700Y-107175300D01*
X72044737Y-107175300D01*
X72040547Y-107334230D01*
X72045872Y-107347115D01*
X72054228Y-107362504D01*
X71521057Y-106829333D01*
X74502300Y-106829333D01*
X74502300Y-107038667D01*
X74543139Y-107243978D01*
X74623247Y-107437377D01*
X74739547Y-107611432D01*
X74887568Y-107759453D01*
X75061623Y-107875753D01*
X75255022Y-107955861D01*
X75460333Y-107996700D01*
X75669667Y-107996700D01*
X75874978Y-107955861D01*
X76068377Y-107875753D01*
X76242432Y-107759453D01*
X76390453Y-107611432D01*
X76506753Y-107437377D01*
X76586861Y-107243978D01*
X76627700Y-107038667D01*
X76627700Y-106829333D01*
X76586861Y-106624022D01*
X76506753Y-106430623D01*
X76390453Y-106256568D01*
X76242432Y-106108547D01*
X76068377Y-105992247D01*
X75874978Y-105912139D01*
X75669667Y-105871300D01*
X75460333Y-105871300D01*
X75255022Y-105912139D01*
X75061623Y-105992247D01*
X74887568Y-106108547D01*
X74739547Y-106256568D01*
X74623247Y-106430623D01*
X74543139Y-106624022D01*
X74502300Y-106829333D01*
X71521057Y-106829333D01*
X70668424Y-105976700D01*
X72573134Y-105976700D01*
X72440399Y-106046533D01*
X72278496Y-106177635D01*
X72145280Y-106337804D01*
X72045872Y-106520885D01*
X72040547Y-106533770D01*
X72044737Y-106692700D01*
X72783700Y-106692700D01*
X72783700Y-106672700D01*
X73266300Y-106672700D01*
X73266300Y-106692700D01*
X74005263Y-106692700D01*
X74009453Y-106533770D01*
X74004128Y-106520885D01*
X73904720Y-106337804D01*
X73771504Y-106177635D01*
X73609601Y-106046533D01*
X73476866Y-105976700D01*
X74279647Y-105976700D01*
X74295000Y-105978212D01*
X74310353Y-105976700D01*
X74310361Y-105976700D01*
X74356300Y-105972175D01*
X74415244Y-105954295D01*
X74469567Y-105925259D01*
X74517182Y-105886182D01*
X74526976Y-105874248D01*
X75064344Y-105336880D01*
X75255022Y-105415861D01*
X75460333Y-105456700D01*
X75669667Y-105456700D01*
X75874978Y-105415861D01*
X76068377Y-105335753D01*
X76242432Y-105219453D01*
X76390453Y-105071432D01*
X76506753Y-104897377D01*
X76586861Y-104703978D01*
X76627700Y-104498667D01*
X76627700Y-104289333D01*
X76586861Y-104084022D01*
X76506753Y-103890623D01*
X76390453Y-103716568D01*
X76242432Y-103568547D01*
X76068377Y-103452247D01*
X75874978Y-103372139D01*
X75669667Y-103331300D01*
X75460333Y-103331300D01*
X75255022Y-103372139D01*
X75061623Y-103452247D01*
X74887568Y-103568547D01*
X74739547Y-103716568D01*
X74623247Y-103890623D01*
X74543139Y-104084022D01*
X74502300Y-104289333D01*
X74502300Y-104498667D01*
X74543139Y-104703978D01*
X74622120Y-104894656D01*
X74165476Y-105351300D01*
X73490843Y-105351300D01*
X73528377Y-105335753D01*
X73702432Y-105219453D01*
X73850453Y-105071432D01*
X73966753Y-104897377D01*
X74046861Y-104703978D01*
X74087700Y-104498667D01*
X74087700Y-104289333D01*
X74046861Y-104084022D01*
X73966753Y-103890623D01*
X73850453Y-103716568D01*
X73702432Y-103568547D01*
X73528377Y-103452247D01*
X73334978Y-103372139D01*
X73129667Y-103331300D01*
X72920333Y-103331300D01*
X72715022Y-103372139D01*
X72521623Y-103452247D01*
X72347568Y-103568547D01*
X72199547Y-103716568D01*
X72083247Y-103890623D01*
X72004266Y-104081300D01*
X69916025Y-104081300D01*
X68026424Y-102191700D01*
X72014622Y-102191700D01*
X72083247Y-102357377D01*
X72199547Y-102531432D01*
X72347568Y-102679453D01*
X72521623Y-102795753D01*
X72715022Y-102875861D01*
X72920333Y-102916700D01*
X73129667Y-102916700D01*
X73334978Y-102875861D01*
X73528377Y-102795753D01*
X73702432Y-102679453D01*
X73850453Y-102531432D01*
X73966753Y-102357377D01*
X74046861Y-102163978D01*
X74087700Y-101958667D01*
X74087700Y-101749333D01*
X74502300Y-101749333D01*
X74502300Y-101958667D01*
X74543139Y-102163978D01*
X74623247Y-102357377D01*
X74739547Y-102531432D01*
X74887568Y-102679453D01*
X75061623Y-102795753D01*
X75255022Y-102875861D01*
X75460333Y-102916700D01*
X75669667Y-102916700D01*
X75874978Y-102875861D01*
X76068377Y-102795753D01*
X76242432Y-102679453D01*
X76390453Y-102531432D01*
X76506753Y-102357377D01*
X76586861Y-102163978D01*
X76627700Y-101958667D01*
X76627700Y-101749333D01*
X76586861Y-101544022D01*
X76506753Y-101350623D01*
X76390453Y-101176568D01*
X76242432Y-101028547D01*
X76068377Y-100912247D01*
X75874978Y-100832139D01*
X75669667Y-100791300D01*
X75460333Y-100791300D01*
X75255022Y-100832139D01*
X75061623Y-100912247D01*
X74887568Y-101028547D01*
X74739547Y-101176568D01*
X74623247Y-101350623D01*
X74543139Y-101544022D01*
X74502300Y-101749333D01*
X74087700Y-101749333D01*
X74046861Y-101544022D01*
X73966753Y-101350623D01*
X73850453Y-101176568D01*
X73702432Y-101028547D01*
X73528377Y-100912247D01*
X73334978Y-100832139D01*
X73129667Y-100791300D01*
X72920333Y-100791300D01*
X72715022Y-100832139D01*
X72521623Y-100912247D01*
X72347568Y-101028547D01*
X72199547Y-101176568D01*
X72083247Y-101350623D01*
X72014622Y-101516300D01*
X61099880Y-101516300D01*
X59297810Y-99714230D01*
X72040547Y-99714230D01*
X72045872Y-99727115D01*
X72145280Y-99910196D01*
X72278496Y-100070365D01*
X72440399Y-100201467D01*
X72624768Y-100298465D01*
X72783700Y-100295780D01*
X72783700Y-99555300D01*
X73266300Y-99555300D01*
X73266300Y-100295780D01*
X73425232Y-100298465D01*
X73609601Y-100201467D01*
X73771504Y-100070365D01*
X73904720Y-99910196D01*
X74004128Y-99727115D01*
X74009453Y-99714230D01*
X74005263Y-99555300D01*
X73266300Y-99555300D01*
X72783700Y-99555300D01*
X72044737Y-99555300D01*
X72040547Y-99714230D01*
X59297810Y-99714230D01*
X59051520Y-99467941D01*
X59040945Y-99455055D01*
X58989523Y-99412855D01*
X58930857Y-99381497D01*
X58867201Y-99362187D01*
X58817581Y-99357300D01*
X58817578Y-99357300D01*
X58801000Y-99355667D01*
X58784422Y-99357300D01*
X56591380Y-99357300D01*
X56443413Y-99209333D01*
X74502300Y-99209333D01*
X74502300Y-99418667D01*
X74543139Y-99623978D01*
X74623247Y-99817377D01*
X74739547Y-99991432D01*
X74887568Y-100139453D01*
X75061623Y-100255753D01*
X75255022Y-100335861D01*
X75460333Y-100376700D01*
X75669667Y-100376700D01*
X75874978Y-100335861D01*
X76068377Y-100255753D01*
X76242432Y-100139453D01*
X76390453Y-99991432D01*
X76506753Y-99817377D01*
X76586861Y-99623978D01*
X76627700Y-99418667D01*
X76627700Y-99209333D01*
X76586861Y-99004022D01*
X76506753Y-98810623D01*
X76390453Y-98636568D01*
X76242432Y-98488547D01*
X76068377Y-98372247D01*
X75874978Y-98292139D01*
X75669667Y-98251300D01*
X75460333Y-98251300D01*
X75255022Y-98292139D01*
X75061623Y-98372247D01*
X74887568Y-98488547D01*
X74739547Y-98636568D01*
X74623247Y-98810623D01*
X74543139Y-99004022D01*
X74502300Y-99209333D01*
X56443413Y-99209333D01*
X56147850Y-98913770D01*
X72040547Y-98913770D01*
X72044737Y-99072700D01*
X72783700Y-99072700D01*
X72783700Y-98332220D01*
X73266300Y-98332220D01*
X73266300Y-99072700D01*
X74005263Y-99072700D01*
X74009453Y-98913770D01*
X74004128Y-98900885D01*
X73904720Y-98717804D01*
X73771504Y-98557635D01*
X73609601Y-98426533D01*
X73425232Y-98329535D01*
X73266300Y-98332220D01*
X72783700Y-98332220D01*
X72624768Y-98329535D01*
X72440399Y-98426533D01*
X72278496Y-98557635D01*
X72145280Y-98717804D01*
X72045872Y-98900885D01*
X72040547Y-98913770D01*
X56147850Y-98913770D01*
X55862280Y-98628200D01*
X61391800Y-98628200D01*
X61391800Y-98869500D01*
X61392044Y-98871978D01*
X61392767Y-98874360D01*
X61393940Y-98876556D01*
X61395520Y-98878480D01*
X61397444Y-98880060D01*
X61399640Y-98881233D01*
X61402022Y-98881956D01*
X61404500Y-98882200D01*
X67818000Y-98882200D01*
X67820212Y-98882006D01*
X67822609Y-98881334D01*
X67824830Y-98880207D01*
X67826787Y-98878669D01*
X69350787Y-97418169D01*
X69352538Y-97416089D01*
X69353718Y-97413896D01*
X69354448Y-97411516D01*
X69354700Y-97409039D01*
X69356997Y-96669333D01*
X71962300Y-96669333D01*
X71962300Y-96878667D01*
X72003139Y-97083978D01*
X72083247Y-97277377D01*
X72199547Y-97451432D01*
X72347568Y-97599453D01*
X72521623Y-97715753D01*
X72715022Y-97795861D01*
X72920333Y-97836700D01*
X73129667Y-97836700D01*
X73334978Y-97795861D01*
X73528377Y-97715753D01*
X73702432Y-97599453D01*
X73850453Y-97451432D01*
X73966753Y-97277377D01*
X74046861Y-97083978D01*
X74087700Y-96878667D01*
X74087700Y-96669333D01*
X74502300Y-96669333D01*
X74502300Y-96878667D01*
X74543139Y-97083978D01*
X74623247Y-97277377D01*
X74739547Y-97451432D01*
X74887568Y-97599453D01*
X75061623Y-97715753D01*
X75255022Y-97795861D01*
X75460333Y-97836700D01*
X75669667Y-97836700D01*
X75874978Y-97795861D01*
X76068377Y-97715753D01*
X76242432Y-97599453D01*
X76390453Y-97451432D01*
X76506753Y-97277377D01*
X76586861Y-97083978D01*
X76627700Y-96878667D01*
X76627700Y-96669333D01*
X76586861Y-96464022D01*
X76506753Y-96270623D01*
X76390453Y-96096568D01*
X76242432Y-95948547D01*
X76068377Y-95832247D01*
X75874978Y-95752139D01*
X75669667Y-95711300D01*
X75460333Y-95711300D01*
X75255022Y-95752139D01*
X75061623Y-95832247D01*
X74887568Y-95948547D01*
X74739547Y-96096568D01*
X74623247Y-96270623D01*
X74543139Y-96464022D01*
X74502300Y-96669333D01*
X74087700Y-96669333D01*
X74046861Y-96464022D01*
X73966753Y-96270623D01*
X73850453Y-96096568D01*
X73702432Y-95948547D01*
X73528377Y-95832247D01*
X73334978Y-95752139D01*
X73129667Y-95711300D01*
X72920333Y-95711300D01*
X72715022Y-95752139D01*
X72521623Y-95832247D01*
X72347568Y-95948547D01*
X72199547Y-96096568D01*
X72083247Y-96270623D01*
X72003139Y-96464022D01*
X71962300Y-96669333D01*
X69356997Y-96669333D01*
X69414590Y-78124230D01*
X72040547Y-78124230D01*
X72045872Y-78137115D01*
X72145280Y-78320196D01*
X72278496Y-78480365D01*
X72440399Y-78611467D01*
X72624768Y-78708465D01*
X72783700Y-78705780D01*
X72783700Y-77965300D01*
X73266300Y-77965300D01*
X73266300Y-78705780D01*
X73425232Y-78708465D01*
X73609601Y-78611467D01*
X73771504Y-78480365D01*
X73904720Y-78320196D01*
X74004128Y-78137115D01*
X74009453Y-78124230D01*
X74580547Y-78124230D01*
X74585872Y-78137115D01*
X74685280Y-78320196D01*
X74818496Y-78480365D01*
X74980399Y-78611467D01*
X75164768Y-78708465D01*
X75323700Y-78705780D01*
X75323700Y-77965300D01*
X75806300Y-77965300D01*
X75806300Y-78705780D01*
X75965232Y-78708465D01*
X76149601Y-78611467D01*
X76311504Y-78480365D01*
X76444720Y-78320196D01*
X76544128Y-78137115D01*
X76549453Y-78124230D01*
X76545263Y-77965300D01*
X75806300Y-77965300D01*
X75323700Y-77965300D01*
X74584737Y-77965300D01*
X74580547Y-78124230D01*
X74009453Y-78124230D01*
X74005263Y-77965300D01*
X73266300Y-77965300D01*
X72783700Y-77965300D01*
X72044737Y-77965300D01*
X72040547Y-78124230D01*
X69414590Y-78124230D01*
X69417076Y-77323770D01*
X72040547Y-77323770D01*
X72044737Y-77482700D01*
X72783700Y-77482700D01*
X72783700Y-76742220D01*
X73266300Y-76742220D01*
X73266300Y-77482700D01*
X74005263Y-77482700D01*
X74009453Y-77323770D01*
X74580547Y-77323770D01*
X74584737Y-77482700D01*
X75323700Y-77482700D01*
X75323700Y-76742220D01*
X75806300Y-76742220D01*
X75806300Y-77482700D01*
X76545263Y-77482700D01*
X76549453Y-77323770D01*
X76544128Y-77310885D01*
X76444720Y-77127804D01*
X76311504Y-76967635D01*
X76149601Y-76836533D01*
X75965232Y-76739535D01*
X75806300Y-76742220D01*
X75323700Y-76742220D01*
X75164768Y-76739535D01*
X74980399Y-76836533D01*
X74818496Y-76967635D01*
X74685280Y-77127804D01*
X74585872Y-77310885D01*
X74580547Y-77323770D01*
X74009453Y-77323770D01*
X74004128Y-77310885D01*
X73904720Y-77127804D01*
X73771504Y-76967635D01*
X73609601Y-76836533D01*
X73425232Y-76739535D01*
X73266300Y-76742220D01*
X72783700Y-76742220D01*
X72624768Y-76739535D01*
X72440399Y-76836533D01*
X72278496Y-76967635D01*
X72145280Y-77127804D01*
X72045872Y-77310885D01*
X72040547Y-77323770D01*
X69417076Y-77323770D01*
X69418186Y-76966614D01*
X70990920Y-75079333D01*
X71962300Y-75079333D01*
X71962300Y-75288667D01*
X72003139Y-75493978D01*
X72083247Y-75687377D01*
X72199547Y-75861432D01*
X72347568Y-76009453D01*
X72521623Y-76125753D01*
X72715022Y-76205861D01*
X72920333Y-76246700D01*
X73129667Y-76246700D01*
X73334978Y-76205861D01*
X73528377Y-76125753D01*
X73702432Y-76009453D01*
X73850453Y-75861432D01*
X73966753Y-75687377D01*
X74046861Y-75493978D01*
X74087700Y-75288667D01*
X74087700Y-75079333D01*
X74502300Y-75079333D01*
X74502300Y-75288667D01*
X74543139Y-75493978D01*
X74623247Y-75687377D01*
X74739547Y-75861432D01*
X74887568Y-76009453D01*
X75061623Y-76125753D01*
X75255022Y-76205861D01*
X75460333Y-76246700D01*
X75669667Y-76246700D01*
X75874978Y-76205861D01*
X76068377Y-76125753D01*
X76242432Y-76009453D01*
X76390453Y-75861432D01*
X76506753Y-75687377D01*
X76586861Y-75493978D01*
X76627700Y-75288667D01*
X76627700Y-75079333D01*
X76586861Y-74874022D01*
X76506753Y-74680623D01*
X76390453Y-74506568D01*
X76242432Y-74358547D01*
X76068377Y-74242247D01*
X75874978Y-74162139D01*
X75669667Y-74121300D01*
X75460333Y-74121300D01*
X75255022Y-74162139D01*
X75061623Y-74242247D01*
X74887568Y-74358547D01*
X74739547Y-74506568D01*
X74623247Y-74680623D01*
X74543139Y-74874022D01*
X74502300Y-75079333D01*
X74087700Y-75079333D01*
X74046861Y-74874022D01*
X73966753Y-74680623D01*
X73850453Y-74506568D01*
X73702432Y-74358547D01*
X73528377Y-74242247D01*
X73334978Y-74162139D01*
X73129667Y-74121300D01*
X72920333Y-74121300D01*
X72715022Y-74162139D01*
X72521623Y-74242247D01*
X72347568Y-74358547D01*
X72199547Y-74506568D01*
X72083247Y-74680623D01*
X72003139Y-74874022D01*
X71962300Y-75079333D01*
X70990920Y-75079333D01*
X77139301Y-67701276D01*
X77139300Y-131143800D01*
G37*
%TD.AperFunction*%
%TD*%
D26*
%TO.N,GND*%
X77139301Y-67215609D02*
X71347431Y-74121300D01*
X69078269Y-76826839D01*
X69077440Y-76827944D01*
X69077177Y-76828436D01*
X69076864Y-76828894D01*
X69076592Y-76829532D01*
X69076267Y-76830140D01*
X69076106Y-76830671D01*
X69075887Y-76831184D01*
X69075745Y-76831860D01*
X69075544Y-76832522D01*
X69075490Y-76833075D01*
X69075375Y-76833620D01*
X69075300Y-76835000D01*
X69075300Y-97276398D01*
X67622574Y-98602800D01*
X55836880Y-98602800D01*
X54322943Y-97088864D01*
X54302349Y-97039145D01*
X54246240Y-96955173D01*
X54174827Y-96883760D01*
X54090855Y-96827651D01*
X53997549Y-96789003D01*
X53898497Y-96769300D01*
X53797503Y-96769300D01*
X53698451Y-96789003D01*
X53605145Y-96827651D01*
X53521173Y-96883760D01*
X53449760Y-96955173D01*
X53393651Y-97039145D01*
X53355003Y-97132451D01*
X53335300Y-97231503D01*
X53335300Y-97332497D01*
X53355003Y-97431549D01*
X53393651Y-97524855D01*
X53449760Y-97608827D01*
X53521173Y-97680240D01*
X53605145Y-97736349D01*
X53698451Y-97774997D01*
X53710029Y-97777300D01*
X51508008Y-97777300D01*
X51439306Y-97720918D01*
X51358924Y-97677953D01*
X51271705Y-97651496D01*
X51203722Y-97644800D01*
X51181000Y-97642562D01*
X51158278Y-97644800D01*
X48070657Y-97644800D01*
X47670703Y-97244847D01*
X47658076Y-97181366D01*
X47615659Y-97078961D01*
X47579700Y-97025145D01*
X47579700Y-94297500D01*
X47920667Y-94297500D01*
X47922300Y-94314078D01*
X47922301Y-95487412D01*
X47920667Y-95504000D01*
X47925414Y-95552187D01*
X47927188Y-95570201D01*
X47934173Y-95593227D01*
X47946498Y-95633857D01*
X47977855Y-95692523D01*
X48006450Y-95727365D01*
X48020056Y-95743945D01*
X48032936Y-95754515D01*
X48390484Y-96112064D01*
X48401055Y-96124945D01*
X48413934Y-96135514D01*
X48452476Y-96167145D01*
X48483834Y-96183906D01*
X48511143Y-96198503D01*
X48574799Y-96217813D01*
X48624419Y-96222700D01*
X48624421Y-96222700D01*
X48640999Y-96224333D01*
X48657577Y-96222700D01*
X52434422Y-96222700D01*
X52451000Y-96224333D01*
X52467578Y-96222700D01*
X52467581Y-96222700D01*
X52517201Y-96217813D01*
X52580857Y-96198503D01*
X52639523Y-96167145D01*
X52690945Y-96124945D01*
X52701520Y-96112059D01*
X53558880Y-95254700D01*
X53644497Y-95254700D01*
X53743549Y-95234997D01*
X53836855Y-95196349D01*
X53920827Y-95140240D01*
X53992240Y-95068827D01*
X54048349Y-94984855D01*
X54086997Y-94891549D01*
X54106700Y-94792497D01*
X54106700Y-94691503D01*
X54086997Y-94592451D01*
X54048349Y-94499145D01*
X53992240Y-94415173D01*
X53920827Y-94343760D01*
X53836855Y-94287651D01*
X53743549Y-94249003D01*
X53644497Y-94229300D01*
X53543503Y-94229300D01*
X53444451Y-94249003D01*
X53351145Y-94287651D01*
X53267173Y-94343760D01*
X53195760Y-94415173D01*
X53139651Y-94499145D01*
X53101003Y-94592451D01*
X53081300Y-94691503D01*
X53081300Y-94777120D01*
X52311121Y-95547300D01*
X52225791Y-95547300D01*
X52301701Y-95496578D01*
X52380078Y-95418201D01*
X52441659Y-95326039D01*
X52484076Y-95223634D01*
X52505700Y-95114921D01*
X52505700Y-95004079D01*
X52484076Y-94895366D01*
X52441659Y-94792961D01*
X52405700Y-94739145D01*
X52405700Y-93917656D01*
X53821654Y-92501703D01*
X53885134Y-92489076D01*
X53987539Y-92446659D01*
X54041355Y-92410700D01*
X60746778Y-92410700D01*
X60769500Y-92412938D01*
X60792222Y-92410700D01*
X60860205Y-92404004D01*
X60947424Y-92377547D01*
X61027806Y-92334582D01*
X61098261Y-92276761D01*
X61112751Y-92259105D01*
X61822653Y-91549203D01*
X61886134Y-91536576D01*
X61988539Y-91494159D01*
X62080701Y-91432578D01*
X62159078Y-91354201D01*
X62220659Y-91262039D01*
X62263076Y-91159634D01*
X62284700Y-91050921D01*
X62284700Y-90940079D01*
X62263076Y-90831366D01*
X62220659Y-90728961D01*
X62159078Y-90636799D01*
X62080701Y-90558422D01*
X61988539Y-90496841D01*
X61886134Y-90454424D01*
X61777421Y-90432800D01*
X61666579Y-90432800D01*
X61557866Y-90454424D01*
X61455461Y-90496841D01*
X61363299Y-90558422D01*
X61284922Y-90636799D01*
X61223341Y-90728961D01*
X61180924Y-90831366D01*
X61168297Y-90894847D01*
X60577844Y-91485300D01*
X54041355Y-91485300D01*
X53987539Y-91449341D01*
X53885134Y-91406924D01*
X53776421Y-91385300D01*
X53665579Y-91385300D01*
X53556866Y-91406924D01*
X53454461Y-91449341D01*
X53362299Y-91510922D01*
X53283922Y-91589299D01*
X53222341Y-91681461D01*
X53179924Y-91783866D01*
X53167297Y-91847346D01*
X51631890Y-93382754D01*
X51614240Y-93397239D01*
X51556419Y-93467694D01*
X51553061Y-93473977D01*
X51513454Y-93548076D01*
X51486996Y-93635296D01*
X51478062Y-93726000D01*
X51480301Y-93748732D01*
X51480300Y-94739144D01*
X51457144Y-94773800D01*
X49263686Y-94773800D01*
X49201355Y-94732151D01*
X49108049Y-94693503D01*
X49008997Y-94673800D01*
X48908003Y-94673800D01*
X48808951Y-94693503D01*
X48715645Y-94732151D01*
X48631673Y-94788260D01*
X48597700Y-94822233D01*
X48597700Y-94437379D01*
X48859880Y-94175200D01*
X48945497Y-94175200D01*
X49044549Y-94155497D01*
X49137855Y-94116849D01*
X49221827Y-94060740D01*
X49293240Y-93989327D01*
X49349349Y-93905355D01*
X49387997Y-93812049D01*
X49407700Y-93712997D01*
X49407700Y-93612003D01*
X49387997Y-93512951D01*
X49349349Y-93419645D01*
X49293240Y-93335673D01*
X49221827Y-93264260D01*
X49137855Y-93208151D01*
X49044549Y-93169503D01*
X48945497Y-93149800D01*
X48844503Y-93149800D01*
X48745451Y-93169503D01*
X48652145Y-93208151D01*
X48568173Y-93264260D01*
X48496760Y-93335673D01*
X48440651Y-93419645D01*
X48402003Y-93512951D01*
X48382300Y-93612003D01*
X48382300Y-93697620D01*
X48032937Y-94046984D01*
X48020055Y-94057556D01*
X48009486Y-94070435D01*
X47977855Y-94108977D01*
X47961094Y-94140335D01*
X47946497Y-94167644D01*
X47927187Y-94231300D01*
X47922300Y-94280919D01*
X47920667Y-94297500D01*
X47579700Y-94297500D01*
X47579700Y-93727156D01*
X49757653Y-91549203D01*
X49821134Y-91536576D01*
X49923539Y-91494159D01*
X50015701Y-91432578D01*
X50094078Y-91354201D01*
X50155659Y-91262039D01*
X50198076Y-91159634D01*
X50219700Y-91050921D01*
X50219700Y-90940079D01*
X50198076Y-90831366D01*
X50155659Y-90728961D01*
X50094078Y-90636799D01*
X50015701Y-90558422D01*
X49923539Y-90496841D01*
X49821134Y-90454424D01*
X49712421Y-90432800D01*
X49601579Y-90432800D01*
X49492866Y-90454424D01*
X49390461Y-90496841D01*
X49298299Y-90558422D01*
X49219922Y-90636799D01*
X49158341Y-90728961D01*
X49115924Y-90831366D01*
X49103297Y-90894847D01*
X46805895Y-93192249D01*
X46788239Y-93206739D01*
X46730418Y-93277195D01*
X46687453Y-93357577D01*
X46667742Y-93422556D01*
X46660996Y-93444796D01*
X46652062Y-93535500D01*
X46654300Y-93558222D01*
X46654301Y-97025143D01*
X46618341Y-97078961D01*
X46575924Y-97181366D01*
X46554300Y-97290079D01*
X46554300Y-97400921D01*
X46575924Y-97509634D01*
X46618341Y-97612039D01*
X46679922Y-97704201D01*
X46753021Y-97777300D01*
X44814700Y-97777300D01*
X44814700Y-85117258D01*
X46263300Y-85117258D01*
X46263300Y-85316742D01*
X46302218Y-85512394D01*
X46378557Y-85696693D01*
X46489385Y-85862559D01*
X46630441Y-86003615D01*
X46796307Y-86114443D01*
X46980606Y-86190782D01*
X47176258Y-86229700D01*
X47375742Y-86229700D01*
X47571394Y-86190782D01*
X47755693Y-86114443D01*
X47921559Y-86003615D01*
X48062615Y-85862559D01*
X48173443Y-85696693D01*
X48249782Y-85512394D01*
X48262271Y-85449608D01*
X48262271Y-86017000D01*
X48266378Y-86058696D01*
X48278540Y-86098791D01*
X48298291Y-86135741D01*
X48324871Y-86168129D01*
X48357259Y-86194709D01*
X48394209Y-86214460D01*
X48434304Y-86226622D01*
X48476000Y-86230729D01*
X50076000Y-86230729D01*
X50117696Y-86226622D01*
X50157791Y-86214460D01*
X50194741Y-86194709D01*
X50227129Y-86168129D01*
X50253709Y-86135741D01*
X50273460Y-86098791D01*
X50285622Y-86058696D01*
X50289729Y-86017000D01*
X50289729Y-85117258D01*
X52041800Y-85117258D01*
X52041800Y-85316742D01*
X52080718Y-85512394D01*
X52157057Y-85696693D01*
X52267885Y-85862559D01*
X52408941Y-86003615D01*
X52574807Y-86114443D01*
X52759106Y-86190782D01*
X52954758Y-86229700D01*
X53154242Y-86229700D01*
X53349894Y-86190782D01*
X53534193Y-86114443D01*
X53700059Y-86003615D01*
X53841115Y-85862559D01*
X53951943Y-85696693D01*
X54028282Y-85512394D01*
X54040771Y-85449608D01*
X54040771Y-86017000D01*
X54044878Y-86058696D01*
X54057040Y-86098791D01*
X54076791Y-86135741D01*
X54103371Y-86168129D01*
X54135759Y-86194709D01*
X54172709Y-86214460D01*
X54212804Y-86226622D01*
X54254500Y-86230729D01*
X55854500Y-86230729D01*
X55896196Y-86226622D01*
X55936291Y-86214460D01*
X55973241Y-86194709D01*
X56005629Y-86168129D01*
X56032209Y-86135741D01*
X56051960Y-86098791D01*
X56064122Y-86058696D01*
X56068229Y-86017000D01*
X56068229Y-85117258D01*
X57820300Y-85117258D01*
X57820300Y-85316742D01*
X57859218Y-85512394D01*
X57935557Y-85696693D01*
X58046385Y-85862559D01*
X58187441Y-86003615D01*
X58353307Y-86114443D01*
X58537606Y-86190782D01*
X58733258Y-86229700D01*
X58932742Y-86229700D01*
X59128394Y-86190782D01*
X59312693Y-86114443D01*
X59478559Y-86003615D01*
X59619615Y-85862559D01*
X59730443Y-85696693D01*
X59806782Y-85512394D01*
X59819271Y-85449608D01*
X59819271Y-86017000D01*
X59823378Y-86058696D01*
X59835540Y-86098791D01*
X59855291Y-86135741D01*
X59881871Y-86168129D01*
X59914259Y-86194709D01*
X59951209Y-86214460D01*
X59991304Y-86226622D01*
X60033000Y-86230729D01*
X61633000Y-86230729D01*
X61674696Y-86226622D01*
X61714791Y-86214460D01*
X61751741Y-86194709D01*
X61784129Y-86168129D01*
X61810709Y-86135741D01*
X61830460Y-86098791D01*
X61842622Y-86058696D01*
X61846729Y-86017000D01*
X61846729Y-85117258D01*
X63725800Y-85117258D01*
X63725800Y-85316742D01*
X63764718Y-85512394D01*
X63841057Y-85696693D01*
X63951885Y-85862559D01*
X64092941Y-86003615D01*
X64258807Y-86114443D01*
X64443106Y-86190782D01*
X64638758Y-86229700D01*
X64838242Y-86229700D01*
X65033894Y-86190782D01*
X65218193Y-86114443D01*
X65384059Y-86003615D01*
X65525115Y-85862559D01*
X65635943Y-85696693D01*
X65712282Y-85512394D01*
X65724771Y-85449608D01*
X65724771Y-86017000D01*
X65728878Y-86058696D01*
X65741040Y-86098791D01*
X65760791Y-86135741D01*
X65787371Y-86168129D01*
X65819759Y-86194709D01*
X65856709Y-86214460D01*
X65896804Y-86226622D01*
X65938500Y-86230729D01*
X67538500Y-86230729D01*
X67580196Y-86226622D01*
X67620291Y-86214460D01*
X67657241Y-86194709D01*
X67689629Y-86168129D01*
X67716209Y-86135741D01*
X67735960Y-86098791D01*
X67748122Y-86058696D01*
X67752229Y-86017000D01*
X67752229Y-84417000D01*
X67748122Y-84375304D01*
X67735960Y-84335209D01*
X67716209Y-84298259D01*
X67689629Y-84265871D01*
X67657241Y-84239291D01*
X67620291Y-84219540D01*
X67580196Y-84207378D01*
X67538500Y-84203271D01*
X65938500Y-84203271D01*
X65896804Y-84207378D01*
X65856709Y-84219540D01*
X65819759Y-84239291D01*
X65787371Y-84265871D01*
X65760791Y-84298259D01*
X65741040Y-84335209D01*
X65728878Y-84375304D01*
X65724771Y-84417000D01*
X65724771Y-84984392D01*
X65712282Y-84921606D01*
X65635943Y-84737307D01*
X65525115Y-84571441D01*
X65384059Y-84430385D01*
X65218193Y-84319557D01*
X65033894Y-84243218D01*
X64838242Y-84204300D01*
X64638758Y-84204300D01*
X64443106Y-84243218D01*
X64258807Y-84319557D01*
X64092941Y-84430385D01*
X63951885Y-84571441D01*
X63841057Y-84737307D01*
X63764718Y-84921606D01*
X63725800Y-85117258D01*
X61846729Y-85117258D01*
X61846729Y-84417000D01*
X61842622Y-84375304D01*
X61830460Y-84335209D01*
X61810709Y-84298259D01*
X61784129Y-84265871D01*
X61751741Y-84239291D01*
X61714791Y-84219540D01*
X61674696Y-84207378D01*
X61633000Y-84203271D01*
X60033000Y-84203271D01*
X59991304Y-84207378D01*
X59951209Y-84219540D01*
X59914259Y-84239291D01*
X59881871Y-84265871D01*
X59855291Y-84298259D01*
X59835540Y-84335209D01*
X59823378Y-84375304D01*
X59819271Y-84417000D01*
X59819271Y-84984392D01*
X59806782Y-84921606D01*
X59730443Y-84737307D01*
X59619615Y-84571441D01*
X59478559Y-84430385D01*
X59312693Y-84319557D01*
X59128394Y-84243218D01*
X58932742Y-84204300D01*
X58733258Y-84204300D01*
X58537606Y-84243218D01*
X58353307Y-84319557D01*
X58187441Y-84430385D01*
X58046385Y-84571441D01*
X57935557Y-84737307D01*
X57859218Y-84921606D01*
X57820300Y-85117258D01*
X56068229Y-85117258D01*
X56068229Y-84417000D01*
X56064122Y-84375304D01*
X56051960Y-84335209D01*
X56032209Y-84298259D01*
X56005629Y-84265871D01*
X55973241Y-84239291D01*
X55936291Y-84219540D01*
X55896196Y-84207378D01*
X55854500Y-84203271D01*
X54254500Y-84203271D01*
X54212804Y-84207378D01*
X54172709Y-84219540D01*
X54135759Y-84239291D01*
X54103371Y-84265871D01*
X54076791Y-84298259D01*
X54057040Y-84335209D01*
X54044878Y-84375304D01*
X54040771Y-84417000D01*
X54040771Y-84984392D01*
X54028282Y-84921606D01*
X53951943Y-84737307D01*
X53841115Y-84571441D01*
X53700059Y-84430385D01*
X53534193Y-84319557D01*
X53349894Y-84243218D01*
X53154242Y-84204300D01*
X52954758Y-84204300D01*
X52759106Y-84243218D01*
X52574807Y-84319557D01*
X52408941Y-84430385D01*
X52267885Y-84571441D01*
X52157057Y-84737307D01*
X52080718Y-84921606D01*
X52041800Y-85117258D01*
X50289729Y-85117258D01*
X50289729Y-84417000D01*
X50285622Y-84375304D01*
X50273460Y-84335209D01*
X50253709Y-84298259D01*
X50227129Y-84265871D01*
X50194741Y-84239291D01*
X50157791Y-84219540D01*
X50117696Y-84207378D01*
X50076000Y-84203271D01*
X48476000Y-84203271D01*
X48434304Y-84207378D01*
X48394209Y-84219540D01*
X48357259Y-84239291D01*
X48324871Y-84265871D01*
X48298291Y-84298259D01*
X48278540Y-84335209D01*
X48266378Y-84375304D01*
X48262271Y-84417000D01*
X48262271Y-84984392D01*
X48249782Y-84921606D01*
X48173443Y-84737307D01*
X48062615Y-84571441D01*
X47921559Y-84430385D01*
X47755693Y-84319557D01*
X47571394Y-84243218D01*
X47375742Y-84204300D01*
X47176258Y-84204300D01*
X46980606Y-84243218D01*
X46796307Y-84319557D01*
X46630441Y-84430385D01*
X46489385Y-84571441D01*
X46378557Y-84737307D01*
X46302218Y-84921606D01*
X46263300Y-85117258D01*
X44814700Y-85117258D01*
X44814700Y-79338758D01*
X46199800Y-79338758D01*
X46199800Y-79538242D01*
X46238718Y-79733894D01*
X46315057Y-79918193D01*
X46425885Y-80084059D01*
X46566941Y-80225115D01*
X46732807Y-80335943D01*
X46917106Y-80412282D01*
X47112758Y-80451200D01*
X47312242Y-80451200D01*
X47507894Y-80412282D01*
X47692193Y-80335943D01*
X47858059Y-80225115D01*
X47999115Y-80084059D01*
X48109943Y-79918193D01*
X48186282Y-79733894D01*
X48198771Y-79671108D01*
X48198771Y-80238500D01*
X48202878Y-80280196D01*
X48215040Y-80320291D01*
X48234791Y-80357241D01*
X48261371Y-80389629D01*
X48293759Y-80416209D01*
X48330709Y-80435960D01*
X48370804Y-80448122D01*
X48412500Y-80452229D01*
X50012500Y-80452229D01*
X50054196Y-80448122D01*
X50094291Y-80435960D01*
X50131241Y-80416209D01*
X50163629Y-80389629D01*
X50190209Y-80357241D01*
X50209960Y-80320291D01*
X50222122Y-80280196D01*
X50226229Y-80238500D01*
X50226229Y-79338758D01*
X51978300Y-79338758D01*
X51978300Y-79538242D01*
X52017218Y-79733894D01*
X52093557Y-79918193D01*
X52204385Y-80084059D01*
X52345441Y-80225115D01*
X52511307Y-80335943D01*
X52695606Y-80412282D01*
X52891258Y-80451200D01*
X53090742Y-80451200D01*
X53286394Y-80412282D01*
X53470693Y-80335943D01*
X53636559Y-80225115D01*
X53777615Y-80084059D01*
X53888443Y-79918193D01*
X53964782Y-79733894D01*
X53977271Y-79671108D01*
X53977271Y-80238500D01*
X53981378Y-80280196D01*
X53993540Y-80320291D01*
X54013291Y-80357241D01*
X54039871Y-80389629D01*
X54072259Y-80416209D01*
X54109209Y-80435960D01*
X54149304Y-80448122D01*
X54191000Y-80452229D01*
X55791000Y-80452229D01*
X55832696Y-80448122D01*
X55872791Y-80435960D01*
X55909741Y-80416209D01*
X55942129Y-80389629D01*
X55968709Y-80357241D01*
X55988460Y-80320291D01*
X56000622Y-80280196D01*
X56004729Y-80238500D01*
X56004729Y-79338758D01*
X57820300Y-79338758D01*
X57820300Y-79538242D01*
X57859218Y-79733894D01*
X57935557Y-79918193D01*
X58046385Y-80084059D01*
X58187441Y-80225115D01*
X58353307Y-80335943D01*
X58537606Y-80412282D01*
X58733258Y-80451200D01*
X58932742Y-80451200D01*
X59128394Y-80412282D01*
X59312693Y-80335943D01*
X59478559Y-80225115D01*
X59619615Y-80084059D01*
X59730443Y-79918193D01*
X59806782Y-79733894D01*
X59819271Y-79671108D01*
X59819271Y-80238500D01*
X59823378Y-80280196D01*
X59835540Y-80320291D01*
X59855291Y-80357241D01*
X59881871Y-80389629D01*
X59914259Y-80416209D01*
X59951209Y-80435960D01*
X59991304Y-80448122D01*
X60033000Y-80452229D01*
X61633000Y-80452229D01*
X61674696Y-80448122D01*
X61714791Y-80435960D01*
X61751741Y-80416209D01*
X61784129Y-80389629D01*
X61810709Y-80357241D01*
X61830460Y-80320291D01*
X61842622Y-80280196D01*
X61846729Y-80238500D01*
X61846729Y-79338758D01*
X63725800Y-79338758D01*
X63725800Y-79538242D01*
X63764718Y-79733894D01*
X63841057Y-79918193D01*
X63951885Y-80084059D01*
X64092941Y-80225115D01*
X64258807Y-80335943D01*
X64443106Y-80412282D01*
X64638758Y-80451200D01*
X64838242Y-80451200D01*
X65033894Y-80412282D01*
X65218193Y-80335943D01*
X65384059Y-80225115D01*
X65525115Y-80084059D01*
X65635943Y-79918193D01*
X65712282Y-79733894D01*
X65724771Y-79671108D01*
X65724771Y-80238500D01*
X65728878Y-80280196D01*
X65741040Y-80320291D01*
X65760791Y-80357241D01*
X65787371Y-80389629D01*
X65819759Y-80416209D01*
X65856709Y-80435960D01*
X65896804Y-80448122D01*
X65938500Y-80452229D01*
X67538500Y-80452229D01*
X67580196Y-80448122D01*
X67620291Y-80435960D01*
X67657241Y-80416209D01*
X67689629Y-80389629D01*
X67716209Y-80357241D01*
X67735960Y-80320291D01*
X67748122Y-80280196D01*
X67752229Y-80238500D01*
X67752229Y-78638500D01*
X67748122Y-78596804D01*
X67735960Y-78556709D01*
X67716209Y-78519759D01*
X67689629Y-78487371D01*
X67657241Y-78460791D01*
X67620291Y-78441040D01*
X67580196Y-78428878D01*
X67538500Y-78424771D01*
X65938500Y-78424771D01*
X65896804Y-78428878D01*
X65856709Y-78441040D01*
X65819759Y-78460791D01*
X65787371Y-78487371D01*
X65760791Y-78519759D01*
X65741040Y-78556709D01*
X65728878Y-78596804D01*
X65724771Y-78638500D01*
X65724771Y-79205892D01*
X65712282Y-79143106D01*
X65635943Y-78958807D01*
X65525115Y-78792941D01*
X65384059Y-78651885D01*
X65218193Y-78541057D01*
X65033894Y-78464718D01*
X64838242Y-78425800D01*
X64638758Y-78425800D01*
X64443106Y-78464718D01*
X64258807Y-78541057D01*
X64092941Y-78651885D01*
X63951885Y-78792941D01*
X63841057Y-78958807D01*
X63764718Y-79143106D01*
X63725800Y-79338758D01*
X61846729Y-79338758D01*
X61846729Y-78638500D01*
X61842622Y-78596804D01*
X61830460Y-78556709D01*
X61810709Y-78519759D01*
X61784129Y-78487371D01*
X61751741Y-78460791D01*
X61714791Y-78441040D01*
X61674696Y-78428878D01*
X61633000Y-78424771D01*
X60033000Y-78424771D01*
X59991304Y-78428878D01*
X59951209Y-78441040D01*
X59914259Y-78460791D01*
X59881871Y-78487371D01*
X59855291Y-78519759D01*
X59835540Y-78556709D01*
X59823378Y-78596804D01*
X59819271Y-78638500D01*
X59819271Y-79205892D01*
X59806782Y-79143106D01*
X59730443Y-78958807D01*
X59619615Y-78792941D01*
X59478559Y-78651885D01*
X59312693Y-78541057D01*
X59128394Y-78464718D01*
X58932742Y-78425800D01*
X58733258Y-78425800D01*
X58537606Y-78464718D01*
X58353307Y-78541057D01*
X58187441Y-78651885D01*
X58046385Y-78792941D01*
X57935557Y-78958807D01*
X57859218Y-79143106D01*
X57820300Y-79338758D01*
X56004729Y-79338758D01*
X56004729Y-78638500D01*
X56000622Y-78596804D01*
X55988460Y-78556709D01*
X55968709Y-78519759D01*
X55942129Y-78487371D01*
X55909741Y-78460791D01*
X55872791Y-78441040D01*
X55832696Y-78428878D01*
X55791000Y-78424771D01*
X54191000Y-78424771D01*
X54149304Y-78428878D01*
X54109209Y-78441040D01*
X54072259Y-78460791D01*
X54039871Y-78487371D01*
X54013291Y-78519759D01*
X53993540Y-78556709D01*
X53981378Y-78596804D01*
X53977271Y-78638500D01*
X53977271Y-79205892D01*
X53964782Y-79143106D01*
X53888443Y-78958807D01*
X53777615Y-78792941D01*
X53636559Y-78651885D01*
X53470693Y-78541057D01*
X53286394Y-78464718D01*
X53090742Y-78425800D01*
X52891258Y-78425800D01*
X52695606Y-78464718D01*
X52511307Y-78541057D01*
X52345441Y-78651885D01*
X52204385Y-78792941D01*
X52093557Y-78958807D01*
X52017218Y-79143106D01*
X51978300Y-79338758D01*
X50226229Y-79338758D01*
X50226229Y-78638500D01*
X50222122Y-78596804D01*
X50209960Y-78556709D01*
X50190209Y-78519759D01*
X50163629Y-78487371D01*
X50131241Y-78460791D01*
X50094291Y-78441040D01*
X50054196Y-78428878D01*
X50012500Y-78424771D01*
X48412500Y-78424771D01*
X48370804Y-78428878D01*
X48330709Y-78441040D01*
X48293759Y-78460791D01*
X48261371Y-78487371D01*
X48234791Y-78519759D01*
X48215040Y-78556709D01*
X48202878Y-78596804D01*
X48198771Y-78638500D01*
X48198771Y-79205892D01*
X48186282Y-79143106D01*
X48109943Y-78958807D01*
X47999115Y-78792941D01*
X47858059Y-78651885D01*
X47692193Y-78541057D01*
X47507894Y-78464718D01*
X47312242Y-78425800D01*
X47112758Y-78425800D01*
X46917106Y-78464718D01*
X46732807Y-78541057D01*
X46566941Y-78651885D01*
X46425885Y-78792941D01*
X46315057Y-78958807D01*
X46238718Y-79143106D01*
X46199800Y-79338758D01*
X44814700Y-79338758D01*
X44814700Y-69985079D01*
X48395800Y-69985079D01*
X48395800Y-70095921D01*
X48417424Y-70204634D01*
X48459841Y-70307039D01*
X48521422Y-70399201D01*
X48599799Y-70477578D01*
X48691961Y-70539159D01*
X48794366Y-70581576D01*
X48903079Y-70603200D01*
X49013921Y-70603200D01*
X49122634Y-70581576D01*
X49225039Y-70539159D01*
X49317201Y-70477578D01*
X49395578Y-70399201D01*
X49457159Y-70307039D01*
X49499576Y-70204634D01*
X49521200Y-70095921D01*
X49521200Y-69990734D01*
X49526855Y-69985079D01*
X54364800Y-69985079D01*
X54364800Y-70095921D01*
X54386424Y-70204634D01*
X54428841Y-70307039D01*
X54490422Y-70399201D01*
X54568799Y-70477578D01*
X54660961Y-70539159D01*
X54763366Y-70581576D01*
X54872079Y-70603200D01*
X54982921Y-70603200D01*
X55091634Y-70581576D01*
X55194039Y-70539159D01*
X55286201Y-70477578D01*
X55364578Y-70399201D01*
X55426159Y-70307039D01*
X55468576Y-70204634D01*
X55490200Y-70095921D01*
X55490200Y-69985079D01*
X60270300Y-69985079D01*
X60270300Y-70095921D01*
X60291924Y-70204634D01*
X60334341Y-70307039D01*
X60395922Y-70399201D01*
X60474299Y-70477578D01*
X60566461Y-70539159D01*
X60668866Y-70581576D01*
X60777579Y-70603200D01*
X60888421Y-70603200D01*
X60997134Y-70581576D01*
X61099539Y-70539159D01*
X61191701Y-70477578D01*
X61270078Y-70399201D01*
X61331659Y-70307039D01*
X61374076Y-70204634D01*
X61395700Y-70095921D01*
X61395700Y-69990735D01*
X61521377Y-69865058D01*
X61535207Y-69853708D01*
X61580532Y-69798480D01*
X61614212Y-69735471D01*
X61634951Y-69667101D01*
X61640200Y-69613808D01*
X61640200Y-69613807D01*
X61641954Y-69596000D01*
X61640200Y-69578192D01*
X61640200Y-54747019D01*
X61642259Y-54748709D01*
X61679209Y-54768460D01*
X61719304Y-54780622D01*
X61761000Y-54784729D01*
X62248301Y-54784729D01*
X62248300Y-65768194D01*
X62246546Y-65786000D01*
X62248300Y-65803806D01*
X62248300Y-65803807D01*
X62253549Y-65857100D01*
X62266723Y-65900530D01*
X62274288Y-65925470D01*
X62307968Y-65988480D01*
X62328814Y-66013881D01*
X62353292Y-66043707D01*
X62367128Y-66055062D01*
X66248897Y-69936832D01*
X66239300Y-69985079D01*
X66239300Y-70095921D01*
X66260924Y-70204634D01*
X66303341Y-70307039D01*
X66364922Y-70399201D01*
X66443299Y-70477578D01*
X66535461Y-70539159D01*
X66637866Y-70581576D01*
X66746579Y-70603200D01*
X66857421Y-70603200D01*
X66966134Y-70581576D01*
X67068539Y-70539159D01*
X67160701Y-70477578D01*
X67239078Y-70399201D01*
X67300659Y-70307039D01*
X67343076Y-70204634D01*
X67364700Y-70095921D01*
X67364700Y-69985079D01*
X67343076Y-69876366D01*
X67300659Y-69773961D01*
X67239078Y-69681799D01*
X67160701Y-69603422D01*
X67068539Y-69541841D01*
X66966134Y-69499424D01*
X66857421Y-69477800D01*
X66815735Y-69477800D01*
X62973700Y-65635766D01*
X62973700Y-59733000D01*
X66981623Y-59733000D01*
X67000288Y-59922506D01*
X67055565Y-60104730D01*
X67145330Y-60272668D01*
X67266133Y-60419867D01*
X67413332Y-60540670D01*
X67581270Y-60630435D01*
X67763494Y-60685712D01*
X67905514Y-60699700D01*
X69508486Y-60699700D01*
X69650506Y-60685712D01*
X69832730Y-60630435D01*
X70000668Y-60540670D01*
X70147867Y-60419867D01*
X70268670Y-60272668D01*
X70358435Y-60104730D01*
X70413712Y-59922506D01*
X70432377Y-59733000D01*
X70413712Y-59543494D01*
X70358435Y-59361270D01*
X70268670Y-59193332D01*
X70147867Y-59046133D01*
X70000668Y-58925330D01*
X69832730Y-58835565D01*
X69650506Y-58780288D01*
X69508486Y-58766300D01*
X67905514Y-58766300D01*
X67763494Y-58780288D01*
X67581270Y-58835565D01*
X67413332Y-58925330D01*
X67266133Y-59046133D01*
X67145330Y-59193332D01*
X67055565Y-59361270D01*
X67000288Y-59543494D01*
X66981623Y-59733000D01*
X62973700Y-59733000D01*
X62973700Y-54784729D01*
X63461000Y-54784729D01*
X63502696Y-54780622D01*
X63542791Y-54768460D01*
X63579741Y-54748709D01*
X63612129Y-54722129D01*
X63638709Y-54689741D01*
X63658460Y-54652791D01*
X63670622Y-54612696D01*
X63674729Y-54571000D01*
X63674729Y-54233000D01*
X66981623Y-54233000D01*
X67000288Y-54422506D01*
X67055565Y-54604730D01*
X67145330Y-54772668D01*
X67266133Y-54919867D01*
X67413332Y-55040670D01*
X67581270Y-55130435D01*
X67763494Y-55185712D01*
X67905514Y-55199700D01*
X69461282Y-55199700D01*
X69413332Y-55225330D01*
X69266133Y-55346133D01*
X69145330Y-55493332D01*
X69055565Y-55661270D01*
X69000288Y-55843494D01*
X68981623Y-56033000D01*
X69000288Y-56222506D01*
X69055565Y-56404730D01*
X69145330Y-56572668D01*
X69266133Y-56719867D01*
X69413332Y-56840670D01*
X69581270Y-56930435D01*
X69763494Y-56985712D01*
X69905514Y-56999700D01*
X71508486Y-56999700D01*
X71650506Y-56985712D01*
X71832730Y-56930435D01*
X72000668Y-56840670D01*
X72147867Y-56719867D01*
X72268670Y-56572668D01*
X72358435Y-56404730D01*
X72413712Y-56222506D01*
X72432377Y-56033000D01*
X72413712Y-55843494D01*
X72358435Y-55661270D01*
X72268670Y-55493332D01*
X72147867Y-55346133D01*
X72000668Y-55225330D01*
X71832730Y-55135565D01*
X71650506Y-55080288D01*
X71508486Y-55066300D01*
X69952718Y-55066300D01*
X70000668Y-55040670D01*
X70147867Y-54919867D01*
X70268670Y-54772668D01*
X70358435Y-54604730D01*
X70413712Y-54422506D01*
X70432377Y-54233000D01*
X70413712Y-54043494D01*
X70358435Y-53861270D01*
X70268670Y-53693332D01*
X70147867Y-53546133D01*
X70000668Y-53425330D01*
X69832730Y-53335565D01*
X69650506Y-53280288D01*
X69508486Y-53266300D01*
X67905514Y-53266300D01*
X67763494Y-53280288D01*
X67581270Y-53335565D01*
X67413332Y-53425330D01*
X67266133Y-53546133D01*
X67145330Y-53693332D01*
X67055565Y-53861270D01*
X67000288Y-54043494D01*
X66981623Y-54233000D01*
X63674729Y-54233000D01*
X63674729Y-52871000D01*
X63670622Y-52829304D01*
X63658460Y-52789209D01*
X63638709Y-52752259D01*
X63612129Y-52719871D01*
X63579741Y-52693291D01*
X63542791Y-52673540D01*
X63502696Y-52661378D01*
X63461000Y-52657271D01*
X61761000Y-52657271D01*
X61719304Y-52661378D01*
X61679209Y-52673540D01*
X61642259Y-52693291D01*
X61640200Y-52694981D01*
X61640200Y-52664734D01*
X62060205Y-52244729D01*
X63461000Y-52244729D01*
X63502696Y-52240622D01*
X63542791Y-52228460D01*
X63579741Y-52208709D01*
X63612129Y-52182129D01*
X63638709Y-52149741D01*
X63658460Y-52112791D01*
X63670622Y-52072696D01*
X63674729Y-52031000D01*
X63674729Y-50533000D01*
X68981623Y-50533000D01*
X69000288Y-50722506D01*
X69055565Y-50904730D01*
X69145330Y-51072668D01*
X69266133Y-51219867D01*
X69413332Y-51340670D01*
X69581270Y-51430435D01*
X69763494Y-51485712D01*
X69905514Y-51499700D01*
X71508486Y-51499700D01*
X71650506Y-51485712D01*
X71832730Y-51430435D01*
X72000668Y-51340670D01*
X72147867Y-51219867D01*
X72268670Y-51072668D01*
X72358435Y-50904730D01*
X72413712Y-50722506D01*
X72432377Y-50533000D01*
X72413712Y-50343494D01*
X72358435Y-50161270D01*
X72268670Y-49993332D01*
X72147867Y-49846133D01*
X72000668Y-49725330D01*
X71832730Y-49635565D01*
X71650506Y-49580288D01*
X71508486Y-49566300D01*
X69905514Y-49566300D01*
X69763494Y-49580288D01*
X69581270Y-49635565D01*
X69413332Y-49725330D01*
X69266133Y-49846133D01*
X69145330Y-49993332D01*
X69055565Y-50161270D01*
X69000288Y-50343494D01*
X68981623Y-50533000D01*
X63674729Y-50533000D01*
X63674729Y-50331000D01*
X63670622Y-50289304D01*
X63658460Y-50249209D01*
X63638709Y-50212259D01*
X63612129Y-50179871D01*
X63579741Y-50153291D01*
X63542791Y-50133540D01*
X63502696Y-50121378D01*
X63461000Y-50117271D01*
X61761000Y-50117271D01*
X61719304Y-50121378D01*
X61679209Y-50133540D01*
X61642259Y-50153291D01*
X61609871Y-50179871D01*
X61583291Y-50212259D01*
X61563540Y-50249209D01*
X61551378Y-50289304D01*
X61547271Y-50331000D01*
X61547271Y-51731795D01*
X61033628Y-52245438D01*
X61019793Y-52256792D01*
X61008441Y-52270625D01*
X60974468Y-52312020D01*
X60940788Y-52375030D01*
X60920050Y-52443399D01*
X60913046Y-52514500D01*
X60914801Y-52532316D01*
X60914801Y-53082474D01*
X60827365Y-52974496D01*
X60667196Y-52841280D01*
X60484115Y-52741872D01*
X60471230Y-52736547D01*
X60312300Y-52740737D01*
X60312300Y-53479700D01*
X60332300Y-53479700D01*
X60332300Y-53962300D01*
X60312300Y-53962300D01*
X60312300Y-54701263D01*
X60471230Y-54705453D01*
X60484115Y-54700128D01*
X60667196Y-54600720D01*
X60827365Y-54467504D01*
X60914801Y-54359526D01*
X60914800Y-69445765D01*
X60882765Y-69477800D01*
X60777579Y-69477800D01*
X60668866Y-69499424D01*
X60566461Y-69541841D01*
X60474299Y-69603422D01*
X60395922Y-69681799D01*
X60334341Y-69773961D01*
X60291924Y-69876366D01*
X60270300Y-69985079D01*
X55490200Y-69985079D01*
X55470068Y-69883866D01*
X59044878Y-66309057D01*
X59058707Y-66297708D01*
X59104032Y-66242480D01*
X59137712Y-66179471D01*
X59158451Y-66111101D01*
X59163700Y-66057808D01*
X59163700Y-66057799D01*
X59165453Y-66040001D01*
X59163700Y-66022203D01*
X59163700Y-54267903D01*
X59183533Y-54305601D01*
X59314635Y-54467504D01*
X59474804Y-54600720D01*
X59657885Y-54700128D01*
X59670770Y-54705453D01*
X59829700Y-54701263D01*
X59829700Y-53962300D01*
X59809700Y-53962300D01*
X59809700Y-53479700D01*
X59829700Y-53479700D01*
X59829700Y-52740737D01*
X59670770Y-52736547D01*
X59657885Y-52741872D01*
X59474804Y-52841280D01*
X59314635Y-52974496D01*
X59183533Y-53136399D01*
X59163700Y-53174097D01*
X59163700Y-51727903D01*
X59183533Y-51765601D01*
X59314635Y-51927504D01*
X59474804Y-52060720D01*
X59657885Y-52160128D01*
X59670770Y-52165453D01*
X59829700Y-52161263D01*
X59829700Y-51422300D01*
X60312300Y-51422300D01*
X60312300Y-52161263D01*
X60471230Y-52165453D01*
X60484115Y-52160128D01*
X60667196Y-52060720D01*
X60827365Y-51927504D01*
X60958467Y-51765601D01*
X61055465Y-51581232D01*
X61052780Y-51422300D01*
X60312300Y-51422300D01*
X59829700Y-51422300D01*
X59809700Y-51422300D01*
X59809700Y-50939700D01*
X59829700Y-50939700D01*
X59829700Y-50919700D01*
X60312300Y-50919700D01*
X60312300Y-50939700D01*
X61052780Y-50939700D01*
X61055465Y-50780768D01*
X60958467Y-50596399D01*
X60827365Y-50434496D01*
X60667196Y-50301280D01*
X60616402Y-50273700D01*
X61323194Y-50273700D01*
X61341000Y-50275454D01*
X61358806Y-50273700D01*
X61358808Y-50273700D01*
X61412101Y-50268451D01*
X61480471Y-50247712D01*
X61543480Y-50214032D01*
X61598708Y-50168708D01*
X61610066Y-50154868D01*
X62060205Y-49704729D01*
X63461000Y-49704729D01*
X63502696Y-49700622D01*
X63542791Y-49688460D01*
X63579741Y-49668709D01*
X63612129Y-49642129D01*
X63638709Y-49609741D01*
X63658460Y-49572791D01*
X63670622Y-49532696D01*
X63674729Y-49491000D01*
X63674729Y-48517767D01*
X67066173Y-48517767D01*
X67098815Y-48645936D01*
X67215297Y-48802723D01*
X67360128Y-48933773D01*
X67527743Y-49034050D01*
X67711700Y-49099700D01*
X68465700Y-49099700D01*
X68465700Y-48374300D01*
X68948300Y-48374300D01*
X68948300Y-49099700D01*
X69702300Y-49099700D01*
X69886257Y-49034050D01*
X70053872Y-48933773D01*
X70198703Y-48802723D01*
X70315185Y-48645936D01*
X70347827Y-48517767D01*
X70342080Y-48374300D01*
X68948300Y-48374300D01*
X68465700Y-48374300D01*
X67071920Y-48374300D01*
X67066173Y-48517767D01*
X63674729Y-48517767D01*
X63674729Y-47791000D01*
X63670622Y-47749304D01*
X63670298Y-47748233D01*
X67066173Y-47748233D01*
X67071920Y-47891700D01*
X68465700Y-47891700D01*
X68465700Y-47166300D01*
X68948300Y-47166300D01*
X68948300Y-47891700D01*
X70342080Y-47891700D01*
X70347827Y-47748233D01*
X70315185Y-47620064D01*
X70198703Y-47463277D01*
X70053872Y-47332227D01*
X69886257Y-47231950D01*
X69702300Y-47166300D01*
X68948300Y-47166300D01*
X68465700Y-47166300D01*
X67711700Y-47166300D01*
X67527743Y-47231950D01*
X67360128Y-47332227D01*
X67215297Y-47463277D01*
X67098815Y-47620064D01*
X67066173Y-47748233D01*
X63670298Y-47748233D01*
X63658460Y-47709209D01*
X63638709Y-47672259D01*
X63612129Y-47639871D01*
X63579741Y-47613291D01*
X63542791Y-47593540D01*
X63502696Y-47581378D01*
X63461000Y-47577271D01*
X61761000Y-47577271D01*
X61719304Y-47581378D01*
X61679209Y-47593540D01*
X61642259Y-47613291D01*
X61609871Y-47639871D01*
X61583291Y-47672259D01*
X61563540Y-47709209D01*
X61551378Y-47749304D01*
X61547271Y-47791000D01*
X61547271Y-49191795D01*
X61190766Y-49548300D01*
X60616402Y-49548300D01*
X60667196Y-49520720D01*
X60827365Y-49387504D01*
X60958467Y-49225601D01*
X61055465Y-49041232D01*
X61052780Y-48882300D01*
X60312300Y-48882300D01*
X60312300Y-48902300D01*
X59829700Y-48902300D01*
X59829700Y-48882300D01*
X59089220Y-48882300D01*
X59086535Y-49041232D01*
X59183533Y-49225601D01*
X59314635Y-49387504D01*
X59474804Y-49520720D01*
X59525598Y-49548300D01*
X59453808Y-49548300D01*
X59436000Y-49546546D01*
X59364899Y-49553549D01*
X59296529Y-49574288D01*
X59233520Y-49607968D01*
X59192124Y-49641940D01*
X59192121Y-49641943D01*
X59178292Y-49653292D01*
X59166942Y-49667122D01*
X58557127Y-50276938D01*
X58543293Y-50288292D01*
X58531941Y-50302125D01*
X58497968Y-50343520D01*
X58464288Y-50406530D01*
X58443550Y-50474899D01*
X58436546Y-50546000D01*
X58438301Y-50563816D01*
X58438301Y-50626062D01*
X58356453Y-50503568D01*
X58208432Y-50355547D01*
X58034377Y-50239247D01*
X57840978Y-50159139D01*
X57635667Y-50118300D01*
X57426333Y-50118300D01*
X57221022Y-50159139D01*
X57027623Y-50239247D01*
X56853568Y-50355547D01*
X56705547Y-50503568D01*
X56589247Y-50677623D01*
X56509139Y-50871022D01*
X56468300Y-51076333D01*
X56468300Y-51285667D01*
X56509139Y-51490978D01*
X56589247Y-51684377D01*
X56705547Y-51858432D01*
X56853568Y-52006453D01*
X57027623Y-52122753D01*
X57221022Y-52202861D01*
X57426333Y-52243700D01*
X57635667Y-52243700D01*
X57840978Y-52202861D01*
X58034377Y-52122753D01*
X58208432Y-52006453D01*
X58356453Y-51858432D01*
X58438301Y-51735938D01*
X58438301Y-53166062D01*
X58356453Y-53043568D01*
X58208432Y-52895547D01*
X58034377Y-52779247D01*
X57840978Y-52699139D01*
X57635667Y-52658300D01*
X57426333Y-52658300D01*
X57221022Y-52699139D01*
X57027623Y-52779247D01*
X56853568Y-52895547D01*
X56705547Y-53043568D01*
X56589247Y-53217623D01*
X56509139Y-53411022D01*
X56468300Y-53616333D01*
X56468300Y-53825667D01*
X56509139Y-54030978D01*
X56589247Y-54224377D01*
X56705547Y-54398432D01*
X56853568Y-54546453D01*
X57027623Y-54662753D01*
X57221022Y-54742861D01*
X57426333Y-54783700D01*
X57635667Y-54783700D01*
X57840978Y-54742861D01*
X58034377Y-54662753D01*
X58208432Y-54546453D01*
X58356453Y-54398432D01*
X58438301Y-54275938D01*
X58438300Y-65889765D01*
X54844850Y-69483216D01*
X54763366Y-69499424D01*
X54660961Y-69541841D01*
X54568799Y-69603422D01*
X54490422Y-69681799D01*
X54428841Y-69773961D01*
X54386424Y-69876366D01*
X54364800Y-69985079D01*
X49526855Y-69985079D01*
X56314378Y-63197557D01*
X56328207Y-63186208D01*
X56373532Y-63130980D01*
X56407212Y-63067971D01*
X56427951Y-62999601D01*
X56433200Y-62946308D01*
X56433200Y-62946307D01*
X56434954Y-62928500D01*
X56433200Y-62910692D01*
X56433200Y-48473734D01*
X56492559Y-48414375D01*
X56468300Y-48536333D01*
X56468300Y-48745667D01*
X56509139Y-48950978D01*
X56589247Y-49144377D01*
X56705547Y-49318432D01*
X56853568Y-49466453D01*
X57027623Y-49582753D01*
X57221022Y-49662861D01*
X57426333Y-49703700D01*
X57635667Y-49703700D01*
X57840978Y-49662861D01*
X58034377Y-49582753D01*
X58208432Y-49466453D01*
X58356453Y-49318432D01*
X58472753Y-49144377D01*
X58552861Y-48950978D01*
X58593700Y-48745667D01*
X58593700Y-48536333D01*
X58552861Y-48331022D01*
X58472753Y-48137623D01*
X58356453Y-47963568D01*
X58208432Y-47815547D01*
X58085939Y-47733700D01*
X59525598Y-47733700D01*
X59474804Y-47761280D01*
X59314635Y-47894496D01*
X59183533Y-48056399D01*
X59086535Y-48240768D01*
X59089220Y-48399700D01*
X59829700Y-48399700D01*
X59829700Y-48379700D01*
X60312300Y-48379700D01*
X60312300Y-48399700D01*
X61052780Y-48399700D01*
X61055465Y-48240768D01*
X60958467Y-48056399D01*
X60827365Y-47894496D01*
X60667196Y-47761280D01*
X60616402Y-47733700D01*
X61323194Y-47733700D01*
X61341000Y-47735454D01*
X61358806Y-47733700D01*
X61358808Y-47733700D01*
X61412101Y-47728451D01*
X61480471Y-47707712D01*
X61543480Y-47674032D01*
X61598708Y-47628708D01*
X61610066Y-47614868D01*
X62060205Y-47164729D01*
X63461000Y-47164729D01*
X63502696Y-47160622D01*
X63542791Y-47148460D01*
X63579741Y-47128709D01*
X63612129Y-47102129D01*
X63638709Y-47069741D01*
X63658460Y-47032791D01*
X63670622Y-46992696D01*
X63674729Y-46951000D01*
X63674729Y-45251000D01*
X63670622Y-45209304D01*
X63658460Y-45169209D01*
X63638709Y-45132259D01*
X63612129Y-45099871D01*
X63579741Y-45073291D01*
X63542791Y-45053540D01*
X63502696Y-45041378D01*
X63461000Y-45037271D01*
X61761000Y-45037271D01*
X61719304Y-45041378D01*
X61679209Y-45053540D01*
X61642259Y-45073291D01*
X61609871Y-45099871D01*
X61583291Y-45132259D01*
X61563540Y-45169209D01*
X61551378Y-45209304D01*
X61547271Y-45251000D01*
X61547271Y-46651795D01*
X61190766Y-47008300D01*
X60616402Y-47008300D01*
X60667196Y-46980720D01*
X60827365Y-46847504D01*
X60958467Y-46685601D01*
X61055465Y-46501232D01*
X61052780Y-46342300D01*
X60312300Y-46342300D01*
X60312300Y-46362300D01*
X59829700Y-46362300D01*
X59829700Y-46342300D01*
X59089220Y-46342300D01*
X59086535Y-46501232D01*
X59183533Y-46685601D01*
X59314635Y-46847504D01*
X59474804Y-46980720D01*
X59525598Y-47008300D01*
X58085939Y-47008300D01*
X58208432Y-46926453D01*
X58356453Y-46778432D01*
X58472753Y-46604377D01*
X58552861Y-46410978D01*
X58593700Y-46205667D01*
X58593700Y-45996333D01*
X58552861Y-45791022D01*
X58515477Y-45700768D01*
X59086535Y-45700768D01*
X59089220Y-45859700D01*
X59829700Y-45859700D01*
X59829700Y-45120737D01*
X60312300Y-45120737D01*
X60312300Y-45859700D01*
X61052780Y-45859700D01*
X61055465Y-45700768D01*
X60958467Y-45516399D01*
X60827365Y-45354496D01*
X60667196Y-45221280D01*
X60484115Y-45121872D01*
X60471230Y-45116547D01*
X60312300Y-45120737D01*
X59829700Y-45120737D01*
X59670770Y-45116547D01*
X59657885Y-45121872D01*
X59474804Y-45221280D01*
X59314635Y-45354496D01*
X59183533Y-45516399D01*
X59086535Y-45700768D01*
X58515477Y-45700768D01*
X58472753Y-45597623D01*
X58356453Y-45423568D01*
X58208432Y-45275547D01*
X58034377Y-45159247D01*
X57840978Y-45079139D01*
X57635667Y-45038300D01*
X57426333Y-45038300D01*
X57221022Y-45079139D01*
X57027623Y-45159247D01*
X56853568Y-45275547D01*
X56705547Y-45423568D01*
X56589247Y-45597623D01*
X56509139Y-45791022D01*
X56468300Y-45996333D01*
X56468300Y-46205667D01*
X56509139Y-46410978D01*
X56567409Y-46551656D01*
X55255128Y-47863938D01*
X55241293Y-47875292D01*
X55225533Y-47894496D01*
X55195968Y-47930520D01*
X55162288Y-47993530D01*
X55141550Y-48061899D01*
X55134546Y-48133000D01*
X55136301Y-48150816D01*
X55136300Y-52300765D01*
X52683128Y-54753938D01*
X52669293Y-54765292D01*
X52657941Y-54779125D01*
X52623968Y-54820520D01*
X52590288Y-54883530D01*
X52569550Y-54951899D01*
X52562546Y-55023000D01*
X52564301Y-55040816D01*
X52564301Y-55066300D01*
X52172718Y-55066300D01*
X52220668Y-55040670D01*
X52367867Y-54919867D01*
X52488670Y-54772668D01*
X52578435Y-54604730D01*
X52633712Y-54422506D01*
X52652377Y-54233000D01*
X52633712Y-54043494D01*
X52578435Y-53861270D01*
X52488670Y-53693332D01*
X52367867Y-53546133D01*
X52220668Y-53425330D01*
X52052730Y-53335565D01*
X51870506Y-53280288D01*
X51728486Y-53266300D01*
X50125514Y-53266300D01*
X49983494Y-53280288D01*
X49801270Y-53335565D01*
X49633332Y-53425330D01*
X49486133Y-53546133D01*
X49365330Y-53693332D01*
X49275565Y-53861270D01*
X49220288Y-54043494D01*
X49201623Y-54233000D01*
X49220288Y-54422506D01*
X49275565Y-54604730D01*
X49365330Y-54772668D01*
X49486133Y-54919867D01*
X49633332Y-55040670D01*
X49801270Y-55130435D01*
X49983494Y-55185712D01*
X50125514Y-55199700D01*
X51681282Y-55199700D01*
X51633332Y-55225330D01*
X51486133Y-55346133D01*
X51365330Y-55493332D01*
X51275565Y-55661270D01*
X51220288Y-55843494D01*
X51201623Y-56033000D01*
X51220288Y-56222506D01*
X51275565Y-56404730D01*
X51365330Y-56572668D01*
X51486133Y-56719867D01*
X51633332Y-56840670D01*
X51801270Y-56930435D01*
X51983494Y-56985712D01*
X52125514Y-56999700D01*
X53728486Y-56999700D01*
X53870506Y-56985712D01*
X54052730Y-56930435D01*
X54220668Y-56840670D01*
X54367867Y-56719867D01*
X54488670Y-56572668D01*
X54578435Y-56404730D01*
X54633712Y-56222506D01*
X54652377Y-56033000D01*
X54633712Y-55843494D01*
X54578435Y-55661270D01*
X54488670Y-55493332D01*
X54367867Y-55346133D01*
X54220668Y-55225330D01*
X54052730Y-55135565D01*
X53870506Y-55080288D01*
X53728486Y-55066300D01*
X53396634Y-55066300D01*
X55707801Y-52755134D01*
X55707800Y-62778265D01*
X49008266Y-69477800D01*
X48903079Y-69477800D01*
X48794366Y-69499424D01*
X48691961Y-69541841D01*
X48599799Y-69603422D01*
X48521422Y-69681799D01*
X48459841Y-69773961D01*
X48417424Y-69876366D01*
X48395800Y-69985079D01*
X44814700Y-69985079D01*
X44814700Y-59733000D01*
X49201623Y-59733000D01*
X49220288Y-59922506D01*
X49275565Y-60104730D01*
X49365330Y-60272668D01*
X49486133Y-60419867D01*
X49633332Y-60540670D01*
X49801270Y-60630435D01*
X49983494Y-60685712D01*
X50125514Y-60699700D01*
X51728486Y-60699700D01*
X51870506Y-60685712D01*
X52052730Y-60630435D01*
X52220668Y-60540670D01*
X52367867Y-60419867D01*
X52488670Y-60272668D01*
X52578435Y-60104730D01*
X52633712Y-59922506D01*
X52652377Y-59733000D01*
X52633712Y-59543494D01*
X52578435Y-59361270D01*
X52488670Y-59193332D01*
X52367867Y-59046133D01*
X52220668Y-58925330D01*
X52052730Y-58835565D01*
X51870506Y-58780288D01*
X51728486Y-58766300D01*
X50125514Y-58766300D01*
X49983494Y-58780288D01*
X49801270Y-58835565D01*
X49633332Y-58925330D01*
X49486133Y-59046133D01*
X49365330Y-59193332D01*
X49275565Y-59361270D01*
X49220288Y-59543494D01*
X49201623Y-59733000D01*
X44814700Y-59733000D01*
X44814700Y-50533000D01*
X51201623Y-50533000D01*
X51220288Y-50722506D01*
X51275565Y-50904730D01*
X51365330Y-51072668D01*
X51486133Y-51219867D01*
X51633332Y-51340670D01*
X51801270Y-51430435D01*
X51983494Y-51485712D01*
X52125514Y-51499700D01*
X53728486Y-51499700D01*
X53870506Y-51485712D01*
X54052730Y-51430435D01*
X54220668Y-51340670D01*
X54367867Y-51219867D01*
X54488670Y-51072668D01*
X54578435Y-50904730D01*
X54633712Y-50722506D01*
X54652377Y-50533000D01*
X54633712Y-50343494D01*
X54578435Y-50161270D01*
X54488670Y-49993332D01*
X54367867Y-49846133D01*
X54220668Y-49725330D01*
X54052730Y-49635565D01*
X53870506Y-49580288D01*
X53728486Y-49566300D01*
X52125514Y-49566300D01*
X51983494Y-49580288D01*
X51801270Y-49635565D01*
X51633332Y-49725330D01*
X51486133Y-49846133D01*
X51365330Y-49993332D01*
X51275565Y-50161270D01*
X51220288Y-50343494D01*
X51201623Y-50533000D01*
X44814700Y-50533000D01*
X44814700Y-48517767D01*
X49286173Y-48517767D01*
X49318815Y-48645936D01*
X49435297Y-48802723D01*
X49580128Y-48933773D01*
X49747743Y-49034050D01*
X49931700Y-49099700D01*
X50685700Y-49099700D01*
X50685700Y-48374300D01*
X51168300Y-48374300D01*
X51168300Y-49099700D01*
X51922300Y-49099700D01*
X52106257Y-49034050D01*
X52273872Y-48933773D01*
X52418703Y-48802723D01*
X52535185Y-48645936D01*
X52567827Y-48517767D01*
X52562080Y-48374300D01*
X51168300Y-48374300D01*
X50685700Y-48374300D01*
X49291920Y-48374300D01*
X49286173Y-48517767D01*
X44814700Y-48517767D01*
X44814700Y-47748233D01*
X49286173Y-47748233D01*
X49291920Y-47891700D01*
X50685700Y-47891700D01*
X50685700Y-47166300D01*
X51168300Y-47166300D01*
X51168300Y-47891700D01*
X52562080Y-47891700D01*
X52567827Y-47748233D01*
X52535185Y-47620064D01*
X52418703Y-47463277D01*
X52273872Y-47332227D01*
X52106257Y-47231950D01*
X51922300Y-47166300D01*
X51168300Y-47166300D01*
X50685700Y-47166300D01*
X49931700Y-47166300D01*
X49747743Y-47231950D01*
X49580128Y-47332227D01*
X49435297Y-47463277D01*
X49318815Y-47620064D01*
X49286173Y-47748233D01*
X44814700Y-47748233D01*
X44814700Y-44719200D01*
X77139301Y-44719200D01*
X77139301Y-67215609D01*
%TA.AperFunction,Conductor*%
D25*
G36*
X77139301Y-67215609D02*
G01*
X71347431Y-74121300D01*
X69078269Y-76826839D01*
X69077440Y-76827944D01*
X69077177Y-76828436D01*
X69076864Y-76828894D01*
X69076592Y-76829532D01*
X69076267Y-76830140D01*
X69076106Y-76830671D01*
X69075887Y-76831184D01*
X69075745Y-76831860D01*
X69075544Y-76832522D01*
X69075490Y-76833075D01*
X69075375Y-76833620D01*
X69075300Y-76835000D01*
X69075300Y-97276398D01*
X67622574Y-98602800D01*
X55836880Y-98602800D01*
X54322943Y-97088864D01*
X54302349Y-97039145D01*
X54246240Y-96955173D01*
X54174827Y-96883760D01*
X54090855Y-96827651D01*
X53997549Y-96789003D01*
X53898497Y-96769300D01*
X53797503Y-96769300D01*
X53698451Y-96789003D01*
X53605145Y-96827651D01*
X53521173Y-96883760D01*
X53449760Y-96955173D01*
X53393651Y-97039145D01*
X53355003Y-97132451D01*
X53335300Y-97231503D01*
X53335300Y-97332497D01*
X53355003Y-97431549D01*
X53393651Y-97524855D01*
X53449760Y-97608827D01*
X53521173Y-97680240D01*
X53605145Y-97736349D01*
X53698451Y-97774997D01*
X53710029Y-97777300D01*
X51508008Y-97777300D01*
X51439306Y-97720918D01*
X51358924Y-97677953D01*
X51271705Y-97651496D01*
X51203722Y-97644800D01*
X51181000Y-97642562D01*
X51158278Y-97644800D01*
X48070657Y-97644800D01*
X47670703Y-97244847D01*
X47658076Y-97181366D01*
X47615659Y-97078961D01*
X47579700Y-97025145D01*
X47579700Y-94297500D01*
X47920667Y-94297500D01*
X47922300Y-94314078D01*
X47922301Y-95487412D01*
X47920667Y-95504000D01*
X47925414Y-95552187D01*
X47927188Y-95570201D01*
X47934173Y-95593227D01*
X47946498Y-95633857D01*
X47977855Y-95692523D01*
X48006450Y-95727365D01*
X48020056Y-95743945D01*
X48032936Y-95754515D01*
X48390484Y-96112064D01*
X48401055Y-96124945D01*
X48413934Y-96135514D01*
X48452476Y-96167145D01*
X48483834Y-96183906D01*
X48511143Y-96198503D01*
X48574799Y-96217813D01*
X48624419Y-96222700D01*
X48624421Y-96222700D01*
X48640999Y-96224333D01*
X48657577Y-96222700D01*
X52434422Y-96222700D01*
X52451000Y-96224333D01*
X52467578Y-96222700D01*
X52467581Y-96222700D01*
X52517201Y-96217813D01*
X52580857Y-96198503D01*
X52639523Y-96167145D01*
X52690945Y-96124945D01*
X52701520Y-96112059D01*
X53558880Y-95254700D01*
X53644497Y-95254700D01*
X53743549Y-95234997D01*
X53836855Y-95196349D01*
X53920827Y-95140240D01*
X53992240Y-95068827D01*
X54048349Y-94984855D01*
X54086997Y-94891549D01*
X54106700Y-94792497D01*
X54106700Y-94691503D01*
X54086997Y-94592451D01*
X54048349Y-94499145D01*
X53992240Y-94415173D01*
X53920827Y-94343760D01*
X53836855Y-94287651D01*
X53743549Y-94249003D01*
X53644497Y-94229300D01*
X53543503Y-94229300D01*
X53444451Y-94249003D01*
X53351145Y-94287651D01*
X53267173Y-94343760D01*
X53195760Y-94415173D01*
X53139651Y-94499145D01*
X53101003Y-94592451D01*
X53081300Y-94691503D01*
X53081300Y-94777120D01*
X52311121Y-95547300D01*
X52225791Y-95547300D01*
X52301701Y-95496578D01*
X52380078Y-95418201D01*
X52441659Y-95326039D01*
X52484076Y-95223634D01*
X52505700Y-95114921D01*
X52505700Y-95004079D01*
X52484076Y-94895366D01*
X52441659Y-94792961D01*
X52405700Y-94739145D01*
X52405700Y-93917656D01*
X53821654Y-92501703D01*
X53885134Y-92489076D01*
X53987539Y-92446659D01*
X54041355Y-92410700D01*
X60746778Y-92410700D01*
X60769500Y-92412938D01*
X60792222Y-92410700D01*
X60860205Y-92404004D01*
X60947424Y-92377547D01*
X61027806Y-92334582D01*
X61098261Y-92276761D01*
X61112751Y-92259105D01*
X61822653Y-91549203D01*
X61886134Y-91536576D01*
X61988539Y-91494159D01*
X62080701Y-91432578D01*
X62159078Y-91354201D01*
X62220659Y-91262039D01*
X62263076Y-91159634D01*
X62284700Y-91050921D01*
X62284700Y-90940079D01*
X62263076Y-90831366D01*
X62220659Y-90728961D01*
X62159078Y-90636799D01*
X62080701Y-90558422D01*
X61988539Y-90496841D01*
X61886134Y-90454424D01*
X61777421Y-90432800D01*
X61666579Y-90432800D01*
X61557866Y-90454424D01*
X61455461Y-90496841D01*
X61363299Y-90558422D01*
X61284922Y-90636799D01*
X61223341Y-90728961D01*
X61180924Y-90831366D01*
X61168297Y-90894847D01*
X60577844Y-91485300D01*
X54041355Y-91485300D01*
X53987539Y-91449341D01*
X53885134Y-91406924D01*
X53776421Y-91385300D01*
X53665579Y-91385300D01*
X53556866Y-91406924D01*
X53454461Y-91449341D01*
X53362299Y-91510922D01*
X53283922Y-91589299D01*
X53222341Y-91681461D01*
X53179924Y-91783866D01*
X53167297Y-91847346D01*
X51631890Y-93382754D01*
X51614240Y-93397239D01*
X51556419Y-93467694D01*
X51553061Y-93473977D01*
X51513454Y-93548076D01*
X51486996Y-93635296D01*
X51478062Y-93726000D01*
X51480301Y-93748732D01*
X51480300Y-94739144D01*
X51457144Y-94773800D01*
X49263686Y-94773800D01*
X49201355Y-94732151D01*
X49108049Y-94693503D01*
X49008997Y-94673800D01*
X48908003Y-94673800D01*
X48808951Y-94693503D01*
X48715645Y-94732151D01*
X48631673Y-94788260D01*
X48597700Y-94822233D01*
X48597700Y-94437379D01*
X48859880Y-94175200D01*
X48945497Y-94175200D01*
X49044549Y-94155497D01*
X49137855Y-94116849D01*
X49221827Y-94060740D01*
X49293240Y-93989327D01*
X49349349Y-93905355D01*
X49387997Y-93812049D01*
X49407700Y-93712997D01*
X49407700Y-93612003D01*
X49387997Y-93512951D01*
X49349349Y-93419645D01*
X49293240Y-93335673D01*
X49221827Y-93264260D01*
X49137855Y-93208151D01*
X49044549Y-93169503D01*
X48945497Y-93149800D01*
X48844503Y-93149800D01*
X48745451Y-93169503D01*
X48652145Y-93208151D01*
X48568173Y-93264260D01*
X48496760Y-93335673D01*
X48440651Y-93419645D01*
X48402003Y-93512951D01*
X48382300Y-93612003D01*
X48382300Y-93697620D01*
X48032937Y-94046984D01*
X48020055Y-94057556D01*
X48009486Y-94070435D01*
X47977855Y-94108977D01*
X47961094Y-94140335D01*
X47946497Y-94167644D01*
X47927187Y-94231300D01*
X47922300Y-94280919D01*
X47920667Y-94297500D01*
X47579700Y-94297500D01*
X47579700Y-93727156D01*
X49757653Y-91549203D01*
X49821134Y-91536576D01*
X49923539Y-91494159D01*
X50015701Y-91432578D01*
X50094078Y-91354201D01*
X50155659Y-91262039D01*
X50198076Y-91159634D01*
X50219700Y-91050921D01*
X50219700Y-90940079D01*
X50198076Y-90831366D01*
X50155659Y-90728961D01*
X50094078Y-90636799D01*
X50015701Y-90558422D01*
X49923539Y-90496841D01*
X49821134Y-90454424D01*
X49712421Y-90432800D01*
X49601579Y-90432800D01*
X49492866Y-90454424D01*
X49390461Y-90496841D01*
X49298299Y-90558422D01*
X49219922Y-90636799D01*
X49158341Y-90728961D01*
X49115924Y-90831366D01*
X49103297Y-90894847D01*
X46805895Y-93192249D01*
X46788239Y-93206739D01*
X46730418Y-93277195D01*
X46687453Y-93357577D01*
X46667742Y-93422556D01*
X46660996Y-93444796D01*
X46652062Y-93535500D01*
X46654300Y-93558222D01*
X46654301Y-97025143D01*
X46618341Y-97078961D01*
X46575924Y-97181366D01*
X46554300Y-97290079D01*
X46554300Y-97400921D01*
X46575924Y-97509634D01*
X46618341Y-97612039D01*
X46679922Y-97704201D01*
X46753021Y-97777300D01*
X44814700Y-97777300D01*
X44814700Y-85117258D01*
X46263300Y-85117258D01*
X46263300Y-85316742D01*
X46302218Y-85512394D01*
X46378557Y-85696693D01*
X46489385Y-85862559D01*
X46630441Y-86003615D01*
X46796307Y-86114443D01*
X46980606Y-86190782D01*
X47176258Y-86229700D01*
X47375742Y-86229700D01*
X47571394Y-86190782D01*
X47755693Y-86114443D01*
X47921559Y-86003615D01*
X48062615Y-85862559D01*
X48173443Y-85696693D01*
X48249782Y-85512394D01*
X48262271Y-85449608D01*
X48262271Y-86017000D01*
X48266378Y-86058696D01*
X48278540Y-86098791D01*
X48298291Y-86135741D01*
X48324871Y-86168129D01*
X48357259Y-86194709D01*
X48394209Y-86214460D01*
X48434304Y-86226622D01*
X48476000Y-86230729D01*
X50076000Y-86230729D01*
X50117696Y-86226622D01*
X50157791Y-86214460D01*
X50194741Y-86194709D01*
X50227129Y-86168129D01*
X50253709Y-86135741D01*
X50273460Y-86098791D01*
X50285622Y-86058696D01*
X50289729Y-86017000D01*
X50289729Y-85117258D01*
X52041800Y-85117258D01*
X52041800Y-85316742D01*
X52080718Y-85512394D01*
X52157057Y-85696693D01*
X52267885Y-85862559D01*
X52408941Y-86003615D01*
X52574807Y-86114443D01*
X52759106Y-86190782D01*
X52954758Y-86229700D01*
X53154242Y-86229700D01*
X53349894Y-86190782D01*
X53534193Y-86114443D01*
X53700059Y-86003615D01*
X53841115Y-85862559D01*
X53951943Y-85696693D01*
X54028282Y-85512394D01*
X54040771Y-85449608D01*
X54040771Y-86017000D01*
X54044878Y-86058696D01*
X54057040Y-86098791D01*
X54076791Y-86135741D01*
X54103371Y-86168129D01*
X54135759Y-86194709D01*
X54172709Y-86214460D01*
X54212804Y-86226622D01*
X54254500Y-86230729D01*
X55854500Y-86230729D01*
X55896196Y-86226622D01*
X55936291Y-86214460D01*
X55973241Y-86194709D01*
X56005629Y-86168129D01*
X56032209Y-86135741D01*
X56051960Y-86098791D01*
X56064122Y-86058696D01*
X56068229Y-86017000D01*
X56068229Y-85117258D01*
X57820300Y-85117258D01*
X57820300Y-85316742D01*
X57859218Y-85512394D01*
X57935557Y-85696693D01*
X58046385Y-85862559D01*
X58187441Y-86003615D01*
X58353307Y-86114443D01*
X58537606Y-86190782D01*
X58733258Y-86229700D01*
X58932742Y-86229700D01*
X59128394Y-86190782D01*
X59312693Y-86114443D01*
X59478559Y-86003615D01*
X59619615Y-85862559D01*
X59730443Y-85696693D01*
X59806782Y-85512394D01*
X59819271Y-85449608D01*
X59819271Y-86017000D01*
X59823378Y-86058696D01*
X59835540Y-86098791D01*
X59855291Y-86135741D01*
X59881871Y-86168129D01*
X59914259Y-86194709D01*
X59951209Y-86214460D01*
X59991304Y-86226622D01*
X60033000Y-86230729D01*
X61633000Y-86230729D01*
X61674696Y-86226622D01*
X61714791Y-86214460D01*
X61751741Y-86194709D01*
X61784129Y-86168129D01*
X61810709Y-86135741D01*
X61830460Y-86098791D01*
X61842622Y-86058696D01*
X61846729Y-86017000D01*
X61846729Y-85117258D01*
X63725800Y-85117258D01*
X63725800Y-85316742D01*
X63764718Y-85512394D01*
X63841057Y-85696693D01*
X63951885Y-85862559D01*
X64092941Y-86003615D01*
X64258807Y-86114443D01*
X64443106Y-86190782D01*
X64638758Y-86229700D01*
X64838242Y-86229700D01*
X65033894Y-86190782D01*
X65218193Y-86114443D01*
X65384059Y-86003615D01*
X65525115Y-85862559D01*
X65635943Y-85696693D01*
X65712282Y-85512394D01*
X65724771Y-85449608D01*
X65724771Y-86017000D01*
X65728878Y-86058696D01*
X65741040Y-86098791D01*
X65760791Y-86135741D01*
X65787371Y-86168129D01*
X65819759Y-86194709D01*
X65856709Y-86214460D01*
X65896804Y-86226622D01*
X65938500Y-86230729D01*
X67538500Y-86230729D01*
X67580196Y-86226622D01*
X67620291Y-86214460D01*
X67657241Y-86194709D01*
X67689629Y-86168129D01*
X67716209Y-86135741D01*
X67735960Y-86098791D01*
X67748122Y-86058696D01*
X67752229Y-86017000D01*
X67752229Y-84417000D01*
X67748122Y-84375304D01*
X67735960Y-84335209D01*
X67716209Y-84298259D01*
X67689629Y-84265871D01*
X67657241Y-84239291D01*
X67620291Y-84219540D01*
X67580196Y-84207378D01*
X67538500Y-84203271D01*
X65938500Y-84203271D01*
X65896804Y-84207378D01*
X65856709Y-84219540D01*
X65819759Y-84239291D01*
X65787371Y-84265871D01*
X65760791Y-84298259D01*
X65741040Y-84335209D01*
X65728878Y-84375304D01*
X65724771Y-84417000D01*
X65724771Y-84984392D01*
X65712282Y-84921606D01*
X65635943Y-84737307D01*
X65525115Y-84571441D01*
X65384059Y-84430385D01*
X65218193Y-84319557D01*
X65033894Y-84243218D01*
X64838242Y-84204300D01*
X64638758Y-84204300D01*
X64443106Y-84243218D01*
X64258807Y-84319557D01*
X64092941Y-84430385D01*
X63951885Y-84571441D01*
X63841057Y-84737307D01*
X63764718Y-84921606D01*
X63725800Y-85117258D01*
X61846729Y-85117258D01*
X61846729Y-84417000D01*
X61842622Y-84375304D01*
X61830460Y-84335209D01*
X61810709Y-84298259D01*
X61784129Y-84265871D01*
X61751741Y-84239291D01*
X61714791Y-84219540D01*
X61674696Y-84207378D01*
X61633000Y-84203271D01*
X60033000Y-84203271D01*
X59991304Y-84207378D01*
X59951209Y-84219540D01*
X59914259Y-84239291D01*
X59881871Y-84265871D01*
X59855291Y-84298259D01*
X59835540Y-84335209D01*
X59823378Y-84375304D01*
X59819271Y-84417000D01*
X59819271Y-84984392D01*
X59806782Y-84921606D01*
X59730443Y-84737307D01*
X59619615Y-84571441D01*
X59478559Y-84430385D01*
X59312693Y-84319557D01*
X59128394Y-84243218D01*
X58932742Y-84204300D01*
X58733258Y-84204300D01*
X58537606Y-84243218D01*
X58353307Y-84319557D01*
X58187441Y-84430385D01*
X58046385Y-84571441D01*
X57935557Y-84737307D01*
X57859218Y-84921606D01*
X57820300Y-85117258D01*
X56068229Y-85117258D01*
X56068229Y-84417000D01*
X56064122Y-84375304D01*
X56051960Y-84335209D01*
X56032209Y-84298259D01*
X56005629Y-84265871D01*
X55973241Y-84239291D01*
X55936291Y-84219540D01*
X55896196Y-84207378D01*
X55854500Y-84203271D01*
X54254500Y-84203271D01*
X54212804Y-84207378D01*
X54172709Y-84219540D01*
X54135759Y-84239291D01*
X54103371Y-84265871D01*
X54076791Y-84298259D01*
X54057040Y-84335209D01*
X54044878Y-84375304D01*
X54040771Y-84417000D01*
X54040771Y-84984392D01*
X54028282Y-84921606D01*
X53951943Y-84737307D01*
X53841115Y-84571441D01*
X53700059Y-84430385D01*
X53534193Y-84319557D01*
X53349894Y-84243218D01*
X53154242Y-84204300D01*
X52954758Y-84204300D01*
X52759106Y-84243218D01*
X52574807Y-84319557D01*
X52408941Y-84430385D01*
X52267885Y-84571441D01*
X52157057Y-84737307D01*
X52080718Y-84921606D01*
X52041800Y-85117258D01*
X50289729Y-85117258D01*
X50289729Y-84417000D01*
X50285622Y-84375304D01*
X50273460Y-84335209D01*
X50253709Y-84298259D01*
X50227129Y-84265871D01*
X50194741Y-84239291D01*
X50157791Y-84219540D01*
X50117696Y-84207378D01*
X50076000Y-84203271D01*
X48476000Y-84203271D01*
X48434304Y-84207378D01*
X48394209Y-84219540D01*
X48357259Y-84239291D01*
X48324871Y-84265871D01*
X48298291Y-84298259D01*
X48278540Y-84335209D01*
X48266378Y-84375304D01*
X48262271Y-84417000D01*
X48262271Y-84984392D01*
X48249782Y-84921606D01*
X48173443Y-84737307D01*
X48062615Y-84571441D01*
X47921559Y-84430385D01*
X47755693Y-84319557D01*
X47571394Y-84243218D01*
X47375742Y-84204300D01*
X47176258Y-84204300D01*
X46980606Y-84243218D01*
X46796307Y-84319557D01*
X46630441Y-84430385D01*
X46489385Y-84571441D01*
X46378557Y-84737307D01*
X46302218Y-84921606D01*
X46263300Y-85117258D01*
X44814700Y-85117258D01*
X44814700Y-79338758D01*
X46199800Y-79338758D01*
X46199800Y-79538242D01*
X46238718Y-79733894D01*
X46315057Y-79918193D01*
X46425885Y-80084059D01*
X46566941Y-80225115D01*
X46732807Y-80335943D01*
X46917106Y-80412282D01*
X47112758Y-80451200D01*
X47312242Y-80451200D01*
X47507894Y-80412282D01*
X47692193Y-80335943D01*
X47858059Y-80225115D01*
X47999115Y-80084059D01*
X48109943Y-79918193D01*
X48186282Y-79733894D01*
X48198771Y-79671108D01*
X48198771Y-80238500D01*
X48202878Y-80280196D01*
X48215040Y-80320291D01*
X48234791Y-80357241D01*
X48261371Y-80389629D01*
X48293759Y-80416209D01*
X48330709Y-80435960D01*
X48370804Y-80448122D01*
X48412500Y-80452229D01*
X50012500Y-80452229D01*
X50054196Y-80448122D01*
X50094291Y-80435960D01*
X50131241Y-80416209D01*
X50163629Y-80389629D01*
X50190209Y-80357241D01*
X50209960Y-80320291D01*
X50222122Y-80280196D01*
X50226229Y-80238500D01*
X50226229Y-79338758D01*
X51978300Y-79338758D01*
X51978300Y-79538242D01*
X52017218Y-79733894D01*
X52093557Y-79918193D01*
X52204385Y-80084059D01*
X52345441Y-80225115D01*
X52511307Y-80335943D01*
X52695606Y-80412282D01*
X52891258Y-80451200D01*
X53090742Y-80451200D01*
X53286394Y-80412282D01*
X53470693Y-80335943D01*
X53636559Y-80225115D01*
X53777615Y-80084059D01*
X53888443Y-79918193D01*
X53964782Y-79733894D01*
X53977271Y-79671108D01*
X53977271Y-80238500D01*
X53981378Y-80280196D01*
X53993540Y-80320291D01*
X54013291Y-80357241D01*
X54039871Y-80389629D01*
X54072259Y-80416209D01*
X54109209Y-80435960D01*
X54149304Y-80448122D01*
X54191000Y-80452229D01*
X55791000Y-80452229D01*
X55832696Y-80448122D01*
X55872791Y-80435960D01*
X55909741Y-80416209D01*
X55942129Y-80389629D01*
X55968709Y-80357241D01*
X55988460Y-80320291D01*
X56000622Y-80280196D01*
X56004729Y-80238500D01*
X56004729Y-79338758D01*
X57820300Y-79338758D01*
X57820300Y-79538242D01*
X57859218Y-79733894D01*
X57935557Y-79918193D01*
X58046385Y-80084059D01*
X58187441Y-80225115D01*
X58353307Y-80335943D01*
X58537606Y-80412282D01*
X58733258Y-80451200D01*
X58932742Y-80451200D01*
X59128394Y-80412282D01*
X59312693Y-80335943D01*
X59478559Y-80225115D01*
X59619615Y-80084059D01*
X59730443Y-79918193D01*
X59806782Y-79733894D01*
X59819271Y-79671108D01*
X59819271Y-80238500D01*
X59823378Y-80280196D01*
X59835540Y-80320291D01*
X59855291Y-80357241D01*
X59881871Y-80389629D01*
X59914259Y-80416209D01*
X59951209Y-80435960D01*
X59991304Y-80448122D01*
X60033000Y-80452229D01*
X61633000Y-80452229D01*
X61674696Y-80448122D01*
X61714791Y-80435960D01*
X61751741Y-80416209D01*
X61784129Y-80389629D01*
X61810709Y-80357241D01*
X61830460Y-80320291D01*
X61842622Y-80280196D01*
X61846729Y-80238500D01*
X61846729Y-79338758D01*
X63725800Y-79338758D01*
X63725800Y-79538242D01*
X63764718Y-79733894D01*
X63841057Y-79918193D01*
X63951885Y-80084059D01*
X64092941Y-80225115D01*
X64258807Y-80335943D01*
X64443106Y-80412282D01*
X64638758Y-80451200D01*
X64838242Y-80451200D01*
X65033894Y-80412282D01*
X65218193Y-80335943D01*
X65384059Y-80225115D01*
X65525115Y-80084059D01*
X65635943Y-79918193D01*
X65712282Y-79733894D01*
X65724771Y-79671108D01*
X65724771Y-80238500D01*
X65728878Y-80280196D01*
X65741040Y-80320291D01*
X65760791Y-80357241D01*
X65787371Y-80389629D01*
X65819759Y-80416209D01*
X65856709Y-80435960D01*
X65896804Y-80448122D01*
X65938500Y-80452229D01*
X67538500Y-80452229D01*
X67580196Y-80448122D01*
X67620291Y-80435960D01*
X67657241Y-80416209D01*
X67689629Y-80389629D01*
X67716209Y-80357241D01*
X67735960Y-80320291D01*
X67748122Y-80280196D01*
X67752229Y-80238500D01*
X67752229Y-78638500D01*
X67748122Y-78596804D01*
X67735960Y-78556709D01*
X67716209Y-78519759D01*
X67689629Y-78487371D01*
X67657241Y-78460791D01*
X67620291Y-78441040D01*
X67580196Y-78428878D01*
X67538500Y-78424771D01*
X65938500Y-78424771D01*
X65896804Y-78428878D01*
X65856709Y-78441040D01*
X65819759Y-78460791D01*
X65787371Y-78487371D01*
X65760791Y-78519759D01*
X65741040Y-78556709D01*
X65728878Y-78596804D01*
X65724771Y-78638500D01*
X65724771Y-79205892D01*
X65712282Y-79143106D01*
X65635943Y-78958807D01*
X65525115Y-78792941D01*
X65384059Y-78651885D01*
X65218193Y-78541057D01*
X65033894Y-78464718D01*
X64838242Y-78425800D01*
X64638758Y-78425800D01*
X64443106Y-78464718D01*
X64258807Y-78541057D01*
X64092941Y-78651885D01*
X63951885Y-78792941D01*
X63841057Y-78958807D01*
X63764718Y-79143106D01*
X63725800Y-79338758D01*
X61846729Y-79338758D01*
X61846729Y-78638500D01*
X61842622Y-78596804D01*
X61830460Y-78556709D01*
X61810709Y-78519759D01*
X61784129Y-78487371D01*
X61751741Y-78460791D01*
X61714791Y-78441040D01*
X61674696Y-78428878D01*
X61633000Y-78424771D01*
X60033000Y-78424771D01*
X59991304Y-78428878D01*
X59951209Y-78441040D01*
X59914259Y-78460791D01*
X59881871Y-78487371D01*
X59855291Y-78519759D01*
X59835540Y-78556709D01*
X59823378Y-78596804D01*
X59819271Y-78638500D01*
X59819271Y-79205892D01*
X59806782Y-79143106D01*
X59730443Y-78958807D01*
X59619615Y-78792941D01*
X59478559Y-78651885D01*
X59312693Y-78541057D01*
X59128394Y-78464718D01*
X58932742Y-78425800D01*
X58733258Y-78425800D01*
X58537606Y-78464718D01*
X58353307Y-78541057D01*
X58187441Y-78651885D01*
X58046385Y-78792941D01*
X57935557Y-78958807D01*
X57859218Y-79143106D01*
X57820300Y-79338758D01*
X56004729Y-79338758D01*
X56004729Y-78638500D01*
X56000622Y-78596804D01*
X55988460Y-78556709D01*
X55968709Y-78519759D01*
X55942129Y-78487371D01*
X55909741Y-78460791D01*
X55872791Y-78441040D01*
X55832696Y-78428878D01*
X55791000Y-78424771D01*
X54191000Y-78424771D01*
X54149304Y-78428878D01*
X54109209Y-78441040D01*
X54072259Y-78460791D01*
X54039871Y-78487371D01*
X54013291Y-78519759D01*
X53993540Y-78556709D01*
X53981378Y-78596804D01*
X53977271Y-78638500D01*
X53977271Y-79205892D01*
X53964782Y-79143106D01*
X53888443Y-78958807D01*
X53777615Y-78792941D01*
X53636559Y-78651885D01*
X53470693Y-78541057D01*
X53286394Y-78464718D01*
X53090742Y-78425800D01*
X52891258Y-78425800D01*
X52695606Y-78464718D01*
X52511307Y-78541057D01*
X52345441Y-78651885D01*
X52204385Y-78792941D01*
X52093557Y-78958807D01*
X52017218Y-79143106D01*
X51978300Y-79338758D01*
X50226229Y-79338758D01*
X50226229Y-78638500D01*
X50222122Y-78596804D01*
X50209960Y-78556709D01*
X50190209Y-78519759D01*
X50163629Y-78487371D01*
X50131241Y-78460791D01*
X50094291Y-78441040D01*
X50054196Y-78428878D01*
X50012500Y-78424771D01*
X48412500Y-78424771D01*
X48370804Y-78428878D01*
X48330709Y-78441040D01*
X48293759Y-78460791D01*
X48261371Y-78487371D01*
X48234791Y-78519759D01*
X48215040Y-78556709D01*
X48202878Y-78596804D01*
X48198771Y-78638500D01*
X48198771Y-79205892D01*
X48186282Y-79143106D01*
X48109943Y-78958807D01*
X47999115Y-78792941D01*
X47858059Y-78651885D01*
X47692193Y-78541057D01*
X47507894Y-78464718D01*
X47312242Y-78425800D01*
X47112758Y-78425800D01*
X46917106Y-78464718D01*
X46732807Y-78541057D01*
X46566941Y-78651885D01*
X46425885Y-78792941D01*
X46315057Y-78958807D01*
X46238718Y-79143106D01*
X46199800Y-79338758D01*
X44814700Y-79338758D01*
X44814700Y-69985079D01*
X48395800Y-69985079D01*
X48395800Y-70095921D01*
X48417424Y-70204634D01*
X48459841Y-70307039D01*
X48521422Y-70399201D01*
X48599799Y-70477578D01*
X48691961Y-70539159D01*
X48794366Y-70581576D01*
X48903079Y-70603200D01*
X49013921Y-70603200D01*
X49122634Y-70581576D01*
X49225039Y-70539159D01*
X49317201Y-70477578D01*
X49395578Y-70399201D01*
X49457159Y-70307039D01*
X49499576Y-70204634D01*
X49521200Y-70095921D01*
X49521200Y-69990734D01*
X49526855Y-69985079D01*
X54364800Y-69985079D01*
X54364800Y-70095921D01*
X54386424Y-70204634D01*
X54428841Y-70307039D01*
X54490422Y-70399201D01*
X54568799Y-70477578D01*
X54660961Y-70539159D01*
X54763366Y-70581576D01*
X54872079Y-70603200D01*
X54982921Y-70603200D01*
X55091634Y-70581576D01*
X55194039Y-70539159D01*
X55286201Y-70477578D01*
X55364578Y-70399201D01*
X55426159Y-70307039D01*
X55468576Y-70204634D01*
X55490200Y-70095921D01*
X55490200Y-69985079D01*
X60270300Y-69985079D01*
X60270300Y-70095921D01*
X60291924Y-70204634D01*
X60334341Y-70307039D01*
X60395922Y-70399201D01*
X60474299Y-70477578D01*
X60566461Y-70539159D01*
X60668866Y-70581576D01*
X60777579Y-70603200D01*
X60888421Y-70603200D01*
X60997134Y-70581576D01*
X61099539Y-70539159D01*
X61191701Y-70477578D01*
X61270078Y-70399201D01*
X61331659Y-70307039D01*
X61374076Y-70204634D01*
X61395700Y-70095921D01*
X61395700Y-69990735D01*
X61521377Y-69865058D01*
X61535207Y-69853708D01*
X61580532Y-69798480D01*
X61614212Y-69735471D01*
X61634951Y-69667101D01*
X61640200Y-69613808D01*
X61640200Y-69613807D01*
X61641954Y-69596000D01*
X61640200Y-69578192D01*
X61640200Y-54747019D01*
X61642259Y-54748709D01*
X61679209Y-54768460D01*
X61719304Y-54780622D01*
X61761000Y-54784729D01*
X62248301Y-54784729D01*
X62248300Y-65768194D01*
X62246546Y-65786000D01*
X62248300Y-65803806D01*
X62248300Y-65803807D01*
X62253549Y-65857100D01*
X62266723Y-65900530D01*
X62274288Y-65925470D01*
X62307968Y-65988480D01*
X62328814Y-66013881D01*
X62353292Y-66043707D01*
X62367128Y-66055062D01*
X66248897Y-69936832D01*
X66239300Y-69985079D01*
X66239300Y-70095921D01*
X66260924Y-70204634D01*
X66303341Y-70307039D01*
X66364922Y-70399201D01*
X66443299Y-70477578D01*
X66535461Y-70539159D01*
X66637866Y-70581576D01*
X66746579Y-70603200D01*
X66857421Y-70603200D01*
X66966134Y-70581576D01*
X67068539Y-70539159D01*
X67160701Y-70477578D01*
X67239078Y-70399201D01*
X67300659Y-70307039D01*
X67343076Y-70204634D01*
X67364700Y-70095921D01*
X67364700Y-69985079D01*
X67343076Y-69876366D01*
X67300659Y-69773961D01*
X67239078Y-69681799D01*
X67160701Y-69603422D01*
X67068539Y-69541841D01*
X66966134Y-69499424D01*
X66857421Y-69477800D01*
X66815735Y-69477800D01*
X62973700Y-65635766D01*
X62973700Y-59733000D01*
X66981623Y-59733000D01*
X67000288Y-59922506D01*
X67055565Y-60104730D01*
X67145330Y-60272668D01*
X67266133Y-60419867D01*
X67413332Y-60540670D01*
X67581270Y-60630435D01*
X67763494Y-60685712D01*
X67905514Y-60699700D01*
X69508486Y-60699700D01*
X69650506Y-60685712D01*
X69832730Y-60630435D01*
X70000668Y-60540670D01*
X70147867Y-60419867D01*
X70268670Y-60272668D01*
X70358435Y-60104730D01*
X70413712Y-59922506D01*
X70432377Y-59733000D01*
X70413712Y-59543494D01*
X70358435Y-59361270D01*
X70268670Y-59193332D01*
X70147867Y-59046133D01*
X70000668Y-58925330D01*
X69832730Y-58835565D01*
X69650506Y-58780288D01*
X69508486Y-58766300D01*
X67905514Y-58766300D01*
X67763494Y-58780288D01*
X67581270Y-58835565D01*
X67413332Y-58925330D01*
X67266133Y-59046133D01*
X67145330Y-59193332D01*
X67055565Y-59361270D01*
X67000288Y-59543494D01*
X66981623Y-59733000D01*
X62973700Y-59733000D01*
X62973700Y-54784729D01*
X63461000Y-54784729D01*
X63502696Y-54780622D01*
X63542791Y-54768460D01*
X63579741Y-54748709D01*
X63612129Y-54722129D01*
X63638709Y-54689741D01*
X63658460Y-54652791D01*
X63670622Y-54612696D01*
X63674729Y-54571000D01*
X63674729Y-54233000D01*
X66981623Y-54233000D01*
X67000288Y-54422506D01*
X67055565Y-54604730D01*
X67145330Y-54772668D01*
X67266133Y-54919867D01*
X67413332Y-55040670D01*
X67581270Y-55130435D01*
X67763494Y-55185712D01*
X67905514Y-55199700D01*
X69461282Y-55199700D01*
X69413332Y-55225330D01*
X69266133Y-55346133D01*
X69145330Y-55493332D01*
X69055565Y-55661270D01*
X69000288Y-55843494D01*
X68981623Y-56033000D01*
X69000288Y-56222506D01*
X69055565Y-56404730D01*
X69145330Y-56572668D01*
X69266133Y-56719867D01*
X69413332Y-56840670D01*
X69581270Y-56930435D01*
X69763494Y-56985712D01*
X69905514Y-56999700D01*
X71508486Y-56999700D01*
X71650506Y-56985712D01*
X71832730Y-56930435D01*
X72000668Y-56840670D01*
X72147867Y-56719867D01*
X72268670Y-56572668D01*
X72358435Y-56404730D01*
X72413712Y-56222506D01*
X72432377Y-56033000D01*
X72413712Y-55843494D01*
X72358435Y-55661270D01*
X72268670Y-55493332D01*
X72147867Y-55346133D01*
X72000668Y-55225330D01*
X71832730Y-55135565D01*
X71650506Y-55080288D01*
X71508486Y-55066300D01*
X69952718Y-55066300D01*
X70000668Y-55040670D01*
X70147867Y-54919867D01*
X70268670Y-54772668D01*
X70358435Y-54604730D01*
X70413712Y-54422506D01*
X70432377Y-54233000D01*
X70413712Y-54043494D01*
X70358435Y-53861270D01*
X70268670Y-53693332D01*
X70147867Y-53546133D01*
X70000668Y-53425330D01*
X69832730Y-53335565D01*
X69650506Y-53280288D01*
X69508486Y-53266300D01*
X67905514Y-53266300D01*
X67763494Y-53280288D01*
X67581270Y-53335565D01*
X67413332Y-53425330D01*
X67266133Y-53546133D01*
X67145330Y-53693332D01*
X67055565Y-53861270D01*
X67000288Y-54043494D01*
X66981623Y-54233000D01*
X63674729Y-54233000D01*
X63674729Y-52871000D01*
X63670622Y-52829304D01*
X63658460Y-52789209D01*
X63638709Y-52752259D01*
X63612129Y-52719871D01*
X63579741Y-52693291D01*
X63542791Y-52673540D01*
X63502696Y-52661378D01*
X63461000Y-52657271D01*
X61761000Y-52657271D01*
X61719304Y-52661378D01*
X61679209Y-52673540D01*
X61642259Y-52693291D01*
X61640200Y-52694981D01*
X61640200Y-52664734D01*
X62060205Y-52244729D01*
X63461000Y-52244729D01*
X63502696Y-52240622D01*
X63542791Y-52228460D01*
X63579741Y-52208709D01*
X63612129Y-52182129D01*
X63638709Y-52149741D01*
X63658460Y-52112791D01*
X63670622Y-52072696D01*
X63674729Y-52031000D01*
X63674729Y-50533000D01*
X68981623Y-50533000D01*
X69000288Y-50722506D01*
X69055565Y-50904730D01*
X69145330Y-51072668D01*
X69266133Y-51219867D01*
X69413332Y-51340670D01*
X69581270Y-51430435D01*
X69763494Y-51485712D01*
X69905514Y-51499700D01*
X71508486Y-51499700D01*
X71650506Y-51485712D01*
X71832730Y-51430435D01*
X72000668Y-51340670D01*
X72147867Y-51219867D01*
X72268670Y-51072668D01*
X72358435Y-50904730D01*
X72413712Y-50722506D01*
X72432377Y-50533000D01*
X72413712Y-50343494D01*
X72358435Y-50161270D01*
X72268670Y-49993332D01*
X72147867Y-49846133D01*
X72000668Y-49725330D01*
X71832730Y-49635565D01*
X71650506Y-49580288D01*
X71508486Y-49566300D01*
X69905514Y-49566300D01*
X69763494Y-49580288D01*
X69581270Y-49635565D01*
X69413332Y-49725330D01*
X69266133Y-49846133D01*
X69145330Y-49993332D01*
X69055565Y-50161270D01*
X69000288Y-50343494D01*
X68981623Y-50533000D01*
X63674729Y-50533000D01*
X63674729Y-50331000D01*
X63670622Y-50289304D01*
X63658460Y-50249209D01*
X63638709Y-50212259D01*
X63612129Y-50179871D01*
X63579741Y-50153291D01*
X63542791Y-50133540D01*
X63502696Y-50121378D01*
X63461000Y-50117271D01*
X61761000Y-50117271D01*
X61719304Y-50121378D01*
X61679209Y-50133540D01*
X61642259Y-50153291D01*
X61609871Y-50179871D01*
X61583291Y-50212259D01*
X61563540Y-50249209D01*
X61551378Y-50289304D01*
X61547271Y-50331000D01*
X61547271Y-51731795D01*
X61033628Y-52245438D01*
X61019793Y-52256792D01*
X61008441Y-52270625D01*
X60974468Y-52312020D01*
X60940788Y-52375030D01*
X60920050Y-52443399D01*
X60913046Y-52514500D01*
X60914801Y-52532316D01*
X60914801Y-53082474D01*
X60827365Y-52974496D01*
X60667196Y-52841280D01*
X60484115Y-52741872D01*
X60471230Y-52736547D01*
X60312300Y-52740737D01*
X60312300Y-53479700D01*
X60332300Y-53479700D01*
X60332300Y-53962300D01*
X60312300Y-53962300D01*
X60312300Y-54701263D01*
X60471230Y-54705453D01*
X60484115Y-54700128D01*
X60667196Y-54600720D01*
X60827365Y-54467504D01*
X60914801Y-54359526D01*
X60914800Y-69445765D01*
X60882765Y-69477800D01*
X60777579Y-69477800D01*
X60668866Y-69499424D01*
X60566461Y-69541841D01*
X60474299Y-69603422D01*
X60395922Y-69681799D01*
X60334341Y-69773961D01*
X60291924Y-69876366D01*
X60270300Y-69985079D01*
X55490200Y-69985079D01*
X55470068Y-69883866D01*
X59044878Y-66309057D01*
X59058707Y-66297708D01*
X59104032Y-66242480D01*
X59137712Y-66179471D01*
X59158451Y-66111101D01*
X59163700Y-66057808D01*
X59163700Y-66057799D01*
X59165453Y-66040001D01*
X59163700Y-66022203D01*
X59163700Y-54267903D01*
X59183533Y-54305601D01*
X59314635Y-54467504D01*
X59474804Y-54600720D01*
X59657885Y-54700128D01*
X59670770Y-54705453D01*
X59829700Y-54701263D01*
X59829700Y-53962300D01*
X59809700Y-53962300D01*
X59809700Y-53479700D01*
X59829700Y-53479700D01*
X59829700Y-52740737D01*
X59670770Y-52736547D01*
X59657885Y-52741872D01*
X59474804Y-52841280D01*
X59314635Y-52974496D01*
X59183533Y-53136399D01*
X59163700Y-53174097D01*
X59163700Y-51727903D01*
X59183533Y-51765601D01*
X59314635Y-51927504D01*
X59474804Y-52060720D01*
X59657885Y-52160128D01*
X59670770Y-52165453D01*
X59829700Y-52161263D01*
X59829700Y-51422300D01*
X60312300Y-51422300D01*
X60312300Y-52161263D01*
X60471230Y-52165453D01*
X60484115Y-52160128D01*
X60667196Y-52060720D01*
X60827365Y-51927504D01*
X60958467Y-51765601D01*
X61055465Y-51581232D01*
X61052780Y-51422300D01*
X60312300Y-51422300D01*
X59829700Y-51422300D01*
X59809700Y-51422300D01*
X59809700Y-50939700D01*
X59829700Y-50939700D01*
X59829700Y-50919700D01*
X60312300Y-50919700D01*
X60312300Y-50939700D01*
X61052780Y-50939700D01*
X61055465Y-50780768D01*
X60958467Y-50596399D01*
X60827365Y-50434496D01*
X60667196Y-50301280D01*
X60616402Y-50273700D01*
X61323194Y-50273700D01*
X61341000Y-50275454D01*
X61358806Y-50273700D01*
X61358808Y-50273700D01*
X61412101Y-50268451D01*
X61480471Y-50247712D01*
X61543480Y-50214032D01*
X61598708Y-50168708D01*
X61610066Y-50154868D01*
X62060205Y-49704729D01*
X63461000Y-49704729D01*
X63502696Y-49700622D01*
X63542791Y-49688460D01*
X63579741Y-49668709D01*
X63612129Y-49642129D01*
X63638709Y-49609741D01*
X63658460Y-49572791D01*
X63670622Y-49532696D01*
X63674729Y-49491000D01*
X63674729Y-48517767D01*
X67066173Y-48517767D01*
X67098815Y-48645936D01*
X67215297Y-48802723D01*
X67360128Y-48933773D01*
X67527743Y-49034050D01*
X67711700Y-49099700D01*
X68465700Y-49099700D01*
X68465700Y-48374300D01*
X68948300Y-48374300D01*
X68948300Y-49099700D01*
X69702300Y-49099700D01*
X69886257Y-49034050D01*
X70053872Y-48933773D01*
X70198703Y-48802723D01*
X70315185Y-48645936D01*
X70347827Y-48517767D01*
X70342080Y-48374300D01*
X68948300Y-48374300D01*
X68465700Y-48374300D01*
X67071920Y-48374300D01*
X67066173Y-48517767D01*
X63674729Y-48517767D01*
X63674729Y-47791000D01*
X63670622Y-47749304D01*
X63670298Y-47748233D01*
X67066173Y-47748233D01*
X67071920Y-47891700D01*
X68465700Y-47891700D01*
X68465700Y-47166300D01*
X68948300Y-47166300D01*
X68948300Y-47891700D01*
X70342080Y-47891700D01*
X70347827Y-47748233D01*
X70315185Y-47620064D01*
X70198703Y-47463277D01*
X70053872Y-47332227D01*
X69886257Y-47231950D01*
X69702300Y-47166300D01*
X68948300Y-47166300D01*
X68465700Y-47166300D01*
X67711700Y-47166300D01*
X67527743Y-47231950D01*
X67360128Y-47332227D01*
X67215297Y-47463277D01*
X67098815Y-47620064D01*
X67066173Y-47748233D01*
X63670298Y-47748233D01*
X63658460Y-47709209D01*
X63638709Y-47672259D01*
X63612129Y-47639871D01*
X63579741Y-47613291D01*
X63542791Y-47593540D01*
X63502696Y-47581378D01*
X63461000Y-47577271D01*
X61761000Y-47577271D01*
X61719304Y-47581378D01*
X61679209Y-47593540D01*
X61642259Y-47613291D01*
X61609871Y-47639871D01*
X61583291Y-47672259D01*
X61563540Y-47709209D01*
X61551378Y-47749304D01*
X61547271Y-47791000D01*
X61547271Y-49191795D01*
X61190766Y-49548300D01*
X60616402Y-49548300D01*
X60667196Y-49520720D01*
X60827365Y-49387504D01*
X60958467Y-49225601D01*
X61055465Y-49041232D01*
X61052780Y-48882300D01*
X60312300Y-48882300D01*
X60312300Y-48902300D01*
X59829700Y-48902300D01*
X59829700Y-48882300D01*
X59089220Y-48882300D01*
X59086535Y-49041232D01*
X59183533Y-49225601D01*
X59314635Y-49387504D01*
X59474804Y-49520720D01*
X59525598Y-49548300D01*
X59453808Y-49548300D01*
X59436000Y-49546546D01*
X59364899Y-49553549D01*
X59296529Y-49574288D01*
X59233520Y-49607968D01*
X59192124Y-49641940D01*
X59192121Y-49641943D01*
X59178292Y-49653292D01*
X59166942Y-49667122D01*
X58557127Y-50276938D01*
X58543293Y-50288292D01*
X58531941Y-50302125D01*
X58497968Y-50343520D01*
X58464288Y-50406530D01*
X58443550Y-50474899D01*
X58436546Y-50546000D01*
X58438301Y-50563816D01*
X58438301Y-50626062D01*
X58356453Y-50503568D01*
X58208432Y-50355547D01*
X58034377Y-50239247D01*
X57840978Y-50159139D01*
X57635667Y-50118300D01*
X57426333Y-50118300D01*
X57221022Y-50159139D01*
X57027623Y-50239247D01*
X56853568Y-50355547D01*
X56705547Y-50503568D01*
X56589247Y-50677623D01*
X56509139Y-50871022D01*
X56468300Y-51076333D01*
X56468300Y-51285667D01*
X56509139Y-51490978D01*
X56589247Y-51684377D01*
X56705547Y-51858432D01*
X56853568Y-52006453D01*
X57027623Y-52122753D01*
X57221022Y-52202861D01*
X57426333Y-52243700D01*
X57635667Y-52243700D01*
X57840978Y-52202861D01*
X58034377Y-52122753D01*
X58208432Y-52006453D01*
X58356453Y-51858432D01*
X58438301Y-51735938D01*
X58438301Y-53166062D01*
X58356453Y-53043568D01*
X58208432Y-52895547D01*
X58034377Y-52779247D01*
X57840978Y-52699139D01*
X57635667Y-52658300D01*
X57426333Y-52658300D01*
X57221022Y-52699139D01*
X57027623Y-52779247D01*
X56853568Y-52895547D01*
X56705547Y-53043568D01*
X56589247Y-53217623D01*
X56509139Y-53411022D01*
X56468300Y-53616333D01*
X56468300Y-53825667D01*
X56509139Y-54030978D01*
X56589247Y-54224377D01*
X56705547Y-54398432D01*
X56853568Y-54546453D01*
X57027623Y-54662753D01*
X57221022Y-54742861D01*
X57426333Y-54783700D01*
X57635667Y-54783700D01*
X57840978Y-54742861D01*
X58034377Y-54662753D01*
X58208432Y-54546453D01*
X58356453Y-54398432D01*
X58438301Y-54275938D01*
X58438300Y-65889765D01*
X54844850Y-69483216D01*
X54763366Y-69499424D01*
X54660961Y-69541841D01*
X54568799Y-69603422D01*
X54490422Y-69681799D01*
X54428841Y-69773961D01*
X54386424Y-69876366D01*
X54364800Y-69985079D01*
X49526855Y-69985079D01*
X56314378Y-63197557D01*
X56328207Y-63186208D01*
X56373532Y-63130980D01*
X56407212Y-63067971D01*
X56427951Y-62999601D01*
X56433200Y-62946308D01*
X56433200Y-62946307D01*
X56434954Y-62928500D01*
X56433200Y-62910692D01*
X56433200Y-48473734D01*
X56492559Y-48414375D01*
X56468300Y-48536333D01*
X56468300Y-48745667D01*
X56509139Y-48950978D01*
X56589247Y-49144377D01*
X56705547Y-49318432D01*
X56853568Y-49466453D01*
X57027623Y-49582753D01*
X57221022Y-49662861D01*
X57426333Y-49703700D01*
X57635667Y-49703700D01*
X57840978Y-49662861D01*
X58034377Y-49582753D01*
X58208432Y-49466453D01*
X58356453Y-49318432D01*
X58472753Y-49144377D01*
X58552861Y-48950978D01*
X58593700Y-48745667D01*
X58593700Y-48536333D01*
X58552861Y-48331022D01*
X58472753Y-48137623D01*
X58356453Y-47963568D01*
X58208432Y-47815547D01*
X58085939Y-47733700D01*
X59525598Y-47733700D01*
X59474804Y-47761280D01*
X59314635Y-47894496D01*
X59183533Y-48056399D01*
X59086535Y-48240768D01*
X59089220Y-48399700D01*
X59829700Y-48399700D01*
X59829700Y-48379700D01*
X60312300Y-48379700D01*
X60312300Y-48399700D01*
X61052780Y-48399700D01*
X61055465Y-48240768D01*
X60958467Y-48056399D01*
X60827365Y-47894496D01*
X60667196Y-47761280D01*
X60616402Y-47733700D01*
X61323194Y-47733700D01*
X61341000Y-47735454D01*
X61358806Y-47733700D01*
X61358808Y-47733700D01*
X61412101Y-47728451D01*
X61480471Y-47707712D01*
X61543480Y-47674032D01*
X61598708Y-47628708D01*
X61610066Y-47614868D01*
X62060205Y-47164729D01*
X63461000Y-47164729D01*
X63502696Y-47160622D01*
X63542791Y-47148460D01*
X63579741Y-47128709D01*
X63612129Y-47102129D01*
X63638709Y-47069741D01*
X63658460Y-47032791D01*
X63670622Y-46992696D01*
X63674729Y-46951000D01*
X63674729Y-45251000D01*
X63670622Y-45209304D01*
X63658460Y-45169209D01*
X63638709Y-45132259D01*
X63612129Y-45099871D01*
X63579741Y-45073291D01*
X63542791Y-45053540D01*
X63502696Y-45041378D01*
X63461000Y-45037271D01*
X61761000Y-45037271D01*
X61719304Y-45041378D01*
X61679209Y-45053540D01*
X61642259Y-45073291D01*
X61609871Y-45099871D01*
X61583291Y-45132259D01*
X61563540Y-45169209D01*
X61551378Y-45209304D01*
X61547271Y-45251000D01*
X61547271Y-46651795D01*
X61190766Y-47008300D01*
X60616402Y-47008300D01*
X60667196Y-46980720D01*
X60827365Y-46847504D01*
X60958467Y-46685601D01*
X61055465Y-46501232D01*
X61052780Y-46342300D01*
X60312300Y-46342300D01*
X60312300Y-46362300D01*
X59829700Y-46362300D01*
X59829700Y-46342300D01*
X59089220Y-46342300D01*
X59086535Y-46501232D01*
X59183533Y-46685601D01*
X59314635Y-46847504D01*
X59474804Y-46980720D01*
X59525598Y-47008300D01*
X58085939Y-47008300D01*
X58208432Y-46926453D01*
X58356453Y-46778432D01*
X58472753Y-46604377D01*
X58552861Y-46410978D01*
X58593700Y-46205667D01*
X58593700Y-45996333D01*
X58552861Y-45791022D01*
X58515477Y-45700768D01*
X59086535Y-45700768D01*
X59089220Y-45859700D01*
X59829700Y-45859700D01*
X59829700Y-45120737D01*
X60312300Y-45120737D01*
X60312300Y-45859700D01*
X61052780Y-45859700D01*
X61055465Y-45700768D01*
X60958467Y-45516399D01*
X60827365Y-45354496D01*
X60667196Y-45221280D01*
X60484115Y-45121872D01*
X60471230Y-45116547D01*
X60312300Y-45120737D01*
X59829700Y-45120737D01*
X59670770Y-45116547D01*
X59657885Y-45121872D01*
X59474804Y-45221280D01*
X59314635Y-45354496D01*
X59183533Y-45516399D01*
X59086535Y-45700768D01*
X58515477Y-45700768D01*
X58472753Y-45597623D01*
X58356453Y-45423568D01*
X58208432Y-45275547D01*
X58034377Y-45159247D01*
X57840978Y-45079139D01*
X57635667Y-45038300D01*
X57426333Y-45038300D01*
X57221022Y-45079139D01*
X57027623Y-45159247D01*
X56853568Y-45275547D01*
X56705547Y-45423568D01*
X56589247Y-45597623D01*
X56509139Y-45791022D01*
X56468300Y-45996333D01*
X56468300Y-46205667D01*
X56509139Y-46410978D01*
X56567409Y-46551656D01*
X55255128Y-47863938D01*
X55241293Y-47875292D01*
X55225533Y-47894496D01*
X55195968Y-47930520D01*
X55162288Y-47993530D01*
X55141550Y-48061899D01*
X55134546Y-48133000D01*
X55136301Y-48150816D01*
X55136300Y-52300765D01*
X52683128Y-54753938D01*
X52669293Y-54765292D01*
X52657941Y-54779125D01*
X52623968Y-54820520D01*
X52590288Y-54883530D01*
X52569550Y-54951899D01*
X52562546Y-55023000D01*
X52564301Y-55040816D01*
X52564301Y-55066300D01*
X52172718Y-55066300D01*
X52220668Y-55040670D01*
X52367867Y-54919867D01*
X52488670Y-54772668D01*
X52578435Y-54604730D01*
X52633712Y-54422506D01*
X52652377Y-54233000D01*
X52633712Y-54043494D01*
X52578435Y-53861270D01*
X52488670Y-53693332D01*
X52367867Y-53546133D01*
X52220668Y-53425330D01*
X52052730Y-53335565D01*
X51870506Y-53280288D01*
X51728486Y-53266300D01*
X50125514Y-53266300D01*
X49983494Y-53280288D01*
X49801270Y-53335565D01*
X49633332Y-53425330D01*
X49486133Y-53546133D01*
X49365330Y-53693332D01*
X49275565Y-53861270D01*
X49220288Y-54043494D01*
X49201623Y-54233000D01*
X49220288Y-54422506D01*
X49275565Y-54604730D01*
X49365330Y-54772668D01*
X49486133Y-54919867D01*
X49633332Y-55040670D01*
X49801270Y-55130435D01*
X49983494Y-55185712D01*
X50125514Y-55199700D01*
X51681282Y-55199700D01*
X51633332Y-55225330D01*
X51486133Y-55346133D01*
X51365330Y-55493332D01*
X51275565Y-55661270D01*
X51220288Y-55843494D01*
X51201623Y-56033000D01*
X51220288Y-56222506D01*
X51275565Y-56404730D01*
X51365330Y-56572668D01*
X51486133Y-56719867D01*
X51633332Y-56840670D01*
X51801270Y-56930435D01*
X51983494Y-56985712D01*
X52125514Y-56999700D01*
X53728486Y-56999700D01*
X53870506Y-56985712D01*
X54052730Y-56930435D01*
X54220668Y-56840670D01*
X54367867Y-56719867D01*
X54488670Y-56572668D01*
X54578435Y-56404730D01*
X54633712Y-56222506D01*
X54652377Y-56033000D01*
X54633712Y-55843494D01*
X54578435Y-55661270D01*
X54488670Y-55493332D01*
X54367867Y-55346133D01*
X54220668Y-55225330D01*
X54052730Y-55135565D01*
X53870506Y-55080288D01*
X53728486Y-55066300D01*
X53396634Y-55066300D01*
X55707801Y-52755134D01*
X55707800Y-62778265D01*
X49008266Y-69477800D01*
X48903079Y-69477800D01*
X48794366Y-69499424D01*
X48691961Y-69541841D01*
X48599799Y-69603422D01*
X48521422Y-69681799D01*
X48459841Y-69773961D01*
X48417424Y-69876366D01*
X48395800Y-69985079D01*
X44814700Y-69985079D01*
X44814700Y-59733000D01*
X49201623Y-59733000D01*
X49220288Y-59922506D01*
X49275565Y-60104730D01*
X49365330Y-60272668D01*
X49486133Y-60419867D01*
X49633332Y-60540670D01*
X49801270Y-60630435D01*
X49983494Y-60685712D01*
X50125514Y-60699700D01*
X51728486Y-60699700D01*
X51870506Y-60685712D01*
X52052730Y-60630435D01*
X52220668Y-60540670D01*
X52367867Y-60419867D01*
X52488670Y-60272668D01*
X52578435Y-60104730D01*
X52633712Y-59922506D01*
X52652377Y-59733000D01*
X52633712Y-59543494D01*
X52578435Y-59361270D01*
X52488670Y-59193332D01*
X52367867Y-59046133D01*
X52220668Y-58925330D01*
X52052730Y-58835565D01*
X51870506Y-58780288D01*
X51728486Y-58766300D01*
X50125514Y-58766300D01*
X49983494Y-58780288D01*
X49801270Y-58835565D01*
X49633332Y-58925330D01*
X49486133Y-59046133D01*
X49365330Y-59193332D01*
X49275565Y-59361270D01*
X49220288Y-59543494D01*
X49201623Y-59733000D01*
X44814700Y-59733000D01*
X44814700Y-50533000D01*
X51201623Y-50533000D01*
X51220288Y-50722506D01*
X51275565Y-50904730D01*
X51365330Y-51072668D01*
X51486133Y-51219867D01*
X51633332Y-51340670D01*
X51801270Y-51430435D01*
X51983494Y-51485712D01*
X52125514Y-51499700D01*
X53728486Y-51499700D01*
X53870506Y-51485712D01*
X54052730Y-51430435D01*
X54220668Y-51340670D01*
X54367867Y-51219867D01*
X54488670Y-51072668D01*
X54578435Y-50904730D01*
X54633712Y-50722506D01*
X54652377Y-50533000D01*
X54633712Y-50343494D01*
X54578435Y-50161270D01*
X54488670Y-49993332D01*
X54367867Y-49846133D01*
X54220668Y-49725330D01*
X54052730Y-49635565D01*
X53870506Y-49580288D01*
X53728486Y-49566300D01*
X52125514Y-49566300D01*
X51983494Y-49580288D01*
X51801270Y-49635565D01*
X51633332Y-49725330D01*
X51486133Y-49846133D01*
X51365330Y-49993332D01*
X51275565Y-50161270D01*
X51220288Y-50343494D01*
X51201623Y-50533000D01*
X44814700Y-50533000D01*
X44814700Y-48517767D01*
X49286173Y-48517767D01*
X49318815Y-48645936D01*
X49435297Y-48802723D01*
X49580128Y-48933773D01*
X49747743Y-49034050D01*
X49931700Y-49099700D01*
X50685700Y-49099700D01*
X50685700Y-48374300D01*
X51168300Y-48374300D01*
X51168300Y-49099700D01*
X51922300Y-49099700D01*
X52106257Y-49034050D01*
X52273872Y-48933773D01*
X52418703Y-48802723D01*
X52535185Y-48645936D01*
X52567827Y-48517767D01*
X52562080Y-48374300D01*
X51168300Y-48374300D01*
X50685700Y-48374300D01*
X49291920Y-48374300D01*
X49286173Y-48517767D01*
X44814700Y-48517767D01*
X44814700Y-47748233D01*
X49286173Y-47748233D01*
X49291920Y-47891700D01*
X50685700Y-47891700D01*
X50685700Y-47166300D01*
X51168300Y-47166300D01*
X51168300Y-47891700D01*
X52562080Y-47891700D01*
X52567827Y-47748233D01*
X52535185Y-47620064D01*
X52418703Y-47463277D01*
X52273872Y-47332227D01*
X52106257Y-47231950D01*
X51922300Y-47166300D01*
X51168300Y-47166300D01*
X50685700Y-47166300D01*
X49931700Y-47166300D01*
X49747743Y-47231950D01*
X49580128Y-47332227D01*
X49435297Y-47463277D01*
X49318815Y-47620064D01*
X49286173Y-47748233D01*
X44814700Y-47748233D01*
X44814700Y-44719200D01*
X77139301Y-44719200D01*
X77139301Y-67215609D01*
G37*
%TD.AperFunction*%
%TD*%
M02*
