%TF.GenerationSoftware,KiCad,Pcbnew,(5.1.9)-1*%
%TF.CreationDate,2021-06-18T12:17:45+07:00*%
%TF.ProjectId,TAS6424,54415336-3432-4342-9e6b-696361645f70,2*%
%TF.SameCoordinates,Original*%
%TF.FileFunction,Legend,Bot*%
%TF.FilePolarity,Positive*%
%FSLAX46Y46*%
G04 Gerber Fmt 4.6, Leading zero omitted, Abs format (unit mm)*
G04 Created by KiCad (PCBNEW (5.1.9)-1) date 2021-06-18 12:17:45*
%MOMM*%
%LPD*%
G01*
G04 APERTURE LIST*
%ADD10C,0.375000*%
%ADD11C,0.200000*%
%ADD12C,0.120000*%
%ADD13C,0.300000*%
%ADD14C,0.152400*%
%ADD15C,0.010000*%
%ADD16C,0.150000*%
G04 APERTURE END LIST*
D10*
X124887000Y-54393000D02*
X124887000Y-55250142D01*
X125401285Y-54221571D02*
X123601285Y-54821571D01*
X125401285Y-55421571D01*
X125401285Y-56021571D02*
X123601285Y-56021571D01*
X124887000Y-56621571D01*
X123601285Y-57221571D01*
X125401285Y-57221571D01*
X125401285Y-58078714D02*
X123601285Y-58078714D01*
X123601285Y-58764428D01*
X123687000Y-58935857D01*
X123772714Y-59021571D01*
X123944142Y-59107285D01*
X124201285Y-59107285D01*
X124372714Y-59021571D01*
X124458428Y-58935857D01*
X124544142Y-58764428D01*
X124544142Y-58078714D01*
X125401285Y-62193000D02*
X125401285Y-61164428D01*
X125401285Y-61678714D02*
X123601285Y-61678714D01*
X123858428Y-61507285D01*
X124029857Y-61335857D01*
X124115571Y-61164428D01*
X124096500Y-138456500D02*
X124096500Y-137599357D01*
X123582214Y-138627928D02*
X125382214Y-138027928D01*
X123582214Y-137427928D01*
X123582214Y-136827928D02*
X125382214Y-136827928D01*
X124096500Y-136227928D01*
X125382214Y-135627928D01*
X123582214Y-135627928D01*
X123582214Y-134770785D02*
X125382214Y-134770785D01*
X125382214Y-134085071D01*
X125296500Y-133913642D01*
X125210785Y-133827928D01*
X125039357Y-133742214D01*
X124782214Y-133742214D01*
X124610785Y-133827928D01*
X124525071Y-133913642D01*
X124439357Y-134085071D01*
X124439357Y-134770785D01*
X125210785Y-131685071D02*
X125296500Y-131599357D01*
X125382214Y-131427928D01*
X125382214Y-130999357D01*
X125296500Y-130827928D01*
X125210785Y-130742214D01*
X125039357Y-130656500D01*
X124867928Y-130656500D01*
X124610785Y-130742214D01*
X123582214Y-131770785D01*
X123582214Y-130656500D01*
X75707380Y-128793761D02*
X75707380Y-126793761D01*
X74945476Y-126793761D01*
X74755000Y-126889000D01*
X74659761Y-126984238D01*
X74564523Y-127174714D01*
X74564523Y-127460428D01*
X74659761Y-127650904D01*
X74755000Y-127746142D01*
X74945476Y-127841380D01*
X75707380Y-127841380D01*
X73421666Y-128793761D02*
X73612142Y-128698523D01*
X73707380Y-128603285D01*
X73802619Y-128412809D01*
X73802619Y-127841380D01*
X73707380Y-127650904D01*
X73612142Y-127555666D01*
X73421666Y-127460428D01*
X73135952Y-127460428D01*
X72945476Y-127555666D01*
X72850238Y-127650904D01*
X72755000Y-127841380D01*
X72755000Y-128412809D01*
X72850238Y-128603285D01*
X72945476Y-128698523D01*
X73135952Y-128793761D01*
X73421666Y-128793761D01*
X72088333Y-127460428D02*
X71707380Y-128793761D01*
X71326428Y-127841380D01*
X70945476Y-128793761D01*
X70564523Y-127460428D01*
X69040714Y-128698523D02*
X69231190Y-128793761D01*
X69612142Y-128793761D01*
X69802619Y-128698523D01*
X69897857Y-128508047D01*
X69897857Y-127746142D01*
X69802619Y-127555666D01*
X69612142Y-127460428D01*
X69231190Y-127460428D01*
X69040714Y-127555666D01*
X68945476Y-127746142D01*
X68945476Y-127936619D01*
X69897857Y-128127095D01*
X68088333Y-128793761D02*
X68088333Y-127460428D01*
X68088333Y-127841380D02*
X67993095Y-127650904D01*
X67897857Y-127555666D01*
X67707380Y-127460428D01*
X67516904Y-127460428D01*
X68643571Y-130956857D02*
X69786428Y-130956857D01*
X73596571Y-130893357D02*
X74739428Y-130893357D01*
X74168000Y-130321928D02*
X74168000Y-131464785D01*
D11*
X92075000Y-132207000D02*
X92075000Y-138938000D01*
X102235000Y-132207000D02*
X102235000Y-138938000D01*
X112458500Y-132270500D02*
X112458500Y-138938000D01*
X81788000Y-138938000D02*
X122682000Y-138938000D01*
D12*
X81788000Y-132207000D02*
X81788000Y-138938000D01*
D11*
X122682000Y-132207000D02*
X81788000Y-132207000D01*
X122682000Y-138938000D02*
X122682000Y-132207000D01*
X112522000Y-60769500D02*
X112522000Y-54038500D01*
X102298500Y-60769500D02*
X102298500Y-54038500D01*
X92138500Y-60769500D02*
X92138500Y-54038500D01*
X81915000Y-60769500D02*
X81915000Y-54038500D01*
X122682000Y-60769500D02*
X81915000Y-60769500D01*
X122682000Y-54038500D02*
X122682000Y-60769500D01*
X81915000Y-54038500D02*
X122682000Y-54038500D01*
D10*
X87248952Y-56054571D02*
X87248952Y-54721238D01*
X86772761Y-56816476D02*
X86296571Y-55387904D01*
X87534666Y-55387904D01*
X85153428Y-56114142D02*
X84010571Y-56114142D01*
X84582000Y-56685571D02*
X84582000Y-55542714D01*
X90169928Y-56177642D02*
X89027071Y-56177642D01*
X115696928Y-56114142D02*
X114554071Y-56114142D01*
X115125500Y-56685571D02*
X115125500Y-55542714D01*
X117982928Y-54721238D02*
X116840071Y-54721238D01*
X117411500Y-54721238D02*
X117411500Y-56721238D01*
X117221023Y-56435523D01*
X117030547Y-56245047D01*
X116840071Y-56149809D01*
X95440428Y-56114142D02*
X94297571Y-56114142D01*
X94869000Y-56685571D02*
X94869000Y-55542714D01*
X120713428Y-56177642D02*
X119570571Y-56177642D01*
X96488333Y-56721238D02*
X97726428Y-56721238D01*
X97059761Y-55959333D01*
X97345476Y-55959333D01*
X97535952Y-55864095D01*
X97631190Y-55768857D01*
X97726428Y-55578380D01*
X97726428Y-55102190D01*
X97631190Y-54911714D01*
X97535952Y-54816476D01*
X97345476Y-54721238D01*
X96774047Y-54721238D01*
X96583571Y-54816476D01*
X96488333Y-54911714D01*
X105473428Y-56114142D02*
X104330571Y-56114142D01*
X104902000Y-56685571D02*
X104902000Y-55542714D01*
X110489928Y-56177642D02*
X109347071Y-56177642D01*
X106616571Y-56530761D02*
X106711809Y-56626000D01*
X106902285Y-56721238D01*
X107378476Y-56721238D01*
X107568952Y-56626000D01*
X107664190Y-56530761D01*
X107759428Y-56340285D01*
X107759428Y-56149809D01*
X107664190Y-55864095D01*
X106521333Y-54721238D01*
X107759428Y-54721238D01*
X100456928Y-56177642D02*
X99314071Y-56177642D01*
X86677571Y-138509261D02*
X87820428Y-138509261D01*
X87249000Y-138509261D02*
X87249000Y-136509261D01*
X87439476Y-136794976D01*
X87629952Y-136985452D01*
X87820428Y-137080690D01*
X88963571Y-137116357D02*
X90106428Y-137116357D01*
X89535000Y-136544928D02*
X89535000Y-137687785D01*
X83947071Y-137052857D02*
X85089928Y-137052857D01*
X98043928Y-136699738D02*
X97948690Y-136604500D01*
X97758214Y-136509261D01*
X97282023Y-136509261D01*
X97091547Y-136604500D01*
X96996309Y-136699738D01*
X96901071Y-136890214D01*
X96901071Y-137080690D01*
X96996309Y-137366404D01*
X98139166Y-138509261D01*
X96901071Y-138509261D01*
X99187071Y-137116357D02*
X100329928Y-137116357D01*
X99758500Y-136544928D02*
X99758500Y-137687785D01*
X94170571Y-137052857D02*
X95313428Y-137052857D01*
X108172166Y-136509261D02*
X106934071Y-136509261D01*
X107600738Y-137271166D01*
X107315023Y-137271166D01*
X107124547Y-137366404D01*
X107029309Y-137461642D01*
X106934071Y-137652119D01*
X106934071Y-138128309D01*
X107029309Y-138318785D01*
X107124547Y-138414023D01*
X107315023Y-138509261D01*
X107886452Y-138509261D01*
X108076928Y-138414023D01*
X108172166Y-138318785D01*
X109220071Y-137116357D02*
X110362928Y-137116357D01*
X109791500Y-136544928D02*
X109791500Y-137687785D01*
X104203571Y-137052857D02*
X105346428Y-137052857D01*
X119507071Y-137116357D02*
X120649928Y-137116357D01*
X120078500Y-136544928D02*
X120078500Y-137687785D01*
X114490571Y-137052857D02*
X115633428Y-137052857D01*
X117411547Y-137175928D02*
X117411547Y-138509261D01*
X117887738Y-136414023D02*
X118363928Y-137842595D01*
X117125833Y-137842595D01*
D13*
X124602761Y-83536595D02*
X122602761Y-83536595D01*
X124602761Y-84393738D02*
X123555142Y-84393738D01*
X123364666Y-84298500D01*
X123269428Y-84108023D01*
X123269428Y-83822309D01*
X123364666Y-83631833D01*
X123459904Y-83536595D01*
X123269428Y-85060404D02*
X123269428Y-85822309D01*
X122602761Y-85346119D02*
X124317047Y-85346119D01*
X124507523Y-85441357D01*
X124602761Y-85631833D01*
X124602761Y-85822309D01*
X123269428Y-86203261D02*
X123269428Y-86965166D01*
X122602761Y-86488976D02*
X124317047Y-86488976D01*
X124507523Y-86584214D01*
X124602761Y-86774690D01*
X124602761Y-86965166D01*
X123269428Y-87631833D02*
X125269428Y-87631833D01*
X123364666Y-87631833D02*
X123269428Y-87822309D01*
X123269428Y-88203261D01*
X123364666Y-88393738D01*
X123459904Y-88488976D01*
X123650380Y-88584214D01*
X124221809Y-88584214D01*
X124412285Y-88488976D01*
X124507523Y-88393738D01*
X124602761Y-88203261D01*
X124602761Y-87822309D01*
X124507523Y-87631833D01*
X124507523Y-89346119D02*
X124602761Y-89536595D01*
X124602761Y-89917547D01*
X124507523Y-90108023D01*
X124317047Y-90203261D01*
X124221809Y-90203261D01*
X124031333Y-90108023D01*
X123936095Y-89917547D01*
X123936095Y-89631833D01*
X123840857Y-89441357D01*
X123650380Y-89346119D01*
X123555142Y-89346119D01*
X123364666Y-89441357D01*
X123269428Y-89631833D01*
X123269428Y-89917547D01*
X123364666Y-90108023D01*
X124412285Y-91060404D02*
X124507523Y-91155642D01*
X124602761Y-91060404D01*
X124507523Y-90965166D01*
X124412285Y-91060404D01*
X124602761Y-91060404D01*
X123364666Y-91060404D02*
X123459904Y-91155642D01*
X123555142Y-91060404D01*
X123459904Y-90965166D01*
X123364666Y-91060404D01*
X123555142Y-91060404D01*
X122507523Y-93441357D02*
X125078952Y-91727071D01*
X122507523Y-95536595D02*
X125078952Y-93822309D01*
X124602761Y-96203261D02*
X122602761Y-96203261D01*
X123364666Y-96203261D02*
X123269428Y-96393738D01*
X123269428Y-96774690D01*
X123364666Y-96965166D01*
X123459904Y-97060404D01*
X123650380Y-97155642D01*
X124221809Y-97155642D01*
X124412285Y-97060404D01*
X124507523Y-96965166D01*
X124602761Y-96774690D01*
X124602761Y-96393738D01*
X124507523Y-96203261D01*
X124602761Y-98298499D02*
X124507523Y-98108023D01*
X124317047Y-98012785D01*
X122602761Y-98012785D01*
X124602761Y-99346119D02*
X124507523Y-99155642D01*
X124412285Y-99060404D01*
X124221809Y-98965166D01*
X123650380Y-98965166D01*
X123459904Y-99060404D01*
X123364666Y-99155642D01*
X123269428Y-99346119D01*
X123269428Y-99631833D01*
X123364666Y-99822309D01*
X123459904Y-99917547D01*
X123650380Y-100012785D01*
X124221809Y-100012785D01*
X124412285Y-99917547D01*
X124507523Y-99822309D01*
X124602761Y-99631833D01*
X124602761Y-99346119D01*
X123269428Y-101727071D02*
X124888476Y-101727071D01*
X125078952Y-101631833D01*
X125174190Y-101536595D01*
X125269428Y-101346119D01*
X125269428Y-101060404D01*
X125174190Y-100869928D01*
X124507523Y-101727071D02*
X124602761Y-101536595D01*
X124602761Y-101155642D01*
X124507523Y-100965166D01*
X124412285Y-100869928D01*
X124221809Y-100774690D01*
X123650380Y-100774690D01*
X123459904Y-100869928D01*
X123364666Y-100965166D01*
X123269428Y-101155642D01*
X123269428Y-101536595D01*
X123364666Y-101727071D01*
X124412285Y-102679452D02*
X124507523Y-102774690D01*
X124602761Y-102679452D01*
X124507523Y-102584214D01*
X124412285Y-102679452D01*
X124602761Y-102679452D01*
X124602761Y-103631833D02*
X123269428Y-103631833D01*
X122602761Y-103631833D02*
X122698000Y-103536595D01*
X122793238Y-103631833D01*
X122698000Y-103727071D01*
X122602761Y-103631833D01*
X122793238Y-103631833D01*
X123269428Y-104584214D02*
X124602761Y-104584214D01*
X123459904Y-104584214D02*
X123364666Y-104679452D01*
X123269428Y-104869928D01*
X123269428Y-105155642D01*
X123364666Y-105346119D01*
X123555142Y-105441357D01*
X124602761Y-105441357D01*
X124507523Y-106298499D02*
X124602761Y-106488976D01*
X124602761Y-106869928D01*
X124507523Y-107060404D01*
X124317047Y-107155642D01*
X124221809Y-107155642D01*
X124031333Y-107060404D01*
X123936095Y-106869928D01*
X123936095Y-106584214D01*
X123840857Y-106393738D01*
X123650380Y-106298499D01*
X123555142Y-106298499D01*
X123364666Y-106393738D01*
X123269428Y-106584214D01*
X123269428Y-106869928D01*
X123364666Y-107060404D01*
X123269428Y-107727071D02*
X123269428Y-108488976D01*
X122602761Y-108012785D02*
X124317047Y-108012785D01*
X124507523Y-108108023D01*
X124602761Y-108298499D01*
X124602761Y-108488976D01*
X124602761Y-110012785D02*
X123555142Y-110012785D01*
X123364666Y-109917547D01*
X123269428Y-109727071D01*
X123269428Y-109346119D01*
X123364666Y-109155642D01*
X124507523Y-110012785D02*
X124602761Y-109822309D01*
X124602761Y-109346119D01*
X124507523Y-109155642D01*
X124317047Y-109060404D01*
X124126571Y-109060404D01*
X123936095Y-109155642D01*
X123840857Y-109346119D01*
X123840857Y-109822309D01*
X123745619Y-110012785D01*
X124602761Y-111250880D02*
X124507523Y-111060404D01*
X124317047Y-110965166D01*
X122602761Y-110965166D01*
X124602761Y-112869928D02*
X123555142Y-112869928D01*
X123364666Y-112774690D01*
X123269428Y-112584214D01*
X123269428Y-112203261D01*
X123364666Y-112012785D01*
X124507523Y-112869928D02*
X124602761Y-112679452D01*
X124602761Y-112203261D01*
X124507523Y-112012785D01*
X124317047Y-111917547D01*
X124126571Y-111917547D01*
X123936095Y-112012785D01*
X123840857Y-112203261D01*
X123840857Y-112679452D01*
X123745619Y-112869928D01*
X123269428Y-113536595D02*
X123269428Y-114298499D01*
X122602761Y-113822309D02*
X124317047Y-113822309D01*
X124507523Y-113917547D01*
X124602761Y-114108023D01*
X124602761Y-114298499D01*
X124602761Y-115250880D02*
X124507523Y-115060404D01*
X124412285Y-114965166D01*
X124221809Y-114869928D01*
X123650380Y-114869928D01*
X123459904Y-114965166D01*
X123364666Y-115060404D01*
X123269428Y-115250880D01*
X123269428Y-115536595D01*
X123364666Y-115727071D01*
X123459904Y-115822309D01*
X123650380Y-115917547D01*
X124221809Y-115917547D01*
X124412285Y-115822309D01*
X124507523Y-115727071D01*
X124602761Y-115536595D01*
X124602761Y-115250880D01*
X124602761Y-116774690D02*
X123269428Y-116774690D01*
X123650380Y-116774690D02*
X123459904Y-116869928D01*
X123364666Y-116965166D01*
X123269428Y-117155642D01*
X123269428Y-117346119D01*
X124412285Y-118012785D02*
X124507523Y-118108023D01*
X124602761Y-118012785D01*
X124507523Y-117917547D01*
X124412285Y-118012785D01*
X124602761Y-118012785D01*
X124602761Y-118965166D02*
X123269428Y-118965166D01*
X123650380Y-118965166D02*
X123459904Y-119060404D01*
X123364666Y-119155642D01*
X123269428Y-119346119D01*
X123269428Y-119536595D01*
X123269428Y-121060404D02*
X124602761Y-121060404D01*
X123269428Y-120203261D02*
X124317047Y-120203261D01*
X124507523Y-120298499D01*
X124602761Y-120488976D01*
X124602761Y-120774690D01*
X124507523Y-120965166D01*
X124412285Y-121060404D01*
X117681333Y-83694380D02*
X117681333Y-84646761D01*
X118252761Y-83503904D02*
X116252761Y-84170571D01*
X118252761Y-84837238D01*
X116919428Y-86361047D02*
X118252761Y-86361047D01*
X116919428Y-85503904D02*
X117967047Y-85503904D01*
X118157523Y-85599142D01*
X118252761Y-85789619D01*
X118252761Y-86075333D01*
X118157523Y-86265809D01*
X118062285Y-86361047D01*
X118252761Y-88170571D02*
X116252761Y-88170571D01*
X118157523Y-88170571D02*
X118252761Y-87980095D01*
X118252761Y-87599142D01*
X118157523Y-87408666D01*
X118062285Y-87313428D01*
X117871809Y-87218190D01*
X117300380Y-87218190D01*
X117109904Y-87313428D01*
X117014666Y-87408666D01*
X116919428Y-87599142D01*
X116919428Y-87980095D01*
X117014666Y-88170571D01*
X118252761Y-89122952D02*
X116919428Y-89122952D01*
X116252761Y-89122952D02*
X116348000Y-89027714D01*
X116443238Y-89122952D01*
X116348000Y-89218190D01*
X116252761Y-89122952D01*
X116443238Y-89122952D01*
X118252761Y-90361047D02*
X118157523Y-90170571D01*
X118062285Y-90075333D01*
X117871809Y-89980095D01*
X117300380Y-89980095D01*
X117109904Y-90075333D01*
X117014666Y-90170571D01*
X116919428Y-90361047D01*
X116919428Y-90646761D01*
X117014666Y-90837238D01*
X117109904Y-90932476D01*
X117300380Y-91027714D01*
X117871809Y-91027714D01*
X118062285Y-90932476D01*
X118157523Y-90837238D01*
X118252761Y-90646761D01*
X118252761Y-90361047D01*
X117681333Y-93313428D02*
X117681333Y-94265809D01*
X118252761Y-93122952D02*
X116252761Y-93789619D01*
X118252761Y-94456285D01*
X118252761Y-95122952D02*
X116919428Y-95122952D01*
X117109904Y-95122952D02*
X117014666Y-95218190D01*
X116919428Y-95408666D01*
X116919428Y-95694380D01*
X117014666Y-95884857D01*
X117205142Y-95980095D01*
X118252761Y-95980095D01*
X117205142Y-95980095D02*
X117014666Y-96075333D01*
X116919428Y-96265809D01*
X116919428Y-96551523D01*
X117014666Y-96742000D01*
X117205142Y-96837238D01*
X118252761Y-96837238D01*
X116919428Y-97789619D02*
X118919428Y-97789619D01*
X117014666Y-97789619D02*
X116919428Y-97980095D01*
X116919428Y-98361047D01*
X117014666Y-98551523D01*
X117109904Y-98646761D01*
X117300380Y-98742000D01*
X117871809Y-98742000D01*
X118062285Y-98646761D01*
X118157523Y-98551523D01*
X118252761Y-98361047D01*
X118252761Y-97980095D01*
X118157523Y-97789619D01*
X118252761Y-99884857D02*
X118157523Y-99694380D01*
X117967047Y-99599142D01*
X116252761Y-99599142D01*
X118252761Y-100646761D02*
X116919428Y-100646761D01*
X116252761Y-100646761D02*
X116348000Y-100551523D01*
X116443238Y-100646761D01*
X116348000Y-100742000D01*
X116252761Y-100646761D01*
X116443238Y-100646761D01*
X116919428Y-101313428D02*
X116919428Y-102075333D01*
X118252761Y-101599142D02*
X116538476Y-101599142D01*
X116348000Y-101694380D01*
X116252761Y-101884857D01*
X116252761Y-102075333D01*
X118252761Y-102742000D02*
X116919428Y-102742000D01*
X116252761Y-102742000D02*
X116348000Y-102646761D01*
X116443238Y-102742000D01*
X116348000Y-102837238D01*
X116252761Y-102742000D01*
X116443238Y-102742000D01*
X118157523Y-104456285D02*
X118252761Y-104265809D01*
X118252761Y-103884857D01*
X118157523Y-103694380D01*
X117967047Y-103599142D01*
X117205142Y-103599142D01*
X117014666Y-103694380D01*
X116919428Y-103884857D01*
X116919428Y-104265809D01*
X117014666Y-104456285D01*
X117205142Y-104551523D01*
X117395619Y-104551523D01*
X117586095Y-103599142D01*
X118252761Y-105408666D02*
X116919428Y-105408666D01*
X117300380Y-105408666D02*
X117109904Y-105503904D01*
X117014666Y-105599142D01*
X116919428Y-105789619D01*
X116919428Y-105980095D01*
X121300761Y-84472833D02*
X119300761Y-84472833D01*
X121205523Y-84472833D02*
X121300761Y-84282357D01*
X121300761Y-83901404D01*
X121205523Y-83710928D01*
X121110285Y-83615690D01*
X120919809Y-83520452D01*
X120348380Y-83520452D01*
X120157904Y-83615690D01*
X120062666Y-83710928D01*
X119967428Y-83901404D01*
X119967428Y-84282357D01*
X120062666Y-84472833D01*
X121205523Y-86187119D02*
X121300761Y-85996642D01*
X121300761Y-85615690D01*
X121205523Y-85425214D01*
X121015047Y-85329976D01*
X120253142Y-85329976D01*
X120062666Y-85425214D01*
X119967428Y-85615690D01*
X119967428Y-85996642D01*
X120062666Y-86187119D01*
X120253142Y-86282357D01*
X120443619Y-86282357D01*
X120634095Y-85329976D01*
X121205523Y-87044261D02*
X121300761Y-87234738D01*
X121300761Y-87615690D01*
X121205523Y-87806166D01*
X121015047Y-87901404D01*
X120919809Y-87901404D01*
X120729333Y-87806166D01*
X120634095Y-87615690D01*
X120634095Y-87329976D01*
X120538857Y-87139500D01*
X120348380Y-87044261D01*
X120253142Y-87044261D01*
X120062666Y-87139500D01*
X119967428Y-87329976D01*
X119967428Y-87615690D01*
X120062666Y-87806166D01*
X121300761Y-88758547D02*
X119967428Y-88758547D01*
X119300761Y-88758547D02*
X119396000Y-88663309D01*
X119491238Y-88758547D01*
X119396000Y-88853785D01*
X119300761Y-88758547D01*
X119491238Y-88758547D01*
X119967428Y-90568071D02*
X121586476Y-90568071D01*
X121776952Y-90472833D01*
X121872190Y-90377595D01*
X121967428Y-90187119D01*
X121967428Y-89901404D01*
X121872190Y-89710928D01*
X121205523Y-90568071D02*
X121300761Y-90377595D01*
X121300761Y-89996642D01*
X121205523Y-89806166D01*
X121110285Y-89710928D01*
X120919809Y-89615690D01*
X120348380Y-89615690D01*
X120157904Y-89710928D01*
X120062666Y-89806166D01*
X119967428Y-89996642D01*
X119967428Y-90377595D01*
X120062666Y-90568071D01*
X119967428Y-91520452D02*
X121300761Y-91520452D01*
X120157904Y-91520452D02*
X120062666Y-91615690D01*
X119967428Y-91806166D01*
X119967428Y-92091880D01*
X120062666Y-92282357D01*
X120253142Y-92377595D01*
X121300761Y-92377595D01*
X121205523Y-94091880D02*
X121300761Y-93901404D01*
X121300761Y-93520452D01*
X121205523Y-93329976D01*
X121015047Y-93234738D01*
X120253142Y-93234738D01*
X120062666Y-93329976D01*
X119967428Y-93520452D01*
X119967428Y-93901404D01*
X120062666Y-94091880D01*
X120253142Y-94187119D01*
X120443619Y-94187119D01*
X120634095Y-93234738D01*
X121300761Y-95901404D02*
X119300761Y-95901404D01*
X121205523Y-95901404D02*
X121300761Y-95710928D01*
X121300761Y-95329976D01*
X121205523Y-95139499D01*
X121110285Y-95044261D01*
X120919809Y-94949023D01*
X120348380Y-94949023D01*
X120157904Y-95044261D01*
X120062666Y-95139499D01*
X119967428Y-95329976D01*
X119967428Y-95710928D01*
X120062666Y-95901404D01*
X121300761Y-98377595D02*
X119300761Y-98377595D01*
X120062666Y-98377595D02*
X119967428Y-98568071D01*
X119967428Y-98949023D01*
X120062666Y-99139499D01*
X120157904Y-99234738D01*
X120348380Y-99329976D01*
X120919809Y-99329976D01*
X121110285Y-99234738D01*
X121205523Y-99139499D01*
X121300761Y-98949023D01*
X121300761Y-98568071D01*
X121205523Y-98377595D01*
X119967428Y-99996642D02*
X121300761Y-100472833D01*
X119967428Y-100949023D02*
X121300761Y-100472833D01*
X121776952Y-100282357D01*
X121872190Y-100187119D01*
X121967428Y-99996642D01*
X121300761Y-103234738D02*
X119967428Y-103234738D01*
X119300761Y-103234738D02*
X119396000Y-103139499D01*
X119491238Y-103234738D01*
X119396000Y-103329976D01*
X119300761Y-103234738D01*
X119491238Y-103234738D01*
X119967428Y-104187119D02*
X121300761Y-104187119D01*
X120157904Y-104187119D02*
X120062666Y-104282357D01*
X119967428Y-104472833D01*
X119967428Y-104758547D01*
X120062666Y-104949023D01*
X120253142Y-105044261D01*
X121300761Y-105044261D01*
X121205523Y-105901404D02*
X121300761Y-106091880D01*
X121300761Y-106472833D01*
X121205523Y-106663309D01*
X121015047Y-106758547D01*
X120919809Y-106758547D01*
X120729333Y-106663309D01*
X120634095Y-106472833D01*
X120634095Y-106187119D01*
X120538857Y-105996642D01*
X120348380Y-105901404D01*
X120253142Y-105901404D01*
X120062666Y-105996642D01*
X119967428Y-106187119D01*
X119967428Y-106472833D01*
X120062666Y-106663309D01*
X119967428Y-107329976D02*
X119967428Y-108091880D01*
X119300761Y-107615690D02*
X121015047Y-107615690D01*
X121205523Y-107710928D01*
X121300761Y-107901404D01*
X121300761Y-108091880D01*
X121300761Y-109615690D02*
X120253142Y-109615690D01*
X120062666Y-109520452D01*
X119967428Y-109329976D01*
X119967428Y-108949023D01*
X120062666Y-108758547D01*
X121205523Y-109615690D02*
X121300761Y-109425214D01*
X121300761Y-108949023D01*
X121205523Y-108758547D01*
X121015047Y-108663309D01*
X120824571Y-108663309D01*
X120634095Y-108758547D01*
X120538857Y-108949023D01*
X120538857Y-109425214D01*
X120443619Y-109615690D01*
X121300761Y-110853785D02*
X121205523Y-110663309D01*
X121015047Y-110568071D01*
X119300761Y-110568071D01*
X121300761Y-112472833D02*
X120253142Y-112472833D01*
X120062666Y-112377595D01*
X119967428Y-112187119D01*
X119967428Y-111806166D01*
X120062666Y-111615690D01*
X121205523Y-112472833D02*
X121300761Y-112282357D01*
X121300761Y-111806166D01*
X121205523Y-111615690D01*
X121015047Y-111520452D01*
X120824571Y-111520452D01*
X120634095Y-111615690D01*
X120538857Y-111806166D01*
X120538857Y-112282357D01*
X120443619Y-112472833D01*
X119967428Y-113139499D02*
X119967428Y-113901404D01*
X119300761Y-113425214D02*
X121015047Y-113425214D01*
X121205523Y-113520452D01*
X121300761Y-113710928D01*
X121300761Y-113901404D01*
X121300761Y-114853785D02*
X121205523Y-114663309D01*
X121110285Y-114568071D01*
X120919809Y-114472833D01*
X120348380Y-114472833D01*
X120157904Y-114568071D01*
X120062666Y-114663309D01*
X119967428Y-114853785D01*
X119967428Y-115139499D01*
X120062666Y-115329976D01*
X120157904Y-115425214D01*
X120348380Y-115520452D01*
X120919809Y-115520452D01*
X121110285Y-115425214D01*
X121205523Y-115329976D01*
X121300761Y-115139499D01*
X121300761Y-114853785D01*
X121300761Y-116377595D02*
X119967428Y-116377595D01*
X120348380Y-116377595D02*
X120157904Y-116472833D01*
X120062666Y-116568071D01*
X119967428Y-116758547D01*
X119967428Y-116949023D01*
D12*
%TO.C,C45*%
X104591752Y-65051000D02*
X104069248Y-65051000D01*
X104591752Y-66521000D02*
X104069248Y-66521000D01*
%TO.C,C23*%
X95364700Y-80810980D02*
X95364700Y-80529820D01*
X94344700Y-80810980D02*
X94344700Y-80529820D01*
%TO.C,C24*%
X96249700Y-80529820D02*
X96249700Y-80810980D01*
X97269700Y-80529820D02*
X97269700Y-80810980D01*
%TO.C,C25*%
X99174700Y-80810980D02*
X99174700Y-80529820D01*
X98154700Y-80810980D02*
X98154700Y-80529820D01*
%TO.C,C26*%
X100694700Y-80529820D02*
X100694700Y-80810980D01*
X101714700Y-80529820D02*
X101714700Y-80810980D01*
%TO.C,C27*%
X103619700Y-80810980D02*
X103619700Y-80529820D01*
X102599700Y-80810980D02*
X102599700Y-80529820D01*
%TO.C,C28*%
X105139700Y-80529820D02*
X105139700Y-80810980D01*
X106159700Y-80529820D02*
X106159700Y-80810980D01*
%TO.C,C29*%
X108064700Y-80810980D02*
X108064700Y-80529820D01*
X107044700Y-80810980D02*
X107044700Y-80529820D01*
%TO.C,C30*%
X108949700Y-80529820D02*
X108949700Y-80810980D01*
X109969700Y-80529820D02*
X109969700Y-80810980D01*
%TO.C,C33*%
X99835580Y-83373500D02*
X99554420Y-83373500D01*
X99835580Y-84393500D02*
X99554420Y-84393500D01*
%TO.C,C36*%
X91530500Y-81145748D02*
X91530500Y-81668252D01*
X93000500Y-81145748D02*
X93000500Y-81668252D01*
%TO.C,C37*%
X104894748Y-84682000D02*
X105417252Y-84682000D01*
X104894748Y-83212000D02*
X105417252Y-83212000D01*
%TO.C,C38*%
X111660000Y-81082248D02*
X111660000Y-81604752D01*
X113130000Y-81082248D02*
X113130000Y-81604752D01*
%TO.C,C39*%
X91940748Y-67625900D02*
X92463252Y-67625900D01*
X91940748Y-66155900D02*
X92463252Y-66155900D01*
%TO.C,C40*%
X100464252Y-65051000D02*
X99941748Y-65051000D01*
X100464252Y-66521000D02*
X99941748Y-66521000D01*
%TO.C,C46*%
X112070248Y-67600500D02*
X112592752Y-67600500D01*
X112070248Y-66130500D02*
X112592752Y-66130500D01*
%TO.C,C47*%
X85520920Y-62016100D02*
X85802080Y-62016100D01*
X85520920Y-60996100D02*
X85802080Y-60996100D01*
%TO.C,C48*%
X88353020Y-62016100D02*
X88634180Y-62016100D01*
X88353020Y-60996100D02*
X88634180Y-60996100D01*
%TO.C,C49*%
X95680920Y-62016100D02*
X95962080Y-62016100D01*
X95680920Y-60996100D02*
X95962080Y-60996100D01*
%TO.C,C50*%
X98513020Y-62016100D02*
X98794180Y-62016100D01*
X98513020Y-60996100D02*
X98794180Y-60996100D01*
%TO.C,C51*%
X105788520Y-62016100D02*
X106069680Y-62016100D01*
X105788520Y-60996100D02*
X106069680Y-60996100D01*
%TO.C,C52*%
X108634920Y-62016100D02*
X108916080Y-62016100D01*
X108634920Y-60996100D02*
X108916080Y-60996100D01*
%TO.C,C53*%
X116000920Y-62016100D02*
X116282080Y-62016100D01*
X116000920Y-60996100D02*
X116282080Y-60996100D01*
%TO.C,C54*%
X118869520Y-62016100D02*
X119150680Y-62016100D01*
X118869520Y-60996100D02*
X119150680Y-60996100D01*
%TO.C,C65*%
X109152900Y-112190920D02*
X109152900Y-112472080D01*
X110172900Y-112190920D02*
X110172900Y-112472080D01*
%TO.C,C66*%
X108079000Y-112472080D02*
X108079000Y-112190920D01*
X107059000Y-112472080D02*
X107059000Y-112190920D01*
%TO.C,C67*%
X105154000Y-112190920D02*
X105154000Y-112472080D01*
X106174000Y-112190920D02*
X106174000Y-112472080D01*
%TO.C,C68*%
X103697500Y-112472080D02*
X103697500Y-112190920D01*
X102677500Y-112472080D02*
X102677500Y-112190920D01*
%TO.C,C69*%
X100709000Y-112190920D02*
X100709000Y-112472080D01*
X101729000Y-112190920D02*
X101729000Y-112472080D01*
%TO.C,C70*%
X99252500Y-112472080D02*
X99252500Y-112190920D01*
X98232500Y-112472080D02*
X98232500Y-112190920D01*
%TO.C,C71*%
X96264000Y-112190920D02*
X96264000Y-112472080D01*
X97284000Y-112190920D02*
X97284000Y-112472080D01*
%TO.C,C72*%
X95506000Y-112472080D02*
X95506000Y-112190920D01*
X94486000Y-112472080D02*
X94486000Y-112190920D01*
%TO.C,C74*%
X99899080Y-108519500D02*
X99617920Y-108519500D01*
X99899080Y-109539500D02*
X99617920Y-109539500D01*
%TO.C,C76*%
X112939500Y-111894252D02*
X112939500Y-111371748D01*
X111469500Y-111894252D02*
X111469500Y-111371748D01*
%TO.C,C77*%
X104767748Y-109764500D02*
X105290252Y-109764500D01*
X104767748Y-108294500D02*
X105290252Y-108294500D01*
%TO.C,C78*%
X93064000Y-111894252D02*
X93064000Y-111371748D01*
X91594000Y-111894252D02*
X91594000Y-111371748D01*
%TO.C,C79*%
X112656252Y-125312500D02*
X112133748Y-125312500D01*
X112656252Y-126782500D02*
X112133748Y-126782500D01*
%TO.C,C80*%
X104069248Y-128052500D02*
X104591752Y-128052500D01*
X104069248Y-126582500D02*
X104591752Y-126582500D01*
%TO.C,C85*%
X100005248Y-128052500D02*
X100527752Y-128052500D01*
X100005248Y-126582500D02*
X100527752Y-126582500D01*
%TO.C,C86*%
X92526752Y-125312500D02*
X92004248Y-125312500D01*
X92526752Y-126782500D02*
X92004248Y-126782500D01*
%TO.C,C87*%
X119012580Y-130960400D02*
X118731420Y-130960400D01*
X119012580Y-131980400D02*
X118731420Y-131980400D01*
%TO.C,C88*%
X116140780Y-130960400D02*
X115859620Y-130960400D01*
X116140780Y-131980400D02*
X115859620Y-131980400D01*
%TO.C,C89*%
X108916080Y-130973100D02*
X108634920Y-130973100D01*
X108916080Y-131993100D02*
X108634920Y-131993100D01*
%TO.C,C90*%
X106058580Y-130973100D02*
X105777420Y-130973100D01*
X106058580Y-131993100D02*
X105777420Y-131993100D01*
%TO.C,C91*%
X98768780Y-131011200D02*
X98487620Y-131011200D01*
X98768780Y-132031200D02*
X98487620Y-132031200D01*
%TO.C,C92*%
X95898580Y-131011200D02*
X95617420Y-131011200D01*
X95898580Y-132031200D02*
X95617420Y-132031200D01*
%TO.C,C93*%
X88708780Y-130960400D02*
X88427620Y-130960400D01*
X88708780Y-131980400D02*
X88427620Y-131980400D01*
%TO.C,C94*%
X85865580Y-130960400D02*
X85584420Y-130960400D01*
X85865580Y-131980400D02*
X85584420Y-131980400D01*
D14*
%TO.C,L1*%
X93674001Y-70678500D02*
X93674001Y-74482500D01*
X92329741Y-69210154D02*
X93674001Y-70678500D01*
X86919999Y-70678500D02*
X88264259Y-69210154D01*
X86919999Y-74482500D02*
X86919999Y-70678500D01*
X88264259Y-75950846D02*
X86919999Y-74482500D01*
X93674001Y-74482500D02*
X92329741Y-75950846D01*
%TO.C,L2*%
X101675001Y-69450400D02*
X101675001Y-73254400D01*
X100330741Y-67982054D02*
X101675001Y-69450400D01*
X94920999Y-69450400D02*
X96265259Y-67982054D01*
X94920999Y-73254400D02*
X94920999Y-69450400D01*
X96265259Y-74722746D02*
X94920999Y-73254400D01*
X101675001Y-73254400D02*
X100330741Y-74722746D01*
%TO.C,L7*%
X109612501Y-69450400D02*
X109612501Y-73254400D01*
X108268241Y-67982054D02*
X109612501Y-69450400D01*
X102858499Y-69450400D02*
X104202759Y-67982054D01*
X102858499Y-73254400D02*
X102858499Y-69450400D01*
X104202759Y-74722746D02*
X102858499Y-73254400D01*
X109612501Y-73254400D02*
X108268241Y-74722746D01*
%TO.C,L8*%
X117613501Y-70678500D02*
X117613501Y-74482500D01*
X116269241Y-69210154D02*
X117613501Y-70678500D01*
X110859499Y-70678500D02*
X112203759Y-69210154D01*
X110859499Y-74482500D02*
X110859499Y-70678500D01*
X112203759Y-75950846D02*
X110859499Y-74482500D01*
X117613501Y-74482500D02*
X116269241Y-75950846D01*
%TO.C,L9*%
X110922999Y-122399600D02*
X110922999Y-118595600D01*
X112267259Y-123867946D02*
X110922999Y-122399600D01*
X117677001Y-122399600D02*
X116332741Y-123867946D01*
X117677001Y-118595600D02*
X117677001Y-122399600D01*
X116332741Y-117127254D02*
X117677001Y-118595600D01*
X110922999Y-118595600D02*
X112267259Y-117127254D01*
%TO.C,L10*%
X102858499Y-123568000D02*
X102858499Y-119764000D01*
X104202759Y-125036346D02*
X102858499Y-123568000D01*
X109612501Y-123568000D02*
X108268241Y-125036346D01*
X109612501Y-119764000D02*
X109612501Y-123568000D01*
X108268241Y-118295654D02*
X109612501Y-119764000D01*
X102858499Y-119764000D02*
X104202759Y-118295654D01*
%TO.C,L15*%
X94984499Y-123568000D02*
X94984499Y-119764000D01*
X96328759Y-125036346D02*
X94984499Y-123568000D01*
X101738501Y-123568000D02*
X100394241Y-125036346D01*
X101738501Y-119764000D02*
X101738501Y-123568000D01*
X100394241Y-118295654D02*
X101738501Y-119764000D01*
X94984499Y-119764000D02*
X96328759Y-118295654D01*
%TO.C,L16*%
X86983499Y-122399600D02*
X86983499Y-118595600D01*
X88327759Y-123867946D02*
X86983499Y-122399600D01*
X93737501Y-122399600D02*
X92393241Y-123867946D01*
X93737501Y-118595600D02*
X93737501Y-122399600D01*
X92393241Y-117127254D02*
X93737501Y-118595600D01*
X86983499Y-118595600D02*
X88327759Y-117127254D01*
D15*
%TO.C,J5*%
G36*
X129925885Y-92138500D02*
G01*
X129925885Y-89774347D01*
X126487116Y-89774347D01*
X126487116Y-90038116D01*
X129662116Y-90038116D01*
X129662116Y-91874731D01*
X126487116Y-91874731D01*
X126487116Y-90038116D01*
X126487116Y-89774347D01*
X126233116Y-89774347D01*
X126233116Y-92138500D01*
X129925885Y-92138500D01*
G37*
X129925885Y-92138500D02*
X129925885Y-89774347D01*
X126487116Y-89774347D01*
X126487116Y-90038116D01*
X129662116Y-90038116D01*
X129662116Y-91874731D01*
X126487116Y-91874731D01*
X126487116Y-90038116D01*
X126487116Y-89774347D01*
X126233116Y-89774347D01*
X126233116Y-92138500D01*
X129925885Y-92138500D01*
G36*
X128206670Y-93034827D02*
G01*
X128206921Y-93145067D01*
X128207700Y-93237742D01*
X128209204Y-93314823D01*
X128211633Y-93378280D01*
X128215183Y-93430085D01*
X128220053Y-93472207D01*
X128226441Y-93506619D01*
X128234545Y-93535291D01*
X128244563Y-93560193D01*
X128256694Y-93583296D01*
X128262831Y-93593526D01*
X128308649Y-93649809D01*
X128366839Y-93691720D01*
X128435755Y-93718494D01*
X128513748Y-93729366D01*
X128554220Y-93728694D01*
X128615584Y-93719278D01*
X128673192Y-93700396D01*
X128721767Y-93674257D01*
X128754669Y-93644800D01*
X128770041Y-93628693D01*
X128778615Y-93628453D01*
X128780715Y-93632476D01*
X128793552Y-93653424D01*
X128817352Y-93680884D01*
X128847173Y-93710022D01*
X128878074Y-93736000D01*
X128904561Y-93753689D01*
X128924912Y-93763173D01*
X128946736Y-93769368D01*
X128974777Y-93772936D01*
X129013776Y-93774537D01*
X129056423Y-93774847D01*
X129108983Y-93774255D01*
X129147039Y-93772038D01*
X129175603Y-93767532D01*
X129199686Y-93760071D01*
X129213927Y-93753966D01*
X129279232Y-93713385D01*
X129331889Y-93658386D01*
X129371063Y-93590118D01*
X129395921Y-93509726D01*
X129397423Y-93501956D01*
X129400296Y-93475847D01*
X129402774Y-93431656D01*
X129404823Y-93370836D01*
X129406408Y-93294839D01*
X129407494Y-93205119D01*
X129408049Y-93103129D01*
X129408116Y-93050129D01*
X129408116Y-92656270D01*
X129154116Y-92656270D01*
X129154116Y-92929808D01*
X129154100Y-93176481D01*
X129153951Y-93254114D01*
X129153412Y-93314755D01*
X129152328Y-93360948D01*
X129150544Y-93395237D01*
X129147904Y-93420168D01*
X129144255Y-93438284D01*
X129139441Y-93452130D01*
X129137004Y-93457347D01*
X129111053Y-93488851D01*
X129073365Y-93507367D01*
X129027951Y-93511471D01*
X128998727Y-93506440D01*
X128977992Y-93500262D01*
X128961529Y-93492692D01*
X128948811Y-93481554D01*
X128939313Y-93464676D01*
X128932507Y-93439883D01*
X128927866Y-93405001D01*
X128924864Y-93357857D01*
X128922974Y-93296276D01*
X128921670Y-93218085D01*
X128921258Y-93186701D01*
X128917977Y-92929808D01*
X129154116Y-92929808D01*
X129154116Y-92656270D01*
X128470269Y-92656270D01*
X128470269Y-92929808D01*
X128676394Y-92929808D01*
X128673466Y-93170016D01*
X128670539Y-93410223D01*
X128643128Y-93433785D01*
X128605714Y-93454163D01*
X128563808Y-93458416D01*
X128523418Y-93446752D01*
X128498826Y-93428790D01*
X128470269Y-93400234D01*
X128470269Y-92929808D01*
X128470269Y-92656270D01*
X128206500Y-92656270D01*
X128206670Y-93034827D01*
G37*
X128206670Y-93034827D02*
X128206921Y-93145067D01*
X128207700Y-93237742D01*
X128209204Y-93314823D01*
X128211633Y-93378280D01*
X128215183Y-93430085D01*
X128220053Y-93472207D01*
X128226441Y-93506619D01*
X128234545Y-93535291D01*
X128244563Y-93560193D01*
X128256694Y-93583296D01*
X128262831Y-93593526D01*
X128308649Y-93649809D01*
X128366839Y-93691720D01*
X128435755Y-93718494D01*
X128513748Y-93729366D01*
X128554220Y-93728694D01*
X128615584Y-93719278D01*
X128673192Y-93700396D01*
X128721767Y-93674257D01*
X128754669Y-93644800D01*
X128770041Y-93628693D01*
X128778615Y-93628453D01*
X128780715Y-93632476D01*
X128793552Y-93653424D01*
X128817352Y-93680884D01*
X128847173Y-93710022D01*
X128878074Y-93736000D01*
X128904561Y-93753689D01*
X128924912Y-93763173D01*
X128946736Y-93769368D01*
X128974777Y-93772936D01*
X129013776Y-93774537D01*
X129056423Y-93774847D01*
X129108983Y-93774255D01*
X129147039Y-93772038D01*
X129175603Y-93767532D01*
X129199686Y-93760071D01*
X129213927Y-93753966D01*
X129279232Y-93713385D01*
X129331889Y-93658386D01*
X129371063Y-93590118D01*
X129395921Y-93509726D01*
X129397423Y-93501956D01*
X129400296Y-93475847D01*
X129402774Y-93431656D01*
X129404823Y-93370836D01*
X129406408Y-93294839D01*
X129407494Y-93205119D01*
X129408049Y-93103129D01*
X129408116Y-93050129D01*
X129408116Y-92656270D01*
X129154116Y-92656270D01*
X129154116Y-92929808D01*
X129154100Y-93176481D01*
X129153951Y-93254114D01*
X129153412Y-93314755D01*
X129152328Y-93360948D01*
X129150544Y-93395237D01*
X129147904Y-93420168D01*
X129144255Y-93438284D01*
X129139441Y-93452130D01*
X129137004Y-93457347D01*
X129111053Y-93488851D01*
X129073365Y-93507367D01*
X129027951Y-93511471D01*
X128998727Y-93506440D01*
X128977992Y-93500262D01*
X128961529Y-93492692D01*
X128948811Y-93481554D01*
X128939313Y-93464676D01*
X128932507Y-93439883D01*
X128927866Y-93405001D01*
X128924864Y-93357857D01*
X128922974Y-93296276D01*
X128921670Y-93218085D01*
X128921258Y-93186701D01*
X128917977Y-92929808D01*
X129154116Y-92929808D01*
X129154116Y-92656270D01*
X128470269Y-92656270D01*
X128470269Y-92929808D01*
X128676394Y-92929808D01*
X128673466Y-93170016D01*
X128670539Y-93410223D01*
X128643128Y-93433785D01*
X128605714Y-93454163D01*
X128563808Y-93458416D01*
X128523418Y-93446752D01*
X128498826Y-93428790D01*
X128470269Y-93400234D01*
X128470269Y-92929808D01*
X128470269Y-92656270D01*
X128206500Y-92656270D01*
X128206670Y-93034827D01*
G36*
X128208807Y-94529214D02*
G01*
X128209716Y-94641684D01*
X128210697Y-94736480D01*
X128211957Y-94815467D01*
X128213703Y-94880507D01*
X128216144Y-94933465D01*
X128219487Y-94976205D01*
X128223939Y-95010591D01*
X128229707Y-95038487D01*
X128236999Y-95061757D01*
X128246023Y-95082265D01*
X128256986Y-95101874D01*
X128270095Y-95122449D01*
X128275789Y-95131071D01*
X128323402Y-95185480D01*
X128385997Y-95228406D01*
X128436077Y-95250338D01*
X128471614Y-95258996D01*
X128521544Y-95265834D01*
X128580791Y-95270658D01*
X128644278Y-95273272D01*
X128706927Y-95273482D01*
X128763662Y-95271093D01*
X128809406Y-95265911D01*
X128815033Y-95264875D01*
X128895856Y-95240941D01*
X128962935Y-95203283D01*
X129017081Y-95151193D01*
X129059107Y-95083965D01*
X129079093Y-95035355D01*
X129082067Y-95017810D01*
X129085129Y-94983671D01*
X129088117Y-94935878D01*
X129090870Y-94877375D01*
X129093228Y-94811103D01*
X129094886Y-94746885D01*
X129100385Y-94488000D01*
X129254250Y-94485310D01*
X129408116Y-94482620D01*
X129408116Y-94219534D01*
X128936852Y-94216998D01*
X128841500Y-94216485D01*
X128841500Y-94482694D01*
X128841464Y-94700270D01*
X128841331Y-94771681D01*
X128840817Y-94826319D01*
X128839705Y-94866947D01*
X128837779Y-94896331D01*
X128834821Y-94917235D01*
X128830615Y-94932423D01*
X128824946Y-94944660D01*
X128821921Y-94949840D01*
X128804314Y-94972760D01*
X128781850Y-94988456D01*
X128750788Y-94998162D01*
X128707384Y-95003108D01*
X128655885Y-95004504D01*
X128598307Y-95003017D01*
X128555868Y-94996959D01*
X128524433Y-94984978D01*
X128499869Y-94965724D01*
X128485802Y-94948901D01*
X128479139Y-94938881D01*
X128474105Y-94927400D01*
X128470473Y-94911741D01*
X128468016Y-94889186D01*
X128466506Y-94857019D01*
X128465717Y-94812523D01*
X128465420Y-94752981D01*
X128465385Y-94704671D01*
X128465385Y-94488000D01*
X128653442Y-94485347D01*
X128841500Y-94482694D01*
X128841500Y-94216485D01*
X128465589Y-94214462D01*
X128455718Y-94146077D01*
X128445846Y-94077693D01*
X128325561Y-94074945D01*
X128205277Y-94072197D01*
X128208807Y-94529214D01*
G37*
X128208807Y-94529214D02*
X128209716Y-94641684D01*
X128210697Y-94736480D01*
X128211957Y-94815467D01*
X128213703Y-94880507D01*
X128216144Y-94933465D01*
X128219487Y-94976205D01*
X128223939Y-95010591D01*
X128229707Y-95038487D01*
X128236999Y-95061757D01*
X128246023Y-95082265D01*
X128256986Y-95101874D01*
X128270095Y-95122449D01*
X128275789Y-95131071D01*
X128323402Y-95185480D01*
X128385997Y-95228406D01*
X128436077Y-95250338D01*
X128471614Y-95258996D01*
X128521544Y-95265834D01*
X128580791Y-95270658D01*
X128644278Y-95273272D01*
X128706927Y-95273482D01*
X128763662Y-95271093D01*
X128809406Y-95265911D01*
X128815033Y-95264875D01*
X128895856Y-95240941D01*
X128962935Y-95203283D01*
X129017081Y-95151193D01*
X129059107Y-95083965D01*
X129079093Y-95035355D01*
X129082067Y-95017810D01*
X129085129Y-94983671D01*
X129088117Y-94935878D01*
X129090870Y-94877375D01*
X129093228Y-94811103D01*
X129094886Y-94746885D01*
X129100385Y-94488000D01*
X129254250Y-94485310D01*
X129408116Y-94482620D01*
X129408116Y-94219534D01*
X128936852Y-94216998D01*
X128841500Y-94216485D01*
X128841500Y-94482694D01*
X128841464Y-94700270D01*
X128841331Y-94771681D01*
X128840817Y-94826319D01*
X128839705Y-94866947D01*
X128837779Y-94896331D01*
X128834821Y-94917235D01*
X128830615Y-94932423D01*
X128824946Y-94944660D01*
X128821921Y-94949840D01*
X128804314Y-94972760D01*
X128781850Y-94988456D01*
X128750788Y-94998162D01*
X128707384Y-95003108D01*
X128655885Y-95004504D01*
X128598307Y-95003017D01*
X128555868Y-94996959D01*
X128524433Y-94984978D01*
X128499869Y-94965724D01*
X128485802Y-94948901D01*
X128479139Y-94938881D01*
X128474105Y-94927400D01*
X128470473Y-94911741D01*
X128468016Y-94889186D01*
X128466506Y-94857019D01*
X128465717Y-94812523D01*
X128465420Y-94752981D01*
X128465385Y-94704671D01*
X128465385Y-94488000D01*
X128653442Y-94485347D01*
X128841500Y-94482694D01*
X128841500Y-94216485D01*
X128465589Y-94214462D01*
X128455718Y-94146077D01*
X128445846Y-94077693D01*
X128325561Y-94074945D01*
X128205277Y-94072197D01*
X128208807Y-94529214D01*
G36*
X128207269Y-96125031D02*
G01*
X128208561Y-96197908D01*
X128210687Y-96262539D01*
X128213648Y-96314957D01*
X128216679Y-96345890D01*
X128232559Y-96421495D01*
X128258004Y-96487011D01*
X128291548Y-96539433D01*
X128327324Y-96572842D01*
X128352356Y-96589224D01*
X128376657Y-96602582D01*
X128402504Y-96613222D01*
X128432174Y-96621448D01*
X128467944Y-96627566D01*
X128512089Y-96631882D01*
X128566886Y-96634701D01*
X128634612Y-96636328D01*
X128717544Y-96637069D01*
X128807308Y-96637231D01*
X128905912Y-96637028D01*
X128987257Y-96636213D01*
X129053619Y-96634483D01*
X129107275Y-96631531D01*
X129150501Y-96627053D01*
X129185574Y-96620742D01*
X129214770Y-96612293D01*
X129240366Y-96601401D01*
X129264638Y-96587761D01*
X129287292Y-96572842D01*
X129325190Y-96536452D01*
X129357696Y-96484937D01*
X129382719Y-96422430D01*
X129398047Y-96353923D01*
X129401523Y-96317513D01*
X129404142Y-96265920D01*
X129405926Y-96202695D01*
X129406898Y-96131387D01*
X129407082Y-96055548D01*
X129406501Y-95978727D01*
X129405176Y-95904474D01*
X129403132Y-95836339D01*
X129400392Y-95777873D01*
X129396977Y-95732626D01*
X129393873Y-95708857D01*
X129372775Y-95630745D01*
X129339984Y-95567651D01*
X129294393Y-95518513D01*
X129234893Y-95482268D01*
X129160377Y-95457854D01*
X129124749Y-95450941D01*
X129093057Y-95447619D01*
X129045410Y-95444965D01*
X128985382Y-95442977D01*
X128916544Y-95441656D01*
X128902953Y-95441537D01*
X128902953Y-95715065D01*
X128959037Y-95715528D01*
X129004152Y-95716486D01*
X129034926Y-95717902D01*
X129044395Y-95718843D01*
X129090745Y-95733871D01*
X129124926Y-95762139D01*
X129144342Y-95801485D01*
X129144500Y-95802116D01*
X129146845Y-95821576D01*
X129148775Y-95857270D01*
X129150206Y-95905899D01*
X129151054Y-95964162D01*
X129151237Y-96028758D01*
X129151061Y-96061303D01*
X129150321Y-96134601D01*
X129149308Y-96190987D01*
X129147816Y-96233087D01*
X129145642Y-96263527D01*
X129142580Y-96284932D01*
X129138425Y-96299929D01*
X129132972Y-96311144D01*
X129131375Y-96313676D01*
X129119547Y-96329567D01*
X129105730Y-96342081D01*
X129087579Y-96351617D01*
X129062748Y-96358571D01*
X129028892Y-96363342D01*
X128983665Y-96366326D01*
X128924721Y-96367920D01*
X128849715Y-96368523D01*
X128807308Y-96368577D01*
X128716763Y-96368653D01*
X128643820Y-96367773D01*
X128586558Y-96364279D01*
X128543053Y-96356511D01*
X128511383Y-96342808D01*
X128489624Y-96321512D01*
X128475855Y-96290963D01*
X128468151Y-96249501D01*
X128464590Y-96195467D01*
X128463250Y-96127201D01*
X128462616Y-96071072D01*
X128462009Y-95984760D01*
X128462878Y-95915676D01*
X128465565Y-95861540D01*
X128470413Y-95820074D01*
X128477764Y-95789001D01*
X128487960Y-95766040D01*
X128501345Y-95748914D01*
X128512479Y-95739412D01*
X128522311Y-95732896D01*
X128533801Y-95727867D01*
X128549560Y-95724089D01*
X128572195Y-95721322D01*
X128604314Y-95719329D01*
X128648527Y-95717871D01*
X128707441Y-95716710D01*
X128771364Y-95715774D01*
X128839271Y-95715134D01*
X128902953Y-95715065D01*
X128902953Y-95441537D01*
X128842469Y-95441004D01*
X128766730Y-95441019D01*
X128692900Y-95441704D01*
X128624551Y-95443058D01*
X128565256Y-95445081D01*
X128518586Y-95447775D01*
X128489808Y-95450856D01*
X128409314Y-95470386D01*
X128344063Y-95501278D01*
X128292982Y-95544658D01*
X128254997Y-95601648D01*
X128229037Y-95673373D01*
X128216920Y-95736726D01*
X128213247Y-95775781D01*
X128210397Y-95830390D01*
X128208373Y-95896586D01*
X128207176Y-95970403D01*
X128206807Y-96047873D01*
X128207269Y-96125031D01*
G37*
X128207269Y-96125031D02*
X128208561Y-96197908D01*
X128210687Y-96262539D01*
X128213648Y-96314957D01*
X128216679Y-96345890D01*
X128232559Y-96421495D01*
X128258004Y-96487011D01*
X128291548Y-96539433D01*
X128327324Y-96572842D01*
X128352356Y-96589224D01*
X128376657Y-96602582D01*
X128402504Y-96613222D01*
X128432174Y-96621448D01*
X128467944Y-96627566D01*
X128512089Y-96631882D01*
X128566886Y-96634701D01*
X128634612Y-96636328D01*
X128717544Y-96637069D01*
X128807308Y-96637231D01*
X128905912Y-96637028D01*
X128987257Y-96636213D01*
X129053619Y-96634483D01*
X129107275Y-96631531D01*
X129150501Y-96627053D01*
X129185574Y-96620742D01*
X129214770Y-96612293D01*
X129240366Y-96601401D01*
X129264638Y-96587761D01*
X129287292Y-96572842D01*
X129325190Y-96536452D01*
X129357696Y-96484937D01*
X129382719Y-96422430D01*
X129398047Y-96353923D01*
X129401523Y-96317513D01*
X129404142Y-96265920D01*
X129405926Y-96202695D01*
X129406898Y-96131387D01*
X129407082Y-96055548D01*
X129406501Y-95978727D01*
X129405176Y-95904474D01*
X129403132Y-95836339D01*
X129400392Y-95777873D01*
X129396977Y-95732626D01*
X129393873Y-95708857D01*
X129372775Y-95630745D01*
X129339984Y-95567651D01*
X129294393Y-95518513D01*
X129234893Y-95482268D01*
X129160377Y-95457854D01*
X129124749Y-95450941D01*
X129093057Y-95447619D01*
X129045410Y-95444965D01*
X128985382Y-95442977D01*
X128916544Y-95441656D01*
X128902953Y-95441537D01*
X128902953Y-95715065D01*
X128959037Y-95715528D01*
X129004152Y-95716486D01*
X129034926Y-95717902D01*
X129044395Y-95718843D01*
X129090745Y-95733871D01*
X129124926Y-95762139D01*
X129144342Y-95801485D01*
X129144500Y-95802116D01*
X129146845Y-95821576D01*
X129148775Y-95857270D01*
X129150206Y-95905899D01*
X129151054Y-95964162D01*
X129151237Y-96028758D01*
X129151061Y-96061303D01*
X129150321Y-96134601D01*
X129149308Y-96190987D01*
X129147816Y-96233087D01*
X129145642Y-96263527D01*
X129142580Y-96284932D01*
X129138425Y-96299929D01*
X129132972Y-96311144D01*
X129131375Y-96313676D01*
X129119547Y-96329567D01*
X129105730Y-96342081D01*
X129087579Y-96351617D01*
X129062748Y-96358571D01*
X129028892Y-96363342D01*
X128983665Y-96366326D01*
X128924721Y-96367920D01*
X128849715Y-96368523D01*
X128807308Y-96368577D01*
X128716763Y-96368653D01*
X128643820Y-96367773D01*
X128586558Y-96364279D01*
X128543053Y-96356511D01*
X128511383Y-96342808D01*
X128489624Y-96321512D01*
X128475855Y-96290963D01*
X128468151Y-96249501D01*
X128464590Y-96195467D01*
X128463250Y-96127201D01*
X128462616Y-96071072D01*
X128462009Y-95984760D01*
X128462878Y-95915676D01*
X128465565Y-95861540D01*
X128470413Y-95820074D01*
X128477764Y-95789001D01*
X128487960Y-95766040D01*
X128501345Y-95748914D01*
X128512479Y-95739412D01*
X128522311Y-95732896D01*
X128533801Y-95727867D01*
X128549560Y-95724089D01*
X128572195Y-95721322D01*
X128604314Y-95719329D01*
X128648527Y-95717871D01*
X128707441Y-95716710D01*
X128771364Y-95715774D01*
X128839271Y-95715134D01*
X128902953Y-95715065D01*
X128902953Y-95441537D01*
X128842469Y-95441004D01*
X128766730Y-95441019D01*
X128692900Y-95441704D01*
X128624551Y-95443058D01*
X128565256Y-95445081D01*
X128518586Y-95447775D01*
X128489808Y-95450856D01*
X128409314Y-95470386D01*
X128344063Y-95501278D01*
X128292982Y-95544658D01*
X128254997Y-95601648D01*
X128229037Y-95673373D01*
X128216920Y-95736726D01*
X128213247Y-95775781D01*
X128210397Y-95830390D01*
X128208373Y-95896586D01*
X128207176Y-95970403D01*
X128206807Y-96047873D01*
X128207269Y-96125031D01*
G36*
X128374246Y-98006577D02*
G01*
X128434867Y-98003742D01*
X128493344Y-97999923D01*
X128544911Y-97995511D01*
X128584799Y-97990894D01*
X128602154Y-97987978D01*
X128660769Y-97975616D01*
X128666255Y-97736270D01*
X128460500Y-97736270D01*
X128461286Y-97484712D01*
X128461890Y-97395047D01*
X128463289Y-97322744D01*
X128465794Y-97265632D01*
X128469715Y-97221542D01*
X128475362Y-97188302D01*
X128483045Y-97163743D01*
X128493075Y-97145694D01*
X128505762Y-97131984D01*
X128512481Y-97126608D01*
X128522002Y-97120283D01*
X128533111Y-97115364D01*
X128548320Y-97111634D01*
X128570142Y-97108879D01*
X128601087Y-97106883D01*
X128643668Y-97105430D01*
X128700397Y-97104305D01*
X128773786Y-97103292D01*
X128786019Y-97103141D01*
X128872295Y-97102381D01*
X128941341Y-97102667D01*
X128995453Y-97104336D01*
X129036928Y-97107722D01*
X129068061Y-97113162D01*
X129091147Y-97120991D01*
X129108484Y-97131545D01*
X129122367Y-97145160D01*
X129128759Y-97153260D01*
X129133745Y-97160541D01*
X129137866Y-97168937D01*
X129141220Y-97180298D01*
X129143905Y-97196473D01*
X129146019Y-97219313D01*
X129147660Y-97250669D01*
X129148926Y-97292389D01*
X129149914Y-97346324D01*
X129150724Y-97414324D01*
X129151452Y-97498239D01*
X129152164Y-97595318D01*
X129155097Y-98009808D01*
X129408116Y-98009808D01*
X129407234Y-97587289D01*
X129406740Y-97466077D01*
X129405784Y-97363385D01*
X129404341Y-97278202D01*
X129402381Y-97209513D01*
X129399878Y-97156307D01*
X129396804Y-97117570D01*
X129393873Y-97096088D01*
X129373378Y-97018987D01*
X129341904Y-96956899D01*
X129298129Y-96908616D01*
X129240730Y-96872929D01*
X129168386Y-96848628D01*
X129111889Y-96838251D01*
X129079457Y-96835170D01*
X129031544Y-96832444D01*
X128972207Y-96830216D01*
X128905504Y-96828624D01*
X128835490Y-96827808D01*
X128807308Y-96827731D01*
X128702981Y-96828492D01*
X128616032Y-96830909D01*
X128544355Y-96835180D01*
X128485843Y-96841507D01*
X128438390Y-96850089D01*
X128399889Y-96861125D01*
X128382346Y-96868059D01*
X128332996Y-96896952D01*
X128289373Y-96935760D01*
X128258257Y-96978431D01*
X128257876Y-96979154D01*
X128247883Y-96999026D01*
X128239488Y-97018464D01*
X128232531Y-97039341D01*
X128226855Y-97063527D01*
X128222304Y-97092897D01*
X128218719Y-97129321D01*
X128215944Y-97174672D01*
X128213819Y-97230823D01*
X128212189Y-97299645D01*
X128210896Y-97383011D01*
X128209781Y-97482793D01*
X128209059Y-97559484D01*
X128204953Y-98012814D01*
X128374246Y-98006577D01*
G37*
X128374246Y-98006577D02*
X128434867Y-98003742D01*
X128493344Y-97999923D01*
X128544911Y-97995511D01*
X128584799Y-97990894D01*
X128602154Y-97987978D01*
X128660769Y-97975616D01*
X128666255Y-97736270D01*
X128460500Y-97736270D01*
X128461286Y-97484712D01*
X128461890Y-97395047D01*
X128463289Y-97322744D01*
X128465794Y-97265632D01*
X128469715Y-97221542D01*
X128475362Y-97188302D01*
X128483045Y-97163743D01*
X128493075Y-97145694D01*
X128505762Y-97131984D01*
X128512481Y-97126608D01*
X128522002Y-97120283D01*
X128533111Y-97115364D01*
X128548320Y-97111634D01*
X128570142Y-97108879D01*
X128601087Y-97106883D01*
X128643668Y-97105430D01*
X128700397Y-97104305D01*
X128773786Y-97103292D01*
X128786019Y-97103141D01*
X128872295Y-97102381D01*
X128941341Y-97102667D01*
X128995453Y-97104336D01*
X129036928Y-97107722D01*
X129068061Y-97113162D01*
X129091147Y-97120991D01*
X129108484Y-97131545D01*
X129122367Y-97145160D01*
X129128759Y-97153260D01*
X129133745Y-97160541D01*
X129137866Y-97168937D01*
X129141220Y-97180298D01*
X129143905Y-97196473D01*
X129146019Y-97219313D01*
X129147660Y-97250669D01*
X129148926Y-97292389D01*
X129149914Y-97346324D01*
X129150724Y-97414324D01*
X129151452Y-97498239D01*
X129152164Y-97595318D01*
X129155097Y-98009808D01*
X129408116Y-98009808D01*
X129407234Y-97587289D01*
X129406740Y-97466077D01*
X129405784Y-97363385D01*
X129404341Y-97278202D01*
X129402381Y-97209513D01*
X129399878Y-97156307D01*
X129396804Y-97117570D01*
X129393873Y-97096088D01*
X129373378Y-97018987D01*
X129341904Y-96956899D01*
X129298129Y-96908616D01*
X129240730Y-96872929D01*
X129168386Y-96848628D01*
X129111889Y-96838251D01*
X129079457Y-96835170D01*
X129031544Y-96832444D01*
X128972207Y-96830216D01*
X128905504Y-96828624D01*
X128835490Y-96827808D01*
X128807308Y-96827731D01*
X128702981Y-96828492D01*
X128616032Y-96830909D01*
X128544355Y-96835180D01*
X128485843Y-96841507D01*
X128438390Y-96850089D01*
X128399889Y-96861125D01*
X128382346Y-96868059D01*
X128332996Y-96896952D01*
X128289373Y-96935760D01*
X128258257Y-96978431D01*
X128257876Y-96979154D01*
X128247883Y-96999026D01*
X128239488Y-97018464D01*
X128232531Y-97039341D01*
X128226855Y-97063527D01*
X128222304Y-97092897D01*
X128218719Y-97129321D01*
X128215944Y-97174672D01*
X128213819Y-97230823D01*
X128212189Y-97299645D01*
X128210896Y-97383011D01*
X128209781Y-97482793D01*
X128209059Y-97559484D01*
X128204953Y-98012814D01*
X128374246Y-98006577D01*
G36*
X128375019Y-99374347D02*
G01*
X128435529Y-99371579D01*
X128493911Y-99367794D01*
X128545378Y-99363382D01*
X128585142Y-99358735D01*
X128602154Y-99355835D01*
X128660769Y-99343308D01*
X128666255Y-99103962D01*
X128459140Y-99103962D01*
X128462263Y-98827526D01*
X128463290Y-98745726D01*
X128464419Y-98681144D01*
X128465809Y-98631460D01*
X128467622Y-98594356D01*
X128470017Y-98567511D01*
X128473155Y-98548606D01*
X128477196Y-98535320D01*
X128482300Y-98525334D01*
X128483241Y-98523864D01*
X128494920Y-98507983D01*
X128508309Y-98495416D01*
X128525672Y-98485815D01*
X128549273Y-98478831D01*
X128581374Y-98474115D01*
X128624239Y-98471319D01*
X128680131Y-98470095D01*
X128751315Y-98470094D01*
X128827724Y-98470821D01*
X129085321Y-98473847D01*
X129110631Y-98499173D01*
X129129995Y-98526239D01*
X129143822Y-98558868D01*
X129144795Y-98562673D01*
X129146759Y-98580744D01*
X129148583Y-98615997D01*
X129150217Y-98666078D01*
X129151612Y-98728633D01*
X129152717Y-98801305D01*
X129153482Y-98881739D01*
X129153856Y-98967581D01*
X129153882Y-98989173D01*
X129154116Y-99377500D01*
X129408116Y-99377500D01*
X129406924Y-98954981D01*
X129406475Y-98863542D01*
X129405680Y-98776159D01*
X129404589Y-98695207D01*
X129403249Y-98623059D01*
X129401707Y-98562088D01*
X129400012Y-98514669D01*
X129398210Y-98483174D01*
X129397243Y-98473847D01*
X129382566Y-98411845D01*
X129358314Y-98353486D01*
X129327164Y-98303873D01*
X129291793Y-98268109D01*
X129287866Y-98265312D01*
X129262908Y-98248856D01*
X129239472Y-98235433D01*
X129215283Y-98224737D01*
X129188063Y-98216458D01*
X129155535Y-98210289D01*
X129115425Y-98205922D01*
X129065455Y-98203049D01*
X129003348Y-98201362D01*
X128926829Y-98200553D01*
X128833621Y-98200315D01*
X128807308Y-98200308D01*
X128716541Y-98200391D01*
X128643043Y-98200713D01*
X128584547Y-98201382D01*
X128538782Y-98202508D01*
X128503480Y-98204199D01*
X128476374Y-98206564D01*
X128455194Y-98209713D01*
X128437671Y-98213754D01*
X128421537Y-98218796D01*
X128421423Y-98218835D01*
X128358953Y-98245320D01*
X128311863Y-98277657D01*
X128276164Y-98319115D01*
X128256332Y-98354246D01*
X128245093Y-98379423D01*
X128235651Y-98405775D01*
X128227853Y-98435186D01*
X128221548Y-98469540D01*
X128216585Y-98510719D01*
X128212813Y-98560607D01*
X128210079Y-98621088D01*
X128208234Y-98694045D01*
X128207125Y-98781361D01*
X128206600Y-98884919D01*
X128206500Y-98974200D01*
X128206500Y-99380333D01*
X128375019Y-99374347D01*
G37*
X128375019Y-99374347D02*
X128435529Y-99371579D01*
X128493911Y-99367794D01*
X128545378Y-99363382D01*
X128585142Y-99358735D01*
X128602154Y-99355835D01*
X128660769Y-99343308D01*
X128666255Y-99103962D01*
X128459140Y-99103962D01*
X128462263Y-98827526D01*
X128463290Y-98745726D01*
X128464419Y-98681144D01*
X128465809Y-98631460D01*
X128467622Y-98594356D01*
X128470017Y-98567511D01*
X128473155Y-98548606D01*
X128477196Y-98535320D01*
X128482300Y-98525334D01*
X128483241Y-98523864D01*
X128494920Y-98507983D01*
X128508309Y-98495416D01*
X128525672Y-98485815D01*
X128549273Y-98478831D01*
X128581374Y-98474115D01*
X128624239Y-98471319D01*
X128680131Y-98470095D01*
X128751315Y-98470094D01*
X128827724Y-98470821D01*
X129085321Y-98473847D01*
X129110631Y-98499173D01*
X129129995Y-98526239D01*
X129143822Y-98558868D01*
X129144795Y-98562673D01*
X129146759Y-98580744D01*
X129148583Y-98615997D01*
X129150217Y-98666078D01*
X129151612Y-98728633D01*
X129152717Y-98801305D01*
X129153482Y-98881739D01*
X129153856Y-98967581D01*
X129153882Y-98989173D01*
X129154116Y-99377500D01*
X129408116Y-99377500D01*
X129406924Y-98954981D01*
X129406475Y-98863542D01*
X129405680Y-98776159D01*
X129404589Y-98695207D01*
X129403249Y-98623059D01*
X129401707Y-98562088D01*
X129400012Y-98514669D01*
X129398210Y-98483174D01*
X129397243Y-98473847D01*
X129382566Y-98411845D01*
X129358314Y-98353486D01*
X129327164Y-98303873D01*
X129291793Y-98268109D01*
X129287866Y-98265312D01*
X129262908Y-98248856D01*
X129239472Y-98235433D01*
X129215283Y-98224737D01*
X129188063Y-98216458D01*
X129155535Y-98210289D01*
X129115425Y-98205922D01*
X129065455Y-98203049D01*
X129003348Y-98201362D01*
X128926829Y-98200553D01*
X128833621Y-98200315D01*
X128807308Y-98200308D01*
X128716541Y-98200391D01*
X128643043Y-98200713D01*
X128584547Y-98201382D01*
X128538782Y-98202508D01*
X128503480Y-98204199D01*
X128476374Y-98206564D01*
X128455194Y-98209713D01*
X128437671Y-98213754D01*
X128421537Y-98218796D01*
X128421423Y-98218835D01*
X128358953Y-98245320D01*
X128311863Y-98277657D01*
X128276164Y-98319115D01*
X128256332Y-98354246D01*
X128245093Y-98379423D01*
X128235651Y-98405775D01*
X128227853Y-98435186D01*
X128221548Y-98469540D01*
X128216585Y-98510719D01*
X128212813Y-98560607D01*
X128210079Y-98621088D01*
X128208234Y-98694045D01*
X128207125Y-98781361D01*
X128206600Y-98884919D01*
X128206500Y-98974200D01*
X128206500Y-99380333D01*
X128375019Y-99374347D01*
G36*
X129011136Y-99880616D02*
G01*
X128686595Y-100089754D01*
X128613249Y-100137266D01*
X128543573Y-100182868D01*
X128479637Y-100225171D01*
X128423509Y-100262788D01*
X128377259Y-100294330D01*
X128342956Y-100318407D01*
X128322669Y-100333632D01*
X128320583Y-100335398D01*
X128274236Y-100386530D01*
X128240399Y-100448124D01*
X128218456Y-100521927D01*
X128207794Y-100609683D01*
X128206500Y-100659064D01*
X128206500Y-100735423D01*
X129408116Y-100735423D01*
X129408116Y-100461885D01*
X128565035Y-100461885D01*
X128986575Y-100187043D01*
X129408116Y-99912202D01*
X129408116Y-99602193D01*
X128206500Y-99602193D01*
X128206500Y-99875514D01*
X129011136Y-99880616D01*
G37*
X129011136Y-99880616D02*
X128686595Y-100089754D01*
X128613249Y-100137266D01*
X128543573Y-100182868D01*
X128479637Y-100225171D01*
X128423509Y-100262788D01*
X128377259Y-100294330D01*
X128342956Y-100318407D01*
X128322669Y-100333632D01*
X128320583Y-100335398D01*
X128274236Y-100386530D01*
X128240399Y-100448124D01*
X128218456Y-100521927D01*
X128207794Y-100609683D01*
X128206500Y-100659064D01*
X128206500Y-100735423D01*
X129408116Y-100735423D01*
X129408116Y-100461885D01*
X128565035Y-100461885D01*
X128986575Y-100187043D01*
X129408116Y-99912202D01*
X129408116Y-99602193D01*
X128206500Y-99602193D01*
X128206500Y-99875514D01*
X129011136Y-99880616D01*
G36*
X128611473Y-101255528D02*
G01*
X129016447Y-101258077D01*
X128706723Y-101457656D01*
X128634651Y-101504271D01*
X128565872Y-101549084D01*
X128502582Y-101590640D01*
X128446973Y-101627487D01*
X128401239Y-101658171D01*
X128367575Y-101681237D01*
X128348173Y-101695233D01*
X128348154Y-101695248D01*
X128294880Y-101744287D01*
X128255249Y-101799141D01*
X128228096Y-101862630D01*
X128212254Y-101937578D01*
X128206558Y-102026804D01*
X128206500Y-102037974D01*
X128206500Y-102112885D01*
X129408116Y-102112885D01*
X129408116Y-101839556D01*
X128993285Y-101837009D01*
X128578455Y-101834462D01*
X129403231Y-101296428D01*
X129408599Y-100979654D01*
X128206500Y-100979654D01*
X128206500Y-101252978D01*
X128611473Y-101255528D01*
G37*
X128611473Y-101255528D02*
X129016447Y-101258077D01*
X128706723Y-101457656D01*
X128634651Y-101504271D01*
X128565872Y-101549084D01*
X128502582Y-101590640D01*
X128446973Y-101627487D01*
X128401239Y-101658171D01*
X128367575Y-101681237D01*
X128348173Y-101695233D01*
X128348154Y-101695248D01*
X128294880Y-101744287D01*
X128255249Y-101799141D01*
X128228096Y-101862630D01*
X128212254Y-101937578D01*
X128206558Y-102026804D01*
X128206500Y-102037974D01*
X128206500Y-102112885D01*
X129408116Y-102112885D01*
X129408116Y-101839556D01*
X128993285Y-101837009D01*
X128578455Y-101834462D01*
X129403231Y-101296428D01*
X129408599Y-100979654D01*
X128206500Y-100979654D01*
X128206500Y-101252978D01*
X128611473Y-101255528D01*
G36*
X127688731Y-95166962D02*
G01*
X127688731Y-95274423D01*
X128059962Y-95274423D01*
X128059962Y-95147610D01*
X128060048Y-95093975D01*
X128058856Y-95056751D01*
X128054205Y-95032832D01*
X128043918Y-95019111D01*
X128025816Y-95012481D01*
X127997721Y-95009835D01*
X127962269Y-95008302D01*
X127908539Y-95005770D01*
X127905985Y-94612558D01*
X127903432Y-94219347D01*
X127951168Y-94219347D01*
X127986985Y-94218049D01*
X128020103Y-94214792D01*
X128029433Y-94213241D01*
X128059962Y-94207135D01*
X128059962Y-93955577D01*
X127874346Y-93955577D01*
X127809855Y-93955669D01*
X127762322Y-93956120D01*
X127729169Y-93957197D01*
X127707815Y-93959164D01*
X127695681Y-93962286D01*
X127690189Y-93966828D01*
X127688757Y-93973056D01*
X127688731Y-93974656D01*
X127681016Y-94011283D01*
X127659727Y-94038764D01*
X127659727Y-94324450D01*
X127657133Y-94606494D01*
X127654539Y-94888539D01*
X127004537Y-94893687D01*
X127009769Y-94420033D01*
X127244231Y-94397813D01*
X127340028Y-94388078D01*
X127419772Y-94378380D01*
X127486940Y-94368135D01*
X127545007Y-94356757D01*
X127597449Y-94343661D01*
X127637594Y-94331584D01*
X127659727Y-94324450D01*
X127659727Y-94038764D01*
X127657261Y-94041948D01*
X127616547Y-94067336D01*
X127557954Y-94088133D01*
X127525966Y-94096074D01*
X127505479Y-94099509D01*
X127468376Y-94104578D01*
X127417483Y-94110973D01*
X127355626Y-94118382D01*
X127285630Y-94126498D01*
X127210320Y-94135009D01*
X127132523Y-94143606D01*
X127055064Y-94151979D01*
X126980769Y-94159819D01*
X126912463Y-94166815D01*
X126852972Y-94172658D01*
X126805121Y-94177038D01*
X126771737Y-94179645D01*
X126758212Y-94180250D01*
X126756784Y-94189717D01*
X126755449Y-94216881D01*
X126754232Y-94259902D01*
X126753162Y-94316940D01*
X126752266Y-94386154D01*
X126751571Y-94465703D01*
X126751105Y-94553748D01*
X126750894Y-94648446D01*
X126750885Y-94673616D01*
X126750885Y-95166962D01*
X127688731Y-95166962D01*
G37*
X127688731Y-95166962D02*
X127688731Y-95274423D01*
X128059962Y-95274423D01*
X128059962Y-95147610D01*
X128060048Y-95093975D01*
X128058856Y-95056751D01*
X128054205Y-95032832D01*
X128043918Y-95019111D01*
X128025816Y-95012481D01*
X127997721Y-95009835D01*
X127962269Y-95008302D01*
X127908539Y-95005770D01*
X127905985Y-94612558D01*
X127903432Y-94219347D01*
X127951168Y-94219347D01*
X127986985Y-94218049D01*
X128020103Y-94214792D01*
X128029433Y-94213241D01*
X128059962Y-94207135D01*
X128059962Y-93955577D01*
X127874346Y-93955577D01*
X127809855Y-93955669D01*
X127762322Y-93956120D01*
X127729169Y-93957197D01*
X127707815Y-93959164D01*
X127695681Y-93962286D01*
X127690189Y-93966828D01*
X127688757Y-93973056D01*
X127688731Y-93974656D01*
X127681016Y-94011283D01*
X127659727Y-94038764D01*
X127659727Y-94324450D01*
X127657133Y-94606494D01*
X127654539Y-94888539D01*
X127004537Y-94893687D01*
X127009769Y-94420033D01*
X127244231Y-94397813D01*
X127340028Y-94388078D01*
X127419772Y-94378380D01*
X127486940Y-94368135D01*
X127545007Y-94356757D01*
X127597449Y-94343661D01*
X127637594Y-94331584D01*
X127659727Y-94324450D01*
X127659727Y-94038764D01*
X127657261Y-94041948D01*
X127616547Y-94067336D01*
X127557954Y-94088133D01*
X127525966Y-94096074D01*
X127505479Y-94099509D01*
X127468376Y-94104578D01*
X127417483Y-94110973D01*
X127355626Y-94118382D01*
X127285630Y-94126498D01*
X127210320Y-94135009D01*
X127132523Y-94143606D01*
X127055064Y-94151979D01*
X126980769Y-94159819D01*
X126912463Y-94166815D01*
X126852972Y-94172658D01*
X126805121Y-94177038D01*
X126771737Y-94179645D01*
X126758212Y-94180250D01*
X126756784Y-94189717D01*
X126755449Y-94216881D01*
X126754232Y-94259902D01*
X126753162Y-94316940D01*
X126752266Y-94386154D01*
X126751571Y-94465703D01*
X126751105Y-94553748D01*
X126750894Y-94648446D01*
X126750885Y-94673616D01*
X126750885Y-95166962D01*
X127688731Y-95166962D01*
G36*
X127942731Y-97970731D02*
G01*
X127942731Y-97697193D01*
X127004885Y-97697193D01*
X127004885Y-97467616D01*
X127005062Y-97393080D01*
X127005675Y-97335974D01*
X127006850Y-97294192D01*
X127008710Y-97265628D01*
X127011380Y-97248176D01*
X127014984Y-97239730D01*
X127018432Y-97238039D01*
X127034726Y-97236986D01*
X127067220Y-97234059D01*
X127112699Y-97229603D01*
X127167950Y-97223964D01*
X127229762Y-97217487D01*
X127294920Y-97210518D01*
X127360212Y-97203403D01*
X127422424Y-97196488D01*
X127478344Y-97190117D01*
X127524758Y-97184637D01*
X127558454Y-97180393D01*
X127571500Y-97178542D01*
X127673021Y-97157811D01*
X127757028Y-97129684D01*
X127824341Y-97093517D01*
X127875781Y-97048667D01*
X127912167Y-96994490D01*
X127934319Y-96930343D01*
X127940917Y-96888822D01*
X127943958Y-96851574D01*
X127945212Y-96819449D01*
X127944531Y-96800866D01*
X127942480Y-96791850D01*
X127937233Y-96785712D01*
X127925559Y-96781900D01*
X127904228Y-96779860D01*
X127870010Y-96779040D01*
X127819673Y-96778885D01*
X127690905Y-96778885D01*
X127684784Y-96811515D01*
X127668698Y-96849620D01*
X127635728Y-96879933D01*
X127590760Y-96901285D01*
X127571350Y-96905869D01*
X127534763Y-96912218D01*
X127483251Y-96920023D01*
X127419066Y-96928971D01*
X127344459Y-96938752D01*
X127261682Y-96949055D01*
X127172987Y-96959569D01*
X127148981Y-96962327D01*
X126750885Y-97007770D01*
X126750885Y-97970731D01*
X127942731Y-97970731D01*
G37*
X127942731Y-97970731D02*
X127942731Y-97697193D01*
X127004885Y-97697193D01*
X127004885Y-97467616D01*
X127005062Y-97393080D01*
X127005675Y-97335974D01*
X127006850Y-97294192D01*
X127008710Y-97265628D01*
X127011380Y-97248176D01*
X127014984Y-97239730D01*
X127018432Y-97238039D01*
X127034726Y-97236986D01*
X127067220Y-97234059D01*
X127112699Y-97229603D01*
X127167950Y-97223964D01*
X127229762Y-97217487D01*
X127294920Y-97210518D01*
X127360212Y-97203403D01*
X127422424Y-97196488D01*
X127478344Y-97190117D01*
X127524758Y-97184637D01*
X127558454Y-97180393D01*
X127571500Y-97178542D01*
X127673021Y-97157811D01*
X127757028Y-97129684D01*
X127824341Y-97093517D01*
X127875781Y-97048667D01*
X127912167Y-96994490D01*
X127934319Y-96930343D01*
X127940917Y-96888822D01*
X127943958Y-96851574D01*
X127945212Y-96819449D01*
X127944531Y-96800866D01*
X127942480Y-96791850D01*
X127937233Y-96785712D01*
X127925559Y-96781900D01*
X127904228Y-96779860D01*
X127870010Y-96779040D01*
X127819673Y-96778885D01*
X127690905Y-96778885D01*
X127684784Y-96811515D01*
X127668698Y-96849620D01*
X127635728Y-96879933D01*
X127590760Y-96901285D01*
X127571350Y-96905869D01*
X127534763Y-96912218D01*
X127483251Y-96920023D01*
X127419066Y-96928971D01*
X127344459Y-96938752D01*
X127261682Y-96949055D01*
X127172987Y-96959569D01*
X127148981Y-96962327D01*
X126750885Y-97007770D01*
X126750885Y-97970731D01*
X127942731Y-97970731D01*
G36*
X126806535Y-93798925D02*
G01*
X126856114Y-93797720D01*
X126913784Y-93794892D01*
X126974970Y-93790818D01*
X127035100Y-93785876D01*
X127089599Y-93780443D01*
X127133892Y-93774896D01*
X127163406Y-93769612D01*
X127164173Y-93769422D01*
X127210039Y-93757873D01*
X127210039Y-93525731D01*
X127004885Y-93525731D01*
X127004885Y-93256111D01*
X127005086Y-93167973D01*
X127005940Y-93097243D01*
X127007827Y-93041792D01*
X127011125Y-92999490D01*
X127016212Y-92968210D01*
X127023466Y-92945822D01*
X127033266Y-92930198D01*
X127045991Y-92919209D01*
X127062018Y-92910726D01*
X127066628Y-92908729D01*
X127087125Y-92904359D01*
X127123733Y-92900801D01*
X127173055Y-92898057D01*
X127231694Y-92896132D01*
X127296255Y-92895029D01*
X127363339Y-92894753D01*
X127429550Y-92895306D01*
X127491491Y-92896692D01*
X127545765Y-92898916D01*
X127588976Y-92901981D01*
X127617727Y-92905890D01*
X127625502Y-92908113D01*
X127639119Y-92913994D01*
X127650434Y-92920264D01*
X127659684Y-92928678D01*
X127667103Y-92940995D01*
X127672928Y-92958970D01*
X127677394Y-92984360D01*
X127680738Y-93018923D01*
X127683195Y-93064416D01*
X127685000Y-93122594D01*
X127686390Y-93195216D01*
X127687601Y-93284038D01*
X127688731Y-93379193D01*
X127693616Y-93794385D01*
X127818173Y-93797119D01*
X127942731Y-93799853D01*
X127942168Y-93357504D01*
X127941961Y-93250698D01*
X127941591Y-93161500D01*
X127940991Y-93087980D01*
X127940092Y-93028207D01*
X127938828Y-92980251D01*
X127937130Y-92942183D01*
X127934932Y-92912071D01*
X127932165Y-92887985D01*
X127928762Y-92867995D01*
X127924656Y-92850171D01*
X127924365Y-92849048D01*
X127902384Y-92784407D01*
X127872727Y-92734756D01*
X127832345Y-92696104D01*
X127786423Y-92668471D01*
X127754206Y-92653885D01*
X127720325Y-92642154D01*
X127682418Y-92633045D01*
X127638123Y-92626326D01*
X127585079Y-92621763D01*
X127520924Y-92619122D01*
X127443296Y-92618172D01*
X127349832Y-92618679D01*
X127290255Y-92619503D01*
X127208846Y-92620915D01*
X127144237Y-92622394D01*
X127093691Y-92624150D01*
X127054471Y-92626395D01*
X127023839Y-92629341D01*
X126999059Y-92633200D01*
X126977393Y-92638184D01*
X126956102Y-92644503D01*
X126952656Y-92645618D01*
X126885649Y-92676502D01*
X126832229Y-92721328D01*
X126791771Y-92780684D01*
X126779087Y-92808603D01*
X126773743Y-92822200D01*
X126769278Y-92835283D01*
X126765601Y-92849685D01*
X126762620Y-92867244D01*
X126760243Y-92889793D01*
X126758378Y-92919170D01*
X126756934Y-92957208D01*
X126755819Y-93005744D01*
X126754941Y-93066614D01*
X126754208Y-93141652D01*
X126753528Y-93232694D01*
X126752866Y-93332789D01*
X126749840Y-93799270D01*
X126806535Y-93798925D01*
G37*
X126806535Y-93798925D02*
X126856114Y-93797720D01*
X126913784Y-93794892D01*
X126974970Y-93790818D01*
X127035100Y-93785876D01*
X127089599Y-93780443D01*
X127133892Y-93774896D01*
X127163406Y-93769612D01*
X127164173Y-93769422D01*
X127210039Y-93757873D01*
X127210039Y-93525731D01*
X127004885Y-93525731D01*
X127004885Y-93256111D01*
X127005086Y-93167973D01*
X127005940Y-93097243D01*
X127007827Y-93041792D01*
X127011125Y-92999490D01*
X127016212Y-92968210D01*
X127023466Y-92945822D01*
X127033266Y-92930198D01*
X127045991Y-92919209D01*
X127062018Y-92910726D01*
X127066628Y-92908729D01*
X127087125Y-92904359D01*
X127123733Y-92900801D01*
X127173055Y-92898057D01*
X127231694Y-92896132D01*
X127296255Y-92895029D01*
X127363339Y-92894753D01*
X127429550Y-92895306D01*
X127491491Y-92896692D01*
X127545765Y-92898916D01*
X127588976Y-92901981D01*
X127617727Y-92905890D01*
X127625502Y-92908113D01*
X127639119Y-92913994D01*
X127650434Y-92920264D01*
X127659684Y-92928678D01*
X127667103Y-92940995D01*
X127672928Y-92958970D01*
X127677394Y-92984360D01*
X127680738Y-93018923D01*
X127683195Y-93064416D01*
X127685000Y-93122594D01*
X127686390Y-93195216D01*
X127687601Y-93284038D01*
X127688731Y-93379193D01*
X127693616Y-93794385D01*
X127818173Y-93797119D01*
X127942731Y-93799853D01*
X127942168Y-93357504D01*
X127941961Y-93250698D01*
X127941591Y-93161500D01*
X127940991Y-93087980D01*
X127940092Y-93028207D01*
X127938828Y-92980251D01*
X127937130Y-92942183D01*
X127934932Y-92912071D01*
X127932165Y-92887985D01*
X127928762Y-92867995D01*
X127924656Y-92850171D01*
X127924365Y-92849048D01*
X127902384Y-92784407D01*
X127872727Y-92734756D01*
X127832345Y-92696104D01*
X127786423Y-92668471D01*
X127754206Y-92653885D01*
X127720325Y-92642154D01*
X127682418Y-92633045D01*
X127638123Y-92626326D01*
X127585079Y-92621763D01*
X127520924Y-92619122D01*
X127443296Y-92618172D01*
X127349832Y-92618679D01*
X127290255Y-92619503D01*
X127208846Y-92620915D01*
X127144237Y-92622394D01*
X127093691Y-92624150D01*
X127054471Y-92626395D01*
X127023839Y-92629341D01*
X126999059Y-92633200D01*
X126977393Y-92638184D01*
X126956102Y-92644503D01*
X126952656Y-92645618D01*
X126885649Y-92676502D01*
X126832229Y-92721328D01*
X126791771Y-92780684D01*
X126779087Y-92808603D01*
X126773743Y-92822200D01*
X126769278Y-92835283D01*
X126765601Y-92849685D01*
X126762620Y-92867244D01*
X126760243Y-92889793D01*
X126758378Y-92919170D01*
X126756934Y-92957208D01*
X126755819Y-93005744D01*
X126754941Y-93066614D01*
X126754208Y-93141652D01*
X126753528Y-93232694D01*
X126752866Y-93332789D01*
X126749840Y-93799270D01*
X126806535Y-93798925D01*
G36*
X127004885Y-96603039D02*
G01*
X127004885Y-96208021D01*
X127005127Y-96108246D01*
X127005831Y-96019119D01*
X127006961Y-95942166D01*
X127008482Y-95878911D01*
X127010359Y-95830881D01*
X127012557Y-95799601D01*
X127014592Y-95787471D01*
X127034437Y-95761992D01*
X127070511Y-95744169D01*
X127120743Y-95734819D01*
X127151109Y-95733577D01*
X127210039Y-95733577D01*
X127210039Y-96407654D01*
X127464039Y-96407654D01*
X127464039Y-95733577D01*
X127532737Y-95733577D01*
X127594838Y-95738002D01*
X127640966Y-95751098D01*
X127670389Y-95772594D01*
X127679024Y-95787471D01*
X127681450Y-95803722D01*
X127683587Y-95838008D01*
X127685400Y-95888828D01*
X127686854Y-95954680D01*
X127687916Y-96034063D01*
X127688552Y-96125475D01*
X127688731Y-96212906D01*
X127688731Y-96612808D01*
X127942731Y-96612808D01*
X127941661Y-96185404D01*
X127941242Y-96094165D01*
X127940481Y-96007587D01*
X127939425Y-95927926D01*
X127938118Y-95857436D01*
X127936607Y-95798372D01*
X127934939Y-95752989D01*
X127933158Y-95723542D01*
X127932059Y-95714481D01*
X127915789Y-95659544D01*
X127890335Y-95606011D01*
X127859344Y-95560656D01*
X127837091Y-95538043D01*
X127808793Y-95519602D01*
X127770230Y-95500740D01*
X127732692Y-95486555D01*
X127712728Y-95480538D01*
X127693418Y-95475751D01*
X127672298Y-95472054D01*
X127646900Y-95469307D01*
X127614758Y-95467371D01*
X127573406Y-95466104D01*
X127520376Y-95465368D01*
X127453203Y-95465021D01*
X127369420Y-95464925D01*
X127351692Y-95464923D01*
X127254102Y-95465141D01*
X127173746Y-95465959D01*
X127108325Y-95467625D01*
X127055540Y-95470389D01*
X127013089Y-95474499D01*
X126978673Y-95480203D01*
X126949991Y-95487749D01*
X126924743Y-95497387D01*
X126900630Y-95509365D01*
X126891126Y-95514673D01*
X126845149Y-95548057D01*
X126809322Y-95591488D01*
X126779939Y-95649514D01*
X126778594Y-95652829D01*
X126773266Y-95666475D01*
X126768833Y-95679794D01*
X126765197Y-95694668D01*
X126762263Y-95712981D01*
X126759934Y-95736612D01*
X126758115Y-95767446D01*
X126756709Y-95807363D01*
X126755619Y-95858246D01*
X126754751Y-95921977D01*
X126754006Y-96000438D01*
X126753290Y-96095511D01*
X126752870Y-96156097D01*
X126749802Y-96603039D01*
X127004885Y-96603039D01*
G37*
X127004885Y-96603039D02*
X127004885Y-96208021D01*
X127005127Y-96108246D01*
X127005831Y-96019119D01*
X127006961Y-95942166D01*
X127008482Y-95878911D01*
X127010359Y-95830881D01*
X127012557Y-95799601D01*
X127014592Y-95787471D01*
X127034437Y-95761992D01*
X127070511Y-95744169D01*
X127120743Y-95734819D01*
X127151109Y-95733577D01*
X127210039Y-95733577D01*
X127210039Y-96407654D01*
X127464039Y-96407654D01*
X127464039Y-95733577D01*
X127532737Y-95733577D01*
X127594838Y-95738002D01*
X127640966Y-95751098D01*
X127670389Y-95772594D01*
X127679024Y-95787471D01*
X127681450Y-95803722D01*
X127683587Y-95838008D01*
X127685400Y-95888828D01*
X127686854Y-95954680D01*
X127687916Y-96034063D01*
X127688552Y-96125475D01*
X127688731Y-96212906D01*
X127688731Y-96612808D01*
X127942731Y-96612808D01*
X127941661Y-96185404D01*
X127941242Y-96094165D01*
X127940481Y-96007587D01*
X127939425Y-95927926D01*
X127938118Y-95857436D01*
X127936607Y-95798372D01*
X127934939Y-95752989D01*
X127933158Y-95723542D01*
X127932059Y-95714481D01*
X127915789Y-95659544D01*
X127890335Y-95606011D01*
X127859344Y-95560656D01*
X127837091Y-95538043D01*
X127808793Y-95519602D01*
X127770230Y-95500740D01*
X127732692Y-95486555D01*
X127712728Y-95480538D01*
X127693418Y-95475751D01*
X127672298Y-95472054D01*
X127646900Y-95469307D01*
X127614758Y-95467371D01*
X127573406Y-95466104D01*
X127520376Y-95465368D01*
X127453203Y-95465021D01*
X127369420Y-95464925D01*
X127351692Y-95464923D01*
X127254102Y-95465141D01*
X127173746Y-95465959D01*
X127108325Y-95467625D01*
X127055540Y-95470389D01*
X127013089Y-95474499D01*
X126978673Y-95480203D01*
X126949991Y-95487749D01*
X126924743Y-95497387D01*
X126900630Y-95509365D01*
X126891126Y-95514673D01*
X126845149Y-95548057D01*
X126809322Y-95591488D01*
X126779939Y-95649514D01*
X126778594Y-95652829D01*
X126773266Y-95666475D01*
X126768833Y-95679794D01*
X126765197Y-95694668D01*
X126762263Y-95712981D01*
X126759934Y-95736612D01*
X126758115Y-95767446D01*
X126756709Y-95807363D01*
X126755619Y-95858246D01*
X126754751Y-95921977D01*
X126754006Y-96000438D01*
X126753290Y-96095511D01*
X126752870Y-96156097D01*
X126749802Y-96603039D01*
X127004885Y-96603039D01*
G36*
X127942731Y-99357962D02*
G01*
X127942731Y-99084828D01*
X127744904Y-99082183D01*
X127547077Y-99079539D01*
X127547077Y-98493385D01*
X127744904Y-98490740D01*
X127942731Y-98488096D01*
X127942731Y-98223855D01*
X127471366Y-98227012D01*
X127354909Y-98227815D01*
X127256239Y-98228702D01*
X127255359Y-98228715D01*
X127255359Y-98489258D01*
X127278033Y-98490710D01*
X127282560Y-98491746D01*
X127287059Y-98495156D01*
X127290569Y-98502906D01*
X127293180Y-98517059D01*
X127294983Y-98539680D01*
X127296071Y-98572832D01*
X127296532Y-98618580D01*
X127296460Y-98678986D01*
X127295944Y-98756115D01*
X127295665Y-98788654D01*
X127293077Y-99079539D01*
X127148981Y-99082242D01*
X127004885Y-99084946D01*
X127004900Y-98838012D01*
X127005161Y-98748274D01*
X127006605Y-98676083D01*
X127010237Y-98619447D01*
X127017063Y-98576374D01*
X127028089Y-98544874D01*
X127044323Y-98522954D01*
X127066770Y-98508624D01*
X127096437Y-98499892D01*
X127134330Y-98494767D01*
X127180082Y-98491347D01*
X127220881Y-98489463D01*
X127255359Y-98489258D01*
X127255359Y-98228715D01*
X127173607Y-98229925D01*
X127105262Y-98231733D01*
X127049454Y-98234377D01*
X127004432Y-98238108D01*
X126968447Y-98243175D01*
X126939748Y-98249830D01*
X126916584Y-98258322D01*
X126897206Y-98268902D01*
X126879863Y-98281821D01*
X126862805Y-98297328D01*
X126844281Y-98315675D01*
X126843055Y-98316902D01*
X126824061Y-98336107D01*
X126808075Y-98353754D01*
X126794824Y-98371661D01*
X126784037Y-98391643D01*
X126775439Y-98415516D01*
X126768760Y-98445097D01*
X126763726Y-98482201D01*
X126760065Y-98528644D01*
X126757504Y-98586244D01*
X126755771Y-98656816D01*
X126754593Y-98742176D01*
X126753698Y-98844140D01*
X126753169Y-98915904D01*
X126749959Y-99357962D01*
X127942731Y-99357962D01*
G37*
X127942731Y-99357962D02*
X127942731Y-99084828D01*
X127744904Y-99082183D01*
X127547077Y-99079539D01*
X127547077Y-98493385D01*
X127744904Y-98490740D01*
X127942731Y-98488096D01*
X127942731Y-98223855D01*
X127471366Y-98227012D01*
X127354909Y-98227815D01*
X127256239Y-98228702D01*
X127255359Y-98228715D01*
X127255359Y-98489258D01*
X127278033Y-98490710D01*
X127282560Y-98491746D01*
X127287059Y-98495156D01*
X127290569Y-98502906D01*
X127293180Y-98517059D01*
X127294983Y-98539680D01*
X127296071Y-98572832D01*
X127296532Y-98618580D01*
X127296460Y-98678986D01*
X127295944Y-98756115D01*
X127295665Y-98788654D01*
X127293077Y-99079539D01*
X127148981Y-99082242D01*
X127004885Y-99084946D01*
X127004900Y-98838012D01*
X127005161Y-98748274D01*
X127006605Y-98676083D01*
X127010237Y-98619447D01*
X127017063Y-98576374D01*
X127028089Y-98544874D01*
X127044323Y-98522954D01*
X127066770Y-98508624D01*
X127096437Y-98499892D01*
X127134330Y-98494767D01*
X127180082Y-98491347D01*
X127220881Y-98489463D01*
X127255359Y-98489258D01*
X127255359Y-98228715D01*
X127173607Y-98229925D01*
X127105262Y-98231733D01*
X127049454Y-98234377D01*
X127004432Y-98238108D01*
X126968447Y-98243175D01*
X126939748Y-98249830D01*
X126916584Y-98258322D01*
X126897206Y-98268902D01*
X126879863Y-98281821D01*
X126862805Y-98297328D01*
X126844281Y-98315675D01*
X126843055Y-98316902D01*
X126824061Y-98336107D01*
X126808075Y-98353754D01*
X126794824Y-98371661D01*
X126784037Y-98391643D01*
X126775439Y-98415516D01*
X126768760Y-98445097D01*
X126763726Y-98482201D01*
X126760065Y-98528644D01*
X126757504Y-98586244D01*
X126755771Y-98656816D01*
X126754593Y-98742176D01*
X126753698Y-98844140D01*
X126753169Y-98915904D01*
X126749959Y-99357962D01*
X127942731Y-99357962D01*
G36*
X127210039Y-99875731D02*
G01*
X127210039Y-100461885D01*
X126750885Y-100461885D01*
X126750885Y-100735423D01*
X127942731Y-100735423D01*
X127942731Y-100461885D01*
X127464039Y-100461885D01*
X127464039Y-99875731D01*
X127942731Y-99875731D01*
X127942731Y-99602193D01*
X126750885Y-99602193D01*
X126750885Y-99875731D01*
X127210039Y-99875731D01*
G37*
X127210039Y-99875731D02*
X127210039Y-100461885D01*
X126750885Y-100461885D01*
X126750885Y-100735423D01*
X127942731Y-100735423D01*
X127942731Y-100461885D01*
X127464039Y-100461885D01*
X127464039Y-99875731D01*
X127942731Y-99875731D01*
X127942731Y-99602193D01*
X126750885Y-99602193D01*
X126750885Y-99875731D01*
X127210039Y-99875731D01*
G36*
X126755918Y-101646592D02*
G01*
X126756617Y-101729522D01*
X126758245Y-101797207D01*
X126761182Y-101851794D01*
X126765807Y-101895427D01*
X126772499Y-101930254D01*
X126781637Y-101958421D01*
X126793601Y-101982073D01*
X126808770Y-102003358D01*
X126827523Y-102024421D01*
X126843055Y-102040253D01*
X126865100Y-102061629D01*
X126885848Y-102079199D01*
X126907427Y-102093338D01*
X126931965Y-102104415D01*
X126961589Y-102112804D01*
X126998427Y-102118878D01*
X127044607Y-102123008D01*
X127102256Y-102125566D01*
X127173503Y-102126925D01*
X127260474Y-102127458D01*
X127341923Y-102127539D01*
X127431707Y-102127488D01*
X127504236Y-102127251D01*
X127561793Y-102126702D01*
X127606660Y-102125718D01*
X127641122Y-102124172D01*
X127667460Y-102121939D01*
X127687959Y-102118894D01*
X127704901Y-102114913D01*
X127720570Y-102109869D01*
X127730435Y-102106232D01*
X127797871Y-102072771D01*
X127850942Y-102028046D01*
X127890975Y-101970418D01*
X127919296Y-101898248D01*
X127928356Y-101861624D01*
X127933149Y-101827559D01*
X127936946Y-101777732D01*
X127939749Y-101715786D01*
X127941557Y-101645363D01*
X127942373Y-101570105D01*
X127942197Y-101493655D01*
X127941030Y-101419654D01*
X127938873Y-101351745D01*
X127935727Y-101293570D01*
X127931593Y-101248771D01*
X127928190Y-101227683D01*
X127903459Y-101148266D01*
X127866609Y-101083894D01*
X127816724Y-101033674D01*
X127752888Y-100996715D01*
X127674186Y-100972123D01*
X127663847Y-100969989D01*
X127633138Y-100966143D01*
X127585541Y-100963428D01*
X127520445Y-100961830D01*
X127437391Y-100961338D01*
X127437391Y-101228670D01*
X127510356Y-101229544D01*
X127567607Y-101233151D01*
X127611048Y-101241247D01*
X127642584Y-101255593D01*
X127664120Y-101277946D01*
X127677559Y-101310066D01*
X127684806Y-101353709D01*
X127687765Y-101410635D01*
X127688341Y-101482603D01*
X127688348Y-101544141D01*
X127688168Y-101621599D01*
X127687236Y-101681875D01*
X127685428Y-101727313D01*
X127682617Y-101760259D01*
X127678677Y-101783059D01*
X127674847Y-101795050D01*
X127665671Y-101814475D01*
X127654704Y-101829858D01*
X127639707Y-101841666D01*
X127618440Y-101850369D01*
X127588665Y-101856434D01*
X127548143Y-101860331D01*
X127494635Y-101862527D01*
X127425901Y-101863492D01*
X127346808Y-101863695D01*
X127256092Y-101863777D01*
X127183000Y-101862845D01*
X127125634Y-101859136D01*
X127082092Y-101850888D01*
X127050476Y-101836335D01*
X127028887Y-101813716D01*
X127015423Y-101781266D01*
X127008186Y-101737221D01*
X127005277Y-101679819D01*
X127004795Y-101607296D01*
X127004885Y-101546270D01*
X127004798Y-101462034D01*
X127005804Y-101394163D01*
X127009803Y-101340895D01*
X127018695Y-101300463D01*
X127034378Y-101271106D01*
X127058753Y-101251058D01*
X127093719Y-101238557D01*
X127141176Y-101231837D01*
X127203024Y-101229135D01*
X127281162Y-101228687D01*
X127346808Y-101228770D01*
X127437391Y-101228670D01*
X127437391Y-100961338D01*
X127437239Y-100961337D01*
X127335309Y-100961935D01*
X127302846Y-100962302D01*
X127206836Y-100963672D01*
X127128090Y-100965475D01*
X127064334Y-100968159D01*
X127013295Y-100972169D01*
X126972697Y-100977952D01*
X126940268Y-100985956D01*
X126913732Y-100996626D01*
X126890816Y-101010411D01*
X126869246Y-101027756D01*
X126846748Y-101049108D01*
X126843249Y-101052588D01*
X126821669Y-101074898D01*
X126803958Y-101096083D01*
X126789735Y-101118293D01*
X126778619Y-101143680D01*
X126770229Y-101174394D01*
X126764183Y-101212587D01*
X126760100Y-101260408D01*
X126757600Y-101320009D01*
X126756301Y-101393541D01*
X126755822Y-101483154D01*
X126755769Y-101546270D01*
X126755918Y-101646592D01*
G37*
X126755918Y-101646592D02*
X126756617Y-101729522D01*
X126758245Y-101797207D01*
X126761182Y-101851794D01*
X126765807Y-101895427D01*
X126772499Y-101930254D01*
X126781637Y-101958421D01*
X126793601Y-101982073D01*
X126808770Y-102003358D01*
X126827523Y-102024421D01*
X126843055Y-102040253D01*
X126865100Y-102061629D01*
X126885848Y-102079199D01*
X126907427Y-102093338D01*
X126931965Y-102104415D01*
X126961589Y-102112804D01*
X126998427Y-102118878D01*
X127044607Y-102123008D01*
X127102256Y-102125566D01*
X127173503Y-102126925D01*
X127260474Y-102127458D01*
X127341923Y-102127539D01*
X127431707Y-102127488D01*
X127504236Y-102127251D01*
X127561793Y-102126702D01*
X127606660Y-102125718D01*
X127641122Y-102124172D01*
X127667460Y-102121939D01*
X127687959Y-102118894D01*
X127704901Y-102114913D01*
X127720570Y-102109869D01*
X127730435Y-102106232D01*
X127797871Y-102072771D01*
X127850942Y-102028046D01*
X127890975Y-101970418D01*
X127919296Y-101898248D01*
X127928356Y-101861624D01*
X127933149Y-101827559D01*
X127936946Y-101777732D01*
X127939749Y-101715786D01*
X127941557Y-101645363D01*
X127942373Y-101570105D01*
X127942197Y-101493655D01*
X127941030Y-101419654D01*
X127938873Y-101351745D01*
X127935727Y-101293570D01*
X127931593Y-101248771D01*
X127928190Y-101227683D01*
X127903459Y-101148266D01*
X127866609Y-101083894D01*
X127816724Y-101033674D01*
X127752888Y-100996715D01*
X127674186Y-100972123D01*
X127663847Y-100969989D01*
X127633138Y-100966143D01*
X127585541Y-100963428D01*
X127520445Y-100961830D01*
X127437391Y-100961338D01*
X127437391Y-101228670D01*
X127510356Y-101229544D01*
X127567607Y-101233151D01*
X127611048Y-101241247D01*
X127642584Y-101255593D01*
X127664120Y-101277946D01*
X127677559Y-101310066D01*
X127684806Y-101353709D01*
X127687765Y-101410635D01*
X127688341Y-101482603D01*
X127688348Y-101544141D01*
X127688168Y-101621599D01*
X127687236Y-101681875D01*
X127685428Y-101727313D01*
X127682617Y-101760259D01*
X127678677Y-101783059D01*
X127674847Y-101795050D01*
X127665671Y-101814475D01*
X127654704Y-101829858D01*
X127639707Y-101841666D01*
X127618440Y-101850369D01*
X127588665Y-101856434D01*
X127548143Y-101860331D01*
X127494635Y-101862527D01*
X127425901Y-101863492D01*
X127346808Y-101863695D01*
X127256092Y-101863777D01*
X127183000Y-101862845D01*
X127125634Y-101859136D01*
X127082092Y-101850888D01*
X127050476Y-101836335D01*
X127028887Y-101813716D01*
X127015423Y-101781266D01*
X127008186Y-101737221D01*
X127005277Y-101679819D01*
X127004795Y-101607296D01*
X127004885Y-101546270D01*
X127004798Y-101462034D01*
X127005804Y-101394163D01*
X127009803Y-101340895D01*
X127018695Y-101300463D01*
X127034378Y-101271106D01*
X127058753Y-101251058D01*
X127093719Y-101238557D01*
X127141176Y-101231837D01*
X127203024Y-101229135D01*
X127281162Y-101228687D01*
X127346808Y-101228770D01*
X127437391Y-101228670D01*
X127437391Y-100961338D01*
X127437239Y-100961337D01*
X127335309Y-100961935D01*
X127302846Y-100962302D01*
X127206836Y-100963672D01*
X127128090Y-100965475D01*
X127064334Y-100968159D01*
X127013295Y-100972169D01*
X126972697Y-100977952D01*
X126940268Y-100985956D01*
X126913732Y-100996626D01*
X126890816Y-101010411D01*
X126869246Y-101027756D01*
X126846748Y-101049108D01*
X126843249Y-101052588D01*
X126821669Y-101074898D01*
X126803958Y-101096083D01*
X126789735Y-101118293D01*
X126778619Y-101143680D01*
X126770229Y-101174394D01*
X126764183Y-101212587D01*
X126760100Y-101260408D01*
X126757600Y-101320009D01*
X126756301Y-101393541D01*
X126755822Y-101483154D01*
X126755769Y-101546270D01*
X126755918Y-101646592D01*
G36*
X128615271Y-90565654D02*
G01*
X128715300Y-90565672D01*
X128797715Y-90565790D01*
X128864443Y-90566103D01*
X128917409Y-90566706D01*
X128958539Y-90567696D01*
X128989757Y-90569167D01*
X129012990Y-90571215D01*
X129030163Y-90573936D01*
X129043201Y-90577425D01*
X129054030Y-90581778D01*
X129064575Y-90587089D01*
X129066342Y-90588023D01*
X129108419Y-90620110D01*
X129128936Y-90649080D01*
X129134404Y-90660399D01*
X129138823Y-90672781D01*
X129142328Y-90688386D01*
X129145053Y-90709377D01*
X129147132Y-90737915D01*
X129148701Y-90776162D01*
X129149894Y-90826280D01*
X129150844Y-90890430D01*
X129151686Y-90970773D01*
X129152150Y-91022366D01*
X129155069Y-91356962D01*
X128206500Y-91356962D01*
X128206500Y-91620731D01*
X129408116Y-91620731D01*
X129407234Y-91144481D01*
X129406810Y-91018518D01*
X129406023Y-90910995D01*
X129404846Y-90820816D01*
X129403251Y-90746885D01*
X129401213Y-90688106D01*
X129398704Y-90643384D01*
X129395698Y-90611622D01*
X129393894Y-90599672D01*
X129371367Y-90515319D01*
X129336661Y-90445924D01*
X129288842Y-90390464D01*
X129226972Y-90347919D01*
X129150117Y-90317265D01*
X129130343Y-90311821D01*
X129110470Y-90307028D01*
X129090468Y-90303078D01*
X129068285Y-90299890D01*
X129041869Y-90297384D01*
X129009168Y-90295477D01*
X128968130Y-90294091D01*
X128916703Y-90293143D01*
X128852836Y-90292554D01*
X128774477Y-90292241D01*
X128679572Y-90292125D01*
X128629899Y-90292116D01*
X128206500Y-90292116D01*
X128206500Y-90565654D01*
X128615271Y-90565654D01*
G37*
X128615271Y-90565654D02*
X128715300Y-90565672D01*
X128797715Y-90565790D01*
X128864443Y-90566103D01*
X128917409Y-90566706D01*
X128958539Y-90567696D01*
X128989757Y-90569167D01*
X129012990Y-90571215D01*
X129030163Y-90573936D01*
X129043201Y-90577425D01*
X129054030Y-90581778D01*
X129064575Y-90587089D01*
X129066342Y-90588023D01*
X129108419Y-90620110D01*
X129128936Y-90649080D01*
X129134404Y-90660399D01*
X129138823Y-90672781D01*
X129142328Y-90688386D01*
X129145053Y-90709377D01*
X129147132Y-90737915D01*
X129148701Y-90776162D01*
X129149894Y-90826280D01*
X129150844Y-90890430D01*
X129151686Y-90970773D01*
X129152150Y-91022366D01*
X129155069Y-91356962D01*
X128206500Y-91356962D01*
X128206500Y-91620731D01*
X129408116Y-91620731D01*
X129407234Y-91144481D01*
X129406810Y-91018518D01*
X129406023Y-90910995D01*
X129404846Y-90820816D01*
X129403251Y-90746885D01*
X129401213Y-90688106D01*
X129398704Y-90643384D01*
X129395698Y-90611622D01*
X129393894Y-90599672D01*
X129371367Y-90515319D01*
X129336661Y-90445924D01*
X129288842Y-90390464D01*
X129226972Y-90347919D01*
X129150117Y-90317265D01*
X129130343Y-90311821D01*
X129110470Y-90307028D01*
X129090468Y-90303078D01*
X129068285Y-90299890D01*
X129041869Y-90297384D01*
X129009168Y-90295477D01*
X128968130Y-90294091D01*
X128916703Y-90293143D01*
X128852836Y-90292554D01*
X128774477Y-90292241D01*
X128679572Y-90292125D01*
X128629899Y-90292116D01*
X128206500Y-90292116D01*
X128206500Y-90565654D01*
X128615271Y-90565654D01*
G36*
X126753016Y-90841635D02*
G01*
X126753616Y-90959075D01*
X126754191Y-91058634D01*
X126754808Y-91141968D01*
X126755538Y-91210734D01*
X126756449Y-91266589D01*
X126757610Y-91311190D01*
X126759089Y-91346193D01*
X126760957Y-91373255D01*
X126763280Y-91394034D01*
X126766130Y-91410184D01*
X126769574Y-91423365D01*
X126773681Y-91435232D01*
X126778175Y-91446587D01*
X126814532Y-91512448D01*
X126864765Y-91564584D01*
X126928773Y-91602923D01*
X127006451Y-91627390D01*
X127037420Y-91632743D01*
X127115577Y-91636946D01*
X127190762Y-91628276D01*
X127259515Y-91607862D01*
X127318376Y-91576831D01*
X127363887Y-91536312D01*
X127374067Y-91522987D01*
X127390515Y-91500484D01*
X127402412Y-91486539D01*
X127405423Y-91484359D01*
X127412598Y-91491892D01*
X127424779Y-91511208D01*
X127429846Y-91520320D01*
X127462212Y-91561458D01*
X127508256Y-91593910D01*
X127550812Y-91610805D01*
X127571942Y-91613991D01*
X127608684Y-91616751D01*
X127657115Y-91618905D01*
X127713308Y-91620270D01*
X127764442Y-91620677D01*
X127942731Y-91620731D01*
X127942731Y-91356962D01*
X127827942Y-91356765D01*
X127742153Y-91355094D01*
X127674261Y-91350258D01*
X127622848Y-91342037D01*
X127586495Y-91330212D01*
X127565101Y-91315927D01*
X127554247Y-91302467D01*
X127545353Y-91284620D01*
X127538238Y-91260494D01*
X127532719Y-91228200D01*
X127528612Y-91185845D01*
X127525735Y-91131539D01*
X127523904Y-91063392D01*
X127522939Y-90979513D01*
X127522654Y-90878011D01*
X127522654Y-90565654D01*
X127942731Y-90565654D01*
X127942731Y-90292116D01*
X127268654Y-90292116D01*
X127268654Y-90565654D01*
X127268654Y-90912776D01*
X127268507Y-91009240D01*
X127268022Y-91088036D01*
X127267131Y-91151032D01*
X127265765Y-91200098D01*
X127263857Y-91237102D01*
X127261338Y-91263912D01*
X127258141Y-91282397D01*
X127254816Y-91293016D01*
X127230334Y-91328897D01*
X127194919Y-91352573D01*
X127153101Y-91363783D01*
X127109408Y-91362266D01*
X127068370Y-91347762D01*
X127034516Y-91320011D01*
X127024674Y-91306261D01*
X127019511Y-91296988D01*
X127015336Y-91286469D01*
X127012045Y-91272654D01*
X127009531Y-91253491D01*
X127007691Y-91226929D01*
X127006419Y-91190917D01*
X127005611Y-91143404D01*
X127005162Y-91082338D01*
X127004967Y-91005668D01*
X127004921Y-90919789D01*
X127004885Y-90565654D01*
X127268654Y-90565654D01*
X127268654Y-90292116D01*
X126750263Y-90292116D01*
X126753016Y-90841635D01*
G37*
X126753016Y-90841635D02*
X126753616Y-90959075D01*
X126754191Y-91058634D01*
X126754808Y-91141968D01*
X126755538Y-91210734D01*
X126756449Y-91266589D01*
X126757610Y-91311190D01*
X126759089Y-91346193D01*
X126760957Y-91373255D01*
X126763280Y-91394034D01*
X126766130Y-91410184D01*
X126769574Y-91423365D01*
X126773681Y-91435232D01*
X126778175Y-91446587D01*
X126814532Y-91512448D01*
X126864765Y-91564584D01*
X126928773Y-91602923D01*
X127006451Y-91627390D01*
X127037420Y-91632743D01*
X127115577Y-91636946D01*
X127190762Y-91628276D01*
X127259515Y-91607862D01*
X127318376Y-91576831D01*
X127363887Y-91536312D01*
X127374067Y-91522987D01*
X127390515Y-91500484D01*
X127402412Y-91486539D01*
X127405423Y-91484359D01*
X127412598Y-91491892D01*
X127424779Y-91511208D01*
X127429846Y-91520320D01*
X127462212Y-91561458D01*
X127508256Y-91593910D01*
X127550812Y-91610805D01*
X127571942Y-91613991D01*
X127608684Y-91616751D01*
X127657115Y-91618905D01*
X127713308Y-91620270D01*
X127764442Y-91620677D01*
X127942731Y-91620731D01*
X127942731Y-91356962D01*
X127827942Y-91356765D01*
X127742153Y-91355094D01*
X127674261Y-91350258D01*
X127622848Y-91342037D01*
X127586495Y-91330212D01*
X127565101Y-91315927D01*
X127554247Y-91302467D01*
X127545353Y-91284620D01*
X127538238Y-91260494D01*
X127532719Y-91228200D01*
X127528612Y-91185845D01*
X127525735Y-91131539D01*
X127523904Y-91063392D01*
X127522939Y-90979513D01*
X127522654Y-90878011D01*
X127522654Y-90565654D01*
X127942731Y-90565654D01*
X127942731Y-90292116D01*
X127268654Y-90292116D01*
X127268654Y-90565654D01*
X127268654Y-90912776D01*
X127268507Y-91009240D01*
X127268022Y-91088036D01*
X127267131Y-91151032D01*
X127265765Y-91200098D01*
X127263857Y-91237102D01*
X127261338Y-91263912D01*
X127258141Y-91282397D01*
X127254816Y-91293016D01*
X127230334Y-91328897D01*
X127194919Y-91352573D01*
X127153101Y-91363783D01*
X127109408Y-91362266D01*
X127068370Y-91347762D01*
X127034516Y-91320011D01*
X127024674Y-91306261D01*
X127019511Y-91296988D01*
X127015336Y-91286469D01*
X127012045Y-91272654D01*
X127009531Y-91253491D01*
X127007691Y-91226929D01*
X127006419Y-91190917D01*
X127005611Y-91143404D01*
X127005162Y-91082338D01*
X127004967Y-91005668D01*
X127004921Y-90919789D01*
X127004885Y-90565654D01*
X127268654Y-90565654D01*
X127268654Y-90292116D01*
X126750263Y-90292116D01*
X126753016Y-90841635D01*
%TO.C,C45*%
D16*
X108592857Y-66270142D02*
X108640476Y-66317761D01*
X108783333Y-66365380D01*
X108878571Y-66365380D01*
X109021428Y-66317761D01*
X109116666Y-66222523D01*
X109164285Y-66127285D01*
X109211904Y-65936809D01*
X109211904Y-65793952D01*
X109164285Y-65603476D01*
X109116666Y-65508238D01*
X109021428Y-65413000D01*
X108878571Y-65365380D01*
X108783333Y-65365380D01*
X108640476Y-65413000D01*
X108592857Y-65460619D01*
X107735714Y-65698714D02*
X107735714Y-66365380D01*
X107973809Y-65317761D02*
X108211904Y-66032047D01*
X107592857Y-66032047D01*
X106735714Y-65365380D02*
X107211904Y-65365380D01*
X107259523Y-65841571D01*
X107211904Y-65793952D01*
X107116666Y-65746333D01*
X106878571Y-65746333D01*
X106783333Y-65793952D01*
X106735714Y-65841571D01*
X106688095Y-65936809D01*
X106688095Y-66174904D01*
X106735714Y-66270142D01*
X106783333Y-66317761D01*
X106878571Y-66365380D01*
X107116666Y-66365380D01*
X107211904Y-66317761D01*
X107259523Y-66270142D01*
%TO.C,C23*%
X95226142Y-83685142D02*
X95273761Y-83637523D01*
X95321380Y-83494666D01*
X95321380Y-83399428D01*
X95273761Y-83256571D01*
X95178523Y-83161333D01*
X95083285Y-83113714D01*
X94892809Y-83066095D01*
X94749952Y-83066095D01*
X94559476Y-83113714D01*
X94464238Y-83161333D01*
X94369000Y-83256571D01*
X94321380Y-83399428D01*
X94321380Y-83494666D01*
X94369000Y-83637523D01*
X94416619Y-83685142D01*
X94416619Y-84066095D02*
X94369000Y-84113714D01*
X94321380Y-84208952D01*
X94321380Y-84447047D01*
X94369000Y-84542285D01*
X94416619Y-84589904D01*
X94511857Y-84637523D01*
X94607095Y-84637523D01*
X94749952Y-84589904D01*
X95321380Y-84018476D01*
X95321380Y-84637523D01*
X94321380Y-84970857D02*
X94321380Y-85589904D01*
X94702333Y-85256571D01*
X94702333Y-85399428D01*
X94749952Y-85494666D01*
X94797571Y-85542285D01*
X94892809Y-85589904D01*
X95130904Y-85589904D01*
X95226142Y-85542285D01*
X95273761Y-85494666D01*
X95321380Y-85399428D01*
X95321380Y-85113714D01*
X95273761Y-85018476D01*
X95226142Y-84970857D01*
%TO.C,C24*%
X97131142Y-83685142D02*
X97178761Y-83637523D01*
X97226380Y-83494666D01*
X97226380Y-83399428D01*
X97178761Y-83256571D01*
X97083523Y-83161333D01*
X96988285Y-83113714D01*
X96797809Y-83066095D01*
X96654952Y-83066095D01*
X96464476Y-83113714D01*
X96369238Y-83161333D01*
X96274000Y-83256571D01*
X96226380Y-83399428D01*
X96226380Y-83494666D01*
X96274000Y-83637523D01*
X96321619Y-83685142D01*
X96321619Y-84066095D02*
X96274000Y-84113714D01*
X96226380Y-84208952D01*
X96226380Y-84447047D01*
X96274000Y-84542285D01*
X96321619Y-84589904D01*
X96416857Y-84637523D01*
X96512095Y-84637523D01*
X96654952Y-84589904D01*
X97226380Y-84018476D01*
X97226380Y-84637523D01*
X96559714Y-85494666D02*
X97226380Y-85494666D01*
X96178761Y-85256571D02*
X96893047Y-85018476D01*
X96893047Y-85637523D01*
%TO.C,C25*%
X99036142Y-77081142D02*
X99083761Y-77033523D01*
X99131380Y-76890666D01*
X99131380Y-76795428D01*
X99083761Y-76652571D01*
X98988523Y-76557333D01*
X98893285Y-76509714D01*
X98702809Y-76462095D01*
X98559952Y-76462095D01*
X98369476Y-76509714D01*
X98274238Y-76557333D01*
X98179000Y-76652571D01*
X98131380Y-76795428D01*
X98131380Y-76890666D01*
X98179000Y-77033523D01*
X98226619Y-77081142D01*
X98226619Y-77462095D02*
X98179000Y-77509714D01*
X98131380Y-77604952D01*
X98131380Y-77843047D01*
X98179000Y-77938285D01*
X98226619Y-77985904D01*
X98321857Y-78033523D01*
X98417095Y-78033523D01*
X98559952Y-77985904D01*
X99131380Y-77414476D01*
X99131380Y-78033523D01*
X98131380Y-78938285D02*
X98131380Y-78462095D01*
X98607571Y-78414476D01*
X98559952Y-78462095D01*
X98512333Y-78557333D01*
X98512333Y-78795428D01*
X98559952Y-78890666D01*
X98607571Y-78938285D01*
X98702809Y-78985904D01*
X98940904Y-78985904D01*
X99036142Y-78938285D01*
X99083761Y-78890666D01*
X99131380Y-78795428D01*
X99131380Y-78557333D01*
X99083761Y-78462095D01*
X99036142Y-78414476D01*
%TO.C,C26*%
X101576142Y-77081142D02*
X101623761Y-77033523D01*
X101671380Y-76890666D01*
X101671380Y-76795428D01*
X101623761Y-76652571D01*
X101528523Y-76557333D01*
X101433285Y-76509714D01*
X101242809Y-76462095D01*
X101099952Y-76462095D01*
X100909476Y-76509714D01*
X100814238Y-76557333D01*
X100719000Y-76652571D01*
X100671380Y-76795428D01*
X100671380Y-76890666D01*
X100719000Y-77033523D01*
X100766619Y-77081142D01*
X100766619Y-77462095D02*
X100719000Y-77509714D01*
X100671380Y-77604952D01*
X100671380Y-77843047D01*
X100719000Y-77938285D01*
X100766619Y-77985904D01*
X100861857Y-78033523D01*
X100957095Y-78033523D01*
X101099952Y-77985904D01*
X101671380Y-77414476D01*
X101671380Y-78033523D01*
X100671380Y-78890666D02*
X100671380Y-78700190D01*
X100719000Y-78604952D01*
X100766619Y-78557333D01*
X100909476Y-78462095D01*
X101099952Y-78414476D01*
X101480904Y-78414476D01*
X101576142Y-78462095D01*
X101623761Y-78509714D01*
X101671380Y-78604952D01*
X101671380Y-78795428D01*
X101623761Y-78890666D01*
X101576142Y-78938285D01*
X101480904Y-78985904D01*
X101242809Y-78985904D01*
X101147571Y-78938285D01*
X101099952Y-78890666D01*
X101052333Y-78795428D01*
X101052333Y-78604952D01*
X101099952Y-78509714D01*
X101147571Y-78462095D01*
X101242809Y-78414476D01*
%TO.C,C27*%
X103481142Y-77081142D02*
X103528761Y-77033523D01*
X103576380Y-76890666D01*
X103576380Y-76795428D01*
X103528761Y-76652571D01*
X103433523Y-76557333D01*
X103338285Y-76509714D01*
X103147809Y-76462095D01*
X103004952Y-76462095D01*
X102814476Y-76509714D01*
X102719238Y-76557333D01*
X102624000Y-76652571D01*
X102576380Y-76795428D01*
X102576380Y-76890666D01*
X102624000Y-77033523D01*
X102671619Y-77081142D01*
X102671619Y-77462095D02*
X102624000Y-77509714D01*
X102576380Y-77604952D01*
X102576380Y-77843047D01*
X102624000Y-77938285D01*
X102671619Y-77985904D01*
X102766857Y-78033523D01*
X102862095Y-78033523D01*
X103004952Y-77985904D01*
X103576380Y-77414476D01*
X103576380Y-78033523D01*
X102576380Y-78366857D02*
X102576380Y-79033523D01*
X103576380Y-78604952D01*
%TO.C,C28*%
X106021142Y-77081142D02*
X106068761Y-77033523D01*
X106116380Y-76890666D01*
X106116380Y-76795428D01*
X106068761Y-76652571D01*
X105973523Y-76557333D01*
X105878285Y-76509714D01*
X105687809Y-76462095D01*
X105544952Y-76462095D01*
X105354476Y-76509714D01*
X105259238Y-76557333D01*
X105164000Y-76652571D01*
X105116380Y-76795428D01*
X105116380Y-76890666D01*
X105164000Y-77033523D01*
X105211619Y-77081142D01*
X105211619Y-77462095D02*
X105164000Y-77509714D01*
X105116380Y-77604952D01*
X105116380Y-77843047D01*
X105164000Y-77938285D01*
X105211619Y-77985904D01*
X105306857Y-78033523D01*
X105402095Y-78033523D01*
X105544952Y-77985904D01*
X106116380Y-77414476D01*
X106116380Y-78033523D01*
X105544952Y-78604952D02*
X105497333Y-78509714D01*
X105449714Y-78462095D01*
X105354476Y-78414476D01*
X105306857Y-78414476D01*
X105211619Y-78462095D01*
X105164000Y-78509714D01*
X105116380Y-78604952D01*
X105116380Y-78795428D01*
X105164000Y-78890666D01*
X105211619Y-78938285D01*
X105306857Y-78985904D01*
X105354476Y-78985904D01*
X105449714Y-78938285D01*
X105497333Y-78890666D01*
X105544952Y-78795428D01*
X105544952Y-78604952D01*
X105592571Y-78509714D01*
X105640190Y-78462095D01*
X105735428Y-78414476D01*
X105925904Y-78414476D01*
X106021142Y-78462095D01*
X106068761Y-78509714D01*
X106116380Y-78604952D01*
X106116380Y-78795428D01*
X106068761Y-78890666D01*
X106021142Y-78938285D01*
X105925904Y-78985904D01*
X105735428Y-78985904D01*
X105640190Y-78938285D01*
X105592571Y-78890666D01*
X105544952Y-78795428D01*
%TO.C,C29*%
X107926142Y-83685142D02*
X107973761Y-83637523D01*
X108021380Y-83494666D01*
X108021380Y-83399428D01*
X107973761Y-83256571D01*
X107878523Y-83161333D01*
X107783285Y-83113714D01*
X107592809Y-83066095D01*
X107449952Y-83066095D01*
X107259476Y-83113714D01*
X107164238Y-83161333D01*
X107069000Y-83256571D01*
X107021380Y-83399428D01*
X107021380Y-83494666D01*
X107069000Y-83637523D01*
X107116619Y-83685142D01*
X107116619Y-84066095D02*
X107069000Y-84113714D01*
X107021380Y-84208952D01*
X107021380Y-84447047D01*
X107069000Y-84542285D01*
X107116619Y-84589904D01*
X107211857Y-84637523D01*
X107307095Y-84637523D01*
X107449952Y-84589904D01*
X108021380Y-84018476D01*
X108021380Y-84637523D01*
X108021380Y-85113714D02*
X108021380Y-85304190D01*
X107973761Y-85399428D01*
X107926142Y-85447047D01*
X107783285Y-85542285D01*
X107592809Y-85589904D01*
X107211857Y-85589904D01*
X107116619Y-85542285D01*
X107069000Y-85494666D01*
X107021380Y-85399428D01*
X107021380Y-85208952D01*
X107069000Y-85113714D01*
X107116619Y-85066095D01*
X107211857Y-85018476D01*
X107449952Y-85018476D01*
X107545190Y-85066095D01*
X107592809Y-85113714D01*
X107640428Y-85208952D01*
X107640428Y-85399428D01*
X107592809Y-85494666D01*
X107545190Y-85542285D01*
X107449952Y-85589904D01*
%TO.C,C30*%
X109958142Y-83685142D02*
X110005761Y-83637523D01*
X110053380Y-83494666D01*
X110053380Y-83399428D01*
X110005761Y-83256571D01*
X109910523Y-83161333D01*
X109815285Y-83113714D01*
X109624809Y-83066095D01*
X109481952Y-83066095D01*
X109291476Y-83113714D01*
X109196238Y-83161333D01*
X109101000Y-83256571D01*
X109053380Y-83399428D01*
X109053380Y-83494666D01*
X109101000Y-83637523D01*
X109148619Y-83685142D01*
X109053380Y-84018476D02*
X109053380Y-84637523D01*
X109434333Y-84304190D01*
X109434333Y-84447047D01*
X109481952Y-84542285D01*
X109529571Y-84589904D01*
X109624809Y-84637523D01*
X109862904Y-84637523D01*
X109958142Y-84589904D01*
X110005761Y-84542285D01*
X110053380Y-84447047D01*
X110053380Y-84161333D01*
X110005761Y-84066095D01*
X109958142Y-84018476D01*
X109053380Y-85256571D02*
X109053380Y-85351809D01*
X109101000Y-85447047D01*
X109148619Y-85494666D01*
X109243857Y-85542285D01*
X109434333Y-85589904D01*
X109672428Y-85589904D01*
X109862904Y-85542285D01*
X109958142Y-85494666D01*
X110005761Y-85447047D01*
X110053380Y-85351809D01*
X110053380Y-85256571D01*
X110005761Y-85161333D01*
X109958142Y-85113714D01*
X109862904Y-85066095D01*
X109672428Y-85018476D01*
X109434333Y-85018476D01*
X109243857Y-85066095D01*
X109148619Y-85113714D01*
X109101000Y-85161333D01*
X109053380Y-85256571D01*
%TO.C,C33*%
X100464857Y-85828142D02*
X100512476Y-85875761D01*
X100655333Y-85923380D01*
X100750571Y-85923380D01*
X100893428Y-85875761D01*
X100988666Y-85780523D01*
X101036285Y-85685285D01*
X101083904Y-85494809D01*
X101083904Y-85351952D01*
X101036285Y-85161476D01*
X100988666Y-85066238D01*
X100893428Y-84971000D01*
X100750571Y-84923380D01*
X100655333Y-84923380D01*
X100512476Y-84971000D01*
X100464857Y-85018619D01*
X100131523Y-84923380D02*
X99512476Y-84923380D01*
X99845809Y-85304333D01*
X99702952Y-85304333D01*
X99607714Y-85351952D01*
X99560095Y-85399571D01*
X99512476Y-85494809D01*
X99512476Y-85732904D01*
X99560095Y-85828142D01*
X99607714Y-85875761D01*
X99702952Y-85923380D01*
X99988666Y-85923380D01*
X100083904Y-85875761D01*
X100131523Y-85828142D01*
X99179142Y-84923380D02*
X98560095Y-84923380D01*
X98893428Y-85304333D01*
X98750571Y-85304333D01*
X98655333Y-85351952D01*
X98607714Y-85399571D01*
X98560095Y-85494809D01*
X98560095Y-85732904D01*
X98607714Y-85828142D01*
X98655333Y-85875761D01*
X98750571Y-85923380D01*
X99036285Y-85923380D01*
X99131523Y-85875761D01*
X99179142Y-85828142D01*
%TO.C,C36*%
X92686142Y-83812142D02*
X92733761Y-83764523D01*
X92781380Y-83621666D01*
X92781380Y-83526428D01*
X92733761Y-83383571D01*
X92638523Y-83288333D01*
X92543285Y-83240714D01*
X92352809Y-83193095D01*
X92209952Y-83193095D01*
X92019476Y-83240714D01*
X91924238Y-83288333D01*
X91829000Y-83383571D01*
X91781380Y-83526428D01*
X91781380Y-83621666D01*
X91829000Y-83764523D01*
X91876619Y-83812142D01*
X91781380Y-84145476D02*
X91781380Y-84764523D01*
X92162333Y-84431190D01*
X92162333Y-84574047D01*
X92209952Y-84669285D01*
X92257571Y-84716904D01*
X92352809Y-84764523D01*
X92590904Y-84764523D01*
X92686142Y-84716904D01*
X92733761Y-84669285D01*
X92781380Y-84574047D01*
X92781380Y-84288333D01*
X92733761Y-84193095D01*
X92686142Y-84145476D01*
X91781380Y-85621666D02*
X91781380Y-85431190D01*
X91829000Y-85335952D01*
X91876619Y-85288333D01*
X92019476Y-85193095D01*
X92209952Y-85145476D01*
X92590904Y-85145476D01*
X92686142Y-85193095D01*
X92733761Y-85240714D01*
X92781380Y-85335952D01*
X92781380Y-85526428D01*
X92733761Y-85621666D01*
X92686142Y-85669285D01*
X92590904Y-85716904D01*
X92352809Y-85716904D01*
X92257571Y-85669285D01*
X92209952Y-85621666D01*
X92162333Y-85526428D01*
X92162333Y-85335952D01*
X92209952Y-85240714D01*
X92257571Y-85193095D01*
X92352809Y-85145476D01*
%TO.C,C37*%
X105798857Y-85984142D02*
X105846476Y-86031761D01*
X105989333Y-86079380D01*
X106084571Y-86079380D01*
X106227428Y-86031761D01*
X106322666Y-85936523D01*
X106370285Y-85841285D01*
X106417904Y-85650809D01*
X106417904Y-85507952D01*
X106370285Y-85317476D01*
X106322666Y-85222238D01*
X106227428Y-85127000D01*
X106084571Y-85079380D01*
X105989333Y-85079380D01*
X105846476Y-85127000D01*
X105798857Y-85174619D01*
X105465523Y-85079380D02*
X104846476Y-85079380D01*
X105179809Y-85460333D01*
X105036952Y-85460333D01*
X104941714Y-85507952D01*
X104894095Y-85555571D01*
X104846476Y-85650809D01*
X104846476Y-85888904D01*
X104894095Y-85984142D01*
X104941714Y-86031761D01*
X105036952Y-86079380D01*
X105322666Y-86079380D01*
X105417904Y-86031761D01*
X105465523Y-85984142D01*
X104513142Y-85079380D02*
X103846476Y-85079380D01*
X104275047Y-86079380D01*
%TO.C,C38*%
X112879142Y-83812142D02*
X112926761Y-83764523D01*
X112974380Y-83621666D01*
X112974380Y-83526428D01*
X112926761Y-83383571D01*
X112831523Y-83288333D01*
X112736285Y-83240714D01*
X112545809Y-83193095D01*
X112402952Y-83193095D01*
X112212476Y-83240714D01*
X112117238Y-83288333D01*
X112022000Y-83383571D01*
X111974380Y-83526428D01*
X111974380Y-83621666D01*
X112022000Y-83764523D01*
X112069619Y-83812142D01*
X111974380Y-84145476D02*
X111974380Y-84764523D01*
X112355333Y-84431190D01*
X112355333Y-84574047D01*
X112402952Y-84669285D01*
X112450571Y-84716904D01*
X112545809Y-84764523D01*
X112783904Y-84764523D01*
X112879142Y-84716904D01*
X112926761Y-84669285D01*
X112974380Y-84574047D01*
X112974380Y-84288333D01*
X112926761Y-84193095D01*
X112879142Y-84145476D01*
X112402952Y-85335952D02*
X112355333Y-85240714D01*
X112307714Y-85193095D01*
X112212476Y-85145476D01*
X112164857Y-85145476D01*
X112069619Y-85193095D01*
X112022000Y-85240714D01*
X111974380Y-85335952D01*
X111974380Y-85526428D01*
X112022000Y-85621666D01*
X112069619Y-85669285D01*
X112164857Y-85716904D01*
X112212476Y-85716904D01*
X112307714Y-85669285D01*
X112355333Y-85621666D01*
X112402952Y-85526428D01*
X112402952Y-85335952D01*
X112450571Y-85240714D01*
X112498190Y-85193095D01*
X112593428Y-85145476D01*
X112783904Y-85145476D01*
X112879142Y-85193095D01*
X112926761Y-85240714D01*
X112974380Y-85335952D01*
X112974380Y-85526428D01*
X112926761Y-85621666D01*
X112879142Y-85669285D01*
X112783904Y-85716904D01*
X112593428Y-85716904D01*
X112498190Y-85669285D01*
X112450571Y-85621666D01*
X112402952Y-85526428D01*
%TO.C,C39*%
X89415857Y-67413142D02*
X89463476Y-67460761D01*
X89606333Y-67508380D01*
X89701571Y-67508380D01*
X89844428Y-67460761D01*
X89939666Y-67365523D01*
X89987285Y-67270285D01*
X90034904Y-67079809D01*
X90034904Y-66936952D01*
X89987285Y-66746476D01*
X89939666Y-66651238D01*
X89844428Y-66556000D01*
X89701571Y-66508380D01*
X89606333Y-66508380D01*
X89463476Y-66556000D01*
X89415857Y-66603619D01*
X89082523Y-66508380D02*
X88463476Y-66508380D01*
X88796809Y-66889333D01*
X88653952Y-66889333D01*
X88558714Y-66936952D01*
X88511095Y-66984571D01*
X88463476Y-67079809D01*
X88463476Y-67317904D01*
X88511095Y-67413142D01*
X88558714Y-67460761D01*
X88653952Y-67508380D01*
X88939666Y-67508380D01*
X89034904Y-67460761D01*
X89082523Y-67413142D01*
X87987285Y-67508380D02*
X87796809Y-67508380D01*
X87701571Y-67460761D01*
X87653952Y-67413142D01*
X87558714Y-67270285D01*
X87511095Y-67079809D01*
X87511095Y-66698857D01*
X87558714Y-66603619D01*
X87606333Y-66556000D01*
X87701571Y-66508380D01*
X87892047Y-66508380D01*
X87987285Y-66556000D01*
X88034904Y-66603619D01*
X88082523Y-66698857D01*
X88082523Y-66936952D01*
X88034904Y-67032190D01*
X87987285Y-67079809D01*
X87892047Y-67127428D01*
X87701571Y-67127428D01*
X87606333Y-67079809D01*
X87558714Y-67032190D01*
X87511095Y-66936952D01*
%TO.C,C40*%
X97416857Y-66270142D02*
X97464476Y-66317761D01*
X97607333Y-66365380D01*
X97702571Y-66365380D01*
X97845428Y-66317761D01*
X97940666Y-66222523D01*
X97988285Y-66127285D01*
X98035904Y-65936809D01*
X98035904Y-65793952D01*
X97988285Y-65603476D01*
X97940666Y-65508238D01*
X97845428Y-65413000D01*
X97702571Y-65365380D01*
X97607333Y-65365380D01*
X97464476Y-65413000D01*
X97416857Y-65460619D01*
X96559714Y-65698714D02*
X96559714Y-66365380D01*
X96797809Y-65317761D02*
X97035904Y-66032047D01*
X96416857Y-66032047D01*
X95845428Y-65365380D02*
X95750190Y-65365380D01*
X95654952Y-65413000D01*
X95607333Y-65460619D01*
X95559714Y-65555857D01*
X95512095Y-65746333D01*
X95512095Y-65984428D01*
X95559714Y-66174904D01*
X95607333Y-66270142D01*
X95654952Y-66317761D01*
X95750190Y-66365380D01*
X95845428Y-66365380D01*
X95940666Y-66317761D01*
X95988285Y-66270142D01*
X96035904Y-66174904D01*
X96083523Y-65984428D01*
X96083523Y-65746333D01*
X96035904Y-65555857D01*
X95988285Y-65460619D01*
X95940666Y-65413000D01*
X95845428Y-65365380D01*
%TO.C,C46*%
X116403357Y-67159142D02*
X116450976Y-67206761D01*
X116593833Y-67254380D01*
X116689071Y-67254380D01*
X116831928Y-67206761D01*
X116927166Y-67111523D01*
X116974785Y-67016285D01*
X117022404Y-66825809D01*
X117022404Y-66682952D01*
X116974785Y-66492476D01*
X116927166Y-66397238D01*
X116831928Y-66302000D01*
X116689071Y-66254380D01*
X116593833Y-66254380D01*
X116450976Y-66302000D01*
X116403357Y-66349619D01*
X115546214Y-66587714D02*
X115546214Y-67254380D01*
X115784309Y-66206761D02*
X116022404Y-66921047D01*
X115403357Y-66921047D01*
X114593833Y-66254380D02*
X114784309Y-66254380D01*
X114879547Y-66302000D01*
X114927166Y-66349619D01*
X115022404Y-66492476D01*
X115070023Y-66682952D01*
X115070023Y-67063904D01*
X115022404Y-67159142D01*
X114974785Y-67206761D01*
X114879547Y-67254380D01*
X114689071Y-67254380D01*
X114593833Y-67206761D01*
X114546214Y-67159142D01*
X114498595Y-67063904D01*
X114498595Y-66825809D01*
X114546214Y-66730571D01*
X114593833Y-66682952D01*
X114689071Y-66635333D01*
X114879547Y-66635333D01*
X114974785Y-66682952D01*
X115022404Y-66730571D01*
X115070023Y-66825809D01*
%TO.C,C47*%
X86229757Y-63476142D02*
X86277376Y-63523761D01*
X86420233Y-63571380D01*
X86515471Y-63571380D01*
X86658328Y-63523761D01*
X86753566Y-63428523D01*
X86801185Y-63333285D01*
X86848804Y-63142809D01*
X86848804Y-62999952D01*
X86801185Y-62809476D01*
X86753566Y-62714238D01*
X86658328Y-62619000D01*
X86515471Y-62571380D01*
X86420233Y-62571380D01*
X86277376Y-62619000D01*
X86229757Y-62666619D01*
X85372614Y-62904714D02*
X85372614Y-63571380D01*
X85610709Y-62523761D02*
X85848804Y-63238047D01*
X85229757Y-63238047D01*
X84944042Y-62571380D02*
X84277376Y-62571380D01*
X84705947Y-63571380D01*
%TO.C,C48*%
X89288857Y-63476142D02*
X89336476Y-63523761D01*
X89479333Y-63571380D01*
X89574571Y-63571380D01*
X89717428Y-63523761D01*
X89812666Y-63428523D01*
X89860285Y-63333285D01*
X89907904Y-63142809D01*
X89907904Y-62999952D01*
X89860285Y-62809476D01*
X89812666Y-62714238D01*
X89717428Y-62619000D01*
X89574571Y-62571380D01*
X89479333Y-62571380D01*
X89336476Y-62619000D01*
X89288857Y-62666619D01*
X88431714Y-62904714D02*
X88431714Y-63571380D01*
X88669809Y-62523761D02*
X88907904Y-63238047D01*
X88288857Y-63238047D01*
X87765047Y-62999952D02*
X87860285Y-62952333D01*
X87907904Y-62904714D01*
X87955523Y-62809476D01*
X87955523Y-62761857D01*
X87907904Y-62666619D01*
X87860285Y-62619000D01*
X87765047Y-62571380D01*
X87574571Y-62571380D01*
X87479333Y-62619000D01*
X87431714Y-62666619D01*
X87384095Y-62761857D01*
X87384095Y-62809476D01*
X87431714Y-62904714D01*
X87479333Y-62952333D01*
X87574571Y-62999952D01*
X87765047Y-62999952D01*
X87860285Y-63047571D01*
X87907904Y-63095190D01*
X87955523Y-63190428D01*
X87955523Y-63380904D01*
X87907904Y-63476142D01*
X87860285Y-63523761D01*
X87765047Y-63571380D01*
X87574571Y-63571380D01*
X87479333Y-63523761D01*
X87431714Y-63476142D01*
X87384095Y-63380904D01*
X87384095Y-63190428D01*
X87431714Y-63095190D01*
X87479333Y-63047571D01*
X87574571Y-62999952D01*
%TO.C,C49*%
X96135757Y-63476142D02*
X96183376Y-63523761D01*
X96326233Y-63571380D01*
X96421471Y-63571380D01*
X96564328Y-63523761D01*
X96659566Y-63428523D01*
X96707185Y-63333285D01*
X96754804Y-63142809D01*
X96754804Y-62999952D01*
X96707185Y-62809476D01*
X96659566Y-62714238D01*
X96564328Y-62619000D01*
X96421471Y-62571380D01*
X96326233Y-62571380D01*
X96183376Y-62619000D01*
X96135757Y-62666619D01*
X95278614Y-62904714D02*
X95278614Y-63571380D01*
X95516709Y-62523761D02*
X95754804Y-63238047D01*
X95135757Y-63238047D01*
X94707185Y-63571380D02*
X94516709Y-63571380D01*
X94421471Y-63523761D01*
X94373852Y-63476142D01*
X94278614Y-63333285D01*
X94230995Y-63142809D01*
X94230995Y-62761857D01*
X94278614Y-62666619D01*
X94326233Y-62619000D01*
X94421471Y-62571380D01*
X94611947Y-62571380D01*
X94707185Y-62619000D01*
X94754804Y-62666619D01*
X94802423Y-62761857D01*
X94802423Y-62999952D01*
X94754804Y-63095190D01*
X94707185Y-63142809D01*
X94611947Y-63190428D01*
X94421471Y-63190428D01*
X94326233Y-63142809D01*
X94278614Y-63095190D01*
X94230995Y-62999952D01*
%TO.C,C50*%
X99702857Y-63476142D02*
X99750476Y-63523761D01*
X99893333Y-63571380D01*
X99988571Y-63571380D01*
X100131428Y-63523761D01*
X100226666Y-63428523D01*
X100274285Y-63333285D01*
X100321904Y-63142809D01*
X100321904Y-62999952D01*
X100274285Y-62809476D01*
X100226666Y-62714238D01*
X100131428Y-62619000D01*
X99988571Y-62571380D01*
X99893333Y-62571380D01*
X99750476Y-62619000D01*
X99702857Y-62666619D01*
X98798095Y-62571380D02*
X99274285Y-62571380D01*
X99321904Y-63047571D01*
X99274285Y-62999952D01*
X99179047Y-62952333D01*
X98940952Y-62952333D01*
X98845714Y-62999952D01*
X98798095Y-63047571D01*
X98750476Y-63142809D01*
X98750476Y-63380904D01*
X98798095Y-63476142D01*
X98845714Y-63523761D01*
X98940952Y-63571380D01*
X99179047Y-63571380D01*
X99274285Y-63523761D01*
X99321904Y-63476142D01*
X98131428Y-62571380D02*
X98036190Y-62571380D01*
X97940952Y-62619000D01*
X97893333Y-62666619D01*
X97845714Y-62761857D01*
X97798095Y-62952333D01*
X97798095Y-63190428D01*
X97845714Y-63380904D01*
X97893333Y-63476142D01*
X97940952Y-63523761D01*
X98036190Y-63571380D01*
X98131428Y-63571380D01*
X98226666Y-63523761D01*
X98274285Y-63476142D01*
X98321904Y-63380904D01*
X98369523Y-63190428D01*
X98369523Y-62952333D01*
X98321904Y-62761857D01*
X98274285Y-62666619D01*
X98226666Y-62619000D01*
X98131428Y-62571380D01*
%TO.C,C51*%
X106179857Y-63476142D02*
X106227476Y-63523761D01*
X106370333Y-63571380D01*
X106465571Y-63571380D01*
X106608428Y-63523761D01*
X106703666Y-63428523D01*
X106751285Y-63333285D01*
X106798904Y-63142809D01*
X106798904Y-62999952D01*
X106751285Y-62809476D01*
X106703666Y-62714238D01*
X106608428Y-62619000D01*
X106465571Y-62571380D01*
X106370333Y-62571380D01*
X106227476Y-62619000D01*
X106179857Y-62666619D01*
X105275095Y-62571380D02*
X105751285Y-62571380D01*
X105798904Y-63047571D01*
X105751285Y-62999952D01*
X105656047Y-62952333D01*
X105417952Y-62952333D01*
X105322714Y-62999952D01*
X105275095Y-63047571D01*
X105227476Y-63142809D01*
X105227476Y-63380904D01*
X105275095Y-63476142D01*
X105322714Y-63523761D01*
X105417952Y-63571380D01*
X105656047Y-63571380D01*
X105751285Y-63523761D01*
X105798904Y-63476142D01*
X104275095Y-63571380D02*
X104846523Y-63571380D01*
X104560809Y-63571380D02*
X104560809Y-62571380D01*
X104656047Y-62714238D01*
X104751285Y-62809476D01*
X104846523Y-62857095D01*
%TO.C,C52*%
X109851757Y-63476142D02*
X109899376Y-63523761D01*
X110042233Y-63571380D01*
X110137471Y-63571380D01*
X110280328Y-63523761D01*
X110375566Y-63428523D01*
X110423185Y-63333285D01*
X110470804Y-63142809D01*
X110470804Y-62999952D01*
X110423185Y-62809476D01*
X110375566Y-62714238D01*
X110280328Y-62619000D01*
X110137471Y-62571380D01*
X110042233Y-62571380D01*
X109899376Y-62619000D01*
X109851757Y-62666619D01*
X108946995Y-62571380D02*
X109423185Y-62571380D01*
X109470804Y-63047571D01*
X109423185Y-62999952D01*
X109327947Y-62952333D01*
X109089852Y-62952333D01*
X108994614Y-62999952D01*
X108946995Y-63047571D01*
X108899376Y-63142809D01*
X108899376Y-63380904D01*
X108946995Y-63476142D01*
X108994614Y-63523761D01*
X109089852Y-63571380D01*
X109327947Y-63571380D01*
X109423185Y-63523761D01*
X109470804Y-63476142D01*
X108518423Y-62666619D02*
X108470804Y-62619000D01*
X108375566Y-62571380D01*
X108137471Y-62571380D01*
X108042233Y-62619000D01*
X107994614Y-62666619D01*
X107946995Y-62761857D01*
X107946995Y-62857095D01*
X107994614Y-62999952D01*
X108566042Y-63571380D01*
X107946995Y-63571380D01*
%TO.C,C53*%
X116392257Y-63476142D02*
X116439876Y-63523761D01*
X116582733Y-63571380D01*
X116677971Y-63571380D01*
X116820828Y-63523761D01*
X116916066Y-63428523D01*
X116963685Y-63333285D01*
X117011304Y-63142809D01*
X117011304Y-62999952D01*
X116963685Y-62809476D01*
X116916066Y-62714238D01*
X116820828Y-62619000D01*
X116677971Y-62571380D01*
X116582733Y-62571380D01*
X116439876Y-62619000D01*
X116392257Y-62666619D01*
X115487495Y-62571380D02*
X115963685Y-62571380D01*
X116011304Y-63047571D01*
X115963685Y-62999952D01*
X115868447Y-62952333D01*
X115630352Y-62952333D01*
X115535114Y-62999952D01*
X115487495Y-63047571D01*
X115439876Y-63142809D01*
X115439876Y-63380904D01*
X115487495Y-63476142D01*
X115535114Y-63523761D01*
X115630352Y-63571380D01*
X115868447Y-63571380D01*
X115963685Y-63523761D01*
X116011304Y-63476142D01*
X115106542Y-62571380D02*
X114487495Y-62571380D01*
X114820828Y-62952333D01*
X114677971Y-62952333D01*
X114582733Y-62999952D01*
X114535114Y-63047571D01*
X114487495Y-63142809D01*
X114487495Y-63380904D01*
X114535114Y-63476142D01*
X114582733Y-63523761D01*
X114677971Y-63571380D01*
X114963685Y-63571380D01*
X115058923Y-63523761D01*
X115106542Y-63476142D01*
%TO.C,C54*%
X119895857Y-63476142D02*
X119943476Y-63523761D01*
X120086333Y-63571380D01*
X120181571Y-63571380D01*
X120324428Y-63523761D01*
X120419666Y-63428523D01*
X120467285Y-63333285D01*
X120514904Y-63142809D01*
X120514904Y-62999952D01*
X120467285Y-62809476D01*
X120419666Y-62714238D01*
X120324428Y-62619000D01*
X120181571Y-62571380D01*
X120086333Y-62571380D01*
X119943476Y-62619000D01*
X119895857Y-62666619D01*
X118991095Y-62571380D02*
X119467285Y-62571380D01*
X119514904Y-63047571D01*
X119467285Y-62999952D01*
X119372047Y-62952333D01*
X119133952Y-62952333D01*
X119038714Y-62999952D01*
X118991095Y-63047571D01*
X118943476Y-63142809D01*
X118943476Y-63380904D01*
X118991095Y-63476142D01*
X119038714Y-63523761D01*
X119133952Y-63571380D01*
X119372047Y-63571380D01*
X119467285Y-63523761D01*
X119514904Y-63476142D01*
X118086333Y-62904714D02*
X118086333Y-63571380D01*
X118324428Y-62523761D02*
X118562523Y-63238047D01*
X117943476Y-63238047D01*
%TO.C,C65*%
X110085142Y-108069142D02*
X110132761Y-108021523D01*
X110180380Y-107878666D01*
X110180380Y-107783428D01*
X110132761Y-107640571D01*
X110037523Y-107545333D01*
X109942285Y-107497714D01*
X109751809Y-107450095D01*
X109608952Y-107450095D01*
X109418476Y-107497714D01*
X109323238Y-107545333D01*
X109228000Y-107640571D01*
X109180380Y-107783428D01*
X109180380Y-107878666D01*
X109228000Y-108021523D01*
X109275619Y-108069142D01*
X109180380Y-108926285D02*
X109180380Y-108735809D01*
X109228000Y-108640571D01*
X109275619Y-108592952D01*
X109418476Y-108497714D01*
X109608952Y-108450095D01*
X109989904Y-108450095D01*
X110085142Y-108497714D01*
X110132761Y-108545333D01*
X110180380Y-108640571D01*
X110180380Y-108831047D01*
X110132761Y-108926285D01*
X110085142Y-108973904D01*
X109989904Y-109021523D01*
X109751809Y-109021523D01*
X109656571Y-108973904D01*
X109608952Y-108926285D01*
X109561333Y-108831047D01*
X109561333Y-108640571D01*
X109608952Y-108545333D01*
X109656571Y-108497714D01*
X109751809Y-108450095D01*
X109180380Y-109926285D02*
X109180380Y-109450095D01*
X109656571Y-109402476D01*
X109608952Y-109450095D01*
X109561333Y-109545333D01*
X109561333Y-109783428D01*
X109608952Y-109878666D01*
X109656571Y-109926285D01*
X109751809Y-109973904D01*
X109989904Y-109973904D01*
X110085142Y-109926285D01*
X110132761Y-109878666D01*
X110180380Y-109783428D01*
X110180380Y-109545333D01*
X110132761Y-109450095D01*
X110085142Y-109402476D01*
%TO.C,C66*%
X107926142Y-108069142D02*
X107973761Y-108021523D01*
X108021380Y-107878666D01*
X108021380Y-107783428D01*
X107973761Y-107640571D01*
X107878523Y-107545333D01*
X107783285Y-107497714D01*
X107592809Y-107450095D01*
X107449952Y-107450095D01*
X107259476Y-107497714D01*
X107164238Y-107545333D01*
X107069000Y-107640571D01*
X107021380Y-107783428D01*
X107021380Y-107878666D01*
X107069000Y-108021523D01*
X107116619Y-108069142D01*
X107021380Y-108926285D02*
X107021380Y-108735809D01*
X107069000Y-108640571D01*
X107116619Y-108592952D01*
X107259476Y-108497714D01*
X107449952Y-108450095D01*
X107830904Y-108450095D01*
X107926142Y-108497714D01*
X107973761Y-108545333D01*
X108021380Y-108640571D01*
X108021380Y-108831047D01*
X107973761Y-108926285D01*
X107926142Y-108973904D01*
X107830904Y-109021523D01*
X107592809Y-109021523D01*
X107497571Y-108973904D01*
X107449952Y-108926285D01*
X107402333Y-108831047D01*
X107402333Y-108640571D01*
X107449952Y-108545333D01*
X107497571Y-108497714D01*
X107592809Y-108450095D01*
X107021380Y-109878666D02*
X107021380Y-109688190D01*
X107069000Y-109592952D01*
X107116619Y-109545333D01*
X107259476Y-109450095D01*
X107449952Y-109402476D01*
X107830904Y-109402476D01*
X107926142Y-109450095D01*
X107973761Y-109497714D01*
X108021380Y-109592952D01*
X108021380Y-109783428D01*
X107973761Y-109878666D01*
X107926142Y-109926285D01*
X107830904Y-109973904D01*
X107592809Y-109973904D01*
X107497571Y-109926285D01*
X107449952Y-109878666D01*
X107402333Y-109783428D01*
X107402333Y-109592952D01*
X107449952Y-109497714D01*
X107497571Y-109450095D01*
X107592809Y-109402476D01*
%TO.C,C67*%
X106021142Y-114800142D02*
X106068761Y-114752523D01*
X106116380Y-114609666D01*
X106116380Y-114514428D01*
X106068761Y-114371571D01*
X105973523Y-114276333D01*
X105878285Y-114228714D01*
X105687809Y-114181095D01*
X105544952Y-114181095D01*
X105354476Y-114228714D01*
X105259238Y-114276333D01*
X105164000Y-114371571D01*
X105116380Y-114514428D01*
X105116380Y-114609666D01*
X105164000Y-114752523D01*
X105211619Y-114800142D01*
X105116380Y-115657285D02*
X105116380Y-115466809D01*
X105164000Y-115371571D01*
X105211619Y-115323952D01*
X105354476Y-115228714D01*
X105544952Y-115181095D01*
X105925904Y-115181095D01*
X106021142Y-115228714D01*
X106068761Y-115276333D01*
X106116380Y-115371571D01*
X106116380Y-115562047D01*
X106068761Y-115657285D01*
X106021142Y-115704904D01*
X105925904Y-115752523D01*
X105687809Y-115752523D01*
X105592571Y-115704904D01*
X105544952Y-115657285D01*
X105497333Y-115562047D01*
X105497333Y-115371571D01*
X105544952Y-115276333D01*
X105592571Y-115228714D01*
X105687809Y-115181095D01*
X105116380Y-116085857D02*
X105116380Y-116752523D01*
X106116380Y-116323952D01*
%TO.C,C68*%
X103481142Y-114800142D02*
X103528761Y-114752523D01*
X103576380Y-114609666D01*
X103576380Y-114514428D01*
X103528761Y-114371571D01*
X103433523Y-114276333D01*
X103338285Y-114228714D01*
X103147809Y-114181095D01*
X103004952Y-114181095D01*
X102814476Y-114228714D01*
X102719238Y-114276333D01*
X102624000Y-114371571D01*
X102576380Y-114514428D01*
X102576380Y-114609666D01*
X102624000Y-114752523D01*
X102671619Y-114800142D01*
X102576380Y-115657285D02*
X102576380Y-115466809D01*
X102624000Y-115371571D01*
X102671619Y-115323952D01*
X102814476Y-115228714D01*
X103004952Y-115181095D01*
X103385904Y-115181095D01*
X103481142Y-115228714D01*
X103528761Y-115276333D01*
X103576380Y-115371571D01*
X103576380Y-115562047D01*
X103528761Y-115657285D01*
X103481142Y-115704904D01*
X103385904Y-115752523D01*
X103147809Y-115752523D01*
X103052571Y-115704904D01*
X103004952Y-115657285D01*
X102957333Y-115562047D01*
X102957333Y-115371571D01*
X103004952Y-115276333D01*
X103052571Y-115228714D01*
X103147809Y-115181095D01*
X103004952Y-116323952D02*
X102957333Y-116228714D01*
X102909714Y-116181095D01*
X102814476Y-116133476D01*
X102766857Y-116133476D01*
X102671619Y-116181095D01*
X102624000Y-116228714D01*
X102576380Y-116323952D01*
X102576380Y-116514428D01*
X102624000Y-116609666D01*
X102671619Y-116657285D01*
X102766857Y-116704904D01*
X102814476Y-116704904D01*
X102909714Y-116657285D01*
X102957333Y-116609666D01*
X103004952Y-116514428D01*
X103004952Y-116323952D01*
X103052571Y-116228714D01*
X103100190Y-116181095D01*
X103195428Y-116133476D01*
X103385904Y-116133476D01*
X103481142Y-116181095D01*
X103528761Y-116228714D01*
X103576380Y-116323952D01*
X103576380Y-116514428D01*
X103528761Y-116609666D01*
X103481142Y-116657285D01*
X103385904Y-116704904D01*
X103195428Y-116704904D01*
X103100190Y-116657285D01*
X103052571Y-116609666D01*
X103004952Y-116514428D01*
%TO.C,C69*%
X101449142Y-114800142D02*
X101496761Y-114752523D01*
X101544380Y-114609666D01*
X101544380Y-114514428D01*
X101496761Y-114371571D01*
X101401523Y-114276333D01*
X101306285Y-114228714D01*
X101115809Y-114181095D01*
X100972952Y-114181095D01*
X100782476Y-114228714D01*
X100687238Y-114276333D01*
X100592000Y-114371571D01*
X100544380Y-114514428D01*
X100544380Y-114609666D01*
X100592000Y-114752523D01*
X100639619Y-114800142D01*
X100544380Y-115657285D02*
X100544380Y-115466809D01*
X100592000Y-115371571D01*
X100639619Y-115323952D01*
X100782476Y-115228714D01*
X100972952Y-115181095D01*
X101353904Y-115181095D01*
X101449142Y-115228714D01*
X101496761Y-115276333D01*
X101544380Y-115371571D01*
X101544380Y-115562047D01*
X101496761Y-115657285D01*
X101449142Y-115704904D01*
X101353904Y-115752523D01*
X101115809Y-115752523D01*
X101020571Y-115704904D01*
X100972952Y-115657285D01*
X100925333Y-115562047D01*
X100925333Y-115371571D01*
X100972952Y-115276333D01*
X101020571Y-115228714D01*
X101115809Y-115181095D01*
X101544380Y-116228714D02*
X101544380Y-116419190D01*
X101496761Y-116514428D01*
X101449142Y-116562047D01*
X101306285Y-116657285D01*
X101115809Y-116704904D01*
X100734857Y-116704904D01*
X100639619Y-116657285D01*
X100592000Y-116609666D01*
X100544380Y-116514428D01*
X100544380Y-116323952D01*
X100592000Y-116228714D01*
X100639619Y-116181095D01*
X100734857Y-116133476D01*
X100972952Y-116133476D01*
X101068190Y-116181095D01*
X101115809Y-116228714D01*
X101163428Y-116323952D01*
X101163428Y-116514428D01*
X101115809Y-116609666D01*
X101068190Y-116657285D01*
X100972952Y-116704904D01*
%TO.C,C70*%
X99036142Y-114800142D02*
X99083761Y-114752523D01*
X99131380Y-114609666D01*
X99131380Y-114514428D01*
X99083761Y-114371571D01*
X98988523Y-114276333D01*
X98893285Y-114228714D01*
X98702809Y-114181095D01*
X98559952Y-114181095D01*
X98369476Y-114228714D01*
X98274238Y-114276333D01*
X98179000Y-114371571D01*
X98131380Y-114514428D01*
X98131380Y-114609666D01*
X98179000Y-114752523D01*
X98226619Y-114800142D01*
X98131380Y-115133476D02*
X98131380Y-115800142D01*
X99131380Y-115371571D01*
X98131380Y-116371571D02*
X98131380Y-116466809D01*
X98179000Y-116562047D01*
X98226619Y-116609666D01*
X98321857Y-116657285D01*
X98512333Y-116704904D01*
X98750428Y-116704904D01*
X98940904Y-116657285D01*
X99036142Y-116609666D01*
X99083761Y-116562047D01*
X99131380Y-116466809D01*
X99131380Y-116371571D01*
X99083761Y-116276333D01*
X99036142Y-116228714D01*
X98940904Y-116181095D01*
X98750428Y-116133476D01*
X98512333Y-116133476D01*
X98321857Y-116181095D01*
X98226619Y-116228714D01*
X98179000Y-116276333D01*
X98131380Y-116371571D01*
%TO.C,C71*%
X97258142Y-108196142D02*
X97305761Y-108148523D01*
X97353380Y-108005666D01*
X97353380Y-107910428D01*
X97305761Y-107767571D01*
X97210523Y-107672333D01*
X97115285Y-107624714D01*
X96924809Y-107577095D01*
X96781952Y-107577095D01*
X96591476Y-107624714D01*
X96496238Y-107672333D01*
X96401000Y-107767571D01*
X96353380Y-107910428D01*
X96353380Y-108005666D01*
X96401000Y-108148523D01*
X96448619Y-108196142D01*
X96353380Y-108529476D02*
X96353380Y-109196142D01*
X97353380Y-108767571D01*
X97353380Y-110100904D02*
X97353380Y-109529476D01*
X97353380Y-109815190D02*
X96353380Y-109815190D01*
X96496238Y-109719952D01*
X96591476Y-109624714D01*
X96639095Y-109529476D01*
%TO.C,C72*%
X95734142Y-108069142D02*
X95781761Y-108021523D01*
X95829380Y-107878666D01*
X95829380Y-107783428D01*
X95781761Y-107640571D01*
X95686523Y-107545333D01*
X95591285Y-107497714D01*
X95400809Y-107450095D01*
X95257952Y-107450095D01*
X95067476Y-107497714D01*
X94972238Y-107545333D01*
X94877000Y-107640571D01*
X94829380Y-107783428D01*
X94829380Y-107878666D01*
X94877000Y-108021523D01*
X94924619Y-108069142D01*
X94829380Y-108402476D02*
X94829380Y-109069142D01*
X95829380Y-108640571D01*
X94924619Y-109402476D02*
X94877000Y-109450095D01*
X94829380Y-109545333D01*
X94829380Y-109783428D01*
X94877000Y-109878666D01*
X94924619Y-109926285D01*
X95019857Y-109973904D01*
X95115095Y-109973904D01*
X95257952Y-109926285D01*
X95829380Y-109354857D01*
X95829380Y-109973904D01*
%TO.C,C74*%
X100464857Y-107956642D02*
X100512476Y-108004261D01*
X100655333Y-108051880D01*
X100750571Y-108051880D01*
X100893428Y-108004261D01*
X100988666Y-107909023D01*
X101036285Y-107813785D01*
X101083904Y-107623309D01*
X101083904Y-107480452D01*
X101036285Y-107289976D01*
X100988666Y-107194738D01*
X100893428Y-107099500D01*
X100750571Y-107051880D01*
X100655333Y-107051880D01*
X100512476Y-107099500D01*
X100464857Y-107147119D01*
X100131523Y-107051880D02*
X99464857Y-107051880D01*
X99893428Y-108051880D01*
X98655333Y-107385214D02*
X98655333Y-108051880D01*
X98893428Y-107004261D02*
X99131523Y-107718547D01*
X98512476Y-107718547D01*
%TO.C,C76*%
X112625142Y-107815142D02*
X112672761Y-107767523D01*
X112720380Y-107624666D01*
X112720380Y-107529428D01*
X112672761Y-107386571D01*
X112577523Y-107291333D01*
X112482285Y-107243714D01*
X112291809Y-107196095D01*
X112148952Y-107196095D01*
X111958476Y-107243714D01*
X111863238Y-107291333D01*
X111768000Y-107386571D01*
X111720380Y-107529428D01*
X111720380Y-107624666D01*
X111768000Y-107767523D01*
X111815619Y-107815142D01*
X111720380Y-108148476D02*
X111720380Y-108815142D01*
X112720380Y-108386571D01*
X111720380Y-109624666D02*
X111720380Y-109434190D01*
X111768000Y-109338952D01*
X111815619Y-109291333D01*
X111958476Y-109196095D01*
X112148952Y-109148476D01*
X112529904Y-109148476D01*
X112625142Y-109196095D01*
X112672761Y-109243714D01*
X112720380Y-109338952D01*
X112720380Y-109529428D01*
X112672761Y-109624666D01*
X112625142Y-109672285D01*
X112529904Y-109719904D01*
X112291809Y-109719904D01*
X112196571Y-109672285D01*
X112148952Y-109624666D01*
X112101333Y-109529428D01*
X112101333Y-109338952D01*
X112148952Y-109243714D01*
X112196571Y-109196095D01*
X112291809Y-109148476D01*
%TO.C,C77*%
X105544857Y-107926142D02*
X105592476Y-107973761D01*
X105735333Y-108021380D01*
X105830571Y-108021380D01*
X105973428Y-107973761D01*
X106068666Y-107878523D01*
X106116285Y-107783285D01*
X106163904Y-107592809D01*
X106163904Y-107449952D01*
X106116285Y-107259476D01*
X106068666Y-107164238D01*
X105973428Y-107069000D01*
X105830571Y-107021380D01*
X105735333Y-107021380D01*
X105592476Y-107069000D01*
X105544857Y-107116619D01*
X105211523Y-107021380D02*
X104544857Y-107021380D01*
X104973428Y-108021380D01*
X104259142Y-107021380D02*
X103592476Y-107021380D01*
X104021047Y-108021380D01*
%TO.C,C78*%
X92813142Y-107942142D02*
X92860761Y-107894523D01*
X92908380Y-107751666D01*
X92908380Y-107656428D01*
X92860761Y-107513571D01*
X92765523Y-107418333D01*
X92670285Y-107370714D01*
X92479809Y-107323095D01*
X92336952Y-107323095D01*
X92146476Y-107370714D01*
X92051238Y-107418333D01*
X91956000Y-107513571D01*
X91908380Y-107656428D01*
X91908380Y-107751666D01*
X91956000Y-107894523D01*
X92003619Y-107942142D01*
X91908380Y-108275476D02*
X91908380Y-108942142D01*
X92908380Y-108513571D01*
X92336952Y-109465952D02*
X92289333Y-109370714D01*
X92241714Y-109323095D01*
X92146476Y-109275476D01*
X92098857Y-109275476D01*
X92003619Y-109323095D01*
X91956000Y-109370714D01*
X91908380Y-109465952D01*
X91908380Y-109656428D01*
X91956000Y-109751666D01*
X92003619Y-109799285D01*
X92098857Y-109846904D01*
X92146476Y-109846904D01*
X92241714Y-109799285D01*
X92289333Y-109751666D01*
X92336952Y-109656428D01*
X92336952Y-109465952D01*
X92384571Y-109370714D01*
X92432190Y-109323095D01*
X92527428Y-109275476D01*
X92717904Y-109275476D01*
X92813142Y-109323095D01*
X92860761Y-109370714D01*
X92908380Y-109465952D01*
X92908380Y-109656428D01*
X92860761Y-109751666D01*
X92813142Y-109799285D01*
X92717904Y-109846904D01*
X92527428Y-109846904D01*
X92432190Y-109799285D01*
X92384571Y-109751666D01*
X92336952Y-109656428D01*
%TO.C,C79*%
X116339857Y-126468142D02*
X116387476Y-126515761D01*
X116530333Y-126563380D01*
X116625571Y-126563380D01*
X116768428Y-126515761D01*
X116863666Y-126420523D01*
X116911285Y-126325285D01*
X116958904Y-126134809D01*
X116958904Y-125991952D01*
X116911285Y-125801476D01*
X116863666Y-125706238D01*
X116768428Y-125611000D01*
X116625571Y-125563380D01*
X116530333Y-125563380D01*
X116387476Y-125611000D01*
X116339857Y-125658619D01*
X116006523Y-125563380D02*
X115339857Y-125563380D01*
X115768428Y-126563380D01*
X114911285Y-126563380D02*
X114720809Y-126563380D01*
X114625571Y-126515761D01*
X114577952Y-126468142D01*
X114482714Y-126325285D01*
X114435095Y-126134809D01*
X114435095Y-125753857D01*
X114482714Y-125658619D01*
X114530333Y-125611000D01*
X114625571Y-125563380D01*
X114816047Y-125563380D01*
X114911285Y-125611000D01*
X114958904Y-125658619D01*
X115006523Y-125753857D01*
X115006523Y-125991952D01*
X114958904Y-126087190D01*
X114911285Y-126134809D01*
X114816047Y-126182428D01*
X114625571Y-126182428D01*
X114530333Y-126134809D01*
X114482714Y-126087190D01*
X114435095Y-125991952D01*
%TO.C,C80*%
X108402357Y-127738142D02*
X108449976Y-127785761D01*
X108592833Y-127833380D01*
X108688071Y-127833380D01*
X108830928Y-127785761D01*
X108926166Y-127690523D01*
X108973785Y-127595285D01*
X109021404Y-127404809D01*
X109021404Y-127261952D01*
X108973785Y-127071476D01*
X108926166Y-126976238D01*
X108830928Y-126881000D01*
X108688071Y-126833380D01*
X108592833Y-126833380D01*
X108449976Y-126881000D01*
X108402357Y-126928619D01*
X107830928Y-127261952D02*
X107926166Y-127214333D01*
X107973785Y-127166714D01*
X108021404Y-127071476D01*
X108021404Y-127023857D01*
X107973785Y-126928619D01*
X107926166Y-126881000D01*
X107830928Y-126833380D01*
X107640452Y-126833380D01*
X107545214Y-126881000D01*
X107497595Y-126928619D01*
X107449976Y-127023857D01*
X107449976Y-127071476D01*
X107497595Y-127166714D01*
X107545214Y-127214333D01*
X107640452Y-127261952D01*
X107830928Y-127261952D01*
X107926166Y-127309571D01*
X107973785Y-127357190D01*
X108021404Y-127452428D01*
X108021404Y-127642904D01*
X107973785Y-127738142D01*
X107926166Y-127785761D01*
X107830928Y-127833380D01*
X107640452Y-127833380D01*
X107545214Y-127785761D01*
X107497595Y-127738142D01*
X107449976Y-127642904D01*
X107449976Y-127452428D01*
X107497595Y-127357190D01*
X107545214Y-127309571D01*
X107640452Y-127261952D01*
X106830928Y-126833380D02*
X106735690Y-126833380D01*
X106640452Y-126881000D01*
X106592833Y-126928619D01*
X106545214Y-127023857D01*
X106497595Y-127214333D01*
X106497595Y-127452428D01*
X106545214Y-127642904D01*
X106592833Y-127738142D01*
X106640452Y-127785761D01*
X106735690Y-127833380D01*
X106830928Y-127833380D01*
X106926166Y-127785761D01*
X106973785Y-127738142D01*
X107021404Y-127642904D01*
X107069023Y-127452428D01*
X107069023Y-127214333D01*
X107021404Y-127023857D01*
X106973785Y-126928619D01*
X106926166Y-126881000D01*
X106830928Y-126833380D01*
%TO.C,C85*%
X97480357Y-127738142D02*
X97527976Y-127785761D01*
X97670833Y-127833380D01*
X97766071Y-127833380D01*
X97908928Y-127785761D01*
X98004166Y-127690523D01*
X98051785Y-127595285D01*
X98099404Y-127404809D01*
X98099404Y-127261952D01*
X98051785Y-127071476D01*
X98004166Y-126976238D01*
X97908928Y-126881000D01*
X97766071Y-126833380D01*
X97670833Y-126833380D01*
X97527976Y-126881000D01*
X97480357Y-126928619D01*
X96908928Y-127261952D02*
X97004166Y-127214333D01*
X97051785Y-127166714D01*
X97099404Y-127071476D01*
X97099404Y-127023857D01*
X97051785Y-126928619D01*
X97004166Y-126881000D01*
X96908928Y-126833380D01*
X96718452Y-126833380D01*
X96623214Y-126881000D01*
X96575595Y-126928619D01*
X96527976Y-127023857D01*
X96527976Y-127071476D01*
X96575595Y-127166714D01*
X96623214Y-127214333D01*
X96718452Y-127261952D01*
X96908928Y-127261952D01*
X97004166Y-127309571D01*
X97051785Y-127357190D01*
X97099404Y-127452428D01*
X97099404Y-127642904D01*
X97051785Y-127738142D01*
X97004166Y-127785761D01*
X96908928Y-127833380D01*
X96718452Y-127833380D01*
X96623214Y-127785761D01*
X96575595Y-127738142D01*
X96527976Y-127642904D01*
X96527976Y-127452428D01*
X96575595Y-127357190D01*
X96623214Y-127309571D01*
X96718452Y-127261952D01*
X95623214Y-126833380D02*
X96099404Y-126833380D01*
X96147023Y-127309571D01*
X96099404Y-127261952D01*
X96004166Y-127214333D01*
X95766071Y-127214333D01*
X95670833Y-127261952D01*
X95623214Y-127309571D01*
X95575595Y-127404809D01*
X95575595Y-127642904D01*
X95623214Y-127738142D01*
X95670833Y-127785761D01*
X95766071Y-127833380D01*
X96004166Y-127833380D01*
X96099404Y-127785761D01*
X96147023Y-127738142D01*
%TO.C,C86*%
X89606357Y-126468142D02*
X89653976Y-126515761D01*
X89796833Y-126563380D01*
X89892071Y-126563380D01*
X90034928Y-126515761D01*
X90130166Y-126420523D01*
X90177785Y-126325285D01*
X90225404Y-126134809D01*
X90225404Y-125991952D01*
X90177785Y-125801476D01*
X90130166Y-125706238D01*
X90034928Y-125611000D01*
X89892071Y-125563380D01*
X89796833Y-125563380D01*
X89653976Y-125611000D01*
X89606357Y-125658619D01*
X89034928Y-125991952D02*
X89130166Y-125944333D01*
X89177785Y-125896714D01*
X89225404Y-125801476D01*
X89225404Y-125753857D01*
X89177785Y-125658619D01*
X89130166Y-125611000D01*
X89034928Y-125563380D01*
X88844452Y-125563380D01*
X88749214Y-125611000D01*
X88701595Y-125658619D01*
X88653976Y-125753857D01*
X88653976Y-125801476D01*
X88701595Y-125896714D01*
X88749214Y-125944333D01*
X88844452Y-125991952D01*
X89034928Y-125991952D01*
X89130166Y-126039571D01*
X89177785Y-126087190D01*
X89225404Y-126182428D01*
X89225404Y-126372904D01*
X89177785Y-126468142D01*
X89130166Y-126515761D01*
X89034928Y-126563380D01*
X88844452Y-126563380D01*
X88749214Y-126515761D01*
X88701595Y-126468142D01*
X88653976Y-126372904D01*
X88653976Y-126182428D01*
X88701595Y-126087190D01*
X88749214Y-126039571D01*
X88844452Y-125991952D01*
X87796833Y-125563380D02*
X87987309Y-125563380D01*
X88082547Y-125611000D01*
X88130166Y-125658619D01*
X88225404Y-125801476D01*
X88273023Y-125991952D01*
X88273023Y-126372904D01*
X88225404Y-126468142D01*
X88177785Y-126515761D01*
X88082547Y-126563380D01*
X87892071Y-126563380D01*
X87796833Y-126515761D01*
X87749214Y-126468142D01*
X87701595Y-126372904D01*
X87701595Y-126134809D01*
X87749214Y-126039571D01*
X87796833Y-125991952D01*
X87892071Y-125944333D01*
X88082547Y-125944333D01*
X88177785Y-125991952D01*
X88225404Y-126039571D01*
X88273023Y-126134809D01*
%TO.C,C87*%
X119667257Y-130278142D02*
X119714876Y-130325761D01*
X119857733Y-130373380D01*
X119952971Y-130373380D01*
X120095828Y-130325761D01*
X120191066Y-130230523D01*
X120238685Y-130135285D01*
X120286304Y-129944809D01*
X120286304Y-129801952D01*
X120238685Y-129611476D01*
X120191066Y-129516238D01*
X120095828Y-129421000D01*
X119952971Y-129373380D01*
X119857733Y-129373380D01*
X119714876Y-129421000D01*
X119667257Y-129468619D01*
X119095828Y-129801952D02*
X119191066Y-129754333D01*
X119238685Y-129706714D01*
X119286304Y-129611476D01*
X119286304Y-129563857D01*
X119238685Y-129468619D01*
X119191066Y-129421000D01*
X119095828Y-129373380D01*
X118905352Y-129373380D01*
X118810114Y-129421000D01*
X118762495Y-129468619D01*
X118714876Y-129563857D01*
X118714876Y-129611476D01*
X118762495Y-129706714D01*
X118810114Y-129754333D01*
X118905352Y-129801952D01*
X119095828Y-129801952D01*
X119191066Y-129849571D01*
X119238685Y-129897190D01*
X119286304Y-129992428D01*
X119286304Y-130182904D01*
X119238685Y-130278142D01*
X119191066Y-130325761D01*
X119095828Y-130373380D01*
X118905352Y-130373380D01*
X118810114Y-130325761D01*
X118762495Y-130278142D01*
X118714876Y-130182904D01*
X118714876Y-129992428D01*
X118762495Y-129897190D01*
X118810114Y-129849571D01*
X118905352Y-129801952D01*
X118381542Y-129373380D02*
X117714876Y-129373380D01*
X118143447Y-130373380D01*
%TO.C,C88*%
X116466857Y-130278142D02*
X116514476Y-130325761D01*
X116657333Y-130373380D01*
X116752571Y-130373380D01*
X116895428Y-130325761D01*
X116990666Y-130230523D01*
X117038285Y-130135285D01*
X117085904Y-129944809D01*
X117085904Y-129801952D01*
X117038285Y-129611476D01*
X116990666Y-129516238D01*
X116895428Y-129421000D01*
X116752571Y-129373380D01*
X116657333Y-129373380D01*
X116514476Y-129421000D01*
X116466857Y-129468619D01*
X115895428Y-129801952D02*
X115990666Y-129754333D01*
X116038285Y-129706714D01*
X116085904Y-129611476D01*
X116085904Y-129563857D01*
X116038285Y-129468619D01*
X115990666Y-129421000D01*
X115895428Y-129373380D01*
X115704952Y-129373380D01*
X115609714Y-129421000D01*
X115562095Y-129468619D01*
X115514476Y-129563857D01*
X115514476Y-129611476D01*
X115562095Y-129706714D01*
X115609714Y-129754333D01*
X115704952Y-129801952D01*
X115895428Y-129801952D01*
X115990666Y-129849571D01*
X116038285Y-129897190D01*
X116085904Y-129992428D01*
X116085904Y-130182904D01*
X116038285Y-130278142D01*
X115990666Y-130325761D01*
X115895428Y-130373380D01*
X115704952Y-130373380D01*
X115609714Y-130325761D01*
X115562095Y-130278142D01*
X115514476Y-130182904D01*
X115514476Y-129992428D01*
X115562095Y-129897190D01*
X115609714Y-129849571D01*
X115704952Y-129801952D01*
X114943047Y-129801952D02*
X115038285Y-129754333D01*
X115085904Y-129706714D01*
X115133523Y-129611476D01*
X115133523Y-129563857D01*
X115085904Y-129468619D01*
X115038285Y-129421000D01*
X114943047Y-129373380D01*
X114752571Y-129373380D01*
X114657333Y-129421000D01*
X114609714Y-129468619D01*
X114562095Y-129563857D01*
X114562095Y-129611476D01*
X114609714Y-129706714D01*
X114657333Y-129754333D01*
X114752571Y-129801952D01*
X114943047Y-129801952D01*
X115038285Y-129849571D01*
X115085904Y-129897190D01*
X115133523Y-129992428D01*
X115133523Y-130182904D01*
X115085904Y-130278142D01*
X115038285Y-130325761D01*
X114943047Y-130373380D01*
X114752571Y-130373380D01*
X114657333Y-130325761D01*
X114609714Y-130278142D01*
X114562095Y-130182904D01*
X114562095Y-129992428D01*
X114609714Y-129897190D01*
X114657333Y-129849571D01*
X114752571Y-129801952D01*
%TO.C,C89*%
X109773957Y-130278142D02*
X109821576Y-130325761D01*
X109964433Y-130373380D01*
X110059671Y-130373380D01*
X110202528Y-130325761D01*
X110297766Y-130230523D01*
X110345385Y-130135285D01*
X110393004Y-129944809D01*
X110393004Y-129801952D01*
X110345385Y-129611476D01*
X110297766Y-129516238D01*
X110202528Y-129421000D01*
X110059671Y-129373380D01*
X109964433Y-129373380D01*
X109821576Y-129421000D01*
X109773957Y-129468619D01*
X109202528Y-129801952D02*
X109297766Y-129754333D01*
X109345385Y-129706714D01*
X109393004Y-129611476D01*
X109393004Y-129563857D01*
X109345385Y-129468619D01*
X109297766Y-129421000D01*
X109202528Y-129373380D01*
X109012052Y-129373380D01*
X108916814Y-129421000D01*
X108869195Y-129468619D01*
X108821576Y-129563857D01*
X108821576Y-129611476D01*
X108869195Y-129706714D01*
X108916814Y-129754333D01*
X109012052Y-129801952D01*
X109202528Y-129801952D01*
X109297766Y-129849571D01*
X109345385Y-129897190D01*
X109393004Y-129992428D01*
X109393004Y-130182904D01*
X109345385Y-130278142D01*
X109297766Y-130325761D01*
X109202528Y-130373380D01*
X109012052Y-130373380D01*
X108916814Y-130325761D01*
X108869195Y-130278142D01*
X108821576Y-130182904D01*
X108821576Y-129992428D01*
X108869195Y-129897190D01*
X108916814Y-129849571D01*
X109012052Y-129801952D01*
X108345385Y-130373380D02*
X108154909Y-130373380D01*
X108059671Y-130325761D01*
X108012052Y-130278142D01*
X107916814Y-130135285D01*
X107869195Y-129944809D01*
X107869195Y-129563857D01*
X107916814Y-129468619D01*
X107964433Y-129421000D01*
X108059671Y-129373380D01*
X108250147Y-129373380D01*
X108345385Y-129421000D01*
X108393004Y-129468619D01*
X108440623Y-129563857D01*
X108440623Y-129801952D01*
X108393004Y-129897190D01*
X108345385Y-129944809D01*
X108250147Y-129992428D01*
X108059671Y-129992428D01*
X107964433Y-129944809D01*
X107916814Y-129897190D01*
X107869195Y-129801952D01*
%TO.C,C90*%
X106306857Y-130278142D02*
X106354476Y-130325761D01*
X106497333Y-130373380D01*
X106592571Y-130373380D01*
X106735428Y-130325761D01*
X106830666Y-130230523D01*
X106878285Y-130135285D01*
X106925904Y-129944809D01*
X106925904Y-129801952D01*
X106878285Y-129611476D01*
X106830666Y-129516238D01*
X106735428Y-129421000D01*
X106592571Y-129373380D01*
X106497333Y-129373380D01*
X106354476Y-129421000D01*
X106306857Y-129468619D01*
X105830666Y-130373380D02*
X105640190Y-130373380D01*
X105544952Y-130325761D01*
X105497333Y-130278142D01*
X105402095Y-130135285D01*
X105354476Y-129944809D01*
X105354476Y-129563857D01*
X105402095Y-129468619D01*
X105449714Y-129421000D01*
X105544952Y-129373380D01*
X105735428Y-129373380D01*
X105830666Y-129421000D01*
X105878285Y-129468619D01*
X105925904Y-129563857D01*
X105925904Y-129801952D01*
X105878285Y-129897190D01*
X105830666Y-129944809D01*
X105735428Y-129992428D01*
X105544952Y-129992428D01*
X105449714Y-129944809D01*
X105402095Y-129897190D01*
X105354476Y-129801952D01*
X104735428Y-129373380D02*
X104640190Y-129373380D01*
X104544952Y-129421000D01*
X104497333Y-129468619D01*
X104449714Y-129563857D01*
X104402095Y-129754333D01*
X104402095Y-129992428D01*
X104449714Y-130182904D01*
X104497333Y-130278142D01*
X104544952Y-130325761D01*
X104640190Y-130373380D01*
X104735428Y-130373380D01*
X104830666Y-130325761D01*
X104878285Y-130278142D01*
X104925904Y-130182904D01*
X104973523Y-129992428D01*
X104973523Y-129754333D01*
X104925904Y-129563857D01*
X104878285Y-129468619D01*
X104830666Y-129421000D01*
X104735428Y-129373380D01*
%TO.C,C91*%
X99702857Y-130278142D02*
X99750476Y-130325761D01*
X99893333Y-130373380D01*
X99988571Y-130373380D01*
X100131428Y-130325761D01*
X100226666Y-130230523D01*
X100274285Y-130135285D01*
X100321904Y-129944809D01*
X100321904Y-129801952D01*
X100274285Y-129611476D01*
X100226666Y-129516238D01*
X100131428Y-129421000D01*
X99988571Y-129373380D01*
X99893333Y-129373380D01*
X99750476Y-129421000D01*
X99702857Y-129468619D01*
X99226666Y-130373380D02*
X99036190Y-130373380D01*
X98940952Y-130325761D01*
X98893333Y-130278142D01*
X98798095Y-130135285D01*
X98750476Y-129944809D01*
X98750476Y-129563857D01*
X98798095Y-129468619D01*
X98845714Y-129421000D01*
X98940952Y-129373380D01*
X99131428Y-129373380D01*
X99226666Y-129421000D01*
X99274285Y-129468619D01*
X99321904Y-129563857D01*
X99321904Y-129801952D01*
X99274285Y-129897190D01*
X99226666Y-129944809D01*
X99131428Y-129992428D01*
X98940952Y-129992428D01*
X98845714Y-129944809D01*
X98798095Y-129897190D01*
X98750476Y-129801952D01*
X97798095Y-130373380D02*
X98369523Y-130373380D01*
X98083809Y-130373380D02*
X98083809Y-129373380D01*
X98179047Y-129516238D01*
X98274285Y-129611476D01*
X98369523Y-129659095D01*
%TO.C,C92*%
X96134157Y-130278142D02*
X96181776Y-130325761D01*
X96324633Y-130373380D01*
X96419871Y-130373380D01*
X96562728Y-130325761D01*
X96657966Y-130230523D01*
X96705585Y-130135285D01*
X96753204Y-129944809D01*
X96753204Y-129801952D01*
X96705585Y-129611476D01*
X96657966Y-129516238D01*
X96562728Y-129421000D01*
X96419871Y-129373380D01*
X96324633Y-129373380D01*
X96181776Y-129421000D01*
X96134157Y-129468619D01*
X95657966Y-130373380D02*
X95467490Y-130373380D01*
X95372252Y-130325761D01*
X95324633Y-130278142D01*
X95229395Y-130135285D01*
X95181776Y-129944809D01*
X95181776Y-129563857D01*
X95229395Y-129468619D01*
X95277014Y-129421000D01*
X95372252Y-129373380D01*
X95562728Y-129373380D01*
X95657966Y-129421000D01*
X95705585Y-129468619D01*
X95753204Y-129563857D01*
X95753204Y-129801952D01*
X95705585Y-129897190D01*
X95657966Y-129944809D01*
X95562728Y-129992428D01*
X95372252Y-129992428D01*
X95277014Y-129944809D01*
X95229395Y-129897190D01*
X95181776Y-129801952D01*
X94800823Y-129468619D02*
X94753204Y-129421000D01*
X94657966Y-129373380D01*
X94419871Y-129373380D01*
X94324633Y-129421000D01*
X94277014Y-129468619D01*
X94229395Y-129563857D01*
X94229395Y-129659095D01*
X94277014Y-129801952D01*
X94848442Y-130373380D01*
X94229395Y-130373380D01*
%TO.C,C93*%
X89542857Y-130278142D02*
X89590476Y-130325761D01*
X89733333Y-130373380D01*
X89828571Y-130373380D01*
X89971428Y-130325761D01*
X90066666Y-130230523D01*
X90114285Y-130135285D01*
X90161904Y-129944809D01*
X90161904Y-129801952D01*
X90114285Y-129611476D01*
X90066666Y-129516238D01*
X89971428Y-129421000D01*
X89828571Y-129373380D01*
X89733333Y-129373380D01*
X89590476Y-129421000D01*
X89542857Y-129468619D01*
X89066666Y-130373380D02*
X88876190Y-130373380D01*
X88780952Y-130325761D01*
X88733333Y-130278142D01*
X88638095Y-130135285D01*
X88590476Y-129944809D01*
X88590476Y-129563857D01*
X88638095Y-129468619D01*
X88685714Y-129421000D01*
X88780952Y-129373380D01*
X88971428Y-129373380D01*
X89066666Y-129421000D01*
X89114285Y-129468619D01*
X89161904Y-129563857D01*
X89161904Y-129801952D01*
X89114285Y-129897190D01*
X89066666Y-129944809D01*
X88971428Y-129992428D01*
X88780952Y-129992428D01*
X88685714Y-129944809D01*
X88638095Y-129897190D01*
X88590476Y-129801952D01*
X88257142Y-129373380D02*
X87638095Y-129373380D01*
X87971428Y-129754333D01*
X87828571Y-129754333D01*
X87733333Y-129801952D01*
X87685714Y-129849571D01*
X87638095Y-129944809D01*
X87638095Y-130182904D01*
X87685714Y-130278142D01*
X87733333Y-130325761D01*
X87828571Y-130373380D01*
X88114285Y-130373380D01*
X88209523Y-130325761D01*
X88257142Y-130278142D01*
%TO.C,C94*%
X86113857Y-130278142D02*
X86161476Y-130325761D01*
X86304333Y-130373380D01*
X86399571Y-130373380D01*
X86542428Y-130325761D01*
X86637666Y-130230523D01*
X86685285Y-130135285D01*
X86732904Y-129944809D01*
X86732904Y-129801952D01*
X86685285Y-129611476D01*
X86637666Y-129516238D01*
X86542428Y-129421000D01*
X86399571Y-129373380D01*
X86304333Y-129373380D01*
X86161476Y-129421000D01*
X86113857Y-129468619D01*
X85637666Y-130373380D02*
X85447190Y-130373380D01*
X85351952Y-130325761D01*
X85304333Y-130278142D01*
X85209095Y-130135285D01*
X85161476Y-129944809D01*
X85161476Y-129563857D01*
X85209095Y-129468619D01*
X85256714Y-129421000D01*
X85351952Y-129373380D01*
X85542428Y-129373380D01*
X85637666Y-129421000D01*
X85685285Y-129468619D01*
X85732904Y-129563857D01*
X85732904Y-129801952D01*
X85685285Y-129897190D01*
X85637666Y-129944809D01*
X85542428Y-129992428D01*
X85351952Y-129992428D01*
X85256714Y-129944809D01*
X85209095Y-129897190D01*
X85161476Y-129801952D01*
X84304333Y-129706714D02*
X84304333Y-130373380D01*
X84542428Y-129325761D02*
X84780523Y-130040047D01*
X84161476Y-130040047D01*
%TO.C,L1*%
X90749380Y-72413833D02*
X90749380Y-71937642D01*
X89749380Y-71937642D01*
X90749380Y-73270976D02*
X90749380Y-72699547D01*
X90749380Y-72985261D02*
X89749380Y-72985261D01*
X89892238Y-72890023D01*
X89987476Y-72794785D01*
X90035095Y-72699547D01*
%TO.C,L2*%
X98750380Y-71185733D02*
X98750380Y-70709542D01*
X97750380Y-70709542D01*
X97845619Y-71471447D02*
X97798000Y-71519066D01*
X97750380Y-71614304D01*
X97750380Y-71852400D01*
X97798000Y-71947638D01*
X97845619Y-71995257D01*
X97940857Y-72042876D01*
X98036095Y-72042876D01*
X98178952Y-71995257D01*
X98750380Y-71423828D01*
X98750380Y-72042876D01*
%TO.C,L7*%
X106687880Y-71185733D02*
X106687880Y-70709542D01*
X105687880Y-70709542D01*
X105687880Y-71423828D02*
X105687880Y-72090495D01*
X106687880Y-71661923D01*
%TO.C,L8*%
X114688880Y-72413833D02*
X114688880Y-71937642D01*
X113688880Y-71937642D01*
X114117452Y-72890023D02*
X114069833Y-72794785D01*
X114022214Y-72747166D01*
X113926976Y-72699547D01*
X113879357Y-72699547D01*
X113784119Y-72747166D01*
X113736500Y-72794785D01*
X113688880Y-72890023D01*
X113688880Y-73080500D01*
X113736500Y-73175738D01*
X113784119Y-73223357D01*
X113879357Y-73270976D01*
X113926976Y-73270976D01*
X114022214Y-73223357D01*
X114069833Y-73175738D01*
X114117452Y-73080500D01*
X114117452Y-72890023D01*
X114165071Y-72794785D01*
X114212690Y-72747166D01*
X114307928Y-72699547D01*
X114498404Y-72699547D01*
X114593642Y-72747166D01*
X114641261Y-72794785D01*
X114688880Y-72890023D01*
X114688880Y-73080500D01*
X114641261Y-73175738D01*
X114593642Y-73223357D01*
X114498404Y-73270976D01*
X114307928Y-73270976D01*
X114212690Y-73223357D01*
X114165071Y-73175738D01*
X114117452Y-73080500D01*
%TO.C,L9*%
X114752380Y-120330933D02*
X114752380Y-119854742D01*
X113752380Y-119854742D01*
X114752380Y-120711885D02*
X114752380Y-120902361D01*
X114704761Y-120997600D01*
X114657142Y-121045219D01*
X114514285Y-121140457D01*
X114323809Y-121188076D01*
X113942857Y-121188076D01*
X113847619Y-121140457D01*
X113800000Y-121092838D01*
X113752380Y-120997600D01*
X113752380Y-120807123D01*
X113800000Y-120711885D01*
X113847619Y-120664266D01*
X113942857Y-120616647D01*
X114180952Y-120616647D01*
X114276190Y-120664266D01*
X114323809Y-120711885D01*
X114371428Y-120807123D01*
X114371428Y-120997600D01*
X114323809Y-121092838D01*
X114276190Y-121140457D01*
X114180952Y-121188076D01*
%TO.C,L10*%
X106687880Y-121023142D02*
X106687880Y-120546952D01*
X105687880Y-120546952D01*
X106687880Y-121880285D02*
X106687880Y-121308857D01*
X106687880Y-121594571D02*
X105687880Y-121594571D01*
X105830738Y-121499333D01*
X105925976Y-121404095D01*
X105973595Y-121308857D01*
X105687880Y-122499333D02*
X105687880Y-122594571D01*
X105735500Y-122689809D01*
X105783119Y-122737428D01*
X105878357Y-122785047D01*
X106068833Y-122832666D01*
X106306928Y-122832666D01*
X106497404Y-122785047D01*
X106592642Y-122737428D01*
X106640261Y-122689809D01*
X106687880Y-122594571D01*
X106687880Y-122499333D01*
X106640261Y-122404095D01*
X106592642Y-122356476D01*
X106497404Y-122308857D01*
X106306928Y-122261238D01*
X106068833Y-122261238D01*
X105878357Y-122308857D01*
X105783119Y-122356476D01*
X105735500Y-122404095D01*
X105687880Y-122499333D01*
%TO.C,L15*%
X98813880Y-121023142D02*
X98813880Y-120546952D01*
X97813880Y-120546952D01*
X98813880Y-121880285D02*
X98813880Y-121308857D01*
X98813880Y-121594571D02*
X97813880Y-121594571D01*
X97956738Y-121499333D01*
X98051976Y-121404095D01*
X98099595Y-121308857D01*
X97813880Y-122785047D02*
X97813880Y-122308857D01*
X98290071Y-122261238D01*
X98242452Y-122308857D01*
X98194833Y-122404095D01*
X98194833Y-122642190D01*
X98242452Y-122737428D01*
X98290071Y-122785047D01*
X98385309Y-122832666D01*
X98623404Y-122832666D01*
X98718642Y-122785047D01*
X98766261Y-122737428D01*
X98813880Y-122642190D01*
X98813880Y-122404095D01*
X98766261Y-122308857D01*
X98718642Y-122261238D01*
%TO.C,L16*%
X90812880Y-119854742D02*
X90812880Y-119378552D01*
X89812880Y-119378552D01*
X90812880Y-120711885D02*
X90812880Y-120140457D01*
X90812880Y-120426171D02*
X89812880Y-120426171D01*
X89955738Y-120330933D01*
X90050976Y-120235695D01*
X90098595Y-120140457D01*
X89812880Y-121569028D02*
X89812880Y-121378552D01*
X89860500Y-121283314D01*
X89908119Y-121235695D01*
X90050976Y-121140457D01*
X90241452Y-121092838D01*
X90622404Y-121092838D01*
X90717642Y-121140457D01*
X90765261Y-121188076D01*
X90812880Y-121283314D01*
X90812880Y-121473790D01*
X90765261Y-121569028D01*
X90717642Y-121616647D01*
X90622404Y-121664266D01*
X90384309Y-121664266D01*
X90289071Y-121616647D01*
X90241452Y-121569028D01*
X90193833Y-121473790D01*
X90193833Y-121283314D01*
X90241452Y-121188076D01*
X90289071Y-121140457D01*
X90384309Y-121092838D01*
%TD*%
M02*
