M48
; DRILL file {KiCad (5.1.9)-1} date 06/18/21 12:17:39
; FORMAT={-:-/ absolute / inch / decimal}
; #@! TF.CreationDate,2021-06-18T12:17:39+07:00
; #@! TF.GenerationSoftware,Kicad,Pcbnew,(5.1.9)-1
; #@! TF.FileFunction,Plated,1,4,PTH
FMAT,2
INCH
T1C0.0118
T2C0.0157
T3C0.0394
T4C0.0472
T5C0.0512
T6C0.1181
%
G90
G05
T1
X3.0275Y-5.2175
X3.03Y-5.4625
X3.155Y-4.47
X3.285Y-4.405
X3.42Y-4.5
X3.6325Y-3.9975
X3.655Y-3.435
X3.72Y-3.785
X3.7625Y-4.115
X3.79Y-4.1575
X3.97Y-2.86
X3.97Y-3.9975
X4.025Y-4.5
X4.0325Y-3.985
X4.0646Y-4.0021
X4.2575Y-3.6925
X4.289Y-3.6925
X4.32Y-3.795
X4.345Y-4.9075
X4.38Y-3.695
X4.6575Y-3.8825
X4.69Y-4.395
X4.6925Y-3.8825
X4.71Y-4.345
X4.82Y-4.9066
X4.92Y-5.0483
T2
X2.539Y-2.5301
X2.539Y-2.7781
X2.539Y-3.0261
X2.539Y-3.2742
X2.539Y-3.5222
X2.539Y-3.7702
X2.539Y-4.0183
X2.539Y-4.2663
X2.539Y-4.5143
X2.539Y-4.7624
X2.539Y-5.0104
X2.539Y-5.2584
X2.6099Y-5.4356
X2.6807Y-2.3529
X2.6807Y-2.6364
X2.6807Y-3.1324
X2.6807Y-3.3805
X2.6807Y-3.6285
X2.6807Y-3.8765
X2.6807Y-4.1246
X2.6807Y-4.3726
X2.6807Y-4.6206
X2.6807Y-4.8687
X2.6807Y-5.1167
X2.7162Y-2.849
X2.787Y-2.4946
X2.787Y-5.3647
X2.8579Y-2.7072
X2.9288Y-2.3529
X2.9642Y-2.5655
X2.9642Y-5.4356
X2.9996Y-2.8135
X3.045Y-3.5895
X3.045Y-3.6195
X3.05Y-3.46
X3.07Y-4.2825
X3.0705Y-2.9907
X3.0705Y-3.2387
X3.09Y-3.425
X3.09Y-5.32
X3.09Y-5.36
X3.1059Y-2.4238
X3.1059Y-2.6718
X3.1059Y-4.7624
X3.1059Y-5.0104
X3.115Y-4.29
X3.13Y-3.395
X3.13Y-5.245
X3.14Y-3.335
X3.16Y-4.32
X3.17Y-3.37
X3.1768Y-2.1403
X3.185Y-5.245
X3.205Y-3.335
X3.2122Y-2.849
X3.2122Y-3.097
X3.2122Y-4.4435
X3.22Y-3.825
X3.225Y-3.8775
X3.225Y-5.4
X3.23Y-2.17
X3.23Y-2.23
X3.23Y-2.29
X3.23Y-2.36
X3.23Y-2.43
X3.23Y-2.5
X3.23Y-5.12
X3.23Y-5.21
X3.23Y-5.27
X3.23Y-5.32
X3.24Y-4.375
X3.245Y-3.305
X3.27Y-2.57
X3.27Y-5.05
X3.28Y-3.28
X3.2831Y-4.8332
X3.29Y-3.915
X3.29Y-5.42
X3.315Y-3.255
X3.3185Y-4.5852
X3.32Y-2.64
X3.33Y-4.435
X3.33Y-4.98
X3.345Y-3.915
X3.3475Y-3.23
X3.354Y-2.2112
X3.354Y-2.9553
X3.354Y-5.4002
X3.37Y-2.71
X3.37Y-4.92
X3.375Y-4.465
X3.385Y-3.2
X3.39Y-3.9775
X3.395Y-3.915
X3.4Y-2.38
X3.4Y-5.22
X3.41Y-2.78
X3.41Y-2.86
X3.41Y-4.74
X3.41Y-4.8
X3.41Y-4.86
X3.425Y-2.155
X3.425Y-2.22
X3.425Y-2.28
X3.425Y-2.34
X3.425Y-3.17
X3.425Y-5.26
X3.425Y-5.32
X3.425Y-5.38
X3.425Y-5.44
X3.435Y-3.895
X3.435Y-3.935
X3.4375Y-3.0275
X3.44Y-2.91
X3.44Y-2.97
X3.44Y-4.6
X3.44Y-4.67
X3.445Y-3.455
X3.455Y-2.38
X3.455Y-5.22
X3.465Y-3.135
X3.4725Y-2.4725
X3.48Y-2.86
X3.48Y-4.51
X3.48Y-4.74
X3.4875Y-5.125
X3.4957Y-3.8057
X3.4975Y-3.73
X3.5Y-3.05
X3.5Y-3.105
X3.51Y-4.55
X3.52Y-4.08
X3.525Y-3.5825
X3.525Y-3.6125
X3.5311Y-2.1403
X3.535Y-4.51
X3.55Y-2.86
X3.55Y-3.09
X3.55Y-4.4025
X3.55Y-4.4325
X3.55Y-4.4625
X3.55Y-4.74
X3.5525Y-3.135
X3.5525Y-3.165
X3.5525Y-3.195
X3.555Y-3.5825
X3.555Y-3.6125
X3.56Y-4.105
X3.5666Y-5.4356
X3.58Y-4.4025
X3.58Y-4.4325
X3.58Y-4.4625
X3.5825Y-3.135
X3.5825Y-3.165
X3.5825Y-3.195
X3.585Y-3.5
X3.585Y-3.5825
X3.585Y-3.6125
X3.5875Y-3.8
X3.595Y-4.51
X3.6Y-3.09
X3.6Y-3.54
X3.6Y-4.135
X3.62Y-2.86
X3.62Y-3.465
X3.62Y-3.765
X3.62Y-4.74
X3.6374Y-4.0537
X3.64Y-3.53
X3.64Y-3.59
X3.64Y-3.8
X3.645Y-4.17
X3.67Y-2.685
X3.67Y-2.81
X3.67Y-4.79
X3.67Y-4.9075
X3.6775Y-3.765
X3.69Y-2.86
X3.69Y-3.4
X3.69Y-3.48
X3.69Y-4.125
X3.69Y-4.205
X3.69Y-4.74
X3.6925Y-2.74
X3.7083Y-2.2112
X3.715Y-2.635
X3.715Y-2.685
X3.715Y-4.9625
X3.7175Y-4.9075
X3.729Y-3.0949
X3.73Y-4.5
X3.735Y-3.2475
X3.7395Y-4.35
X3.74Y-3.4
X3.74Y-4.205
X3.7437Y-2.9198
X3.749Y-3.0674
X3.75Y-2.81
X3.75Y-4.5275
X3.75Y-4.79
X3.7525Y-3.825
X3.7575Y-2.6625
X3.7575Y-4.94
X3.76Y-2.86
X3.76Y-3.765
X3.7625Y-4.495
X3.764Y-3.0999
X3.77Y-4.74
X3.79Y-3.4
X3.79Y-4.205
X3.801Y-4.5251
X3.8015Y-3.0724
X3.81Y-3.2475
X3.81Y-4.35
X3.814Y-3.1024
X3.816Y-4.4951
X3.82Y-5.32
X3.82Y-5.38
X3.82Y-5.44
X3.825Y-2.155
X3.825Y-2.22
X3.825Y-2.28
X3.83Y-2.81
X3.83Y-4.79
X3.839Y-3.0824
X3.84Y-3.4
X3.84Y-4.205
X3.8425Y-3.8
X3.8435Y-4.5151
X3.865Y-4.1175
X3.87Y-3.845
X3.87Y-3.9325
X3.8725Y-3.765
X3.885Y-3.97
X3.8855Y-2.1403
X3.8855Y-5.4002
X3.8875Y-4.35
X3.8895Y-3.2475
X3.89Y-3.4
X3.89Y-4.205
X3.9Y-2.81
X3.9Y-4.79
X3.904Y-3.0999
X3.905Y-4.5075
X3.915Y-3.8275
X3.9275Y-3.765
X3.94Y-3.4
X3.94Y-3.48
X3.94Y-4.125
X3.94Y-4.205
X3.9575Y-3.1
X3.9575Y-4.5075
X3.966Y-4.3475
X3.97Y-2.81
X3.97Y-3.2475
X3.97Y-4.79
X3.975Y-4.125
X3.9825Y-2.5375
X3.9825Y-2.6425
X3.9875Y-4.9575
X3.9875Y-5.0625
X3.99Y-3.4
X3.995Y-3.6
X3.995Y-4.205
X3.9965Y-3.2874
X3.9965Y-3.3174
X3.9985Y-4.2801
X3.9985Y-4.3101
X4.025Y-5.19
X4.025Y-5.25
X4.025Y-5.325
X4.025Y-5.4
X4.0265Y-3.2874
X4.0265Y-3.3174
X4.0275Y-2.2
X4.0275Y-2.275
X4.0275Y-2.35
X4.0275Y-2.425
X4.0275Y-2.5
X4.0275Y-2.575
X4.0275Y-2.61
X4.0275Y-2.725
X4.0275Y-2.8
X4.0275Y-2.875
X4.0275Y-2.95
X4.0275Y-3.025
X4.0275Y-3.1
X4.0275Y-4.55
X4.0275Y-4.625
X4.0275Y-4.7
X4.0275Y-4.775
X4.0275Y-4.85
X4.0275Y-4.925
X4.0275Y-5.0
X4.0275Y-5.04
X4.0275Y-5.09
X4.0285Y-4.2801
X4.0285Y-4.3101
X4.035Y-3.6
X4.035Y-3.8
X4.04Y-3.4
X4.04Y-3.48
X4.04Y-4.205
X4.045Y-3.765
X4.0565Y-3.2874
X4.0565Y-3.3174
X4.0585Y-4.2801
X4.0585Y-4.3101
X4.065Y-3.83
X4.07Y-2.5375
X4.07Y-2.6425
X4.07Y-4.9575
X4.07Y-5.0625
X4.0725Y-3.6
X4.08Y-2.81
X4.08Y-2.86
X4.08Y-4.79
X4.0825Y-3.2475
X4.0825Y-4.3475
X4.085Y-3.48
X4.09Y-3.4
X4.09Y-4.205
X4.0975Y-3.1
X4.0975Y-4.5075
X4.0981Y-2.1757
X4.0981Y-5.4356
X4.1025Y-3.665
X4.1075Y-3.6
X4.1075Y-3.725
X4.115Y-4.125
X4.1225Y-3.7675
X4.1225Y-3.83
X4.125Y-3.48
X4.14Y-3.4
X4.14Y-4.205
X4.1425Y-3.1
X4.15Y-2.81
X4.15Y-4.79
X4.1525Y-4.515
X4.16Y-3.2475
X4.16Y-4.35
X4.165Y-3.7675
X4.19Y-3.4
X4.19Y-3.64
X4.19Y-4.205
X4.195Y-3.715
X4.21Y-3.61
X4.2115Y-3.0824
X4.216Y-4.5151
X4.22Y-2.81
X4.22Y-4.79
X4.225Y-3.7575
X4.23Y-2.1525
X4.23Y-2.22
X4.23Y-2.28
X4.235Y-3.2475
X4.235Y-4.35
X4.235Y-5.32
X4.235Y-5.38
X4.235Y-5.44
X4.239Y-3.1024
X4.24Y-3.4
X4.24Y-4.205
X4.241Y-4.4951
X4.2535Y-4.5251
X4.254Y-3.0724
X4.2575Y-3.83
X4.2725Y-3.77
X4.28Y-4.74
X4.29Y-2.86
X4.29Y-3.4
X4.29Y-4.205
X4.29Y-4.79
X4.291Y-4.4976
X4.2925Y-3.1025
X4.295Y-4.94
X4.2975Y-2.6625
X4.3Y-2.81
X4.305Y-3.07
X4.306Y-4.5301
X4.3075Y-3.83
X4.31Y-3.2475
X4.3107Y-2.1403
X4.3107Y-2.9198
X4.3107Y-5.4002
X4.3175Y-4.35
X4.325Y-3.0975
X4.326Y-4.5026
X4.34Y-2.635
X4.34Y-2.6875
X4.34Y-3.4
X4.34Y-4.205
X4.345Y-4.96
X4.35Y-4.74
X4.36Y-2.7425
X4.36Y-2.86
X4.36Y-4.79
X4.365Y-3.48
X4.365Y-4.125
X4.375Y-3.83
X4.38Y-2.81
X4.385Y-2.6875
X4.385Y-4.205
X4.3875Y-4.9075
X4.39Y-3.4
X4.405Y-3.6575
X4.4075Y-3.7275
X4.417Y-3.5576
X4.42Y-4.01
X4.42Y-4.06
X4.42Y-4.11
X4.42Y-4.74
X4.43Y-2.86
X4.43Y-3.83
X4.43Y-4.79
X4.44Y-3.4
X4.4524Y-2.2466
X4.46Y-3.09
X4.47Y-3.98
X4.47Y-4.01
X4.4725Y-4.4025
X4.4725Y-4.4325
X4.4725Y-4.4625
X4.475Y-3.135
X4.475Y-3.165
X4.475Y-3.195
X4.48Y-3.37
X4.48Y-4.51
X4.5Y-2.86
X4.5Y-3.82
X4.5Y-3.98
X4.5Y-4.01
X4.5Y-4.74
X4.5025Y-4.4025
X4.5025Y-4.4325
X4.5025Y-4.4625
X4.505Y-3.135
X4.505Y-3.165
X4.505Y-3.195
X4.51Y-3.09
X4.51Y-3.33
X4.5233Y-5.4356
X4.53Y-3.98
X4.53Y-4.01
X4.53Y-4.51
X4.54Y-3.29
X4.55Y-3.6575
X4.55Y-4.55
X4.56Y-3.09
X4.56Y-3.15
X4.56Y-3.2
X4.56Y-3.25
X4.56Y-3.4
X4.57Y-2.86
X4.57Y-4.74
X4.575Y-4.21
X4.5775Y-2.4725
X4.58Y-3.98
X4.58Y-4.03
X4.58Y-4.08
X4.58Y-4.125
X4.58Y-4.26
X4.58Y-4.31
X4.58Y-4.36
X4.58Y-4.41
X4.58Y-4.47
X4.58Y-4.51
X4.5941Y-3.3096
X4.5975Y-5.135
X4.5975Y-5.2175
X4.6Y-2.38
X4.61Y-4.59
X4.61Y-4.65
X4.61Y-4.71
X4.6125Y-2.92
X4.6125Y-2.9775
X4.6125Y-3.0375
X4.6296Y-3.097
X4.6296Y-3.5222
X4.63Y-2.155
X4.63Y-2.22
X4.63Y-2.28
X4.63Y-2.34
X4.63Y-5.26
X4.63Y-5.315
X4.63Y-5.38
X4.63Y-5.44
X4.64Y-2.86
X4.64Y-4.75
X4.64Y-4.83
X4.655Y-2.38
X4.655Y-5.2175
X4.66Y-2.78
X4.665Y-4.4789
X4.68Y-2.71
X4.7Y-4.92
X4.7004Y-2.1403
X4.7004Y-3.6994
X4.7004Y-4.6915
X4.72Y-2.86
X4.7359Y-2.7072
X4.7359Y-5.4002
X4.74Y-2.64
X4.75Y-4.98
X4.7713Y-3.2033
X4.79Y-2.57
X4.8Y-5.05
X4.8067Y-3.4159
X4.8067Y-4.8332
X4.83Y-2.17
X4.83Y-2.23
X4.83Y-2.29
X4.83Y-2.36
X4.83Y-2.43
X4.83Y-2.5
X4.83Y-5.13
X4.83Y-5.21
X4.83Y-5.28
X4.83Y-5.35
X4.83Y-5.42
X4.8422Y-3.8057
X4.8422Y-4.0537
X4.8776Y-2.5655
X4.8776Y-2.8135
X4.8776Y-3.5931
X4.8776Y-4.2663
X4.913Y-2.1757
X4.913Y-3.097
X4.913Y-4.975
X4.913Y-5.223
X4.9485Y-2.3883
X4.9485Y-5.4356
X4.9839Y-3.912
X5.0193Y-2.6718
X5.0193Y-2.9198
X5.0193Y-3.4868
X5.0548Y-3.2033
X5.0548Y-3.6994
X5.0548Y-5.0813
X5.0902Y-2.2466
X5.0902Y-2.4946
X5.0902Y-4.0537
X5.0902Y-5.2939
T3
X4.995Y-3.299
X4.995Y-3.399
X4.995Y-4.149
X4.995Y-4.249
X4.995Y-4.349
X4.995Y-4.449
X4.995Y-4.549
X4.995Y-4.649
X4.995Y-4.749
X4.995Y-4.849
X5.095Y-3.299
X5.095Y-3.399
X5.095Y-4.149
X5.095Y-4.249
X5.095Y-4.349
X5.095Y-4.449
X5.095Y-4.549
X5.095Y-4.649
X5.095Y-4.749
X5.095Y-4.849
T4
X2.6706Y-2.94
X2.6706Y-3.47
X2.6706Y-4.01
X2.6706Y-4.545
X2.8675Y-2.94
X2.8675Y-3.47
X2.8675Y-4.01
X2.8675Y-4.545
T5
X2.7225Y-5.2874
X2.9225Y-5.2874
X3.3268Y-5.2874
X3.3283Y-2.311
X3.5268Y-5.2874
X3.5283Y-2.311
X3.7268Y-5.2874
X3.7283Y-2.311
X3.9268Y-5.2874
X3.9283Y-2.311
X4.1268Y-5.2874
X4.1283Y-2.311
X4.3268Y-5.2874
X4.3283Y-2.311
X4.5268Y-5.2874
X4.5283Y-2.311
X4.7268Y-5.2874
X4.7283Y-2.311
T6
X3.1675Y-4.615
X4.81Y-2.9725
T0
M30
